<svg xmlns="http://www.w3.org/2000/svg" width="98" height="98" viewBox="0 0 97.8 97.8">
    <path d="M48.9 0C21.9 0 0 21.9 0 48.9S21.9 97.8 48.9 97.8 97.8 75.9 97.8 48.9 75.9 0 48.9 0zM78.4 35.8c0 0.6 0 1.2 0 1.7 0 20.9-15.9 42.5-42.5 42.5 -8.1 0-16-2.3-22.9-6.7 -0.1-0.1-0.2-0.3-0.1-0.4 0.1-0.2 0.2-0.3 0.4-0.2 1.1 0.1 2.3 0.2 3.5 0.2 6.3 0 12.3-2 17.4-5.7 -6.1-0.5-11.3-4.6-13.2-10.5 0-0.1 0-0.3 0.1-0.4 0.1-0.1 0.2-0.1 0.3-0.1 1.7 0.3 3.4 0.3 5 0.1 -6.3-1.9-10.7-7.8-10.7-14.5l0-0.2c0-0.1 0.1-0.2 0.2-0.3 0.1-0.1 0.2-0.1 0.4 0 1.6 0.9 3.4 1.5 5.3 1.7 -3.6-2.9-5.7-7.2-5.7-11.9 0-2.7 0.7-5.3 2.1-7.6 0.1-0.1 0.2-0.2 0.3-0.2 0.1 0 0.2 0 0.3 0.1 7.4 9 18.2 14.6 29.8 15.3 -0.2-1-0.3-2-0.3-3 0-8.4 6.8-15.2 15.2-15.2 4.1 0 8.1 1.7 10.9 4.6 3.2-0.7 6.3-1.8 9.1-3.5 0.1-0.1 0.3-0.1 0.4 0 0.1 0.1 0.2 0.3 0.1 0.4 -1 3-2.8 5.6-5.3 7.5 2.4-0.4 4.7-1.1 6.8-2.1 0.1-0.1 0.3 0 0.4 0.1 0.1 0.1 0.1 0.3 0 0.4C83.8 31.2 81.3 33.7 78.4 35.8z"/>
</svg>
