<svg xmlns="http://www.w3.org/2000/svg" width="98" height="98" viewBox="0 0 97.8 97.8">
    <path d="M48.9 0C21.9 0 0 21.9 0 48.9S21.9 97.8 48.9 97.8 97.8 75.9 97.8 48.9 75.9 0 48.9 0zM83.4 32.8c-0.3 6.7-5 16-14.1 27.7 -9.4 12.2-17.4 18.3-23.9 18.3 -4 0-7.4-3.7-10.2-11.2 -1.9-6.8-3.7-13.7-5.6-20.5 -2.1-7.4-4.3-11.2-6.7-11.2 -0.5 0-2.3 1.1-5.4 3.3l-3.3-4.2c3.4-3 6.8-6 10.1-9 4.6-3.9 8-6 10.3-6.2 5.4-0.5 8.7 3.2 9.9 11 1.3 8.5 2.3 13.8 2.8 15.9 1.6 7.1 3.3 10.6 5.1 10.6 1.4 0 3.6-2.3 6.5-6.9 2.9-4.6 4.4-8.1 4.7-10.4 0.4-4-1.1-5.9-4.7-5.9 -1.7 0-3.4 0.4-5.1 1.1 3.4-11.1 9.9-16.6 19.5-16.2C80.5 19.2 83.8 23.8 83.4 32.8z"/>
</svg>
