<svg xmlns="http://www.w3.org/2000/svg" width="98" height="98" viewBox="0 0 97.75 97.75">
      <path d="M61.52 45.424c-6.555-3.492-13.097-7.008-19.667-10.468 -3.166-1.667-5.914 0.025-5.941 3.612 -0.027 3.492-0.006 6.985-0.006 10.479 0 3.537 0.012 7.074-0.005 10.61 -0.007 1.229 0.362 2.26 1.38 3 1.355 0.985 2.719 1.018 4.219 0.228 6.609-3.482 13.24-6.924 19.874-10.361 1.458-0.756 2.562-1.707 2.616-3.508C64.044 47.194 62.966 46.194 61.52 45.424z"/>
      <path d="M48.875 0C21.883 0 0 21.882 0 48.875S21.883 97.75 48.875 97.75 97.75 75.868 97.75 48.875 75.867 0 48.875 0zM82.833 66.998c0 8.746-7.089 15.835-15.836 15.835H30.753c-8.746 0-15.836-7.09-15.836-15.835V30.752c0-8.746 7.09-15.835 15.836-15.835h36.244c8.747 0 15.836 7.09 15.836 15.835V66.998z"/>
</svg>
