<?xml version="1.0" encoding="iso-8859-1"?>
<!-- Generator: Adobe Illustrator 16.0.0, SVG Export Plug-In . SVG Version: 6.00 Build 0)  -->
<!DOCTYPE svg PUBLIC "-//W3C//DTD SVG 1.1//EN" "http://www.w3.org/Graphics/SVG/1.1/DTD/svg11.dtd">
<svg version="1.1" id="Capa_1" xmlns="http://www.w3.org/2000/svg" xmlns:xlink="http://www.w3.org/1999/xlink" x="0px" y="0px"
	 width="97.75px" height="97.75px" viewBox="0 0 97.75 97.75" style="enable-background:new 0 0 97.75 97.75;" xml:space="preserve"
	>
<g>
	<path d="M48.875,0C21.883,0,0,21.883,0,48.875S21.883,97.75,48.875,97.75S97.75,75.867,97.75,48.875S75.867,0,48.875,0z
		 M47.327,13.036c0,0,12.481,1.502,17.463,11.703c0,0-11.399-9.301-21.123-5.161c0,0,12.422,11.343,11.819,24.545
		c0,0-11.278-32.526-31.562-13.981C23.924,30.142,29.504,10.876,47.327,13.036z M62.018,27.006c0,2.817-2.283,5.101-5.101,5.101
		s-5.103-2.283-5.103-5.101c0-2.818,2.283-5.102,5.103-5.102C59.732,21.904,62.018,24.188,62.018,27.006z M32.342,41.068
		c0,2.817-2.283,5.101-5.102,5.101c-2.816,0-5.1-2.283-5.1-5.101s2.283-5.102,5.1-5.102C30.059,35.967,32.342,38.251,32.342,41.068z
		 M13.271,50.655c0,0,1.5-12.48,11.701-17.461c0,0-9.301,11.4-5.161,21.125c0,0,11.345-12.421,24.545-11.821
		c0,0-32.526,11.278-13.982,31.563C30.374,74.062,11.11,68.48,13.271,50.655z M40.831,65.646c2.82,0,5.102,2.283,5.102,5.098
		c0,2.82-2.281,5.102-5.102,5.102c-2.814,0-5.1-2.281-5.1-5.102C35.731,67.93,38.017,65.646,40.831,65.646z M50.421,84.714
		c0,0-12.48-1.499-17.462-11.702c0,0,11.399,9.305,21.122,5.161c0,0-12.422-11.342-11.82-24.547c0,0,11.279,32.529,31.566,13.983
		C73.827,67.609,68.245,86.874,50.421,84.714z M65.409,56.684c0-2.816,2.282-5.103,5.1-5.103c2.818,0,5.101,2.285,5.101,5.103
		s-2.281,5.1-5.101,5.1C67.691,61.782,65.409,59.501,65.409,56.684z M72.775,64.557c0,0,9.304-11.4,5.162-21.124
		c0,0-11.344,12.422-24.547,11.823c0,0,32.527-11.281,13.984-31.566c0,0,19.264,5.581,17.104,23.404
		C84.479,47.094,82.979,59.576,72.775,64.557z"/>
</g>
<g>
</g>
<g>
</g>
<g>
</g>
<g>
</g>
<g>
</g>
<g>
</g>
<g>
</g>
<g>
</g>
<g>
</g>
<g>
</g>
<g>
</g>
<g>
</g>
<g>
</g>
<g>
</g>
<g>
</g>
</svg>
