<?xml version="1.0" encoding="iso-8859-1"?>
<!-- Generator: Adobe Illustrator 16.0.0, SVG Export Plug-In . SVG Version: 6.00 Build 0)  -->
<!DOCTYPE svg PUBLIC "-//W3C//DTD SVG 1.1//EN" "http://www.w3.org/Graphics/SVG/1.1/DTD/svg11.dtd">
<svg version="1.1" id="Capa_1" xmlns="http://www.w3.org/2000/svg" xmlns:xlink="http://www.w3.org/1999/xlink" x="0px" y="0px"
	 width="97.75px" height="97.75px" viewBox="0 0 97.75 97.75" style="enable-background:new 0 0 97.75 97.75;" xml:space="preserve"
	>
<g>
	<path d="M48.875,0C21.882,0,0,21.882,0,48.875S21.882,97.75,48.875,97.75S97.75,75.868,97.75,48.875S75.868,0,48.875,0z
		 M64.954,28.56c4.038,0,7.31,3.272,7.31,7.309s-3.271,7.31-7.31,7.31c-4.037,0-7.31-3.273-7.31-7.31S60.917,28.56,64.954,28.56z
		 M37.149,23.543c4.038,0,7.31,3.272,7.31,7.309s-3.272,7.309-7.31,7.309c-4.037,0-7.31-3.272-7.31-7.309
		S33.112,23.543,37.149,23.543z M83.314,63.939c-9.799,6.83-19.703,10.267-29.539,10.267c-2.521,0-5.033-0.226-7.542-0.677
		c-20.3-3.658-32.443-20.902-32.949-21.635c-1.442-2.084-0.923-4.94,1.16-6.381c2.079-1.44,4.932-0.924,6.376,1.152
		c0.952,1.362,23.721,33.117,57.25,9.749c2.078-1.448,4.937-0.938,6.385,1.141C85.902,59.634,85.395,62.491,83.314,63.939z"/>
</g>
<g>
</g>
<g>
</g>
<g>
</g>
<g>
</g>
<g>
</g>
<g>
</g>
<g>
</g>
<g>
</g>
<g>
</g>
<g>
</g>
<g>
</g>
<g>
</g>
<g>
</g>
<g>
</g>
<g>
</g>
</svg>
