<?xml version="1.0" encoding="iso-8859-1"?>
<!-- Generator: Adobe Illustrator 16.0.0, SVG Export Plug-In . SVG Version: 6.00 Build 0)  -->
<!DOCTYPE svg PUBLIC "-//W3C//DTD SVG 1.1//EN" "http://www.w3.org/Graphics/SVG/1.1/DTD/svg11.dtd">
<svg version="1.1" id="Capa_1" xmlns="http://www.w3.org/2000/svg" xmlns:xlink="http://www.w3.org/1999/xlink" x="0px" y="0px"
	 width="97.75px" height="97.75px" viewBox="0 0 97.75 97.75" style="enable-background:new 0 0 97.75 97.75;" xml:space="preserve"
	>
<g>
	<path d="M48.875,0C21.883,0,0,21.883,0,48.875S21.883,97.75,48.875,97.75S97.75,75.867,97.75,48.875S75.867,0,48.875,0z
		 M47.464,83.447c-19.568,0-35.43-15.862-35.43-35.43c0-19.563,15.861-35.427,35.43-35.427c2.351,0,4.646,0.236,6.869,0.672
		c-1.72,2.323-1.25,5.605,1.063,7.348c1.961,1.479,4.607,1.368,6.446-0.089c-0.575,2.033,0.103,4.298,1.89,5.646
		c2.229,1.682,4.324,1.427,6.511,0.027c-0.944,2.634-0.218,4.485,1.958,6.125c2.097,1.582,4.98,1.351,6.816-0.408
		c2.473,4.832,3.877,10.305,3.877,16.104c0,8.284-2.701,15.731-7.465,21.765c-1.992-0.087-6.556-0.405-8.715-3.568
		c-3.098-4.534-1.504-9.257-1.504-9.257c1.439-2.723,1.803-5.65,1.803-8.938c0-10.781-8.77-19.549-19.55-19.549
		c-10.78,0-19.551,8.768-19.551,19.549c0,10.78,8.771,19.551,19.551,19.551c1.156,0,2.284-0.119,3.386-0.314
		c-0.021,0.828-0.004,1.688,0.082,2.604c0.012,0.091,0.75,5.521,5.182,10.058c0.031,0.035,0.068,0.067,0.104,0.104
		c0.182,0.184,0.363,0.362,0.559,0.541c0.442,0.42,0.908,0.834,1.423,1.229C54.811,82.864,51.206,83.447,47.464,83.447z
		 M70.602,85.08c-17.1-1.092-18.836-15.383-18.836-15.383C50.376,54.511,64.29,57.751,64.29,57.751
		C61.775,71.38,76.333,70.678,76.333,70.678c12.935-1.023,9.121,7.7,7.924,9.535C79.455,86.172,70.602,85.08,70.602,85.08z"/>
</g>
<g>
</g>
<g>
</g>
<g>
</g>
<g>
</g>
<g>
</g>
<g>
</g>
<g>
</g>
<g>
</g>
<g>
</g>
<g>
</g>
<g>
</g>
<g>
</g>
<g>
</g>
<g>
</g>
<g>
</g>
</svg>
