<?xml version="1.0" encoding="iso-8859-1"?>
<!-- Generator: Adobe Illustrator 16.0.0, SVG Export Plug-In . SVG Version: 6.00 Build 0)  -->
<!DOCTYPE svg PUBLIC "-//W3C//DTD SVG 1.1//EN" "http://www.w3.org/Graphics/SVG/1.1/DTD/svg11.dtd">
<svg version="1.1" id="Capa_1" xmlns="http://www.w3.org/2000/svg" xmlns:xlink="http://www.w3.org/1999/xlink" x="0px" y="0px"
	 width="97.75px" height="97.75px" viewBox="0 0 97.75 97.75" style="enable-background:new 0 0 97.75 97.75;" xml:space="preserve"
	>
<g>
	<g>
		<polygon points="34.701,36.067 13.989,39.353 31.095,56.465 27.315,80.363 34.942,76.479 34.723,76.47 34.955,62.092 
			38.258,62.092 38.581,39.152 34.842,39.502 		"/>
		<polygon points="48.875,14.006 43.43,24.688 54.201,24.452 		"/>
		<polygon points="63.331,36.112 63.688,45.564 55.932,45.189 55.932,39.022 48.638,39.363 48.464,47.646 56.771,47.29 
			56.195,54.484 48.77,54.514 48.508,60.854 52.77,60.884 52.354,71.154 70.436,80.363 66.656,56.465 83.762,39.353 		"/>
		<path d="M48.875,0C21.882,0,0,21.882,0,48.875S21.882,97.75,48.875,97.75S97.75,75.868,97.75,48.875S75.868,0,48.875,0z
			 M72.354,83.003L52.287,72.784l-0.176,4.337l-14.126-0.528l-12.59,6.411l4.117-26.023L10.885,38.344l23.753-3.768l-0.397-9.688
			l7.506-0.164l7.128-13.981l6.971,13.673l7.039-0.154l0.389,10.34l23.592,3.742L68.238,56.979L72.354,83.003z"/>
	</g>
</g>
<g>
</g>
<g>
</g>
<g>
</g>
<g>
</g>
<g>
</g>
<g>
</g>
<g>
</g>
<g>
</g>
<g>
</g>
<g>
</g>
<g>
</g>
<g>
</g>
<g>
</g>
<g>
</g>
<g>
</g>
</svg>
