<?xml version="1.0" encoding="iso-8859-1"?>
<!-- Generator: Adobe Illustrator 16.0.0, SVG Export Plug-In . SVG Version: 6.00 Build 0)  -->
<!DOCTYPE svg PUBLIC "-//W3C//DTD SVG 1.1//EN" "http://www.w3.org/Graphics/SVG/1.1/DTD/svg11.dtd">
<svg version="1.1" id="Capa_1" xmlns="http://www.w3.org/2000/svg" xmlns:xlink="http://www.w3.org/1999/xlink" x="0px" y="0px"
	 width="97.75px" height="97.75px" viewBox="0 0 97.75 97.75" style="enable-background:new 0 0 97.75 97.75;" xml:space="preserve"
	>
<g>
	<g>
		<path d="M49.152,16.489c-7.754,0-14.055,4.931-14.055,11.015c0,0.139,0.021,0.272,0.026,0.409
			c2.49-4.218,7.797-7.266,14.062-7.535c5.695-0.246,10.793,1.854,13.814,5.218C61.846,20.423,56.093,16.489,49.152,16.489z"/>
		<path d="M48.875,0C21.883,0,0,21.883,0,48.875S21.883,97.75,48.875,97.75S97.75,75.867,97.75,48.875S75.867,0,48.875,0z
			 M48.865,55.607c-0.851,0-1.688-0.063-2.517-0.159c-2.325,5.31-11.179,25.185-15.332,29.514
			c-4.672,4.866,4.473-25.87,6.514-32.593c-6.182-3.814-10.314-10.631-10.314-18.431c0-11.968,9.702-21.67,21.649-21.67
			c11.968,0,21.669,9.702,21.669,21.67C70.534,45.907,60.833,55.607,48.865,55.607z"/>
	</g>
</g>
<g>
</g>
<g>
</g>
<g>
</g>
<g>
</g>
<g>
</g>
<g>
</g>
<g>
</g>
<g>
</g>
<g>
</g>
<g>
</g>
<g>
</g>
<g>
</g>
<g>
</g>
<g>
</g>
<g>
</g>
</svg>
