<?xml version="1.0" encoding="iso-8859-1"?>
<!-- Generator: Adobe Illustrator 16.0.0, SVG Export Plug-In . SVG Version: 6.00 Build 0)  -->
<!DOCTYPE svg PUBLIC "-//W3C//DTD SVG 1.1//EN" "http://www.w3.org/Graphics/SVG/1.1/DTD/svg11.dtd">
<svg version="1.1" id="Capa_1" xmlns="http://www.w3.org/2000/svg" xmlns:xlink="http://www.w3.org/1999/xlink" x="0px" y="0px"
	 width="97.75px" height="97.75px" viewBox="0 0 97.75 97.75" style="enable-background:new 0 0 97.75 97.75;" xml:space="preserve"
	>
<g>
	<g>
		<path d="M48.882,31.183c-9.771,0-17.692,7.921-17.692,17.692c0,9.771,7.921,17.691,17.692,17.691
			c9.771,0,17.692-7.92,17.692-17.691C66.574,39.104,58.652,31.183,48.882,31.183z M48.875,64.051
			c-8.368,0-15.176-6.808-15.176-15.176s6.808-15.176,15.176-15.176s15.176,6.808,15.176,15.176S57.243,64.051,48.875,64.051z"/>
		<path d="M48.875,34.675c-7.83,0-14.2,6.37-14.2,14.2s6.37,14.201,14.2,14.201s14.201-6.371,14.201-14.201
			S56.705,34.675,48.875,34.675z M48.875,60.184c-6.246,0-11.309-5.062-11.309-11.309s5.063-11.309,11.309-11.309
			c6.247,0,11.309,5.063,11.309,11.309C60.184,55.122,55.122,60.184,48.875,60.184z"/>
		<path d="M48.875,42.446c-3.551,0-6.429,2.878-6.429,6.429s2.878,6.43,6.429,6.43c3.55,0,6.43-2.879,6.43-6.43
			S52.425,42.446,48.875,42.446z M48.875,54.553c-3.131,0-5.678-2.548-5.678-5.678s2.547-5.678,5.678-5.678
			c3.132,0,5.678,2.548,5.678,5.678S52.007,54.553,48.875,54.553z"/>
		<path d="M48.875,0C21.882,0,0,21.882,0,48.875S21.882,97.75,48.875,97.75S97.75,75.868,97.75,48.875S75.868,0,48.875,0z
			 M82.54,71.277c0,6.222-5.042,11.265-11.265,11.265H26.474c-6.22,0-11.264-5.042-11.264-11.265V26.472
			c0-6.221,5.043-11.264,11.264-11.264h44.803c6.221,0,11.264,5.043,11.264,11.264L82.54,71.277L82.54,71.277z"/>
		<circle cx="48.875" cy="48.875" r="3.238"/>
		<path d="M48.875,22.967c-14.309,0-25.907,11.599-25.907,25.907c0,14.31,11.598,25.909,25.907,25.909
			c14.307,0,25.907-11.6,25.907-25.909C74.782,34.565,63.182,22.967,48.875,22.967z M48.875,70.277
			c-11.8,0-21.401-9.603-21.401-21.404c0-11.801,9.601-21.401,21.401-21.401s21.4,9.6,21.4,21.401
			C70.275,60.675,60.675,70.277,48.875,70.277z"/>
	</g>
</g>
<g>
</g>
<g>
</g>
<g>
</g>
<g>
</g>
<g>
</g>
<g>
</g>
<g>
</g>
<g>
</g>
<g>
</g>
<g>
</g>
<g>
</g>
<g>
</g>
<g>
</g>
<g>
</g>
<g>
</g>
</svg>
