<?xml version="1.0" encoding="iso-8859-1"?>
<!-- Generator: Adobe Illustrator 16.0.0, SVG Export Plug-In . SVG Version: 6.00 Build 0)  -->
<!DOCTYPE svg PUBLIC "-//W3C//DTD SVG 1.1//EN" "http://www.w3.org/Graphics/SVG/1.1/DTD/svg11.dtd">
<svg version="1.1" id="Capa_1" xmlns="http://www.w3.org/2000/svg" xmlns:xlink="http://www.w3.org/1999/xlink" x="0px" y="0px"
	 width="97.75px" height="97.75px" viewBox="0 0 97.75 97.75" style="enable-background:new 0 0 97.75 97.75;" xml:space="preserve"
	>
<g>
	<path d="M48.875,0C21.882,0,0,21.882,0,48.875S21.882,97.75,48.875,97.75S97.75,75.868,97.75,48.875S75.868,0,48.875,0z
		 M49.154,15.195c17.551,0,31.395,9.514,30.699,25.953c-0.129,3.063-1.435,6.101-3.529,8.903
		c-5.125-7.908-15.297-12.268-27.17-12.268c-12.038,0-22.848,4.187-28.452,12.431c-1.83-2.483-2.967-5.366-2.967-8.706
		C17.735,24.094,31.6,15.195,49.154,15.195z M48.875,82.555c-19.086,0-34.559-15.014-34.559-34.424c0-2.419,0.241-4.78,0.698-7.062
		c0,0.023-0.003,0.048-0.003,0.071c0,12.185,15,24.323,33.505,24.323c18.505,0,33.863-12.138,33.863-24.322
		c0-0.822-0.074-1.633-0.212-2.433c0.817,3.001,1.267,6.157,1.267,9.423C83.434,67.541,67.961,82.555,48.875,82.555z"/>
</g>
<g>
</g>
<g>
</g>
<g>
</g>
<g>
</g>
<g>
</g>
<g>
</g>
<g>
</g>
<g>
</g>
<g>
</g>
<g>
</g>
<g>
</g>
<g>
</g>
<g>
</g>
<g>
</g>
<g>
</g>
</svg>
