<?xml version="1.0" encoding="iso-8859-1"?>
<!-- Generator: Adobe Illustrator 16.0.0, SVG Export Plug-In . SVG Version: 6.00 Build 0)  -->
<!DOCTYPE svg PUBLIC "-//W3C//DTD SVG 1.1//EN" "http://www.w3.org/Graphics/SVG/1.1/DTD/svg11.dtd">
<svg version="1.1" id="Capa_1" xmlns="http://www.w3.org/2000/svg" xmlns:xlink="http://www.w3.org/1999/xlink" x="0px" y="0px"
	 width="97.75px" height="97.75px" viewBox="0 0 97.75 97.75" style="enable-background:new 0 0 97.75 97.75;" xml:space="preserve"
	>
<g>
	<g>
		<path d="M54.454,47.617c-0.297,0.414-0.447,0.831-0.447,1.253c0,0.353,0.127,0.662,0.38,0.931c0.19,0.206,0.459,0.309,0.805,0.309
			c0.383,0,0.826-0.215,1.332-0.643v-3.596C55.598,46.414,54.904,46.997,54.454,47.617z"/>
		<path d="M22.805,47.617c-0.299,0.414-0.448,0.831-0.448,1.253c0,0.353,0.127,0.662,0.38,0.931c0.19,0.206,0.459,0.309,0.803,0.309
			c0.384,0,0.829-0.215,1.335-0.643v-3.596C23.947,46.414,23.257,46.997,22.805,47.617z"/>
		<path d="M48.875,0C21.883,0,0,21.883,0,48.875S21.883,97.75,48.875,97.75S97.75,75.867,97.75,48.875S75.867,0,48.875,0z
			 M16.464,49.449c-0.348,0.902-0.853,1.587-1.517,2.059c-0.661,0.471-1.398,0.705-2.21,0.705c-0.593,0-1.143-0.13-1.657-0.393
			c-0.382-0.197-0.783-0.537-1.207-1.021v3.998c0,0.554,0.046,0.929,0.133,1.127c0.091,0.197,0.227,0.345,0.409,0.437
			c0.185,0.092,0.543,0.139,1.081,0.139v0.425H5.371V56.5c0.475-0.016,0.827-0.15,1.056-0.4c0.155-0.178,0.23-0.632,0.23-1.369
			V43.391c0-0.759-0.087-1.243-0.265-1.454c-0.175-0.209-0.516-0.33-1.021-0.361V41.15h4.502v1.412
			c0.377-0.549,0.76-0.948,1.151-1.194c0.559-0.36,1.168-0.54,1.827-0.54c0.788,0,1.508,0.249,2.154,0.748
			c0.647,0.497,1.139,1.184,1.475,2.062c0.338,0.878,0.507,1.82,0.507,2.833C16.987,47.557,16.812,48.55,16.464,49.449z
			 M28.338,51.657c-0.411,0.254-0.876,0.384-1.396,0.384c-0.612,0-1.091-0.143-1.435-0.432c-0.348-0.287-0.559-0.723-0.633-1.303
			c-1.312,1.154-2.486,1.733-3.529,1.733c-0.612,0-1.121-0.201-1.528-0.604c-0.406-0.4-0.609-0.905-0.609-1.51
			c0-0.82,0.353-1.558,1.058-2.213c0.704-0.656,2.241-1.527,4.609-2.614v-1.08c0-0.811-0.046-1.322-0.132-1.534
			c-0.089-0.209-0.256-0.394-0.501-0.551c-0.246-0.156-0.521-0.234-0.827-0.234c-0.499,0-0.908,0.111-1.23,0.333
			c-0.199,0.138-0.297,0.297-0.297,0.48c0,0.163,0.106,0.362,0.32,0.599c0.291,0.329,0.438,0.646,0.438,0.953
			c0,0.376-0.14,0.696-0.42,0.961c-0.28,0.265-0.646,0.396-1.098,0.396c-0.482,0-0.885-0.146-1.213-0.438
			c-0.324-0.29-0.488-0.634-0.488-1.022c0-0.553,0.221-1.079,0.655-1.581c0.437-0.501,1.046-0.887,1.828-1.154
			c0.78-0.269,1.592-0.402,2.435-0.402c1.021,0,1.824,0.217,2.419,0.651c0.595,0.431,0.979,0.9,1.155,1.406
			c0.105,0.321,0.161,1.062,0.161,2.217v4.17c0,0.489,0.019,0.799,0.058,0.926c0.037,0.128,0.096,0.222,0.172,0.281
			c0.075,0.062,0.165,0.094,0.265,0.094c0.197,0,0.402-0.144,0.608-0.426l0.344,0.274C29.144,50.988,28.748,51.398,28.338,51.657z
			 M49.053,51.893h-5.552v-0.414c0.437-0.039,0.761-0.207,0.965-0.506c0.14-0.205,0.208-0.682,0.208-1.424v-4.62
			c0-0.958-0.04-1.565-0.115-1.826c-0.075-0.262-0.196-0.455-0.362-0.581c-0.165-0.127-0.356-0.19-0.58-0.19
			c-0.328,0-0.661,0.121-1.001,0.361c-0.336,0.242-0.677,0.605-1.021,1.086v5.771c0,0.774,0.065,1.261,0.195,1.457
			c0.178,0.284,0.514,0.44,1.012,0.474v0.414H37.24V51.48c0.3-0.018,0.534-0.09,0.706-0.226c0.174-0.133,0.288-0.296,0.344-0.481
			c0.059-0.188,0.089-0.597,0.089-1.224v-4.62c0-0.974-0.039-1.582-0.115-1.826c-0.077-0.245-0.204-0.437-0.386-0.574
			c-0.181-0.138-0.374-0.208-0.58-0.208c-0.307,0-0.585,0.08-0.838,0.24c-0.361,0.239-0.744,0.645-1.15,1.218v5.771
			c0,0.758,0.075,1.258,0.225,1.498c0.149,0.242,0.462,0.385,0.937,0.432v0.414h-5.538V51.48c0.451-0.047,0.774-0.19,0.965-0.437
			c0.131-0.17,0.195-0.667,0.195-1.493v-6.068c0-0.811-0.074-1.315-0.224-1.515c-0.149-0.2-0.462-0.331-0.937-0.392V41.15h4.377
			v1.412c0.59-0.643,1.137-1.092,1.639-1.348c0.501-0.258,1.051-0.387,1.649-0.387c0.688,0,1.266,0.163,1.734,0.482
			c0.467,0.321,0.825,0.813,1.078,1.471c0.613-0.688,1.202-1.187,1.767-1.493c0.562-0.306,1.149-0.46,1.762-0.46
			c0.744,0,1.335,0.172,1.775,0.512c0.439,0.342,0.746,0.773,0.919,1.299c0.173,0.526,0.258,1.359,0.258,2.511v4.401
			c0,0.826,0.077,1.339,0.224,1.538c0.15,0.2,0.462,0.33,0.94,0.393v0.412H49.053z M59.988,51.657
			c-0.411,0.254-0.877,0.384-1.396,0.384c-0.613,0-1.093-0.143-1.438-0.432c-0.344-0.287-0.557-0.723-0.633-1.303
			c-1.31,1.154-2.484,1.733-3.527,1.733c-0.611,0-1.121-0.201-1.527-0.604c-0.406-0.4-0.609-0.905-0.609-1.51
			c0-0.82,0.354-1.558,1.058-2.213c0.704-0.656,2.242-1.527,4.608-2.614v-1.08c0-0.811-0.045-1.322-0.133-1.534
			c-0.089-0.209-0.256-0.394-0.5-0.551c-0.244-0.156-0.521-0.234-0.828-0.234c-0.498,0-0.905,0.111-1.229,0.333
			c-0.199,0.138-0.297,0.297-0.297,0.48c0,0.163,0.105,0.362,0.318,0.599c0.293,0.329,0.438,0.646,0.438,0.953
			c0,0.376-0.14,0.696-0.419,0.961c-0.281,0.265-0.646,0.396-1.1,0.396c-0.48,0-0.885-0.146-1.211-0.438
			c-0.326-0.29-0.486-0.634-0.486-1.022c0-0.553,0.219-1.079,0.652-1.581c0.438-0.501,1.045-0.887,1.828-1.154
			c0.78-0.269,1.592-0.402,2.436-0.402c1.02,0,1.824,0.217,2.419,0.651c0.593,0.431,0.979,0.9,1.155,1.406
			c0.107,0.321,0.158,1.062,0.158,2.217v4.17c0,0.489,0.021,0.799,0.061,0.926c0.037,0.128,0.096,0.222,0.171,0.281
			c0.075,0.061,0.165,0.094,0.265,0.094c0.199,0,0.403-0.144,0.609-0.426l0.345,0.274C60.794,50.988,60.398,51.398,59.988,51.657z
			 M80.701,51.893H75.15v-0.414c0.438-0.039,0.76-0.207,0.967-0.506c0.137-0.205,0.207-0.682,0.207-1.424v-4.62
			c0-0.958-0.038-1.565-0.115-1.826c-0.077-0.262-0.197-0.455-0.361-0.581c-0.164-0.127-0.359-0.19-0.58-0.19
			c-0.33,0-0.662,0.121-1,0.361c-0.338,0.242-0.678,0.605-1.021,1.086v5.771c0,0.774,0.062,1.261,0.193,1.457
			c0.178,0.284,0.515,0.44,1.013,0.474v0.414h-5.562V51.48c0.299-0.018,0.533-0.09,0.707-0.226c0.172-0.133,0.285-0.296,0.344-0.481
			c0.058-0.188,0.088-0.597,0.088-1.224v-4.62c0-0.974-0.041-1.582-0.115-1.826c-0.077-0.245-0.204-0.437-0.387-0.574
			c-0.178-0.138-0.373-0.208-0.579-0.208c-0.306,0-0.585,0.08-0.841,0.24c-0.358,0.239-0.741,0.645-1.146,1.218v5.771
			c0,0.758,0.073,1.258,0.224,1.498c0.146,0.242,0.461,0.385,0.937,0.432v0.414h-5.538V51.48c0.451-0.047,0.773-0.19,0.965-0.437
			c0.131-0.17,0.194-0.667,0.194-1.493v-6.068c0-0.811-0.073-1.315-0.226-1.515c-0.146-0.2-0.459-0.331-0.935-0.392V41.15h4.379
			v1.412c0.59-0.643,1.134-1.092,1.636-1.348c0.504-0.258,1.053-0.387,1.648-0.387c0.689,0,1.27,0.163,1.736,0.482
			c0.467,0.321,0.826,0.813,1.078,1.471c0.611-0.688,1.203-1.187,1.765-1.493c0.563-0.306,1.149-0.46,1.764-0.46
			c0.742,0,1.335,0.172,1.776,0.512c0.439,0.342,0.746,0.773,0.919,1.299c0.172,0.526,0.258,1.359,0.258,2.511v4.401
			c0,0.826,0.075,1.339,0.226,1.538c0.148,0.2,0.461,0.33,0.936,0.393v0.412H80.701z M87.348,52.213
			c-1.619,0-2.861-0.566-3.736-1.699c-0.873-1.134-1.31-2.449-1.31-3.941c0-1.539,0.445-2.882,1.339-4.025
			c0.893-1.147,2.115-1.72,3.67-1.72c0.937,0,1.807,0.242,2.608,0.725c0.806,0.483,1.415,1.168,1.834,2.058
			c0.417,0.888,0.626,1.86,0.626,2.916c0,1.526-0.387,2.802-1.16,3.828C90.283,51.594,88.991,52.213,87.348,52.213z"/>
		<path d="M11.784,42.227c-0.774,0-1.412,0.563-1.911,1.679v5.734c0.661,0.935,1.364,1.401,2.117,1.401
			c0.412,0,0.753-0.218,1.021-0.656c0.397-0.644,0.597-1.868,0.597-3.676c0-1.854-0.217-3.121-0.653-3.804
			C12.664,42.455,12.271,42.227,11.784,42.227z"/>
		<path d="M88.139,41.885c-0.197-0.16-0.459-0.242-0.781-0.242c-0.391,0-0.725,0.148-1.006,0.443
			c-0.279,0.293-0.463,0.877-0.55,1.746c-0.088,0.869-0.133,2.078-0.133,3.625c0,0.818,0.054,1.585,0.16,2.297
			c0.085,0.545,0.264,0.957,0.54,1.241c0.275,0.284,0.59,0.426,0.941,0.426c0.346,0,0.633-0.096,0.862-0.288
			c0.298-0.261,0.499-0.624,0.597-1.09c0.153-0.729,0.229-2.2,0.229-4.413c0-1.303-0.071-2.197-0.217-2.684
			C88.637,42.46,88.422,42.106,88.139,41.885z"/>
	</g>
</g>
<g>
</g>
<g>
</g>
<g>
</g>
<g>
</g>
<g>
</g>
<g>
</g>
<g>
</g>
<g>
</g>
<g>
</g>
<g>
</g>
<g>
</g>
<g>
</g>
<g>
</g>
<g>
</g>
<g>
</g>
</svg>
