<?xml version="1.0" encoding="iso-8859-1"?>
<!-- Generator: Adobe Illustrator 16.0.0, SVG Export Plug-In . SVG Version: 6.00 Build 0)  -->
<!DOCTYPE svg PUBLIC "-//W3C//DTD SVG 1.1//EN" "http://www.w3.org/Graphics/SVG/1.1/DTD/svg11.dtd">
<svg version="1.1" id="Capa_1" xmlns="http://www.w3.org/2000/svg" xmlns:xlink="http://www.w3.org/1999/xlink" x="0px" y="0px"
	 width="97.75px" height="97.75px" viewBox="0 0 97.75 97.75" style="enable-background:new 0 0 97.75 97.75;" xml:space="preserve"
	>
<g>
	<g>
		<path d="M26.23,50.482c0.781,0.008,1.441-0.043,2.011-0.174c1.709-0.392,4.071-2.525,4.071-8.581s-2.626-7.764-3.604-8.096
			c-4.379-1.247-4.066,0.253-4.082,0.177l0.006,15.587C24.633,49.398,24.448,50.521,26.23,50.482z"/>
		<path d="M61.999,34.367c-0.022-2.085-0.741-3.391-2.479-2.204v4.786C59.52,36.948,61.934,37.506,61.999,34.367z"/>
		<path d="M76.284,41.466c-0.313-0.966-1.063-1.348-1.876-1.127c-0.911,0.246-1.652,1.838-1.688,2.771c1.271,0,2.541,0,3.905,0
			C76.508,42.521,76.445,41.968,76.284,41.466z"/>
		<path d="M40.042,48.486c0.015,0.402,0.061,0.818,0.177,1.195c0.233,0.752,0.772,1.131,1.428,1.088
			c0.649-0.043,1.705-0.51,1.807-1.369c0.153-1.275,0.156-2.573,0.228-3.943c-0.741,0.361-1.86,0.637-2.464,0.969
			C40.459,46.845,40.007,47.517,40.042,48.486z"/>
		<path d="M48.875,0C21.883,0,0,21.882,0,48.875S21.883,97.75,48.875,97.75S97.75,75.868,97.75,48.875S75.867,0,48.875,0z
			 M85.814,57.145c-0.375,0.344-0.722,0.725-1.123,1.041l-0.59,0.489l-0.619,0.456c-0.406,0.314-0.853,0.569-1.279,0.855
			c-0.453,0.244-0.895,0.51-1.364,0.721c-0.46,0.232-0.937,0.427-1.413,0.622c-0.482,0.179-0.966,0.366-1.461,0.509
			c-0.49,0.157-0.99,0.288-1.492,0.406c-0.506,0.102-1.012,0.21-1.521,0.277c-0.51,0.084-1.021,0.136-1.536,0.188
			c-0.515,0.042-1.026,0.076-1.543,0.09c-0.515,0.015-1.031,0.021-1.546,0.003c-0.516-0.009-1.029-0.037-1.543-0.078
			c-1.027-0.091-2.049-0.238-3.059-0.432c-0.507-0.1-1.01-0.208-1.51-0.334c-0.496-0.125-0.979-0.256-1.477-0.422l-0.74-0.156
			c-0.249-0.058-0.497-0.105-0.752-0.123l-0.758-0.084c-0.254-0.013-0.508-0.012-0.762-0.019c-0.256-0.013-0.512-0.005-0.767,0.021
			c-0.253,0.023-0.51,0.029-0.763,0.064l-0.76,0.119c-0.254,0.037-0.5,0.113-0.75,0.168c-0.252,0.053-0.5,0.123-0.744,0.205
			c-0.244,0.08-0.493,0.146-0.732,0.244c-0.486,0.168-0.964,0.367-1.436,0.582c-0.469,0.225-0.93,0.461-1.377,0.728
			c-0.446,0.264-0.887,0.542-1.305,0.856c0.775-0.703,1.653-1.289,2.57-1.801c0.462-0.25,0.934-0.486,1.419-0.693
			c0.239-0.111,0.491-0.189,0.739-0.281c0.246-0.094,0.498-0.178,0.754-0.244c0.258-0.066,0.509-0.155,0.77-0.204l0.78-0.158
			c0.263-0.048,0.526-0.065,0.791-0.1c0.265-0.038,0.531-0.058,0.798-0.056c0.268-0.006,0.534-0.018,0.801-0.016l0.799,0.066
			c0.27,0.014,0.533,0.062,0.793,0.117l0.789,0.156H62.9l0.021,0.006c0.464,0.147,0.958,0.275,1.445,0.393
			c0.489,0.117,0.983,0.215,1.479,0.305c0.99,0.178,1.989,0.305,2.993,0.383c0.5,0.047,1.003,0.082,1.507,0.099
			c0.502,0.022,1.006,0.024,1.508,0.018c0.504-0.006,1.006-0.034,1.508-0.067c0.5-0.045,1.002-0.086,1.498-0.162
			c0.5-0.06,0.992-0.158,1.486-0.25c0.49-0.105,0.984-0.204,1.469-0.34c0.49-0.117,0.965-0.28,1.444-0.435
			c0.474-0.171,0.946-0.341,1.407-0.55c0.469-0.186,0.909-0.432,1.366-0.646c0.438-0.25,0.896-0.471,1.315-0.752l0.641-0.408
			l0.619-0.442C85.027,57.791,85.411,57.456,85.814,57.145z M83.882,54.422c0.194-0.174,0.298-0.267,0.298-0.267
			s-0.095,0.102-0.271,0.294c-0.179,0.188-0.423,0.486-0.786,0.811c-0.35,0.342-0.803,0.725-1.338,1.147
			c-0.542,0.411-1.174,0.858-1.911,1.263c-0.728,0.425-1.56,0.807-2.452,1.169c-0.896,0.362-1.871,0.667-2.896,0.903
			c-2.051,0.48-4.299,0.719-6.543,0.707c-1.121-0.02-2.239-0.094-3.336-0.229c-0.549-0.067-1.09-0.146-1.627-0.249
			c-0.504-0.101-1.031-0.132-1.535-0.201c-0.508-0.023-1.012-0.05-1.502-0.054c-0.49,0.022-0.975,0.007-1.438,0.074
			c-0.231,0.024-0.463,0.049-0.688,0.073c-0.226,0.041-0.444,0.082-0.662,0.121c-0.438,0.065-0.844,0.197-1.244,0.295
			c-0.781,0.242-1.495,0.494-2.1,0.783c-0.613,0.272-1.115,0.574-1.527,0.826c-0.814,0.522-1.227,0.9-1.227,0.9
			s0.366-0.422,1.147-1.014c0.396-0.283,0.884-0.627,1.487-0.948c0.592-0.338,1.303-0.652,2.099-0.929
			c0.405-0.117,0.819-0.271,1.269-0.358c0.223-0.05,0.448-0.103,0.678-0.154c0.231-0.034,0.469-0.071,0.709-0.106
			c0.478-0.09,0.979-0.098,1.484-0.141c0.51-0.027,1.032,0.004,1.561,0.019c0.527,0.063,1.06,0.088,1.607,0.188
			c0.516,0.09,1.049,0.159,1.586,0.219c1.072,0.115,2.172,0.172,3.269,0.176c2.192,0.039,4.393-0.158,6.399-0.6
			c1-0.228,1.965-0.474,2.853-0.787c0.887-0.316,1.715-0.652,2.442-1.037c1.469-0.746,2.606-1.539,3.347-2.16
			C83.413,54.857,83.688,54.595,83.882,54.422z M75.57,39.438c1.361,0.123,2.57,0.625,3.436,1.878
			c0.549,0.793,0.805,1.699,0.862,2.753c-2.552,0-5.052,0-7.593,0c-0.278,2.051-0.322,3.996,0.976,5.691
			c1.251,1.635,4.748,1.809,5.954-0.958c0.128-0.293,0.263-0.489,0.59-0.315c-0.304,1.469-1.172,2.414-2.373,2.955
			c-1.867,0.841-3.761,0.771-5.58-0.183c-2.04-1.069-3.107-3.515-2.822-6.199C69.425,41.246,72.287,39.145,75.57,39.438z
			 M65.6,36.588c0.144-0.453,0.137-0.455,0.668-0.389c0,1.149,0,2.308,0,3.529c1.062,0,2.069,0,3.104,0c0,0.346,0,0.63,0,0.983
			c-1.017,0-2.05,0-3.103,0c-0.013,0.163-0.027,0.261-0.027,0.359c0.006,2.591,0.015,5.183,0.017,7.773
			c0.001,0.823,0.125,1.572,0.927,1.911c0.785,0.333,1.646,0.074,2.258-0.663c0.072-0.086,0.14-0.177,0.211-0.268
			c0.332,0.094,0.354,0.315,0.15,0.538c-0.355,0.387-0.691,0.859-1.127,1.08c-1.419,0.714-2.886,0.726-4.322,0.024
			c-0.893-0.432-1.195-1.11-1.176-2.186c0.053-2.759,0.076-5.52,0.11-8.277c0.001-0.067-0.013-0.134-0.026-0.281
			c-0.472,0-0.912,0-1.343,0c-0.175-0.841-0.151-0.873,0.524-1.016C64.061,39.366,65.062,38.262,65.6,36.588z M57.08,27.451
			c0.754-0.114,1.511-0.22,2.271-0.329c0,1.501,0,3.013,0,4.545c0.035-0.022,0.062-0.035,0.082-0.055
			c1.084-1.005,2.631-0.823,3.524,0.4c0.929,1.269,1.024,4.011-0.685,5.027c-0.864,0.512-1.434,0.666-2.809,0.547l-1.684-0.022
			c0-0.164,0-0.266,0-0.369c0-2.709,0-5.759-0.002-8.468c0-0.154,0.006-0.313-0.023-0.463c-0.07-0.373-0.292-0.571-0.643-0.606
			c-0.055-0.005-0.1-0.074-0.148-0.115C57.004,27.512,57.038,27.457,57.08,27.451z M50.021,31.3l2.226,0.009
			c0,0.358,0,0.689,0,1.048c0.001,1.169-0.004,2.338,0.005,3.508c0.006,0.723,0.28,1.046,0.898,1.099
			c0.611,0.053,1.035-0.302,1.127-0.972c0.043-0.313,0.048-0.633,0.052-0.95c0.008-0.671,0.004-1.605,0.001-2.276
			c-0.001-0.154-0.007-0.335-0.023-0.489c-0.057-0.476-0.195-0.632-0.625-0.738c-0.06-0.015-0.108-0.066-0.164-0.101
			c0.058-0.042,0.109-0.111,0.174-0.121l2.216-0.033l-0.005,4.89c0,1.33,0.59,1.224,0.59,1.224l-0.004,0.204l-2.077,0.012
			c-0.015,0.002-0.03-0.009-0.06-0.018c0-0.239,0-0.483,0-0.776c-0.088,0.085-0.151,0.143-0.211,0.203
			c-0.732,0.718-2.019,0.836-2.85,0.263c-0.316-0.219-0.536-0.509-0.545-0.936c-0.018-0.799-0.025-1.861-0.037-2.661
			c-0.005-0.403,0.005-0.809-0.007-1.212c-0.015-0.504-0.156-0.905-0.673-0.969c-0.045-0.006-0.084-0.072-0.125-0.111
			C49.941,31.364,49.979,31.307,50.021,31.3z M46.006,28.073c0.788-0.141,1.576-0.281,2.316-0.412l0.004,9.225
			c0,0.518,0.548,0.655,0.548,0.655v0.108l-2.684,0.01l-0.003-0.108c0,0,0.525-0.249,0.525-0.567l-0.004-7.934
			c-0.031-0.501-0.118-0.7-0.567-0.804c-0.068-0.016-0.125-0.079-0.188-0.12C45.971,28.108,45.988,28.09,46.006,28.073z
			 M46.886,42.543c0.019,1.745,0.011,3.488,0.017,5.233c0.002,0.66-0.006,1.322,0.021,1.981c0.025,0.664,0.269,1.066,0.693,1.194
			c0.513,0.154,0.885-0.092,1.208-0.516c0.099-0.131,0.276-0.188,0.419-0.278c0.027,0.05,0.055,0.098,0.083,0.147
			c-0.146,0.359-0.354,0.656-0.601,0.903c0.629-0.126,0.975-0.569,1.079-1.235c0.092-0.582,0.161-1.175,0.168-1.765
			c0.021-1.879,0.008-3.76,0.004-5.64c0-0.219-0.014-0.441-0.047-0.656c-0.138-0.887-0.398-1.174-1.197-1.372
			c-0.116-0.029-0.216-0.129-0.324-0.196c0.112-0.083,0.218-0.221,0.338-0.241c1.394-0.224,2.79-0.43,4.229-0.648
			c0,0.479,0,1.019,0,1.644c0.137-0.118,0.207-0.17,0.271-0.235c1.407-1.49,3.086-1.825,4.903-1.258
			c1.141,0.356,1.957,1.167,2.006,2.588c0.051,1.471,0.037,2.945,0.064,4.417c0.018,1.048,0.032,2.098,0.096,3.142
			c0.047,0.799,0.447,1.306,1.183,1.467c0.093,0.021,0.167,0.142,0.249,0.216c-0.085,0.043-0.171,0.127-0.257,0.127
			c-1.845,0.004-3.687,0-5.529-0.004c-0.026,0-0.058-0.024-0.22-0.104c0.171-0.126,0.257-0.226,0.361-0.263
			c0.58-0.2,0.873-0.664,0.979-1.289c0.058-0.329,0.104-0.67,0.106-1.004c0.012-2.032,0.004-4.064,0.013-6.098
			c0.003-0.866-0.269-1.582-0.988-1.972c-0.733-0.396-1.466-0.266-2.136,0.237c-0.655,0.492-1.107,1.143-1.107,2.052
			c0.002,2.064,0.004,4.13,0.062,6.192c0.023,0.832,0.234,1.625,1.105,1.909c0.062,0.021,0.1,0.136,0.149,0.207
			c-0.085,0.046-0.168,0.134-0.254,0.136c-0.584,0.011-1.166,0.006-1.751,0.006c-1.182,0-2.364,0.004-3.548-0.008
			c-0.088-0.002-0.177-0.07-0.265-0.127c-1.259,0.967-3.283,0.724-4.361-0.817c-0.542,0.344-1.048,0.778-1.622,1.005
			c-1.365,0.543-2.728,0.531-3.918-0.528c-1.389-1.235-1.424-3.992,0.406-4.89c0.985-0.483,2.048-0.794,3.096-1.098
			c1.571-0.457,1.824-0.767,1.807-2.547c-0.003-0.203-0.009-0.407-0.028-0.609c-0.147-1.586-1.121-1.907-2.218-1.636
			c-0.487,0.12-0.781,0.517-0.835,1.087c-0.025,0.27-0.036,0.542-0.075,0.809c-0.13,0.865-0.776,1.309-1.569,1.092
			c-0.661-0.181-1.053-0.917-0.78-1.666c0.162-0.445,0.462-0.879,0.799-1.187c0.628-0.573,1.414-0.804,2.214-0.912
			c1.34-0.18,2.655-0.121,3.935,0.457C46.374,40.47,46.873,41.323,46.886,42.543z M37.309,32.649
			c-0.002-0.992,0.189-1.951,0.661-2.844c0.726-1.374,1.83-2.136,3.258-2.368c0.986-0.16,1.665,0.094,2.583,0.498
			c0.152,0.067,1.299,0.057,1.299,0.057l0.006,3.237l-0.523-0.008c0,0,0.153-2.06-1.26-2.909c-1.212-0.729-2.408-0.489-3.21,1.487
			c-0.572,1.61-0.834,3.414,0,5.714c0.802,1.977,1.998,2.216,3.21,1.487c1.413-0.849,1.26-2.909,1.26-2.909l0.523-0.008
			l-0.006,3.238c0,0-1.146-0.01-1.299,0.057c-0.918,0.403-1.597,0.657-2.583,0.496c-1.428-0.231-2.532-0.994-3.258-2.368
			c-0.472-0.894-0.663-1.852-0.661-2.844c0-0.002,0-0.004,0.001-0.007C37.309,32.654,37.309,32.652,37.309,32.649z M21.101,44.9
			c0.003-2.996,0.001-5.992,0-8.988c0-0.288-0.003-0.575-0.013-0.863c-0.06-1.51-0.486-2.06-1.827-2.339c0-0.137,0-0.279,0-0.44
			c0.116-0.014,0.206-0.035,0.293-0.035c2.809,0,5.619-0.022,8.428,0.015c1.85,0.025,3.624,0.461,5.224,1.536
			c2.086,1.4,3.257,3.486,3.615,6.123c0.4,2.96,0.082,5.791-1.556,8.272c-1.271,1.926-3.017,3.159-5.19,3.248
			c-3.571,0.144-7.149,0.098-10.725,0.129c-0.028,0-0.058-0.02-0.262-0.097c0.179-0.185,0.284-0.387,0.414-0.407
			c0.941-0.164,1.516-0.715,1.569-2.092C21.123,47.609,21.1,46.255,21.101,44.9z M13.818,54.422
			c0.195,0.173,0.472,0.436,0.853,0.734c0.739,0.623,1.877,1.416,3.346,2.16c0.729,0.385,1.557,0.721,2.443,1.037
			c0.888,0.313,1.851,0.56,2.852,0.787c2.006,0.441,4.206,0.639,6.399,0.6c1.098-0.004,2.196-0.061,3.27-0.176
			c0.537-0.06,1.068-0.129,1.586-0.22c0.546-0.101,1.079-0.124,1.605-0.188c0.53-0.015,1.052-0.044,1.561-0.019
			c0.509,0.043,1.008,0.051,1.486,0.141c0.239,0.037,0.477,0.072,0.709,0.106c0.229,0.052,0.455,0.104,0.678,0.154
			c0.448,0.088,0.861,0.241,1.267,0.358c0.797,0.276,1.506,0.591,2.101,0.929c0.603,0.321,1.09,0.665,1.486,0.948
			c0.78,0.592,1.147,1.014,1.147,1.014s-0.412-0.378-1.226-0.9c-0.412-0.252-0.914-0.554-1.527-0.826
			c-0.604-0.289-1.318-0.541-2.101-0.783c-0.398-0.098-0.806-0.229-1.244-0.295c-0.216-0.039-0.438-0.08-0.662-0.121
			c-0.226-0.024-0.456-0.049-0.689-0.073c-0.463-0.067-0.948-0.052-1.438-0.074c-0.491,0.003-0.993,0.029-1.501,0.054
			c-0.505,0.068-1.032,0.101-1.537,0.201c-0.535,0.103-1.076,0.182-1.625,0.249c-1.096,0.134-2.216,0.208-3.338,0.229
			c-2.243,0.012-4.489-0.227-6.541-0.707c-1.026-0.236-2.001-0.541-2.896-0.903c-0.895-0.362-1.726-0.744-2.452-1.169
			c-0.738-0.404-1.368-0.852-1.912-1.263c-0.535-0.423-0.988-0.806-1.337-1.147c-0.364-0.324-0.607-0.621-0.787-0.811
			c-0.175-0.192-0.269-0.295-0.269-0.295S13.626,54.248,13.818,54.422z M13.092,58.081l0.619,0.442l0.641,0.408
			c0.421,0.281,0.879,0.502,1.315,0.752c0.458,0.215,0.898,0.461,1.367,0.646c0.459,0.208,0.935,0.379,1.407,0.55
			c0.479,0.154,0.955,0.318,1.444,0.435c0.484,0.136,0.979,0.234,1.469,0.34c0.493,0.092,0.986,0.191,1.485,0.251
			c0.498,0.075,1,0.116,1.499,0.161c0.503,0.033,1.005,0.062,1.508,0.067c0.502,0.007,1.006,0.005,1.509-0.018
			c0.502-0.017,1.004-0.052,1.506-0.099c1.002-0.078,2.003-0.205,2.994-0.383c0.495-0.09,0.99-0.188,1.479-0.305
			c0.486-0.116,0.981-0.244,1.445-0.393l0.021-0.006h0.003l0.789-0.156c0.262-0.057,0.525-0.104,0.792-0.117l0.801-0.066
			c0.267-0.002,0.534,0.01,0.801,0.016c0.268-0.002,0.532,0.018,0.797,0.056c0.264,0.034,0.53,0.052,0.792,0.101l0.78,0.157
			c0.261,0.048,0.512,0.138,0.768,0.204s0.509,0.15,0.756,0.244c0.246,0.092,0.5,0.17,0.738,0.281
			c0.487,0.207,0.958,0.443,1.42,0.693c0.917,0.512,1.795,1.098,2.57,1.801c-0.417-0.314-0.859-0.593-1.306-0.856
			c-0.446-0.267-0.908-0.503-1.375-0.728c-0.473-0.215-0.948-0.414-1.437-0.582c-0.238-0.099-0.488-0.166-0.732-0.244
			c-0.245-0.082-0.492-0.152-0.744-0.205c-0.251-0.055-0.496-0.131-0.75-0.168l-0.76-0.119c-0.253-0.036-0.509-0.042-0.764-0.064
			c-0.253-0.025-0.51-0.035-0.764-0.021c-0.254,0.007-0.509,0.006-0.763,0.019l-0.758,0.084c-0.254,0.016-0.503,0.065-0.75,0.123
			l-0.742,0.156c-0.496,0.166-0.981,0.298-1.476,0.422c-0.5,0.127-1.003,0.234-1.509,0.334c-1.012,0.193-2.031,0.341-3.059,0.432
			c-0.514,0.041-1.027,0.069-1.543,0.078c-0.516,0.018-1.031,0.01-1.546-0.003s-1.029-0.048-1.544-0.09
			c-0.513-0.053-1.026-0.104-1.536-0.188c-0.51-0.067-1.016-0.176-1.521-0.277c-0.503-0.118-1.003-0.249-1.493-0.406
			c-0.497-0.142-0.978-0.33-1.461-0.509c-0.478-0.195-0.954-0.39-1.415-0.622c-0.468-0.211-0.911-0.477-1.362-0.721
			c-0.429-0.286-0.875-0.54-1.28-0.855l-0.618-0.456l-0.592-0.489c-0.402-0.316-0.748-0.696-1.122-1.041
			C12.291,57.456,12.675,57.791,13.092,58.081z M89.158,59.318c-0.598,0.789-1.246,1.539-1.943,2.252
			c-0.347,0.357-0.725,0.686-1.094,1.024c-0.389,0.316-0.781,0.63-1.186,0.933c-0.826,0.574-1.682,1.125-2.603,1.558
			c-0.91,0.46-1.88,0.791-2.856,1.083c-0.985,0.268-1.99,0.471-3.004,0.589s-2.033,0.173-3.047,0.144
			c-1.015-0.014-2.023-0.086-3.021-0.199c-1.998-0.213-3.957-0.59-5.865-0.965c-0.953-0.182-1.896-0.358-2.816-0.478
			c-0.457-0.058-0.91-0.101-1.345-0.114l-0.321-0.006c-0.041,0-0.135,0-0.134,0l-0.183,0.008l-0.367,0.015l-0.312,0.028
			c-0.846,0.082-1.75,0.209-2.567,0.528c-4.832,1.89-7.515,4.905-7.515,4.905l-0.235,0.004h-0.009c0,0-2.952-2.713-5.071-3.855
			c-1.574-0.851-3.271-1.428-5.017-1.582c-0.217-0.025-0.437-0.033-0.656-0.043l-0.164-0.008l-0.142,0.002l-0.366,0.006
			c-0.242,0.006-0.425,0.029-0.641,0.041l-0.678,0.076c-0.919,0.119-1.862,0.297-2.816,0.479c-1.905,0.375-3.862,0.752-5.86,0.962
			c-0.998,0.11-2.006,0.185-3.02,0.196c-1.012,0.026-2.032-0.025-3.044-0.146c-1.013-0.116-2.016-0.325-3.001-0.592
			c-0.977-0.293-1.944-0.624-2.854-1.084c-0.92-0.433-1.774-0.984-2.6-1.56c-0.401-0.303-0.796-0.613-1.182-0.932
			c-0.369-0.339-0.748-0.666-1.094-1.023c-0.696-0.713-1.344-1.465-1.94-2.252c-0.282-0.405-0.579-0.797-0.847-1.211l-0.778-1.248
			l0.941,1.125c0.319,0.369,0.665,0.713,0.995,1.069c0.677,0.696,1.386,1.354,2.132,1.958c0.37,0.307,0.772,0.571,1.148,0.863
			c0.396,0.266,0.797,0.523,1.201,0.773c0.828,0.463,1.668,0.899,2.554,1.215c0.872,0.351,1.78,0.593,2.691,0.793
			c0.919,0.175,1.846,0.295,2.782,0.334c1.869,0.076,3.752-0.06,5.628-0.379c1.878-0.309,3.74-0.769,5.659-1.195
			c0.959-0.217,1.93-0.434,2.944-0.6c0.26-0.037,0.507-0.08,0.777-0.111c0.271-0.027,0.571-0.064,0.818-0.078l0.365-0.018
			l0.226-0.01l0.201,0.001c0.27,0.001,0.538,0.005,0.808,0.024c2.159,0.115,4.249,0.812,6.109,1.814
			c0.93,0.508,1.811,1.092,2.633,1.748c0.412,0.328,0.811,0.672,1.194,1.034c0.028,0.027,0.054,0.054,0.082,0.079
			c0.027-0.025,0.053-0.052,0.08-0.078c0.387-0.361,0.785-0.703,1.198-1.029c0.824-0.653,1.706-1.236,2.637-1.744
			c0.934-0.5,1.916-0.928,2.941-1.238c1.027-0.318,2.075-0.521,3.182-0.583l0.418-0.021l0.365-0.004l0.184-0.002
			c0.123-0.002,0.152,0.006,0.233,0.006l0.411,0.021c0.542,0.036,1.062,0.104,1.573,0.184c1.017,0.166,1.989,0.383,2.948,0.598
			c1.92,0.428,3.785,0.893,5.666,1.199c0.938,0.158,1.879,0.277,2.817,0.34c0.94,0.074,1.879,0.074,2.815,0.043
			c0.938-0.037,1.865-0.156,2.785-0.332c0.912-0.198,1.82-0.443,2.693-0.79c0.889-0.317,1.729-0.753,2.559-1.218
			c0.404-0.248,0.806-0.508,1.201-0.773c0.379-0.293,0.779-0.559,1.15-0.864c0.747-0.604,1.457-1.264,2.133-1.96
			c0.329-0.355,0.674-0.699,0.995-1.068l0.942-1.129L90,58.1C89.74,58.518,89.441,58.911,89.158,59.318z"/>
	</g>
</g>
<g>
</g>
<g>
</g>
<g>
</g>
<g>
</g>
<g>
</g>
<g>
</g>
<g>
</g>
<g>
</g>
<g>
</g>
<g>
</g>
<g>
</g>
<g>
</g>
<g>
</g>
<g>
</g>
<g>
</g>
</svg>
