<?xml version="1.0" encoding="iso-8859-1"?>
<!-- Generator: Adobe Illustrator 16.0.0, SVG Export Plug-In . SVG Version: 6.00 Build 0)  -->
<!DOCTYPE svg PUBLIC "-//W3C//DTD SVG 1.1//EN" "http://www.w3.org/Graphics/SVG/1.1/DTD/svg11.dtd">
<svg version="1.1" id="Capa_1" xmlns="http://www.w3.org/2000/svg" xmlns:xlink="http://www.w3.org/1999/xlink" x="0px" y="0px"
	 width="97.75px" height="97.75px" viewBox="0 0 97.75 97.75" style="enable-background:new 0 0 97.75 97.75;" xml:space="preserve"
	>
<g>
	<g>
		<path d="M61.52,45.424c-6.555-3.492-13.097-7.008-19.667-10.468c-3.166-1.667-5.914,0.025-5.941,3.612
			c-0.027,3.492-0.006,6.985-0.006,10.479c0,3.537,0.012,7.074-0.005,10.61c-0.007,1.229,0.362,2.26,1.38,3
			c1.355,0.985,2.719,1.018,4.219,0.228c6.609-3.482,13.24-6.924,19.874-10.361c1.458-0.756,2.562-1.707,2.616-3.508
			C64.044,47.194,62.966,46.194,61.52,45.424z"/>
		<path d="M48.875,0C21.883,0,0,21.882,0,48.875S21.883,97.75,48.875,97.75S97.75,75.868,97.75,48.875S75.867,0,48.875,0z
			 M82.833,66.998c0,8.746-7.089,15.835-15.836,15.835H30.753c-8.746,0-15.836-7.09-15.836-15.835V30.752
			c0-8.746,7.09-15.835,15.836-15.835h36.244c8.747,0,15.836,7.09,15.836,15.835V66.998z"/>
	</g>
</g>
<g>
</g>
<g>
</g>
<g>
</g>
<g>
</g>
<g>
</g>
<g>
</g>
<g>
</g>
<g>
</g>
<g>
</g>
<g>
</g>
<g>
</g>
<g>
</g>
<g>
</g>
<g>
</g>
<g>
</g>
</svg>
