<?xml version="1.0" encoding="iso-8859-1"?>
<!-- Generator: Adobe Illustrator 16.0.0, SVG Export Plug-In . SVG Version: 6.00 Build 0)  -->
<!DOCTYPE svg PUBLIC "-//W3C//DTD SVG 1.1//EN" "http://www.w3.org/Graphics/SVG/1.1/DTD/svg11.dtd">
<svg version="1.1" id="Capa_1" xmlns="http://www.w3.org/2000/svg" xmlns:xlink="http://www.w3.org/1999/xlink" x="0px" y="0px"
	 width="97.75px" height="97.75px" viewBox="0 0 97.75 97.75" style="enable-background:new 0 0 97.75 97.75;" xml:space="preserve"
	>
<g>
	<path d="M48.875,0C21.882,0,0,21.883,0,48.875S21.882,97.75,48.875,97.75S97.75,75.867,97.75,48.875S75.868,0,48.875,0z
		 M44.521,24.967c0.999-0.996,2.495-1.566,4.107-1.566c1.601,0,3.091,0.563,4.09,1.549c0.771,0.758,1.185,1.711,1.171,2.685
		c-0.015,0.978-0.459,1.92-1.252,2.652c-1.061,0.985-2.498,1.467-4.394,1.467h-0.008c-0.81-0.019-2.373-0.244-3.723-1.582
		c-0.731-0.726-1.136-1.646-1.137-2.587C43.375,26.632,43.781,25.703,44.521,24.967z M35.544,29.463c0,0,5.554,4.378,8.167,6.455
		l2.365,1.88c1.461,1.161,3.367,1.165,4.82,0.011c6.828-5.428,21.125-16.68,21.125-16.68l4.98,3.885c0,0-7.169,5.693-10.55,8.382
		c-3.601,2.86-7.183,5.711-10.771,8.557c-2.002,1.589-4.494,2.361-7.616,2.361h-0.065c-2.492-0.028-5.007-0.97-7.08-2.649
		c-3.345-2.709-10.37-8.24-10.37-8.24L35.544,29.463z M13.914,31.034l5.014-4.005c0,0,2.374,1.902,3.356,2.686l6.812,5.417
		c3.713,2.95,7.425,5.901,11.134,8.854c1.564,1.248,2.493,2.707,2.839,4.458c0.059,0.295,0.093,0.593,0.119,0.834l0.028,0.272
		c-0.063,2.375-0.968,4.24-2.772,5.704c-2.202,1.786-10.969,8.721-10.969,8.721l-4.995-3.979c0,0,5.594-4.433,8.13-6.452
		l1.474-1.172c0.1-0.078,0.201-0.157,0.303-0.236c0.381-0.298,0.752-0.589,1.081-0.91c0.458-0.449,0.694-1.026,0.662-1.631
		c-0.032-0.607-0.33-1.168-0.841-1.574c-3.646-2.903-7.295-5.804-10.943-8.705l-5.508-4.377
		C17.333,33.74,13.914,31.034,13.914,31.034z M63.259,68.218c0,0-7.604-6.062-10.606-8.435c-0.678-0.535-1.473-0.82-2.303-0.82
		c-0.824,0-1.613,0.28-2.281,0.811c-3.002,2.39-6.003,4.778-9.004,7.17l-7.389,5.88c-0.567,0.452-1.137,0.901-1.705,1.352
		l-0.129,0.101c-0.903,0.716-2.951,2.348-2.951,2.348l-5.035-3.961c0,0,5.551-4.406,8.122-6.451l2.893-2.3
		c2.955-2.351,5.909-4.701,8.86-7.056l0.278-0.224c1.31-1.049,2.548-2.041,4.14-2.555c4.337-1.397,8.266-0.795,11.582,1.782
		c2.431,1.887,4.856,3.83,7.203,5.711l0.057,0.044c0.971,0.778,3.314,2.651,3.314,2.651L63.259,68.218z M78.867,70.863
		c0,0-5.232-4.111-7.667-6.049c-1.974-1.57-11.894-9.453-11.894-9.453c-0.69-0.545-1.475-1.168-2.216-1.778
		c-1.53-1.261-2.554-3.414-2.549-5.362c0.076-2.253,1.019-4.123,2.799-5.561c2.183-1.761,10.948-8.697,10.948-8.697l5.004,3.961
		l-8.452,6.713c-0.75,0.598-1.501,1.191-2.248,1.786c-0.622,0.501-0.963,1.136-0.961,1.794c0.001,0.676,0.356,1.326,1.001,1.838
		C65.67,52.466,77.227,61.67,77.227,61.67c2.065,1.646,6.609,5.244,6.609,5.244L78.867,70.863z"/>
</g>
<g>
</g>
<g>
</g>
<g>
</g>
<g>
</g>
<g>
</g>
<g>
</g>
<g>
</g>
<g>
</g>
<g>
</g>
<g>
</g>
<g>
</g>
<g>
</g>
<g>
</g>
<g>
</g>
<g>
</g>
</svg>
