<?xml version="1.0" encoding="iso-8859-1"?>
<!-- Generator: Adobe Illustrator 16.0.0, SVG Export Plug-In . SVG Version: 6.00 Build 0)  -->
<!DOCTYPE svg PUBLIC "-//W3C//DTD SVG 1.1//EN" "http://www.w3.org/Graphics/SVG/1.1/DTD/svg11.dtd">
<svg version="1.1" id="Capa_1" xmlns="http://www.w3.org/2000/svg" xmlns:xlink="http://www.w3.org/1999/xlink" x="0px" y="0px"
	 width="97.75px" height="97.75px" viewBox="0 0 97.75 97.75" style="enable-background:new 0 0 97.75 97.75;" xml:space="preserve"
	>
<g>
	<g>
		<path d="M26.721,47.625c-0.901,0.03-1.647,0.656-1.903,1.55c-0.107,0.372,0.038,0.431,0.35,0.427l3.177,0.002
			c0.612,0.029,0.552-0.272,0.418-0.641C28.445,48.075,27.712,47.591,26.721,47.625z"/>
		<path d="M87.988,51.896c-0.434,0-0.783-0.61-0.783-1.362s0.35-1.362,0.783-1.362c0.435,0,0.787,0.61,0.787,1.362
			S88.424,51.896,87.988,51.896z"/>
		<path d="M48.875,0C21.883,0,0,21.882,0,48.875S21.883,97.75,48.875,97.75S97.75,75.868,97.75,48.875S75.867,0,48.875,0z
			 M70.973,47.26c0.115,0.211,0.215,0.429,0.311,0.651c-0.202,0.036-0.473,0.133-0.854,0.269c-0.057,0.019-0.117,0.006-0.238,0.012
			C70.506,47.88,70.639,47.478,70.973,47.26z M60.383,45.678c-0.037,0.183-0.207,0.218-0.381,0.16
			c0.104-0.107,0.207-0.211,0.312-0.312C60.37,45.54,60.404,45.573,60.383,45.678z M21.552,44.012
			c-0.761,3.304-1.53,6.606-2.31,9.904c-0.278,1.179-0.896,1.703-1.952,1.702c-0.939,0-1.619-0.522-1.919-1.511
			c-0.644-2.117-1.274-4.238-1.913-6.358c-0.044-0.149-0.1-0.294-0.202-0.587c-0.585,1.933-1.129,3.73-1.671,5.529
			c-0.158,0.519-0.291,1.045-0.465,1.56c-0.302,0.89-1.042,1.392-1.965,1.367c-0.901-0.024-1.576-0.524-1.799-1.463
			c-0.827-3.451-1.63-6.906-2.425-10.365c-0.188-0.826,0.232-1.538,0.938-1.718c0.877-0.223,1.641,0.182,1.865,1.113
			c0.327,1.359,0.57,2.737,0.849,4.107c0.243,1.204,0.73,3.614,0.73,3.614l0.064,0.312l0.076-0.299
			c0.294-0.98,0.588-1.962,0.882-2.942c0.444-1.494,0.884-2.989,1.334-4.48c0.326-1.076,0.758-1.462,1.599-1.459
			c0.836,0.003,1.29,0.424,1.6,1.46c0.738,2.487,1.472,4.974,2.33,7.468c0.286-1.406,0.583-2.814,0.866-4.224
			c0.23-1.148,0.439-2.303,0.697-3.445c0.22-0.966,0.879-1.414,1.786-1.242c0.624,0.117,1.004,0.509,1.068,1.149
			C21.642,43.472,21.613,43.752,21.552,44.012z M31.67,50.416c-0.046,0.605-0.353,0.986-0.974,1.003l-5.355,0.007
			c-0.479-0.011-0.534,0.197-0.367,0.602c0.421,1.029,1.862,1.576,3.137,1.176c0.545-0.17,1.02-0.475,1.528-0.725
			c0.726-0.36,1.272-0.242,1.653,0.342c0.347,0.539,0.229,1.094-0.343,1.621c-1.41,1.293-4.279,1.705-6.081,0.875
			c-1.903-0.883-2.979-2.717-2.902-4.945c0.095-2.567,1.707-4.569,4.042-5.016C28.908,44.8,31.899,47.478,31.67,50.416z
			 M36.499,52.121c0.473,0.979,1.926,1.499,3.13,1.062c0.508-0.183,0.98-0.455,1.466-0.697c0.713-0.357,1.217-0.279,1.618,0.264
			c0.408,0.557,0.313,1.109-0.281,1.669c-1.816,1.703-5.358,1.796-7.216,0.188c-2.041-1.766-2.381-4.955-0.776-7.271
			c1.198-1.727,3.271-2.454,5.253-1.842c1.898,0.586,3.465,2.644,3.479,4.569c0.006,0.977-0.337,1.351-1.32,1.381l-4.951-0.01
			C36.267,51.404,36.284,51.676,36.499,52.121z M57.73,54.271c-0.275,0.83-0.91,1.318-1.758,1.347
			c-0.896,0.03-1.601-0.412-1.92-1.22c-0.109-0.271-0.181-0.558-0.266-0.838c-0.626-2.074-1.249-4.146-1.934-6.415
			c-0.156,0.462-0.256,0.738-0.344,1.018c-0.588,1.97-1.175,3.941-1.763,5.911c-0.259,0.854-0.787,1.427-1.699,1.534
			c-1.104,0.132-1.881-0.451-2.156-1.607c-0.465-1.956-0.915-3.917-1.372-5.875c-0.335-1.431-0.685-2.858-0.999-4.292
			c-0.251-1.148,0.493-1.955,1.622-1.785c0.73,0.11,1.076,0.62,1.214,1.289c0.319,1.548,1.609,7.866,1.609,7.866
			s1.636-5.592,2.333-7.907c0.262-0.864,0.771-1.265,1.549-1.258c0.781,0.008,1.284,0.414,1.541,1.271
			c0.459,1.536,0.908,3.076,1.366,4.613c0.304,1.021,0.615,2.041,0.925,3.061c0.61-2.51,1.114-4.991,1.607-7.475
			c0.062-0.315,0.154-0.614,0.334-0.879c0.359-0.53,1.043-0.755,1.688-0.525c0.596,0.212,0.895,0.644,0.887,1.294
			c-0.004,0.461-0.166,0.885-0.243,1.328c-0.013,0.072-0.033,0.149-0.048,0.227c-1.512,1.375-2.453,3.354-2.453,5.553
			c0,1.012,0.201,1.973,0.564,2.854L57.73,54.271z M65.285,57.322c0.57-0.631,0.73-1.569,1.511-2.055
			c0.122-0.078,0.128-0.373,0.149-0.572c0.029-0.223,0.014-0.443,0.148-0.646c0.316-0.477,0.096-0.684-0.396-0.775
			c-0.439-0.082-1.013-0.03-1.274-0.365c-0.578-0.734-1.377-0.674-2.117-0.84c-0.453-0.109-0.998-0.045-1.037,0.369
			c-0.045,0.487-0.311,0.916-0.262,1.416c0.047,0.467,0.362,0.803,0.667,0.975c1.015,0.57,0.765,1.459,0.72,2.314v0.002
			c-2.903-0.691-5.097-3.242-5.236-6.322c0.304-0.051,0.391,0.375,0.59,0.5c0.193,0.121,0.338,0.387,0.588,0.406
			c0.861,0.065,1.666,0.287,2.333,0.795c-0.183-0.547-0.711-0.812-0.996-1.295c-0.223,0.16-0.394,0.51-0.739,0.282
			c-0.293-0.192-0.35-0.515-0.312-0.845c0.035-0.375,0.318-0.441,0.626-0.495c0.296-0.052,0.587-0.14,0.93-0.224
			c-0.608-0.688-0.979-1.422-0.849-2.314c0.049-0.334-0.133-0.427-0.4-0.494c-0.191-0.048-0.42-0.105-0.439-0.357
			c-0.016-0.239,0.164-0.407,0.354-0.444c0.724-0.139,0.929-1.124,1.814-0.971c-0.017-0.058-0.031-0.117-0.046-0.175
			c-0.305,0-0.604,0-0.907,0c0.47-0.38,0.994-0.699,1.56-0.943c-0.099,0.08-0.191,0.159-0.341,0.281
			c1.013-0.215,1.734,0.027,2.442,0.521c0.441,0.31,0.966,0.835,1.587,0.182c0.294-0.307,0.728-0.339,1.116-0.446
			c0.31-0.084,0.41-0.337,0.521-0.58c0.835,0.348,1.584,0.854,2.213,1.484c-0.079,0.017-0.21,0.118-0.163,0.149
			c0.28,0.188,0.193,0.741,0.688,0.701c0.033-0.068,0.054-0.128,0.059-0.182c0.038,0.045,0.069,0.091,0.104,0.136
			c-0.053,0.024-0.107,0.045-0.17,0.063l0.021-0.017c-0.005,0-0.011,0-0.013,0c-0.003,0.005-0.005,0.012-0.009,0.017
			c-0.065,0.06-0.176,0.135-0.166,0.161c0.188,0.438,0.047,0.608-0.422,0.664c-0.258,0.031-0.231,0.413-0.143,0.508
			c0.531,0.568,0.01,0.936-0.242,1.313c-0.328,0.483-0.479,1.461-0.209,1.881c0.369,0.581,0.995,0.778,1.762,0.551
			c0.27-0.081,0.535-0.153,0.814-0.06C71.213,54.732,68.543,57.175,65.285,57.322z M76.479,47.846
			c-0.543,0.222-1.08,0.464-1.604,0.729c-0.594,0.298-0.915,0.764-0.885,1.468c0.033,0.791,0.027,1.584,0.013,2.375
			c-0.019,0.723,0.074,1.452-0.103,2.164c-0.144,0.583-0.519,0.951-1.121,1.027c-0.623,0.08-1.103-0.16-1.413-0.723
			c-0.043-0.082-0.062-0.181-0.097-0.271c0.773-1.182,1.224-2.592,1.224-4.108c0-1.499-0.442-2.894-1.195-4.065
			c0.114-0.59,0.416-0.895,0.955-1.005c0.833-0.17,1.37,0.079,1.794,0.858c0.526-0.578,1.124-0.986,1.952-0.875
			c0.634,0.084,1.032,0.424,1.159,1.055C77.286,47.103,77.115,47.582,76.479,47.846z M81.641,54.046
			c-0.006,1-0.547,1.583-1.391,1.571c-0.846-0.012-1.348-0.592-1.35-1.598c-0.004-1.898-0.002-3.797-0.002-5.697h-0.002
			c0-1.878-0.006-3.754,0-5.631c0-1.079,0.467-1.623,1.379-1.619c0.863,0.003,1.367,0.557,1.369,1.576
			C81.65,46.448,81.65,50.247,81.641,54.046z M91.924,55.541c-0.605,0.246-1.146,0.054-1.693-0.607
			c-0.063-0.076-0.16-0.209-0.16-0.209s-0.104,0.064-0.197,0.123c-2.501,1.545-5.163,0.62-6.234-1.964
			c-0.898-2.167-0.609-4.274,0.832-6.135c1.197-1.545,3.303-1.904,5.018-0.972c0.152,0.084,0.305,0.177,0.562,0.327
			c0-1.235-0.013-2.343,0.002-3.451c0.014-0.915,0.463-1.502,1.172-1.577c0.973-0.103,1.578,0.462,1.586,1.471
			c0.019,1.787,0.004,3.574,0.004,5.362c0,2.036-0.004,4.071,0.004,6.108C92.818,54.712,92.607,55.266,91.924,55.541z"/>
		<path d="M39.938,49.602c0.324,0.006,0.455-0.098,0.379-0.438c-0.21-0.938-1.007-1.549-2.039-1.538
			c-0.951,0.009-1.791,0.674-1.978,1.547c-0.057,0.282,0.005,0.432,0.324,0.426L39.938,49.602z"/>
	</g>
</g>
<g>
</g>
<g>
</g>
<g>
</g>
<g>
</g>
<g>
</g>
<g>
</g>
<g>
</g>
<g>
</g>
<g>
</g>
<g>
</g>
<g>
</g>
<g>
</g>
<g>
</g>
<g>
</g>
<g>
</g>
</svg>
