<?xml version="1.0" encoding="iso-8859-1"?>
<!-- Generator: Adobe Illustrator 16.0.0, SVG Export Plug-In . SVG Version: 6.00 Build 0)  -->
<!DOCTYPE svg PUBLIC "-//W3C//DTD SVG 1.1//EN" "http://www.w3.org/Graphics/SVG/1.1/DTD/svg11.dtd">
<svg version="1.1" id="Capa_1" xmlns="http://www.w3.org/2000/svg" xmlns:xlink="http://www.w3.org/1999/xlink" x="0px" y="0px"
	 width="97.75px" height="97.75px" viewBox="0 0 97.75 97.75" style="enable-background:new 0 0 97.75 97.75;" xml:space="preserve"
	>
<g>
	<g>
		<path d="M51.641,40.855c-6.796,0-13.143,4.94-13.143,16.974c0,8.394,4.26,16.785,12.961,16.785c7.25,0,13.232-6.156,13.232-16.88
			C64.691,47.474,59.344,40.855,51.641,40.855z"/>
		<path d="M48.875,0C21.883,0,0,21.883,0,48.875S21.883,97.75,48.875,97.75S97.75,75.867,97.75,48.875S75.867,0,48.875,0z
			 M52.729,82.355c-10.242,0-14.41-7.93-14.41-7.93h-0.182c0,0,0.182,1.494,0.182,3.545v3.266h-8.43V25.187
			c0-1.401-0.727-2.053-1.994-2.053h-3.717v-7.741h8.701c4.078,0,5.801,1.772,5.801,5.969v15.389c0,2.237-0.182,3.918-0.182,3.918
			h0.182c0,0,3.986-7.742,14.773-7.742c12.322,0,20.119,10.072,20.119,24.716C73.572,72.656,64.779,82.355,52.729,82.355z"/>
	</g>
</g>
<g>
</g>
<g>
</g>
<g>
</g>
<g>
</g>
<g>
</g>
<g>
</g>
<g>
</g>
<g>
</g>
<g>
</g>
<g>
</g>
<g>
</g>
<g>
</g>
<g>
</g>
<g>
</g>
<g>
</g>
</svg>
