<?xml version="1.0" encoding="iso-8859-1"?>
<!-- Generator: Adobe Illustrator 16.0.0, SVG Export Plug-In . SVG Version: 6.00 Build 0)  -->
<!DOCTYPE svg PUBLIC "-//W3C//DTD SVG 1.1//EN" "http://www.w3.org/Graphics/SVG/1.1/DTD/svg11.dtd">
<svg version="1.1" id="Capa_1" xmlns="http://www.w3.org/2000/svg" xmlns:xlink="http://www.w3.org/1999/xlink" x="0px" y="0px"
	 width="97.75px" height="97.75px" viewBox="0 0 97.75 97.75" style="enable-background:new 0 0 97.75 97.75;" xml:space="preserve"
	>
<g>
	<g>
		<path d="M48.875,0C21.882,0,0,21.883,0,48.875S21.882,97.75,48.875,97.75S97.75,75.867,97.75,48.875S75.868,0,48.875,0z
			 M72.123,78.816l-1.342,0.578c-3.651,1.574-7.567,2.373-11.641,2.373c-6.858,0-11.862-2.312-12.071-2.408l-1.263-0.602V64.24
			l1.365-0.578c3.736-1.57,7.691-2.364,11.754-2.364c6.744,0,11.446,2.175,11.959,2.425l1.237,0.604L72.123,78.816L72.123,78.816z
			 M53.577,32.552h11.771l-4.105,24.253l-5.062,0.656L53.577,32.552z M74.825,73.68v-9.968l2.739-1.166V28.27
			c-25.295-7.363-49.318-2.412-57.267-0.084v32.58c5.255,3.486,15.009,6.232,22.8,6.881l-0.032,9.223
			c-18.441-0.901-31.307-9.614-31.307-9.614V22.718l3.147-1.221c1.294-0.501,32.079-12.126,68.479-0.05l2.606,1.119v45.471
			L74.825,73.68z"/>
		<path d="M50.63,66.945v9.181c1.649,0.567,4.741,1.415,8.511,1.415c2.825,0,5.569-0.475,8.159-1.408v-9.206
			c-1.606-0.562-4.626-1.401-8.373-1.401C56.086,65.525,53.296,66.003,50.63,66.945z"/>
	</g>
</g>
<g>
</g>
<g>
</g>
<g>
</g>
<g>
</g>
<g>
</g>
<g>
</g>
<g>
</g>
<g>
</g>
<g>
</g>
<g>
</g>
<g>
</g>
<g>
</g>
<g>
</g>
<g>
</g>
<g>
</g>
</svg>
