<?xml version="1.0" encoding="iso-8859-1"?>
<!-- Generator: Adobe Illustrator 16.0.0, SVG Export Plug-In . SVG Version: 6.00 Build 0)  -->
<!DOCTYPE svg PUBLIC "-//W3C//DTD SVG 1.1//EN" "http://www.w3.org/Graphics/SVG/1.1/DTD/svg11.dtd">
<svg version="1.1" id="Capa_1" xmlns="http://www.w3.org/2000/svg" xmlns:xlink="http://www.w3.org/1999/xlink" x="0px" y="0px"
	 width="97.75px" height="97.75px" viewBox="0 0 97.75 97.75" style="enable-background:new 0 0 97.75 97.75;" xml:space="preserve"
	>
<g>
	<path d="M48.875,0C21.882,0,0,21.882,0,48.875S21.882,97.75,48.875,97.75S97.75,75.868,97.75,48.875S75.868,0,48.875,0z
		 M72.445,37.042L35.801,84.184c-0.251,0.325-0.632,0.498-1.016,0.498c-0.217,0-0.437-0.058-0.638-0.17
		c-0.554-0.318-0.792-0.994-0.558-1.589l11.442-29.006l-18.584,1.827c-0.446,0.047-0.879-0.143-1.148-0.499
		c-0.272-0.353-0.337-0.823-0.177-1.238l15.684-40.938h27.629L53.459,36.655l17.85-1.681c0.508-0.05,1,0.21,1.248,0.662
		C72.801,36.083,72.758,36.639,72.445,37.042z"/>
</g>
<g>
</g>
<g>
</g>
<g>
</g>
<g>
</g>
<g>
</g>
<g>
</g>
<g>
</g>
<g>
</g>
<g>
</g>
<g>
</g>
<g>
</g>
<g>
</g>
<g>
</g>
<g>
</g>
<g>
</g>
</svg>
