<?xml version="1.0" encoding="iso-8859-1"?>
<!-- Generator: Adobe Illustrator 16.0.0, SVG Export Plug-In . SVG Version: 6.00 Build 0)  -->
<!DOCTYPE svg PUBLIC "-//W3C//DTD SVG 1.1//EN" "http://www.w3.org/Graphics/SVG/1.1/DTD/svg11.dtd">
<svg version="1.1" id="Capa_1" xmlns="http://www.w3.org/2000/svg" xmlns:xlink="http://www.w3.org/1999/xlink" x="0px" y="0px"
	 width="97.75px" height="97.75px" viewBox="0 0 97.75 97.75" style="enable-background:new 0 0 97.75 97.75;" xml:space="preserve"
	>
<g>
	<g>
		<path d="M69.242,47.658c-0.497,0-0.963,0.124-1.387,0.367c-0.422,0.246-0.763,0.595-1.012,1.037
			c-0.248,0.442-0.373,0.918-0.373,1.41c0,0.489,0.127,0.965,0.377,1.411c0.252,0.446,0.594,0.8,1.018,1.048
			c0.424,0.25,0.886,0.377,1.371,0.377c0.49,0,0.961-0.125,1.397-0.373c0.439-0.246,0.781-0.586,1.021-1.009
			c0.234-0.422,0.354-0.901,0.354-1.429c0-0.805-0.269-1.484-0.799-2.025C70.68,47.933,70.02,47.658,69.242,47.658z"/>
		<path d="M34.136,48.327c-1.001-0.005-1.689,0.677-1.691,1.675c-0.003,0.998,0.662,1.666,1.664,1.671
			c0.968,0.007,1.631-0.672,1.635-1.673C35.748,49.021,35.087,48.332,34.136,48.327z"/>
		<path d="M61.016,48.611c-0.229-0.287-0.537-0.521-0.912-0.697c-0.375-0.174-0.775-0.263-1.188-0.263
			c-0.685,0-1.278,0.224-1.771,0.664c-0.361,0.32-0.637,0.806-0.817,1.44l-0.034,0.117h5.277l-0.027-0.115
			C61.422,49.283,61.246,48.896,61.016,48.611z"/>
		<path d="M16.783,48.312c-0.917-0.008-1.584,0.514-1.667,1.324c1.064,0,2.113,0,3.164,0C18.207,48.827,17.629,48.32,16.783,48.312z
			"/>
		<circle cx="8.715" cy="50.262" r="1.764"/>
		<path d="M89.562,47.658c-0.473,0-0.916,0.124-1.314,0.369c-0.398,0.246-0.723,0.596-0.959,1.037
			c-0.234,0.441-0.354,0.916-0.354,1.408c0,0.489,0.119,0.965,0.356,1.408c0.237,0.447,0.562,0.801,0.963,1.051
			c0.402,0.25,0.841,0.377,1.304,0.377s0.909-0.127,1.324-0.373c0.417-0.248,0.742-0.588,0.967-1.012
			c0.224-0.421,0.336-0.9,0.336-1.426c0-0.803-0.254-1.484-0.756-2.023C90.927,47.933,90.299,47.658,89.562,47.658z"/>
		<path d="M83.79,48.699c-0.226-0.282-0.528-0.514-0.899-0.686c-0.369-0.173-0.762-0.261-1.17-0.261
			c-0.673,0-1.26,0.221-1.742,0.652c-0.355,0.315-0.627,0.794-0.806,1.418l-0.032,0.116h5.194l-0.028-0.112
			C84.189,49.361,84.016,48.98,83.79,48.699z"/>
		<path d="M48.875,0C21.883,0,0,21.883,0,48.875S21.883,97.75,48.875,97.75S97.75,75.867,97.75,48.875S75.867,0,48.875,0z
			 M11.981,53.479c-0.479,0-0.947,0-1.444,0c-0.045-0.256-0.09-0.561-0.138-0.84l-0.102,0.107c-1.175,1.371-4.216,1.275-5.063-1.186
			c-0.407-1.177-0.326-2.349,0.393-3.402c0.662-0.974,1.643-1.306,2.779-1.24c0.589,0.034,1.281,0.3,1.708,0.693
			c0.02,0.019,0.099,0.092,0.099,0.092s0.007-4.787-0.007-5.836l1.775,1.317C11.981,46.386,11.981,50.275,11.981,53.479z
			 M19.977,50.766c-1.634,0-3.256,0-4.909,0c0.077,0.484,0.271,0.869,0.665,1.133c0.635,0.424,1.328,0.438,2.031,0.248
			c0.343-0.094,0.688-0.272,1.037-0.465l0.77,1.07c-0.488,0.385-1.026,0.616-1.609,0.744c-0.786,0.174-1.568,0.176-2.345-0.049
			c-1.505-0.438-2.396-1.68-2.33-3.243c0.088-2.12,1.724-3.492,3.866-3.279C19.176,47.126,20.258,48.812,19.977,50.766z
			 M25.659,53.025c-0.578,0.436-1.237,0.563-1.935,0.591c-1.104,0.043-2.12-0.236-2.986-0.833l0.766-1.127
			c0.458,0.23,0.824,0.371,1.321,0.499c0.413,0.104,0.833,0.118,1.246-0.011c0.318-0.098,0.475-0.269,0.481-0.502
			c0.008-0.231-0.138-0.435-0.448-0.527c-0.451-0.137-0.913-0.233-1.368-0.36c-0.247-0.067-0.49-0.151-0.727-0.252
			c-1.371-0.577-1.208-2.459-0.225-3.102c0.54-0.354,1.134-0.495,1.76-0.495c1.268,0,2.465,0.577,2.608,0.668l-0.653,1.109
			c-0.461-0.229-0.849-0.349-1.289-0.429c-0.446-0.08-1.444-0.069-1.444,0.572c0,0.246,0.144,0.413,0.356,0.485
			c0.414,0.139,0.84,0.235,1.257,0.365c0.327,0.103,0.655,0.205,0.97,0.342C26.673,50.591,26.528,52.374,25.659,53.025z
			 M29.33,53.477c-0.573,0-1.146,0-1.74,0c0-2.131,0-4.264,0-6.428c0.587,0,1.152,0,1.74,0C29.33,49.191,29.33,51.325,29.33,53.477z
			 M28.461,46.075c-0.572-0.001-1.053-0.479-1.055-1.05c-0.003-0.575,0.462-1.039,1.049-1.045c0.592-0.007,1.061,0.445,1.063,1.026
			C29.52,45.602,29.05,46.076,28.461,46.075z M37.391,52.913c-0.01,1.612-1.039,2.649-2.576,2.897
			c-1.162,0.188-2.698,0.024-3.684-0.756l0.73-1.166c0.467,0.286,0.998,0.498,1.538,0.541c0.276,0.021,0.56,0.026,0.832-0.01
			c0.889-0.115,1.406-0.686,1.462-1.58c0.009-0.152,0.001-0.307,0.001-0.503c-0.524,0.481-1.117,0.696-1.783,0.75
			c-1.661,0.134-3.041-1.058-3.149-2.724c-0.072-1.102,0.205-2.065,1.064-2.809c1.107-0.959,3.075-0.917,3.959,0.153l0.084,0.097
			l-0.006-0.807l1.539,0.001L37.391,52.913z M45.419,53.541c-0.588,0-1.165,0-1.772,0c0-0.111,0-0.213,0-0.312
			c0-1.074,0.002-2.148-0.002-3.223c0-0.171-0.01-0.345-0.039-0.514c-0.075-0.444-0.328-0.747-0.764-0.883
			c-1.05-0.328-1.95,0.32-1.957,1.416c-0.008,1.072-0.002,2.146-0.002,3.222c0,0.093,0,0.187,0,0.296c-0.601,0-1.18,0-1.771,0
			c0-2.137,0-4.264,0-6.42l1.59-0.004L40.7,47.911c0.907-0.905,1.946-1.09,3.07-0.803c0.93,0.238,1.415,0.922,1.592,1.835
			c0.046,0.236,0.063,0.479,0.064,0.717c0.007,1.229,0.004,2.458,0.003,3.688C45.429,53.406,45.424,53.465,45.419,53.541z
			 M48.379,53.343c-0.543,0-0.983-0.44-0.983-0.983s0.44-0.982,0.983-0.982s0.984,0.439,0.984,0.982
			C49.363,52.9,48.922,53.343,48.379,53.343z M48.379,49.426c-0.543,0-0.983-0.439-0.983-0.982c0-0.543,0.44-0.984,0.983-0.984
			s0.984,0.441,0.984,0.984C49.363,48.986,48.922,49.426,48.379,49.426z M54.943,47.795c-1.584,0.05-2.301,1.373-2.484,1.784
			l-0.007,0.015c-0.089,0.352-0.144,0.803-0.144,1.965v2.195h-0.707v-6.579h0.707v1.39l0.162-0.192
			c0.452-0.542,1.247-1.186,2.473-1.216V47.795z M56.234,50.535c0.017,0.805,0.277,1.476,0.777,1.992
			c0.502,0.519,1.129,0.781,1.864,0.781c0.354,0,0.701-0.063,1.035-0.187c0.334-0.122,0.623-0.288,0.858-0.493
			c0.223-0.191,0.461-0.497,0.715-0.906l0.576,0.303c-0.226,0.424-0.484,0.771-0.772,1.037c-0.304,0.28-0.651,0.498-1.034,0.644
			c-0.381,0.147-0.82,0.222-1.304,0.222c-1.07,0-1.918-0.354-2.519-1.053c-0.604-0.702-0.91-1.507-0.91-2.393
			c0-0.832,0.258-1.586,0.77-2.236c0.646-0.825,1.525-1.244,2.607-1.244c1.119,0,2.023,0.43,2.689,1.275
			c0.459,0.576,0.702,1.305,0.727,2.164H56.23L56.234,50.535z M64.225,53.845H63.58V42.337h0.645V53.845z M72.629,53.754h-0.675
			v-1.326l-0.161,0.197c-0.355,0.432-0.759,0.76-1.197,0.977s-0.927,0.326-1.449,0.326c-0.926,0-1.729-0.342-2.385-1.014
			c-0.656-0.673-0.99-1.503-0.99-2.469c0-0.943,0.336-1.764,0.998-2.435c0.664-0.671,1.472-1.01,2.402-1.01
			c0.537,0,1.031,0.115,1.465,0.344c0.436,0.229,0.821,0.576,1.151,1.034l0.166,0.23v-1.435h0.675V53.754z M77.532,47.744H75.52
			v4.982c0,0.223,0.114,0.396,0.334,0.504c0.174,0.086,0.412,0.131,0.705,0.131c0.219,0,0.467-0.025,0.703-0.074l0.154,0.668
			c-0.977,0.209-1.706,0.109-2.15-0.293c-0.455-0.412-0.438-0.938-0.435-1.135l0.001-4.783h-1.188v-0.569h1.188v-2.511h0.688v2.511
			h2.013V47.744z M79.084,50.593c0.016,0.792,0.273,1.451,0.766,1.96c0.493,0.512,1.11,0.77,1.834,0.77
			c0.35,0,0.691-0.062,1.021-0.182c0.328-0.121,0.613-0.285,0.845-0.486c0.218-0.188,0.453-0.487,0.703-0.893l0.563,0.297
			c-0.223,0.416-0.477,0.758-0.758,1.02c-0.301,0.275-0.643,0.488-1.02,0.634c-0.375,0.144-0.807,0.218-1.281,0.218
			c-1.053,0-1.886-0.351-2.476-1.035c-0.595-0.691-0.896-1.481-0.896-2.352c0-0.818,0.254-1.561,0.756-2.199
			c0.637-0.812,1.5-1.225,2.566-1.225c1.098,0,1.988,0.423,2.645,1.255c0.449,0.565,0.688,1.282,0.713,2.126h-5.983L79.084,50.593z
			 M92.132,53.754v-1.338l-0.163,0.21c-0.336,0.433-0.717,0.76-1.132,0.978c-0.413,0.215-0.874,0.324-1.364,0.324
			c-0.875,0-1.633-0.341-2.252-1.012c-0.621-0.674-0.938-1.504-0.938-2.471c0-0.944,0.318-1.764,0.945-2.436
			c0.625-0.671,1.389-1.009,2.266-1.009c0.508,0,0.973,0.114,1.382,0.342c0.411,0.229,0.776,0.576,1.089,1.034l0.167,0.245v-6.194
			h0.63v11.325L92.132,53.754L92.132,53.754z"/>
	</g>
</g>
<g>
</g>
<g>
</g>
<g>
</g>
<g>
</g>
<g>
</g>
<g>
</g>
<g>
</g>
<g>
</g>
<g>
</g>
<g>
</g>
<g>
</g>
<g>
</g>
<g>
</g>
<g>
</g>
<g>
</g>
</svg>
