<?xml version="1.0" encoding="iso-8859-1"?>
<!-- Generator: Adobe Illustrator 16.0.0, SVG Export Plug-In . SVG Version: 6.00 Build 0)  -->
<!DOCTYPE svg PUBLIC "-//W3C//DTD SVG 1.1//EN" "http://www.w3.org/Graphics/SVG/1.1/DTD/svg11.dtd">
<svg version="1.1" id="Capa_1" xmlns="http://www.w3.org/2000/svg" xmlns:xlink="http://www.w3.org/1999/xlink" x="0px" y="0px"
	 width="97.75px" height="97.75px" viewBox="0 0 97.75 97.75" style="enable-background:new 0 0 97.75 97.75;" xml:space="preserve"
	>
<g>
	<g>
		<path d="M31.353,71.596c-4.569,0-8.798-0.742-12.237-2.098c2.984,5.43,8.76,9.117,15.382,9.117
			c7.642,0,14.153-4.912,16.553-11.744c-4.222,2.338-9.697,3.967-15.483,4.52C34.142,71.527,32.731,71.596,31.353,71.596z"/>
		<path d="M48.875,0C21.883,0,0,21.883,0,48.875S21.883,97.75,48.875,97.75S97.75,75.867,97.75,48.875S75.867,0,48.875,0z
			 M22.961,39.904c0,0,2.146-6.42,3.925-8.811c0.475-0.871,8.158-13.432,25.943-13.432c16.562,0,23.905,12.523,23.905,12.523
			c7.957,11.242,5.024,24.531,4.854,24.902l-0.217-3.385c-1.473-29.252-27.069-27.693-27.01-27.693
			C38.784,24.102,32.16,39.955,32.16,39.955h8.494c-6.317,1.9-15.914,21.713-15.914,21.713c-8.004-8.924-9.201-21.803-9.201-21.803
			L22.961,39.904z M34.497,80.088c-10.501,0-19.013-8.514-19.013-19.014c0-3.154,0.773-6.129,2.133-8.748
			c0.247,0.588,0.512,1.186,0.793,1.785c-0.045,0.106-0.101,0.211-0.145,0.32c0.129,0.069,0.266,0.139,0.401,0.209
			c0.34,0.696,0.708,1.397,1.104,2.096c-0.239-0.092-0.481-0.182-0.713-0.279c-0.459-0.195-0.892-0.408-1.302-0.627
			c-0.52,1.656-0.801,3.42-0.801,5.244c0,2.258,0.433,4.416,1.214,6.4c4.396,2.127,10.71,3.075,17.257,2.45
			c6.119-0.584,12.04-2.485,16.207-5.116c0.263-1.203,0.403-2.451,0.403-3.734c0-3.398-0.975-6.574-2.654-9.266
			c-0.863,0.893-1.958,1.739-3.274,2.522c-3.568,2.123-8.483,3.569-13.484,3.971c-0.966,0.076-1.925,0.115-2.87,0.115
			c-0.705,0-1.4-0.026-2.088-0.069c0.25-0.466,0.512-0.943,0.784-1.437c1.321,0.053,2.678,0.032,4.056-0.076
			c4.785-0.385,9.469-1.758,12.85-3.771c1.321-0.784,2.385-1.629,3.18-2.5c-1.143-1.522-2.537-2.837-4.111-3.912
			c0.471-0.275,0.95-0.533,1.439-0.779c4.634,3.463,7.646,8.971,7.646,15.199C53.51,71.574,44.998,80.088,34.497,80.088z
			 M72.473,78.838L55.318,52.449h7.795c0,0,5.195-0.129,5.195-5.957c0,0,0.479-6.463-7.695-6.463H46.725l-4.691-7.313h21.013
			c-0.195,0.008,13.77-0.783,13.893,12.695c-0.002-0.135,0.645,9.582-8.465,13.17l13.793,20.256L72.473,78.838L72.473,78.838z"/>
	</g>
</g>
<g>
</g>
<g>
</g>
<g>
</g>
<g>
</g>
<g>
</g>
<g>
</g>
<g>
</g>
<g>
</g>
<g>
</g>
<g>
</g>
<g>
</g>
<g>
</g>
<g>
</g>
<g>
</g>
<g>
</g>
</svg>
