<?xml version="1.0" encoding="iso-8859-1"?>
<!-- Generator: Adobe Illustrator 16.0.0, SVG Export Plug-In . SVG Version: 6.00 Build 0)  -->
<!DOCTYPE svg PUBLIC "-//W3C//DTD SVG 1.1//EN" "http://www.w3.org/Graphics/SVG/1.1/DTD/svg11.dtd">
<svg version="1.1" id="Capa_1" xmlns="http://www.w3.org/2000/svg" xmlns:xlink="http://www.w3.org/1999/xlink" x="0px" y="0px"
	 width="97.75px" height="97.75px" viewBox="0 0 97.75 97.75" style="enable-background:new 0 0 97.75 97.75;" xml:space="preserve"
	>
<g>
	<path d="M48.875,0C21.882,0,0,21.883,0,48.875S21.882,97.75,48.875,97.75S97.75,75.867,97.75,48.875S75.868,0,48.875,0z
		 M52.318,25.67c0.443-4.104,5.349-10.395,9.277-9.49c3.912,0.892,7.49,6.093,6.766,10.563c-0.709,4.477-4.258,10.385-9.799,9.66
		C53.031,35.695,51.779,30.688,52.318,25.67z M40.726,14.393c4.138,0,7.481,4.76,7.481,10.652c0,5.89-3.344,10.657-7.481,10.657
		c-4.141,0-7.493-4.768-7.493-10.657C33.232,19.152,36.586,14.393,40.726,14.393z M17.361,39.626c0,0,0.886-8.766,6.955-9.307
		c4.82-0.422,8.373,4.855,8.742,7.878c0.22,1.96,1.243,10.928-6.253,12.537C19.323,52.35,16.539,43.686,17.361,39.626z
		 M74.438,77.407c-4.097,9.671-19.086,4.645-19.086,4.645S49.824,80.27,43.397,81.7c-6.412,1.435-11.941,0.894-11.941,0.894
		s-7.503,0.182-9.642-9.305c-2.136-9.493,7.486-14.691,8.206-15.574c0.715-0.902,5.703-4.297,8.912-9.672
		c3.218-5.362,12.847-9.662,19.63,0.896c4.998,7.162,13.561,13.785,13.561,13.785S78.539,67.742,74.438,77.407z M73.191,55.384
		c-8.215,0.179-8.559-5.551-8.559-9.66c0-4.303,0.875-10.395,7.489-10.395c6.603,0,8.376,6.455,8.376,8.597
		C80.499,46.081,81.398,55.202,73.191,55.384z"/>
</g>
<g>
</g>
<g>
</g>
<g>
</g>
<g>
</g>
<g>
</g>
<g>
</g>
<g>
</g>
<g>
</g>
<g>
</g>
<g>
</g>
<g>
</g>
<g>
</g>
<g>
</g>
<g>
</g>
<g>
</g>
</svg>
