<?xml version="1.0" encoding="iso-8859-1"?>
<!-- Generator: Adobe Illustrator 16.0.0, SVG Export Plug-In . SVG Version: 6.00 Build 0)  -->
<!DOCTYPE svg PUBLIC "-//W3C//DTD SVG 1.1//EN" "http://www.w3.org/Graphics/SVG/1.1/DTD/svg11.dtd">
<svg version="1.1" id="Capa_1" xmlns="http://www.w3.org/2000/svg" xmlns:xlink="http://www.w3.org/1999/xlink" x="0px" y="0px"
	 width="97.75px" height="97.75px" viewBox="0 0 97.75 97.75" style="enable-background:new 0 0 97.75 97.75;" xml:space="preserve"
	>
<g>
	<g>
		<path d="M51.939,41.665c-0.015-3.226-2.648-5.828-5.886-5.813c-3.198,0.015-5.78,2.616-5.786,5.831
			c-0.008,3.245,2.594,5.846,5.838,5.839C49.348,47.516,51.952,44.899,51.939,41.665z M42.663,41.655
			c0.034-1.896,1.595-3.414,3.489-3.396c1.92,0.019,3.458,1.604,3.424,3.532c-0.033,1.895-1.602,3.418-3.49,3.395
			C44.156,45.163,42.628,43.587,42.663,41.655z"/>
		<path d="M66.828,40.751c-0.003-1.067-0.508-1.636-1.484-1.641c-2.994-0.014-5.986-0.014-8.98,0.001
			c-0.9,0.004-1.434,0.549-1.454,1.449c-0.022,0.912-0.019,1.824-0.005,2.736c0.014,1.048,0.496,1.548,1.546,1.576
			c0.911,0.023,1.823,0.002,2.737,0.009c1.291,0.012,1.562,0.275,1.564,1.576c0.006,3.32,0.068,6.645-0.027,9.963
			c-0.051,1.691-0.256,3.408-0.646,5.053c-0.474,1.978-1.879,3.146-3.921,3.411c-2.17,0.282-4.262,0.024-6.12-1.229
			c-0.79-0.535-1.491-1.204-2.283-1.741c-0.488-0.331-1.045-0.658-1.611-0.756c-1.111-0.192-2.041,0.286-2.634,1.233
			c-0.646,1.029-0.601,2.178,0.11,3.104c0.86,1.121,1.793,2.259,2.915,3.09c3.703,2.741,7.884,3.145,12.219,1.939
			c3.311-0.92,5.604-3.094,6.91-6.279c0.736-1.794,1.118-3.671,1.143-5.604c0.034-2.899,0.008-5.8,0.008-8.699
			c0.006,0,0.013,0,0.02,0C66.832,46.879,66.835,43.814,66.828,40.751z"/>
		<path d="M48.875,0C21.883,0,0,21.882,0,48.875S21.883,97.75,48.875,97.75S97.75,75.868,97.75,48.875S75.867,0,48.875,0z
			 M77.092,70.68c0.592,2.504,1.159,5.012,1.731,7.519c0.052,0.221,0.077,0.446,0.128,0.745c-0.293-0.065-0.516-0.107-0.732-0.166
			c-2.349-0.629-4.699-1.25-7.039-1.906c-0.234-0.064-0.436-0.083-0.629-0.055c-5.992,4.66-13.512,7.445-21.673,7.445
			c-19.515,0-35.391-15.873-35.391-35.388c0-19.511,15.876-35.386,35.391-35.386c19.511,0,35.386,15.875,35.386,35.386
			c0,8.022-2.688,15.427-7.205,21.369C77.05,70.381,77.057,70.521,77.092,70.68z"/>
	</g>
</g>
<g>
</g>
<g>
</g>
<g>
</g>
<g>
</g>
<g>
</g>
<g>
</g>
<g>
</g>
<g>
</g>
<g>
</g>
<g>
</g>
<g>
</g>
<g>
</g>
<g>
</g>
<g>
</g>
<g>
</g>
</svg>
