<?xml version="1.0" encoding="iso-8859-1"?>
<!-- Generator: Adobe Illustrator 16.0.0, SVG Export Plug-In . SVG Version: 6.00 Build 0)  -->
<!DOCTYPE svg PUBLIC "-//W3C//DTD SVG 1.1//EN" "http://www.w3.org/Graphics/SVG/1.1/DTD/svg11.dtd">
<svg version="1.1" id="Capa_1" xmlns="http://www.w3.org/2000/svg" xmlns:xlink="http://www.w3.org/1999/xlink" x="0px" y="0px"
	 width="97.75px" height="97.75px" viewBox="0 0 97.75 97.75" style="enable-background:new 0 0 97.75 97.75;" xml:space="preserve"
	>
<g>
	<g>
		<path d="M46.501,38.024c0.011,8.723,7.004,15.859,15.531,15.848c8.56-0.015,15.555-7.196,15.536-15.956
			c-0.019-8.767-7.053-15.931-15.6-15.886C53.375,22.077,46.491,29.192,46.501,38.024z M56.714,29.671
			c1.313,0.003,2.345,1.023,2.354,2.334c0.011,1.303-1.021,2.362-2.317,2.386c-1.317,0.021-2.433-1.082-2.412-2.394
			C54.357,30.698,55.409,29.668,56.714,29.671z M68.143,29.675c1.293,0.064,2.284,1.169,2.219,2.47
			c-0.066,1.281-1.187,2.302-2.463,2.244c-1.332-0.06-2.332-1.182-2.25-2.531C65.727,30.559,66.812,29.608,68.143,29.675z
			 M70.493,42.878c0.297-0.248,0.557-0.544,0.808-0.842c0.612-0.724,1.479-0.871,2.139-0.344c0.697,0.56,0.768,1.586,0.107,2.299
			c-2.288,2.468-5.12,3.936-8.421,4.521c-0.892,0.157-1.789,0.229-2.696,0.215c-4.068-0.059-7.646-1.377-10.666-4.141
			c-0.404-0.37-0.801-0.759-0.845-1.339c-0.047-0.624,0.22-1.12,0.78-1.411c0.676-0.35,1.273-0.186,1.799,0.341
			c1.749,1.754,3.857,2.858,6.271,3.34C63.744,46.309,67.35,45.5,70.493,42.878z"/>
		<path d="M51.648,60.436c0.031-8.858-6.892-15.998-15.541-16.032c-8.57-0.031-15.611,7.102-15.647,15.854
			c-0.037,8.915,6.882,16.09,15.546,16.114C44.63,76.396,51.62,69.275,51.648,60.436z M38.757,51.991h2.951v6.521h-2.951V51.991z
			 M30.535,51.991h2.951v6.521h-2.951V51.991z M25.947,67.178c-0.157-0.139-0.315-0.279-0.457-0.435
			c-0.69-0.746-0.719-1.644-0.077-2.238c0.636-0.589,1.438-0.539,2.159,0.175c1.693,1.672,3.716,2.752,6.026,3.244
			c3.816,0.816,7.343,0.156,10.486-2.232c0.478-0.363,0.918-0.764,1.292-1.246c0.563-0.727,1.497-0.818,2.137-0.262
			c0.621,0.541,0.707,1.534,0.128,2.164c-2.996,3.27-6.764,4.771-10.859,4.834C32.482,71.135,28.952,69.854,25.947,67.178z"/>
		<path d="M26.675,44.154c5.615-3.397,11.508-3.49,17.567-0.739c-1.567-6.275-0.681-11.986,3.164-17.061
			c3.886-5.126,9.14-7.518,15.793-7.331c-11.672-5.797-27.864-4.327-38.701,7.378c-4.089,4.418-6.798,9.6-8.028,15.512
			c-1.221,5.865-0.951,11.647,1.038,17.327C18.216,52.761,21.055,47.555,26.675,44.154z"/>
		<path d="M48.875,0C21.882,0,0,21.883,0,48.875S21.882,97.75,48.875,97.75S97.75,75.867,97.75,48.875S75.868,0,48.875,0z
			 M48.875,85.193c-20.026,0-36.318-16.293-36.318-36.319c0-18.727,14.247-34.187,32.472-36.113
			c0.017-0.009,2.622-0.204,3.847-0.204c20.026,0,36.317,16.291,36.317,36.317C85.193,68.9,68.9,85.193,48.875,85.193z"/>
		<path d="M80.581,39.534c-0.831,6.398-3.74,11.501-9.334,14.806c-5.618,3.319-11.468,3.332-17.513,0.612
			c1.537,6.078,0.736,11.643-2.862,16.625c-3.596,4.979-8.565,7.532-14.84,7.71c9.29,4.402,24.756,4.314,36.05-6.762
			c5.781-5.67,9.064-12.604,9.82-20.662C82.294,47.694,81.971,43.553,80.581,39.534z"/>
	</g>
</g>
<g>
</g>
<g>
</g>
<g>
</g>
<g>
</g>
<g>
</g>
<g>
</g>
<g>
</g>
<g>
</g>
<g>
</g>
<g>
</g>
<g>
</g>
<g>
</g>
<g>
</g>
<g>
</g>
<g>
</g>
</svg>
