<?xml version="1.0" encoding="iso-8859-1"?>
<!-- Generator: Adobe Illustrator 16.0.0, SVG Export Plug-In . SVG Version: 6.00 Build 0)  -->
<!DOCTYPE svg PUBLIC "-//W3C//DTD SVG 1.1//EN" "http://www.w3.org/Graphics/SVG/1.1/DTD/svg11.dtd">
<svg version="1.1" id="Capa_1" xmlns="http://www.w3.org/2000/svg" xmlns:xlink="http://www.w3.org/1999/xlink" x="0px" y="0px"
	 width="97.75px" height="97.75px" viewBox="0 0 97.75 97.75" style="enable-background:new 0 0 97.75 97.75;" xml:space="preserve"
	>
<g>
	<path d="M48.875,0C21.883,0,0,21.883,0,48.875S21.883,97.75,48.875,97.75S97.75,75.867,97.75,48.875S75.867,0,48.875,0z
		 M81.659,46.6c-0.918,4.437-2.833,7.81-6.433,11.332c-4.566,4.242-10.476,8.486-22.57,6.635c-0.926-0.264-1.9-0.536-2.168-0.604
		c-0.482-0.127-0.482-0.123-0.57,5.113c-0.083,5.01-0.113,5.319-0.699,6.998c-1.492,4.288-3.972,6.479-8.186,7.231
		c-1.884,0.336-4.483,0.375-6.16,0.092c-2.42-0.404-5.336-1.545-6.015-2.514l0.008-10.501l1.207,0.804
		c2.995,1.987,6.455,1.932,7.65-0.125c0.446-0.77,0.457-1.149,0.52-19.134l0.063-18.347h5.828h5.828v10.448v10.447l0.729,0.303
		c1.257,0.527,4.375,0.869,6.59,0.723c6.169-0.404,11.121-4.146,12.548-9.483c0.457-1.71,0.469-5.532,0.022-7.666
		c-0.67-3.212-2.889-6.676-5.578-8.708c-6.018-4.552-16.455-5.9-24.454-3.161c-3.025,1.036-5.502,2.564-7.69,4.748
		c-3.252,3.246-4.624,6.538-4.643,11.139c-0.016,3.749,0.734,6.275,2.37,8.186l0.779,0.913l-4.279,3.662
		c-3.481,2.981-4.349,3.621-4.646,3.433c-0.737-0.465-2.775-3.379-3.737-5.342c-1.608-3.285-2.273-6.557-2.273-10.438
		c0-3.882,0.537-5.387,1.112-7.521c0.722-2.667,2.583-6.569,4.177-8.752c4.702-6.438,11.562-10.351,21.117-12.04
		c2.56-0.453,9.854-0.39,12.905,0.108c8.772,1.442,14.752,4.21,19.665,9.105c3.408,3.396,5.527,6.982,6.646,11.24
		C82.132,38.004,82.291,43.548,81.659,46.6z"/>
</g>
<g>
</g>
<g>
</g>
<g>
</g>
<g>
</g>
<g>
</g>
<g>
</g>
<g>
</g>
<g>
</g>
<g>
</g>
<g>
</g>
<g>
</g>
<g>
</g>
<g>
</g>
<g>
</g>
<g>
</g>
</svg>
