<?xml version="1.0" encoding="iso-8859-1"?>
<!-- Generator: Adobe Illustrator 16.0.0, SVG Export Plug-In . SVG Version: 6.00 Build 0)  -->
<!DOCTYPE svg PUBLIC "-//W3C//DTD SVG 1.1//EN" "http://www.w3.org/Graphics/SVG/1.1/DTD/svg11.dtd">
<svg version="1.1" id="Capa_1" xmlns="http://www.w3.org/2000/svg" xmlns:xlink="http://www.w3.org/1999/xlink" x="0px" y="0px"
	 width="97.75px" height="97.75px" viewBox="0 0 97.75 97.75" style="enable-background:new 0 0 97.75 97.75;" xml:space="preserve"
	>
<g>
	<g>
		<path d="M34.359,45.395c-1.967,0.031-3.51,1.664-3.477,3.675c0.033,2.003,1.656,3.634,3.584,3.599
			c1.928-0.035,3.484-1.703,3.459-3.711C37.9,46.92,36.344,45.363,34.359,45.395z"/>
		<path d="M19.201,48.242c0,0,1.436-1.805,2.344-2.918c-1.686,0-3.07,0-4.51,0v7.393l4.223,0.002c1.133,0,1.021-1.113,0.59-1.51
			L19.201,48.242z"/>
		<path d="M48.875,0C21.883,0,0,21.883,0,48.875S21.883,97.75,48.875,97.75S97.75,75.867,97.75,48.875S75.867,0,48.875,0z
			 M20.865,55.473c-1,0-6.408,0.002-6.408,0.002V42.367c1.83,0,4.934,0.002,6.578,0.002c4.311,0,3.764,5.24,1.557,5.9v0.082
			c1.563,0.737,2.07,1.756,2.07,3.26C24.662,54.793,21.865,55.473,20.865,55.473z M34.377,55.447
			c-3.438-0.021-6.217-2.889-6.223-6.42c-0.006-3.564,2.719-6.396,6.191-6.433c3.467-0.039,6.277,2.75,6.342,6.289
			C40.752,52.504,37.902,55.469,34.377,55.447z M49.414,55.5l-4.354-0.002V42.477h2.664v10.266h3.1L49.414,55.5z M63.588,55.477
			l-2.959-6.967l-2.947,6.988l-2.922,0.006c1.895-4.197,3.826-8.701,5.883-13.258l5.902,13.232L63.588,55.477z M80.336,55.477
			l-2.959-6.967l-2.945,6.988l-2.924,0.006c1.896-4.197,3.828-8.701,5.885-13.258l5.9,13.232L80.336,55.477z"/>
	</g>
</g>
<g>
</g>
<g>
</g>
<g>
</g>
<g>
</g>
<g>
</g>
<g>
</g>
<g>
</g>
<g>
</g>
<g>
</g>
<g>
</g>
<g>
</g>
<g>
</g>
<g>
</g>
<g>
</g>
<g>
</g>
</svg>
