<?xml version="1.0" encoding="iso-8859-1"?>
<!-- Generator: Adobe Illustrator 16.0.0, SVG Export Plug-In . SVG Version: 6.00 Build 0)  -->
<!DOCTYPE svg PUBLIC "-//W3C//DTD SVG 1.1//EN" "http://www.w3.org/Graphics/SVG/1.1/DTD/svg11.dtd">
<svg version="1.1" id="Capa_1" xmlns="http://www.w3.org/2000/svg" xmlns:xlink="http://www.w3.org/1999/xlink" x="0px" y="0px"
	 width="97.75px" height="97.75px" viewBox="0 0 97.75 97.75" style="enable-background:new 0 0 97.75 97.75;" xml:space="preserve"
	>
<g>
	<path d="M48.875,0C21.883,0,0,21.883,0,48.875S21.883,97.75,48.875,97.75S97.75,75.867,97.75,48.875S75.867,0,48.875,0z
		 M71.458,19.721c3.364,0,6.091,2.727,6.091,6.092c0,3.364-2.727,6.091-6.091,6.091s-6.092-2.727-6.092-6.091
		C65.366,22.447,68.094,19.721,71.458,19.721z M14.19,26.054c0-3.186,2.583-5.769,5.768-5.769c3.187,0,5.769,2.583,5.769,5.769
		c0,3.187-2.582,5.77-5.769,5.77C16.773,31.823,14.19,29.24,14.19,26.054z M39.539,76.448c-4.436,0.952-8.764,1.376-13.297,1.569
		c-6.135,0.264-10.764-3.903-10.881-10.041l-0.012-27.315c-0.032-2.251,0.569-4.175,2.784-5.172c3.17-1.43,6.354,0.794,6.371,4.479
		l-0.027,22.509c-0.222,7.349,2.698,9.006,9.235,8.144c1.186-0.156,2.373-0.347,3.531-0.632c4.566-1.127,7.548-3.725,7.888-8.697
		c0.054-0.803,0.098-1.607,0.101-2.413c0.01-4.579,0.004-9.158,0.004-14.064L31.88,44.839c0,0-4.267,0.226-4.267-4.383
		s4.762-4.21,4.762-4.21l12.864,0.017l-0.003-11.925c0.128-1.413,0.979-4.167,4.497-4.167c3.519,0,4.291,3.04,4.258,4.227
		l0.002,11.865l25.298,0.021c0,0,3.794,0.185,3.794,4.313c0,4.127-3.824,4.209-3.824,4.209c-0.074,0-12.689,0.009-25.168,0.009
		l0.016,12.509C54.314,68.93,48.455,74.532,39.539,76.448z M79.688,77.98c-3.123-0.074-6.295,0.043-9.358-0.457
		c-7.486-1.225-11.277-5.762-11.522-13.322c-0.06-1.85-0.009-3.703-0.009-5.555c-0.003-1.851-0.032-3.703,0.004-5.555
		c0.058-2.688,2.022-4.73,4.474-4.709c2.408,0.021,4.293,2.123,4.375,4.784c0.115,3.849,0.166,7.704,0.455,11.541
		c0.305,4.063,2.524,6.101,6.666,6.397c1.764,0.127,3.541,0.072,5.301,0.233c2.172,0.198,3.611,1.75,3.48,3.572
		C83.416,76.8,81.949,78.034,79.688,77.98z"/>
</g>
<g>
</g>
<g>
</g>
<g>
</g>
<g>
</g>
<g>
</g>
<g>
</g>
<g>
</g>
<g>
</g>
<g>
</g>
<g>
</g>
<g>
</g>
<g>
</g>
<g>
</g>
<g>
</g>
<g>
</g>
</svg>
