<?xml version="1.0" encoding="iso-8859-1"?>
<!-- Generator: Adobe Illustrator 16.0.0, SVG Export Plug-In . SVG Version: 6.00 Build 0)  -->
<!DOCTYPE svg PUBLIC "-//W3C//DTD SVG 1.1//EN" "http://www.w3.org/Graphics/SVG/1.1/DTD/svg11.dtd">
<svg version="1.1" id="Capa_1" xmlns="http://www.w3.org/2000/svg" xmlns:xlink="http://www.w3.org/1999/xlink" x="0px" y="0px"
	 width="97.75px" height="97.75px" viewBox="0 0 97.75 97.75" style="enable-background:new 0 0 97.75 97.75;" xml:space="preserve"
	>
<g>
	<path d="M61.014,43.586c0.137,0.114,0.191,0.273,0.121,0.356c-0.068,0.083-0.234,0.057-0.371-0.057
		c-0.137-0.114-0.19-0.274-0.121-0.356C60.711,43.447,60.877,43.472,61.014,43.586z M62.805,44.657
		c-0.104,0.124-0.022,0.363,0.182,0.534c0.203,0.17,0.451,0.208,0.557,0.084s0.023-0.363-0.182-0.534
		C63.158,44.571,62.909,44.533,62.805,44.657z M40.41,60.885c-1.508-0.408-3.041-0.632-4.884-0.644
		c-0.804-0.039-1.873,0.063-2.889,0.454c-1.382,0.531-2.31,1.463-2.411,3.019c-0.09,1.386,0.455,2.492,1.687,3.125
		c2.368,1.216,4.7,0.935,6.892-0.459c1.875-1.192,2.208-3.071,2.074-5.116C40.855,60.917,40.613,60.939,40.41,60.885z
		 M63.189,53.062c-2.506,0.397-4.474,2.506-4.979,5.287l-0.11,0.688c1.717-0.041,4.099-0.015,5.815-0.017c1.442,0,5.881,0,5.881,0
		c-0.017-0.508-0.325-1.674-0.325-1.674C68.566,54.271,66.113,52.6,63.189,53.062z M65.201,46.009
		c-0.131,0.156-0.029,0.457,0.229,0.672c0.256,0.215,0.569,0.263,0.7,0.107c0.132-0.156,0.03-0.457-0.228-0.672
		C65.646,45.901,65.333,45.853,65.201,46.009z M69.801,42.705c-0.389,0-0.705,0.315-0.705,0.705c0,0.389,0.316,0.705,0.705,0.705
		c0.391,0,0.705-0.316,0.705-0.705C70.506,43.021,70.189,42.705,69.801,42.705z M71.229,38.95c-0.194,0-0.353,0.157-0.353,0.352
		c0,0.195,0.157,0.352,0.353,0.352c0.193,0,0.353-0.157,0.353-0.352C71.58,39.107,71.422,38.95,71.229,38.95z M70.428,40.659
		c-0.285,0-0.516,0.231-0.516,0.516c0,0.285,0.23,0.516,0.516,0.516c0.286,0,0.516-0.231,0.516-0.516
		C70.943,40.89,70.713,40.659,70.428,40.659z M97.75,48.875c0,26.993-21.882,48.875-48.875,48.875S0,75.868,0,48.875
		S21.882,0,48.875,0S97.75,21.882,97.75,48.875z M78.777,42.104c-0.961,0.749-1.119,1.345-0.674,2.487
		c0.349,0.899,0.865,1.097,1.734,0.746c0.284-0.115,0.579-0.544,0.861-0.325c0.277,0.218-0.225,0.578-0.184,0.867
		c0.004,0.031,0.047,0.117,0.183,0.095c0.134-0.024,0.497-0.938,0.581-0.943c0.092-0.005,0.021,0.376,0.05,0.542
		c0.065,0.396-0.267,1.191,0.246,1.323c0.543,0.139,0.839-0.456,1.071-0.908c0.074-0.14,0.168-0.34,0.188-0.495
		c0.031-0.241,0.173-0.494,0.358-0.661c0.402-0.365,0.762-0.829,1.101-1.256c0.179-0.225,0.392-0.51,0.22-0.813
		c-0.164-0.287-0.496-0.161-0.759-0.165c-0.272-0.005-0.668-0.013-0.862,0.178c-0.164,0.159-0.322,0.126-0.479,0.063
		c0.809-1.2,2.036-1.266,2.049-1.266l-0.006-0.137c-0.055,0.002-1.326,0.066-2.172,1.348c-0.023-0.009-0.049-0.019-0.07-0.028
		c0.577-1.446-0.115-2.535-0.146-2.581l-0.114,0.075c0.007,0.01,0.687,1.076,0.132,2.458l0.064,0.026
		c-0.112-0.032-0.226-0.032-0.338,0.064c-0.006,0.005-0.157-0.126-0.172-0.26c-0.16-1.539-1.225-2.519-2.185-3.585
		c-0.188-0.208-0.413-0.508-0.751-0.313c-0.346,0.2-0.493,0.571-0.389,0.948c0.138,0.5,0.135,0.995,0.09,1.497
		C78.372,41.485,78.414,41.852,78.777,42.104z M53.973,37.979c0.047,0.245,0.315,0.233,0.504,0.285
		c0.396,0.109,0.832,0.107,1.181,0.338c0.632,0.421,1.264,0.617,2.021,0.087c-0.076,0.76,0.278,0.963,0.891,1.11
		c0.062,0.014,0.127,0.027,0.193,0.04c0.051,0.128,0.196,0.342,0.522,0.107c0.39,0.106,0.692,0.307,0.75,0.874
		c0.021,0.198,0.306,0.386,0.471,0.261c0.146-0.111,0.063-0.364-0.036-0.456c-0.453-0.417-0.289-0.729,0.113-0.976
		c0.581-0.359,0.531-0.779,0.178-1.258c-0.219-0.298-0.429-0.603-0.658-0.926c0.486-0.175,0.582,0.214,0.81,0.364
		c0.247,0.164,0.508,0.651,0.735,0.399c0.207-0.226-0.289-0.455-0.5-0.665c-0.021-0.022-0.01-0.078-0.014-0.119
		c0.254-0.145,0.424,0.012,0.615,0.145c0.318,0.223,0.643,0.441,0.979,0.63c1.105,0.62,1.598,0.479,2.217-0.613
		c0.537-0.945,0.701-0.985,1.57-0.358c0.174,0.126,0.334,0.251,0.557,0.15c0.121-0.055,0.144-0.178,0.132-0.292
		c-0.027-0.249-0.228-0.323-0.427-0.389c-0.442-0.148-0.965-0.222-1.254-0.587c-0.114-0.144-0.268-0.28-0.256-0.463
		c0.059-0.893-0.102-0.839-0.383-0.841c-0.392-0.004,0.18-1.989-1.688-1.694c-0.153,0.024-0.408,0.055-0.67,0.04
		c0.752-0.999,0.595-1.935-0.092-2.802c-0.507-0.643-0.768-1.386-1.033-2.14c-0.271-0.772-0.621-0.84-1.154-0.228
		c-1.09,1.249-1.52,2.721-1.473,4.367c0.033,1.143,0.283,2.243,0.59,3.354c-0.338,0.048-0.516-0.107-0.707-0.27
		c-0.094-0.08-0.264-0.103-0.346,0.029c-0.24-0.179-0.672-0.626-0.629-1.497c0.01-0.012,0.018-0.025,0.02-0.042l0.042-0.249
		c0.008-0.048-0.025-0.094-0.073-0.102c-0.048-0.008-0.094,0.025-0.102,0.073l-0.043,0.249c-0.004,0.025,0.004,0.049,0.018,0.068
		c-0.025,0.543,0.123,0.936,0.305,1.207c-0.281-0.125-0.662-0.2-1.152-0.119c-0.021-0.012-0.045-0.017-0.067-0.011l-0.246,0.059
		c-0.047,0.011-0.075,0.059-0.065,0.107c0.012,0.047,0.06,0.077,0.106,0.065l0.245-0.058c0.018-0.004,0.029-0.014,0.041-0.025
		c0.709-0.12,1.165,0.099,1.417,0.298c0.022,0.022,0.047,0.042,0.067,0.06c0.027,0.024,0.051,0.046,0.07,0.067
		c-0.005,0.073,0.006,0.148,0.038,0.18c0.714,0.711,0.019,0.553-0.347,0.558c-1.312,0.015-2.527,0.342-3.625,1.068
		C54.137,37.565,53.922,37.716,53.973,37.979z M26.132,65.126c-0.575-0.591-1.26-0.592-1.945-0.002
		c-0.19,0.164-0.374,0.337-0.571,0.495c-2.138,1.705-4.499,2.232-7.063,1.156c-3.193-1.338-4.812-4.978-3.886-8.539
		c0.814-3.131,3.319-5.144,6.377-5.131c1.872,0.006,3.373,0.85,4.734,2.045c0.796,0.699,1.716,0.675,2.306-0.021
		c0.578-0.681,0.459-1.531-0.333-2.227c-1.917-1.683-4.143-2.562-6.704-2.558c-0.503,0.013-1.002,0.035-1.503,0.115
		c-5.011,0.795-8.453,5.095-8.28,10.358c0.156,4.744,4.018,8.806,8.831,9.242c3.107,0.283,5.767-0.721,7.975-2.92
		C26.685,66.529,26.701,65.708,26.132,65.126z M43.759,57.299c-0.065-3.134-1.824-5.443-4.67-6.342
		c-1.301-0.411-2.645-0.506-4.003-0.46c-1.919,0.065-3.757,0.485-5.516,1.253c-0.552,0.241-0.869,0.677-0.883,1.277
		c-0.014,0.582,0.294,1.008,0.814,1.244c0.467,0.213,0.932,0.106,1.39-0.092c1.621-0.703,3.319-1.018,5.083-0.922
		c2.968,0.161,4.643,1.73,4.814,4.482c0.054,0.881,0.059,0.859-0.787,0.674c-2.918-0.641-5.844-0.869-8.747,0.056
		c-2.476,0.789-3.983,2.658-4.125,5.02c-0.164,2.725,0.976,4.663,3.467,5.815c2.771,1.282,7.202,1.19,10.237-2.146
		c0,0.555-0.029,0.939,0.006,1.316c0.081,0.864,0.668,1.396,1.488,1.381c0.828-0.015,1.46-0.627,1.461-1.496
		C43.794,64.673,43.832,60.984,43.759,57.299z M44.843,34.303c0.304,0.242,0.922,0.397,1.186,0.987
		c0.314,0.702,0.815,1.004,1.033,1.089c0.181,0.07,0.371,0.277,0.456,0.352c0.53,0.469,1.306,1.089,1.621,1.225
		c0.199,0.086,0.485-0.007,0.366-0.191c-0.274-0.36-0.2-0.486,0.318-0.449c0.463,0.033,0.911,0.096,1.364,0.137
		c0.332,0.034,0.648-0.017,0.826-0.36c0.168-0.328,0.047-0.649-0.143-0.924c-0.284-0.409-0.684-0.677-1.137-0.856
		c-0.283-0.113-0.424-0.254-0.274-0.562c0.251-0.523-0.013-0.917-0.313-1.313c-0.305-0.397-0.797-0.656-0.931-1.167
		c-0.12-0.465-0.322-0.356-0.559-0.132c-0.701,0.665-1.216,1.422-1.181,2.447c0.012,0.351-0.005,0.34-0.155,0.364
		c-0.021,0.003-0.041,0.004-0.062,0.007c-0.089-0.116-0.389-0.496-0.736-0.797c-0.008-0.063-0.059-0.112-0.124-0.112h-0.161
		c-0.069,0-0.126,0.057-0.126,0.126c0,0.069,0.057,0.126,0.126,0.126h0.161c0.021,0,0.04-0.007,0.058-0.016
		c0.271,0.24,0.514,0.531,0.635,0.684c-0.322,0.002-0.591-0.12-0.822-0.414c-0.296-0.374-0.703-0.637-1.117-0.87
		c-0.148-0.084-0.431-0.247-0.582-0.017C44.402,33.925,44.709,34.196,44.843,34.303z M55.314,53.566
		c0.886-0.076,1.354-0.893,1.24-1.765c-0.105-0.821-0.729-1.327-1.646-1.309c-1.209,0.024-2.27,0.489-3.249,1.157
		c-1.173,0.802-2.056,1.873-2.906,3.035c0-0.815-0.001-1.633,0-2.451c0.001-0.299-0.017-0.592-0.168-0.863
		c-0.344-0.619-1.049-0.928-1.758-0.754c-0.663,0.16-1.133,0.763-1.134,1.527c-0.007,5.36-0.005,10.723-0.002,16.082
		c0,0.183,0.015,0.371,0.066,0.541c0.208,0.697,0.924,1.16,1.641,1.08c0.78-0.089,1.338-0.662,1.346-1.476
		c0.02-2.13,0.008-4.261,0.012-6.392C48.766,57.113,51.359,53.914,55.314,53.566z M72.906,59.547
		c-0.016-0.388-0.059-0.777-0.118-1.161c-0.392-2.526-1.399-4.708-3.446-6.295c-0.06,0.425-0.25,1.106-1.002,1.106
		c-0.222,0-0.479-0.062-0.785-0.189c-1.412-0.586-2.592-1.449-3.507-2.566c0,0-0.077-0.096-0.08-0.105
		c-1.702,0.045-3.286,0.462-4.694,1.452c-3.279,2.305-4.586,5.553-4.234,9.466c0.354,3.938,2.291,6.881,6.062,8.229
		c3.892,1.394,7.48,0.642,10.521-2.266c0.575-0.55,0.604-1.281,0.111-1.845c-0.48-0.556-1.297-0.614-1.908-0.136
		c-0.396,0.311-0.775,0.646-1.192,0.925c-4.153,2.772-9.431,0.737-10.401-3.996c-0.115-0.567-0.078-0.815,0.636-0.808
		c4.099,0.039,8.198,0.021,12.298,0.018C72.4,61.374,72.959,60.788,72.906,59.547z M73.768,49.535
		c0.068-0.143,0.168-0.271,0.27-0.393c1.562-1.893,1.287-4.702-0.712-5.372c0.442-0.347,0.444-0.806,0.315-1.292
		c-0.105-0.397-0.179-0.809-0.332-1.188c-0.346-0.859-0.468-1.751-0.52-2.667c-0.031-0.547-0.066-1.188-0.671-1.39
		c-0.591-0.197-1.038,0.24-1.408,0.657c-1.243,1.401-1.95,3.078-2.448,4.855c-0.252,0.896-0.474,1.802-0.726,2.771
		c-0.224-0.228-0.384-0.562-0.622-0.602c-0.096-0.253-0.499-1.481,0.119-2.542c0.011-0.005,0.021-0.014,0.029-0.025L67.18,42.2
		c0.031-0.042,0.024-0.101-0.018-0.133c-0.04-0.032-0.102-0.026-0.133,0.016l-0.116,0.149c-0.021,0.028-0.022,0.063-0.013,0.093
		c-0.565,0.994-0.291,2.115-0.155,2.529c-0.285-0.415-0.951-1.206-1.983-1.385c-0.017-0.027-0.046-0.046-0.078-0.046h-0.188
		c-0.052,0-0.095,0.042-0.095,0.095c0,0.053,0.043,0.095,0.095,0.095h0.19c0.016,0,0.027-0.005,0.041-0.011
		c1.035,0.172,1.688,0.997,1.939,1.378c-0.258,0.177,0.082,0.527,0.055,0.858c-1.34-0.998-2.742-1.753-4.203-2.403
		c-1.314-0.585-2.619-1.21-4.041-1.502c-0.318-0.065-0.658-0.073-0.844,0.275c-0.168,0.319-0.061,0.629,0.129,0.902
		c0.104,0.148,0.234,0.29,0.383,0.392c1.641,1.128,2.895,2.644,4.178,4.133c0.3,0.349,0.604,0.692,1.119,0.717
		c0.168,0.008,0.307,0.088,0.3,0.299c0,0.027,0,0.056,0.001,0.082c0.031,0.557,0.167,1.009,0.52,1.535
		c0.92,1.121,2.071,1.937,3.4,2.487c0.268,0.111,0.492,0.168,0.679,0.168c0.46,0,0.685-0.347,0.75-1.062
		c0.019-0.977-0.282-1.897-0.579-2.795c0.236-0.183,0.348,0.164,0.53,0.045c0.159-0.223-0.146-0.457,0.013-0.728
		c0.117,0.067,0.215,0.119,0.309,0.175c1.048,0.623,2.152,1.102,3.328,1.428C73.193,50.126,73.537,50.006,73.768,49.535z
		 M88.488,67.768c-0.096-1.345-0.898-2.188-2.348-2.201l-5.051-0.002l0.264-0.222c0.121-0.103,0.25-0.196,0.375-0.297
		c1.738-1.409,3.635-2.644,5.049-4.423c1.99-2.504,1.893-6.236-0.252-8.518c-1.241-1.319-2.861-1.84-4.623-1.965
		c-2.801-0.195-5.194,0.664-7.041,2.829c-0.887,1.041-0.838,2.474,0.056,3.291c1.024,0.938,2.384,0.872,3.438-0.149
		c0.345-0.334,0.693-0.672,1.086-0.943c0.916-0.635,2.343-0.609,3.019,0.016c0.748,0.691,0.839,1.896,0.208,2.978
		c-0.15,0.254-0.344,0.483-0.535,0.711c-0.564,0.667-1.236,1.221-1.906,1.772c-1.94,1.602-3.906,3.176-5.83,4.799
		c-0.926,0.781-1.188,1.839-0.834,2.982c0.316,1.029,1.252,1.573,2.555,1.576c3.345,0.008,6.689-0.014,10.035,0.014
		C87.502,70.025,88.568,68.895,88.488,67.768z"/>
</g>
<g>
</g>
<g>
</g>
<g>
</g>
<g>
</g>
<g>
</g>
<g>
</g>
<g>
</g>
<g>
</g>
<g>
</g>
<g>
</g>
<g>
</g>
<g>
</g>
<g>
</g>
<g>
</g>
<g>
</g>
</svg>
