<?xml version="1.0" encoding="iso-8859-1"?>
<!-- Generator: Adobe Illustrator 16.0.0, SVG Export Plug-In . SVG Version: 6.00 Build 0)  -->
<!DOCTYPE svg PUBLIC "-//W3C//DTD SVG 1.1//EN" "http://www.w3.org/Graphics/SVG/1.1/DTD/svg11.dtd">
<svg version="1.1" id="Capa_1" xmlns="http://www.w3.org/2000/svg" xmlns:xlink="http://www.w3.org/1999/xlink" x="0px" y="0px"
	 width="97.75px" height="97.75px" viewBox="0 0 97.75 97.75" style="enable-background:new 0 0 97.75 97.75;" xml:space="preserve"
	>
<g>
	<g>
		<path d="M87.218,45.813l-0.048-0.469l0.1-0.014c0.021,0,0.039,0,0.051,0.014c0.005,0,0.025,0.012,0.052,0.06l0.274,0.357
			l0.23-0.025l-0.348-0.446c-0.002-0.004-0.002-0.007-0.004-0.009c0.031-0.014,0.056-0.025,0.074-0.041
			c0.086-0.068,0.125-0.164,0.111-0.282c-0.013-0.123-0.068-0.208-0.167-0.255c-0.06-0.028-0.138-0.037-0.241-0.028l-0.398,0.048
			l0.113,1.107L87.218,45.813z M87.324,44.872c0.062-0.007,0.105-0.004,0.14,0.014c0.032,0.012,0.05,0.044,0.052,0.094
			c0.006,0.053-0.006,0.087-0.039,0.109c-0.012,0.009-0.043,0.025-0.127,0.036v0.002l-0.201,0.021l-0.023-0.254L87.324,44.872z"/>
		<path d="M48.875,0C21.882,0,0,21.883,0,48.875S21.882,97.75,48.875,97.75S97.75,75.867,97.75,48.875S75.868,0,48.875,0z
			 M87.236,44.248c0.546-0.061,1.031,0.342,1.095,0.891c0.058,0.547-0.343,1.038-0.89,1.094s-1.035-0.342-1.092-0.887
			c-0.06-0.551,0.346-1.037,0.881-1.1L87.236,44.248z M82.818,45.251h0.006c1.91,1.707,0.841,4.457-0.818,4.263
			C82.521,48.693,83.001,47.045,82.818,45.251z M81.564,42.238c0.002,0.004,0.009,0.004,0.013,0.005
			c-0.354,2.21-0.124,6.43-2.804,8.456c0,0.001,0,0.002,0,0.002l0,0c0,0,0-0.001,0.002-0.002c0.98-3.193,0.271-5.523-1.879-6.664
			C77.395,43.846,81.564,42.238,81.564,42.238z M76.622,46.576h0.004c0,0.002,0,0.004,0,0.006c1.638,2.176,0.873,4.271-0.793,3.156
			c0,0,0.808-1.834,0.793-3.156C76.624,46.58,76.623,46.578,76.622,46.576z M71.338,45.221c0.383-0.148,4.303-1.655,4.303-1.655
			c0.004,0.002,0.01,0.003,0.014,0.003c-0.066,2.047-1.094,5.957-3.021,7.886h0.004c-0.384,0.242-1.046,0.42-1.468-0.096
			C72.611,48.9,72.954,46.915,71.338,45.221z M70.023,46.096c0.685,0.876,1.453,1.996,0.064,3.792l0.001-0.007
			C69.798,49.203,69.45,47.229,70.023,46.096z M69.334,43.791c0.003,0,0.005,0.002,0.008,0.004c-1.269,1.995-1.738,4.777-0.32,7.393
			H69.02c-0.459,1.172-3.004,0.674-3.34-0.344c1.082-1.887,1.739-4.146,1.877-6.391C67.822,44.355,69.334,43.791,69.334,43.791z
			 M64.702,38.336c0.306,0.828,2.231,5.795-0.097,10.318c-0.849-2.16-0.735-7.329,0.098-10.313L64.702,38.336z M63.841,35.451
			c0.003,0.003,0.007,0.005,0.011,0.009c-1.326,4.513-2.623,8.461-0.677,15.897c-0.22,0.936-1.063,2.007-2.588,0.008h0.002
			c-1.555-3.986,2.054-9.462-0.956-14.295C60.027,36.911,63.77,35.401,63.841,35.451z M58.814,47.021
			c0,0.005,0.002,0.009,0.004,0.015h-0.004C58.814,47.03,58.814,47.025,58.814,47.021c-1.207-4.525-1.625-7.082-0.797-9.529
			C58.988,39.302,58.992,42.514,58.814,47.021z M56.473,46.712c0.432,1.349,0.648,2.069,1.486,3.765
			c-0.625,0.804-2.136,1.58-2.98-0.33l0.006-0.004C54.043,48.016,55.093,46.919,56.473,46.712z M48.386,43.632
			c0.13-2.058,0.701-4.039,1.842-5.924c0.086-0.142,7.317-2.953,7.375-2.903c0.002,0.002,0.004,0.003,0.006,0.005
			c-1.754,2.841-2.332,5.851-1.582,9.89c-4.813,0.617-3.797,5.207-2.401,7.223c-0.146,0.732-1.368,0.851-1.506,0.384v0.002
			l-0.003-0.007c0,0.003,0.002,0.003,0.003,0.005c-1.095-3.984-1.902-8.771-3.738-8.672C48.382,43.634,48.384,43.632,48.386,43.632z
			 M49.557,51.286c-0.371,1.616-1.864,1.792-2.357,1.5c0.002,0.001,0.003,0.004,0.005,0.005l-0.006-0.005l0,0
			c-1.444-0.865-0.566-6.198,1.076-6.505C48.628,47.88,48.794,48.811,49.557,51.286z M47.501,43.882c0,0,0.259-0.093,0.389-0.137
			c0.039-0.014,0.079-0.026,0.12-0.038c-1.609,0.523-4.147,3.701-3.405,9.551c-0.262,1.393-2.425,1.215-3.064,0.831h-0.004
			c2.204-1.999,2.079-6.264-0.69-7.887L47.501,43.882z M40.09,53.046h-0.005c-1.146-0.79-1.473-3.313,0.278-4.877
			C41.359,48.299,42.25,50.76,40.09,53.046z M32.926,48.768c1.408-0.816,6.273-2.52,7.145-2.825
			c0.018-0.009,0.146-0.052,0.134-0.043c0.001,0,0.001,0.002,0.001,0.002c-3.602,2.016-3.745,7.438-1.594,8.9
			c-1.07,1.05-1.771,1.202-2.688-0.083c0.714-2.472,0.208-4.419-1.249-6.229l-0.756,0.736c-0.406-0.143-0.835-0.23-1.272-0.293
			C32.734,48.88,32.898,48.779,32.926,48.768z M29.729,49.314c0.271-0.105,0.772-0.373,1.089-0.4c0.005,0,0.01,0,0.016,0
			c0.015,0.098,0.992,6.623,0.43,7.316c-0.522,0.668-1.184-0.338-1.184-0.338l-0.005,0.006c0,0,0.117-2.98-0.101-4.67
			c-0.089-0.713-0.243-1.322-0.459-1.834C29.585,49.367,29.657,49.34,29.729,49.314z M24.192,40.884
			c0.929,2.521,0.378,9.155-0.771,10.956l0.765-10.949L24.192,40.884z M79.371,55.131c-1.745,0.328-3.463,0.15-5.069-0.525
			c-1.618,0.721-4.528,1.574-5.911,0.478c-1.053,0.438-2.27,1.099-3.416,1.153c-0.688,0.027-1.322-0.084-1.961-0.275
			c-0.539,0.2-1.082,0.383-1.625,0.521c-1.225,0.317-2.52,0.242-3.619-0.33c-0.746,0.287-1.496,0.564-2.25,0.826
			c-1.399,0.486-2.559-0.062-3.449-1.055c-0.334,0.193-2.93,1.334-4.255,0.354c-0.354,0.137-2.96,1.418-3.991,0.541
			c-0.744,0.3-1.439,0.596-2.131,0.785c-0.001,0-0.003,0.002-0.005,0.002c0.001,0,0.002,0,0.003-0.002
			c-0.78,0.215-1.564,0.293-2.397,0.104c-0.06,0.021-0.122,0.044-0.181,0.068c-1.836,0.716-3.455,1.505-5.295,1.236
			c-1.158,0.461-2.315,0.951-3.498,1.344c-0.223,0.074-0.451,0.154-0.685,0.185c-0.419,0.058-0.857,0.03-1.222-0.187
			c-0.369-0.22-0.646-0.524-0.866-0.883c-0.269,0.104-0.537,0.211-0.804,0.314c-1.031,0.402-3.261,1.734-4.51,1.074
			c-0.394-0.215-0.671-0.467-0.866-0.773c-1.618,0.667-3.248,1.303-4.88,1.936c-1.169,0.453-2.543,1.224-3.84,0.804
			c-0.599-0.191-1.142-0.513-1.667-0.845c-0.123,0.047-0.248,0.094-0.375,0.14c-0.683,0.269-1.367,0.539-2.05,0.808
			c-0.369-1.994-0.726-4.045-0.675-6.08c0.022-0.927,0.089-1.854,0.295-2.753c0.049-0.227,0.104-0.45,0.164-0.675
			c-0.161,0.039-0.323,0.064-0.489,0.073c-0.344,0-0.694-0.013-1.031-0.103c-0.395-0.113-1.776-0.61-1.185-1.173
			c0.725-0.684,1.778-0.964,2.682-1.327c0.01-0.005,0.021-0.008,0.033-0.012c0.268-1.291,0.25-2.589,0-3.9
			c-0.03-0.157,6.548-2.627,6.745-2.712c0.191-1.409,0.502-2.796,1.063-4.075l7.375-2.907c0.003,0.003,0.006,0.005,0.009,0.009
			c-1.854,4.089-1.194,12.884-2.358,20.409c-2.305-0.655-4.934-3.48-3.286-7.608c1.012,0.062,2.028-0.102,3.005-0.571
			c-0.038-0.409-0.237-0.918-0.777-1.197c-0.541-0.283-1.31-0.513-2.331-0.041c0.096-0.306,0.357-1.022,0.338-2.02
			c-0.012-0.471-0.163-2.14-2.394-2.204c0.347,1.664,0.246,3.239-0.154,4.539c-0.696-0.111-1.97-0.136-2.744,0.933
			c0.229,0.764,1.811,1.243,2.895,0.966c-0.836,3.029-0.399,6.188,0.212,9.503l1.481-1.567c1.713,1.097,3.333,2.596,5.766,0.644
			c2.232-1.793,3.013-9.843,3.863-9.568c0.171,0.058,0.792,3.765,1.374,7.013c0.156,0.869,1.282,1.883,2.526,1.517
			c0.427-0.127,1.743-0.429,1.803-2.073c0.051-0.527-0.113-5.139-0.113-5.139l1.373,0.352c-0.053,7.247,2.671,7.805,6.022,4.609
			c2.565,1.07,4.848-0.104,5.57-1.403c2.324,1.271,4.357,0.325,4.824-1.254c1.071,1.626,2.894,1.472,4.233-0.166
			c1.478,1.315,3.302,1.25,4.283-0.616c1.514,2.34,3.896,2.644,5.411,0.346c1.502,1.377,4.264,1.351,5.691,0.228
			c2.467,0.881,3.877,0.229,4.954-1.297c2.05,1.704,4.033,1.601,6-0.269h0.005c2.344,1.273,4.909,1.261,7.08,0.494
			C85.471,52.943,79.866,55.04,79.371,55.131z M84.941,50.436c0.781-1.812,0.812-3.491,0.311-4.866
			c-0.089-0.244-0.197-0.474-0.318-0.703l2.008-0.764l0.002,0.001c-0.512,0.177-0.856,0.687-0.797,1.252
			c0.066,0.655,0.652,1.133,1.312,1.065c0.655-0.066,1.134-0.658,1.065-1.313c-0.025-0.262-0.131-0.492-0.293-0.67l3.996-1.517
			c0.004,0.007,0.01,0.017,0.015,0.025h-0.007C92.541,46.322,90.234,50.191,84.941,50.436z"/>
	</g>
</g>
<g>
</g>
<g>
</g>
<g>
</g>
<g>
</g>
<g>
</g>
<g>
</g>
<g>
</g>
<g>
</g>
<g>
</g>
<g>
</g>
<g>
</g>
<g>
</g>
<g>
</g>
<g>
</g>
<g>
</g>
</svg>
