<?xml version="1.0" encoding="iso-8859-1"?>
<!-- Generator: Adobe Illustrator 16.0.0, SVG Export Plug-In . SVG Version: 6.00 Build 0)  -->
<!DOCTYPE svg PUBLIC "-//W3C//DTD SVG 1.1//EN" "http://www.w3.org/Graphics/SVG/1.1/DTD/svg11.dtd">
<svg version="1.1" id="Capa_1" xmlns="http://www.w3.org/2000/svg" xmlns:xlink="http://www.w3.org/1999/xlink" x="0px" y="0px"
	 width="97.75px" height="97.75px" viewBox="0 0 97.75 97.75" style="enable-background:new 0 0 97.75 97.75;" xml:space="preserve"
	>
<g>
	<g>
		<path d="M48.875,62.576c7.566,0,13.7-6.135,13.7-13.701c0-7.566-6.134-13.701-13.7-13.701c-7.566,0-13.702,6.135-13.702,13.701
			C35.173,56.441,41.309,62.576,48.875,62.576z M48.875,42.71c3.404,0,6.165,2.76,6.165,6.165s-2.761,6.166-6.165,6.166
			c-3.404,0-6.165-2.76-6.165-6.166S45.471,42.71,48.875,42.71z"/>
		<path d="M48.875,71.784c12.652,0,22.909-10.257,22.909-22.909c0-12.652-10.257-22.908-22.909-22.908
			c-12.652,0-22.909,10.256-22.909,22.908C25.966,61.527,36.223,71.784,48.875,71.784z M30.553,48.875
			c0-2.475,0.484-4.875,1.439-7.13c0.922-2.181,2.243-4.141,3.928-5.825c1.684-1.684,3.644-3.006,5.824-3.929
			c2.256-0.954,4.655-1.438,7.131-1.438c2.477,0,4.875,0.484,7.131,1.438c2.182,0.923,4.141,2.245,5.824,3.929
			c1.686,1.684,3.006,3.644,3.928,5.825c0.955,2.255,1.438,4.655,1.438,7.13c0,2.477-0.482,4.875-1.438,7.13
			c-0.922,2.181-2.242,4.142-3.928,5.825c-1.684,1.684-3.645,3.006-5.824,3.929c-2.256,0.954-4.654,1.438-7.131,1.438
			c-2.476,0-4.875-0.484-7.131-1.438c-2.181-0.923-4.141-2.245-5.824-3.929c-1.685-1.684-3.006-3.645-3.928-5.825
			C31.037,53.75,30.553,51.352,30.553,48.875z"/>
		<circle cx="69.506" cy="28.165" r="2.303"/>
		<path d="M48.875,0C21.883,0,0,21.882,0,48.875S21.883,97.75,48.875,97.75S97.75,75.868,97.75,48.875S75.867,0,48.875,0z
			 M79.375,79.374h-61V18.376h61V79.374z"/>
	</g>
</g>
<g>
</g>
<g>
</g>
<g>
</g>
<g>
</g>
<g>
</g>
<g>
</g>
<g>
</g>
<g>
</g>
<g>
</g>
<g>
</g>
<g>
</g>
<g>
</g>
<g>
</g>
<g>
</g>
<g>
</g>
</svg>
