<?xml version="1.0" encoding="iso-8859-1"?>
<!-- Generator: Adobe Illustrator 16.0.0, SVG Export Plug-In . SVG Version: 6.00 Build 0)  -->
<!DOCTYPE svg PUBLIC "-//W3C//DTD SVG 1.1//EN" "http://www.w3.org/Graphics/SVG/1.1/DTD/svg11.dtd">
<svg version="1.1" id="Capa_1" xmlns="http://www.w3.org/2000/svg" xmlns:xlink="http://www.w3.org/1999/xlink" x="0px" y="0px"
	 width="97.75px" height="97.75px" viewBox="0 0 97.75 97.75" style="enable-background:new 0 0 97.75 97.75;" xml:space="preserve"
	>
<g>
	<g>
		<path d="M28.114,50.697h0.044c0.145,0,0.282,0.001,0.418,0.001c0.244,0,0.565-0.003,0.887-0.017
			c0.081-0.004,0.201-0.188,0.213-0.298c0.103-1.002,0.194-1.989,0.279-2.946l0.068-0.736l-2.315,3.993
			C27.846,50.695,27.98,50.695,28.114,50.697z"/>
		<path d="M83.607,46.433c-0.455-0.138-1.178-0.188-1.48-0.203l-1.493,4.295l-0.327,0.957c0.09,0.004,0.172,0.006,0.254,0.006
			c1.229,0,2.246-0.396,2.949-1.146c0.608-0.648,0.975-1.564,1.034-2.583C84.587,47.055,84.104,46.585,83.607,46.433z"/>
		<path d="M48.875,0C21.883,0,0,21.882,0,48.875S21.883,97.75,48.875,97.75S97.75,75.868,97.75,48.875S75.867,0,48.875,0z
			 M18.316,50.531c-0.532,1.549-1.08,3.15-1.611,4.729l-0.166,0.406l-4.893,0.003l3.123-9.135l-5.341,0.007L9.157,46.1l-1.183-1.755
			l0.478-0.704l1.033-1.602h0.104c2.854-0.006,6.122-0.008,9.993-0.008l7.231,0.001l-1.192,1.962l-1.532,2.547l-4.393-0.006
			l-0.141,0.36c-0.406,1.198-0.818,2.405-1.23,3.61L18.316,50.531z M34.452,55.661h-5.206l0.113-1.658l-3.881,0.005l-0.624,1.678
			l-3.793-0.011c-0.344,0.005-0.703,0.011-1.055,0.011h-0.049c-0.065,0-0.132-0.002-0.205-0.006l-0.323-0.019l3.468-5.476
			l5.155-8.165h0.013l6.388,0.008L34.452,55.661L34.452,55.661z M47.51,52.595c-1.852,1.914-3.896,3.011-6.242,3.354
			c-0.194,0.029-0.684,0.095-1.302,0.095c-0.508,0-0.986-0.044-1.426-0.13l-0.01-0.003c-0.302-0.078-0.611-0.158-0.905-0.263
			c-1.902-0.672-3.08-2.483-2.926-4.512c0.328-4.343,3.844-8.297,8.181-9.198c0.749-0.156,1.421-0.231,2.06-0.231
			c0.959,0,1.823,0.171,2.638,0.523c1.224,0.528,2.162,1.684,2.395,2.945l0.028,0.163l-4.816,1.616l-0.082-0.114
			c-0.872-1.209-1.987-1.361-3.223-0.438c-1.203,0.898-1.879,2.201-2.003,3.869c-0.069,0.92,0.473,1.526,1.444,1.619
			c0.1,0.01,0.197,0.015,0.292,0.015c0.868,0,1.58-0.394,1.955-1.075h-2.057l1.097-3.226h7.535l-0.067,0.243
			C49.521,49.85,48.706,51.359,47.51,52.595z M56.277,55.948c-0.189,0.028-0.68,0.095-1.297,0.095c-0.51,0-0.989-0.044-1.426-0.13
			l-0.012-0.003c-0.302-0.078-0.611-0.158-0.906-0.262c-1.902-0.672-3.076-2.484-2.926-4.513c0.328-4.343,3.846-8.297,8.182-9.198
			c0.746-0.156,1.422-0.231,2.061-0.231c0.959,0,1.82,0.171,2.637,0.523c1.227,0.528,2.165,1.684,2.395,2.945l0.029,0.163
			l-4.814,1.617l-0.083-0.114c-0.873-1.209-1.986-1.361-3.222-0.438c-1.205,0.898-1.881,2.201-2.004,3.869
			c-0.068,0.92,0.471,1.526,1.443,1.619c0.1,0.01,0.198,0.015,0.294,0.015c0.865,0,1.578-0.394,1.952-1.075h-2.059l1.1-3.226h7.533
			l-0.065,0.243c-0.555,2.002-1.37,3.512-2.563,4.748C60.67,54.508,58.627,55.605,56.277,55.948z M73.332,55.678
			c-1.837,0.008-3.791,0.008-5.462,0.008h-2.677l-0.082,0.004l-0.16-0.146c-0.506-0.477-1.029-0.969-1.534-1.467l-0.083-0.083
			l0.036-0.112c0.011-0.033,0.026-0.072,0.034-0.101c0.013-0.03,0.021-0.054,0.029-0.074c0.61-1.79,1.223-3.579,1.836-5.368
			l0.097-0.281l2.069-6.038l10.609-0.002l-1.26,3.742l-5.814,0.006l-0.426,1.238h4.891l-1.213,3.528h-4.916l-0.453,1.443h5.903
			l-0.265,0.776l-1.024,2.924L73.332,55.678z M81.477,55.458c-1.345,0.158-2.668,0.188-4.066,0.226
			c-0.348,0.008-0.698,0.017-1.053,0.026h-0.014c-0.689,0.021-1.396,0.042-2.113,0.073l-0.279,0.012l0.6-1.76
			c0.407-1.197,0.797-2.337,1.186-3.479c0.272-0.799,0.549-1.599,0.824-2.396c0.401-1.174,0.82-2.427,1.226-3.639
			c0.241-0.723,0.479-1.444,0.717-2.149l0.121-0.371l6.162-0.021c1.271,0.048,2.176,0.343,2.94,0.817
			c1.623,1.002,2.348,2.838,1.939,4.91C88.884,51.673,85.361,55.004,81.477,55.458z"/>
	</g>
</g>
<g>
</g>
<g>
</g>
<g>
</g>
<g>
</g>
<g>
</g>
<g>
</g>
<g>
</g>
<g>
</g>
<g>
</g>
<g>
</g>
<g>
</g>
<g>
</g>
<g>
</g>
<g>
</g>
<g>
</g>
</svg>
