<?xml version="1.0" encoding="iso-8859-1"?>
<!-- Generator: Adobe Illustrator 16.0.0, SVG Export Plug-In . SVG Version: 6.00 Build 0)  -->
<!DOCTYPE svg PUBLIC "-//W3C//DTD SVG 1.1//EN" "http://www.w3.org/Graphics/SVG/1.1/DTD/svg11.dtd">
<svg version="1.1" id="Capa_1" xmlns="http://www.w3.org/2000/svg" xmlns:xlink="http://www.w3.org/1999/xlink" x="0px" y="0px"
	 width="97.75px" height="97.75px" viewBox="0 0 97.75 97.75" style="enable-background:new 0 0 97.75 97.75;" xml:space="preserve"
	>
<g>
	<g>
		<path d="M47.188,33.071l-2.132-0.652c-0.995,1.122-2.442,1.832-4.06,1.832c-1.236,0-2.373-0.418-3.286-1.114l-12.077,5.791
			c-0.023,0.221-0.055,0.439-0.099,0.654l11.431,13.527c-1.02-1.92-1.61-4.098-1.61-6.418
			C35.355,39.757,40.512,34.019,47.188,33.071z"/>
		<path d="M49.131,38.141c-4.716,0-8.552,3.835-8.552,8.55c0,1.915,0.641,3.678,1.706,5.104c0.524-0.074,1.057-0.126,1.603-0.126
			c3.049,0,5.811,1.209,7.85,3.165c3.443-1.105,5.943-4.336,5.943-8.143C57.682,41.977,53.846,38.141,49.131,38.141z"/>
		<path d="M68.423,43.681c-3.231,0-5.853-2.62-5.853-5.852c0-0.019,0.002-0.037,0.002-0.057l-4.23-1.293
			c2.795,2.522,4.562,6.16,4.562,10.211c0,4.896-2.572,9.199-6.434,11.642l15.555-4.37c0.189-1.247,0.709-2.385,1.467-3.325
			l-4.297-7.014C68.941,43.658,68.686,43.681,68.423,43.681z"/>
		<path d="M48.875,0C21.882,0,0,21.882,0,48.875S21.882,97.75,48.875,97.75S97.75,75.868,97.75,48.875S75.868,0,48.875,0z
			 M78.932,62.02c-2.496,0-4.681-1.311-5.918-3.277l-17.925,6.011c-0.838,5.44-5.524,9.611-11.201,9.611
			c-6.268,0-11.348-5.08-11.348-11.349c0-1.472,0.283-2.877,0.795-4.166L21.921,44.353c-0.951,0.491-2.027,0.774-3.172,0.774
			c-3.824,0-6.924-3.101-6.924-6.925c0-3.825,3.1-6.925,6.924-6.925c2.708,0,5.046,1.557,6.184,3.822l10.734-5.246
			c-0.065-0.335-0.102-0.68-0.102-1.035c0-3,2.432-5.432,5.432-5.432s5.432,2.432,5.432,5.432c0,0.286-0.027,0.565-0.07,0.839
			l17.366,4.694c1.065-1.438,2.771-2.374,4.698-2.374c3.231,0,5.853,2.62,5.853,5.852c0,1.617-0.656,3.082-1.717,4.141l3.975,6.487
			c0.748-0.273,1.555-0.426,2.398-0.426c3.862,0,6.993,3.131,6.993,6.994C85.925,58.891,82.794,62.02,78.932,62.02z"/>
	</g>
</g>
<g>
</g>
<g>
</g>
<g>
</g>
<g>
</g>
<g>
</g>
<g>
</g>
<g>
</g>
<g>
</g>
<g>
</g>
<g>
</g>
<g>
</g>
<g>
</g>
<g>
</g>
<g>
</g>
<g>
</g>
</svg>
