<?xml version="1.0" encoding="iso-8859-1"?>
<!-- Generator: Adobe Illustrator 16.0.0, SVG Export Plug-In . SVG Version: 6.00 Build 0)  -->
<!DOCTYPE svg PUBLIC "-//W3C//DTD SVG 1.1//EN" "http://www.w3.org/Graphics/SVG/1.1/DTD/svg11.dtd">
<svg version="1.1" id="Capa_1" xmlns="http://www.w3.org/2000/svg" xmlns:xlink="http://www.w3.org/1999/xlink" x="0px" y="0px"
	 width="97.75px" height="97.75px" viewBox="0 0 97.75 97.75" style="enable-background:new 0 0 97.75 97.75;" xml:space="preserve"
	>
<g>
	<path d="M48.875,0C21.882,0,0,21.883,0,48.875S21.882,97.75,48.875,97.75S97.75,75.867,97.75,48.875S75.868,0,48.875,0z
		 M74.917,13.223c5.187,0,9.392,4.204,9.392,9.39c0,5.187-4.205,9.39-9.392,9.39s-9.392-4.203-9.392-9.39
		C65.525,17.427,69.73,13.223,74.917,13.223z M22.833,32.002c-5.186,0-9.391-4.203-9.391-9.39c0-5.186,4.205-9.39,9.391-9.39
		s9.39,4.204,9.39,9.39C32.223,27.799,28.019,32.002,22.833,32.002z M49.096,58.266c-5.186,0-9.391-4.205-9.391-9.391
		c0-5.187,4.205-9.39,9.391-9.39s9.391,4.203,9.391,9.39C58.484,54.061,54.279,58.266,49.096,58.266z M49.096,32.002
		c-5.186,0-9.391-4.203-9.391-9.39c0-5.186,4.205-9.39,9.391-9.39s9.391,4.204,9.391,9.39
		C58.484,27.799,54.279,32.002,49.096,32.002z M74.917,84.527c-5.187,0-9.392-4.205-9.392-9.392c0-5.186,4.205-9.39,9.392-9.39
		s9.392,4.204,9.392,9.39C84.309,80.322,80.104,84.527,74.917,84.527z M74.917,58.266c-5.187,0-9.392-4.205-9.392-9.391
		c0-5.187,4.205-9.39,9.392-9.39s9.392,4.203,9.392,9.39C84.309,54.061,80.104,58.266,74.917,58.266z"/>
</g>
<g>
</g>
<g>
</g>
<g>
</g>
<g>
</g>
<g>
</g>
<g>
</g>
<g>
</g>
<g>
</g>
<g>
</g>
<g>
</g>
<g>
</g>
<g>
</g>
<g>
</g>
<g>
</g>
<g>
</g>
</svg>
