<?xml version="1.0" encoding="iso-8859-1"?>
<!-- Generator: Adobe Illustrator 16.0.0, SVG Export Plug-In . SVG Version: 6.00 Build 0)  -->
<!DOCTYPE svg PUBLIC "-//W3C//DTD SVG 1.1//EN" "http://www.w3.org/Graphics/SVG/1.1/DTD/svg11.dtd">
<svg version="1.1" id="Capa_1" xmlns="http://www.w3.org/2000/svg" xmlns:xlink="http://www.w3.org/1999/xlink" x="0px" y="0px"
	 width="97.75px" height="97.75px" viewBox="0 0 97.75 97.75" style="enable-background:new 0 0 97.75 97.75;" xml:space="preserve"
	>
<g>
	<path d="M48.875,0C21.883,0,0,21.882,0,48.875S21.883,97.75,48.875,97.75S97.75,75.868,97.75,48.875S75.867,0,48.875,0z
		 M27.553,65.184V20.574c0-1.717,0-1.717,1.736-1.717h10.008c1.736,0,1.736,0,1.736,1.717v13.729c0,1.72,0.438,1.72,2.176,1.72
		c1.736,0,2.174,0,2.174-1.72V20.573c0-1.717,0-1.717,1.738-1.717h10c1.742,0,1.742,0,1.742,1.717v44.61
		c0,1.719,0,1.719-1.742,1.719h-10c-1.738,0-1.738,0-1.738-1.719V51.46c0-1.716-0.438-1.716-2.174-1.716
		c-1.737,0-2.176,0-2.176,1.716v13.724c0,1.719,0,1.719-1.736,1.719H29.289C27.553,66.902,27.553,66.902,27.553,65.184z
		 M49.292,78.912h-10.43c-0.874,0-0.874,0-1.743-0.855l-6.961-6.865c-0.869-0.857-0.869-0.857,0-0.857h10.441
		c0.872,0,0.872,0,1.742,0.857l6.95,6.865C50.164,78.912,50.164,78.912,49.292,78.912z M66.691,78.912H56.252
		c-0.867,0-0.867,0-1.743-0.855l-6.954-6.865c-0.865-0.857-0.865-0.857,0-0.857h10.436c0.874,0,0.874,0,1.739,0.857l3.633,3.584
		l3.929,4.061C67.234,78.898,67.057,78.912,66.691,78.912z M70.061,75.502l-7.719-7.768l0.018-44.819l7.718,7.285L70.061,75.502z"/>
</g>
<g>
</g>
<g>
</g>
<g>
</g>
<g>
</g>
<g>
</g>
<g>
</g>
<g>
</g>
<g>
</g>
<g>
</g>
<g>
</g>
<g>
</g>
<g>
</g>
<g>
</g>
<g>
</g>
<g>
</g>
</svg>
