<?xml version="1.0" encoding="iso-8859-1"?>
<!-- Generator: Adobe Illustrator 16.0.0, SVG Export Plug-In . SVG Version: 6.00 Build 0)  -->
<!DOCTYPE svg PUBLIC "-//W3C//DTD SVG 1.1//EN" "http://www.w3.org/Graphics/SVG/1.1/DTD/svg11.dtd">
<svg version="1.1" id="Capa_1" xmlns="http://www.w3.org/2000/svg" xmlns:xlink="http://www.w3.org/1999/xlink" x="0px" y="0px"
	 width="97.75px" height="97.75px" viewBox="0 0 97.75 97.75" style="enable-background:new 0 0 97.75 97.75;" xml:space="preserve"
	>
<g>
	<path d="M48.875,0C21.883,0,0,21.883,0,48.875S21.883,97.75,48.875,97.75S97.75,75.867,97.75,48.875S75.867,0,48.875,0z
		 M21.722,78.141h-4.178V65.346c0.008-0.568,0.788-12.139,11.672-21.548c-0.452-0.402-0.539-0.861-0.539-0.861
		c-0.325-0.734-0.514-1.54-0.514-2.396c0-3.268,2.65-5.918,5.918-5.918c3.27,0,5.919,2.65,5.919,5.918
		c0,3.27-2.649,5.919-5.919,5.919c-0.875,0-1.699-0.201-2.447-0.543l-0.461,0.377c-9.202,7.603-9.449,18.964-9.451,19.079V78.141z
		 M33.803,58.923c-1.847,0-3.669-0.272-5.419-0.812l1.226-3.992c1.353,0.414,2.763,0.625,4.193,0.625
		c7.87,0,14.274-6.403,14.274-14.271c0-7.872-6.404-14.273-14.274-14.273c-7.87,0-14.273,6.401-14.273,14.273
		c0,2.523,0.651,4.962,1.898,7.119l0.513,1.002l-3.291,2.428l-0.617-0.963c-1.758-2.886-2.681-6.175-2.682-9.585
		c0-10.175,8.277-18.452,18.452-18.452c10.175,0,18.452,8.277,18.452,18.452C52.255,50.645,43.978,58.923,33.803,58.923z
		 M67.645,39.966c-1.861,0.143-3.713-0.223-5.395-1.073c-5.014-2.545-7.021-8.69-4.479-13.702c2.541-5.012,8.688-7.021,13.699-4.48
		c5.012,2.543,7.021,8.688,4.479,13.7c-0.463,0.911-1.051,1.74-1.754,2.469l-1.659-1.602c0.541-0.563,0.998-1.206,1.354-1.91
		c1.967-3.878,0.412-8.632-3.465-10.599c-3.878-1.967-8.631-0.41-10.598,3.465c-1.967,3.88-0.412,8.633,3.465,10.6
		c1.243,0.632,2.607,0.916,3.982,0.843l0.621-0.002l0.373,2.228L67.645,39.966z M81.354,47.222l-6.303-3.197
		c-0.279-0.146-5.783-3.42-7.699-11.132c-0.311,0.122-0.558,0.05-0.558,0.05c-0.442-0.022-0.89-0.132-1.31-0.347
		c-1.61-0.815-2.254-2.782-1.438-4.395c0.814-1.61,2.784-2.253,4.395-1.436c1.609,0.817,2.254,2.784,1.438,4.395
		c-0.221,0.433-0.525,0.785-0.88,1.068l0.071,0.323c1.443,6.433,6.98,9.393,7.037,9.422l6.291,3.189L81.354,47.222z"/>
</g>
<g>
</g>
<g>
</g>
<g>
</g>
<g>
</g>
<g>
</g>
<g>
</g>
<g>
</g>
<g>
</g>
<g>
</g>
<g>
</g>
<g>
</g>
<g>
</g>
<g>
</g>
<g>
</g>
<g>
</g>
</svg>
