<?xml version="1.0" encoding="iso-8859-1"?>
<!-- Generator: Adobe Illustrator 16.0.0, SVG Export Plug-In . SVG Version: 6.00 Build 0)  -->
<!DOCTYPE svg PUBLIC "-//W3C//DTD SVG 1.1//EN" "http://www.w3.org/Graphics/SVG/1.1/DTD/svg11.dtd">
<svg version="1.1" id="Capa_1" xmlns="http://www.w3.org/2000/svg" xmlns:xlink="http://www.w3.org/1999/xlink" x="0px" y="0px"
	 width="97.75px" height="97.75px" viewBox="0 0 97.75 97.75" style="enable-background:new 0 0 97.75 97.75;" xml:space="preserve"
	>
<g>
	<g>
		<path d="M75.951,39.258c-1.786-5.089-4.751-9.362-8.946-12.752c-5.284-4.27-11.347-6.415-18.139-6.469
			c-0.377,0-0.755-0.011-1.131,0.002c-2.13,0.069-4.222,0.39-6.277,0.943c-4.928,1.327-9.188,3.815-12.794,7.418
			s-6.095,7.864-7.459,12.776c-0.765,2.754-1.067,5.567-0.984,8.424c0.023,0.801,0.085,1.598,0.28,2.377
			c0.434,1.721,1.486,2.775,3.273,3.035c1.186,0.172,2.313-0.066,3.398-0.535c1.661-0.717,3.063-1.804,4.316-3.092
			c1.602-1.648,2.79-3.558,3.564-5.721c1-2.797,1.369-5.703,1.382-8.654c0.006-1.492-0.071-2.989-0.181-4.478
			c-0.104-1.399-0.285-2.793-0.456-4.186c-0.074-0.612,0.083-0.777,0.679-0.605c0.471,0.136,0.939,0.279,1.408,0.424
			c3.047,0.935,5.938,2.2,8.563,4.033c3.573,2.496,6.718,5.466,9.631,8.693c2.67,2.959,5.062,6.136,7.382,9.375
			c1.104,1.541,2.347,2.957,3.838,4.139c1.438,1.139,3.007,2.014,4.841,2.338c1.69,0.299,3.146-0.34,4.057-1.794
			c0.559-0.89,0.861-1.874,1.057-2.896c0.385-2.014,0.35-4.042,0.166-6.07C77.212,43.682,76.718,41.439,75.951,39.258z"/>
		<path d="M48.875,0C21.882,0,0,21.882,0,48.875S21.882,97.75,48.875,97.75S97.75,75.868,97.75,48.875S75.868,0,48.875,0z
			 M85.104,50.583c-0.061,1.442-0.219,2.874-0.455,4.297c-0.619,3.75-1.803,7.315-3.562,10.683
			c-2.927,5.604-7.024,10.162-12.308,13.633c-5.502,3.617-11.553,5.57-18.129,5.906c-0.063,0.004-0.127,0.025-0.189,0.039
			c-1.059,0-2.115,0-3.174,0c-0.047-0.014-0.096-0.035-0.144-0.037c-1.435-0.062-2.858-0.219-4.275-0.453
			c-3.75-0.623-7.315-1.805-10.683-3.563c-5.603-2.926-10.16-7.022-13.633-12.305c-3.615-5.502-5.57-11.556-5.906-18.13
			c-0.003-0.063-0.023-0.127-0.037-0.19c0-1.057,0-2.116,0-3.173c0.012-0.033,0.034-0.065,0.035-0.099
			c0.049-0.64,0.08-1.28,0.142-1.919c0.259-2.745,0.831-5.425,1.728-8.033c2.431-7.076,6.628-12.885,12.605-17.378
			c5.918-4.448,12.604-6.831,20-7.213c0.057-0.003,0.111-0.024,0.168-0.037c1.059,0,2.115,0,3.174,0
			c0.049,0.013,0.098,0.034,0.146,0.037c1.435,0.063,2.857,0.219,4.274,0.454c3.757,0.624,7.328,1.809,10.702,3.574
			c5.637,2.947,10.212,7.081,13.688,12.408c3.568,5.474,5.498,11.489,5.83,18.017c0.004,0.063,0.023,0.126,0.037,0.19
			c0,1.058,0,2.116,0,3.173C85.128,50.502,85.105,50.542,85.104,50.583z"/>
	</g>
</g>
<g>
</g>
<g>
</g>
<g>
</g>
<g>
</g>
<g>
</g>
<g>
</g>
<g>
</g>
<g>
</g>
<g>
</g>
<g>
</g>
<g>
</g>
<g>
</g>
<g>
</g>
<g>
</g>
<g>
</g>
</svg>
