<?xml version="1.0" encoding="iso-8859-1"?>
<!-- Generator: Adobe Illustrator 16.0.0, SVG Export Plug-In . SVG Version: 6.00 Build 0)  -->
<!DOCTYPE svg PUBLIC "-//W3C//DTD SVG 1.1//EN" "http://www.w3.org/Graphics/SVG/1.1/DTD/svg11.dtd">
<svg version="1.1" id="Capa_1" xmlns="http://www.w3.org/2000/svg" xmlns:xlink="http://www.w3.org/1999/xlink" x="0px" y="0px"
	 width="97.75px" height="97.75px" viewBox="0 0 97.75 97.75" style="enable-background:new 0 0 97.75 97.75;" xml:space="preserve"
	>
<g>
	<g>
		<path d="M22.242,21.761c0.259,0.872,0.508,1.746,0.771,2.617c0.228,0.75,0.473,1.496,0.7,2.247
			c0.424,1.389,0.844,2.777,1.258,4.168c0.307,1.031,0.598,2.065,0.906,3.097c0.259,0.864,0.539,1.723,0.801,2.587
			c0.275,0.897,0.541,1.799,0.809,2.699c0.176,0.593,0.726,2.355,0.726,2.355l18.174,10.254c0,0-0.652-0.877-0.844-1.128
			L22.08,20.409c-0.042-0.054-0.368-0.411-0.368-0.411s0.134,0.473,0.154,0.541C21.987,20.948,22.121,21.354,22.242,21.761z"/>
		<path d="M41.996,59.357c-1.163-0.295-2.288-0.711-3.375-1.215c-1.432-0.664-2.865-1.326-4.278-2.026
			c-1.469-0.728-2.921-1.497-4.197-2.546c-0.511-0.422-0.997-0.872-1.491-1.313c-0.187-0.168-0.386-0.348-0.614-0.563
			c0.024,0.218,0.045,0.384,0.059,0.55c0.036,0.422,0.072,0.847,0.129,1.265c0.105,0.751,0.232,1.501,0.357,2.249
			c0.212,1.263,0.501,2.509,0.92,3.716c0.426,1.226,0.888,2.439,1.389,3.637c0.861,2.055,1.835,4.055,2.976,5.972
			c0.732,1.229,1.532,2.401,2.481,3.476c0.926,1.047,1.925,2.021,3.069,2.829c0.751,0.532,1.528,1.034,2.326,1.495
			c0.828,0.479,1.733,0.785,2.664,1.005c3.461,0.839,5.762,0.435,5.918,0.412c0.646-0.092,1.295-0.177,1.935-0.312
			c1.448-0.305,2.819-0.827,4.047-1.666c0.807-0.553,1.594-1.137,2.355-1.75c1.285-1.035,2.368-2.271,3.335-3.604
			c0.865-1.19,1.575-2.478,2.252-3.784c0.908-1.75,1.751-3.529,2.454-5.373c0.417-1.098,0.818-2.205,1.16-3.328
			c0.262-0.867,0.445-1.764,0.615-2.654c0.149-0.791,0.234-1.596,0.346-2.396c0.044-0.324,0.093-0.652,0.121-0.979
			c0.019-0.229,0.078-0.508,0.078-0.78c-0.773,0.822-1.631,1.61-2.523,2.226c-0.602,0.414-1.205,0.83-1.837,1.199
			c-0.696,0.404-1.423,0.762-2.146,1.123c-0.969,0.487-1.939,0.975-2.926,1.43c-0.83,0.384-1.673,0.746-2.527,1.068
			c-0.688,0.26-1.402,0.455-2.111,0.662c-4.364,0.969-8.373,0.896-11.11,0.352C43.229,59.605,42.605,59.514,41.996,59.357z"/>
		<path d="M70.771,37.563c0.455-1.514,0.898-3.032,1.354-4.546c0.292-0.979,0.589-1.955,0.887-2.933
			c0.243-0.798,0.489-1.594,0.732-2.392c0.244-0.811,0.484-1.623,0.73-2.434c0.166-0.54,0.344-1.077,0.508-1.618
			c0.287-0.949,0.567-1.898,0.848-2.851c0.016-0.058,0.163-0.602,0.163-0.602s-0.329,0.433-0.368,0.479l-24.45,31.438l18.312-10.326
			L70.771,37.563z"/>
		<path d="M48.875,0C21.882,0,0,21.883,0,48.875S21.882,97.75,48.875,97.75S97.75,75.867,97.75,48.875S75.868,0,48.875,0z
			 M79.393,80.436c-20.343,0-40.688,0-61.034,0c0-21.037,0-42.079,0-63.121c20.341,0,40.685,0,61.034,0
			C79.393,38.353,79.393,59.395,79.393,80.436z"/>
	</g>
</g>
<g>
</g>
<g>
</g>
<g>
</g>
<g>
</g>
<g>
</g>
<g>
</g>
<g>
</g>
<g>
</g>
<g>
</g>
<g>
</g>
<g>
</g>
<g>
</g>
<g>
</g>
<g>
</g>
<g>
</g>
</svg>
