<?xml version="1.0" encoding="iso-8859-1"?>
<!-- Generator: Adobe Illustrator 16.0.0, SVG Export Plug-In . SVG Version: 6.00 Build 0)  -->
<!DOCTYPE svg PUBLIC "-//W3C//DTD SVG 1.1//EN" "http://www.w3.org/Graphics/SVG/1.1/DTD/svg11.dtd">
<svg version="1.1" id="Capa_1" xmlns="http://www.w3.org/2000/svg" xmlns:xlink="http://www.w3.org/1999/xlink" x="0px" y="0px"
	 width="97.75px" height="97.75px" viewBox="0 0 97.75 97.75" style="enable-background:new 0 0 97.75 97.75;" xml:space="preserve"
	>
<g>
	<g>
		<path d="M65.021,48.029c-1.276,0-1.943,1.044-1.943,2.117c0,1.088,0.65,2.103,1.943,2.103c1.291,0,1.942-1.015,1.942-2.103
			C66.964,49.073,66.209,48.029,65.021,48.029z"/>
		<path d="M78.971,47.662c-0.964,0-1.754,0.572-1.886,1.66h3.813C80.843,48.289,79.98,47.662,78.971,47.662z"/>
		<path d="M35.368,45.715c-0.865,0-1.571,0.275-2.098,0.816c-0.581,0.595-0.9,1.484-0.877,2.438
			c0.039,1.489,0.842,3.082,2.975,3.082c2.143,0,2.935-1.599,2.96-3.097c0.018-0.963-0.305-1.852-0.882-2.438
			C36.925,45.984,36.225,45.715,35.368,45.715z"/>
		<path d="M54.479,45.942h-2.586v2.787h2.586c1.106,0,1.502-0.75,1.502-1.394C55.979,46.693,55.585,45.942,54.479,45.942z"/>
		<path d="M17.998,45.715c-0.864,0-1.57,0.275-2.098,0.816c-0.58,0.595-0.899,1.484-0.876,2.438c0.04,1.489,0.841,3.082,2.974,3.082
			c2.144,0,2.936-1.599,2.961-3.097c0.017-0.963-0.306-1.852-0.883-2.438C19.555,45.984,18.856,45.715,17.998,45.715z"/>
		<path d="M48.875,0C21.883,0,0,21.883,0,48.875S21.883,97.75,48.875,97.75S97.75,75.867,97.75,48.875S75.867,0,48.875,0z
			 M13.166,52.461c-0.943,0.932-2.202,1.423-3.636,1.423c-3.727,0-5.063-2.661-5.077-4.938c-0.008-1.408,0.509-2.743,1.418-3.656
			c0.908-0.91,2.172-1.395,3.659-1.395c1.329,0,2.545,0.508,3.517,1.465l0.077,0.077l-1.332,1.285l-0.074-0.073
			c-0.563-0.548-1.341-0.851-2.188-0.851c-0.92,0-1.695,0.292-2.247,0.848C6.72,47.213,6.4,48.051,6.409,48.941
			c0.012,1.485,0.838,3.068,3.121,3.068c0.839,0,1.714-0.351,2.281-0.917l0.075-0.077l1.356,1.37L13.166,52.461z M17.998,53.884
			c-3.404,0-4.928-2.479-4.928-4.938c0-2.435,1.543-5.051,4.928-5.051c1.408,0,2.621,0.472,3.503,1.365
			c0.913,0.922,1.428,2.262,1.412,3.671C22.886,51.396,21.356,53.884,17.998,53.884z M30.537,53.67h-6.803v-9.588h1.982v7.741h4.82
			L30.537,53.67L30.537,53.67z M35.368,53.884c-3.404,0-4.928-2.479-4.928-4.938c0-2.435,1.542-5.051,4.928-5.051
			c1.409,0,2.621,0.472,3.503,1.365c0.914,0.922,1.428,2.262,1.413,3.671C40.257,51.396,38.726,53.884,35.368,53.884z
			 M49.247,49.572c0,2.652-1.598,4.3-4.169,4.3c-2.595,0-4.271-1.688-4.271-4.3v-5.478h1.967v5.478c0,1.574,0.846,2.479,2.317,2.479
			c1.389,0,2.183-0.902,2.183-2.479v-5.478h1.974L49.247,49.572L49.247,49.572z M58.132,53.67h-2.263l-2.434-3.135h-1.543v3.135
			h-1.98v-9.602h0.105c0.744,0,1.487,0,2.23,0.002c0.743,0.002,1.486,0.004,2.229,0.004c2.393,0.014,3.482,1.68,3.482,3.223
			c0,1.148-0.572,2.604-2.166,3.014l2.337,3.099v0.261H58.132z M60.611,53.566h-1.648v-9.7h1.648V53.566z M65.021,53.873
			c-2.321,0-3.713-1.667-3.713-3.727c0-2.045,1.422-3.728,3.697-3.728c2.277,0,3.742,1.683,3.742,3.728
			C68.748,52.206,67.342,53.873,65.021,53.873z M71.284,53.718L68.5,46.446h1.755l1.899,5.621l1.889-5.621h1.755l-2.772,7.272
			H71.284z M79.165,52.53c0.875,0,1.532-0.498,1.937-0.915l1.075,1.104c-0.745,0.774-1.966,1.147-3.04,1.147
			c-2.439,0-3.888-1.508-3.888-3.771c0-2.154,1.463-3.703,3.757-3.703c2.368,0,3.699,1.527,3.53,4.376h-5.649
			C77,51.645,77.796,52.53,79.165,52.53z M84.566,49.523v4.08h-1.651v-7.195h1.53l0.004,1.758c0.728-1.455,2.047-1.935,2.725-1.935
			v1.715C86,47.58,84.566,49.048,84.566,49.523z M90.348,53.715c-1.086,0-2.171-0.182-3.174-1.224l0.836-1.214
			c0.486,0.546,1.6,0.947,2.364,0.961c0.642,0.014,1.239-0.32,1.239-0.819c0-0.474-0.391-0.67-1.363-0.726
			c-1.295-0.098-2.84-0.568-2.84-2.129c0-1.585,1.642-2.144,2.896-2.144c1.069,0,1.877,0.209,2.672,0.905l-0.946,1.111
			c-0.486-0.458-1.044-0.612-1.698-0.612c-0.807,0-1.252,0.253-1.252,0.685c0,0.443,0.402,0.695,1.279,0.751
			c1.293,0.083,2.938,0.374,2.938,2.199C93.298,52.671,92.311,53.715,90.348,53.715z"/>
	</g>
</g>
<g>
</g>
<g>
</g>
<g>
</g>
<g>
</g>
<g>
</g>
<g>
</g>
<g>
</g>
<g>
</g>
<g>
</g>
<g>
</g>
<g>
</g>
<g>
</g>
<g>
</g>
<g>
</g>
<g>
</g>
</svg>
