<?xml version="1.0" encoding="iso-8859-1"?>
<!-- Generator: Adobe Illustrator 16.0.0, SVG Export Plug-In . SVG Version: 6.00 Build 0)  -->
<!DOCTYPE svg PUBLIC "-//W3C//DTD SVG 1.1//EN" "http://www.w3.org/Graphics/SVG/1.1/DTD/svg11.dtd">
<svg version="1.1" id="Capa_1" xmlns="http://www.w3.org/2000/svg" xmlns:xlink="http://www.w3.org/1999/xlink" x="0px" y="0px"
	 width="97.75px" height="97.75px" viewBox="0 0 97.75 97.75" style="enable-background:new 0 0 97.75 97.75;" xml:space="preserve"
	>
<g>
	<path d="M48.875,0C21.883,0,0,21.883,0,48.875S21.883,97.75,48.875,97.75S97.75,75.867,97.75,48.875S75.867,0,48.875,0z
		 M44.178,84.965c-21.426,0-24.805-15.141-24.805-17.168s1.217-8.785,8.787-8.785c7.568,0,8.65,6.488,8.65,7.84
		c0,1.353-0.947,3.244-0.947,3.244s2.568,2.434,8.652,2.434c6.083,0,10.678-2.975,10.678-7.435c0-4.462-5.137-6.624-16.896-12.165
		c-11.759-5.542-16.219-9.598-16.219-19.735c0-10.138,6.758-20.41,23.654-20.41c16.895,0,23.249,9.461,23.249,15.948
		c0,6.489-5.541,8.111-7.568,8.111c-2.029,0-9.463,0.675-9.463-10.544c0,0-1.352-1.486-7.164-1.486c-5.812,0-8.381,4.46-8.381,7.164
		c0,2.703,1.082,6.082,13.247,10.137c18.621,6.205,19.305,14.301,19.33,21.744C62.852,64.662,58.1,69.902,58.1,76.245
		c0,2.013,0.489,3.907,1.336,5.593C55.816,83.747,50.881,84.965,44.178,84.965z M69.656,83.883c-4.814,0-8.719-3.902-8.719-8.719
		c0-4.814,3.903-8.719,8.719-8.719c4.816,0,8.719,3.904,8.719,8.719S74.473,83.883,69.656,83.883z"/>
</g>
<g>
</g>
<g>
</g>
<g>
</g>
<g>
</g>
<g>
</g>
<g>
</g>
<g>
</g>
<g>
</g>
<g>
</g>
<g>
</g>
<g>
</g>
<g>
</g>
<g>
</g>
<g>
</g>
<g>
</g>
</svg>
