<?xml version="1.0" encoding="iso-8859-1"?>
<!-- Generator: Adobe Illustrator 16.0.0, SVG Export Plug-In . SVG Version: 6.00 Build 0)  -->
<!DOCTYPE svg PUBLIC "-//W3C//DTD SVG 1.1//EN" "http://www.w3.org/Graphics/SVG/1.1/DTD/svg11.dtd">
<svg version="1.1" id="Capa_1" xmlns="http://www.w3.org/2000/svg" xmlns:xlink="http://www.w3.org/1999/xlink" x="0px" y="0px"
	 width="97.75px" height="97.75px" viewBox="0 0 97.75 97.75" style="enable-background:new 0 0 97.75 97.75;" xml:space="preserve"
	>
<g>
	<g>
		<path d="M44.705,46.295c-0.599,0-1.089,0.252-1.47,0.754c-0.382,0.504-0.57,1.256-0.57,2.256c0,0.83,0.181,1.496,0.543,2
			c0.363,0.504,0.868,0.754,1.516,0.754c0.714,0,1.261-0.244,1.642-0.731c0.381-0.486,0.571-1.197,0.571-2.132
			c0-0.866-0.204-1.565-0.612-2.099C45.917,46.562,45.377,46.295,44.705,46.295z"/>
		<path d="M34.23,46.232c-0.732,0-1.307,0.25-1.725,0.75c-0.416,0.5-0.625,1.256-0.625,2.268c0,0.994,0.202,1.746,0.607,2.254
			c0.405,0.51,0.985,0.764,1.742,0.764c0.779,0,1.365-0.264,1.76-0.791c0.393-0.526,0.589-1.27,0.589-2.227
			c0-0.945-0.195-1.686-0.585-2.217C35.604,46.498,35.016,46.232,34.23,46.232z"/>
		<path d="M19.408,46.295c-0.749,0-1.309,0.273-1.678,0.818c-0.369,0.543-0.553,1.331-0.553,2.36c0,0.899,0.207,1.6,0.621,2.096
			s0.975,0.744,1.684,0.744c0.628,0,1.143-0.269,1.541-0.804c0.4-0.534,0.599-1.266,0.599-2.19c0-0.969-0.194-1.715-0.585-2.238
			S20.104,46.295,19.408,46.295z"/>
		<path d="M48.875,0C21.882,0,0,21.883,0,48.875S21.882,97.75,48.875,97.75S97.75,75.867,97.75,48.875S75.868,0,48.875,0z
			 M23.201,52.98c-0.732,0.981-1.754,1.475-3.066,1.475c-1.301,0-2.48-0.502-3.086-1.508h-0.035v1.244h-2.321V40.85h2.603v4.891
			h0.037c0.641-1.029,1.593-1.543,2.857-1.543c1.197,0,2.182,0.455,2.952,1.365c0.771,0.912,1.156,2.152,1.156,3.727
			C24.298,50.867,23.932,51.996,23.201,52.98z M28.161,54.191h-2.604V40.85h2.604V54.191z M37.863,53.062
			c-0.93,0.929-2.14,1.394-3.633,1.394c-1.47,0-2.675-0.461-3.615-1.386c-0.941-0.922-1.41-2.196-1.41-3.823
			c0-1.641,0.469-2.918,1.41-3.83c0.94-0.914,2.146-1.371,3.615-1.371c1.505,0,2.72,0.467,3.641,1.402
			c0.923,0.934,1.385,2.201,1.385,3.799C39.256,50.861,38.791,52.133,37.863,53.062z M49.677,53.795
			c0,1.932-0.969,4.426-4.998,4.426c-2.475,0.113-4.196-1.881-4.196-1.881l1.271-1.438c0.248,0.395,0.896,1.332,3.054,1.35
			c1.366,0,2.267-0.713,2.267-2.139V52.8c0,0-0.894,1.277-2.675,1.277c-1.289,0-2.476-0.433-3.249-1.322
			c-0.774-0.896-1.161-1.592-1.161-3.619c0-1.592,0.386-2.686,1.156-3.588c0.771-0.9,1.911-1.352,3.107-1.352
			c1.367,0,2.332,0.574,2.895,1.725l0.036-0.152v-1.471h2.494L49.677,53.795L49.677,53.795z M56.342,51.43
			c-0.4,0.523-0.916,0.785-1.547,0.785c-0.709,0-1.271-0.242-1.686-0.727c-0.416-0.486-0.623-1.17-0.623-2.051
			c0-1.006,0.184-1.775,0.555-2.308c0.368-0.533,0.932-0.799,1.682-0.799c0.697,0,1.241,0.256,1.633,0.768
			c0.392,0.512,0.586,1.24,0.586,2.188C56.941,50.191,56.742,50.906,56.342,51.43z M83.059,52.113c0,0.336-0.272,0.609-0.608,0.609
			h-3.279c0.238-0.412,0.362-0.875,0.362-1.441c0-0.439-0.098-0.838-0.291-1.195h0.001c-0.097-0.217-0.226-0.416-0.39-0.598
			c-0.27-0.295-0.637-0.564-1.393-0.812c-0.132-0.043-0.268-0.088-0.412-0.131l-0.01,0.004c-0.255-0.071-0.527-0.141-0.827-0.209
			c-1.435-0.321-2.196-0.506-2.411-0.643c-0.215-0.135-0.32-0.266-0.32-0.514c0-0.254,0.217-0.602,0.471-0.77
			c0.253-0.168,0.646-0.236,1.185-0.236c2.056,0,2.605,1.309,2.605,1.309l1.452-1.123C78.87,45.817,77.7,44.35,75.01,44.35
			c-1.367,0-2.4,0.297-3.1,0.893c-0.699,0.594-1.049,1.357-1.049,2.293c0,2.369,4.757,3.106,5.496,3.299
			c0.897,0.211,0.984,1.972-1.284,1.871c-2.118,0-3.062-1.676-3.062-1.676l-1.25,1.297c0.04,0.104,0.135,0.246,0.254,0.396h-1.104
			v-8.345h-2.609v5.588c0,0.705-0.188,1.25-0.563,1.632c-0.375,0.383-1.162,0.711-1.75,0.711c-0.545,0-0.965-0.146-1.254-0.433
			c-0.291-0.287-0.438-0.877-0.438-1.492v-6.006h-2.608v6.363c0,0.789,0.14,1.446,0.412,1.979h-2.475
			c0.663-0.943,0.999-2.145,0.999-3.613c0-1.539-0.386-2.675-1.159-3.565c-0.771-0.891-1.76-1.262-2.96-1.262
			c-1.269,0-2.222,0.504-2.864,1.51h-0.037v-4.785h-2.608v-0.873c0-0.336,0.272-0.607,0.608-0.607H82.45
			c0.336,0,0.608,0.271,0.608,0.607V52.113z"/>
	</g>
</g>
<g>
</g>
<g>
</g>
<g>
</g>
<g>
</g>
<g>
</g>
<g>
</g>
<g>
</g>
<g>
</g>
<g>
</g>
<g>
</g>
<g>
</g>
<g>
</g>
<g>
</g>
<g>
</g>
<g>
</g>
</svg>
