<?xml version="1.0" encoding="iso-8859-1"?>
<!-- Generator: Adobe Illustrator 16.0.0, SVG Export Plug-In . SVG Version: 6.00 Build 0)  -->
<!DOCTYPE svg PUBLIC "-//W3C//DTD SVG 1.1//EN" "http://www.w3.org/Graphics/SVG/1.1/DTD/svg11.dtd">
<svg version="1.1" id="Capa_1" xmlns="http://www.w3.org/2000/svg" xmlns:xlink="http://www.w3.org/1999/xlink" x="0px" y="0px"
	 width="97.698px" height="97.698px" viewBox="0 0 97.698 97.698" style="enable-background:new 0 0 97.698 97.698;"
	 xml:space="preserve">
<g>
	<g>
		<path d="M61.993,43.696c-0.692-0.585-1.487-1.053-2.252-1.578c0.194-0.641,0.388-1.275,0.653-2.149
			c-1.062,0.438-1.875,0.772-2.777,1.145c0.365,0.391,0.631,0.673,0.936,0.999c-0.358,0.184-0.619,0.318-1.035,0.533
			c-0.121-0.497-0.103-1.04-0.362-1.333c-0.298-0.334-0.847-0.446-1.56-0.785c-0.459,0.986-0.793,1.958-1.334,2.794
			c-0.479,0.742-0.554,1.482,0.137,1.853c0.561,0.301,1.521,0.353,2.07,0.066c1.045-0.542,1.938-0.552,2.99-0.133
			c0.674,0.268,1.444,0.376,2.174,0.383c0.361,0.003,0.728-0.384,1.09-0.595C62.486,44.489,62.332,43.983,61.993,43.696z"/>
		<path d="M68.307,42.033c0.217-0.208,0.305-0.553,0.516-0.961c-0.503-0.062-0.674-0.103-0.842-0.101
			c-1.252,0.01-2.11,1.288-1.568,2.364c0.324,0.644,0.729,1.245,1.057,1.887c0.125,0.245,0.168,0.544,0.193,0.824
			c0.049,0.529-0.15,1.274,0.129,1.55c0.577,0.571,1.406,0.843,2.262,0.29c-0.472-1.599-0.875-3.208-1.955-4.537
			C67.698,42.86,67.875,42.444,68.307,42.033z"/>
		<g>
			<path d="M48.849,0C21.914,0,0,21.914,0,48.85c0,26.935,21.914,48.849,48.849,48.849c26.936,0,48.849-21.914,48.849-48.849
				C97.698,21.914,75.785,0,48.849,0z M34.843,30.206c0.21-0.324,0.652-0.497,0.988-0.739c0.085,0.091,0.171,0.182,0.256,0.273
				c-0.117,0.206-0.233,0.411-0.407,0.719c0.401,0.027,0.75,0.05,1.271,0.085c-0.286,0.57-0.521,1.036-0.689,1.372
				c0.883,1.214,1.724,2.368,2.688,3.692c-0.098,0.929-0.644,1.58-1.98,1.478c-0.635-0.048-1.292,0.194-2.114,0.335
				c0.277-0.402,0.467-0.677,0.678-0.985c-0.211-0.111-0.419-0.219-0.651-0.341c0.358-0.603,0.702-1.179,1.185-1.992
				c-0.057-0.088-0.202-0.512-0.498-0.742C34.636,32.637,34.222,31.162,34.843,30.206z M31.926,34.483
				c0.027-0.24,0.168-0.575,0.358-0.672c0.612-0.313,1.269-0.54,1.917-0.777c0.041-0.015,0.235,0.188,0.22,0.262
				c-0.163,0.784-0.156,1.715-0.599,2.299c-0.37,0.488-1.277,0.567-1.946,0.828c0.011-0.144,0.022-0.289,0.035-0.433
				C31.91,35.486,31.872,34.979,31.926,34.483z M11.513,66.27c-1.169,0.666-1.471,1.57-1.392,2.797
				c0.024,0.377-0.232,0.773-0.387,1.242c-0.288-0.147-0.463-0.254-0.65-0.33c-0.1-0.039-0.205-0.062-0.354-0.096
				c-3.92-6.162-6.223-13.314-6.552-20.734c0.568,0.988,1.05,2.039,1.602,3.041c0.296,0.537,0.551,1.131,0.964,1.568
				c1.135,1.202,1.688,3.219,1.08,4.35c0.156,0.066,0.355,0.092,0.455,0.203c1.771,2.031,3.582,4.031,5.249,6.146
				C11.836,64.848,11.793,66.109,11.513,66.27z M7.478,38.39c0.47-0.956,0.793-1.614,1.229-2.501
				c0.166,0.939,1.693,1.01,0.989,2.028C9.416,38.323,8.4,38.218,7.478,38.39z M12.519,21.993c-1.481,2.392-2.845,4.741-4.069,7.104
				c-0.004,0.493-0.002,0.965,0.024,1.435c0.03,0.534,0.03,1.195,0.331,1.563c0.615,0.749,1.125,1.707,0.628,2.384
				c-0.581,0.789-1.63,1.478-2.586,1.674c-0.902,0.186-1.582,0.274-1.86,1.229c0.305-0.037,0.611-0.074,1.042-0.125
				c-0.417,1.114-0.778,2.139,0.527,2.791C6.017,40.49,5.554,40.87,4.981,41.34c0.064-0.448,0.113-0.799,0.164-1.148
				c-0.112-0.048-0.225-0.096-0.337-0.144c-0.43,0.742-0.925,1.459-1.359,2.2c1.113-9.818,5.624-18.62,12.328-25.196
				C14.649,18.67,13.558,20.316,12.519,21.993z M22.393,19.935c-0.328,0.421-0.985,0.574-1.463,0.894
				c-0.701,0.471-1.566,0.85-2.021,1.504c-0.977,1.401-1.737,2.954-2.588,4.447c-1.798-0.869-1.936-1.024-1.97-2.679
				c-0.017-0.814-0.042-1.652,0.129-2.438c0.162-0.748,0.502-1.483,0.897-2.146c0.345-0.579,0.9-1.03,1.305-1.58
				c0.089-0.122-0.062-0.42-0.112-0.692c-0.351,0.41-0.579,0.676-0.808,0.942c-0.122-0.111-0.245-0.223-0.368-0.334l1.801-1.974
				c-0.032-0.025-0.063-0.05-0.096-0.076C17.713,15.25,28.753,5.362,41.473,2.691c-0.198,0.484-9.067,5.255-9.04,5.91
				c-0.418,0.093-0.923,0.207-1.22,0.273c0.123,0.644,0.271,1.05,0.253,1.448c-0.014,0.297-0.244,0.584-0.5,1.142
				c-0.054,0.015-0.431,0.118-0.804,0.22c0.153,0.128,0.314,0.261,0.769,0.641c-0.89,0.073-1.439,0.12-1.77,0.147
				c-0.424,0.301-0.752,0.534-0.782,0.555c0.294,0.884,0.552,1.661,0.81,2.438c-0.501-0.111-1.002-0.221-1.478-0.327
				c-0.141,0.205-0.392,0.571-0.609,0.886c0.389,0.054,0.832,0.114,1.275,0.173c0.022,0.122,0.046,0.243,0.068,0.365
				c-1.083,0.539-2.123,1.216-3.263,1.577C24.05,18.498,23.134,18.984,22.393,19.935z M31.484,21.838
				c-1.221,0.783-1.767,0.251-3.112-0.503c-0.119-0.408-3.316,1.407-3.434,1.003c0.039-0.029,0.835-2.874,1.245-3.177
				c-0.47-0.058-0.083-0.347-0.482-0.396c0.386-0.32,6.233-3.607,7.505-8.187c0.925-0.326,0.391,7.292,1.271,7.124
				c0.268-0.051-2.636,2.673-2.548,3.007C32.015,21.036,31.775,21.651,31.484,21.838z M62.696,87.62
				c0.415-2.843,2.909-3.823,4.733-5.548C67.367,83.93,64.475,87.34,62.696,87.62z M85.612,56.413
				c-0.035,1.706-2.912,7.921-4.06,5.937c-1.527-2.799-6.365-5.385-6.858-6.373c-1.554,0.459-2.38,0.072-3.312-1.4
				c-0.186-0.291-0.697-0.375-1.059-0.555c-0.042,0.369-0.156,0.75-0.102,1.104c0.039,0.259,0.299,0.483,0.461,0.724
				c0.506,0.75,1.013,1.502,1.72,2.551c0.669-0.475,1.393-0.986,1.903-1.346c0.457,0.357,1.041,0.664,1.396,1.142
				c0.258,0.349,0.442,1.06,0.259,1.37c-0.547,0.93-1.24,1.791-1.979,2.584c-0.463,0.498-1.084,0.867-1.674,1.229
				c-1.609,0.989-3.239,1.943-4.828,2.893c-0.639-1.6-1.114-2.926-1.705-4.196c-0.254-0.546-1.057-0.963-1.081-1.466
				c-0.085-1.774-1.616-2.682-2.229-4.117c-0.269-0.625-0.757-0.922-1.296-0.286c0.835,2.045,1.655,4.058,2.479,6.065
				c0.031,0.076,0.087,0.146,0.143,0.207c0.962,1.049,1.366,2.549,2.715,3.3c0.244,0.137,0.396,0.532,0.483,0.84
				c0.202,0.707,0.472,0.985,1.271,0.638c0.982-0.428,2.041-0.679,3.312-1.084c-0.766,2.305-1.848,4.149-3.514,5.643
				c-1.228,1.1-2.489,2.16-3.694,3.283c-0.931,0.865-1.407,1.965-1.173,3.248c0.418,2.276,0.166,2.748-1.824,3.877
				c-0.954,0.543-2.294,0.862-2.133,2.441c0.014,0.137-0.123,0.333-0.247,0.43c-0.867,0.678-0.154,2.492-0.681,3.457
				c-2.967,5.428-9.055,0.744-9.162,0.584c-0.615-0.916-1.171-1.875-1.708-2.841c-0.319-0.575-0.494-1.239-0.858-1.778
				c-0.801-1.188-0.778-1.879,0.213-2.961c0.218-0.238,0.598-0.6,0.536-0.775c-0.433-1.239-0.684-2.715-1.535-3.59
				c-0.992-1.018-1.492-1.784-1.003-3.189c0.474-1.361-0.021-1.799-1.5-1.648c-0.387,0.039-1.043,0.008-1.152-0.205
				c-0.838-1.648-2.085-0.976-3.311-0.729c-0.834,0.167-1.697,0.2-2.549,0.267c-0.548,0.043-1.107-0.017-1.648,0.064
				c-1.365,0.205-3.862-0.984-4.643-2.169c-0.52-0.788-1.176-1.483-1.733-2.25c-0.466-0.642-1.369-1.472-1.222-1.962
				c0.507-1.699-0.14-3.393,0.11-4.91c0.287-1.74,1.395-3.518,3.282-4.504c0.561-0.293,0.78-1.247,1.142-1.904
				c0.33-0.599,0.557-1.277,0.982-1.793c0.535-0.648,1.226-1.17,1.858-1.755c0.748,0.063,1.958,0.554,2.539,0.147
				c2.294-1.608,4.967-0.893,7.397-1.512c0.19-0.049,0.692,0.426,0.753,0.721c0.12,0.586,0.036,1.216,0.036,2.173
				c0.412,0.129,1.152,0.341,1.877,0.596c0.525,0.185,1.044,0.401,1.541,0.651c0.865,0.435,1.696,0.939,2.582,1.324
				c0.111,0.049,0.627-0.416,0.668-0.685c0.213-1.426,0.805-1.796,2.057-1.128c2.238,1.193,4.647,0.874,7.021,0.805
				c0.267-0.009,0.666-0.428,0.752-0.728c0.32-1.123,0.536-2.274,0.792-3.415c-0.115-0.081-0.229-0.163-0.343-0.244
				c-1.002,0.415-2.004,0.869-2.987,0.111c-0.035-0.026-0.15,0.045-0.227,0.076c-1.523,0.607-2.682-0.123-2.771-1.749
				c-0.101-1.822-0.652-2.122-2.296-1.273c-0.157,0.082-0.391,0.012-0.849,0.012c0.521,0.74,0.908,1.288,1.275,1.808
				c-0.263,0.367-0.558,0.775-1.188,1.652c-0.159-0.387-0.279-0.73-0.438-1.059c-0.227-0.469-0.49-0.917-0.717-1.385
				c-0.316-0.65-0.607-1.312-0.924-1.963c-0.143-0.296-0.249-0.672-0.49-0.847c-1.14-0.825-2.315-1.601-3.491-2.375
				c-0.232-0.153-0.516-0.228-0.776-0.337c0.049,0.41-0.056,0.985,0.175,1.202c1.01,0.95,2.117,1.796,3.189,2.68
				c0.267,0.219,0.535,0.436,0.951,0.774c-0.768-0.073-1.805-0.781-1.125,0.727c0.115,0.258-0.326,0.803-0.571,1.174
				c-0.219,0.33-0.523,0.603-0.876,0.996c-0.408-0.205-0.932-0.469-1.456-0.733c0.281-0.286,0.49-0.257,0.667-0.317
				c0.558-0.189,1.104-0.413,1.653-0.624c-0.296-0.508-0.478-1.163-0.909-1.496c-1.219-0.941-2.675-1.578-3.422-3.079
				c-0.091-0.185-0.913-0.207-1.249-0.027c-0.769,0.41-1.419,0.985-2.402,0.518c-0.151-0.072-0.616,0.397-0.866,0.679
				c-0.353,0.398-0.671,0.835-0.95,1.289c-0.369,0.598-0.803,1.193-0.996,1.852c-0.283,0.963-0.749,1.66-1.75,1.888
				c-0.676,0.152-1.366,0.239-1.975,0.344c-0.643-0.285-1.285-0.567-2.218-0.979c0.063-1.425,0.137-3.104,0.228-5.16
				c0.984-0.014,2.103-0.068,3.221-0.04c1.669,0.042,1.688,0.067,1.731-1.608c0.008-0.324-0.119-0.729-0.331-0.965
				c-0.517-0.576-1.121-1.076-1.743-1.656c0.065-1.107,2.066,0.616,1.814-1.089c1.134,0.186,2.887-0.833,3.384-2.249
				c0.388-1.104,1.253-1.488,2.095-1.503c1.25-0.022,1.101-0.599,0.764-1.297c-0.585-1.217,0.166-1.856,0.953-2.533
				c0.031,0.591-0.081,1.15-0.147,1.714c-0.041,0.341-0.152,0.833,0.019,1.003c0.278,0.273,0.752,0.397,1.164,0.47
				c0.302,0.054,0.815-0.227,0.93-0.095c0.715,0.829,1.232,0.019,1.83-0.133c0.634-0.161,1.28-0.268,1.921-0.399
				c0.03,0.117,0.062,0.234,0.093,0.351c0.964-0.723,0.919-0.723,0.93-1.825c0.004-0.444,0.25-0.887,0.411-1.415
				c0.528,0.297,0.858,0.482,1.343,0.754c-0.024-0.511,0.039-0.867-0.069-1.157c-0.476-1.264-0.287-1.504,1.069-1.483
				c0.569,0.009,1.143-0.186,1.715-0.288c0.002-0.145,0.006-0.289,0.009-0.433c-0.364-0.095-0.733-0.288-1.089-0.264
				c-0.623,0.042-1.239,0.199-1.853,0.341c-0.954,0.221-1.674-0.28-1.932-1.025c-0.335-0.972-0.611-2.071,0.56-2.894
				c0.471-0.332,0.729-0.969,1.086-1.469c-1.302-0.775-2.259-0.639-2.197,0.295c0.065,1.004-0.475,1.424-1.115,1.937
				c-1.095,0.878-1.075,1.933-0.184,2.974c0.229,0.268,0.116,0.93-0.004,1.367c-0.14,0.51-0.611,0.953-0.673,1.458
				c-0.182,1.487-0.469,1.832-2.013,2.023c-0.512-1.206-1.02-2.4-1.6-3.767c-0.424,0.354-0.729,0.703-1.111,0.899
				c-0.403,0.207-0.896,0.403-1.321,0.355c-0.518-0.058-0.833-0.392-0.514-1.054c0.143-0.296,0.072-0.82-0.105-1.121
				c-0.687-1.167-0.11-1.673,0.786-2.441c1.227-1.052,2.181-2.438,3.169-3.743c0.593-0.782,1.031-1.684,1.521-2.504
				c-0.209-0.075-0.462-0.166-0.631-0.226c1.067-0.499,2.192-0.833,3.086-1.485c1.506-1.097,3.006-0.969,4.711-0.524
				c-0.233,0.289-0.373,0.46-0.476,0.588c0.698,0.254,1.378,0.742,2.013,0.688c0.902-0.078,1.612,0.242,2.277,0.648
				c-1.244-2.263-2.287-4.487-1.348-4.582c-0.163-0.514,0.839-0.487,1.335-0.694c-0.287-0.134-0.431-0.432-0.142-0.324
				c0.031-0.056,0.125-0.274,0.265-0.581c-0.32-0.218-0.517-0.344,0.005-0.009c0.534-1.169,1.206-3.275,2.41-3.141
				c1.525,0.17-3.53-6.278-3.453-6.36c29.381,8.393,38.031,32.266,38.031,43.373c0,5.809-0.01,15.747-5.853,19.97
				c-0.505-2.421,0.616-9.952-0.211-11.362C86.891,51.746,85.688,52.766,85.612,56.413z"/>
		</g>
	</g>
</g>
<g>
</g>
<g>
</g>
<g>
</g>
<g>
</g>
<g>
</g>
<g>
</g>
<g>
</g>
<g>
</g>
<g>
</g>
<g>
</g>
<g>
</g>
<g>
</g>
<g>
</g>
<g>
</g>
<g>
</g>
</svg>
