<?xml version="1.0" encoding="iso-8859-1"?>
<!-- Generator: Adobe Illustrator 16.0.0, SVG Export Plug-In . SVG Version: 6.00 Build 0)  -->
<!DOCTYPE svg PUBLIC "-//W3C//DTD SVG 1.1//EN" "http://www.w3.org/Graphics/SVG/1.1/DTD/svg11.dtd">
<svg version="1.1" id="Capa_1" xmlns="http://www.w3.org/2000/svg" xmlns:xlink="http://www.w3.org/1999/xlink" x="0px" y="0px"
	 width="97.75px" height="97.75px" viewBox="0 0 97.75 97.75" style="enable-background:new 0 0 97.75 97.75;" xml:space="preserve"
	>
<g>
	<g>
		<path d="M66.32,19.615c-5.145-3.105-11.168-4.896-17.604-4.896c-18.831,0-34.153,15.322-34.153,34.154
			c0,2.824,0.348,5.567,0.996,8.194c0.927-1.909,5.943-10.243,23.623-12.116c0,0,16.758-0.896,22.124-1.518
			c0,0,5.033-0.6,9.198-3.014c0.642-1,1.966-3.463,2.095-6.854C72.773,28.902,70.619,24.146,66.32,19.615z"/>
		<path d="M69.081,56.25c-5.606,2.42-11.694,2.65-11.751,2.654c-8.257,0.404-13.451,2.074-13.504,2.092
			c-11.062,3.672-10.665,10.496-10.641,10.785c0.001,6.58,5.152,9.502,5.205,9.529l0.491,0.271c3.116,0.938,6.419,1.446,9.837,1.446
			c18.835,0.002,34.157-15.32,34.157-34.152c0-1.492-0.098-2.963-0.283-4.404C80.355,49.5,75.966,53.277,69.081,56.25z"/>
		<path d="M48.875,0C21.883,0,0,21.883,0,48.875S21.883,97.75,48.875,97.75S97.75,75.867,97.75,48.875S75.867,0,48.875,0z
			 M48.718,84.879c-3.479,0-6.467-0.498-9.65-1.42c-3.465-2.242-6.677-5.547-6.608-11.648c0.08-0.537-0.025-7.895,11.14-11.506
			c0.054-0.018,5.344-1.717,13.7-2.127c0.199-0.01,18.123-0.938,24.718-13.711c-2.179,3.342-5.931,6.65-12.392,8.137
			c0,0-9.228,2.638-16.456,2.818c0,0-14.456,0.182-21.774,6.775c0,0-9.956,8.068-0.545,16.363c1.245,1.312,3.951,3.149,6.363,4.438
			c-2.297-0.775-24.85-5.877-22.838-23.289c-1.078-3.42-1.66-7.059-1.66-10.834c0-19.885,16.119-36.004,36.003-36.004
			c5.573,0,10.85,1.27,15.559,3.529c8.602,8.133,9.186,13.867,9.049,17.24c-0.104,2.563-0.84,4.592-1.504,5.93
			c3.504-2.531,5.787-6.629,2.593-13.172c-2.127-3.672-6.208-7.84-8.884-9.422c2.803,0.615,19.34,4.816,19.506,18.17
			c0,0,0,2.264-1.01,5.193l-0.198,0.521c0.586,2.576,0.896,5.258,0.896,8.014C84.725,68.758,68.605,84.879,48.718,84.879z"/>
	</g>
</g>
<g>
</g>
<g>
</g>
<g>
</g>
<g>
</g>
<g>
</g>
<g>
</g>
<g>
</g>
<g>
</g>
<g>
</g>
<g>
</g>
<g>
</g>
<g>
</g>
<g>
</g>
<g>
</g>
<g>
</g>
</svg>
