<?xml version="1.0" encoding="iso-8859-1"?>
<!-- Generator: Adobe Illustrator 16.0.0, SVG Export Plug-In . SVG Version: 6.00 Build 0)  -->
<!DOCTYPE svg PUBLIC "-//W3C//DTD SVG 1.1//EN" "http://www.w3.org/Graphics/SVG/1.1/DTD/svg11.dtd">
<svg version="1.1" id="Capa_1" xmlns="http://www.w3.org/2000/svg" xmlns:xlink="http://www.w3.org/1999/xlink" x="0px" y="0px"
	 width="97.75px" height="97.75px" viewBox="0 0 97.75 97.75" style="enable-background:new 0 0 97.75 97.75;" xml:space="preserve"
	>
<g>
	<path d="M48.875,0C21.882,0,0,21.882,0,48.875S21.882,97.75,48.875,97.75S97.75,75.868,97.75,48.875S75.868,0,48.875,0z
		 M63.718,56.464c-0.704,0.506-0.842,0.908-0.569,1.733c2.72,8.225,5.39,16.466,8.072,24.703c0.076,0.234,0.143,0.473,0.275,0.906
		c-0.434-0.303-0.707-0.486-0.975-0.68c-6.924-5.042-13.857-10.076-20.765-15.143c-0.651-0.477-1.081-0.517-1.762-0.021
		c-7.11,5.175-14.251,10.312-21.384,15.457c-0.177,0.126-0.361,0.238-0.68,0.447c1.021-3.157,1.987-6.16,2.961-9.159
		c1.83-5.639,3.653-11.277,5.514-16.904c0.216-0.652,0.038-0.955-0.477-1.324c-7.022-5.057-14.029-10.132-21.04-15.205
		c-0.229-0.165-0.455-0.331-0.667-0.693c0.635,0,1.271,0,1.906,0c8.257,0,16.514-0.012,24.771,0.02
		c0.822,0.002,1.173-0.238,1.43-1.038c2.668-8.332,5.384-16.649,8.088-24.97c0.062-0.188,0.143-0.369,0.278-0.714
		c0.143,0.363,0.249,0.601,0.329,0.848c2.744,8.277,5.498,16.551,8.207,24.841c0.26,0.795,0.617,1.035,1.439,1.033
		c8.6-0.021,17.198,0,25.798,0.01c0.278,0,0.558,0,1.058,0c-0.393,0.312-0.617,0.503-0.855,0.677
		C77.691,46.354,70.721,51.432,63.718,56.464z"/>
</g>
<g>
</g>
<g>
</g>
<g>
</g>
<g>
</g>
<g>
</g>
<g>
</g>
<g>
</g>
<g>
</g>
<g>
</g>
<g>
</g>
<g>
</g>
<g>
</g>
<g>
</g>
<g>
</g>
<g>
</g>
</svg>
