<?xml version="1.0" encoding="iso-8859-1"?>
<!-- Generator: Adobe Illustrator 16.0.0, SVG Export Plug-In . SVG Version: 6.00 Build 0)  -->
<!DOCTYPE svg PUBLIC "-//W3C//DTD SVG 1.1//EN" "http://www.w3.org/Graphics/SVG/1.1/DTD/svg11.dtd">
<svg version="1.1" id="Capa_1" xmlns="http://www.w3.org/2000/svg" xmlns:xlink="http://www.w3.org/1999/xlink" x="0px" y="0px"
	 width="97.75px" height="97.75px" viewBox="0 0 97.75 97.75" style="enable-background:new 0 0 97.75 97.75;" xml:space="preserve"
	>
<g>
	<g>
		<path d="M58.693,29.041c-0.771-0.799-1.842-1.432-3.217-1.891c-1.375-0.461-3.074-0.691-5.095-0.691h-5.217v17.232h5.58
			c2.021,0,3.68-0.23,4.976-0.691c1.291-0.461,2.323-1.059,3.094-1.797c0.768-0.736,1.293-1.613,1.576-2.627
			c0.28-1.016,0.426-2.074,0.426-3.178c0-1.291-0.164-2.473-0.486-3.549C60.006,30.775,59.459,29.84,58.693,29.041z"/>
		<path d="M48.875,0C21.883,0,0,21.883,0,48.875S21.883,97.75,48.875,97.75S97.75,75.867,97.75,48.875S75.867,0,48.875,0z
			 M82.078,44.936c-1.027,2.797-2.719,5.208-5.072,7.238c-2.357,2.027-5.393,4.467-9.119,5.582
			c-3.723,1.121-8.281,1.678-13.674,1.678h-9.506v25.365H23.133V12.951h33.389c5.65,0,10.252,0.752,13.806,2.256
			c3.553,1.504,6.313,3.371,8.284,5.609c1.97,2.238,3.296,4.703,3.982,7.393c0.682,2.693,1.025,5.191,1.025,7.498
			C83.619,39.064,83.107,42.141,82.078,44.936z"/>
	</g>
</g>
<g>
</g>
<g>
</g>
<g>
</g>
<g>
</g>
<g>
</g>
<g>
</g>
<g>
</g>
<g>
</g>
<g>
</g>
<g>
</g>
<g>
</g>
<g>
</g>
<g>
</g>
<g>
</g>
<g>
</g>
</svg>
