<?xml version="1.0" encoding="iso-8859-1"?>
<!-- Generator: Adobe Illustrator 16.0.0, SVG Export Plug-In . SVG Version: 6.00 Build 0)  -->
<!DOCTYPE svg PUBLIC "-//W3C//DTD SVG 1.1//EN" "http://www.w3.org/Graphics/SVG/1.1/DTD/svg11.dtd">
<svg version="1.1" id="Capa_1" xmlns="http://www.w3.org/2000/svg" xmlns:xlink="http://www.w3.org/1999/xlink" x="0px" y="0px"
	 width="97.75px" height="97.75px" viewBox="0 0 97.75 97.75" style="enable-background:new 0 0 97.75 97.75;" xml:space="preserve"
	>
<g>
	<path d="M48.875,0C21.882,0,0,21.883,0,48.875S21.882,97.75,48.875,97.75S97.75,75.867,97.75,48.875S75.868,0,48.875,0z
		 M75.427,23.318c-0.851,0.143-1.729,0.151-2.596,0.158c-3.608,0.031-6.124,1.759-7.146,5.201c-0.629,2.118-0.969,4.321-1.49,6.729
		c1.647,0,3.119-0.008,4.59,0.001c1.888,0.013,2.746,0.735,2.65,2.607c-0.072,1.423-0.375,2.876-0.838,4.226
		c-0.531,1.538-1.711,2.379-3.463,2.297c-1.439-0.068-2.885-0.015-4.438-0.015c-0.695,3.929-1.377,7.766-2.053,11.604
		c-0.819,4.657-1.64,9.316-2.449,13.977c-1.459,8.396-6.779,13.104-15.485,13.332c-6.998,0.182-14.004,0.062-21.005,0.051
		c-1.497-0.004-1.806-0.444-1.481-1.854c0.456-1.975,0.894-3.954,1.38-5.921c0.433-1.746,1.28-2.402,3.095-2.407
		c4.926-0.013,9.852,0.005,14.777-0.005c4.112-0.006,6.247-1.639,6.997-5.629c1.393-7.396,2.667-14.816,3.99-22.229
		c0.042-0.23,0.062-0.465,0.123-0.941c-2.302,0-4.421-0.052-6.534,0.02c-1.301,0.043-1.949-0.475-2.204-1.738
		c-0.352-1.75-0.826-3.474-1.226-5.214c-0.37-1.623,0.04-2.164,1.688-2.173c3.276-0.02,6.552-0.007,9.94-0.007
		c0.284-1.6,0.541-3.114,0.823-4.624c1.177-6.287,4.015-11.457,9.924-14.483c3.211-1.646,6.672-2.229,10.253-2.019
		c2.208,0.129,3.204,1.015,3.744,3.16c0.246,0.982,0.445,1.979,0.59,2.982C77.843,22.194,77.252,23.011,75.427,23.318z"/>
</g>
<g>
</g>
<g>
</g>
<g>
</g>
<g>
</g>
<g>
</g>
<g>
</g>
<g>
</g>
<g>
</g>
<g>
</g>
<g>
</g>
<g>
</g>
<g>
</g>
<g>
</g>
<g>
</g>
<g>
</g>
</svg>
