<?xml version="1.0" encoding="iso-8859-1"?>
<!-- Generator: Adobe Illustrator 16.0.0, SVG Export Plug-In . SVG Version: 6.00 Build 0)  -->
<!DOCTYPE svg PUBLIC "-//W3C//DTD SVG 1.1//EN" "http://www.w3.org/Graphics/SVG/1.1/DTD/svg11.dtd">
<svg version="1.1" id="Capa_1" xmlns="http://www.w3.org/2000/svg" xmlns:xlink="http://www.w3.org/1999/xlink" x="0px" y="0px"
	 width="97.75px" height="97.75px" viewBox="0 0 97.75 97.75" style="enable-background:new 0 0 97.75 97.75;" xml:space="preserve"
	>
<g>
	<g>
		<path d="M59.105,35.52c-0.647-1.99-0.647-4.117-0.74-6.199c-2.915,1.154-5.784,2.637-8.932,3.006
			c-2.499-0.324-4.581-1.943-6.803-3.1c-1.573,2.359-2.869,5.09-5.229,6.756c-2.591,1.203-5.46,1.527-8.236,2.035
			c0.647,2.221,1.435,4.535,1.156,6.896c2.221-1.25,4.628-2.176,7.08-2.963c-0.139-2.035-0.046-4.07,0.185-6.107
			c2.221,0.324,4.397,0.926,6.433,1.711c1.712-1.756,3.239-3.84,5.414-5.043c1.156,1.574,1.666,3.471,2.221,5.275
			c2.593-0.602,5.229-1.111,7.914-1.297c-0.879,2.268-2.176,4.305-3.563,6.34c2.129,1.064,4.211,2.314,6.063,3.842
			c-2.5,1.387-5.184,2.359-7.914,3.191c0.277,2.361,0.371,4.766,0.187,7.174c-2.545-0.418-4.998-1.342-7.358-2.453
			c-1.805,2.129-3.655,4.211-5.876,5.922c-0.973-2.082-1.619-4.303-2.037-6.523c-2.545,0.509-5.09,1.019-7.681,1.064
			c0.88-2.314,2.499-4.258,3.702-6.432c-1.62-1.158-3.378-2.176-4.767-3.701c-1.48,2.682-3.979,4.486-5.876,6.801
			c2.128,0.926,4.487,1.436,6.385,2.914c0.741,0.648,0.834,1.668,0.926,2.547c0.093,2.082,0,4.164-0.139,6.246
			c2.406-0.971,4.766-1.943,7.265-2.592c1.019-0.184,2.175-0.463,3.147,0c2.545,1.018,4.626,2.916,6.803,4.535
			c1.156-2.314,2.405-4.58,3.978-6.662c0.694-0.973,1.668-1.805,2.824-2.176c2.963-0.926,6.062-1.25,9.115-1.619
			c-1.111-2.268-2.176-4.535-2.592-6.988c-0.139-0.74-0.047-1.48,0.369-2.082c1.482-2.498,3.656-4.396,5.601-6.432
			c-2.405-0.602-4.858-1.111-7.126-2.082C60.169,36.953,59.383,36.445,59.105,35.52z"/>
		<path d="M48.875,0C21.882,0,0,21.883,0,48.875S21.882,97.75,48.875,97.75S97.75,75.867,97.75,48.875S75.868,0,48.875,0z
			 M79.882,50.188c-4.674,2.084-9.532,3.701-14.438,5.138c1.158,5.737,1.897,11.707,1.297,17.584
			c-4.487-0.464-8.606-2.406-12.678-4.072c-1.807-0.692-3.426-1.989-5.276-2.313c-4.164,4.813-8.144,9.994-13.373,13.697
			c-0.786-0.742-1.11-1.805-1.48-2.824c-1.435-4.256-2.313-8.651-2.869-13.141c-4.442,1.018-8.93,1.805-13.465,2.127
			c-1.064,0.094-2.129,0.094-3.193-0.139c0.602-1.805,1.574-3.424,2.545-4.996c1.99-3.193,4.119-6.293,6.479-9.256
			c-3.471-2.268-7.033-4.582-9.579-7.959l-0.1-0.135l0.1-0.051c4.721-2.498,9.671-4.533,14.763-6.107
			c-0.094-4.072-0.278-8.283,0.971-12.215c4.442-0.094,8.793,1.572,12.957,2.961c3.331-3.795,6.802-7.588,10.827-10.598l0.475-0.359
			c2.223,3.24,3.922,7.301,4.986,11.049c5.783-1.572,11.66-3.008,17.63-3.332c-1.526,5.045-4.487,9.533-7.45,13.883
			c4.165,1.803,8.237,3.887,12.078,6.385c1.02,0.695,2.082,1.436,2.915,2.453C82.751,48.893,81.316,49.541,79.882,50.188z"/>
	</g>
</g>
<g>
</g>
<g>
</g>
<g>
</g>
<g>
</g>
<g>
</g>
<g>
</g>
<g>
</g>
<g>
</g>
<g>
</g>
<g>
</g>
<g>
</g>
<g>
</g>
<g>
</g>
<g>
</g>
<g>
</g>
</svg>
