<?xml version="1.0" encoding="iso-8859-1"?>
<!-- Generator: Adobe Illustrator 16.0.0, SVG Export Plug-In . SVG Version: 6.00 Build 0)  -->
<!DOCTYPE svg PUBLIC "-//W3C//DTD SVG 1.1//EN" "http://www.w3.org/Graphics/SVG/1.1/DTD/svg11.dtd">
<svg version="1.1" id="Capa_1" xmlns="http://www.w3.org/2000/svg" xmlns:xlink="http://www.w3.org/1999/xlink" x="0px" y="0px"
	 width="97.75px" height="97.75px" viewBox="0 0 97.75 97.75" style="enable-background:new 0 0 97.75 97.75;" xml:space="preserve"
	>
<g>
	<g>
		<path d="M48.876,19.137c-16.398,0-29.738,13.341-29.738,29.738c0,16.396,13.34,29.736,29.738,29.736
			c16.396,0,29.737-13.34,29.737-29.736C78.613,32.478,65.271,19.137,48.876,19.137z M55.43,28.243c3.483,0,6.311,2.826,6.311,6.312
			c0,3.486-2.826,6.312-6.311,6.312c-3.486,0-6.313-2.826-6.313-6.312C49.116,31.069,51.941,28.243,55.43,28.243z M26.788,45.72
			c0-3.485,2.826-6.312,6.311-6.312c3.485,0,6.311,2.826,6.311,6.312c0,3.484-2.826,6.312-6.311,6.312
			C29.614,52.031,26.788,49.204,26.788,45.72z M58.829,70.6c-3.24,1.434-6.897,2.15-10.945,2.15c-3.555,0-7.408-0.555-11.539-1.66
			c-1.813-0.484-2.887-2.35-2.402-4.162c0.486-1.812,2.348-2.89,4.162-2.402c7.297,1.955,13.344,1.908,17.977-0.141
			c5.086-2.246,8.662-7.107,10.629-14.447c0.484-1.812,2.35-2.889,4.16-2.402c1.814,0.486,2.891,2.35,2.404,4.16
			C70.749,61.12,65.891,67.48,58.829,70.6z"/>
		<path d="M48.875,0C21.883,0,0,21.883,0,48.875S21.883,97.75,48.875,97.75S97.75,75.867,97.75,48.875S75.867,0,48.875,0z
			 M48.876,84.05C29.48,84.05,13.7,68.271,13.7,48.875C13.7,29.479,29.479,13.7,48.876,13.7c19.396,0,35.174,15.779,35.174,35.175
			C84.05,68.271,68.271,84.05,48.876,84.05z"/>
	</g>
</g>
<g>
</g>
<g>
</g>
<g>
</g>
<g>
</g>
<g>
</g>
<g>
</g>
<g>
</g>
<g>
</g>
<g>
</g>
<g>
</g>
<g>
</g>
<g>
</g>
<g>
</g>
<g>
</g>
<g>
</g>
</svg>
