<?xml version="1.0" encoding="iso-8859-1"?>
<!-- Generator: Adobe Illustrator 16.0.0, SVG Export Plug-In . SVG Version: 6.00 Build 0)  -->
<!DOCTYPE svg PUBLIC "-//W3C//DTD SVG 1.1//EN" "http://www.w3.org/Graphics/SVG/1.1/DTD/svg11.dtd">
<svg version="1.1" id="Capa_1" xmlns="http://www.w3.org/2000/svg" xmlns:xlink="http://www.w3.org/1999/xlink" x="0px" y="0px"
	 width="97.75px" height="97.75px" viewBox="0 0 97.75 97.75" style="enable-background:new 0 0 97.75 97.75;" xml:space="preserve"
	>
<g>
	<g>
		<path d="M61.727,32.021c-4.012,0-8.055,1.296-11.17,3.748l-2.108,1.657c-0.973-3.56-4.029-5.915-7.998-5.915
			c-4.734,0-8.023,3.456-8.023,8.055c0,0.802,0.123,1.575,0.342,2.31l-2.227,0.145c-6.346,0.414-11.861,5.583-11.861,11.769
			c0,6.506,5.445,11.799,12.141,11.799l30.913,0.14c9.559-0.004,17.334-7.562,17.334-16.854
			C79.068,39.582,71.289,32.021,61.727,32.021z"/>
		<path d="M48.875,0C21.883,0,0,21.883,0,48.875S21.883,97.75,48.875,97.75S97.75,75.867,97.75,48.875S75.867,0,48.875,0z
			 M61.727,71.527h-0.014l-30.906-0.141c-9.971,0-18.094-7.896-18.094-17.599c0-8.472,6.799-15.664,15.148-17.264
			c1.73-5.63,6.553-9.643,12.781-9.643c3.137,0,5.873,1.027,8.303,2.881c3.719-2.297,8.348-3.541,12.782-3.541
			c12.854,0,23.311,10.162,23.311,22.652S74.58,71.527,61.727,71.527z"/>
	</g>
</g>
<g>
</g>
<g>
</g>
<g>
</g>
<g>
</g>
<g>
</g>
<g>
</g>
<g>
</g>
<g>
</g>
<g>
</g>
<g>
</g>
<g>
</g>
<g>
</g>
<g>
</g>
<g>
</g>
<g>
</g>
</svg>
