<?xml version="1.0" encoding="iso-8859-1"?>
<!-- Generator: Adobe Illustrator 16.0.0, SVG Export Plug-In . SVG Version: 6.00 Build 0)  -->
<!DOCTYPE svg PUBLIC "-//W3C//DTD SVG 1.1//EN" "http://www.w3.org/Graphics/SVG/1.1/DTD/svg11.dtd">
<svg version="1.1" id="Capa_1" xmlns="http://www.w3.org/2000/svg" xmlns:xlink="http://www.w3.org/1999/xlink" x="0px" y="0px"
	 width="97.75px" height="97.75px" viewBox="0 0 97.75 97.75" style="enable-background:new 0 0 97.75 97.75;" xml:space="preserve"
	>
<g>
	<path d="M48.875,0C21.882,0,0,21.883,0,48.875S21.882,97.75,48.875,97.75S97.75,75.867,97.75,48.875S75.868,0,48.875,0z
		 M49.783,23.357c0.376-5.174,5.105-8.164,9.341-8.164c1.243,0,2.442,0.26,3.479,0.795c2.174,1.119,3.625,3.459,3.222,7.211
		c10.354-6.455,18.079,10.227,8.385,16.803c-4.071,2.762-10.563,2.441-18.421,4.227c-2.87,0.652-5.087,1.414-5.352,1.506
		c-0.008,0.01-0.012,0.018-0.012,0.018s0-0.006-0.002-0.014c-0.008,0.004-0.013,0.004-0.014,0.006v-0.002
		C50.41,45.738,49.102,32.695,49.783,23.357z M23.759,30.23c-4.535-10.934,15.64-17.813,20.721-7.094
		c3.003,6.33,4.028,18.977,4.646,22.611l0.017,0.01l-0.015-0.002v0.002c0,0-0.001-0.002-0.002-0.002l-2.332-0.191
		c-11.132-0.969-15.393,2.577-24.896,1.762C13.218,46.582,8.888,29.816,23.759,30.23z M52.562,74.217
		c-1.304,6.949-11.576,11.248-17.241,6.016c-1.641-1.516-2.896-3.825-3.434-7.104c-8.193,1.697-13.114-4.649-11.016-12.826
		c2.884-11.239,22.619-13.086,23.369-13.135l4.892-0.303c0.01-0.016,0.016-0.023,0.016-0.023s0,0.006,0,0.021h0.009l-0.009,0.013
		c-0.004,0.203-0.01,1.33,0.263,3.504c0.08,0.648,0.187,1.389,0.323,2.227c0.314,1.925,0.863,3.859,1.42,5.877
		C52.415,63.033,53.729,68.004,52.562,74.217z M73.422,62.67c5.282,10.281-10.932,15.465-15.086,7.156
		c-3.949-7.898-7.493-21.512-7.873-22.971l-0.01-0.006h0.009c-0.003-0.01-0.006-0.021-0.009-0.029l4.538-0.504
		c5.833-0.813,9.485-1.453,13.038-1.453c2.633,0,5.209,0.352,8.576,1.242c4.756,1.262,7.231,5.624,7.17,9.596
		C83.718,60.209,80.395,64.23,73.422,62.67z"/>
</g>
<g>
</g>
<g>
</g>
<g>
</g>
<g>
</g>
<g>
</g>
<g>
</g>
<g>
</g>
<g>
</g>
<g>
</g>
<g>
</g>
<g>
</g>
<g>
</g>
<g>
</g>
<g>
</g>
<g>
</g>
</svg>
