<?xml version="1.0" encoding="iso-8859-1"?>
<!-- Generator: Adobe Illustrator 16.0.0, SVG Export Plug-In . SVG Version: 6.00 Build 0)  -->
<!DOCTYPE svg PUBLIC "-//W3C//DTD SVG 1.1//EN" "http://www.w3.org/Graphics/SVG/1.1/DTD/svg11.dtd">
<svg version="1.1" id="Capa_1" xmlns="http://www.w3.org/2000/svg" xmlns:xlink="http://www.w3.org/1999/xlink" x="0px" y="0px"
	 width="97.75px" height="97.75px" viewBox="0 0 97.75 97.75" style="enable-background:new 0 0 97.75 97.75;" xml:space="preserve"
	>
<g>
	<g>
		<path d="M49,27.365c-11.978,0-21.723,9.745-21.723,21.723c0,11.979,9.745,21.725,21.723,21.725
			c11.979,0,21.723-9.744,21.723-21.725C70.723,37.109,60.979,27.365,49,27.365z M48.835,63.802
			c-8.109,0-14.683-6.573-14.683-14.683c0-8.11,6.573-14.684,14.683-14.684c8.11,0,14.683,6.573,14.683,14.684
			C63.518,57.229,56.943,63.802,48.835,63.802z"/>
		<path d="M48.875,0C21.882,0,0,21.882,0,48.875S21.882,97.75,48.875,97.75S97.75,75.868,97.75,48.875S75.868,0,48.875,0z
			 M48.875,83.799c-19.288,0-34.925-15.636-34.925-34.925c0-19.288,15.637-34.924,34.925-34.924S83.8,29.587,83.8,48.875
			C83.8,68.164,68.163,83.799,48.875,83.799z"/>
	</g>
</g>
<g>
</g>
<g>
</g>
<g>
</g>
<g>
</g>
<g>
</g>
<g>
</g>
<g>
</g>
<g>
</g>
<g>
</g>
<g>
</g>
<g>
</g>
<g>
</g>
<g>
</g>
<g>
</g>
<g>
</g>
</svg>
