<?xml version="1.0" encoding="iso-8859-1"?>
<!-- Generator: Adobe Illustrator 16.0.0, SVG Export Plug-In . SVG Version: 6.00 Build 0)  -->
<!DOCTYPE svg PUBLIC "-//W3C//DTD SVG 1.1//EN" "http://www.w3.org/Graphics/SVG/1.1/DTD/svg11.dtd">
<svg version="1.1" id="Capa_1" xmlns="http://www.w3.org/2000/svg" xmlns:xlink="http://www.w3.org/1999/xlink" x="0px" y="0px"
	 width="97.75px" height="97.75px" viewBox="0 0 97.75 97.75" style="enable-background:new 0 0 97.75 97.75;" xml:space="preserve"
	>
<g>
	<path d="M48.875,0C21.882,0,0,21.882,0,48.875S21.882,97.75,48.875,97.75S97.75,75.868,97.75,48.875S75.868,0,48.875,0z
		 M79.676,56.701c-0.984,0.248-1.98,0.454-2.99,0.624c-1.717,0.289-3.444,0.489-5.181,0.497c-0.771,0.003-1.108,0.298-1.435,0.939
		c-4.187,8.229-9.713,15.44-16.559,21.637c-0.644,0.582-1.328,1.123-2.037,1.619c-2.488,1.737-5.019,1.848-7.604,0.182
		c-2.209-1.422-4.126-3.174-5.878-5.116c-5.384-5.966-9.099-12.924-12.046-20.335c-4.01-10.084-6.277-20.602-7.777-31.312
		l-0.097-0.676l11.863,0.007l0.1,1.192c0.425,3.446,0.981,6.858,1.659,10.262c2.48,12.439,6.858,24.054,14.81,34.121
		c1.579,1.998,1.565,2.016,3.247,0.162c3.899-4.303,7.124-9.074,9.822-14.21c0.323-0.612,0.313-0.917-0.349-1.301
		c-6.641-3.853-10.108-9.843-11.434-17.217c-0.792-4.411-0.713-8.792,0.844-13.063c2.712-7.441,9.177-11.032,16.97-10.242
		c8.713,0.883,12.332,6.829,13.033,13.657c0.49,4.785-0.188,9.397-1.834,13.898c-0.121,0.331-0.43,1.095-0.43,1.095
		s-0.668,0.063-1.146,0.101c-3.059,0.245-5.869-0.276-8.146-2.566c-0.326-0.329-0.778-0.842-0.778-0.842s0.178-0.709,0.273-1.045
		c0.939-3.292,1.475-6.638,0.691-10.052c-0.609-2.661-2.145-4.02-4.353-3.942c-1.547,0.055-2.604,0.883-3.374,2.148
		c-0.827,1.359-1.111,2.876-1.207,4.433c-0.234,3.889,0.339,7.642,2.434,10.98c3.5,5.581,8.81,7.413,15.102,6.825
		c1.312-0.124,2.58-0.347,3.803-0.67v8.21H79.676z"/>
</g>
<g>
</g>
<g>
</g>
<g>
</g>
<g>
</g>
<g>
</g>
<g>
</g>
<g>
</g>
<g>
</g>
<g>
</g>
<g>
</g>
<g>
</g>
<g>
</g>
<g>
</g>
<g>
</g>
<g>
</g>
</svg>
