<?xml version="1.0" encoding="iso-8859-1"?>
<!-- Generator: Adobe Illustrator 16.0.0, SVG Export Plug-In . SVG Version: 6.00 Build 0)  -->
<!DOCTYPE svg PUBLIC "-//W3C//DTD SVG 1.1//EN" "http://www.w3.org/Graphics/SVG/1.1/DTD/svg11.dtd">
<svg version="1.1" id="Capa_1" xmlns="http://www.w3.org/2000/svg" xmlns:xlink="http://www.w3.org/1999/xlink" x="0px" y="0px"
	 width="97.75px" height="97.75px" viewBox="0 0 97.75 97.75" style="enable-background:new 0 0 97.75 97.75;" xml:space="preserve"
	>
<g>
	<g>
		<rect x="51.65" y="43.326" width="4.16" height="12.486"/>
		<rect x="72.459" y="43.326" width="4.161" height="12.486"/>
		<path d="M48.875,0C21.883,0,0,21.883,0,48.875S21.883,97.75,48.875,97.75S97.75,75.867,97.75,48.875S75.867,0,48.875,0z
			 M32.229,61.359H14.194V37.775h11.099v-9.709h6.936V61.359z M41.939,61.359h-6.937V37.775h6.937V61.359z M41.939,35.004h-6.937
			v-6.938h6.937V35.004z M62.747,69.684H44.713v-5.549h11.1v-2.775h-11.1V37.775h18.034V69.684z M65.521,69.684v-5.549H76.62v-2.775
			H65.521V37.775h18.033v31.909H65.521L65.521,69.684z"/>
		<rect x="21.131" y="43.326" width="4.162" height="12.486"/>
	</g>
</g>
<g>
</g>
<g>
</g>
<g>
</g>
<g>
</g>
<g>
</g>
<g>
</g>
<g>
</g>
<g>
</g>
<g>
</g>
<g>
</g>
<g>
</g>
<g>
</g>
<g>
</g>
<g>
</g>
<g>
</g>
</svg>
