<?xml version="1.0" encoding="iso-8859-1"?>
<!-- Generator: Adobe Illustrator 16.0.0, SVG Export Plug-In . SVG Version: 6.00 Build 0)  -->
<!DOCTYPE svg PUBLIC "-//W3C//DTD SVG 1.1//EN" "http://www.w3.org/Graphics/SVG/1.1/DTD/svg11.dtd">
<svg version="1.1" id="Capa_1" xmlns="http://www.w3.org/2000/svg" xmlns:xlink="http://www.w3.org/1999/xlink" x="0px" y="0px"
	 width="97.75px" height="97.75px" viewBox="0 0 97.75 97.75" style="enable-background:new 0 0 97.75 97.75;" xml:space="preserve"
	>
<g>
	<g>
		<path d="M94.925,32.485L65.713,56.454l-0.01,0.007c1.248,2.094,0.971,4.841-0.83,6.643L46.98,80.995
			c-1.064,1.063-2.459,1.597-3.854,1.597s-2.79-0.533-3.855-1.597L21.407,63.13c-5.235-2.122-8.929-7.255-8.929-13.252
			c0-7.894,6.398-14.294,14.294-14.294c6.387,0,10.181,4.237,10.181,4.237l2.317-2.319c2.129-2.128,5.581-2.128,7.71,0l3.629,3.629
			L66.497,3.288C61.027,1.172,55.09,0,48.875,0C21.883,0,0,21.882,0,48.875S21.883,97.75,48.875,97.75S97.75,75.868,97.75,48.875
			C97.75,43.125,96.749,37.61,94.925,32.485z"/>
		<path d="M35.819,40.832c-2.417-2.416-5.63-3.747-9.047-3.747s-6.63,1.331-9.046,3.747c-2.416,2.417-3.748,5.629-3.748,9.046
			c0,3.418,1.332,6.63,3.748,9.048c2.417,2.416,5.629,3.747,9.046,3.747s6.63-1.331,9.047-3.747c2.416-2.417,3.747-5.63,3.747-9.048
			C39.566,46.461,38.235,43.248,35.819,40.832z"/>
		<path d="M43.229,61.621c-0.004,0-0.009,0-0.013,0c-0.26,0-0.411-0.207-0.411-0.207l-3.158-5.318
			c-1.963,4.055-5.783,7.043-10.355,7.855l12.887,8.171c0,0,0.311,0.203,0.922,0.203c0.61,0,1.166-0.404,1.166-0.404l50.096-40.924
			C89.551,18.771,79.968,8.944,67.893,3.838L43.754,61.271C43.754,61.271,43.589,61.621,43.229,61.621z M46.468,62.548l0.027-0.057
			l0.024-0.058L69.454,7.865c9.372,4.724,16.954,12.637,21.271,22.229L42.993,69.088l-7.112-4.51
			c1.313-0.814,2.514-1.805,3.568-2.939l0.776,1.307l0.073,0.125l0.085,0.117c0.658,0.897,1.717,1.434,2.832,1.434h0.048h0.017
			C44.636,64.602,45.883,63.792,46.468,62.548z"/>
	</g>
</g>
<g>
</g>
<g>
</g>
<g>
</g>
<g>
</g>
<g>
</g>
<g>
</g>
<g>
</g>
<g>
</g>
<g>
</g>
<g>
</g>
<g>
</g>
<g>
</g>
<g>
</g>
<g>
</g>
<g>
</g>
</svg>
