<?xml version="1.0" encoding="iso-8859-1"?>
<!-- Generator: Adobe Illustrator 16.0.0, SVG Export Plug-In . SVG Version: 6.00 Build 0)  -->
<!DOCTYPE svg PUBLIC "-//W3C//DTD SVG 1.1//EN" "http://www.w3.org/Graphics/SVG/1.1/DTD/svg11.dtd">
<svg version="1.1" id="Capa_1" xmlns="http://www.w3.org/2000/svg" xmlns:xlink="http://www.w3.org/1999/xlink" x="0px" y="0px"
	 width="97.75px" height="97.75px" viewBox="0 0 97.75 97.75" style="enable-background:new 0 0 97.75 97.75;" xml:space="preserve"
	>
<g>
	<path d="M48.875,0C21.883,0,0,21.883,0,48.875S21.883,97.75,48.875,97.75S97.75,75.867,97.75,48.875S75.867,0,48.875,0z
		 M77.902,40.876c-0.109,2.65-0.633,5.229-1.465,7.746c-2.418,6.483-7.304,10.552-13.273,13.558
		c-5.51,2.773-10.498,3.287-16.525,2.771c-1.91-0.164-3.531-1.623-3.829-3.436c-0.146-0.881,0.188-1.719,0.759-2.436
		c1.289-1.614,3.13-2.307,4.985-2.947c2.168-0.748,4.221-1.73,6.021-3.146c1.362-1.069,2.508-2.383,3.304-3.957
		c0.073-0.146,0.176-0.277,0.264-0.418c0.215-0.219,0.291-0.508,0.407-0.776c0.728-1.692,1.048-3.478,1.087-5.305
		c0.094-4.325-1.095-8.32-3.313-11.996c-1.544-2.554-3.763-4.37-6.55-5.468c-2.8-1.105-5.729-1.25-8.672-1.023
		c-1.903,0.147-2.619,1.064-2.62,2.965l0.009,40.195c-0.004,4.333-0.004,8.667-0.009,13.001c-0.002,1.886-1.154,3.041-3.039,3.043
		c-4.186,0.003-8.371,0.002-12.557,0c-2.019-0.001-3.06-1.062-3.061-3.111l0.002-62.453c-0.001-1.963,1.133-3.157,3.088-3.181
		l24.214,0.004c4.942,0.204,9.856,0.497,14.599,2.044c7.746,2.529,12.601,7.889,15.043,15.539
		C77.682,34.938,78.025,37.886,77.902,40.876z"/>
</g>
<g>
</g>
<g>
</g>
<g>
</g>
<g>
</g>
<g>
</g>
<g>
</g>
<g>
</g>
<g>
</g>
<g>
</g>
<g>
</g>
<g>
</g>
<g>
</g>
<g>
</g>
<g>
</g>
<g>
</g>
</svg>
