<?xml version="1.0" encoding="iso-8859-1"?>
<!-- Generator: Adobe Illustrator 16.0.0, SVG Export Plug-In . SVG Version: 6.00 Build 0)  -->
<!DOCTYPE svg PUBLIC "-//W3C//DTD SVG 1.1//EN" "http://www.w3.org/Graphics/SVG/1.1/DTD/svg11.dtd">
<svg version="1.1" id="Capa_1" xmlns="http://www.w3.org/2000/svg" xmlns:xlink="http://www.w3.org/1999/xlink" x="0px" y="0px"
	 width="97.75px" height="97.75px" viewBox="0 0 97.75 97.75" style="enable-background:new 0 0 97.75 97.75;" xml:space="preserve"
	>
<g>
	<g>
		<path d="M48.875,0C21.882,0,0,21.882,0,48.875S21.882,97.75,48.875,97.75S97.75,75.868,97.75,48.875S75.868,0,48.875,0z
			 M23.623,17l4.969,18.547c0,0,0.96-3.67,4.363-18.547h7.42l4.474,18.582L49.684,17h7.817l-8.542,27.084h-7.591l-4.889-18.212
			l-4.631,18.212h-7.49L16.022,17H23.623z M53.457,65.055c-1.51,3.854-4.188,6.816-7.205,9.502
			c-2.758,2.449-5.824,4.479-8.992,6.363c-0.292,0.173-0.741,0.434-0.741,0.434s-0.509-0.265-0.758-0.406
			c-3.897-2.217-7.618-4.691-10.817-7.85c-3.05-3.015-5.459-6.439-6.166-10.818c-0.108-0.668-0.077-1.334-0.122-1.999
			c-0.264-4.576,3.5-9.392,8.017-10.157c1.704-0.29,3.248,0.197,4.758,0.873c1.591,0.712,3.025,1.684,4.33,2.838
			c0.249,0.221,0.792,0.621,0.792,0.621s0.377-0.292,0.7-0.592c1.366-1.273,3.001-2.18,4.735-2.865
			c3.366-1.332,6.354-0.482,8.95,1.818C54.48,55.963,55.302,60.348,53.457,65.055z M64.523,80.312h-6.432v-22.74h6.432V80.312z
			 M64.523,55.984h-6.432v-5.286h6.432V55.984z M80.292,61.82h-4.94v12.147c0,1.304,1.198,1.808,3.594,1.808
			c0.38,0,0.8-0.043,1.22-0.084v4.758c-0.924,0.043-3.005,0.085-3.931,0.085h-0.756c-5.086,0-6.012-1.935-6.012-4.834V61.82h-3.97
			v-4.256h3.702v-6.855h6.488v6.855h4.604V61.82z M81.729,32.505h-19.23c-0.021,2.002,0.514,6.779,6.468,6.779
			c2.642,0,5.21-1.692,5.79-3.597h6.657c-1.95,6.415-6.404,9.149-12.328,9.149c-7.903,0-13.962-3.811-13.962-14.789
			c0-3.208,2.1-13.651,13.436-13.651c5.531,0,13.17,2.675,13.17,14.854V32.505z"/>
		<path d="M68.354,21.862c-3.621,0-5.543,2.191-5.981,5.845h11.911C73.844,23.219,70.823,21.862,68.354,21.862z"/>
	</g>
</g>
<g>
</g>
<g>
</g>
<g>
</g>
<g>
</g>
<g>
</g>
<g>
</g>
<g>
</g>
<g>
</g>
<g>
</g>
<g>
</g>
<g>
</g>
<g>
</g>
<g>
</g>
<g>
</g>
<g>
</g>
</svg>
