<?xml version="1.0" encoding="iso-8859-1"?>
<!-- Generator: Adobe Illustrator 16.0.0, SVG Export Plug-In . SVG Version: 6.00 Build 0)  -->
<!DOCTYPE svg PUBLIC "-//W3C//DTD SVG 1.1//EN" "http://www.w3.org/Graphics/SVG/1.1/DTD/svg11.dtd">
<svg version="1.1" id="Capa_1" xmlns="http://www.w3.org/2000/svg" xmlns:xlink="http://www.w3.org/1999/xlink" x="0px" y="0px"
	 width="97.75px" height="97.75px" viewBox="0 0 97.75 97.75" style="enable-background:new 0 0 97.75 97.75;" xml:space="preserve"
	>
<g>
	<g>
		<path d="M52.309,53.827h-2.228v8.88h2.228c2.793,0,4.215-2.227,4.215-4.405S55.102,53.827,52.309,53.827z"/>
		<path d="M40.052,53.53c0-1.304-1.822-1.317-1.822,0v1.239h1.822V53.53z"/>
		<circle cx="40.578" cy="62.016" r="2.505"/>
		<path d="M48.875,0C21.882,0,0,21.882,0,48.875S21.882,97.75,48.875,97.75S97.75,75.868,97.75,48.875S75.868,0,48.875,0z
			 M53.757,31.168h3.126l5.73,8.289v-8.289h4.004v16.578h-3.174l-5.66-8.075v8.075h-4.026V31.168z M39.82,31.168h3.127l5.731,8.289
			v-8.289h4.001v16.578h-3.173l-5.66-8.075v8.075H39.82V31.168z M41.801,52.163l3.216-2.173v2.578l-3.001,1.849v0.354h3.001v2.154
			h-8.864V53.48C36.152,49.958,40.496,49.439,41.801,52.163z M24.899,35.029h-6.702v2.959h6.698v3.767h-6.698v5.992H14.17V31.168
			h10.729V35.029z M25.967,42.418v-11.25h4.049v11.227c0,2.486,4.689,2.44,4.689,0V31.168h4.05v11.25
			c0,3.741-3.221,5.589-6.418,5.565C29.139,47.983,25.967,46.159,25.967,42.418z M40.578,66.582c-2.521,0-4.565-2.043-4.565-4.566
			c0-2.521,2.044-4.563,4.565-4.563s4.565,2.043,4.565,4.563C45.144,64.539,43.1,66.582,40.578,66.582z M52.309,66.566h-6.252V49.99
			h6.252c5.471,0,8.217,4.168,8.217,8.312C60.525,62.447,57.777,66.566,52.309,66.566z M65.372,66.566h-4.049V49.99h4.049V66.566z
			 M77.389,66.566H66.445V49.99h10.918v3.906H70.52v2.418h6.84v3.931h-6.84v2.416h6.869V66.566L77.389,66.566z M77.376,41.044v6.703
			h-4.05v-6.679l-6.176-9.9h4.684l1.657,2.652l1.87,3.388l1.967-3.6l1.516-2.44h4.736L77.376,41.044z"/>
	</g>
</g>
<g>
</g>
<g>
</g>
<g>
</g>
<g>
</g>
<g>
</g>
<g>
</g>
<g>
</g>
<g>
</g>
<g>
</g>
<g>
</g>
<g>
</g>
<g>
</g>
<g>
</g>
<g>
</g>
<g>
</g>
</svg>
