<?xml version="1.0" encoding="iso-8859-1"?>
<!-- Generator: Adobe Illustrator 16.0.0, SVG Export Plug-In . SVG Version: 6.00 Build 0)  -->
<!DOCTYPE svg PUBLIC "-//W3C//DTD SVG 1.1//EN" "http://www.w3.org/Graphics/SVG/1.1/DTD/svg11.dtd">
<svg version="1.1" id="Capa_1" xmlns="http://www.w3.org/2000/svg" xmlns:xlink="http://www.w3.org/1999/xlink" x="0px" y="0px"
	 width="97.75px" height="97.75px" viewBox="0 0 97.75 97.75" style="enable-background:new 0 0 97.75 97.75;" xml:space="preserve"
	>
<g>
	<g>
		<path d="M48.875,0C21.883,0,0,21.882,0,48.875S21.883,97.75,48.875,97.75S97.75,75.868,97.75,48.875S75.867,0,48.875,0z
			 M80.001,67.628c-4.121,7.201-54.86,12.817-61.642,7.69c-6.881-5.201-4.281-47.621,3.864-53.024
			c8.24-5.465,52.964,2.266,57.777,9.31C84.748,38.552,84.173,60.343,80.001,67.628z"/>
		<path d="M55.561,54.318c-0.807,0.537-1.062,4.755-0.383,5.271c0.672,0.51,5.689-0.049,6.098-0.765
			c0.412-0.726,0.471-2.892,0-3.582C60.799,54.544,56.375,53.775,55.561,54.318z"/>
		<path d="M46.488,60.205c0,0.619-0.375,0.928-1.123,0.928c-0.762,0-1.144-0.309-1.144-0.928V39.746h-6.798v20.136
			c0,1.957,0.784,3.374,2.353,4.251c1.582,0.878,3.445,1.316,5.589,1.316c2.317,0,4.216-0.489,5.697-1.469
			c1.481-0.978,2.224-2.358,2.224-4.143V39.746h-6.798V60.205z"/>
		<path d="M67.083,46.282l-2.041-12.083h-3.327H60.68h-1.305v-1.898h-4.332v1.898H24.937v4.271h3.976v26.698h6.799V38.471h19.332
			V49.23c0,1.67,0.192,2.801,0.577,3.389c0.386,0.587,1.556,0.881,3.511,0.881h2.735v-2.994c-1.043,0-1.723-0.085-2.036-0.258
			c-0.304-0.184-0.455-0.532-0.455-1.049V38.471h2.13L64.409,53.5h5.229l3.174-17.643h-4.27L67.083,46.282z"/>
	</g>
</g>
<g>
</g>
<g>
</g>
<g>
</g>
<g>
</g>
<g>
</g>
<g>
</g>
<g>
</g>
<g>
</g>
<g>
</g>
<g>
</g>
<g>
</g>
<g>
</g>
<g>
</g>
<g>
</g>
<g>
</g>
</svg>
