<?xml version="1.0" encoding="iso-8859-1"?>
<!-- Generator: Adobe Illustrator 16.0.0, SVG Export Plug-In . SVG Version: 6.00 Build 0)  -->
<!DOCTYPE svg PUBLIC "-//W3C//DTD SVG 1.1//EN" "http://www.w3.org/Graphics/SVG/1.1/DTD/svg11.dtd">
<svg version="1.1" id="Capa_1" xmlns="http://www.w3.org/2000/svg" xmlns:xlink="http://www.w3.org/1999/xlink" x="0px" y="0px"
	 width="97.75px" height="97.75px" viewBox="0 0 97.75 97.75" style="enable-background:new 0 0 97.75 97.75;" xml:space="preserve"
	>
<g>
	<g>
		<path d="M59.16,54.076L35.246,40.412c-0.408-0.232-0.908-0.23-1.313,0.004c-0.406,0.236-0.655,0.67-0.655,1.14v27.229
			c0,0.468,0.248,0.9,0.653,1.137c0.205,0.119,0.434,0.18,0.662,0.18c0.225,0,0.448-0.058,0.65-0.172l23.914-13.564
			c0.411-0.233,0.667-0.67,0.667-1.146C59.825,54.749,59.57,54.312,59.16,54.076z M35.585,66.85V43.285l20.696,11.824L35.585,66.85z
			"/>
		<path d="M48.875,0C21.883,0,0,21.883,0,48.875S21.883,97.75,48.875,97.75S97.75,75.867,97.75,48.875S75.867,0,48.875,0z
			 M71.596,60.697c0,0-37.054,21.441-38.985,22.258c-5.754,2.917-9.705-2.514-9.585-5.553l-0.087-41.846
			c0-3.104,0.389-5.859,3.051-7.347l24.133-13.528c3.229-1.803,7.799-0.036,9.602,3.189c1.801,3.225,0.82,8.147-2.404,9.949
			l-11.971,6.558L71.375,49.47c2.073,1.082,3.391,3.21,3.438,5.548C74.857,57.355,73.624,59.533,71.596,60.697z"/>
	</g>
</g>
<g>
</g>
<g>
</g>
<g>
</g>
<g>
</g>
<g>
</g>
<g>
</g>
<g>
</g>
<g>
</g>
<g>
</g>
<g>
</g>
<g>
</g>
<g>
</g>
<g>
</g>
<g>
</g>
<g>
</g>
</svg>
