<?xml version="1.0" encoding="iso-8859-1"?>
<!-- Generator: Adobe Illustrator 16.0.0, SVG Export Plug-In . SVG Version: 6.00 Build 0)  -->
<!DOCTYPE svg PUBLIC "-//W3C//DTD SVG 1.1//EN" "http://www.w3.org/Graphics/SVG/1.1/DTD/svg11.dtd">
<svg version="1.1" id="Capa_1" xmlns="http://www.w3.org/2000/svg" xmlns:xlink="http://www.w3.org/1999/xlink" x="0px" y="0px"
	 width="97.75px" height="97.75px" viewBox="0 0 97.75 97.75" style="enable-background:new 0 0 97.75 97.75;" xml:space="preserve"
	>
<g>
	<g>
		<path d="M31.078,28.021c-6.598,0-9.314,5.445-9.816,10.17h18.91C40.172,32.603,36.877,28.021,31.078,28.021z"/>
		<path d="M66.67,28.021c-5.801,0-9.092,4.581-9.092,10.17h18.908C75.977,33.467,73.258,28.021,66.67,28.021z"/>
		<path d="M48.875,0C21.883,0,0,21.882,0,48.875S21.883,97.75,48.875,97.75S97.75,75.868,97.75,48.875S75.867,0,48.875,0z
			 M47.439,65.784c0,2.272,0,6.928,0,9.388c-5.24-17.012-33.336-8.062-33.336-34.113c0-10.818,6.805-18.48,17.119-18.48
			c12.172,0,16.217,8.879,16.217,20.628H21.262C21.262,60.794,43.271,55.531,47.439,65.784z M50.309,75.172c0-2.46,0-7.115,0-9.388
			c4.162-10.253,26.178-4.99,26.178-22.578H50.309c0-11.749,4.041-20.628,16.219-20.628c10.314,0,17.119,7.662,17.119,18.48
			C83.646,67.109,55.557,58.16,50.309,75.172z"/>
	</g>
</g>
<g>
</g>
<g>
</g>
<g>
</g>
<g>
</g>
<g>
</g>
<g>
</g>
<g>
</g>
<g>
</g>
<g>
</g>
<g>
</g>
<g>
</g>
<g>
</g>
<g>
</g>
<g>
</g>
<g>
</g>
</svg>
