<?xml version="1.0" encoding="iso-8859-1"?>
<!-- Generator: Adobe Illustrator 16.0.0, SVG Export Plug-In . SVG Version: 6.00 Build 0)  -->
<!DOCTYPE svg PUBLIC "-//W3C//DTD SVG 1.1//EN" "http://www.w3.org/Graphics/SVG/1.1/DTD/svg11.dtd">
<svg version="1.1" id="Capa_1" xmlns="http://www.w3.org/2000/svg" xmlns:xlink="http://www.w3.org/1999/xlink" x="0px" y="0px"
	 width="97.75px" height="97.75px" viewBox="0 0 97.75 97.75" style="enable-background:new 0 0 97.75 97.75;" xml:space="preserve"
	>
<g>
	<g>
		<path d="M60.191,53.598v-0.766v-2.505c0-1.66,0.479-3.223,1.32-4.592l-7.68,7.861h6.359V53.598z"/>
		<path d="M71.536,45.677c-1.912,0-3.463,1.409-3.463,3.148h6.925C74.998,47.086,73.448,45.677,71.536,45.677z"/>
		<path d="M48.875,0C21.882,0,0,21.882,0,48.875S21.882,97.75,48.875,97.75S97.75,75.868,97.75,48.875S75.868,0,48.875,0z
			 M82.727,53.256H68.02c0,0-0.396,3.445,3.479,3.445c1.396,0,2.837-0.455,2.837-1.59l8.1-0.004c0,0-0.871,4.252-1.529,4.252
			s-36.463,0.01-36.463,0.01l0.022-5.467l7.98-7.737v-0.019h-6.75L41.11,59.354H30.435v-4.604h3.033c0,0,1.647,0.022,0.683-2.163
			l-3.747-10.462l-0.016,7.862h-4.135c0,0-2.764,0.188-2.764,3.434l0.029,5.908h-8.495V41.591h7.479v3.757
			c2.214-4.399,5.528-4.227,7.532-4.453l-0.916-2.514h7.431l2.022,7.056h0.33l2.162-7.056h6.773l-0.541,2.188h14.51v4.736
			c1.969-2.842,5.543-4.748,9.639-4.748c6.216,0,11.283,4.39,11.283,9.785V53.256L82.727,53.256z"/>
	</g>
</g>
<g>
</g>
<g>
</g>
<g>
</g>
<g>
</g>
<g>
</g>
<g>
</g>
<g>
</g>
<g>
</g>
<g>
</g>
<g>
</g>
<g>
</g>
<g>
</g>
<g>
</g>
<g>
</g>
<g>
</g>
</svg>
