<?xml version="1.0" encoding="iso-8859-1"?>
<!-- Generator: Adobe Illustrator 16.0.0, SVG Export Plug-In . SVG Version: 6.00 Build 0)  -->
<!DOCTYPE svg PUBLIC "-//W3C//DTD SVG 1.1//EN" "http://www.w3.org/Graphics/SVG/1.1/DTD/svg11.dtd">
<svg version="1.1" id="Capa_1" xmlns="http://www.w3.org/2000/svg" xmlns:xlink="http://www.w3.org/1999/xlink" x="0px" y="0px"
	 width="97.75px" height="97.75px" viewBox="0 0 97.75 97.75" style="enable-background:new 0 0 97.75 97.75;" xml:space="preserve"
	>
<g>
	<g>
		<path d="M45.374,43.609c-0.913,0-1.618,0.258-2.12,0.775c-0.501,0.517-0.818,1.218-0.948,2.103h6.12
			c-0.063-0.943-0.381-1.659-0.945-2.147C46.913,43.853,46.211,43.609,45.374,43.609z"/>
		<path d="M48.875,0C21.883,0,0,21.882,0,48.875S21.883,97.75,48.875,97.75S97.75,75.868,97.75,48.875S75.867,0,48.875,0z
			 M22.358,54.623H10.551V36.257h11.696v3.252h-7.944v3.901h8.041v3.189h-8.041v4.721h8.056L22.358,54.623L22.358,54.623z
			 M30.76,61.493h-3.855l2.647-6.627l-5.87-14.179h3.95l3.845,10.018l3.683-10.018h3.777l-5.496,13.85L30.76,61.493z M52.111,48.829
			h-9.894c0.056,1.362,0.53,2.317,1.422,2.864c0.542,0.343,1.193,0.512,1.956,0.512c0.81,0,1.467-0.208,1.974-0.624
			c0.274-0.224,0.518-0.535,0.731-0.933h3.625c-0.097,0.805-0.535,1.623-1.316,2.455c-1.217,1.319-2.919,1.98-5.107,1.98
			c-1.81,0-3.404-0.557-4.785-1.672c-1.383-1.114-2.073-2.926-2.073-5.436c0-2.353,0.625-4.157,1.871-5.413
			c1.247-1.255,2.866-1.883,4.857-1.883c1.181,0,2.246,0.213,3.194,0.637c0.948,0.425,1.729,1.094,2.347,2.009
			c0.554,0.807,0.917,1.743,1.082,2.807C52.09,46.758,52.129,47.656,52.111,48.829z M65.988,54.623H54.184V36.257h11.694v3.252
			h-7.942v3.901h8.041v3.189h-8.041v4.721h8.053V54.623L65.988,54.623z M83.535,54.771v-8.647c0-0.515-0.08-0.938-0.247-1.271
			c-0.315-0.63-0.897-0.947-1.745-0.947c-0.979,0-1.656,0.407-2.031,1.222c-0.189,0.432-0.285,0.95-0.285,1.557v8.086H75.65v-8.086
			c0-0.806-0.084-1.392-0.25-1.757c-0.299-0.656-0.885-0.984-1.756-0.984c-1.014,0-1.693,0.328-2.045,0.984
			c-0.19,0.375-0.285,0.931-0.285,1.67v8.173h-3.601V41.215h3.451v1.981c0.438-0.706,0.854-1.208,1.245-1.507
			c0.689-0.532,1.582-0.798,2.679-0.798c1.038,0,1.877,0.228,2.519,0.686c0.516,0.423,0.904,0.968,1.17,1.631
			c0.467-0.797,1.043-1.382,1.734-1.756c0.73-0.373,1.543-0.561,2.44-0.561c0.598,0,1.187,0.116,1.769,0.35
			c0.581,0.232,1.108,0.64,1.582,1.22c0.381,0.474,0.639,1.056,0.771,1.746c0.085,0.457,0.126,1.125,0.126,2.005l-0.025,8.56H83.535
			z"/>
	</g>
</g>
<g>
</g>
<g>
</g>
<g>
</g>
<g>
</g>
<g>
</g>
<g>
</g>
<g>
</g>
<g>
</g>
<g>
</g>
<g>
</g>
<g>
</g>
<g>
</g>
<g>
</g>
<g>
</g>
<g>
</g>
</svg>
