<?xml version="1.0" encoding="iso-8859-1"?>
<!-- Generator: Adobe Illustrator 16.0.0, SVG Export Plug-In . SVG Version: 6.00 Build 0)  -->
<!DOCTYPE svg PUBLIC "-//W3C//DTD SVG 1.1//EN" "http://www.w3.org/Graphics/SVG/1.1/DTD/svg11.dtd">
<svg version="1.1" id="Capa_1" xmlns="http://www.w3.org/2000/svg" xmlns:xlink="http://www.w3.org/1999/xlink" x="0px" y="0px"
	 width="97.75px" height="97.75px" viewBox="0 0 97.75 97.75" style="enable-background:new 0 0 97.75 97.75;" xml:space="preserve"
	>
<g>
	<path d="M48.875,0C21.882,0,0,21.883,0,48.875S21.882,97.75,48.875,97.75S97.75,75.867,97.75,48.875S75.868,0,48.875,0z
		 M80.37,61.911C76.1,73.966,67.516,80.971,54.855,82.73c-6.698,0.933-13.155,0.211-19.146-2.139
		c-10.22-4.007-16.724-11.58-19.328-22.508c-1.742-7.318-1.388-14.598,1.055-21.638c3.553-10.237,10.688-17.007,21.205-20.122
		c3.81-1.13,7.644-1.7,11.395-1.7c3.523,0,7.059,0.505,10.5,1.502c8.038,2.328,14.104,7.54,18.025,15.49
		c0.047,0.098,0.136,0.269,0.178,0.412c-0.163,0.123-0.354,0.179-0.486,0.233l-14.302,5.958c-0.146-0.212-0.267-0.389-0.366-0.567
		c-0.159-0.282-0.307-0.571-0.452-0.86c-0.157-0.309-0.313-0.618-0.483-0.92c-2.762-4.926-7.592-7.75-13.25-7.75
		c-4.133,0-8.105,1.554-10.903,4.264c-1.894,1.836-3.355,3.916-4.344,6.185c-2.888,6.626-3.063,13.417-0.521,20.182
		c0.745,1.983,1.854,3.878,3.295,5.628c3.195,3.885,7.751,6.021,12.831,6.021c2.432,0,4.868-0.516,7.049-1.493
		c3.885-1.741,6.201-4.767,6.891-8.995c0.179-1.023,0.016-2.123,0.016-2.123l-13.218-0.023c-0.095-0.007-0.188-0.014-0.285-0.021
		l-0.028-11.942l32.18-0.01c0.043,0.106,0.084,0.218,0.084,0.26C82.508,50.527,82.332,56.374,80.37,61.911z"/>
</g>
<g>
</g>
<g>
</g>
<g>
</g>
<g>
</g>
<g>
</g>
<g>
</g>
<g>
</g>
<g>
</g>
<g>
</g>
<g>
</g>
<g>
</g>
<g>
</g>
<g>
</g>
<g>
</g>
<g>
</g>
</svg>
