<?xml version="1.0" encoding="iso-8859-1"?>
<!-- Generator: Adobe Illustrator 16.0.0, SVG Export Plug-In . SVG Version: 6.00 Build 0)  -->
<!DOCTYPE svg PUBLIC "-//W3C//DTD SVG 1.1//EN" "http://www.w3.org/Graphics/SVG/1.1/DTD/svg11.dtd">
<svg version="1.1" id="Capa_1" xmlns="http://www.w3.org/2000/svg" xmlns:xlink="http://www.w3.org/1999/xlink" x="0px" y="0px"
	 width="97.75px" height="97.75px" viewBox="0 0 97.75 97.75" style="enable-background:new 0 0 97.75 97.75;" xml:space="preserve"
	>
<g>
	<g>
		<path d="M48.014,69.514c0.15,0.816,0.312,1.631,0.66,2.389c0.208,0.453,0.408,0.975,1.02,0.974
			c0.65-0.005,1.115-0.368,1.373-0.954c0.305-0.689,0.595-1.387,0.691-2.148c0.488-3.851,0.145-7.627-1.121-11.293
			c-0.775-2.254-1.989-4.276-3.59-6.078C47.108,58.146,46.969,63.867,48.014,69.514z"/>
		<path d="M48.875,0C21.882,0,0,21.883,0,48.875S21.882,97.75,48.875,97.75S97.75,75.867,97.75,48.875S75.868,0,48.875,0z
			 M61.643,39.624c-1.355,0.978-2.869,1.635-4.396,2.264c-3.06,1.26-6.231,2.173-9.416,3.053c-0.943,0.271-0.816,0.848-0.26,1.183
			c3.684,2.487,6.156,5.974,8.047,9.903c2.409,5.013,3.308,10.289,2.705,15.844c-0.283,2.596-0.695,5.137-1.814,7.51
			c-1.375,2.909-3.489,5.012-6.712,5.753c-3.424,0.787-6.021-0.315-8.032-3.382c-1.791-2.729-2.6-5.814-3.184-8.986
			c-0.574-3.117-0.789-6.269-1.05-9.418c-0.009-0.473-0.017-0.94-0.024-1.414c-0.002-0.134-0.002-0.268-0.004-0.399
			c0.012-2.806,0.002-5.613,0.042-8.419c0.026-1.891,0.099-4.563,0.202-6.448c0,0-1.615-0.312-2.321-1.084
			c-0.644-0.706-0.485-1.473,0.281-2.031c0.456-0.333,1.915-0.743,2.449-0.896l0.113-1.281c0.376-3.938,0.712-7.884,1.358-11.792
			c0.572-3.471,1.434-6.875,3.145-9.967c1.902-3.441,4.391-6.307,8.529-7.061c2.993-0.545,5.707,0.117,8,2.209
			c1.889,2.412,2.279,5.176,1.797,8.096c-0.642,3.888-3.289,6.631-6.348,6.107c-2.139-0.516-2.658-1.899-2.207-3.924
			c0.215-0.956,0.736-1.794,1.109-2.691c0.135-0.324,0.287-0.649,0.273-1.015c0.155-1.086-0.146-1.829-0.887-2.184
			c-0.714-0.34-1.542-0.053-2.23,0.788c-0.451,0.55-0.771,1.175-1.043,1.827c-0.89,2.122-1.253,4.363-1.56,6.624
			c-0.442,3.276-0.705,6.566-0.788,9.869c-0.011,0.4,0.027,1.104,0.027,1.104s1.684-1.108,2.521-1.549
			c2.286-1.184,4.495-2.504,6.714-3.811c0.562-0.329,1.146-0.619,1.688-0.991c0.951-0.646,1.814-0.314,2.613,0.356
			c-0.025,0.12,0.039,0.172,0.141,0.193c0,0,0,0,0-0.001l0.012,0.004c-0.004,0-0.007-0.001-0.012-0.003
			c0.802,1.053,1.314,2.226,1.55,3.534C62.867,38.178,62.539,38.978,61.643,39.624z"/>
	</g>
</g>
<g>
</g>
<g>
</g>
<g>
</g>
<g>
</g>
<g>
</g>
<g>
</g>
<g>
</g>
<g>
</g>
<g>
</g>
<g>
</g>
<g>
</g>
<g>
</g>
<g>
</g>
<g>
</g>
<g>
</g>
</svg>
