<?xml version="1.0" encoding="iso-8859-1"?>
<!-- Generator: Adobe Illustrator 16.0.0, SVG Export Plug-In . SVG Version: 6.00 Build 0)  -->
<!DOCTYPE svg PUBLIC "-//W3C//DTD SVG 1.1//EN" "http://www.w3.org/Graphics/SVG/1.1/DTD/svg11.dtd">
<svg version="1.1" id="Capa_1" xmlns="http://www.w3.org/2000/svg" xmlns:xlink="http://www.w3.org/1999/xlink" x="0px" y="0px"
	 width="97.75px" height="97.75px" viewBox="0 0 97.75 97.75" style="enable-background:new 0 0 97.75 97.75;" xml:space="preserve"
	>
<g>
	<g>
		<path d="M89.846,43.994c-1.648,0-2.471,1.627-2.471,2.565h4.932C92.307,45.573,91.445,43.994,89.846,43.994z"/>
		<path d="M70.087,44.084c-1.687,0-2.778,1.467-2.778,3.116c0,1.659,1.071,3.071,2.721,3.071c1.652,0,2.812-1.432,2.812-3.09
			C72.841,45.663,71.75,44.084,70.087,44.084z"/>
		<path d="M59.009,44.084c-1.663,0-2.753,1.579-2.753,3.097c0,1.659,1.161,3.09,2.811,3.09c1.65,0,2.722-1.412,2.722-3.071
			C61.787,45.551,60.693,44.084,59.009,44.084z"/>
		<path d="M48.875,0C21.883,0,0,21.882,0,48.875S21.883,97.75,48.875,97.75S97.75,75.868,97.75,48.875S75.867,0,48.875,0z
			 M16.996,41.965c1.453,0,2.629,1.187,2.629,2.652c0,1.463-1.176,2.65-2.629,2.65c-1.452,0-2.631-1.187-2.631-2.65
			C14.365,43.152,15.544,41.965,16.996,41.965z M11.055,42.986c1.322,0,2.396,1.074,2.396,2.398c0,1.324-1.073,2.397-2.396,2.397
			c-1.326,0-2.399-1.073-2.399-2.397C8.655,44.06,9.729,42.986,11.055,42.986z M5.676,43.869c1.184,0,2.145,0.959,2.145,2.144
			c0,1.184-0.961,2.143-2.145,2.143c-1.184,0-2.144-0.959-2.144-2.143C3.532,44.828,4.492,43.869,5.676,43.869z M8.008,51.68
			c0,0.172-0.113,0.282-0.281,0.282H3.578c-0.166,0-0.281-0.11-0.281-0.282v-0.789c0-1.152,0.943-2.426,2.355-2.426
			c1.289,0,2.355,1.086,2.355,2.426L8.008,51.68L8.008,51.68z M13.649,51.688c0,0.166-0.112,0.275-0.278,0.275H8.764
			c-0.166,0-0.276-0.109-0.276-0.275v-0.886c0-1.532,1.213-2.657,2.564-2.657c1.577,0,2.598,1.342,2.598,2.657L13.649,51.688
			L13.649,51.688z M19.896,51.684c0,0.17-0.113,0.279-0.281,0.279h-5.192c-0.168,0-0.278-0.109-0.278-0.279v-1.056
			c0-1.825,1.502-2.938,2.883-2.938c1.647,0,2.869,1.378,2.869,2.938L19.896,51.684L19.896,51.684z M36.157,51.966h-2.226v-5.25
			c0-1.554-0.523-2.545-1.908-2.545c-1.434,0-2.069,1.096-2.069,2.545v5.25h-2.226v-5.408c0-1.575-0.74-2.386-1.909-2.386
			c-1.536,0-2.067,1.352-2.067,2.386v5.408h-2.226v-9.545h2.226v1.364c0,0,1.239-1.597,2.948-1.597c2.031,0,2.862,1.696,2.862,1.696
			s1.025-1.696,3.193-1.696c2.523,0,3.401,1.737,3.401,3.892v5.886H36.157z M39.072,55.784l1.244-3.858l-3.84-9.504h2.416
			l2.386,6.574l1.998-6.574h2.355l-4.313,13.362H39.072z M49.477,52.145c-2.227,0-3.897-1.215-3.897-1.215l0.966-1.832
			c0,0,1.522,1.159,2.986,1.159c0.664,0,1.343-0.17,1.343-0.909c0-1.918-5.006-0.771-5.006-4.304c0-1.492,1.426-2.876,3.474-2.876
			c1.967,0,3.471,1.059,3.471,1.059l-1.004,1.748c0,0-1.176-0.929-2.578-0.929c-0.891,0-1.225,0.388-1.225,0.914
			c0,1.551,5.039,0.974,5.039,4.162C53.045,51.04,51.471,52.145,49.477,52.145z M59.521,52.171c-2.031,0-3.162-1.69-3.162-1.69
			v5.305h-2.227V42.424h2.227v1.502c0,0,1.121-1.74,3.222-1.74c3.106,0,4.469,2.749,4.469,5.035
			C64.049,50.688,61.547,52.171,59.521,52.171z M74.965,51.966h-2.229V50.48c0,0-1.127,1.69-3.158,1.69
			c-2.029,0-4.531-1.485-4.531-4.951c0-2.286,1.361-5.035,4.469-5.035c2.102,0,3.223,1.74,3.223,1.74v-1.502h2.228L74.965,51.966
			L74.965,51.966z M81.068,52.18c-2.76,0-5.012-2.068-5.012-4.961c0-2.417,1.695-5.041,5.021-5.041c2.506,0,3.836,1.688,3.836,1.688
			l-1.447,1.497c0,0-0.828-1.265-2.428-1.265c-1.462,0-2.812,1.362-2.812,3.072c0,1.529,1.026,3.095,2.861,3.095
			c1.627,0,2.501-1.176,2.501-1.176l1.376,1.355C84.965,50.443,83.465,52.18,81.068,52.18z M90.199,50.412
			c1.421,0,2.32-1.036,2.519-1.223l1.345,1.283c-0.813,0.791-1.75,1.699-3.929,1.699c-3.317,0-4.991-2.424-4.991-4.951
			c0-2.681,1.803-5.045,4.724-5.045c2.881,0,4.588,2.22,4.588,4.901v0.924h-7.069C87.385,49.122,88.555,50.412,90.199,50.412z"/>
	</g>
</g>
<g>
</g>
<g>
</g>
<g>
</g>
<g>
</g>
<g>
</g>
<g>
</g>
<g>
</g>
<g>
</g>
<g>
</g>
<g>
</g>
<g>
</g>
<g>
</g>
<g>
</g>
<g>
</g>
<g>
</g>
</svg>
