<?xml version="1.0" encoding="iso-8859-1"?>
<!-- Generator: Adobe Illustrator 16.0.0, SVG Export Plug-In . SVG Version: 6.00 Build 0)  -->
<!DOCTYPE svg PUBLIC "-//W3C//DTD SVG 1.1//EN" "http://www.w3.org/Graphics/SVG/1.1/DTD/svg11.dtd">
<svg version="1.1" id="Capa_1" xmlns="http://www.w3.org/2000/svg" xmlns:xlink="http://www.w3.org/1999/xlink" x="0px" y="0px"
	 width="97.75px" height="97.75px" viewBox="0 0 97.75 97.75" style="enable-background:new 0 0 97.75 97.75;" xml:space="preserve"
	>
<g>
	<g>
		<path d="M54.871,15.28h-34.33c-0.776,0-1.409,0.631-1.409,1.409v64.372c0,0.776,0.633,1.41,1.409,1.41h43.463
			c0.775,0,1.409-0.634,1.409-1.41V25.705H54.871V15.28z M21.305,38.831h41.582v1.586H21.305V38.831z M21.305,45.879h41.582v1.586
			H21.305V45.879z M21.305,53.016h41.582v1.586H21.305V53.016z M21.305,59.887h41.582v1.586H21.305V59.887z M52.234,77.828
			l-6.543-5.401l1.796-2.175l4.558,3.764l9.842-9.922l2.002,1.985L52.234,77.828z M62.887,31.432v1.586H21.305v-1.586H62.887z"/>
		<path d="M77.607,21.879l1.289,12.52c0.127-0.732-0.008-1.473,0.427-2.027C79.323,32.371,79.396,23.416,77.607,21.879z"/>
		<path d="M48.875,0C21.882,0,0,21.883,0,48.875S21.882,97.75,48.875,97.75S97.75,75.867,97.75,48.875S75.868,0,48.875,0z
			 M68.232,81.061c0,2.336-1.895,4.229-4.229,4.229H20.541c-2.335,0-4.228-1.894-4.228-4.229V16.689
			c0-2.336,1.893-4.229,4.228-4.229h35.562l12.129,11.659V81.061z M80.014,81.734c-3.496,0.383-8.181-35.866-8.867-41.269
			l-0.645,0.071l-2.627-24.031l9.037-0.988l0.1,0.91c1.397,0.157,3.657,7.518,3.547,15.807c-0.216-0.254,1.623,2.323,0.281,4.835
			c-0.423,0.79-1.389,0.063-1.701-0.477l0.401,2.957l-0.615,0.065C79.542,45.027,83.51,81.355,80.014,81.734z"/>
		<polygon points="57.689,17.896 57.689,22.886 62.881,22.886 		"/>
	</g>
</g>
<g>
</g>
<g>
</g>
<g>
</g>
<g>
</g>
<g>
</g>
<g>
</g>
<g>
</g>
<g>
</g>
<g>
</g>
<g>
</g>
<g>
</g>
<g>
</g>
<g>
</g>
<g>
</g>
<g>
</g>
</svg>
