<?xml version="1.0" encoding="iso-8859-1"?>
<!-- Generator: Adobe Illustrator 16.0.0, SVG Export Plug-In . SVG Version: 6.00 Build 0)  -->
<!DOCTYPE svg PUBLIC "-//W3C//DTD SVG 1.1//EN" "http://www.w3.org/Graphics/SVG/1.1/DTD/svg11.dtd">
<svg version="1.1" id="Capa_1" xmlns="http://www.w3.org/2000/svg" xmlns:xlink="http://www.w3.org/1999/xlink" x="0px" y="0px"
	 width="97.75px" height="97.75px" viewBox="0 0 97.75 97.75" style="enable-background:new 0 0 97.75 97.75;" xml:space="preserve"
	>
<g>
	<g>
		<path d="M41.776,15.872c-0.505,1.328-0.645,2.598-0.638,3.626c-6.384,3.067-10.578,9.664-10.578,16.868
			c0,1.931,0.289,3.819,0.859,5.635c-0.375,0.13-0.741,0.194-1.095,0.194c-0.196,0-0.394-0.02-0.591-0.059
			c-1.498-0.297-2.945-1.679-3.902-3.005c-0.028-0.47-0.042-0.886-0.042-1.283C25.791,27.571,32.387,18.856,41.776,15.872
			 M46.58,12.878C33.803,14.037,23.791,24.77,23.791,37.849c0,0.662,0.034,1.314,0.084,1.965c0.604,0.926,2.644,3.726,5.472,4.285
			c0.325,0.064,0.652,0.097,0.979,0.097c1.187,0,2.383-0.423,3.571-1.256c-0.857-2.017-1.335-4.238-1.335-6.573
			c0-7.141,4.445-13.219,10.685-15.6C42.964,19.055,42.95,15.53,46.58,12.878L46.58,12.878z"/>
		<path d="M49.086,14.77c9.875,0.09,18.415,6.434,21.566,15.438c-1.344-0.45-2.668-0.589-3.791-0.589
			c-0.18,0-0.361,0.003-0.543,0.011c-2.729-7.114-9.6-11.951-17.252-11.951c-0.933,0-1.858,0.07-2.771,0.208
			C46.642,16.818,47.45,15.709,49.086,14.77 M48.873,12.769c-0.104,0-0.204,0.006-0.306,0.007c-4.561,2.354-4.675,5.915-4.404,7.651
			c1.55-0.487,3.197-0.749,4.905-0.749c7.539,0,13.887,5.117,15.861,12.101c0.49-0.083,1.162-0.16,1.934-0.16
			c2.094,0,4.925,0.574,6.898,3.19C72.26,22.392,61.693,12.769,48.873,12.769L48.873,12.769z"/>
		<path d="M33.543,46.514c3.393,5.314,9.174,8.541,15.525,8.541c1.746,0,3.464-0.246,5.129-0.731
			c0.416,1.704,0.343,4.131-2.124,6.368c-1.071,0.149-2.146,0.226-3.201,0.226c-9.59,0-17.873-5.744-21.348-14.239
			c0.406,0.146,0.815,0.261,1.228,0.342c0.523,0.106,1.059,0.16,1.594,0.16C31.416,47.179,32.485,46.956,33.543,46.514
			 M24.091,41.736c1.87,12.004,12.251,21.18,24.781,21.18c1.385,0,2.741-0.117,4.067-0.333c5.187-4.231,3.197-9.296,2.434-10.796
			c-1.943,0.812-4.071,1.268-6.307,1.268c-6.46,0-12.04-3.765-14.75-9.23c-1.308,0.885-2.637,1.355-3.971,1.355
			c-0.398,0-0.797-0.039-1.195-0.12C26.911,44.616,25.176,43.021,24.091,41.736L24.091,41.736z"/>
		<ellipse cx="48.972" cy="36.252" rx="12.286" ry="12.421"/>
		<path d="M48.875,0C21.882,0,0,21.883,0,48.875S21.882,97.75,48.875,97.75S97.75,75.867,97.75,48.875S75.868,0,48.875,0z
			 M72.312,50.1c-8.86,18.318-23.354,35.295-23.354,35.295h-0.166c0,0-14.492-16.977-23.354-35.295
			c-1.65-3.456-2.578-7.333-2.578-11.431c0-14.521,11.639-26.297,26.001-26.312v-0.001c0.005,0,0.01,0,0.015,0s0.009,0,0.014,0
			v0.001c13.647,0.015,24.827,10.649,25.908,24.165c0.004,0.01,0.009,0.016,0.013,0.026L74.8,36.554
			c0.056,0.697,0.091,1.402,0.091,2.114C74.891,42.767,73.964,46.644,72.312,50.1z"/>
		<path d="M67.486,34.577c2.068,0.135,3.533,1.086,4.461,2.893c0.003,0.126,0.006,0.252,0.006,0.379
			c0,8.988-5.125,16.935-12.93,20.729c0.601-2.447,0.215-4.714-0.275-6.299c5.488-3.387,8.828-9.328,8.828-15.912
			C67.576,35.775,67.546,35.178,67.486,34.577 M66.96,32.561c-0.71,0-1.332,0.076-1.792,0.156c0.259,1.176,0.407,2.395,0.407,3.649
			c0,6.61-3.812,12.305-9.323,15.007c0.775,1.604,2.59,6.499-1.475,10.839c11-2.653,19.175-12.547,19.175-24.363
			c0-0.302-0.013-0.601-0.022-0.9l-0.012,0.006C72.255,33.301,69.18,32.561,66.96,32.561L66.96,32.561z"/>
	</g>
</g>
<g>
</g>
<g>
</g>
<g>
</g>
<g>
</g>
<g>
</g>
<g>
</g>
<g>
</g>
<g>
</g>
<g>
</g>
<g>
</g>
<g>
</g>
<g>
</g>
<g>
</g>
<g>
</g>
<g>
</g>
</svg>
