<?xml version="1.0" encoding="iso-8859-1"?>
<!-- Generator: Adobe Illustrator 16.0.0, SVG Export Plug-In . SVG Version: 6.00 Build 0)  -->
<!DOCTYPE svg PUBLIC "-//W3C//DTD SVG 1.1//EN" "http://www.w3.org/Graphics/SVG/1.1/DTD/svg11.dtd">
<svg version="1.1" id="Capa_1" xmlns="http://www.w3.org/2000/svg" xmlns:xlink="http://www.w3.org/1999/xlink" x="0px" y="0px"
	 width="97.75px" height="97.75px" viewBox="0 0 97.75 97.75" style="enable-background:new 0 0 97.75 97.75;" xml:space="preserve"
	>
<g>
	<g>
		<circle cx="43.43" cy="58.161" r="1.092"/>
		<path d="M39.497,57.789c-1.993-0.004-3.964,2.076-3.958,4.178c0.003,1.717,1.22,3.014,2.86,3.049
			c2.047,0.047,3.994-1.91,4.031-4.058C42.46,59.217,41.141,57.791,39.497,57.789z"/>
		<path d="M61.374,46.279c-3.298-1.795-12.561-4.613-23.809-1.713c-5.32,1.393-10.087,3.889-13.549,8.361
			c-3.648,4.709-3.171,10.373,1.421,14.153c1.817,1.497,3.99,2.705,6.188,3.568c4.839,1.9,9.931,2.203,15.066,1.539
			c6.159-0.795,11.922-2.654,16.685-6.826c3.356-2.942,5.582-6.489,4.633-11.199C67.247,50.385,64.602,48.037,61.374,46.279z
			 M36.966,68.85c-4.247-1.561-6.395-5.771-5.326-10.455c1.49-6.539,9.277-10.91,15.596-8.756c3.536,1.205,5.766,4.357,5.745,8.11
			C52.938,65.434,44.183,71.501,36.966,68.85z"/>
		<path d="M48.875,0C21.883,0,0,21.883,0,48.875S21.883,97.75,48.875,97.75S97.75,75.867,97.75,48.875S75.867,0,48.875,0z
			 M82.872,34.662c-0.896,1.379-1.892,2.715-2.985,3.943c-1.619,1.818-1.828,3.607-0.814,5.884
			c2.865,6.435,2.484,12.631-2.045,18.271c-2.451,3.053-5.588,5.281-9.053,7.042c-6.298,3.198-12.99,5.021-20.021,5.634
			c-1.837,0.16-3.682,0.275-5.521,0.414c-6.719-0.158-13.238-1.134-19.269-4.272c-4.634-2.413-8.114-5.854-9.054-11.235
			c-0.611-3.519-0.102-6.982,1.187-10.289c1.45-3.715,2.79-7.493,4.604-11.042c0.728-1.424,1.228-2.596,1.938-3.68
			c0.362-0.552,1.283-0.869,1.881-0.492c0.496,0.313,0.385,0.992,0.434,1.503c0.107,1.134,0.014,2.294,0.216,3.406
			c0.083,0.458,0.675,1.069,1.114,1.146c0.464,0.08,1.211-0.259,1.502-0.657c0.581-0.792,0.94-1.746,1.376-2.642
			c1.065-2.196,2.028-4.448,3.223-6.571c0.485-0.862,0.813-1.583,1.678-2.121c1.142-0.715,2.515-0.248,2.574,1.104
			c0.063,1.394-0.071,2.798-0.063,4.196c0.011,1.743,1.291,2.567,2.661,1.518c1.234-0.943,2.177-2.292,3.17-3.521
			c2.159-2.67,4.12-5.522,6.47-8.005c1.006-1.061,1.955-1.79,3.455-2.198c1.482-0.403,2.986,0.541,2.832,2.073
			c-0.114,1.121-0.502,2.217-0.805,3.313c-0.463,1.68-1.064,3.329-1.371,5.035c-0.119,0.669,0.185,1.723,0.678,2.104
			c0.486,0.377,1.604,0.4,2.189,0.093c1.031-0.538,1.905-1.408,2.784-2.207c2.365-2.145,4.586-4.472,7.099-6.423
			c1.135-0.882,1.643-1.322,3.146-1.491c1.069-0.119,2.709,0.51,2.506,1.463c-0.226,1.049-0.661,2.063-1.09,3.056
			c-0.824,1.913-1.849,3.753-2.521,5.714c-0.522,1.526,0.451,2.512,2.008,2.108c1.025-0.264,2.021-0.843,2.894-1.473
			c2.521-1.819,5.063-3.571,8.129-4.366c-0.091,0.029,2.615-0.668,3.487,0.391C84.45,32.548,83.5,33.697,82.872,34.662z"/>
	</g>
</g>
<g>
</g>
<g>
</g>
<g>
</g>
<g>
</g>
<g>
</g>
<g>
</g>
<g>
</g>
<g>
</g>
<g>
</g>
<g>
</g>
<g>
</g>
<g>
</g>
<g>
</g>
<g>
</g>
<g>
</g>
</svg>
