<?xml version="1.0" encoding="iso-8859-1"?>
<!-- Generator: Adobe Illustrator 16.0.0, SVG Export Plug-In . SVG Version: 6.00 Build 0)  -->
<!DOCTYPE svg PUBLIC "-//W3C//DTD SVG 1.1//EN" "http://www.w3.org/Graphics/SVG/1.1/DTD/svg11.dtd">
<svg version="1.1" id="Capa_1" xmlns="http://www.w3.org/2000/svg" xmlns:xlink="http://www.w3.org/1999/xlink" x="0px" y="0px"
	 width="97.75px" height="97.75px" viewBox="0 0 97.75 97.75" style="enable-background:new 0 0 97.75 97.75;" xml:space="preserve"
	>
<g>
	<path d="M48.875,0C21.883,0,0,21.883,0,48.875S21.883,97.75,48.875,97.75S97.75,75.867,97.75,48.875S75.867,0,48.875,0z
		 M68.494,70.568c-8.771-4.469-6.18-19.213-2.133-32.901c-10.721,9.244-18.147,27.606-20.675,31.849
		c-2.396,4.02-7.012,0.584-7.039-1.268c-0.133-9.225,1.16-24.568,3.77-37.87C31.957,41.481,24.128,64.221,21.121,70.2
		c-1.926,3.831-6.867,0.454-6.818-1.44c0.342-13.269-1.898-19.814-2.037-21.248c-0.215-2.225,7.907-4.232,7.795,4.9
		c6.726-19.037,17.84-33.559,26.025-30.164c9.334,3.87,3.951,15.694,2.18,25.966c5.513-9.465,12.322-21.906,22.125-17.771
		c9.58,4.045-3.979,27.217,2.828,32.555c1.65,1.294,4.291,1.105,6.034-1.334c1.358-1.903,1.327-3.862,2.207-4.271
		c2.66-1.23,4.362,2.153,3.974,4.916C84.643,67.917,77.37,75.091,68.494,70.568z"/>
</g>
<g>
</g>
<g>
</g>
<g>
</g>
<g>
</g>
<g>
</g>
<g>
</g>
<g>
</g>
<g>
</g>
<g>
</g>
<g>
</g>
<g>
</g>
<g>
</g>
<g>
</g>
<g>
</g>
<g>
</g>
</svg>
