<?xml version="1.0" encoding="iso-8859-1"?>
<!-- Generator: Adobe Illustrator 16.0.0, SVG Export Plug-In . SVG Version: 6.00 Build 0)  -->
<!DOCTYPE svg PUBLIC "-//W3C//DTD SVG 1.1//EN" "http://www.w3.org/Graphics/SVG/1.1/DTD/svg11.dtd">
<svg version="1.1" id="Capa_1" xmlns="http://www.w3.org/2000/svg" xmlns:xlink="http://www.w3.org/1999/xlink" x="0px" y="0px"
	 width="97.75px" height="97.75px" viewBox="0 0 97.75 97.75" style="enable-background:new 0 0 97.75 97.75;" xml:space="preserve"
	>
<g>
	<path d="M48.875,0C21.882,0,0,21.882,0,48.875S21.882,97.75,48.875,97.75S97.75,75.868,97.75,48.875S75.868,0,48.875,0z
		 M60.658,12.44c6.479,0,11.727,5.246,11.727,11.72c0,6.479-5.248,11.728-11.727,11.728c-6.469,0-11.721-5.249-11.72-11.728
		C48.938,17.688,54.189,12.44,60.658,12.44z M38.453,15.907c4.777,0,8.654,3.872,8.654,8.65c0,4.775-3.877,8.647-8.654,8.647
		c-4.775,0-8.648-3.872-8.648-8.647C29.804,19.779,33.677,15.907,38.453,15.907z M21.748,18.108c3.438,0,6.225,2.787,6.225,6.227
		c0,3.438-2.786,6.226-6.225,6.226s-6.227-2.787-6.227-6.226S18.309,18.108,21.748,18.108z M77.673,85.311H44.341V69.686H26.41
		V56.805H13.077V40.206h0.013c0.164-4.748,4.053-8.545,8.838-8.545c4.008,0,7.387,2.664,8.477,6.317
		c2.191-2.008,5.1-3.244,8.303-3.244c5.055,0,9.391,3.047,11.28,7.403c2.939-2.596,6.789-4.185,11.018-4.185
		c9.014,0,16.333,7.159,16.639,16.093h0.03v31.266H77.673z"/>
</g>
<g>
</g>
<g>
</g>
<g>
</g>
<g>
</g>
<g>
</g>
<g>
</g>
<g>
</g>
<g>
</g>
<g>
</g>
<g>
</g>
<g>
</g>
<g>
</g>
<g>
</g>
<g>
</g>
<g>
</g>
</svg>
