<?xml version="1.0" encoding="iso-8859-1"?>
<!-- Generator: Adobe Illustrator 16.0.0, SVG Export Plug-In . SVG Version: 6.00 Build 0)  -->
<!DOCTYPE svg PUBLIC "-//W3C//DTD SVG 1.1//EN" "http://www.w3.org/Graphics/SVG/1.1/DTD/svg11.dtd">
<svg version="1.1" id="Capa_1" xmlns="http://www.w3.org/2000/svg" xmlns:xlink="http://www.w3.org/1999/xlink" x="0px" y="0px"
	 width="97.75px" height="97.75px" viewBox="0 0 97.75 97.75" style="enable-background:new 0 0 97.75 97.75;" xml:space="preserve"
	>
<g>
	<path d="M48.875,0C21.882,0,0,21.882,0,48.875S21.882,97.75,48.875,97.75S97.75,75.868,97.75,48.875S75.868,0,48.875,0z
		 M48.875,29.697c-2.136,0-3.866,1.729-3.866,3.866v23.625c0,9.015-7.308,16.321-16.322,16.321s-16.322-7.308-16.322-16.321V46.449
		h12.457v10.309c0,2.135,1.73,3.866,3.865,3.866c2.136,0,3.866-1.731,3.866-3.866V33.563c0-9.015,7.308-16.322,16.322-16.322
		c9.014,0,16.322,7.308,16.322,16.322v4.725l-6.854,2.363l-5.602-2.363v-4.725C52.741,31.428,51.012,29.697,48.875,29.697z
		 M69.062,73.509c-9.015,0-16.32-7.308-16.32-16.321V46.664l5.602,2.361l6.854-2.361v10.523c0,2.135,1.729,3.865,3.864,3.865
		c2.137,0,3.867-1.729,3.867-3.865v-10.31h12.457v10.31C85.387,66.202,78.077,73.509,69.062,73.509z"/>
</g>
<g>
</g>
<g>
</g>
<g>
</g>
<g>
</g>
<g>
</g>
<g>
</g>
<g>
</g>
<g>
</g>
<g>
</g>
<g>
</g>
<g>
</g>
<g>
</g>
<g>
</g>
<g>
</g>
<g>
</g>
</svg>
