<?xml version="1.0" encoding="iso-8859-1"?>
<!-- Generator: Adobe Illustrator 16.0.0, SVG Export Plug-In . SVG Version: 6.00 Build 0)  -->
<!DOCTYPE svg PUBLIC "-//W3C//DTD SVG 1.1//EN" "http://www.w3.org/Graphics/SVG/1.1/DTD/svg11.dtd">
<svg version="1.1" id="Capa_1" xmlns="http://www.w3.org/2000/svg" xmlns:xlink="http://www.w3.org/1999/xlink" x="0px" y="0px"
	 width="97.75px" height="97.75px" viewBox="0 0 97.75 97.75" style="enable-background:new 0 0 97.75 97.75;" xml:space="preserve"
	>
<g>
	<path d="M48.875,0C21.883,0,0,21.882,0,48.875S21.883,97.75,48.875,97.75S97.75,75.868,97.75,48.875S75.867,0,48.875,0z
		 M76.885,73.061c0,6.39-5.178,11.566-11.566,11.566c-6.387,0-11.565-5.178-11.565-11.566V55.023c0,0-0.644-5.045-5.021-5.045
		c-4.377,0-4.73,5.198-4.73,5.198v17.884c0,6.389-5.18,11.565-11.568,11.565c-6.387,0-11.566-5.178-11.566-11.565V17.581
		c0,0.001,1.963-4.451,8.654-4.451c6.76-0.166,14.48,2.869,14.48,10.3v19.522c0-3.003,6.072-10.114,17.373-10.114
		c10.682,0.62,15.512,8.533,15.512,14.92v25.303H76.885z"/>
</g>
<g>
</g>
<g>
</g>
<g>
</g>
<g>
</g>
<g>
</g>
<g>
</g>
<g>
</g>
<g>
</g>
<g>
</g>
<g>
</g>
<g>
</g>
<g>
</g>
<g>
</g>
<g>
</g>
<g>
</g>
</svg>
