<?xml version="1.0" encoding="iso-8859-1"?>
<!-- Generator: Adobe Illustrator 16.0.0, SVG Export Plug-In . SVG Version: 6.00 Build 0)  -->
<!DOCTYPE svg PUBLIC "-//W3C//DTD SVG 1.1//EN" "http://www.w3.org/Graphics/SVG/1.1/DTD/svg11.dtd">
<svg version="1.1" id="Capa_1" xmlns="http://www.w3.org/2000/svg" xmlns:xlink="http://www.w3.org/1999/xlink" x="0px" y="0px"
	 width="97.75px" height="97.75px" viewBox="0 0 97.75 97.75" style="enable-background:new 0 0 97.75 97.75;" xml:space="preserve"
	>
<g>
	<g>
		<path d="M48.875,0C21.883,0,0,21.882,0,48.875S21.883,97.75,48.875,97.75S97.75,75.868,97.75,48.875S75.867,0,48.875,0z
			 M69.602,41.783c0.217,1.189,0.371,2.392,0.526,3.594c0.521,4.109-1.416,6.898-5.444,7.873c-1.356,0.33-2.723,0.646-4.084,0.964
			l-0.857,0.2c1.081,5.591,3.818,19.593,4.119,21.044c0.236,1.147,0.476,2.298,0.703,3.449c0.746,3.727-1.184,6.881-4.801,7.849
			c-1.621,0.434-6.58,1.782-8.763,2.219c-0.489,0.098-0.972,0.146-1.437,0.146c-3.038,0-5.407-1.956-6.347-5.23l-16.404-57.81
			c-0.436-1.542-0.877-3.83,0.308-5.924c1.158-2.053,3.217-2.854,4.881-3.323l24.255-6.818c1.064-0.298,5.189-1.387,6.044-1.387
			c2.399,0,5.472,1.086,6.474,6.261c0.779,4.042,1.58,8.077,2.385,12.112c0.908,4.575-0.846,7.422-5.367,8.708l-1.334,0.379
			C67.146,36.597,69.027,38.645,69.602,41.783z"/>
		<path d="M61.881,16.551c-0.574-2.966-1.729-3.711-4.604-2.904c-8.086,2.27-16.166,4.545-24.254,6.816
			c-2.763,0.779-3.363,1.821-2.582,4.591c3.938,13.899,7.884,27.797,11.826,41.694c1.523,5.369,3.047,10.738,4.576,16.104
			c0.547,1.912,1.717,2.765,3.415,2.426c1.79-0.358,3.575-0.75,5.34-1.221c1.7-0.455,2.428-1.729,2.078-3.47
			c-0.521-2.608-1.08-5.21-1.592-7.821c-1.309-6.697-2.602-13.4-3.909-20.176c0.591-0.171,1.077-0.332,1.575-0.449
			c2.286-0.543,4.573-1.059,6.854-1.611c2.162-0.522,2.867-1.547,2.594-3.718c-0.146-1.139-0.291-2.279-0.498-3.407
			c-0.402-2.21-1.561-3.015-3.764-2.631c-3.072,0.534-6.136,1.095-9.277,1.658c-0.547-1.871-1.057-3.615-1.625-5.554
			c4.617-1.313,9.076-2.579,13.535-3.848c2.621-0.746,3.224-1.723,2.701-4.345C63.464,24.641,62.663,20.598,61.881,16.551z"/>
	</g>
</g>
<g>
</g>
<g>
</g>
<g>
</g>
<g>
</g>
<g>
</g>
<g>
</g>
<g>
</g>
<g>
</g>
<g>
</g>
<g>
</g>
<g>
</g>
<g>
</g>
<g>
</g>
<g>
</g>
<g>
</g>
</svg>
