<?xml version="1.0" encoding="iso-8859-1"?>
<!-- Generator: Adobe Illustrator 16.0.0, SVG Export Plug-In . SVG Version: 6.00 Build 0)  -->
<!DOCTYPE svg PUBLIC "-//W3C//DTD SVG 1.1//EN" "http://www.w3.org/Graphics/SVG/1.1/DTD/svg11.dtd">
<svg version="1.1" id="Capa_1" xmlns="http://www.w3.org/2000/svg" xmlns:xlink="http://www.w3.org/1999/xlink" x="0px" y="0px"
	 width="97.75px" height="97.75px" viewBox="0 0 97.75 97.75" style="enable-background:new 0 0 97.75 97.75;" xml:space="preserve"
	>
<g>
	<path d="M48.875,0C21.883,0,0,21.882,0,48.875S21.883,97.75,48.875,97.75S97.75,75.868,97.75,48.875S75.867,0,48.875,0z
		 M47.101,35.456h7.963v5.368h-7.963V35.456z M41.725,63.416H27.746v-6.018h1.337v-7.348c0-3.464-3.926-2.24-3.926,3.479v3.869h1.18
		v6.018H12.416v-6.018h2.536V39.584h-2.536v-6.135h12.741v13.006c1.678-2.703,3.953-4.544,7.722-4.544
		c5.339,0,6.14,4.625,6.14,6.462v9.025h2.706V63.416z M57.6,63.416H42.382v-6.018h2.478v-8.965h-2.537v-6.158h12.741v15.123H57.6
		V63.416z M71.639,64.3c-5.839,0-10.68-2.174-12.423-5.388c-1.801-3.32-0.389-8.444,3.996-8.453
		c2.861-0.005,4.666,1.268,4.063,4.534c-0.76,2.2,0.684,2.93,2.078,2.93c2.114,0,3.723-2.437,3.832-4.92
		c0.103-2.335-0.857-4.606-3.012-4.63c-0.873-0.01-1.91,0.318-2.898,1.525l-7.526-1.014l2.853-15.436H83.1l-0.369,8.082H69.2
		l-0.31,2.587c1.944-0.862,4.275-1.45,6.42-1.45c5.688,0,10.279,2.869,10.013,10.364C85.323,58.816,80.593,64.3,71.639,64.3z"/>
</g>
<g>
</g>
<g>
</g>
<g>
</g>
<g>
</g>
<g>
</g>
<g>
</g>
<g>
</g>
<g>
</g>
<g>
</g>
<g>
</g>
<g>
</g>
<g>
</g>
<g>
</g>
<g>
</g>
<g>
</g>
</svg>
