<?xml version="1.0" encoding="iso-8859-1"?>
<!-- Generator: Adobe Illustrator 16.0.0, SVG Export Plug-In . SVG Version: 6.00 Build 0)  -->
<!DOCTYPE svg PUBLIC "-//W3C//DTD SVG 1.1//EN" "http://www.w3.org/Graphics/SVG/1.1/DTD/svg11.dtd">
<svg version="1.1" id="Capa_1" xmlns="http://www.w3.org/2000/svg" xmlns:xlink="http://www.w3.org/1999/xlink" x="0px" y="0px"
	 width="97.75px" height="97.75px" viewBox="0 0 97.75 97.75" style="enable-background:new 0 0 97.75 97.75;" xml:space="preserve"
	>
<g>
	<g>
		<circle cx="48.98" cy="21.816" r="6.483"/>
		<path d="M60.87,52.791c0-6.618-5.382-11.999-11.995-11.999c-6.614,0-11.995,5.381-11.995,11.999
			c0,6.614,5.381,11.995,11.995,11.995C55.488,64.786,60.87,59.405,60.87,52.791z"/>
		<path d="M48.875,0C21.882,0,0,21.882,0,48.875S21.882,97.75,48.875,97.75S97.75,75.868,97.75,48.875S75.868,0,48.875,0z
			 M84.805,71.218c0,6.675-5.412,12.087-12.087,12.087H25.032c-6.674,0-12.086-5.412-12.086-12.087v-0.711h22.746
			c3.681,2.753,8.244,4.386,13.183,4.386c4.939,0,9.503-1.633,13.184-4.386h22.746V71.218L84.805,71.218z M27.883,52.791
			c0-11.596,9.398-20.995,20.991-20.995c11.593,0,20.991,9.398,20.991,20.995c0,11.592-9.398,20.991-20.991,20.991
			C37.281,73.782,27.883,64.383,27.883,52.791z M60.854,34.346c-3.451-2.244-7.563-3.553-11.979-3.553s-8.527,1.309-11.979,3.553
			h-23.95V23.532c0-6.674,5.412-12.086,12.086-12.086h47.687c6.674,0,12.086,5.412,12.086,12.086v10.814H60.854z"/>
	</g>
</g>
<g>
</g>
<g>
</g>
<g>
</g>
<g>
</g>
<g>
</g>
<g>
</g>
<g>
</g>
<g>
</g>
<g>
</g>
<g>
</g>
<g>
</g>
<g>
</g>
<g>
</g>
<g>
</g>
<g>
</g>
</svg>
