<?xml version="1.0" encoding="iso-8859-1"?>
<!-- Generator: Adobe Illustrator 16.0.0, SVG Export Plug-In . SVG Version: 6.00 Build 0)  -->
<!DOCTYPE svg PUBLIC "-//W3C//DTD SVG 1.1//EN" "http://www.w3.org/Graphics/SVG/1.1/DTD/svg11.dtd">
<svg version="1.1" id="Capa_1" xmlns="http://www.w3.org/2000/svg" xmlns:xlink="http://www.w3.org/1999/xlink" x="0px" y="0px"
	 width="97.75px" height="97.75px" viewBox="0 0 97.75 97.75" style="enable-background:new 0 0 97.75 97.75;" xml:space="preserve"
	>
<g>
	<g>
		<path d="M59.729,58.32c1.638-0.029,4.347-0.019,5.984-0.006l1.107-22.119l0.021-8.874l-8.238-0.002l0.004,8.958L59.729,58.32z"/>
		<path d="M39.017,27.328c-2.321,0.027-5.754,0.021-8.076,0.003l-0.014,7.024l8.083,0.002L39.017,27.328z"/>
		<path d="M62.77,62.182c-1.188,0-2.975,0.016-4.164-0.007v7.888c2.352-0.02,5.869-0.019,8.22,0l-0.011-7.888
			C65.682,62.197,63.902,62.182,62.77,62.182z"/>
		<path d="M48.875,0C21.882,0,0,21.882,0,48.875S21.882,97.75,48.875,97.75S97.75,75.868,97.75,48.875S75.868,0,48.875,0z
			 M80.625,80.623h-63.5V17.127h63.5V80.623z"/>
		<path d="M30.913,70.066h8.152l-0.022-26.275l4.135,0.062L43.149,62.65c0,0.955,0.059,1.902,0.179,2.848
			c0.343,2.718,1.502,4.12,4.023,4.619c2.778,0.549,5.948,0.268,8.736-0.031l0.013-5.615c-0.187,0.006-1.871,0.006-2.057,0
			c-1.812-0.062-2.643-0.828-2.65-2.638l0.043-18.04l4.666,0.002l0.002-5.595l-4.736-0.006l0.01-10.866l-8.213-0.002l-0.021,10.835
			l-12.248,0.004l0.017,15.942L30.913,70.066z"/>
	</g>
</g>
<g>
</g>
<g>
</g>
<g>
</g>
<g>
</g>
<g>
</g>
<g>
</g>
<g>
</g>
<g>
</g>
<g>
</g>
<g>
</g>
<g>
</g>
<g>
</g>
<g>
</g>
<g>
</g>
<g>
</g>
</svg>
