<?xml version="1.0" encoding="iso-8859-1"?>
<!-- Generator: Adobe Illustrator 16.0.0, SVG Export Plug-In . SVG Version: 6.00 Build 0)  -->
<!DOCTYPE svg PUBLIC "-//W3C//DTD SVG 1.1//EN" "http://www.w3.org/Graphics/SVG/1.1/DTD/svg11.dtd">
<svg version="1.1" id="Capa_1" xmlns="http://www.w3.org/2000/svg" xmlns:xlink="http://www.w3.org/1999/xlink" x="0px" y="0px"
	 width="97.75px" height="97.75px" viewBox="0 0 97.75 97.75" style="enable-background:new 0 0 97.75 97.75;" xml:space="preserve"
	>
<g>
	<g>
		<path d="M52.93,52.373c0,1.502,1.11,2.797,3.705,2.797c4.736,0,5.54-3.242,5.54-4.547v-0.998
			C56.674,49.625,52.93,49.641,52.93,52.373z"/>
		<path d="M23.315,43.439c-2.544,0-5.123,1.611-5.123,4.436h9.997C28.189,45.215,26.213,43.439,23.315,43.439z"/>
		<path d="M40.682,43.541c-3.676,0-5.373,2.912-5.373,5.74c0,3.033,1.892,5.771,5.396,5.771c2.938,0,5.351-2.295,5.351-5.803
			C46.056,45.979,43.967,43.541,40.682,43.541z"/>
		<path d="M48.875,0C21.882,0,0,21.883,0,48.875S21.882,97.75,48.875,97.75S97.75,75.867,97.75,48.875S75.868,0,48.875,0z
			 M72.548,62.621h-3.873l3.068-5.818l-6.53-12.254c0.294,0.707,0.462,1.549,0.462,2.557v7.533c0,0.871,0.124,2.234,0.124,2.234
			h-3.221c0,0-0.087-1.1-0.087-2.215c0,0-1.634,2.803-6.708,2.803c-3.725,0-6.479-1.791-6.479-5.088c0-0.189,0.01-0.373,0.028-0.551
			c-0.96,3.393-3.859,5.598-7.777,5.598c-4.594,0-6.282-2.645-6.282-2.645c0,1.002-0.123,2.098-0.123,2.098h-3.419
			c0,0,0.077-1.525,0.077-2.611v-4.078H18.113c0,2.883,2.189,4.939,5.233,4.939c3.738,0,4.507-2.625,4.507-2.625h3.585
			c0,0-0.475,4.873-7.872,4.873c-6.286,0-8.998-3.09-8.998-7.996c0-6.195,4.033-8.248,8.872-8.248c6.469,0,8.319,4.271,8.37,7.123
			V35.129h3.499v8.621c0,0,1.483-2.576,6.256-2.576c5.097,0,8.115,3.6,8.115,8.076c0,0.557-0.046,1.09-0.131,1.605
			c0.812-2.33,3.668-3.48,8.378-3.48h4.248v-0.75c0-2.105-1.854-3.201-4.248-3.201c-3.684,0-3.874,2.326-3.874,2.326H50.43
			c0-0.637,0.467-4.623,7.747-4.623c2.488,0,5.21,0.523,6.589,2.58l-1.041-1.955H67.8l5.853,11.723l5.836-11.723h3.693
			L72.548,62.621z"/>
	</g>
</g>
<g>
</g>
<g>
</g>
<g>
</g>
<g>
</g>
<g>
</g>
<g>
</g>
<g>
</g>
<g>
</g>
<g>
</g>
<g>
</g>
<g>
</g>
<g>
</g>
<g>
</g>
<g>
</g>
<g>
</g>
</svg>
