<?xml version="1.0" encoding="iso-8859-1"?>
<!-- Generator: Adobe Illustrator 16.0.0, SVG Export Plug-In . SVG Version: 6.00 Build 0)  -->
<!DOCTYPE svg PUBLIC "-//W3C//DTD SVG 1.1//EN" "http://www.w3.org/Graphics/SVG/1.1/DTD/svg11.dtd">
<svg version="1.1" id="Capa_1" xmlns="http://www.w3.org/2000/svg" xmlns:xlink="http://www.w3.org/1999/xlink" x="0px" y="0px"
	 width="97.75px" height="97.75px" viewBox="0 0 97.75 97.75" style="enable-background:new 0 0 97.75 97.75;" xml:space="preserve"
	>
<g>
	<path d="M48.875,0C21.883,0,0,21.882,0,48.875S21.883,97.75,48.875,97.75S97.75,75.868,97.75,48.875S75.867,0,48.875,0z
		 M58.387,86.344c-7.175,1.1-14.389,1.104-21.112-2.175c-11.533-5.621-17.65-14.872-17.915-27.78
		c-0.118-5.715-0.022-11.435-0.022-17.152c0.003-6.493,0-12.987,0.003-19.48c0-2.43,1.062-4.259,3.231-5.344
		c2.167-1.083,4.295-0.822,6.231,0.597c1.558,1.144,2.194,2.76,2.19,4.684c-0.012,12.129-0.007,24.257-0.005,36.386
		c0,9.607,6.143,17.23,15.603,18.775c5.874,0.961,11.736,0.672,16.966-2.852c6.311-4.255,9.414-12.053,7.728-19.5
		c-1.69-7.454-7.849-13.196-15.392-14.188c-2.094-0.275-4.23-0.214-6.353-0.241c-3.332-0.043-5.917-2.321-6.111-5.45
		c-0.204-3.269,1.996-5.879,5.428-6.187c18.134-1.626,30.967,10.083,33.974,24.214C86.294,66.943,74.841,83.82,58.387,86.344z"/>
</g>
<g>
</g>
<g>
</g>
<g>
</g>
<g>
</g>
<g>
</g>
<g>
</g>
<g>
</g>
<g>
</g>
<g>
</g>
<g>
</g>
<g>
</g>
<g>
</g>
<g>
</g>
<g>
</g>
<g>
</g>
</svg>
