<?xml version="1.0" encoding="iso-8859-1"?>
<!-- Generator: Adobe Illustrator 16.0.0, SVG Export Plug-In . SVG Version: 6.00 Build 0)  -->
<!DOCTYPE svg PUBLIC "-//W3C//DTD SVG 1.1//EN" "http://www.w3.org/Graphics/SVG/1.1/DTD/svg11.dtd">
<svg version="1.1" id="Capa_1" xmlns="http://www.w3.org/2000/svg" xmlns:xlink="http://www.w3.org/1999/xlink" x="0px" y="0px"
	 width="97.75px" height="97.75px" viewBox="0 0 97.75 97.75" style="enable-background:new 0 0 97.75 97.75;" xml:space="preserve"
	>
<g>
	<g>
		<path d="M48.875,0C21.882,0,0,21.883,0,48.875S21.882,97.75,48.875,97.75S97.75,75.867,97.75,48.875S75.868,0,48.875,0z
			 M82.242,43.197c1.314,1.971,0.919,4.174-0.987,5.588c-1.351,0.999-2.886,1.517-4.521,1.689c-1.233,0.129-2.5,0.219-3.725,0.08
			c-2.708-0.308-5.279-1.088-7.509-2.746c-0.903-0.674-1.685-1.472-2.206-2.492c-0.855-1.683-0.58-3.325,0.787-4.629
			c1.314-1.255,2.947-1.837,4.697-2.079c0.964-0.131,1.943-0.138,2.918-0.158c-0.098,0.327-0.199,0.652-0.272,0.994
			c-1.916,0.364-3.286,1.54-4.097,3.502c-0.172,0.413-0.493,1.186-0.016,2.022l0.635,1.112l0.844-0.963l0.251-0.287
			c0.181-0.209,0.354-0.409,0.532-0.604c0.443-0.486,0.951-0.766,1.547-0.85c-0.164,0.189-0.275,0.317-0.275,0.317l-0.861,0.991
			l1.229,0.46l2.649,0.991l1.294,0.483l-0.063-1.379c0,0-0.01-0.211-0.021-0.391c0-0.006,0-0.014,0-0.02
			c0.457,0.464,0.798,1.102,0.787,1.797c-0.002,0.284-0.002,0.567-0.002,0.869l0.002,0.43v1.658l1.398-0.889
			c0.533-0.338,0.902-0.814,1.129-1.458c0.693-1.978,0.397-3.863-0.854-5.469c0.092-0.19,0.181-0.375,0.271-0.559
			c0.188-0.385,0.375-0.778,0.561-1.176c0.371,0.191,0.74,0.385,1.091,0.597C80.557,41.298,81.521,42.116,82.242,43.197z
			 M78.044,32.808c0.519,1.776,0.781,3.586,0.12,5.37c-0.432,1.165-1.012,2.275-1.547,3.4c-0.119,0.247-0.1,0.394,0.074,0.604
			c1.188,1.423,1.445,3.02,0.836,4.758c-0.135,0.383-0.346,0.729-0.756,0.99c0-0.465-0.004-0.877,0-1.286
			c0.021-1.553-1.131-2.816-2.277-3.284c-0.158-0.061-0.443-0.173-0.443-0.173s0.021,0.246,0.032,0.462
			c0.021,0.42,0.062,0.838,0.081,1.259c0.01,0.174,0.02,0.379,0.02,0.379l-2.649-0.991c0,0,0.913-1.052,1.358-1.565
			c-0.287-0.114-0.545-0.214-0.781-0.245c-0.203-0.028-0.402-0.042-0.598-0.042c-1.006,0-1.886,0.374-2.613,1.172
			c-0.262,0.288-0.516,0.585-0.795,0.905c-0.256-0.448-0.086-0.859,0.064-1.224c0.723-1.749,1.977-2.833,3.913-3.027
			c0.047-0.004,0.093-0.03,0.118-0.04c0.336-1.989,1.083-3.779,2.367-5.313c0.789-0.938,1.703-1.755,2.787-2.355
			c0.177-0.098,0.301-0.153,0.395-0.153C77.889,32.407,77.963,32.528,78.044,32.808z M77.186,30.391
			c0.223,0.354,0.365,0.725,0.428,1.119c-0.268,0.031-0.502,0.144-0.701,0.254c-1.115,0.617-2.11,1.457-3.042,2.565
			c-0.293,0.351-0.563,0.72-0.812,1.103c-2.266,0.434-4.513,0.324-6.748-0.216c-1.496-0.362-2.914-0.914-4.162-1.831
			c-0.832-0.611-1.545-1.332-1.771-2.397c-0.188-0.902,0.103-1.666,0.739-2.296c1.139-1.12,2.584-1.6,4.111-1.842
			c3.187-0.507,6.266-0.104,9.194,1.27C75.525,28.636,76.518,29.321,77.186,30.391z M72.686,23.119
			c-0.398,0.303-0.862,0.537-1.326,0.737c-1.16,0.494-2.391,0.674-3.646,0.718c-2.181,0.078-4.303-0.188-6.316-1.019l0.719-0.277
			c1.292-0.498,2.589-0.751,3.855-0.751c1.246,0,2.523,0.244,3.795,0.728l1.235,0.468v-1.321l0.001-0.502
			c0.001-0.271,0.002-0.526,0-0.779c0.327-0.198,0.561-0.507,0.648-0.872c0.097-0.399,0.014-0.822-0.226-1.176
			c0.013-0.021,0.025-0.041,0.038-0.063c0.439,0.287,0.872,0.57,1.27,0.893C73.928,20.871,73.906,22.191,72.686,23.119z
			 M60.408,16.238c0.019,0,0.035,0,0.055,0.002c0.321,0.025,0.495,0.202,0.536,0.537c0.017,0.145,0.097,0.335,0.208,0.408
			c0.668,0.417,1.354,0.809,2.038,1.201c0.047,0.03,0.116,0.029,0.237,0.053c-0.082-0.41-0.159-0.778-0.233-1.148
			c-0.117-0.573-0.218-1.149-0.353-1.718c-0.024-0.116-0.148-0.247-0.258-0.296c-0.345-0.152-0.557-0.454-0.449-0.741
			c0.097-0.262,0.281-0.439,0.564-0.439c0.023,0,0.049,0.001,0.075,0.003c0.333,0.035,0.509,0.322,0.489,0.736
			c-0.006,0.107,0.007,0.237,0.066,0.321c0.518,0.741,1.047,1.474,1.572,2.207c0.034,0.049,0.09,0.083,0.188,0.17
			c0.08-0.552,0.155-1.051,0.226-1.549c0.079-0.553,0.167-1.105,0.214-1.661c0.016-0.192-0.041-0.381-0.12-0.591
			c-0.219-0.56,0.177-0.88,0.528-0.88c0.097,0,0.189,0.024,0.266,0.075c0.248,0.146,0.359,0.374,0.244,0.638
			c-0.232,0.542-0.129,0.957-0.078,1.435c0.078,0.73,0.184,1.46,0.278,2.189c0.011,0.093,0.058,0.184,0.116,0.363
			c0.332-0.461,0.621-0.854,0.902-1.252c0.198-0.279,0.387-0.567,0.586-0.847c0.168-0.238,0.332-0.444,0.277-0.786
			c-0.05-0.313,0.178-0.516,0.498-0.57c0.035-0.007,0.068-0.009,0.102-0.009c0.243,0,0.407,0.166,0.5,0.371
			c0.125,0.287,0.037,0.586-0.25,0.721c-0.287,0.133-0.371,0.336-0.427,0.614c-0.155,0.759-0.336,1.51-0.504,2.269
			c-0.024,0.095-0.024,0.198-0.044,0.402c0.367-0.189,0.675-0.337,0.977-0.502c0.399-0.219,0.791-0.455,1.194-0.67
			c0.198-0.104,0.306-0.227,0.312-0.47c0.012-0.367,0.218-0.593,0.516-0.593c0.012,0,0.025,0,0.039,0.002
			c0.279,0.02,0.521,0.141,0.581,0.452c0.063,0.332-0.13,0.583-0.494,0.695c-0.103,0.031-0.231,0.079-0.285,0.161
			c-0.346,0.547-0.674,1.104-1.014,1.665c0.12,0.105,0.222,0.184,0.306,0.271c0.312,0.323,0.241,0.775-0.179,0.918
			c-0.267,0.089-0.323,0.235-0.32,0.477c0.011,0.482,0.002,0.964,0.002,1.527c-1.379-0.522-2.747-0.786-4.118-0.786
			c-1.388,0-2.777,0.271-4.186,0.813c0-0.453-0.005-0.861,0-1.268c0.004-0.352,0.068-0.684-0.413-0.842
			c-0.312-0.101-0.319-0.604-0.069-0.854c0.08-0.08,0.182-0.137,0.327-0.246c-0.354-0.588-0.688-1.155-1.042-1.71
			c-0.05-0.078-0.191-0.105-0.295-0.137c-0.302-0.094-0.49-0.277-0.464-0.605C59.857,16.453,60.096,16.238,60.408,16.238z
			 M58.986,19.434c0.328-0.363,0.716-0.623,1.176-0.883c0.104,0.168,0.206,0.334,0.309,0.505c-0.228,0.348-0.312,0.793-0.213,1.203
			c0.088,0.364,0.312,0.663,0.618,0.833v0.057c-0.003,0.275-0.002,0.547-0.001,0.833v0.447v0.905
			c-0.003-0.001-0.004-0.002-0.006-0.003c-0.833-0.388-1.607-0.878-2.119-1.688C58.262,20.867,58.376,20.107,58.986,19.434z
			 M40.633,19.756c0.916-0.947,2.083-1.397,3.316-1.696c2.541-0.62,5.078-0.571,7.59,0.155c1.042,0.303,2.036,0.729,2.818,1.529
			c0.912,0.935,0.898,1.958-0.021,2.887c-0.586,0.594-1.303,0.952-2.066,1.238c-0.389-1.104-0.781-1.775-1.803-2.898
			c0.182-0.109,0.357-0.227,0.516-0.366c0.424-0.379,0.404-0.899-0.053-1.239c-0.297-0.225-0.645-0.416-0.998-0.528
			c-1.121-0.354-2.273-0.38-3.43-0.224c-0.374,0.05-0.737,0.134-1.082,0.27l-0.298-0.166l-0.484,0.561l-0.058,0.069l-0.305,0.353
			l0.011,0.061c-0.063,0.141-0.092,0.298-0.066,0.482c0.054,0,0.101,0,0.153,0c0.028,0.113,0.057,0.226,0.086,0.338
			c0.057,0.221,0.111,0.432,0.153,0.636c-0.712,0.831-1.427,1.657-2.141,2.481c-0.207-0.09-0.407-0.183-0.591-0.302
			c-0.475-0.304-0.949-0.64-1.332-1.05C39.803,21.547,39.876,20.539,40.633,19.756z M44.051,27.336
			c-0.208,0.088-0.403,0.124-0.591,0.124c-0.515,0-0.973-0.266-1.439-0.447c-0.221-0.085-0.342-0.455-0.475-0.71
			c-0.032-0.059,0.059-0.207,0.125-0.283c1.246-1.445,2.501-2.883,3.742-4.334c0.096-0.111,0.154-0.317,0.129-0.461
			c-0.073-0.423-0.195-0.835-0.297-1.253c0.026-0.031,0.053-0.065,0.082-0.098c0.519,0.288,1.041,0.579,1.611,0.897
			c0.146-0.194,0.304-0.402,0.464-0.613c0.159-0.21,0.249-0.313,0.359-0.313c0.091,0,0.197,0.068,0.368,0.206
			c0.466,0.373,0.934,0.755,1.344,1.187c1.354,1.432,1.633,1.981,2.078,3.35c0.32,0.982,0.506,1.979,0.061,3.013
			c-0.326,0.755-0.52,1.571-0.797,2.35c-0.045,0.129-0.225,0.31-0.344,0.313c-0.65,0.006-1.3,0.008-1.95,0.008
			c-1.2,0-2.399-0.007-3.601-0.008c-0.036,0-0.07-0.02-0.157-0.044c0.499-1.176,0.996-2.34,1.539-3.614
			C45.49,26.862,44.746,27.039,44.051,27.336z M39.412,30.778c0.107-0.744,0.5-1.356,1.059-1.804
			c0.459-0.367,0.957-0.691,1.457-1.013c0.018,0.007,0.036,0.014,0.053,0.022c0.399,0.172,0.895,0.387,1.479,0.387
			c0.323,0,0.642-0.065,0.948-0.196c0.092-0.04,0.186-0.077,0.282-0.112l-0.768,1.801l-0.407,0.959l1.004,0.276
			c0.102,0.034,0.228,0.077,0.399,0.077l1.632,0.003c0.656,0.003,1.313,0.005,1.969,0.005c0.653,0,1.305-0.002,1.958-0.008
			c0.578-0.018,1.043-0.488,1.195-0.923c0.112-0.313,0.212-0.637,0.312-0.96c0.146-0.472,0.283-0.917,0.463-1.331
			c0.068-0.159,0.123-0.317,0.169-0.474c0.142,0.051,0.286,0.096,0.425,0.154c1.066,0.445,2.064,0.999,2.782,1.941
			c0.985,1.292,0.856,2.566-0.382,3.815c-0.828,0.83-1.856,1.335-2.955,1.676c-2.598,0.807-5.234,0.875-7.882,0.274
			c-1.516-0.342-2.951-0.89-4.107-1.973C39.755,32.686,39.257,31.856,39.412,30.778z M39.887,41.367
			c1.441-1.418,3.205-2.173,5.144-2.581c2.844-0.599,5.642-0.427,8.374,0.566c1.511,0.546,2.883,1.338,3.912,2.624
			c1.494,1.865,1.353,4.09-0.344,5.777c-1.054,1.049-2.324,1.698-3.699,2.173c-0.34-0.339-0.695-0.665-1.051-0.992
			c-0.242-0.224-0.478-0.443-0.709-0.664c0.375-0.134,0.81-0.312,1.069-0.5c1.251-0.783,1.34-2.311,0.202-3.191
			c-0.344-0.266-0.781-0.411-1.219-0.634c0.158-0.071,0.31-0.133,0.455-0.21c0.943-0.486,1.125-1.395,0.451-2.214
			c-0.345-0.419-0.812-0.645-1.312-0.799c-1.364-0.425-2.762-0.438-4.161-0.303c-0.887,0.089-1.759,0.284-2.489,0.865
			c-0.739,0.586-0.735,1.675,0.029,2.222c0.266,0.191,0.572,0.328,0.894,0.511c-0.229,0.083-0.411,0.14-0.585,0.212
			c-0.636,0.271-1.173,0.666-1.291,1.39c-0.13,0.809,0.172,1.465,0.825,1.972c0.675,0.522,1.706,0.802,2.424,0.95
			c-0.085,0.083-0.171,0.168-0.257,0.252c-0.496,0.48-0.986,0.967-1.478,1.452c-0.293-0.073-0.581-0.147-0.864-0.235
			c-1.652-0.509-3.146-1.277-4.372-2.537C38.091,45.674,38.105,43.121,39.887,41.367z M50.004,61.684
			c0.146,0.78,0.377,1.555,0.635,2.31c0.102,0.309,0.356,0.567,0.563,0.879c-1.265,0-2.5,0-3.827,0
			c0.807-0.785,1.014-1.757,1.188-2.728c0.118-0.662,0.154-1.34,0.189-2.012c0.007-0.191,0.074-0.504-0.099-0.59
			c-0.024-0.012-0.05-0.018-0.078-0.018c-0.178,0-0.433,0.213-0.544,0.34c-0.803,0.917-1.769,1.352-2.84,1.352
			c-0.368,0-0.748-0.051-1.139-0.15c-1.937-0.504-3.454-2.471-2.388-4.943c0.773-1.792,2.032-3.214,3.38-4.573
			c1.212-1.217,2.46-2.401,3.684-3.61c0.223-0.219,0.401-0.485,0.601-0.733c0.935,1.296,2.188,2.266,3.304,3.37
			c1.395,1.378,2.789,2.76,3.797,4.463c0.495,0.837,0.898,1.714,0.889,2.728c-0.021,1.56-1.312,3.065-2.936,3.355
			c-0.301,0.055-0.595,0.081-0.879,0.081c-1.132,0-2.126-0.437-2.943-1.376c-0.066-0.075-0.139-0.148-0.223-0.204
			c-0.087-0.06-0.168-0.088-0.236-0.088c-0.125,0-0.207,0.097-0.207,0.29C49.896,60.443,49.891,61.076,50.004,61.684z
			 M47.171,45.162c0.854-0.508,1.751-0.515,2.617-0.056c0.612,0.322,0.67,1.031,0.217,1.477l-0.633-0.879l-0.75,0.928
			c-0.068,0.085-0.135,0.171-0.201,0.259c-0.024,0.031-0.047,0.061-0.07,0.09c-0.455-0.012-0.889-0.098-1.245-0.422
			C46.695,46.188,46.716,45.432,47.171,45.162z M46.978,42.555c0.002-0.339,0.184-0.553,0.477-0.664
			c0.63-0.238,1.269-0.226,1.896,0.011c0.316,0.12,0.541,0.353,0.519,0.719c-0.021,0.342-0.233,0.558-0.558,0.643
			c-0.279,0.075-1.26,0.17-1.86-0.04C47.162,43.121,46.977,42.896,46.978,42.555z M39.585,57.816
			c0.272-0.266,0.569-0.502,0.868-0.737c-0.153,1.051,0.086,1.897,0.371,2.479c0.573,1.172,1.666,2.041,3,2.389
			c0.467,0.121,0.927,0.182,1.368,0.182c0.933,0,1.802-0.273,2.563-0.8c-0.023,0.222-0.051,0.44-0.09,0.657
			c-0.17,0.941-0.335,1.656-0.927,2.23l-1.607,1.565h2.244h3.827h1.702l-0.943-1.417c-0.074-0.112-0.154-0.221-0.234-0.324
			c-0.088-0.118-0.199-0.268-0.222-0.335c-0.3-0.886-0.485-1.558-0.604-2.19c-0.012-0.064-0.021-0.13-0.031-0.195
			c0.77,0.525,1.652,0.793,2.637,0.793c0.335,0,0.686-0.031,1.041-0.096c2.041-0.365,3.66-2.229,3.686-4.242
			c0-0.027-0.008-0.051-0.008-0.077c0.035,0.032,0.066,0.069,0.104,0.101c1.246,1.125,2.165,2.473,2.514,4.141
			c0.487,2.347-0.234,4.353-1.82,6.076c-1.693,1.838-3.854,2.842-6.258,3.342c-2.759,0.57-5.502,0.445-8.185-0.426
			c-2.177-0.709-4.098-1.842-5.563-3.646C36.619,64.328,36.778,60.537,39.585,57.816z M24.69,15.146
			c0.334-0.136,0.711-0.168,1.071-0.238c0.13-0.026,0.262-0.031,0.412-0.046c-0.78-1.507-0.684-2.5,0.285-3.228
			c0.472-0.355,1.038-0.53,1.6-0.53c0.649,0,1.291,0.233,1.77,0.692c0.872,0.836,0.859,1.834-0.073,3.218
			c0.168-0.028,0.3-0.05,0.432-0.069c0.19-0.027,0.378-0.041,0.56-0.041c0.945,0,1.747,0.386,2.198,1.267
			c0.704,1.376-0.28,3.044-1.885,3.165c-0.105,0.008-0.208,0.013-0.311,0.013c-0.765,0-1.452-0.239-1.969-0.896
			c-0.034-0.042-0.092-0.066-0.24-0.177c0.061,0.398,0.088,0.692,0.152,0.978c0.29,1.316,1.302,2.209,2.635,2.338
			c0.189,0.015,0.379,0.041,0.565,0.082c0.056,0.012,0.096,0.091,0.144,0.137c-0.048,0.047-0.09,0.123-0.146,0.137
			c-0.054,0.016-0.111,0.019-0.168,0.019c-0.045,0-0.092-0.002-0.137-0.002c-2.239,0-4.479,0-6.72-0.002
			c-0.134,0-0.267-0.02-0.399-0.029c-0.013-0.047-0.025-0.095-0.038-0.145c0.127-0.042,0.248-0.112,0.377-0.12
			c0.762-0.062,1.486-0.215,2.079-0.745c0.734-0.651,0.934-1.509,1-2.498c-0.112,0.083-0.182,0.122-0.236,0.176
			c-0.531,0.512-1.188,0.76-1.837,0.76c-0.87,0-1.721-0.445-2.225-1.292C22.997,17.079,23.535,15.617,24.69,15.146z M22.004,20.392
			c0.364-0.491,0.839-0.839,1.35-1.147c0.65,0.653,1.521,1.027,2.458,1.027c0.159,0,0.315-0.011,0.47-0.032
			c-0.001,0.001-0.001,0.002-0.002,0.003c-0.345,0.307-0.792,0.457-1.547,0.518c-0.219,0.012-0.408,0.089-0.532,0.14l-0.063,0.024
			l-0.815,0.274l0.226,0.829l0.014,0.051l0.026,0.103l0.175,0.613l0.636,0.048l0.109,0.01c0.119,0.012,0.237,0.021,0.357,0.021
			c2.24,0.001,4.48,0.001,6.718,0.001l0.047,0.001l0.09,0.001c0.096,0,0.243-0.005,0.408-0.05c0.313-0.079,0.497-0.303,0.566-0.386
			l0.669-0.657l-0.674-0.61c-0.09-0.111-0.281-0.324-0.617-0.393c-0.2-0.045-0.432-0.079-0.675-0.099
			c-0.437-0.042-0.819-0.198-1.123-0.448c0.152,0.017,0.309,0.025,0.471,0.025c0.125,0,0.252-0.005,0.381-0.015
			c1.078-0.081,2.036-0.688,2.561-1.623c0.062-0.11,0.094-0.23,0.141-0.347c0.396,0.16,0.788,0.32,1.168,0.498
			c0.285,0.131,0.55,0.325,0.786,0.533c1.058,0.919,1.102,2.078,0.068,3.033c-0.468,0.434-1.004,0.848-1.585,1.107
			c-3.125,1.385-6.361,1.599-9.665,0.752c-0.902-0.232-1.748-0.615-2.425-1.298C21.435,22.15,21.37,21.244,22.004,20.392z
			 M19.074,29.928c0.872-1.026,1.993-1.683,3.225-2.164c2.306-0.896,4.709-1.215,7.161-0.96c1.589,0.163,3.157,0.512,4.483,1.48
			c0.451,0.329,0.882,0.751,1.171,1.224c0.671,1.092,0.4,2.32-0.614,3.354c-1.171,1.191-2.621,1.897-4.204,2.294
			c-0.962,0.241-1.953,0.364-2.938,0.513c-0.852-0.873-1.948-1.509-3.271-1.871c-0.589-0.16-1.182-0.241-1.762-0.241
			c-0.874,0-1.739,0.204-2.591,0.567c-0.127-0.104-0.251-0.198-0.377-0.308C18.122,32.742,18.01,31.178,19.074,29.928z
			 M16.885,37.582c-0.117,0.281-0.214,0.576-0.261,0.896c-0.069,0.033-0.125,0.084-0.189,0.124
			C16.555,38.248,16.706,37.908,16.885,37.582z M16.286,40.398c0.06-0.663,0.534-1.158,1.219-1.236
			c-0.06-0.9,0.352-1.632,0.865-2.332c0.076-0.104,0.069-0.285,0.063-0.429c-0.011-0.281,0.027-0.512,0.288-0.693
			c1.127-0.787,2.322-1.241,3.604-1.241c0.494,0,1,0.068,1.521,0.209c2.258,0.618,3.742,2.081,4.363,4.323
			c0.666,2.412,0.1,4.554-1.662,6.363c-0.274,0.282-0.608,0.491-0.981,0.491c-0.214,0-0.441-0.069-0.677-0.232
			c-0.029-0.02-0.071-0.029-0.119-0.029c-0.088,0-0.195,0.029-0.268,0.068c-0.41,0.205-0.828,0.293-1.253,0.293
			c-0.298,0-0.601-0.043-0.905-0.12c-0.058-0.015-0.109-0.024-0.156-0.024c-0.105,0-0.187,0.046-0.28,0.181
			c-0.398,0.572-0.663,0.819-1.049,0.819c-0.242,0-0.533-0.099-0.934-0.274C17.595,45.512,16.061,42.923,16.286,40.398z
			 M14.707,43.262c0.232-0.364,0.516-0.694,0.798-1.025c0.452,2.214,1.965,4.217,4.052,5.133c0.479,0.21,0.884,0.352,1.3,0.352
			c0.742,0,1.219-0.442,1.594-0.932c0.274,0.051,0.541,0.076,0.796,0.076c0.511,0,1.001-0.1,1.461-0.297
			c0.275,0.131,0.563,0.196,0.857,0.196c0.583,0,1.147-0.266,1.635-0.768c1.921-1.974,2.581-4.391,1.937-7.001
			c1.15,0.314,2.23,0.783,3.164,1.555c2.082,1.728,2.258,4.155,0.481,6.2c-1.267,1.458-2.882,2.364-4.662,3.006
			c-2.051,0.742-4.174,1.017-6.348,0.898c-1.738-0.095-3.405-0.464-4.938-1.306c-1.083-0.591-1.981-1.384-2.474-2.557
			C13.842,45.557,14.005,44.365,14.707,43.262z M87.823,69.441c-1.523,1.218-3.274,1.838-5.183,2.109
			c-0.926,0.135-1.852,0.156-2.781,0.137c-0.225-0.006-0.359,0.06-0.5,0.252c-1.748,2.428-4.049,4.207-6.646,5.635
			c-2.902,1.594-6.003,2.652-9.207,3.439c-2.298,0.562-4.629,0.95-6.98,1.217c-3.393,0.383-6.801,0.479-10.213,0.377
			c-3.422-0.104-6.82-0.472-10.182-1.133c-2.973-0.582-5.877-1.414-8.661-2.615c-2.125-0.918-4.152-2.025-5.961-3.482
			c-1.25-1.008-2.402-2.117-3.305-3.457c-0.121-0.181-0.267-0.229-0.476-0.225c-1.629,0.029-3.222-0.205-4.752-0.768
			c-1.989-0.73-3.66-1.875-4.666-3.81c-0.711-1.366-0.807-2.817-0.426-4.298c0.473-1.834,1.554-3.276,2.959-4.502
			c1.006-1.045,3.143-2.125,3.143-2.125c2.78-1.393,5.724-1.978,8.811-1.748c1.92,0.143,3.751,0.654,5.393,1.709
			c1.595,1.021,2.834,2.354,3.193,4.271c0.339,1.811,0.016,3.535-1.003,5.107c-1.151,1.773-2.71,3.091-4.544,4.107
			c-1.14,0.631-2.332,1.129-3.594,1.452c-0.086,0.023-0.171,0.054-0.256,0.084c-0.034,0.015-0.063,0.044-0.108,0.075
			c1.078,0.84,2.234,1.502,3.449,2.048c3.295,1.476,6.77,2.312,10.323,2.86c2.452,0.38,4.917,0.626,7.394,0.773
			c3.664,0.221,7.33,0.225,10.993,0.034c3.545-0.185,7.069-0.561,10.55-1.286c2.833-0.592,5.6-1.379,8.211-2.649
			c1.072-0.521,2.098-1.127,3.071-1.896c-0.611-0.21-1.183-0.391-1.742-0.603c-2.164-0.821-4.114-1.989-5.726-3.668
			c-1.238-1.293-2.196-2.75-2.508-4.562c-0.351-2.035,0.226-3.777,1.683-5.205c1.479-1.453,3.315-2.182,5.337-2.522
			c1.619-0.274,3.232-0.273,4.847-0.058c1.642,0.223,3.224,0.688,4.739,1.354c1.754,0.774,3.37,1.764,4.742,3.127
			c1.242,1.229,2.189,2.628,2.654,4.329C90.496,65.533,89.658,67.975,87.823,69.441z"/>
		<path d="M73.471,46.243c-0.625-0.215-1.253-0.423-1.873-0.646c-0.234-0.087-0.384-0.024-0.523,0.162
			c-0.284,0.375-0.58,0.739-0.871,1.109c-0.368,0.474-0.732,0.949-1.1,1.423c0.016,0.014,0.029,0.025,0.043,0.039
			c0.654-0.471,1.31-0.941,2.055-1.477c-0.096,0.6-0.172,1.087-0.248,1.571c0.025,0.006,0.054,0.014,0.079,0.02
			c0.282-0.373,0.563-0.75,0.845-1.126c0.042,0.014,0.084,0.027,0.128,0.041c0,0.469,0,0.938,0,1.408
			c0.03,0.004,0.06,0.006,0.091,0.012c0.17-0.307,0.338-0.612,0.506-0.918c0.039,0.013,0.075,0.026,0.112,0.037
			c0.101,0.569,0.201,1.142,0.315,1.793c0.049-0.133,0.076-0.187,0.089-0.241c0.202-0.919,0.389-1.836,0.608-2.75
			C73.791,46.429,73.693,46.318,73.471,46.243z"/>
		<path d="M44.393,33.135c1.056-0.015,2.111-0.008,3.169-0.008c1.082,0,2.167-0.006,3.249,0.004c0.271,0.004,0.4-0.064,0.379-0.363
			c-0.021-0.305-0.013-0.612-0.002-0.918c0.011-0.228-0.07-0.317-0.307-0.315c-2.193,0.007-4.385,0.007-6.578,0.001
			c-0.24-0.001-0.314,0.105-0.309,0.324c0.005,0.292,0.014,0.587-0.004,0.881C43.972,33.042,44.096,33.137,44.393,33.135z"/>
		<path d="M74.878,38.974c-0.003,0-0.007,0-0.011,0c-0.565,0.009-1.038,0.47-1.027,1.003c0.01,0.591,0.453,1.036,1.02,1.036
			c0.008,0,0.014,0,0.021,0c0.57-0.011,1.02-0.483,1.014-1.07C75.889,39.433,75.406,38.974,74.878,38.974z"/>
		<path d="M76.186,35.628c-0.015,0-0.027-0.001-0.041-0.001c-0.564,0-0.985,0.398-1.004,0.966c-0.02,0.559,0.42,1.039,0.969,1.063
			c0.013,0.001,0.027,0.001,0.041,0.001c0.539,0,1.016-0.459,1.039-1.009C77.21,36.099,76.77,35.65,76.186,35.628z"/>
		<path d="M21.149,37.135c0.11,0.227,0.204,0.457,0.258,0.583c1.009-0.069,1.954-0.136,2.99-0.208c0.092-0.447,0.205-0.941,0.3-1.44
			c0.057-0.294-0.04-0.523-0.331-0.651c-0.36-0.16-0.71-0.349-1.079-0.488c-0.263-0.1-0.515-0.146-0.757-0.146
			c-0.574,0-1.089,0.263-1.55,0.706c-0.588,0.563-0.576,0.574-0.082,1.221C20.998,36.842,21.079,36.99,21.149,37.135z M22.53,35.695
			c0.138,0,0.28,0.028,0.436,0.088c0.199,0.075,0.405,0.173,0.622,0.277c0.056,0.026,0.111,0.053,0.167,0.079
			c-0.035,0.172-0.07,0.342-0.106,0.509c-0.563,0.039-1.11,0.078-1.666,0.116c-0.004-0.009-0.008-0.017-0.012-0.026
			c-0.076-0.152-0.189-0.373-0.348-0.58c-0.002-0.004-0.006-0.008-0.01-0.013C21.929,35.842,22.228,35.695,22.53,35.695z"/>
		<path d="M27.213,42.99c0.405-0.278,0.622-0.707,0.627-1.17c0.001-0.592-0.093-1.185-0.194-1.769
			c-0.024-0.126-0.241-0.28-0.394-0.314c-0.382-0.083-0.778-0.103-1.167-0.154c-0.045-0.007-0.088-0.01-0.127-0.01
			c-0.146,0-0.244,0.055-0.278,0.268c-0.125,0.795-0.457,1.503-0.943,2.073c0.415,0.599,0.814,1.176,1.28,1.852
			C26.37,43.538,26.799,43.277,27.213,42.99z M26.461,40.543c0.121,0.013,0.237,0.025,0.35,0.041
			c0.067,0.419,0.118,0.832,0.118,1.233c-0.001,0.117-0.043,0.292-0.232,0.423c-0.143,0.099-0.286,0.193-0.427,0.284
			c-0.141-0.203-0.277-0.401-0.413-0.597C26.124,41.501,26.327,41.035,26.461,40.543z"/>
		<path d="M18.753,43.553c0.574,0.241,1.161,0.447,1.739,0.673c0.079,0.031,0.151,0.048,0.217,0.048
			c0.131,0,0.238-0.066,0.333-0.219c0.302-0.482,0.615-0.959,0.939-1.43c0.214-0.313,0.2-0.545-0.097-0.818l-1.246-1.83
			c-0.02-0.078-0.103-0.119-0.197-0.119c-0.051,0-0.104,0.011-0.153,0.035l-1.25,0.544c-0.8,0.239-1.004,0.71-0.878,1.313
			c0.102,0.494,0.192,0.993,0.317,1.482C18.511,43.357,18.634,43.506,18.753,43.553z M19.04,41.412
			C19.04,41.412,19.04,41.413,19.04,41.412c0.011,0.001,0.091-0.052,0.26-0.103l0.053-0.016l0.05-0.021l0.783-0.341l0.923,1.354
			c-0.219,0.323-0.429,0.641-0.631,0.958c-0.102-0.039-0.203-0.078-0.305-0.116c-0.289-0.108-0.577-0.216-0.863-0.332
			c-0.065-0.276-0.121-0.559-0.178-0.841l-0.078-0.39C19.03,41.455,19.04,41.412,19.04,41.412z"/>
		<path d="M64.201,30.628c0.257,1.455,1.177,2.349,2.492,2.885c1.184,0.483,2.426,0.509,3.676,0.406
			c0.716-0.057,1.406-0.198,2.013-0.624c0.519-0.366,0.707-0.842,0.554-1.458c-0.209-0.832-0.805-1.31-1.549-1.612
			c-1.467-0.593-2.959-0.642-4.468-0.146c-0.172-0.491,0.065-0.979,0.569-1.135c0.547-0.17,1.113-0.16,1.58,0.161
			c0.349,0.24,0.363,0.289,0.363,0.289s1.424-0.034,1.78-0.034c0.208,0,0.293,0,0.562,0c-0.172-0.283-1.834-1.48-3.271-1.538
			c-1.015-0.11-2.037-0.018-2.993,0.396C64.423,28.689,63.996,29.489,64.201,30.628z M67.988,30.967
			c0.783-0.123,1.387,0.062,1.74,0.216c0.391,0.174,0.606,0.659,0.51,1.013c-0.118,0.426-0.486,0.525-0.84,0.522
			c-0.438-0.005-1.211,0.011-1.859-0.614C67.154,31.59,67.355,31.101,67.988,30.967z"/>
		<path d="M26.271,33.52l2.839-0.014l0.228-1.208l1.144-0.006l0.036-0.177c0.072-0.303,0.101-0.617,0.156-0.987
			c-0.408,0-0.766,0-1.15,0l0.574-3.425l-2.961-0.001l-4.716,3.121l-0.607,1.489c0,0,3.105,0,4.666,0
			C26.404,32.746,26.341,33.114,26.271,33.52z M24.19,31.183l3.026-2.09l-0.401,2.09H24.19z"/>
	</g>
</g>
<g>
</g>
<g>
</g>
<g>
</g>
<g>
</g>
<g>
</g>
<g>
</g>
<g>
</g>
<g>
</g>
<g>
</g>
<g>
</g>
<g>
</g>
<g>
</g>
<g>
</g>
<g>
</g>
<g>
</g>
</svg>
