<?xml version="1.0" encoding="iso-8859-1"?>
<!-- Generator: Adobe Illustrator 16.0.0, SVG Export Plug-In . SVG Version: 6.00 Build 0)  -->
<!DOCTYPE svg PUBLIC "-//W3C//DTD SVG 1.1//EN" "http://www.w3.org/Graphics/SVG/1.1/DTD/svg11.dtd">
<svg version="1.1" id="Capa_1" xmlns="http://www.w3.org/2000/svg" xmlns:xlink="http://www.w3.org/1999/xlink" x="0px" y="0px"
	 width="97.75px" height="97.75px" viewBox="0 0 97.75 97.75" style="enable-background:new 0 0 97.75 97.75;" xml:space="preserve"
	>
<g>
	<path d="M48.875,0C21.883,0,0,21.883,0,48.875S21.883,97.75,48.875,97.75S97.75,75.867,97.75,48.875S75.867,0,48.875,0z
		 M83.848,59.048c-0.315,3.254-0.91,6.453-2.082,9.533c-0.871,2.291-2.369,3.897-4.606,4.903c-2.406,1.084-4.908,1.82-7.502,2.224
		c-2.392,0.371-4.791,0.681-7.197,0.92c-1.976,0.197-3.961,0.285-5.944,0.365c-2.312,0.092-4.623,0.12-6.935,0.176
		c-0.154,0.004-0.308,0-0.558,0c0.111-0.222,0.175-0.358,0.25-0.487c1-1.733,2.029-3.453,2.994-5.205
		c0.715-1.302,1.795-1.848,3.24-1.91c4.965-0.174,9.748-0.683,12.189-1.103c1.395-0.185,2.746-0.541,4.061-1.094
		c2.039-0.86,3.264-2.347,3.857-4.455c0.521-1.851,0.846-3.726,1.01-5.638c0.365-4.225,0.252-8.455,0.217-12.686
		c-0.021-2.631-0.152-5.27-0.748-7.85c-0.262-1.131-0.627-2.246-1.027-3.339c-0.541-1.45-2.063-3.463-6.771-4.053
		c-2.467-0.331-4.938-0.654-7.418-0.854c-2.793-0.223-5.599-0.328-8.397-0.438c-1.775-0.069-3.553-0.104-5.331-0.063
		c-2.549,0.059-5.098,0.175-7.645,0.315c-1.885,0.104-3.771,0.218-5.641,0.453c-2.004,0.252-4.014,0.56-5.977,1.025
		c-1.074,0.254-3.758,1.041-5.143,4.009c-0.727,1.891-1.105,3.859-1.363,5.86c-0.416,3.235-0.531,6.491-0.475,9.747
		c0.049,2.742,0.195,5.49,0.426,8.228c0.182,2.13,0.629,4.224,1.391,6.239c0.529,1.402,1.443,2.411,2.764,3.115
		c1.502,0.802,3.102,1.272,4.771,1.477c3.082,0.503,5.248,0.676,8.098,0.861c1.373,0.133,2.754,0.187,4.133,0.249
		c1.246,0.058,2.211,0.538,2.846,1.659c1.055,1.862,2.143,3.709,3.215,5.563c0.053,0.095,0.084,0.201,0.139,0.336
		c-0.146,0.015-0.254,0.035-0.361,0.031c-2.902-0.082-5.807-0.134-8.707-0.261c-1.953-0.084-3.908-0.229-5.854-0.43
		c-3.725-0.386-7.441-0.841-10.992-2.115c-0.992-0.354-1.953-0.807-2.904-1.262c-1.703-0.813-2.863-2.146-3.607-3.873
		c-0.977-2.264-1.563-4.635-1.951-7.057c-0.477-2.98-0.734-5.982-0.77-8.998c-0.031-2.639-0.098-5.275-0.041-7.911
		c0.047-2.166,0.197-4.335,0.398-6.495c0.318-3.396,0.932-6.736,2.209-9.932c0.854-2.132,2.322-3.602,4.4-4.556
		c2.438-1.12,4.98-1.866,7.621-2.267c2.361-0.361,4.734-0.675,7.111-0.914c1.961-0.197,3.934-0.313,5.904-0.36
		c3.805-0.096,7.613-0.187,11.419-0.151c2.761,0.024,5.521,0.191,8.273,0.407c2.605,0.202,5.211,0.495,7.801,0.854
		c3.146,0.436,6.203,1.223,9.068,2.666c1.77,0.891,3.023,2.211,3.799,4.027c0.961,2.257,1.547,4.611,1.934,7.021
		c0.48,2.979,0.732,5.98,0.771,8.998c0.033,2.637,0.099,5.274,0.041,7.91C84.201,54.664,84.059,56.861,83.848,59.048z"/>
</g>
<g>
</g>
<g>
</g>
<g>
</g>
<g>
</g>
<g>
</g>
<g>
</g>
<g>
</g>
<g>
</g>
<g>
</g>
<g>
</g>
<g>
</g>
<g>
</g>
<g>
</g>
<g>
</g>
<g>
</g>
</svg>
