<?xml version="1.0" encoding="iso-8859-1"?>
<!-- Generator: Adobe Illustrator 16.0.0, SVG Export Plug-In . SVG Version: 6.00 Build 0)  -->
<!DOCTYPE svg PUBLIC "-//W3C//DTD SVG 1.1//EN" "http://www.w3.org/Graphics/SVG/1.1/DTD/svg11.dtd">
<svg version="1.1" id="Capa_1" xmlns="http://www.w3.org/2000/svg" xmlns:xlink="http://www.w3.org/1999/xlink" x="0px" y="0px"
	 width="97.75px" height="97.75px" viewBox="0 0 97.75 97.75" style="enable-background:new 0 0 97.75 97.75;" xml:space="preserve"
	>
<g>
	<g>
		<path d="M46.718,59.257c0.589-0.026,1.36-0.118,2.364-0.292c0,0,3.82,1.637,3.755,0.539c1.39,1.133,3.198,3.196,3.322,4.342
			c-2.603,0.268-5.861-2.627-5.861-2.627c2.412,9.947,9.15,5.715,9.15,5.715c2.126-5.584-3.736-8.559-5.031-8.609
			c-0.745-0.03-1.537,0.113-2.083,0.24c-0.367-0.467-0.956-1.082-1.841-1.89c0,0-0.417-7.817-1.803-2.995
			c-0.488-1.322-0.927-3.707,1.449-5.299c0,0,2.399,1.534,1.801,5.85l0.274-0.373c5.979-7.216-2.301-11.022-2.301-11.022
			c-6.516,3.416-2.594,9.401-1.294,11.095c-0.159,0.586-0.329,1.33-0.514,2.273c0,0-5.523,3.156-1.572,3.059
			c-0.921,1.164-2.911,3.37-5.868,1.641c0,0-0.415-2.688,4.789-3.727c0,0-10.438-2.318-9.575,6.801
			C43.543,68.943,46.228,61.025,46.718,59.257z"/>
		<path d="M48.875,0C21.882,0,0,21.882,0,48.875S21.882,97.75,48.875,97.75S97.75,75.868,97.75,48.875S75.868,0,48.875,0z
			 M80.348,71.564c0,4.852-3.933,8.783-8.783,8.783H26.185c-4.851,0-8.783-3.933-8.783-8.783V34.48h62.946V71.564z M80.348,31.065
			H17.402v-4.88c0-4.851,3.933-8.783,8.783-8.783h45.379c4.851,0,8.783,3.933,8.783,8.783V31.065z"/>
		<path d="M42.539,55.489c2.26,1.391,5.653-0.024,5.653-0.024s-0.271-3.665-2.531-5.054c-2.259-1.39-4.958-1.104-5.652,0.024
			C39.314,51.564,40.279,54.102,42.539,55.489z"/>
		<path d="M65.832,38.255H31.919v35.506h33.913V38.255z M63.637,71.564H47.765c0.49-0.838,0.95-1.7,1.34-2.558
			c-0.652,0.5-1.344,0.786-1.958,0.786h-0.002c-0.147,0-0.293-0.016-0.432-0.046c-0.239-0.054-0.467-0.163-0.686-0.306
			c-0.39,0.709-0.823,1.426-1.27,2.125H34.115V40.45h29.521V71.564z"/>
		<path d="M44.992,63.866c-0.579,2.588,0.568,5.047,1.861,5.337c1.292,0.288,3.377-1.449,3.958-4.038
			c0.578-2.587-1.861-5.336-1.861-5.336S45.571,61.277,44.992,63.866z"/>
		<path d="M51.504,57.357c0,0,3.393,1.414,5.653,0.024c2.259-1.388,3.224-3.925,2.528-5.055c-0.692-1.128-3.393-1.412-5.65-0.022
			C51.773,53.691,51.504,57.357,51.504,57.357z"/>
	</g>
</g>
<g>
</g>
<g>
</g>
<g>
</g>
<g>
</g>
<g>
</g>
<g>
</g>
<g>
</g>
<g>
</g>
<g>
</g>
<g>
</g>
<g>
</g>
<g>
</g>
<g>
</g>
<g>
</g>
<g>
</g>
</svg>
