<?xml version="1.0" encoding="iso-8859-1"?>
<!-- Generator: Adobe Illustrator 16.0.0, SVG Export Plug-In . SVG Version: 6.00 Build 0)  -->
<!DOCTYPE svg PUBLIC "-//W3C//DTD SVG 1.1//EN" "http://www.w3.org/Graphics/SVG/1.1/DTD/svg11.dtd">
<svg version="1.1" id="Capa_1" xmlns="http://www.w3.org/2000/svg" xmlns:xlink="http://www.w3.org/1999/xlink" x="0px" y="0px"
	 width="97.75px" height="97.75px" viewBox="0 0 97.75 97.75" style="enable-background:new 0 0 97.75 97.75;" xml:space="preserve"
	>
<g>
	<g>
		<path d="M58.592,55.468c-4.765,1.4-6.021,3.681-4.47,8.365c1.612,4.874,4.412,9.072,8.134,12.504
			c4.571,4.215,7.493,3.476,10.479-2.127c0.324-0.61,0.591-1.262,0.807-1.92c1.125-3.442,1.632-6.981,1.836-10.599
			c0.155-2.771-0.417-4.075-2.885-5.349c-2.543-1.312-5.288-1.61-8.336-1.59C62.43,54.727,60.497,54.907,58.592,55.468z
			 M67.344,64.221c0.016,0.377,0.002,0.756,0.002,1.641c-0.033,0.31-0.043,1.138-0.228,1.926c-0.507,2.173-1.783,2.549-3.546,1.124
			c-1.438-1.16-1.926-2.745-1.995-4.481c-0.078-1.882,1.135-3.283,2.813-3.388C66.02,60.939,67.27,62.283,67.344,64.221z"/>
		<path d="M48.91,39.075c-1.897,4.503-5.586,8.063-10.174,9.793c4.58,1.765,8.251,5.358,10.115,9.89
			c1.874-4.512,5.542-8.087,10.114-9.841C54.416,47.15,50.77,43.577,48.91,39.075z"/>
		<path d="M28.094,36.403c0.784,1.925,1.434,3.908,2.31,5.789c0.924,1.981,2.438,2.104,3.82,0.405
			c0.435-0.532,0.775-1.156,1.08-1.776c0.612-1.245,1.136-2.536,1.765-3.772c0.424-0.836,0.861-1.793,2.026-1.728
			c1.237,0.067,1.366,1.17,1.646,2.042c0.432,1.345,0.373,2.818,1.025,4.111c0.329,0.65,0.45,1.55,1.466,1.481
			c0.849-0.058,1.072-0.804,1.336-1.433c0.191-0.463,0.338-0.961,0.403-1.458c0.804-6.075,0.635-12.095-1.112-18.014
			c-0.324-1.098-0.641-2.481-1.962-2.455c-1.061,0.021-1.922,0.936-2.477,2.032c-0.964,1.908-2.03,3.769-3.14,5.597
			c-2.348,3.87-3.627,3.873-6.177,0.087c-1.447-2.149-2.637-4.486-4.438-6.376c-2.237-2.351-4.463-1.898-5.639,1.12
			c-1.193,3.065-1.265,6.298-1.272,9.907c0.144,2.997,0.08,6.4,1.255,9.64c0.301,0.832,0.289,2.134,1.529,2.066
			c1.123-0.062,1.281-1.244,1.541-2.146c0.139-0.481,0.203-0.986,0.293-1.482c0.265-1.492,0.414-3.017,0.816-4.47
			c0.502-1.808,1.854-2.057,3.065-0.637C27.617,35.357,27.883,35.885,28.094,36.403z"/>
		<path d="M31,53.335c-5.259,0.752-10.25,4.724-10.084,12.013c-0.433,3.707,1.851,6.018,4.625,7.944
			c3.641,2.528,7.62,4.239,12.134,4.41c0.413,0.016,0.96,0.127,1.149-0.407c0.19-0.539-0.303-0.766-0.646-1.025
			c-1.161-0.877-2.341-1.729-3.49-2.621c-1.91-1.484-3.761-3.037-4.603-5.422c-1.188-3.367,0.531-5.9,4.063-5.869
			c2.082,0.018,4.16,0.324,6.243,0.367c1.577,0.032,2.196-0.875,1.781-2.318C40.958,56.186,35.362,52.711,31,53.335z"/>
		<path d="M48.875,0C21.882,0,0,21.882,0,48.875S21.882,97.75,48.875,97.75S97.75,75.868,97.75,48.875S75.868,0,48.875,0z
			 M83.236,65.607c0,9.873-8.002,17.875-17.873,17.875c-7.467,0-13.86-4.58-16.535-11.082c-2.688,6.473-9.066,11.024-16.512,11.024
			c-9.871,0-17.874-8.004-17.874-17.875c0-7.651,4.81-14.178,11.569-16.728c-6.698-2.58-11.454-9.073-11.454-16.682
			c0-9.872,8.002-17.874,17.874-17.874c7.455,0,13.844,4.566,16.523,11.055c2.708-6.429,9.065-10.941,16.479-10.941
			c9.871,0,17.873,8.003,17.873,17.875c0,7.616-4.766,14.116-11.478,16.688C78.504,51.539,83.236,58.02,83.236,65.607z"/>
		<path d="M73.35,23.207c-5.434-2.608-11-2.683-16.504-0.306c-2.951,1.274-3.75,3.43-2.779,6.529
			c1.731,5.537,4.904,10.245,9.148,14.059c3.963,3.561,6.861,2.541,9.448-1.817c0.45-0.759,0.812-1.583,1.108-2.412
			c1.283-3.54,1.806-7.226,2.065-11.566C76.111,26.051,75.43,24.208,73.35,23.207z M67.375,34.816
			c-0.314,1.498-1.369,1.891-2.727,1.136c-1.908-1.064-2.582-2.829-2.623-4.262c-0.017-2.719,0.838-3.813,2.572-3.951
			c1.784-0.143,3.053,0.937,3.144,2.948C67.802,32.059,67.657,33.471,67.375,34.816z"/>
	</g>
</g>
<g>
</g>
<g>
</g>
<g>
</g>
<g>
</g>
<g>
</g>
<g>
</g>
<g>
</g>
<g>
</g>
<g>
</g>
<g>
</g>
<g>
</g>
<g>
</g>
<g>
</g>
<g>
</g>
<g>
</g>
</svg>
