<?xml version="1.0" encoding="iso-8859-1"?>
<!-- Generator: Adobe Illustrator 16.0.0, SVG Export Plug-In . SVG Version: 6.00 Build 0)  -->
<!DOCTYPE svg PUBLIC "-//W3C//DTD SVG 1.1//EN" "http://www.w3.org/Graphics/SVG/1.1/DTD/svg11.dtd">
<svg version="1.1" id="Capa_1" xmlns="http://www.w3.org/2000/svg" xmlns:xlink="http://www.w3.org/1999/xlink" x="0px" y="0px"
	 width="97.75px" height="97.75px" viewBox="0 0 97.75 97.75" style="enable-background:new 0 0 97.75 97.75;" xml:space="preserve"
	>
<g>
	<g>
		<path d="M46.904,63.027c-1.648-0.232-3.306-0.354-4.965-0.426l1.676-12.343c0.619-0.299,1.467-0.372,2.575-0.221
			c2.038,0.276,4.565,1.267,7.019,2.224c2.58,1.002,5.243,2.045,7.58,2.361c2.174,0.299,3.877-0.049,5.201-1.057
			c0.384-0.291,0.635-0.719,0.693-1.193l1.76-12.97c0.102-0.722-0.248-1.433-0.879-1.8c-0.207-0.122-0.434-0.198-0.662-0.231
			c-0.469-0.064-0.952,0.057-1.34,0.352c-0.646,0.498-1.598,0.651-2.906,0.475c-1.995-0.269-4.475-1.274-6.867-2.247
			c-2.568-1.038-5.223-2.114-7.604-2.438c-0.735-0.101-1.431-0.124-2.069-0.074c-0.293-0.709-0.945-1.243-1.759-1.353
			c-1.223-0.168-2.345,0.69-2.511,1.911c-0.073,0.54,0.054,1.066,0.329,1.496l-0.05,0.34l-1.758,12.969L38.501,62.54
			c-1.055,0.024-2.105,0.067-3.155,0.155c-0.729,0.059-1.455,0.133-2.174,0.222c-2.271,0.287-4.518,0.716-6.717,1.313
			c-1.099,0.3-2.191,0.629-3.254,1.027c-1.066,0.391-2.124,0.814-3.137,1.346c2.253-0.277,4.471-0.471,6.687-0.601
			c2.211-0.135,4.414-0.209,6.602-0.209c0.526,0,1.049,0,1.568,0.011c1.349,0.014,2.702,0.064,4.036,0.139
			c2.496,0.143,4.971,0.375,7.432,0.726c4.298,0.615,8.535,1.563,12.691,2.892c4.166,1.313,8.23,3.025,12.324,4.957
			c-3.221-3.197-7.11-5.732-11.279-7.65C55.945,64.95,51.463,63.671,46.904,63.027z"/>
		<path d="M48.875,0C21.883,0,0,21.882,0,48.875S21.883,97.75,48.875,97.75S97.75,75.868,97.75,48.875S75.867,0,48.875,0z
			 M83.182,29.987l-6.563,46.535c-0.606,4.279-4.567,7.263-8.853,6.66l-46.534-6.567c-4.279-0.607-7.27-4.567-6.662-8.853
			l6.568-46.533c0.602-4.283,4.563-7.268,8.85-6.659l46.532,6.566C80.809,21.741,83.784,25.703,83.182,29.987z"/>
	</g>
</g>
<g>
</g>
<g>
</g>
<g>
</g>
<g>
</g>
<g>
</g>
<g>
</g>
<g>
</g>
<g>
</g>
<g>
</g>
<g>
</g>
<g>
</g>
<g>
</g>
<g>
</g>
<g>
</g>
<g>
</g>
</svg>
