<?xml version="1.0" encoding="iso-8859-1"?>
<!-- Generator: Adobe Illustrator 16.0.0, SVG Export Plug-In . SVG Version: 6.00 Build 0)  -->
<!DOCTYPE svg PUBLIC "-//W3C//DTD SVG 1.1//EN" "http://www.w3.org/Graphics/SVG/1.1/DTD/svg11.dtd">
<svg version="1.1" id="Capa_1" xmlns="http://www.w3.org/2000/svg" xmlns:xlink="http://www.w3.org/1999/xlink" x="0px" y="0px"
	 width="97.75px" height="97.75px" viewBox="0 0 97.75 97.75" style="enable-background:new 0 0 97.75 97.75;" xml:space="preserve"
	>
<g>
	<g>
		<path d="M48.875,0C21.882,0,0,21.883,0,48.875S21.882,97.75,48.875,97.75S97.75,75.867,97.75,48.875S75.868,0,48.875,0z
			 M48.894,80.97h-0.039C32.26,78.503,12.713,58.371,12.713,40.869c0-14.724,6.496-24.089,20.981-24.089
			c7.207,0,12.023,2.918,15.179,7.783c3.154-4.865,7.973-7.783,15.182-7.783c14.483,0,20.98,9.365,20.98,24.089
			C85.036,58.371,65.488,78.503,48.894,80.97z"/>
		<path d="M42.529,39.813c-0.64-0.664-1.336-1.163-2.09-1.495s-1.56-0.498-2.419-0.498c-1.866,0-3.452,0.723-4.758,2.167
			c-1.307,1.447-1.959,3.3-1.959,5.563c0,2.182,0.675,4.007,2.024,5.476c1.35,1.467,2.948,2.201,4.798,2.201
			c0.823,0,1.588-0.149,2.294-0.451c0.705-0.301,1.408-0.791,2.109-1.475v1.549h3.593V38.197h-3.593L42.529,39.813L42.529,39.813z
			 M41.572,48.654c-0.743,0.803-1.678,1.205-2.807,1.205c-1.093,0-2.013-0.408-2.762-1.227c-0.748-0.816-1.121-1.858-1.121-3.124
			c0-1.256,0.367-2.288,1.103-3.091c0.734-0.804,1.657-1.206,2.768-1.206c1.137,0,2.076,0.396,2.819,1.186
			c0.743,0.791,1.115,1.823,1.115,3.097C42.688,46.799,42.315,47.851,41.572,48.654z"/>
		<path d="M30.117,37.842h-3.322c-0.979,1.465-1.684,2.906-2.112,4.32c-0.43,1.415-0.644,3.063-0.644,4.946
			c0,1.919,0.203,3.589,0.609,5.007c0.406,1.419,1.121,2.939,2.146,4.566h3.322c-1.153-1.428-1.971-2.754-2.458-3.977
			c-0.621-1.588-0.932-3.43-0.932-5.521c0-1.934,0.28-3.652,0.84-5.156C28.127,40.523,28.978,39.129,30.117,37.842z"/>
		<path d="M53.283,38.409c-0.553,0.391-0.995,0.966-1.328,1.721v-1.918h-3.081v15.231h3.565v-6.158l-0.013-0.742
			c0-2.129,0.191-3.556,0.572-4.285c0.383-0.727,0.849-1.091,1.401-1.091c0.271,0,0.619,0.111,1.039,0.335l1.121-3.29
			c-0.511-0.261-0.998-0.392-1.463-0.392C54.441,37.82,53.836,38.016,53.283,38.409z"/>
		<polygon points="63.003,32.598 59.409,32.598 59.409,38.212 57.566,38.212 57.566,41.502 59.409,41.502 59.409,53.443 
			63.003,53.443 63.003,41.502 65.135,41.502 65.135,38.212 63.003,38.212 		"/>
		<path d="M70.438,37.842h-3.322c1.152,1.435,1.973,2.762,2.459,3.985c0.621,1.581,0.932,3.418,0.932,5.512
			c0,1.938-0.279,3.66-0.84,5.161c-0.561,1.502-1.411,2.896-2.551,4.184h3.322c0.979-1.468,1.685-2.908,2.112-4.322
			c0.431-1.416,0.646-3.063,0.646-4.945c0-1.92-0.205-3.59-0.61-5.008C72.18,40.988,71.463,39.467,70.438,37.842z"/>
	</g>
</g>
<g>
</g>
<g>
</g>
<g>
</g>
<g>
</g>
<g>
</g>
<g>
</g>
<g>
</g>
<g>
</g>
<g>
</g>
<g>
</g>
<g>
</g>
<g>
</g>
<g>
</g>
<g>
</g>
<g>
</g>
</svg>
