<?xml version="1.0" encoding="iso-8859-1"?>
<!-- Generator: Adobe Illustrator 16.0.0, SVG Export Plug-In . SVG Version: 6.00 Build 0)  -->
<!DOCTYPE svg PUBLIC "-//W3C//DTD SVG 1.1//EN" "http://www.w3.org/Graphics/SVG/1.1/DTD/svg11.dtd">
<svg version="1.1" id="Capa_1" xmlns="http://www.w3.org/2000/svg" xmlns:xlink="http://www.w3.org/1999/xlink" x="0px" y="0px"
	 width="97.75px" height="97.75px" viewBox="0 0 97.75 97.75" style="enable-background:new 0 0 97.75 97.75;" xml:space="preserve"
	>
<g>
	<g>
		<path d="M35.062,60.346c-1.298-0.191-3.992-0.832-6.098-1.304c3.045,9.896,11.474,17.418,21.813,19.072
			c-0.117-0.05-0.235-0.097-0.353-0.146C38.948,71.23,35.062,60.346,35.062,60.346z"/>
		<path d="M32.05,45.175c-2.33,2.258-3.57,5.386-4.22,7.822c0.103,1.351,0.3,2.674,0.589,3.965l5.87,0.965
			C34.289,57.927,32.302,51.973,32.05,45.175z"/>
		<path d="M32.155,38.507c0,0-0.072-1.049,0.104-2.799c-1.059,1.617-1.95,3.352-2.657,5.182
			C30.728,39.648,31.689,38.867,32.155,38.507z"/>
		<path d="M48.875,0C21.882,0,0,21.883,0,48.875S21.882,97.75,48.875,97.75S97.75,75.867,97.75,48.875S75.868,0,48.875,0z
			 M83.566,56.966c-3.141,9.302-7.481,15.388-17.416,20.908c-0.914,0.649-1.898,1.222-2.873,1.554
			c-1.789,0.615-3.711,0.76-5.695,0.555c-0.829,0.072-1.668,0.11-2.518,0.11c-13.323,0-24.544-9.075-27.92-21.438
			c-0.114-0.021-0.226-0.041-0.325-0.062c0,0-0.801,6.279,3.861,14.758c0.275,0.435,1.858,2.858,1.858,2.858
			s-8.867-4.687-9.112-18.597c-2.125-0.778-9.541-3.291-10.816-5.348c5.797,3.161,10.755,3.789,10.755,3.789
			s-0.033-0.035,0.081-1.121c0.483-4.222,1.799-7.56,3.28-10.104c0.995-4.772,3.146-9.114,6.14-12.718
			c0.509-2.177,1.365-4.753,2.809-7.476c0.628-1.185,1.223-1.943,2.826-2.691c10.606-4.938,21.09-6.205,31.812-0.623
			c10.285,5.359,15.896,16.584,14.658,28.244C84.718,51.95,84.312,54.676,83.566,56.966z"/>
		<path d="M55.064,23.295c-6.979,0-13.354,2.658-18.188,7.021c-0.748,1.436-1.236,3.254-1.556,5.582c0,0,7.413-6.304,20.671-4.742
			c3.317,0.142,2.926,3.062,2.896,3.962c-12.083-0.995-17.988,2.446-23.854,7.452c1.132,11.147,3.812,15.685,3.812,15.685
			s15.27,0.707,26.881-7.595c1.463-1.073,2.703-1.151,3.017,0.658c0.183,1.478,0.338,3.437-1.341,4.218
			c-5.094,2.368-10.711,3.885-16.303,4.683c-3.627,0.518-5.625,0.667-11.04,0.553c0,0,5.164,11.987,18.06,15.254
			c4.058,0.666,7.126,0.168,9.173-0.494c8.943-4.537,15.1-13.881,15.1-24.654C82.391,35.668,70.133,23.295,55.064,23.295z"/>
	</g>
</g>
<g>
</g>
<g>
</g>
<g>
</g>
<g>
</g>
<g>
</g>
<g>
</g>
<g>
</g>
<g>
</g>
<g>
</g>
<g>
</g>
<g>
</g>
<g>
</g>
<g>
</g>
<g>
</g>
<g>
</g>
</svg>
