<?xml version="1.0" encoding="iso-8859-1"?>
<!-- Generator: Adobe Illustrator 16.0.0, SVG Export Plug-In . SVG Version: 6.00 Build 0)  -->
<!DOCTYPE svg PUBLIC "-//W3C//DTD SVG 1.1//EN" "http://www.w3.org/Graphics/SVG/1.1/DTD/svg11.dtd">
<svg version="1.1" id="Capa_1" xmlns="http://www.w3.org/2000/svg" xmlns:xlink="http://www.w3.org/1999/xlink" x="0px" y="0px"
	 width="97.75px" height="97.75px" viewBox="0 0 97.75 97.75" style="enable-background:new 0 0 97.75 97.75;" xml:space="preserve"
	>
<g>
	<path d="M48.875,0C21.882,0,0,21.882,0,48.875S21.882,97.75,48.875,97.75S97.75,75.868,97.75,48.875S75.868,0,48.875,0z
		 M25.052,75.207c-5.396-0.001-9.711-4.316-9.685-9.734c0.026-5.548,4.608-9.684,9.847-9.619c5.19,0.062,9.489,4.389,9.489,9.668
		C34.703,70.893,30.402,75.208,25.052,75.207z M28.538,49.417c-4.504-0.058-8.031-3.703-7.893-8.292
		c0.134-4.392,3.722-7.669,7.998-7.681c4.512,0.071,8.033,3.692,7.949,8.174C36.513,45.947,32.871,49.473,28.538,49.417z
		 M44.239,33.985c-3.178,0.576-6.197-1.467-6.761-4.572c-0.587-3.244,1.489-6.188,4.783-6.784c0.084-0.015,0.187,0.019,0.238-0.086
		c0.411,0,0.825,0,1.236,0c0.283,0.159,0.609,0.144,0.912,0.224c2.567,0.684,4.375,3.136,4.256,5.792
		C48.783,31.234,46.82,33.518,44.239,33.985z M63.04,27.3c-0.34,2.158-2.047,3.609-4.244,3.605
		c-2.009-0.004-3.764-1.532-4.065-3.542c-0.33-2.175,1.065-4.225,3.223-4.734c0.083-0.02,0.186,0.007,0.242-0.086
		c0.464,0,0.929,0,1.393,0c0.168,0.132,0.381,0.122,0.571,0.183C62.083,23.335,63.348,25.34,63.04,27.3z M71.059,35.377
		c-1.477,0.003-2.645-1.145-2.646-2.6c-0.003-1.464,1.156-2.64,2.607-2.646c1.465-0.007,2.638,1.151,2.639,2.607
		C73.659,34.221,72.521,35.375,71.059,35.377z M78.303,43.095c-0.867,0.001-1.555-0.698-1.552-1.581
		c0.002-0.88,0.704-1.581,1.567-1.563c0.873,0.018,1.547,0.718,1.537,1.599C79.846,42.404,79.152,43.095,78.303,43.095z
		 M81.343,50.543c-0.597,0.005-1.063-0.441-1.077-1.029c-0.016-0.574,0.463-1.063,1.045-1.07c0.588-0.006,1.062,0.451,1.072,1.037
		C82.393,50.072,81.938,50.538,81.343,50.543z"/>
</g>
<g>
</g>
<g>
</g>
<g>
</g>
<g>
</g>
<g>
</g>
<g>
</g>
<g>
</g>
<g>
</g>
<g>
</g>
<g>
</g>
<g>
</g>
<g>
</g>
<g>
</g>
<g>
</g>
<g>
</g>
</svg>
