<?xml version="1.0" encoding="iso-8859-1"?>
<!-- Generator: Adobe Illustrator 16.0.0, SVG Export Plug-In . SVG Version: 6.00 Build 0)  -->
<!DOCTYPE svg PUBLIC "-//W3C//DTD SVG 1.1//EN" "http://www.w3.org/Graphics/SVG/1.1/DTD/svg11.dtd">
<svg version="1.1" id="Capa_1" xmlns="http://www.w3.org/2000/svg" xmlns:xlink="http://www.w3.org/1999/xlink" x="0px" y="0px"
	 width="97.75px" height="97.75px" viewBox="0 0 97.75 97.75" style="enable-background:new 0 0 97.75 97.75;" xml:space="preserve"
	>
<g>
	<path d="M48.875,0C21.882,0,0,21.883,0,48.875S21.882,97.75,48.875,97.75S97.75,75.867,97.75,48.875S75.868,0,48.875,0z
		 M41.221,48.637c1.689-0.625,3.383-1.237,5.071-1.862c0.284-0.105,0.439-0.116,0.569,0.243c1.438,3.973,2.897,7.938,4.351,11.905
		c0.036,0.101,0.052,0.208,0.076,0.313c0.063,0.231-0.095,0.293-0.265,0.354c-1.854,0.675-3.708,1.349-5.556,2.037
		c-0.432,0.162-0.463-0.153-0.555-0.399c-0.641-1.73-1.278-3.463-1.911-5.194c-0.758-2.072-1.534-4.14-2.255-6.226
		C40.411,48.835,40.244,48.998,41.221,48.637z M32.254,51.896c1.838-0.66,3.67-1.33,5.504-1.998
		c0.061-0.022,0.121-0.047,0.172-0.066c0.256-0.062,0.296,0.134,0.353,0.289c1.302,3.564,2.601,7.131,3.901,10.695
		c0.154,0.425,0.314,0.846,0.469,1.268c0.115,0.314,0.138,0.514-0.295,0.664c-1.78,0.62-3.545,1.288-5.305,1.967
		c-0.47,0.182-0.598-0.045-0.73-0.41c-0.962-2.658-1.934-5.314-2.902-7.972c-0.465-1.271-0.92-2.542-1.405-3.804
		C31.889,52.202,31.897,52.023,32.254,51.896z M49.902,82.421c-3.268,0.876-6.53,1.123-9.825,0.401
		c-5.77-1.266-10.154-4.471-13.117-9.603c-1.34-2.319-2.152-4.856-3.1-7.34c-0.344-0.903-0.668-1.813-1.012-2.716
		c-0.146-0.383-0.111-0.58,0.354-0.742c2.448-0.857,4.886-1.751,7.312-2.672c0.493-0.188,0.651-0.092,0.825,0.386
		c1.051,2.882,2.094,5.773,3.637,8.435c1.916,3.301,4.902,5.011,8.648,5.244c4.066,0.256,7.422-1.248,9.739-4.668
		c1.96-2.892,2.318-6.074,1.404-9.436c-0.67-2.467-1.517-4.871-2.442-7.249c-0.155-0.399-0.146-0.647,0.335-0.817
		c2.507-0.886,5.008-1.789,7.501-2.715c0.342-0.128,0.448-0.052,0.556,0.25c1.248,3.559,2.71,7.045,3.572,10.729
		c0.268,1.134,0.275,2.304,0.293,2.957C64.669,71.57,58.814,80.029,49.902,82.421z M74.88,16.388
		c-1.087,2.526-2.153,5.063-3.188,7.613c-0.192,0.477-0.379,0.525-0.836,0.38c-4.018-1.28-7.733-0.603-10.854,2.183
		c-3.278,2.926-4.253,6.703-3.258,10.982c0.625,2.689,1.623,5.259,2.58,7.838c0.186,0.503,0.032,0.614-0.382,0.762
		c-2.486,0.895-4.969,1.805-7.449,2.722c-0.303,0.11-0.479,0.146-0.614-0.237c-1.104-3.075-2.318-6.116-3.212-9.261
		c-1.214-4.271-0.942-8.513,0.876-12.556c7.181-15.983,23.19-12.2,25.991-11.189C74.98,15.786,75.08,15.925,74.88,16.388z"/>
</g>
<g>
</g>
<g>
</g>
<g>
</g>
<g>
</g>
<g>
</g>
<g>
</g>
<g>
</g>
<g>
</g>
<g>
</g>
<g>
</g>
<g>
</g>
<g>
</g>
<g>
</g>
<g>
</g>
<g>
</g>
</svg>
