<?xml version="1.0" encoding="iso-8859-1"?>
<!-- Generator: Adobe Illustrator 16.0.0, SVG Export Plug-In . SVG Version: 6.00 Build 0)  -->
<!DOCTYPE svg PUBLIC "-//W3C//DTD SVG 1.1//EN" "http://www.w3.org/Graphics/SVG/1.1/DTD/svg11.dtd">
<svg version="1.1" id="Capa_1" xmlns="http://www.w3.org/2000/svg" xmlns:xlink="http://www.w3.org/1999/xlink" x="0px" y="0px"
	 width="97.75px" height="97.75px" viewBox="0 0 97.75 97.75" style="enable-background:new 0 0 97.75 97.75;" xml:space="preserve"
	>
<g>
	<g>
		<path d="M55.646,47.542c-0.272-0.59-0.75-0.882-1.385-0.879c-0.666,0.003-1.156,0.314-1.414,0.94
			c-0.088,0.21-0.164,0.426-0.207,0.648c-0.318,1.582-0.24,3.179-0.16,4.772c0.031,0.625,0.127,1.246,0.408,1.819
			c0.285,0.585,0.762,0.853,1.402,0.847c0.636-0.006,1.087-0.301,1.352-0.873c0.094-0.205,0.182-0.42,0.217-0.646
			c0.16-0.995,0.215-1.963,0.201-2.958c0-0.536,0-1.072-0.031-1.605C55.991,48.902,55.947,48.199,55.646,47.542z"/>
		<path d="M44.855,47.2c-0.353-0.688-0.996-0.975-1.744-0.791c-0.762,0.188-1.051,0.785-1.221,1.46
			c-0.274,1.083-0.305,2.191-0.276,3.295c0,0.616,0.043,1.232,0.068,1.847c0.025,0.649,0.105,1.294,0.343,1.908
			c0.279,0.722,0.778,1.079,1.496,1.079c0.682-0.001,1.154-0.344,1.438-1.055c0.141-0.351,0.225-0.717,0.28-1.088
			c0.206-1.406,0.178-2.82,0.113-4.231C45.317,48.796,45.244,47.96,44.855,47.2z"/>
		<path d="M34.129,47.282c-0.369-0.802-1.184-1.134-1.992-0.811c-0.618,0.247-0.861,0.783-1.011,1.372
			c-0.278,1.093-0.254,2.214-0.266,3.329c-0.023,0.697,0.01,1.391,0.065,2.083c0.054,0.681,0.134,1.363,0.478,1.978
			c0.295,0.525,0.759,0.769,1.353,0.764c0.601-0.004,1.042-0.275,1.318-0.812c0.12-0.236,0.216-0.478,0.271-0.734
			c0.388-1.85,0.322-3.715,0.169-5.581C34.469,48.32,34.36,47.784,34.129,47.282z"/>
		<path d="M74.907,39.571c-1.003,0.011-2.485,0.009-3.487,0l-0.006,3.035h3.49L74.907,39.571z"/>
		<path d="M24.018,48.91c0.012-0.536-0.067-1.069-0.299-1.565c-0.256-0.548-0.681-0.834-1.295-0.829
			c-0.898,0.007-1.456,0.469-1.709,1.464c-0.276,1.083-0.245,2.193-0.246,3.297c0,0.375-0.014,0.753,0.002,1.128
			c0.039,0.853,0.053,1.71,0.36,2.524c0.277,0.735,0.754,1.072,1.496,1.067c0.702-0.005,1.172-0.363,1.436-1.099
			c0.206-0.576,0.265-1.178,0.26-1.782l-0.011-0.347c0.878,0.017,2.485-0.01,3.363,0.015l-0.016-0.361
			c-0.067-0.956-0.058-1.915,0.032-2.868l0.019-0.302l-3.399-0.002L24.018,48.91z"/>
		<path d="M83.367,43.435l0.484,9.52c0.707-0.014,1.877-0.01,2.584-0.003l0.479-9.551l0.009-3.833h-3.558L83.367,43.435z"/>
		<path d="M48.875,0C21.882,0,0,21.882,0,48.875S21.882,97.75,48.875,97.75S97.75,75.868,97.75,48.875S75.868,0,48.875,0z
			 M59.15,55.452c-0.082,0.282-0.197,0.558-0.309,0.832c-1.076,2.655-4.904,2.798-6.244,0.711c-0.033-0.052-0.078-0.099-0.175-0.22
			v0.41c0,1.662-0.004,3.725,0.005,5.387h-3.562c0.008-2.779,0.004-5.959,0.004-8.739v-0.375c-0.013-0.002-0.027-0.003-0.04-0.005
			c-0.089,0.417-0.158,0.84-0.27,1.251c-0.677,2.495-2.219,3.672-4.854,3.717c-0.756,0.013-1.506-0.026-2.239-0.226
			c-1.709-0.461-2.585-1.682-3.007-3.312c-0.134-0.519-0.212-1.049-0.278-1.582c-0.008-0.068,0.034-0.165-0.117-0.22
			c-0.063,0.819-0.221,1.599-0.504,2.347c-0.61,1.621-1.76,2.59-3.479,2.875c-1.035,0.172-2.07,0.176-3.096-0.037
			c-1.729-0.357-2.75-1.467-3.219-3.127c-0.121-0.429-0.21-0.867-0.37-1.296c-0.058,0.314-0.104,0.632-0.173,0.943
			c-0.463,2.134-1.812,3.34-3.98,3.571c-1.076,0.113-2.143,0.097-3.184-0.229c-1.498-0.468-2.283-1.585-2.701-3.021
			c-0.135-0.461-0.22-0.936-0.374-1.399c-0.058,0.302-0.102,0.608-0.174,0.908c-0.398,1.649-1.415,2.77-3.007,3.315
			c-1.848,0.633-3.74,0.663-5.626,0.168c-1.932-0.51-2.941-1.838-3.229-3.77c-0.087-0.59-0.064-1.184-0.073-1.777l0.014-0.213h3.692
			l-0.01,0.235c-0.012,0.536-0.004,1.071,0.132,1.598c0.221,0.843,0.756,1.32,1.613,1.461c0.65,0.107,1.276,0.081,1.854-0.26
			c0.774-0.454,1.127-1.384,0.977-2.419c-0.121-0.83-0.592-1.383-1.293-1.783c-0.856-0.488-1.805-0.751-2.715-1.105
			c-0.797-0.312-1.566-0.681-2.249-1.209c-0.845-0.652-1.394-1.49-1.613-2.541c-0.238-1.147-0.225-2.294,0.101-3.418
			c0.509-1.76,1.723-2.804,3.473-3.229c1.423-0.348,2.857-0.312,4.267,0.075c2.095,0.575,3.27,2.143,3.308,4.355l0.014,0.78
			l-3.571,0.001l0.008-0.341c0.013-0.225-0.03-0.456-0.072-0.68c-0.31-1.571-1.417-1.897-2.714-1.573
			c-0.571,0.143-0.979,0.521-1.128,1.087c-0.383,1.442-0.061,2.522,1.248,3.136c1.018,0.479,2.056,0.915,3.09,1.363
			c0.986,0.428,1.942,0.902,2.686,1.714c0.405,0.44,0.661,0.965,0.897,1.513c0.042-0.6,0.066-1.201,0.127-1.801
			c0.104-0.992,0.324-1.957,0.782-2.853c0.81-1.581,2.166-2.317,3.882-2.465c1.007-0.084,2.011-0.054,2.963,0.339
			c1.711,0.708,2.469,2.098,2.717,3.844c0.022,0.159,0.039,0.367,0.062,0.525c0.01,0.043,0.042-0.002,0.042-0.002
			s0.182-0.821,0.297-1.225c0.608-2.126,1.917-3.242,4.106-3.474c0.829-0.088,1.664-0.079,2.489,0.073
			c1.875,0.341,2.937,1.524,3.419,3.309c0.177,0.65,0.257,1.316,0.365,1.982c0.108-0.56,0.179-1.121,0.323-1.669
			c0.4-1.517,1.159-2.746,2.691-3.351c0.876-0.346,1.797-0.402,2.725-0.387c0.616,0.01,1.229,0.075,1.824,0.255
			c1.563,0.475,2.404,1.605,2.828,3.114c0.134,0.481,0.217,0.976,0.333,1.47c0.004-0.098,0.012-0.195,0.012-0.293l-0.007-4.194
			l3.402,0.001v1.462c0.28-0.38,0.492-0.699,0.775-0.956c1.757-1.594,4.723-0.983,5.76,1.19c0.535,1.121,0.713,2.327,0.782,3.55
			C59.697,51.53,59.701,53.514,59.15,55.452z M64.125,58.061h-3.404v-4.01l3.404-0.004V58.061z M65.454,62.585v-27.42h27.421v27.42
			H65.454z"/>
		<path d="M80.245,39.571l-3.546-0.002l0.005,4.682L71.4,44.25l0.008,6.885l0.001,6.893h3.521L74.92,46.68l1.777-0.001l-0.004,8.146
			c0,0.411,0.025,0.821,0.078,1.229c0.147,1.172,0.648,1.777,1.737,1.993c1.2,0.238,2.569,0.115,3.773-0.014l0.005-2.425
			c-0.081,0.002-0.809,0.002-0.889,0c-0.781-0.027-1.141-0.357-1.145-1.139l-0.01-7.791l2.043,0.001l0.001-2.417l-2.046-0.001
			L80.245,39.571z"/>
		<rect x="83.368" y="54.619" width="3.541" height="3.404"/>
	</g>
</g>
<g>
</g>
<g>
</g>
<g>
</g>
<g>
</g>
<g>
</g>
<g>
</g>
<g>
</g>
<g>
</g>
<g>
</g>
<g>
</g>
<g>
</g>
<g>
</g>
<g>
</g>
<g>
</g>
<g>
</g>
</svg>
