<?xml version="1.0" encoding="iso-8859-1"?>
<!-- Generator: Adobe Illustrator 16.0.0, SVG Export Plug-In . SVG Version: 6.00 Build 0)  -->
<!DOCTYPE svg PUBLIC "-//W3C//DTD SVG 1.1//EN" "http://www.w3.org/Graphics/SVG/1.1/DTD/svg11.dtd">
<svg version="1.1" id="Capa_1" xmlns="http://www.w3.org/2000/svg" xmlns:xlink="http://www.w3.org/1999/xlink" x="0px" y="0px"
	 width="97.75px" height="97.75px" viewBox="0 0 97.75 97.75" style="enable-background:new 0 0 97.75 97.75;" xml:space="preserve"
	>
<g>
	<g>
		<path d="M65.756,42.674c1.389-0.228,1.047-1.15,0.957-1.352c-0.059-0.146-0.531-1.146-1.66-0.301
			c0.006-0.006-1.001,0.756-0.771,1.289C64.507,42.843,65.764,42.673,65.756,42.674z"/>
		<path d="M61.725,62.598c-0.679,0.416-3.815,2.066-5.276-2.793c0.002,0.006-0.097-0.354-0.193-0.894l-1.302-0.271l2.152,19.524
			l20.695-14.808L63.529,60.42C63.178,61.691,62.001,62.441,61.725,62.598z"/>
		<path d="M66.49,49.391c0.009-0.002-1.342,0.006-1.488,0.608s1.039,1.261,1.032,1.257c1.337,0.693,1.634-0.314,1.685-0.545
			C67.762,50.548,67.996,49.389,66.49,49.391z"/>
		<path d="M61.12,58.343c0.128-0.075,0.999-0.661,0.048-1.601c0.005,0.005-0.916-0.782-1.383-0.494
			c-0.469,0.289-0.068,1.396-0.069,1.391C60.128,58.908,60.943,58.457,61.12,58.343z"/>
		<path d="M50.078,57.63c0.596,1.2,0.884,2.494,0.879,2.478c1.078,4.963-2.909,5.021-3.475,4.998
			c-0.775-0.008-4.158-0.258-3.088-4.814l-17.76,10.828l28.776,7.422l-2.221-20.266L50.078,57.63z"/>
		<path d="M40.036,53.23c-1.518,0.705-0.83,1.651-0.663,1.854c0.114,0.148,0.977,1.141,1.998-0.188
			c-0.004,0.009,0.834-1.256,0.403-1.793C41.344,52.566,40.028,53.232,40.036,53.23z"/>
		<path d="M37.9,46.757c-0.009,0.003,1.323-0.33,1.323-0.959s-1.33-0.996-1.323-0.993c-1.485-0.363-1.536,0.705-1.533,0.944
			C36.366,45.919,36.413,47.12,37.9,46.757z"/>
		<polygon points="52.997,56.486 51.916,46.42 48.082,45.37 49.686,55.8 		"/>
		<path d="M48.587,60.348c0.172,0.014,1.39,0.047,1.12-1.479c0.004,0.009-0.336-1.353-0.971-1.396c-0.637-0.041-1.003,1.272-1,1.266
			C47.271,60.214,48.346,60.336,48.587,60.348z"/>
		<path d="M47.888,55.641c0.015,0,0.026,0.002,0.041,0.004l-1.655-10.771l-31.421-8.611l10.208,33.834l20.432-12.483
			C46.08,56.587,46.897,55.615,47.888,55.641z M32.088,46.982c-0.013-0.795,0.156-4.336,5.086-3.131
			c-0.023-0.008,4.386,1.206,4.386,3.294c0,2.089-4.415,3.193-4.386,3.183C32.238,51.532,32.079,47.549,32.088,46.982z
			 M41.911,57.889c-3.099,4.025-5.714,1.016-6.061,0.567c-0.508-0.612-2.589-3.481,2.013-5.622c-0.023,0.007,3.965-2.016,5.27-0.385
			C44.438,54.08,41.896,57.916,41.911,57.889z"/>
		<path d="M48.541,28.141c0.787-0.113,4.234-0.38,3.646,4.66c0.006-0.024-0.441,4.396-2.515,4.653
			c-1.286,0.16-2.532-1.307-3.194-2.518l1.318,8.581l4.729,1.295l25.258-19.099l-33.826-6.644l1.749,10.833
			C46.441,28.461,48.181,28.179,48.541,28.141z M54.049,33.501c1.35-4.897,4.908-3.097,5.398-2.811
			c0.699,0.374,3.711,2.246,0.259,5.964c-0.288,0.36-3.403,3.074-5.229,2.057C52.654,37.694,54.053,33.471,54.049,33.501z"/>
		<path d="M40.51,36.356c-0.01-0.002,1.188,0.502,1.523-0.009c0.338-0.513-0.282-1.364-0.48-1.578
			c-1.013-1.089-1.625-0.25-1.749-0.052C39.709,34.854,39.106,35.856,40.51,36.356z"/>
		<path d="M45.988,43.02l-3.627-23.603l-26.23,15.419L45.988,43.02z M42.585,34.583c0.677,0.728,2.788,3.633,1.64,5.378
			c-1.147,1.746-5.23,0.025-5.199,0.033c-4.785-1.705-2.729-5.122-2.408-5.589C37.041,33.732,39.129,30.867,42.585,34.583z"/>
		<path d="M48.809,31.791c-0.005-0.006,0.378,0.612,1.061,0.388c0.553-0.182,0.657-1.167,0.646-1.282
			c-0.035-1.27-1.002-1.079-1.218-1.024C49.553,29.815,47.842,30.081,48.809,31.791z"/>
		<path d="M57.477,33.588c0.446,0.272,1.252-0.376,1.33-0.463c0.898-0.896,0.164-1.395-0.01-1.495
			c-0.148-0.095-1.174-0.72-1.59,0.586C57.182,32.331,56.83,33.194,57.477,33.588z"/>
		<path d="M48.875,0C21.883,0,0,21.882,0,48.875S21.883,97.75,48.875,97.75S97.75,75.868,97.75,48.875S75.867,0,48.875,0z
			 M82.648,64.953L56.736,83.479l-35.299-9.086L9.102,33.505l32.72-19.234l40.827,8.301V64.953L82.648,64.953z"/>
		<path d="M54.76,56.852l1.307,0.271c-0.021-1.13,0.18-2.293,0.994-2.771c1.801-1.06,4.99,2.187,4.967,2.168
			c0.762,0.781,1.201,1.494,1.424,2.136L78.98,61.66l0.031-34.906L53.607,46.141L54.76,56.852z M69.092,52.631
			c-0.173,0.775-1.176,4.176-5.68,1.838c0.021,0.014-3.979-2.209-3.484-4.238c0.495-2.03,5.047-2.057,5.018-2.054
			C70.025,48.174,69.236,52.083,69.092,52.631z M62.635,40.449c4.067-3.042,5.776,0.56,5.988,1.086
			c0.325,0.726,1.557,4.049-3.45,4.873c0.024-0.001-4.509,0.611-5.327-1.312C59.025,43.174,62.657,40.429,62.635,40.449z"/>
	</g>
</g>
<g>
</g>
<g>
</g>
<g>
</g>
<g>
</g>
<g>
</g>
<g>
</g>
<g>
</g>
<g>
</g>
<g>
</g>
<g>
</g>
<g>
</g>
<g>
</g>
<g>
</g>
<g>
</g>
<g>
</g>
</svg>
