<?xml version="1.0" encoding="iso-8859-1"?>
<!-- Generator: Adobe Illustrator 16.0.0, SVG Export Plug-In . SVG Version: 6.00 Build 0)  -->
<!DOCTYPE svg PUBLIC "-//W3C//DTD SVG 1.1//EN" "http://www.w3.org/Graphics/SVG/1.1/DTD/svg11.dtd">
<svg version="1.1" id="Capa_1" xmlns="http://www.w3.org/2000/svg" xmlns:xlink="http://www.w3.org/1999/xlink" x="0px" y="0px"
	 width="97.75px" height="97.75px" viewBox="0 0 97.75 97.75" style="enable-background:new 0 0 97.75 97.75;" xml:space="preserve"
	>
<g>
	<g>
		<path d="M33.989,41.005c-1.027-0.005-1.858,0.983-1.911,2.267c-0.056,1.395,0.935,2.704,2.049,2.706
			c1.072,0.002,1.841-0.937,1.863-2.272C36.017,42.18,35.148,41.01,33.989,41.005z"/>
		<path d="M64.393,71.095c-4.705-3.601-7.847-7.971-10.558-11.56c-3.069-4.073-4.832-7.758-5.542-11.593
			c-0.45-2.427-1.011-5.446-0.604-8.462c0.103-0.771,0.201-1.543,0.299-2.315c0.254-1.986,0.514-4.04,0.866-6.063
			c0.246-1.41,0.541-2.827,0.823-4.197c0.272-1.323,0.556-2.691,0.794-4.037c0.192-1.106,0.543-2.357,1.655-3.246
			c0.631-0.503,1.164-1.193,1.729-2.239c0.738-1.36,0.98-2.354,0.742-3.039c-0.197-0.566-0.779-1.059-1.729-1.464
			c-0.134-0.057-0.267-0.114-0.397-0.173c-0.029,0.046-0.062,0.092-0.097,0.138c-6.088,8.107-9.69,16.253-11.015,24.903
			c-0.465,3.038-0.412,6.302,0.162,9.979c0.65,4.169,1.869,8.096,3.623,11.669c2.438,4.965,4.899,8.354,7.985,10.985
			c2.352,2.005,5.04,3.865,8.223,5.688c1.657,0.949,3.813,2.121,6.155,2.992c0.441-1.011,0.63-2.912,0.188-3.918
			C67.027,73.609,65.945,72.284,64.393,71.095z M44.759,45.023h-0.05c-0.561,0-1.109-0.247-1.546-0.695
			c-0.551-0.566-0.865-1.399-0.841-2.229c0.04-1.449,1.004-2.541,2.239-2.541h0.042c1.317,0.026,2.378,1.298,2.365,2.834
			C46.956,43.812,45.965,44.991,44.759,45.023z"/>
		<path d="M48.875,0C21.883,0,0,21.882,0,48.875S21.883,97.75,48.875,97.75S97.75,75.868,97.75,48.875S75.867,0,48.875,0z
			 M67.909,80.249c-0.646,1.914-2.306,2.67-3.979,3.257c-2.592,0.906-5.234,0.539-7.898,0.141c-4.131-0.615-7.918-2.035-11.371-4.34
			c-6.549-4.371-11.96-9.791-15.312-17.027c-3.067-6.617-4.114-13.547-3.213-20.81c0.576-4.655,1.664-9.123,3.915-13.258
			c3.261-5.99,8.095-10.136,14.595-12.288c0.58-0.192,1.022-0.433,1.141-1.157c0.097-0.595,0.42-1.163,0.689-1.72
			c1.184-2.433,2.197-2.832,4.787-1.911c0.256,0.091,0.504,0.194,0.758,0.291c0.412,0.183,0.82,0.37,1.236,0.547
			c3.098,1.321,2.78,3.453,1.465,5.877c-0.518,0.957-1.125,1.856-1.98,2.54c-0.859,0.687-1.137,1.701-1.303,2.647
			c-0.482,2.755-1.135,5.476-1.613,8.233c-0.481,2.771-0.787,5.559-1.159,8.34c-0.371,2.757,0.095,5.447,0.597,8.151
			c0.782,4.224,2.832,7.827,5.359,11.179c2.9,3.842,5.883,7.938,10.367,11.371c1.568,1.199,2.818,2.623,3.611,4.438
			C69.254,76.247,68.877,79.244,67.909,80.249z"/>
	</g>
</g>
<g>
</g>
<g>
</g>
<g>
</g>
<g>
</g>
<g>
</g>
<g>
</g>
<g>
</g>
<g>
</g>
<g>
</g>
<g>
</g>
<g>
</g>
<g>
</g>
<g>
</g>
<g>
</g>
<g>
</g>
</svg>
