<?xml version="1.0" encoding="iso-8859-1"?>
<!-- Generator: Adobe Illustrator 16.0.0, SVG Export Plug-In . SVG Version: 6.00 Build 0)  -->
<!DOCTYPE svg PUBLIC "-//W3C//DTD SVG 1.1//EN" "http://www.w3.org/Graphics/SVG/1.1/DTD/svg11.dtd">
<svg version="1.1" id="Capa_1" xmlns="http://www.w3.org/2000/svg" xmlns:xlink="http://www.w3.org/1999/xlink" x="0px" y="0px"
	 width="97.75px" height="97.75px" viewBox="0 0 97.75 97.75" style="enable-background:new 0 0 97.75 97.75;" xml:space="preserve"
	>
<g>
	<g>
		<path d="M73.334,38.781c-0.049,1.426-0.691,2.156-2.078,2.504c-0.459,0.116-0.943,0.177-1.419,0.178l-18.983-0.008
			c-0.59-0.002-1.217-0.119-1.76-0.344c-1.104-0.456-1.771-1.264-1.757-2.554l-0.007-6.488l-7.928,0.003l1.168,3.687
			c0.905,3.351,1.341,6.772,1.418,10.237l0.016,0.814l2.879,0.008l0.008,32.929l15.175-0.011l0.035-19.365
			c0.01-0.861,0.558-1.336,1.348-1.336c0.787,0,1.38,0.541,1.38,1.32l0.013,19.34c3.356,0,6.621,0,10.004,0
			c0-10.976,0-21.914,0-32.865l8.497,0.002l0.017-14.771l-7.996,0.007L73.334,38.781z"/>
		<path d="M70.759,38.757c0-6.983,0-13.899,0-20.827l-20.905-0.008l0.002,20.85L70.759,38.757z"/>
		<path d="M37.306,33.611c-1.162-3.013-2.63-5.825-5.204-7.922c-2.384-1.944-4.963-2.165-7.548-0.522
			c-2.428,1.541-3.963,3.837-5.17,6.376c-2.887,6.072-3.518,12.512-3.072,19.123c0.009,0.146,0.018,0.289,0.045,0.416
			c7.631,0,15.382,0,23.01,0l0.044-0.996c0.021-2.062,0.095-4.129,0.021-6.188C39.307,40.355,38.582,36.92,37.306,33.611z"/>
		<path d="M48.875,0C21.883,0,0,21.883,0,48.875S21.883,97.75,48.875,97.75S97.75,75.867,97.75,48.875S75.867,0,48.875,0z
			 M81.82,49.43l-6.318,0.023l0.012,30.789c0.002,0.886-0.783,2.15-3.455,2.15c-8.599,0.025-17.195,0.028-25.792,0.01
			c-3.08-0.006-3.932-0.916-3.929-4.012l0.011-27.602c0-0.375,0-0.749,0-1.124c-0.072-0.013-0.266,0.007-0.338-0.005l-0.075,1.066
			c-0.227,1.953-0.901,2.754-2.859,2.855l-9.231,0.009l0.01,16.498c0,0.048,0.029,0.095,0.063,0.197
			c0.95,0.18,1.738,0.304,2.696,0.562c5.367,1.012,6.266,7.371,0.126,8.406c-3.163,0.465-6.2,0.516-9.357,0.069
			c-0.997-0.142-2.23-0.521-3.11-1.021c-2.773-1.573-2.771-5.18,0.023-6.717c0.985-0.543,2.382-0.733,3.482-1.062
			c0.355-0.105,0.736-0.133,1.172-0.205l-0.027-16.685L17.037,53.6c-2.229-0.072-3.268-1.164-3.258-3.382
			c0.014-2.791-0.066-5.595,0.174-8.369c0.43-4.981,1.732-9.782,4.337-14.069c1.626-2.677,3.813-4.978,7.009-5.91
			c3.246-0.948,6.129-0.153,8.621,2.043c1.666,1.47,3.193,3.079,4.17,5.131l0.244,0.409l9.033-0.002l0.059-10.934
			c-0.075-1.754,0.955-3.164,3.033-3.186l19.738,0.02c2.553,0.119,3.207,1.136,3.24,3.497l0.017,10.584l7.983,0.003
			c1.139,0.031,2.127,0.938,2.422,2.146c0.086,0.363,0.113,0.748,0.115,1.123l-0.004,13.391C83.971,46.544,84.034,49.43,81.82,49.43
			z"/>
	</g>
</g>
<g>
</g>
<g>
</g>
<g>
</g>
<g>
</g>
<g>
</g>
<g>
</g>
<g>
</g>
<g>
</g>
<g>
</g>
<g>
</g>
<g>
</g>
<g>
</g>
<g>
</g>
<g>
</g>
<g>
</g>
</svg>
