<?xml version="1.0" encoding="iso-8859-1"?>
<!-- Generator: Adobe Illustrator 16.0.0, SVG Export Plug-In . SVG Version: 6.00 Build 0)  -->
<!DOCTYPE svg PUBLIC "-//W3C//DTD SVG 1.1//EN" "http://www.w3.org/Graphics/SVG/1.1/DTD/svg11.dtd">
<svg version="1.1" id="Capa_1" xmlns="http://www.w3.org/2000/svg" xmlns:xlink="http://www.w3.org/1999/xlink" x="0px" y="0px"
	 width="97.75px" height="97.75px" viewBox="0 0 97.75 97.75" style="enable-background:new 0 0 97.75 97.75;" xml:space="preserve"
	>
<g>
	<path d="M48.875,0C21.882,0,0,21.882,0,48.875S21.882,97.75,48.875,97.75S97.75,75.868,97.75,48.875S75.868,0,48.875,0z
		 M48.048,63.323c-0.251,2.366-0.977,4.557-2.391,6.5c-1.701,2.337-4.05,3.715-6.74,4.591c-2.295,0.747-4.664,1.049-7.064,1.125
		c-2.832,0.09-5.644-0.071-8.399-0.788c-3.998-1.04-7.176-3.199-9.169-6.896c-1.088-2.019-1.542-4.22-1.7-6.492l-0.027-0.368
		c1.371,0.011,3.129,0.005,4.5,0.005c1.262,0,4.438,0,4.438,0c-0.007,0.146,0.076,0.604,0.076,0.604
		c0.161,0.902,0.433,1.77,0.864,2.584c0.721,1.361,1.861,2.271,3.248,2.838c3.28,1.341,6.786,1.414,10.152,0.394
		c1.688-0.513,2.908-1.604,3.368-3.409c0.413-1.615,0.003-2.941-1.274-4.012c-1.195-1.001-2.586-1.641-4.023-2.189
		c-1.862-0.711-3.804-1.15-5.724-1.672c-2.756-0.75-5.6-1.201-8.242-2.332c-2.121-0.908-4.026-2.087-5.126-4.248
		c-0.91-1.784-1.517-3.637-1.595-5.657c-0.091-2.342,0.163-4.614,1.187-6.751c1.436-3,3.84-4.901,6.916-6.024
		c2.203-0.805,4.492-1.156,6.823-1.276c3.27-0.167,6.505,0.001,9.626,1.1c4.812,1.692,7.528,5.179,8.559,10.083
		c0.156,0.745,0.238,1.479,0.273,2.242l-0.004,0.3l-8.285,0.009c0,0-0.035-0.766-0.769-2.271c-1.106-2.268-2.943-3.451-5.336-3.895
		c-2.189-0.406-4.382-0.432-6.534,0.198c-2.312,0.676-3.696,2.514-3.693,4.792c0.001,1.044,0.477,1.858,1.238,2.523
		c1.142,0.996,2.514,1.559,3.939,1.971l9.154,2.48c1.999,0.473,3.928,1.114,5.795,1.969c2.258,1.035,3.916,2.676,4.962,4.91
		C48.121,58.503,48.307,60.889,48.048,63.323z M65.659,71.863l4.587,14.062c0,0-1.784-1.298-2.619-1.9
		c-5.865-4.242-12.049-8.719-17.916-12.959l0.162-0.275c0.971-1.626,1.695-3.537,2.059-5.568c2.234,1.614,6.795,4.899,6.795,4.899
		s-0.381-1.154-0.545-1.659l-4.326-13.186L66.6,46.116c-4.875-0.003-10.923-0.009-15.798,0.007l-0.019-0.539
		c-0.068-1.463-0.077-2.928-0.286-4.384c-0.506-3.533-1.866-6.672-4.229-9.361c-1.449-1.65-3.166-2.954-5.153-3.895l-0.313-0.15
		l5.248-15.969l9.212,28.281l29.93-0.007L61.005,57.598L65.659,71.863z"/>
</g>
<g>
</g>
<g>
</g>
<g>
</g>
<g>
</g>
<g>
</g>
<g>
</g>
<g>
</g>
<g>
</g>
<g>
</g>
<g>
</g>
<g>
</g>
<g>
</g>
<g>
</g>
<g>
</g>
<g>
</g>
</svg>
