<?xml version="1.0" encoding="iso-8859-1"?>
<!-- Generator: Adobe Illustrator 16.0.0, SVG Export Plug-In . SVG Version: 6.00 Build 0)  -->
<!DOCTYPE svg PUBLIC "-//W3C//DTD SVG 1.1//EN" "http://www.w3.org/Graphics/SVG/1.1/DTD/svg11.dtd">
<svg version="1.1" id="Capa_1" xmlns="http://www.w3.org/2000/svg" xmlns:xlink="http://www.w3.org/1999/xlink" x="0px" y="0px"
	 width="97.75px" height="97.75px" viewBox="0 0 97.75 97.75" style="enable-background:new 0 0 97.75 97.75;" xml:space="preserve"
	>
<g>
	<g>
		<path d="M28.951,63.302c1.176-0.038,1.738-0.812,1.767-2c-0.187-1.1-0.775-1.821-1.982-1.741
			c-1.178,0.078-1.836,0.825-1.773,1.965C27.027,62.672,27.814,63.341,28.951,63.302z"/>
		<path d="M34.513,63.316c1.195-0.012,1.839-0.803,1.853-1.912c0.014-1.151-0.697-1.805-1.873-1.872
			c-1.257,0.022-1.826,0.793-1.833,1.903C32.654,62.579,33.316,63.328,34.513,63.316z"/>
		<path d="M63.211,62.297c1.199,0.075,1.893-0.568,1.945-1.77c0.053-1.196-0.604-1.84-1.692-1.997
			c-1.296-0.011-1.996,0.709-2.065,1.807C61.324,61.471,62.036,62.223,63.211,62.297z"/>
		<path d="M68.958,62.309c1.235,0.035,1.708-0.824,1.997-1.861c-0.234-1.055-0.732-1.891-1.938-1.907
			c-1.199-0.019-1.834,0.665-1.858,1.858C67.135,61.602,67.762,62.273,68.958,62.309z"/>
		<path d="M48.875,0C21.882,0,0,21.882,0,48.875S21.882,97.75,48.875,97.75S97.75,75.868,97.75,48.875S75.868,0,48.875,0z
			 M36.875,40.609c-0.49,0.417-1.1,0.723-1.728,0.283c-0.638-0.448-0.504-1.084-0.261-1.707c0.588-1.508,1.731-2.479,3.316-3.405
			C38.977,37.973,38.284,39.412,36.875,40.609z M25.858,33.09c0.227,0.228,1.678,0.58,2.151,3.305
			c-0.086,1.601-0.705,2.799-2.343,2.871c-1.637,0.07-1.845-1.355-1.783-2.493C24.03,34.104,25.792,33.166,25.858,33.09z
			 M37.906,70.848c-4.208,2.467-9.458,2.06-13.284-1c-3.487-2.789-5.069-6.595-4.168-11.166c0.82,1.849,1.668,3.879,2.549,5.699
			c1.797,3.711,4.621,6.026,8.894,6.143c4.25,0.117,7.285-1.824,9.15-5.623c0.834-1.699,1.816-3.64,2.645-5.342
			C44.216,64.469,42.066,68.412,37.906,70.848z M20.984,55.587c0,0,0.642-1.242,0.952-1.729c4.792-7.574,16.338-7.188,20.566,0.717
			c0.234,0.436,0.704,1.496,0.704,1.496s-0.117,0.439-0.286,0.774c-1.42,2.826-2.375,5.876-4.14,8.54
			c-1.591,2.401-3.861,3.457-6.341,3.5c-3.798-0.057-6.172-1.867-7.669-4.808c-1.228-2.416-2.177-4.972-3.295-7.444
			C21.256,56.152,20.984,55.587,20.984,55.587z M48.515,44.744c-0.472,2.915-1.778,5.52-3.251,8.043
			c-0.225,0.385-0.918,1.441-0.918,1.441s-0.354-0.644-0.808-1.232c-7.268-9.428-17.289-8.326-23.416,0.347
			c-1.985-4.521-4.853-8.564-6.491-13.017c-1.64-4.456-0.311-8.131,3.736-10.475c1.627-0.944,3.177-1.013,4.885-0.07
			c0.914,0.506,2.222,1.488,2.222,1.488s-0.814,1.011-1.387,1.864c-0.898,1.124-1.004,3.024-0.877,4.02
			c0.25,1.983,0.873,3.808,3.412,3.81c2.104,0.002,3.87-1.796,3.997-4.031c0.094-1.642-0.487-3.088-1.532-4.262
			c-0.435-0.487-1.105-1.211-1.105-1.211s0.979-1.097,1.97-1.453c2.297-0.826,6.626,0.771,8.008,2.859
			c0.285,0.43,0.708,1.083,0.708,1.083s-0.818,0.598-1.246,0.886c-1.472,0.992-2.569,2.28-3.182,3.976
			c-0.489,1.352-0.262,2.574,0.8,3.466c1.115,0.936,2.403,0.679,3.548-0.051c1.95-1.242,2.684-3.14,2.653-5.368
			c-0.015-1.089-0.234-2.284-0.234-2.284s1.895-0.236,3.191,0.266C46.494,36.114,49.131,40.951,48.515,44.744z M75.055,69.496
			c-4.061,3.545-9.898,3.959-14.408,1.021c-4.83-3.146-6.697-8.777-4.707-14.641c0.47,2.66,2.969,8.947,4.494,10.797
			c3.213,3.895,7.563,4.042,11.062,0.391c2.306-2.408,3.687-5.381,4.966-8.402c0.454-1.072,0.855-2.488,1.335-3.737
			C80.292,59.95,79.126,65.941,75.055,69.496z M57.064,53.916c0,0,3.508-4.557,9.799-5.029c5.185-0.388,8.99,3.248,9.832,4.09
			c0,0-0.84,2.426-1.545,4.234c-1.162,2.971-2.453,5.885-4.623,8.289c-3.027,3.355-6.159,3.27-8.94-0.229
			C58.913,61.907,57.064,53.916,57.064,53.916z M77.396,50.955c-6.773-5.628-13.883-5.026-20.795,0.566
			c-1.711-8.08-3.345-16.482-5.781-24.396c-0.148-0.481-0.27-1.234,0.089-1.388c1.219-0.524,2.272,1.878,2.678,2.525
			c1.685,2.693,3.075,5.585,5.263,7.94c0.81,0.871,1.66,1.88,2.935,1.516c1.157-0.331,1.396-1.654,1.637-2.687
			c0.601-2.561,1.065-5.152,1.67-7.711c0.231-0.981,0.731-2.13,1.867-2.035c0.991,0.083,1.114,1.319,1.338,2.165
			c0.79,2.985,1.448,6.004,2.297,8.969c0.366,1.278,0.849,2.761,2.565,2.795c1.173,0.022,1.908-1.401,2.533-2.499
			c1.869-3.277,3.756-6.588,6.299-9.546c0.576-0.671,1.304-1.67,2.193-1.32c1.033,0.407,0.5,1.596,0.346,2.412
			C83.064,36.05,80.055,43.34,77.396,50.955z"/>
	</g>
</g>
<g>
</g>
<g>
</g>
<g>
</g>
<g>
</g>
<g>
</g>
<g>
</g>
<g>
</g>
<g>
</g>
<g>
</g>
<g>
</g>
<g>
</g>
<g>
</g>
<g>
</g>
<g>
</g>
<g>
</g>
</svg>
