<?xml version="1.0" encoding="iso-8859-1"?>
<!-- Generator: Adobe Illustrator 16.0.0, SVG Export Plug-In . SVG Version: 6.00 Build 0)  -->
<!DOCTYPE svg PUBLIC "-//W3C//DTD SVG 1.1//EN" "http://www.w3.org/Graphics/SVG/1.1/DTD/svg11.dtd">
<svg version="1.1" id="Capa_1" xmlns="http://www.w3.org/2000/svg" xmlns:xlink="http://www.w3.org/1999/xlink" x="0px" y="0px"
	 width="97.75px" height="97.75px" viewBox="0 0 97.75 97.75" style="enable-background:new 0 0 97.75 97.75;" xml:space="preserve"
	>
<g>
	<g>
		<path d="M49.593,31.198c-2.057-3.833-6.009-8.729-12.848-8.911C29.8,22.31,23.941,28.297,23.941,35.38
			c0,4.984,3.376,8.59,6.798,10.967C33.58,43.625,41.116,36.688,49.593,31.198z"/>
		<path d="M55.566,56.984c-0.642-6.104-2.073-14.323-3.129-19.865c-6.405,4.245-12.294,9.391-15.574,12.415
			C37.057,49.624,55.566,56.984,55.566,56.984z"/>
		<path d="M30.87,69.529c2.686,6.402,10.462,9.518,17.004,6.8c5.287-2.197,7.188-7.724,7.843-12.177l-22.52-8.633
			C30.788,58.925,28.705,63.895,30.87,69.529z"/>
		<path d="M69.672,32.631c-3.994-1.649-7.979-0.585-11.238,1.184c0.881,4.492,3.075,16.136,3.768,24.188l0.684,0.007
			c4.35-0.285,11.031-1.867,14.002-8.546C79.516,43.036,76.218,35.335,69.672,32.631z"/>
		<path d="M48.875,0C21.882,0,0,21.882,0,48.875S21.882,97.75,48.875,97.75S97.75,75.868,97.75,48.875S75.868,0,48.875,0z
			 M83.225,52.125l-0.033,0.076c-4.209,9.535-13.56,12.439-20.645,12.732c-0.877,6.133-3.667,14.266-12.035,17.742
			c-2.438,1.014-5.019,1.52-7.608,1.52c-2.535,0-5.082-0.484-7.521-1.455c-4.997-1.989-8.86-5.76-10.877-10.613l-0.03-0.076
			c-2.967-7.656-0.768-14.654,2.646-19.834c-4.899-3.314-10.055-8.729-10.055-16.838c0-5.224,2.04-10.193,5.744-13.994
			c3.755-3.852,8.718-5.974,13.974-5.974l0.083,0.002c9.342,0.225,15.332,6.3,18.618,12.192c4.647-2.454,10.547-3.914,16.81-1.328
			c4.828,1.994,8.644,5.776,10.742,10.651C85.164,41.87,85.23,47.267,83.225,52.125z"/>
	</g>
</g>
<g>
</g>
<g>
</g>
<g>
</g>
<g>
</g>
<g>
</g>
<g>
</g>
<g>
</g>
<g>
</g>
<g>
</g>
<g>
</g>
<g>
</g>
<g>
</g>
<g>
</g>
<g>
</g>
<g>
</g>
</svg>
