<?xml version="1.0" encoding="iso-8859-1"?>
<!-- Generator: Adobe Illustrator 16.0.0, SVG Export Plug-In . SVG Version: 6.00 Build 0)  -->
<!DOCTYPE svg PUBLIC "-//W3C//DTD SVG 1.1//EN" "http://www.w3.org/Graphics/SVG/1.1/DTD/svg11.dtd">
<svg version="1.1" id="Capa_1" xmlns="http://www.w3.org/2000/svg" xmlns:xlink="http://www.w3.org/1999/xlink" x="0px" y="0px"
	 width="97.75px" height="97.75px" viewBox="0 0 97.75 97.75" style="enable-background:new 0 0 97.75 97.75;" xml:space="preserve"
	>
<g>
	<g>
		<path d="M45.89,80.257c-2.284-0.346-4.543-0.792-6.758-1.476c-3.123-0.965-6.132-2.204-8.723-4.192
			c-1.346-1.032-2.539-0.981-3.898-0.366c-0.571,0.26-1.117,0.578-1.662,0.895c-0.389,0.227-0.673,0.581-0.88,0.968
			c-0.091,0.173-0.104,0.467-0.018,0.636c0.126,0.243,0.375,0.077,0.586,0.026c0.426-0.099,0.858-0.162,1.288-0.239
			c-0.56,0.557-1.162,0.986-1.68,1.524c-0.834,0.866-0.85,1.593-0.015,2.437c1.128,1.143,2.613,1.654,4.091,2.041
			c4.76,1.248,9.554,1.021,14.313-0.029c1.258-0.277,2.571-0.597,3.56-1.563c0.147-0.146,0.423-0.244,0.303-0.517
			C46.306,80.191,46.064,80.284,45.89,80.257z"/>
		<path d="M35.869,43.201c1.277,0.69,2.677,1.063,4.241,1.453c-0.439-0.707-0.796-1.281-1.153-1.856
			c8.071,5.847,16.104,5.392,24.309-0.251c-0.472,1.029-1.24,1.407-1.85,2.082c1.688,0.006,3.029-0.647,4.318-1.438
			c1.207-0.74,1.222-1.032,0.016-1.818c-1.943-1.267-4.105-2.041-6.339-2.613c-5.5-1.408-11.021-1.259-16.527-0.061
			c-2.504,0.544-4.914,1.397-7.055,2.869C34.873,42.226,34.86,42.655,35.869,43.201z"/>
		<path d="M58.443,35.808c1.173-0.601,1.66-1.663,1.994-2.846c0.692-2.446,0.654-5.22-0.699-7.436
			c-1.563-2.557-4.219-2.501-5.785,0.059c-0.811,1.324-1.121,2.772-1.077,4.264c-0.063,1.855,0.33,3.538,1.426,5.011
			C55.375,36.301,56.848,36.623,58.443,35.808z M56.734,28.129c1.234,0.42,1.289,2.853,0.81,2.919
			c-0.379,0.053-0.584-0.31-0.642-0.654c-0.073-0.435-0.098-1.098-0.684-1.09c-0.637,0.009-0.713,0.679-0.852,1.19
			c-0.072,0.269-0.12,0.631-0.492,0.559c-0.354-0.069-0.357-0.434-0.363-0.71C54.482,28.799,55.602,27.702,56.734,28.129z"/>
		<path d="M47.409,35.043c1.291-1.432,1.655-3.2,1.709-4.916c-0.027-1.941-0.367-3.641-1.489-5.1
			c-1.481-1.928-3.663-1.918-5.156,0.011c-1.952,2.524-1.913,7.346,0.081,9.84C43.936,36.606,45.924,36.693,47.409,35.043z
			 M46.18,28.038c0.556-0.722,1.36-0.686,1.847,0.112c0.668,1.102,0.684,2.262,0.13,3.412c-0.222,0.46-0.559,0.858-1.151,0.813
			c-0.572-0.044-0.872-0.442-1.094-0.919c-0.219-0.465-0.26-0.962-0.271-1.464C45.625,29.287,45.739,28.611,46.18,28.038z"/>
		<path d="M69.706,73.876c-4.151,3.646-9.009,5.796-14.506,6.664c0.278,0.791,0.967,0.767,1.545,0.944
			c5.248,1.604,10.534,2.131,15.864,0.445c1.688-0.533,3.365-1.197,4.105-3.027c0.564-1.396-0.199-2.553-1.713-2.631
			c-0.818-0.041-1.639-0.002-2.459,0c-0.177,0-0.422,0.08-0.441-0.187c-0.009-0.104,0.166-0.248,0.287-0.324
			c0.619-0.395,1.346-0.419,2.187-0.483c-1.039-0.834-1.978-1.209-2.865-1.646C70.85,73.208,70.473,73.204,69.706,73.876z"/>
		<path d="M48.875,0C21.882,0,0,21.883,0,48.875S21.882,97.75,48.875,97.75S97.75,75.867,97.75,48.875S75.868,0,48.875,0z
			 M82.698,65.953c-0.185,0.615-0.48,1.158-0.884,1.648c-1.013,1.233-1.912,1.264-2.944,0.028c-0.97-1.159-1.7-2.479-2.451-3.869
			c-1.317,3.253-2.638,6.438-5.254,8.841c0.267,0.368,0.637,0.479,0.974,0.637c1.299,0.615,2.538,1.322,3.707,2.172
			c2.371,1.724,2.295,4.386-0.232,5.92c-1.965,1.191-4.162,1.686-6.406,1.971c-3.311,0.422-6.602,0.174-9.885-0.355
			c-2.209-0.356-4.352-0.975-6.424-1.782c-1.293-0.503-2.637-0.12-3.912-0.488c-0.218-0.063-0.317,0.165-0.469,0.265
			c-1.604,1.053-3.317,1.886-5.166,2.397c-3.19,0.886-6.459,0.808-9.714,0.599c-2.633-0.17-5.253-0.513-7.72-1.563
			c-0.7-0.299-1.349-0.677-1.936-1.149c-1.481-1.199-1.369-2.801-1.045-4.422c0.34-1.695,1.646-2.445,3.114-2.953
			c0.859-0.295,1.77-0.436,2.752-0.434c-0.266-0.715-0.941-0.912-1.415-1.333c-1.362-1.208-2.665-2.495-3.575-4.097
			c-0.852-1.5-1.646-3.035-2.015-4.744c-0.04-0.191-0.063-0.397-0.299-0.408c-0.261-0.014-0.241,0.236-0.313,0.398
			c-0.615,1.398-1.544,2.563-2.684,3.564c-0.547,0.479-1.164,0.805-1.885,1.014c-0.857,0.248-1.215-0.093-1.484-0.818
			c-0.559-1.5-0.75-3.049-0.665-4.635c0.21-3.946,1.505-7.512,3.696-10.801c1.539-2.31,3.37-4.307,5.586-5.965
			c0.375-0.281,0.49-0.563,0.378-1.103c-0.259-1.257-0.089-2.541,0.545-3.66c0.521-0.923,0.754-1.887,0.928-2.902
			c0.117-0.677,0.351-1.326,0.759-1.905c0.471-0.668,0.203-1.469,0.291-2.197c0.456-3.78,1.977-7.119,4.115-10.188
			c3.255-4.672,7.458-8.039,13.172-9.251c3.453-0.732,6.921-0.884,10.431-0.498c3.406,0.375,6.641,1.303,9.648,2.932
			c5.303,2.87,8.383,7.442,9.93,13.165c0.441,1.639,0.876,3.277,0.966,4.982c0.063,1.182,0.708,2.113,1.25,3.093
			c1.207,2.174,1.515,4.44,0.569,6.778c-0.194,0.48,0.023,0.709,0.233,1.001c1.966,2.727,3.558,5.663,4.798,8.773
			C83.227,58.279,83.861,62.05,82.698,65.953z"/>
		<path d="M69.82,51.844c-1.355,0.907-2.781,1.693-4.258,2.396c-4.979,2.364-10.181,3.709-15.731,3.575
			c-2.334-0.056-4.683-0.258-6.969-0.898l0.049,1.2l0.138,5.771c0.038,1.273-0.935,2.389-1.793,2.526
			c-2.102,0.342-4.24,0.448-6.223-0.411c-1.437-0.623-2.476-1.718-2.669-3.455c-0.325-2.914-0.016-5.793,0.344-8.67
			c0.051-0.408-0.031-0.546-0.35-0.715c-0.83-0.439-1.701-0.837-2.443-1.4c-0.691-0.525-0.983-0.266-1.277,0.346
			c-0.122,0.252-0.271,0.494-0.388,0.748c-1.651,3.617-1.966,7.396-1.192,11.25c0.854,4.262,3.432,7.404,6.729,10.078
			c1.694,1.371,3.593,2.349,5.565,3.187c3.176,1.348,6.541,1.961,9.953,2.293c2.225,0.216,4.469,0.471,6.68-0.032
			c5.838-1.324,10.697-4.263,14.384-9.017c1.909-2.466,3.129-5.243,3.313-8.398c0.225-3.801-1.047-7.149-3.145-10.249
			C70.288,51.598,70.158,51.619,69.82,51.844z"/>
		<path d="M65.841,50.869c3.894-2.324,7.115-5.201,8.203-9.713c-0.237,0.199-0.563,0.447-0.866,0.722
			c-4.762,4.315-10.422,6.739-16.729,7.452c-6.201,0.699-12.339,0.049-18.261-2.039c-4.684-1.651-8.737-4.211-11.575-8.421
			c-0.016-0.021-0.105,0.009-0.196,0.018c-0.077,1.59-0.15,3.182,0.676,4.64c0.775,1.367,1.581,2.717,2.375,4.074
			c-2.091-1.554-3.587-3.483-4.023-6.16c-1.435,1.871-1.224,3.975,0.338,5.986c2.136,2.754,5.073,4.424,8.165,5.816
			c3.705,1.67,7.562,2.836,11.623,3.354c3.408,0.438,6.783,0.463,10.16-0.158c5.822-1.067,11.109-3.477,16.094-6.578
			c2.328-1.449,3.943-3.491,4.451-6.289c0.266-1.46,0.117-3.078-0.442-3.924C73.966,44.697,71.193,48.934,65.841,50.869z"/>
		<path d="M38.873,56.495c-0.012-0.313,0.056-0.616-0.386-0.731c-1.462-0.381-2.816-1.051-4.199-1.643
			c-0.297-0.129-0.436-0.141-0.502,0.221c-0.419,2.26-0.973,4.497-0.911,6.822c0.065,2.471,0.835,3.537,3.015,4.023
			c1.553,0.347,3.127,0.293,4.71,0.209c1.108-0.058,1.589-0.648,1.624-1.633c0.073-2.044-0.057-4.078-0.248-6.093
			c-0.076-0.808-0.821-1.379-1.622-1.244c-0.646,0.108-0.416,0.843-0.458,1.245l0.064,2.171l0.022,1.755
			c-0.175-0.396-0.294-0.609-0.374-0.836C39.116,59.383,38.928,57.95,38.873,56.495z"/>
	</g>
</g>
<g>
</g>
<g>
</g>
<g>
</g>
<g>
</g>
<g>
</g>
<g>
</g>
<g>
</g>
<g>
</g>
<g>
</g>
<g>
</g>
<g>
</g>
<g>
</g>
<g>
</g>
<g>
</g>
<g>
</g>
</svg>
