<?xml version="1.0" encoding="iso-8859-1"?>
<!-- Generator: Adobe Illustrator 16.0.0, SVG Export Plug-In . SVG Version: 6.00 Build 0)  -->
<!DOCTYPE svg PUBLIC "-//W3C//DTD SVG 1.1//EN" "http://www.w3.org/Graphics/SVG/1.1/DTD/svg11.dtd">
<svg version="1.1" id="Capa_1" xmlns="http://www.w3.org/2000/svg" xmlns:xlink="http://www.w3.org/1999/xlink" x="0px" y="0px"
	 width="97.75px" height="97.75px" viewBox="0 0 97.75 97.75" style="enable-background:new 0 0 97.75 97.75;" xml:space="preserve"
	>
<g>
	<g>
		<path d="M40.184,62.461c2.772,0.506,5.835,0.867,9.126,1.115l6.947-33.443c-8.159,2.332-15.532,5.02-21.151,8.064L40.184,62.461z"
			/>
		<path d="M48.875,0C21.883,0,0,21.883,0,48.875S21.883,97.75,48.875,97.75S97.75,75.867,97.75,48.875S75.867,0,48.875,0z
			 M69.421,64.01c-0.128-0.002,2.015-0.023,2.144,0.184c0.129,0.209-1.801,0.455-1.801,0.455c-3.757,0.541-7.402,0.982-10.91,1.312
			l-2.019,17.56l-11.457-1.022l3.302-15.894c-2.668,0.082-5.214,0.07-7.635-0.026l1.946,9.298l-8.582,0.881l-1.312-10.902
			C22.485,64.24,15.794,60.1,15.195,52.629c-0.608-7.613,4.778-13.477,14.146-17.961l-1.239-10.291l4.015-0.455l1.836,8.762
			c6.451-2.486,14.282-4.475,23.033-6.049l2.578-12.404h5.228L63.49,25.569c0.539-0.082,1.074-0.164,1.619-0.242
			c5.426-0.781,10.524-0.986,15.541-1.172c0.654-0.025,1.307-0.043,1.951-0.059c-6.482,1.201-13.092,2.598-19.422,4.188
			l-4.104,35.727C62.396,64.07,65.855,64.062,69.421,64.01z"/>
		<path d="M24.296,51.965c0.632,3.848,3.554,6.527,8.137,8.371l-2.288-18.994C25.92,44.537,23.657,48.074,24.296,51.965z"/>
	</g>
</g>
<g>
</g>
<g>
</g>
<g>
</g>
<g>
</g>
<g>
</g>
<g>
</g>
<g>
</g>
<g>
</g>
<g>
</g>
<g>
</g>
<g>
</g>
<g>
</g>
<g>
</g>
<g>
</g>
<g>
</g>
</svg>
