<?xml version="1.0" encoding="iso-8859-1"?>
<!-- Generator: Adobe Illustrator 16.0.0, SVG Export Plug-In . SVG Version: 6.00 Build 0)  -->
<!DOCTYPE svg PUBLIC "-//W3C//DTD SVG 1.1//EN" "http://www.w3.org/Graphics/SVG/1.1/DTD/svg11.dtd">
<svg version="1.1" id="Capa_1" xmlns="http://www.w3.org/2000/svg" xmlns:xlink="http://www.w3.org/1999/xlink" x="0px" y="0px"
	 width="97.75px" height="97.75px" viewBox="0 0 97.75 97.75" style="enable-background:new 0 0 97.75 97.75;" xml:space="preserve"
	>
<g>
	<g>
		<path d="M48.875,0C21.883,0,0,21.883,0,48.875C0,75.868,21.883,97.75,48.875,97.75S97.75,75.868,97.75,48.875
			C97.75,21.883,75.867,0,48.875,0z M19.189,59.852c2.672,0,5.454-1.881,6.434-4.365h2.596c-1.316,3.801-5.079,6.51-9.029,6.51
			c-5.418,0-9.744-4.29-9.744-9.707s4.289-9.744,9.668-9.744c3.537,0,6.811,1.994,8.504,5.154c0.789,1.467,1.09,2.859,1.166,5.455
			H11.929C12.117,56.843,15.39,59.852,19.189,59.852z M44.396,61.52h-2.822l-4.929-7.412l-4.89,7.412h-2.822l6.32-9.442l-6.32-9.104
			h2.859l4.853,7.148l4.854-7.148h2.897l-6.358,9.104L44.396,61.52z M56.926,46.981c0,0.114-0.091,0.205-0.203,0.205
			c0,0-1.861,0-2.205,0c0,0.396,0,14.356,0,14.356c0,0.112-0.091,0.204-0.203,0.204H48.67c-0.112,0-0.204-0.091-0.204-0.204
			c0,0,0-13.959,0-14.356c-0.331,0-1.865,0-1.865,0c-0.112,0-0.204-0.091-0.204-0.205V42.73c0-0.112,0.092-0.204,0.204-0.204
			c0,0,1.534,0,1.865,0c0-0.256,0-0.774,0-0.774c0-1.926,0.654-3.531,1.843-4.522c0.688-0.567,1.364-0.917,2.194-1.136
			c0.817-0.216,1.851-0.321,3.353-0.34c0,0,0,0,0.002,0h0.826c0.113,0,0.205,0.091,0.205,0.204v4.215
			c0,0.112-0.092,0.204-0.205,0.204h-0.64c-0.97,0-1.526,0.584-1.526,1.602c0,0,0,0.33,0,0.548c0.344,0,2.205,0,2.205,0
			c0.112,0,0.203,0.091,0.203,0.204V46.981z M88.1,61.746h-5.643c-0.113,0-0.205-0.091-0.205-0.204V51.535
			c0-1.438-0.202-2.445-0.62-3.077c-0.403-0.611-1.014-0.896-1.922-0.896c-0.966,0-1.698,0.305-2.179,0.906
			c-0.491,0.615-0.74,1.558-0.74,2.804v10.271c0,0.112-0.091,0.204-0.204,0.204h-5.644c-0.113,0-0.205-0.091-0.205-0.204V51.271
			c0-1.246-0.231-2.192-0.688-2.809c-0.45-0.606-1.104-0.9-2.006-0.9c-0.964,0-1.703,0.31-2.194,0.921
			c-0.504,0.623-0.761,1.562-0.761,2.787v10.271c0,0.112-0.092,0.204-0.205,0.204h-5.643c-0.113,0-0.204-0.091-0.204-0.204V42.73
			c0-0.112,0.091-0.204,0.204-0.204h5.342c0.112,0,0.205,0.091,0.205,0.204c0,0,0,0.749,0,1.339
			c1.133-1.467,2.771-2.183,4.987-2.183c2.361,0,4.188,1.063,5.431,3.158c0.661-0.978,1.476-1.742,2.422-2.277
			c1.039-0.585,2.222-0.881,3.511-0.881c0.998,0,1.932,0.164,2.772,0.488c0.843,0.325,1.604,0.813,2.261,1.451
			c1.732,1.656,2.133,3.048,2.133,7.446v10.271C88.305,61.655,88.213,61.746,88.1,61.746z"/>
		<path d="M19.189,44.69c-3.574,0-6.546,2.597-7.186,6.321h14.259C25.359,47.173,22.576,44.69,19.189,44.69z"/>
	</g>
</g>
<g>
</g>
<g>
</g>
<g>
</g>
<g>
</g>
<g>
</g>
<g>
</g>
<g>
</g>
<g>
</g>
<g>
</g>
<g>
</g>
<g>
</g>
<g>
</g>
<g>
</g>
<g>
</g>
<g>
</g>
</svg>
