<?xml version="1.0" encoding="iso-8859-1"?>
<!-- Generator: Adobe Illustrator 16.0.0, SVG Export Plug-In . SVG Version: 6.00 Build 0)  -->
<!DOCTYPE svg PUBLIC "-//W3C//DTD SVG 1.1//EN" "http://www.w3.org/Graphics/SVG/1.1/DTD/svg11.dtd">
<svg version="1.1" id="Capa_1" xmlns="http://www.w3.org/2000/svg" xmlns:xlink="http://www.w3.org/1999/xlink" x="0px" y="0px"
	 width="97.75px" height="97.75px" viewBox="0 0 97.75 97.75" style="enable-background:new 0 0 97.75 97.75;" xml:space="preserve"
	>
<g>
	<g>
		<path d="M15.439,37.403c0.982-0.134,1.962-0.283,2.948-0.377c0.734-0.069,0.903-0.44,0.745-1.097
			c-0.28-1.164-0.414-2.354-0.479-3.547c-0.028-0.531-0.22-0.759-0.751-0.699c-1.11,0.191-2.219,0.391-3.329,0.578
			c-0.437,0.071-0.537,0.322-0.481,0.729c0.173,1.251,0.357,2.503,0.469,3.762C14.616,37.381,14.927,37.472,15.439,37.403z"/>
		<path d="M39.4,43.34c0.004-1.232-0.706-1.372-1.58-1.501c-0.508-0.075-1.015-0.184-1.523-0.222
			c-2.552-0.194-2.468-0.664-2.223,2.354c0.117,1.485,0.575,2.797,2.07,3.389c2.107,0.835,4.281,1.498,6.58,1.416
			c1.942-0.072,3.865-0.473,4.597-2.59c0.876-2.53,0.683-4.566-1.264-6.279c-1.604-1.409-3.318-2.657-5.118-3.776
			c-1.123-0.697-1.367-1.604-1.224-2.781c0.14-1.146,1.032-1.447,1.914-1.738c1-0.33,1.5,0.015,1.627,1.059
			c0.099,0.823,0.038,1.659-0.15,2.45c-0.195,0.832,0.116,1.081,0.86,1.224c1.148,0.222,2.303,0.315,3.466,0.389
			c0.505,0.031,0.659-0.176,0.697-0.632c0.14-1.606,0.281-3.205,0.018-4.813c-0.24-1.47-1.056-2.509-2.477-2.939l-6.74-0.081
			c-1.987,0.189-3.095,1.155-3.621,3.087c-0.309,1.137-0.285,2.301-0.315,3.466c-0.04,1.625,0.659,2.812,1.964,3.713
			c1.269,0.875,2.518,1.771,3.769,2.666c0.779,0.554,1.344,1.262,1.554,2.218c0.075,0.343,0.135,0.656-0.229,0.91
			C41.188,44.926,39.396,44.349,39.4,43.34z"/>
		<path d="M38.368,58.33l5.532,0.094c0.767,0.072,1.007-0.288,1.144-0.945c0.34-1.637,0.726-3.266,0.934-4.93
			c0.26-2.043-0.343-2.804-2.407-2.873l-4.827-0.023l-0.628,2.273l4.819,0.044c0.312,0.046,0.44,0.169,0.448,0.576
			c0.014,0.522-0.411,0.418-0.674,0.425c-1.154,0.024-2.244-0.047-3.371,0.148c-1.688,0.295-2.728,1.459-2.751,3.165
			C36.569,57.547,37.087,58.213,38.368,58.33z M39.875,55.176c0.832-0.275,2.101-0.119,2.946-0.13l-0.168,1.177
			c-0.375,0.008-1.264,0.002-1.64,0.002c0,0.002,0,0.004,0,0.004c-0.307,0.002-0.613,0.016-0.918-0.004
			c-0.285-0.017-0.665,0.094-0.711-0.361C39.349,55.512,39.549,55.281,39.875,55.176z"/>
		<path d="M33.759,59.85l-0.554,1.014c-0.853,1.572-1.636,3.16-2.61,5.009l-0.023-6.065l-3.35-0.015l-0.485,1.033
			c-0.738,1.603-1.577,3.163-2.375,4.737c-0.104,0.277-0.168,0.248-0.168,0.248l-0.286-6.08l-2.879,0.017l0.693,9.815l0.072,0.638
			l3.032-0.005l3.009-5.66l0.037,5.721l3.148-0.068l5.642-10.326L33.759,59.85z"/>
		<path d="M19.799,38.704c-0.017-0.651-0.373-0.784-0.835-0.723c-1.218,0.16-2.433,0.357-3.635,0.605
			c-0.357,0.071-0.745,0.207-0.616,0.838c0.766,3.727,0.892,7.521,1.117,11.303c0.04,0.65,0.243,1.049,0.93,1.078
			c0.882-0.16,1.753-0.33,2.627-0.479c2.075-0.361,2.031-0.353,1.706-2.472C20.575,45.484,19.885,42.13,19.799,38.704z"/>
		<path d="M24.938,36.732c0.373,3.507,0.843,7.004,1.196,10.511c0.101,1,0.525,1.313,1.436,1.192
			c0.203-0.025,0.409-0.041,0.421-0.041c0.98-0.062,1.766-0.154,2.551-0.147c0.889,0.01,1.073-0.321,0.912-1.185
			c-0.719-3.91-1.034-7.874-1.452-11.822c-0.083-0.763,0.157-1.076,0.934-1.06c0.854,0.021,1.71-0.035,2.568-0.049
			c0.556-0.01,0.824-0.27,0.767-0.836c-0.088-0.887-0.2-1.77-0.254-2.657c-0.038-0.621-0.321-0.838-0.923-0.779
			c-1.021,0.101-2.049,0.162-3.071,0.244c-2.937,0.242-5.871,0.498-8.808,0.726c-0.734,0.057-1.022,0.396-0.971,1.118
			c0.081,1.163,0.148,2.325,0.178,3.489c0.02,0.77,0.376,0.919,1.063,0.773c0.768-0.163,1.556-0.235,2.331-0.37
			C24.543,35.711,24.854,35.952,24.938,36.732z"/>
		<path d="M32.396,51.701h4.521l0.385-1.508c0.101-0.5-0.026-0.594-0.471-0.586c-0.855,0.019-1.712,0.006-2.731,0.006
			c-1.14,0.201-2.509-0.269-3.771,0.429c-2.18,1.205-2.863,3.21-2.92,5.508c-0.035,1.486,1.012,2.521,2.501,2.556
			c1.575,0.035,3.831-0.006,5.406,0.017l0.174-0.619c0.298-1.369,0.642-2.729,1.015-4.081l0.17-0.665
			c-1.403,0.021-3.466,0.011-4.869,0.007c-0.285,0-0.52,0.026-0.676,0.332c-0.677,1.31-0.391,1.813,1.047,1.814
			c0.274,0,1.165-0.001,1.44,0.001l-0.145,1.153l-2.867-0.008c-0.253-0.02-0.443-0.322-0.554-0.584
			C29.471,54.091,30.389,51.77,32.396,51.701z"/>
		<path d="M51.794,48.148c2.742,0,2.461,0.228,2.461-2.866c0-1.905-0.323-3.822,0.152-5.901c0.747,1.71,1.342,3.277,1.743,4.899
			c0.828,3.375,0.252,2.871,3.826,2.806c1.461-0.026,1.666-0.261,1.955-1.678c0.389-1.934,0.692-3.896,1.537-5.826
			c0.322,0.458,0.295,0.844,0.313,1.215c0.099,2.018,0.213,4.034,0.274,6.055c0.025,0.885,0.271,1.386,1.289,1.363l2.455,0.205
			c0.831,0.1,0.942-0.195,0.812-0.979c-0.812-4.865-1.305-9.771-1.537-14.698c-0.146-3.104,0.374-2.379-2.811-3.056
			c-0.103-0.021-0.207-0.014-0.309-0.027c-0.648-0.09-0.948,0.141-1.113,0.837c-0.689,2.932-1.52,5.827-2.559,8.657
			c-0.305,0.831-0.723,1.621-1.189,2.653c-0.428-0.997-0.793-1.732-1.063-2.5c-1.071-3.03-2.124-6.064-3.157-9.109
			c-0.285-0.841-0.602-1.479-1.695-1.354l-2.354-0.067c-0.631-0.063-0.846,0.132-0.881,0.77c-0.293,5.297-0.68,10.588-0.93,15.888
			C48.871,48.561,48.549,48.148,51.794,48.148z"/>
		<path d="M64.254,51.915c0.889-0.021,2.497-0.029,3.389,0.003l0.45-2.085l-3.87,0.017c-3.418,0.229-4.809,2.049-5.127,5.383
			c-0.162,1.687,0.818,2.785,2.5,3.067c0.954,0.158,3.166,0.099,4.121,0.105l0.5-1.449l0.26-0.771l-4.642,0.016l-0.005-0.995
			l4.783,0.009l0.65-2.285c-1.326,0.021-3.267,0.008-4.713,0.008C62.955,52.049,63.586,51.928,64.254,51.915z"/>
		<path d="M47.611,50.369l-1.96,7.926l2.722-0.001c0.3-1.608,0.993-4.172,1.421-5.756l0.163-0.552l1.895,0.002l-0.217,0.921
			c-0.275,1.269-1.043,4.149-1.357,5.407l2.918,0.008c0.334-1.571,0.935-3.954,1.229-5.531l0.167-0.788
			c0.152,0.013,1.796,0.037,1.942,0.05l-1.512,6.403l2.815,0.017c0.333-1.644,0.938-4.306,1.142-5.971
			c0.248-2.027-0.396-2.771-2.451-2.82c-1.299-0.031-2.603-0.006-3.902-0.006c-1.369,0-2.74,0.026-4.109-0.014
			C47.961,49.648,47.735,49.85,47.611,50.369z"/>
		<path d="M48.875,0C21.883,0,0,21.883,0,48.875S21.883,97.75,48.875,97.75S97.75,75.867,97.75,48.875S75.867,0,48.875,0z
			 M79.221,53.791l-6.48,1.493l-0.258,1.438l4.371,0.565L74.9,73.85l-26.949-0.41l-0.054,3.395l-17.229-1.646l-0.103-1.799
			l-11.006,0.154l-3.497-15.326l8.179-1.184V54.77h-9.722l-5.76-24.225l30.345-4.63l37.748,2.574l11.162-0.568l0.977,5.299
			L79.221,53.791z"/>
		<path d="M54.887,65.725c1.43-0.846,1.98-2.222,1.881-3.846c-0.069-1.176-0.682-1.76-1.869-1.953
			c-1.092-0.178-2.188-0.084-3.139-0.111c-0.966,0-2.469,0.004-3.293-0.004l-2.536,10.221l2.862-0.01l0.621-2.834l0.16-0.711h1.801
			c0.057,0.336,0.393,1.273,0.494,1.602l0.697,2.107c0.033-0.002,3.052-0.002,3.088,0l-1.131-3.34
			C54.332,66.345,54.312,66.062,54.887,65.725z M52.633,63.809l-2.939-0.025c-0.004-0.646,0.25-1.452,1.271-1.417
			c0.198,0.006,1.938-0.007,2.204,0.032C53.604,62.342,53.337,63.598,52.633,63.809z"/>
		<path d="M47.017,62.32c-0.032-0.53-0.187-0.977-0.648-1.139c-0.5-0.178-0.642-0.402-0.558-0.945
			c0.064-0.411-0.234-0.791-0.693-0.896c-0.448-0.099-0.891,0.063-1.02,0.489c-0.21,0.697-0.644,0.568-1.124,0.445
			c-1.324-0.33-2.65-0.666-3.977-0.99c-1.322-0.325-1.751-0.081-2.071,1.207c-0.826,3.349-1.646,6.701-2.461,10.054
			c-0.258,1.06,0.008,1.534,1.077,1.81c2.35,0.605,4.704,1.191,7.063,1.759c1.079,0.263,1.543-0.068,1.824-1.196
			c0.536-2.188,1.083-4.375,1.62-6.566C46.379,64.992,46.701,63.63,47.017,62.32z M37.861,70.402
			c-0.126,0.537-0.111,1.253-1.009,1.041c-0.506-0.119-1.208-0.104-1.019-0.93c0.115-0.506,0.045-1.269,1.017-1.104
			C37.289,69.592,38.078,69.477,37.861,70.402z M40.615,70.966c-0.084,0.494-0.005,1.241-0.867,1.206
			c-0.509-0.218-1.358-0.033-1.191-0.933c0.091-0.474-0.023-1.345,0.891-1.169C39.922,70.163,40.773,70.053,40.615,70.966z
			 M42.478,72.82c-0.477-0.062-1.258,0.003-1.183-0.932c0.174-0.438,0.007-1.228,0.788-1.154c0.477,0.043,1.348-0.047,1.264,0.798
			C43.3,72.018,43.433,72.941,42.478,72.82z M45.603,63.1c-0.53,2.084-1.048,4.17-1.545,6.26c-0.157,0.66-0.428,0.912-1.153,0.716
			c-1.907-0.521-3.834-0.976-5.76-1.439c-0.482-0.116-0.852-0.28-0.76-0.879c0.559-2.254,1.114-4.504,1.677-6.756
			c0.137-0.544,0.547-0.543,0.976-0.438c1.99,0.484,3.975,0.979,5.962,1.47C45.579,62.173,45.75,62.516,45.603,63.1z"/>
		<path d="M44.359,62.557c-1.692-0.41-3.391-0.81-5.066-1.281c-0.584-0.162-0.71,0.06-0.822,0.533
			c-0.434,1.828-0.871,3.655-1.348,5.474c-0.12,0.458-0.075,0.69,0.421,0.811c1.726,0.415,3.446,0.855,5.17,1.285
			c0.36,0.09,0.638,0.112,0.755-0.384c0.449-1.93,0.94-3.852,1.458-5.941C45.038,62.732,44.735,62.648,44.359,62.557z"/>
		<path d="M63.505,67.793c-0.009-0.062-0.054-0.068-0.127-0.068c-0.854,0-2.633-0.049-3.489-0.078
			c-0.877-0.031-0.791-0.498-0.582-1.302l1.629-6.54l-2.902,0.006l-0.102,0.539c-0.539,2.367-1.166,4.719-1.344,7.146
			c-0.12,1.654,0.521,2.497,2.206,2.671l4.144-0.001l0.555-2.374L63.505,67.793z"/>
		<path d="M80.572,32.379c-0.834-0.472-1.569-0.324-2.105,0.715c-0.812,1.563-1.9,2.961-3.111,4.378
			c-0.181-0.417-0.319-0.727-0.444-1.04c-0.548-1.402-1.088-2.807-1.636-4.206c-0.357-0.92-0.891-1.385-1.965-0.959
			c-0.822,0.325-1.709,0.493-2.572,0.701c-0.84,0.203-1.012,0.556-0.571,1.376c1.263,2.35,2.429,4.748,3.653,7.116
			c0.295,0.574,0.354,1.132,0.299,1.775c-0.248,2.763-0.633,5.505-1.109,8.236c-0.115,0.668-0.09,1.098,0.812,1.086
			c1.264-0.02,2.529,0.086,3.789,0.19c0.647,0.053,0.902-0.112,0.953-0.812c0.152-2.047,0.414-4.084,0.588-6.13
			c0.17-2.01,0.611-3.875,2.014-5.449c0.747-0.836,1.357-1.811,1.923-2.783c0.579-1.005,1.888-2.543,1.283-3.031
			C82.37,33.543,81.342,32.814,80.572,32.379z"/>
		<path d="M65.58,59.801l-2.52,10.4c0,0,3.385,0,4.615-0.02c1.135-0.017,2.229-0.176,3.266-0.717
			c2.412-1.258,2.981-3.56,3.259-5.921c0.253-2.164-0.894-3.449-3.087-3.646C69.555,59.758,67.15,59.857,65.58,59.801z
			 M71.141,63.665c-0.095,0.608-0.222,1.212-0.385,1.803c-0.525,1.901-1.85,2.638-3.762,2.164c-0.403-0.101-0.381-0.33-0.312-0.603
			l1.262-4.689c0.447,0,1.854,0.006,2.129,0C71.003,62.316,71.268,62.855,71.141,63.665z"/>
	</g>
</g>
<g>
</g>
<g>
</g>
<g>
</g>
<g>
</g>
<g>
</g>
<g>
</g>
<g>
</g>
<g>
</g>
<g>
</g>
<g>
</g>
<g>
</g>
<g>
</g>
<g>
</g>
<g>
</g>
<g>
</g>
</svg>
