<?xml version="1.0" encoding="iso-8859-1"?>
<!-- Generator: Adobe Illustrator 16.0.0, SVG Export Plug-In . SVG Version: 6.00 Build 0)  -->
<!DOCTYPE svg PUBLIC "-//W3C//DTD SVG 1.1//EN" "http://www.w3.org/Graphics/SVG/1.1/DTD/svg11.dtd">
<svg version="1.1" id="Capa_1" xmlns="http://www.w3.org/2000/svg" xmlns:xlink="http://www.w3.org/1999/xlink" x="0px" y="0px"
	 width="97.75px" height="97.75px" viewBox="0 0 97.75 97.75" style="enable-background:new 0 0 97.75 97.75;" xml:space="preserve"
	>
<g>
	<g>
		<path d="M33.26,41.149c-2.15,0-3.893,2.041-3.893,4.564c0,2.52,1.742,4.564,3.893,4.564c2.146,0,3.891-2.047,3.891-4.564
			C37.15,43.19,35.406,41.149,33.26,41.149z"/>
		<path d="M48.875,0C21.883,0,0,21.883,0,48.875S21.883,97.75,48.875,97.75S97.75,75.867,97.75,48.875S75.867,0,48.875,0z
			 M12.533,62.238c-2.191-0.855-1.603-2.855-1.275-3.574l2.455-5.367L7.459,38.979c-0.125-0.427-0.85-2.701,1.371-3.444
			c2.047-0.686,3.143,0.255,3.796,1.598l3.988,9.947l4.181-9.912c0.517-1.226,1.36-2.521,3.83-1.65
			c2.552,0.901,1.367,3.444,1.367,3.444l-9.543,21.411C15.732,61.838,14.727,63.093,12.533,62.238z M33.26,54.139
			c-5.379,0-8.729-3.834-8.729-8.563c0-4.728,3.909-8.562,8.729-8.562c4.819,0,8.728,3.834,8.728,8.562
			C41.987,50.305,39.047,54.139,33.26,54.139z M58.125,47.882c-0.212,4.05-3.367,6.447-7.861,6.507
			c-7.996,0.112-7.844-5-7.875-5.994l0.01-7.919c0.101-1.614,0.92-2.506,2.468-2.618c1.442,0.063,2.174,0.864,2.237,2.457
			l-0.006,7.973c-0.005,0.712,0.374,2.714,3.179,2.645c1.892-0.05,3.024-1.209,3.106-2.901l0.003-7.945
			c0.102-1.617,0.861-2.491,2.354-2.59c1.54,0.034,2.331,0.817,2.403,2.417L58.125,47.882z M74.154,53.271
			c-0.854,0.819-2.571,0.912-3.617,0.055c-0.354-0.303-6.854-5.798-6.854-5.798l-0.007,4.5c-0.067,1.348-0.88,2.094-2.509,2.087
			c-1.561,0-2.409-0.687-2.496-2.097V39.922c0.087-1.467,0.786-2.319,2.488-2.319c1.654,0,2.456,0.903,2.494,2.323l0.035,4.216
			l6.16-5.823c0.617-0.565,2.33-1.303,3.674-0.02c1.83,1.74-0.258,3.725-0.258,3.725l-4.223,3.679l4.713,3.997
			C74.846,50.622,75.059,52.402,74.154,53.271z M82.6,54.239c-5.086-0.08-7.701-2.177-7.873-6.166v-7.938
			c0.086-1.598,0.83-2.521,2.451-2.521c1.467,0.053,2.201,0.919,2.285,2.516l0.014,7.933c0.088,1.674,1.323,2.77,3.135,2.77
			c1.727,0,3.046-1.093,3.133-2.77V40.13c0.059-1.597,0.872-2.457,2.363-2.511c1.496,0.054,2.311,0.914,2.396,2.511v7.933
			C90.282,52.066,87.715,54.159,82.6,54.239z"/>
	</g>
</g>
<g>
</g>
<g>
</g>
<g>
</g>
<g>
</g>
<g>
</g>
<g>
</g>
<g>
</g>
<g>
</g>
<g>
</g>
<g>
</g>
<g>
</g>
<g>
</g>
<g>
</g>
<g>
</g>
<g>
</g>
</svg>
