<?xml version="1.0" encoding="iso-8859-1"?>
<!-- Generator: Adobe Illustrator 16.0.0, SVG Export Plug-In . SVG Version: 6.00 Build 0)  -->
<!DOCTYPE svg PUBLIC "-//W3C//DTD SVG 1.1//EN" "http://www.w3.org/Graphics/SVG/1.1/DTD/svg11.dtd">
<svg version="1.1" id="Capa_1" xmlns="http://www.w3.org/2000/svg" xmlns:xlink="http://www.w3.org/1999/xlink" x="0px" y="0px"
	 width="97.75px" height="97.75px" viewBox="0 0 97.75 97.75" style="enable-background:new 0 0 97.75 97.75;" xml:space="preserve"
	>
<g>
	<g>
		<polygon points="36.108,36.324 31.464,43.707 26.498,36.324 22.259,36.324 29.754,47.469 29.754,58.221 33.272,58.221 
			33.272,47.438 40.263,36.324 		"/>
		<path d="M63.672,55.188l-2.773-0.002c-2.695,0-2.947-1.737-2.947-3.123V43.38h-3.342v10.53c0,2.9,2.472,4.277,5.016,4.277
			c0,0,5.529,0,6.527,0s1.019-1.127,1.019-1.127l0.017-13.682h-3.519L63.672,55.188z"/>
		<path d="M45.271,42.907c-4.205,0-7.612,3.408-7.612,7.612c0,4.205,3.407,7.611,7.612,7.611c4.204,0,7.612-3.406,7.612-7.611
			C52.883,46.315,49.475,42.907,45.271,42.907z M45.271,54.614c-2.258,0-4.096-1.837-4.096-4.095c0-2.259,1.838-4.096,4.096-4.096
			s4.095,1.837,4.095,4.096C49.366,52.777,47.529,54.614,45.271,54.614z"/>
		<path d="M77.333,43.188c-0.343,0-1.294,0.001-3.796,0.001c-5.33,0-5.021,5.234-5.021,5.234v9.797h3.606c0,0,0-8.397,0-9.661
			c0-1.137,1.198-1.891,2.39-1.891c1.187,0,2.908,0.009,2.908,0.009v-3.489l0,0C77.448,43.188,77.333,43.188,77.333,43.188z"/>
		<path d="M48.875,0C21.882,0,0,21.882,0,48.875S21.882,97.75,48.875,97.75S97.75,75.868,97.75,48.875S75.868,0,48.875,0z
			 M85.518,45.974v9.219c0,3.511-1.906,9.863-10.024,10.576c0,0-8.864,1.319-26.046,1.319c-7.215,0-13.466-0.231-18.298-0.503
			l-8.546,8.546v-9.157c-1.361-0.125-2.091-0.205-2.091-0.205c-6.882-0.795-8.279-6.803-8.279-10.576v-9.219v-1.313v-5.169
			c0-3.497,1.905-9.841,10.023-10.553c0,0,8.866-1.32,26.048-1.32s28.934,1.32,28.934,1.32c6.883,0.794,8.279,6.794,8.279,10.553
			v5.169V45.974z"/>
	</g>
</g>
<g>
</g>
<g>
</g>
<g>
</g>
<g>
</g>
<g>
</g>
<g>
</g>
<g>
</g>
<g>
</g>
<g>
</g>
<g>
</g>
<g>
</g>
<g>
</g>
<g>
</g>
<g>
</g>
<g>
</g>
</svg>
