<?xml version="1.0" encoding="iso-8859-1"?>
<!-- Generator: Adobe Illustrator 16.0.0, SVG Export Plug-In . SVG Version: 6.00 Build 0)  -->
<!DOCTYPE svg PUBLIC "-//W3C//DTD SVG 1.1//EN" "http://www.w3.org/Graphics/SVG/1.1/DTD/svg11.dtd">
<svg version="1.1" id="Capa_1" xmlns="http://www.w3.org/2000/svg" xmlns:xlink="http://www.w3.org/1999/xlink" x="0px" y="0px"
	 width="97.75px" height="97.75px" viewBox="0 0 97.75 97.75" style="enable-background:new 0 0 97.75 97.75;" xml:space="preserve"
	>
<g>
	<g>
		<path d="M70.294,41.876h-3.499v13.96h3.499c4.394,0,6.627-3.499,6.627-6.924C76.921,45.486,74.688,41.876,70.294,41.876z"/>
		<path d="M48.875,0C21.882,0,0,21.882,0,48.875S21.882,97.75,48.875,97.75S97.75,75.868,97.75,48.875S75.868,0,48.875,0z
			 M31.403,41.913H20.866v4.654h10.529v5.919H20.866v9.419h-6.329V35.845h16.866V41.913z M45.979,62.133
			c-7.322,0-13.258-5.938-13.258-13.258c0-7.322,5.936-13.258,13.258-13.258c7.321,0,13.257,5.936,13.257,13.258
			C59.236,56.195,53.301,62.133,45.979,62.133z M70.294,61.904h-9.828v-26.06h9.828c8.601,0,12.919,6.553,12.919,13.067
			C83.213,55.426,78.895,61.904,70.294,61.904z"/>
		<circle cx="45.979" cy="48.874" r="7.274"/>
	</g>
</g>
<g>
</g>
<g>
</g>
<g>
</g>
<g>
</g>
<g>
</g>
<g>
</g>
<g>
</g>
<g>
</g>
<g>
</g>
<g>
</g>
<g>
</g>
<g>
</g>
<g>
</g>
<g>
</g>
<g>
</g>
</svg>
