<?xml version="1.0" encoding="iso-8859-1"?>
<!-- Generator: Adobe Illustrator 16.0.0, SVG Export Plug-In . SVG Version: 6.00 Build 0)  -->
<!DOCTYPE svg PUBLIC "-//W3C//DTD SVG 1.1//EN" "http://www.w3.org/Graphics/SVG/1.1/DTD/svg11.dtd">
<svg version="1.1" id="Capa_1" xmlns="http://www.w3.org/2000/svg" xmlns:xlink="http://www.w3.org/1999/xlink" x="0px" y="0px"
	 width="97.75px" height="97.75px" viewBox="0 0 97.75 97.75" style="enable-background:new 0 0 97.75 97.75;" xml:space="preserve"
	>
<g>
	<g>
		<path d="M71.846,48.456c-0.281-0.281-0.609-0.502-0.986-0.665c-0.375-0.162-0.772-0.243-1.195-0.243
			c-0.426,0-0.826,0.081-1.198,0.243c-0.372,0.163-0.698,0.384-0.979,0.665c-0.282,0.283-0.504,0.61-0.666,0.987
			c-0.163,0.375-0.244,0.772-0.244,1.193c0,0.428,0.081,0.828,0.244,1.204c0.162,0.375,0.384,0.702,0.666,0.986
			c0.281,0.28,0.607,0.504,0.979,0.663c0.372,0.165,0.772,0.244,1.198,0.244c0.423,0,0.82-0.08,1.195-0.244
			c0.377-0.159,0.705-0.383,0.986-0.663c0.283-0.284,0.506-0.611,0.668-0.986c0.168-0.376,0.248-0.776,0.248-1.204
			c0-0.421-0.08-0.818-0.248-1.193C72.352,49.066,72.129,48.739,71.846,48.456z"/>
		<path d="M53.932,52.156c-0.115-0.092-0.244-0.162-0.386-0.217c-0.142-0.051-0.288-0.076-0.446-0.076
			c-0.154,0-0.303,0.025-0.445,0.076c-0.141,0.055-0.271,0.125-0.385,0.213c-0.115,0.093-0.213,0.201-0.293,0.324
			c-0.084,0.125-0.142,0.26-0.18,0.405h2.607c-0.034-0.142-0.094-0.278-0.178-0.401S54.043,52.249,53.932,52.156z"/>
		<path d="M86.154,48.223c-0.266-0.211-0.559-0.375-0.883-0.494c-0.324-0.122-0.666-0.181-1.026-0.181
			c-0.354,0-0.699,0.059-1.026,0.181c-0.328,0.119-0.623,0.282-0.888,0.491c-0.265,0.207-0.489,0.454-0.679,0.742
			c-0.188,0.287-0.324,0.597-0.41,0.935h6.009c-0.084-0.33-0.224-0.641-0.416-0.926C86.646,48.684,86.42,48.436,86.154,48.223z"/>
		<path d="M48.875,0C21.883,0,0,21.883,0,48.875S21.883,97.75,48.875,97.75S97.75,75.867,97.75,48.875S75.867,0,48.875,0z
			 M6.355,55.234H4.861v-12.54h1.494V55.234z M14.354,55.234H12.86v-5.807c-0.017-0.257-0.081-0.496-0.196-0.726
			c-0.112-0.228-0.26-0.427-0.441-0.599c-0.177-0.169-0.387-0.305-0.62-0.4c-0.236-0.098-0.485-0.145-0.747-0.145
			c-0.268,0-0.521,0.051-0.757,0.15c-0.234,0.1-0.444,0.231-0.626,0.399c-0.182,0.168-0.329,0.365-0.441,0.594
			c-0.109,0.229-0.174,0.469-0.19,0.726H8.814v5.806H7.32v-9.167h1.494v0.658c0.604-0.438,1.284-0.658,2.041-0.658
			c0.468,0,0.906,0.09,1.322,0.265c0.415,0.18,0.782,0.42,1.096,0.727s0.572,0.666,0.764,1.071c0.195,0.407,0.303,0.839,0.324,1.302
			L14.354,55.234z M21.685,53.082c-0.187,0.428-0.438,0.8-0.754,1.118c-0.32,0.319-0.692,0.571-1.12,0.755
			c-0.427,0.186-0.881,0.279-1.357,0.279c-0.454,0-0.884-0.08-1.284-0.24c-0.401-0.158-0.755-0.378-1.065-0.656
			c-0.305-0.279-0.559-0.607-0.756-0.98c-0.201-0.377-0.327-0.781-0.377-1.215h1.511c0.045,0.234,0.129,0.448,0.248,0.641
			c0.119,0.195,0.265,0.363,0.439,0.509c0.172,0.146,0.367,0.258,0.589,0.338c0.218,0.08,0.449,0.119,0.695,0.119
			c0.279,0,0.541-0.056,0.785-0.163c0.246-0.107,0.458-0.253,0.64-0.438c0.184-0.186,0.327-0.403,0.432-0.649
			c0.105-0.247,0.158-0.511,0.158-0.79c0-0.205-0.137-0.304-0.411-0.304h-3.363c-0.585,0-1.023-0.155-1.313-0.462
			c-0.291-0.31-0.437-0.764-0.437-1.367c0-0.479,0.093-0.93,0.278-1.356c0.185-0.428,0.438-0.8,0.757-1.118
			c0.317-0.319,0.69-0.571,1.117-0.756c0.425-0.186,0.879-0.278,1.356-0.278c0.443,0,0.866,0.08,1.263,0.239
			c0.398,0.159,0.754,0.377,1.062,0.657c0.311,0.279,0.568,0.605,0.773,0.981c0.205,0.375,0.334,0.78,0.385,1.211h-1.509
			c-0.05-0.219-0.131-0.432-0.253-0.625c-0.124-0.196-0.272-0.365-0.449-0.51c-0.176-0.142-0.372-0.253-0.589-0.337
			c-0.215-0.081-0.444-0.123-0.683-0.123c-0.279,0-0.54,0.054-0.783,0.159c-0.246,0.104-0.461,0.249-0.643,0.436
			c-0.181,0.186-0.326,0.399-0.432,0.645c-0.105,0.243-0.157,0.505-0.157,0.776c0,0.115,0.026,0.197,0.078,0.252
			c0.051,0.055,0.12,0.08,0.203,0.08h3.33c0.638,0,1.114,0.152,1.435,0.456c0.317,0.307,0.478,0.76,0.478,1.362
			C21.962,52.202,21.868,52.655,21.685,53.082z M24.029,55.234h-1.492v-9.169h1.492V55.234z M23.277,44.188
			c-0.494,0-0.74-0.248-0.74-0.742c0-0.499,0.246-0.751,0.74-0.751c0.501,0,0.752,0.252,0.752,0.751
			C24.029,43.94,23.778,44.188,23.277,44.188z M33.543,55.234h-1.491v-1.197c-0.884,0.799-1.917,1.197-3.099,1.197
			c-1.27,0-2.349-0.449-3.244-1.342c-0.893-0.894-1.341-1.977-1.341-3.244c0-1.263,0.448-2.34,1.341-3.234
			c0.897-0.897,1.981-1.349,3.244-1.349c1.182,0,2.215,0.398,3.099,1.194v-4.564h1.491V55.234z M43.366,51.018
			c-0.013,0.123-0.029,0.254-0.053,0.387h-7.528c0.086,0.332,0.222,0.644,0.405,0.927c0.184,0.285,0.411,0.535,0.673,0.744
			c0.266,0.21,0.562,0.375,0.891,0.495c0.324,0.119,0.671,0.179,1.036,0.179c0.289,0,0.57-0.039,0.84-0.119
			c0.271-0.08,0.521-0.192,0.755-0.334c0.233-0.144,0.446-0.312,0.637-0.506c0.188-0.198,0.352-0.412,0.482-0.647h1.631
			c-0.153,0.445-0.373,0.857-0.659,1.234c-0.282,0.378-0.616,0.708-0.993,0.982s-0.797,0.49-1.256,0.644
			c-0.455,0.153-0.938,0.231-1.437,0.231c-1.271,0-2.352-0.448-3.244-1.342c-0.892-0.893-1.339-1.976-1.339-3.244
			c0-1.262,0.446-2.34,1.339-3.233c0.9-0.897,1.979-1.349,3.244-1.349c0.625,0,1.215,0.121,1.771,0.362
			c0.555,0.243,1.044,0.573,1.459,0.991c0.42,0.419,0.752,0.903,0.995,1.46c0.244,0.555,0.368,1.145,0.368,1.77
			C43.383,50.768,43.375,50.891,43.366,51.018z M47.609,55.193c-0.205,0-0.396-0.038-0.577-0.114
			c-0.179-0.075-0.339-0.181-0.475-0.312c-0.139-0.133-0.246-0.285-0.332-0.463c-0.084-0.178-0.127-0.365-0.134-0.568v-1.873h-0.623
			v-0.65h0.623V50.4h0.646v0.812h0.869v0.65h-0.869v1.873c0.008,0.113,0.036,0.219,0.084,0.318c0.05,0.098,0.112,0.186,0.19,0.26
			c0.077,0.076,0.167,0.131,0.271,0.174c0.103,0.043,0.212,0.062,0.326,0.062L47.609,55.193L47.609,55.193z M50.956,55.193h-0.649
			v-2.518c-0.009-0.111-0.039-0.218-0.088-0.314c-0.05-0.102-0.113-0.185-0.191-0.26c-0.075-0.069-0.166-0.132-0.27-0.175
			c-0.1-0.044-0.207-0.063-0.318-0.063c-0.119,0-0.228,0.021-0.33,0.063c-0.104,0.043-0.192,0.104-0.274,0.175
			c-0.076,0.075-0.141,0.158-0.188,0.26c-0.05,0.098-0.076,0.203-0.083,0.314v2.518h-0.649V49.75h0.649v1.74
			c0.263-0.184,0.551-0.277,0.875-0.277c0.201,0,0.393,0.042,0.572,0.116c0.182,0.077,0.34,0.18,0.479,0.313
			c0.137,0.133,0.246,0.287,0.33,0.465c0.08,0.179,0.129,0.367,0.138,0.568v2.518H50.956z M55.088,53.365
			c-0.004,0.056-0.012,0.111-0.023,0.168h-3.268c0.038,0.145,0.096,0.277,0.178,0.4c0.077,0.127,0.178,0.232,0.291,0.323
			c0.116,0.091,0.242,0.162,0.383,0.216c0.146,0.053,0.295,0.078,0.451,0.078c0.129,0,0.248-0.016,0.368-0.053
			c0.116-0.035,0.224-0.08,0.327-0.145c0.1-0.062,0.193-0.135,0.275-0.221c0.084-0.087,0.15-0.18,0.209-0.279h0.709
			c-0.067,0.192-0.162,0.371-0.284,0.535c-0.124,0.163-0.269,0.305-0.435,0.426c-0.162,0.119-0.347,0.213-0.545,0.279
			c-0.201,0.069-0.406,0.1-0.625,0.1c-0.55,0-1.02-0.192-1.406-0.58c-0.389-0.389-0.582-0.859-0.582-1.409s0.193-1.017,0.582-1.404
			c0.388-0.391,0.856-0.588,1.406-0.588c0.273,0,0.529,0.054,0.771,0.159c0.237,0.104,0.453,0.248,0.633,0.431
			c0.181,0.183,0.326,0.394,0.435,0.634c0.104,0.241,0.158,0.498,0.158,0.77C55.096,53.257,55.093,53.311,55.088,53.365z
			 M56.668,46.066c-0.035,0.067-0.348,0.904-1.09,1.175l0.939,2.153L54.2,47.907c0,0-5.781,0.382-8.113,0.288
			c0,0-3.122,0.19-3.274-1.888l0.033-1.179c-0.041-0.003-0.081,0-0.124-0.003l-2.482,0.01c0,0-2.264-0.241-2.454-2.314l-2.347,3.164
			l2.185-6.284c0,0-0.026-3.19,5.342-2.754c-0.026,0,4.189-0.335,3.867,4.218c1.74,0.007,7.418,0.052,8.297,0.376
			c0,0,1.988,0.437,1.909,1.581C57.038,43.122,57.051,45.291,56.668,46.066z M64.812,55.22h-1.49v-5.802
			c-0.024-0.257-0.092-0.499-0.206-0.727s-0.261-0.424-0.438-0.594c-0.182-0.167-0.387-0.302-0.617-0.4
			c-0.234-0.098-0.482-0.149-0.746-0.149c-0.268,0-0.521,0.052-0.754,0.149c-0.235,0.1-0.445,0.233-0.631,0.4
			c-0.181,0.17-0.326,0.366-0.437,0.594c-0.109,0.228-0.175,0.47-0.191,0.727v5.802h-1.493V42.684h1.493v4.004
			c0.604-0.423,1.275-0.635,2.013-0.635c0.469,0,0.91,0.092,1.322,0.266c0.418,0.177,0.783,0.417,1.1,0.721
			c0.316,0.306,0.566,0.664,0.759,1.071c0.19,0.41,0.298,0.846,0.319,1.308v5.801H64.812z M73.893,52.417
			c-0.24,0.556-0.569,1.041-0.99,1.454c-0.418,0.416-0.903,0.745-1.463,0.986c-0.559,0.242-1.149,0.361-1.775,0.361
			c-1.27,0-2.35-0.445-3.241-1.338c-0.896-0.895-1.342-1.977-1.342-3.244c0-1.264,0.446-2.34,1.342-3.234
			c0.897-0.899,1.979-1.351,3.241-1.351c0.626,0,1.218,0.124,1.771,0.363c0.556,0.243,1.043,0.572,1.461,0.992
			c0.416,0.418,0.748,0.903,0.994,1.46c0.241,0.554,0.365,1.144,0.365,1.77C74.256,51.27,74.134,51.863,73.893,52.417z
			 M79.343,55.22c-0.473-0.005-0.915-0.095-1.329-0.268c-0.416-0.175-0.781-0.411-1.099-0.718c-0.315-0.305-0.567-0.658-0.759-1.066
			c-0.191-0.407-0.297-0.843-0.313-1.309v-4.312h-1.435v-1.495h1.435v-1.877h1.495v1.878h1.997v1.495h-1.997v4.312
			c0.018,0.262,0.083,0.507,0.193,0.733c0.109,0.228,0.255,0.429,0.434,0.599c0.18,0.17,0.387,0.304,0.623,0.4
			c0.234,0.098,0.487,0.145,0.755,0.145V55.22z M88.82,51.006c-0.012,0.124-0.027,0.253-0.049,0.383h-7.529
			c0.086,0.338,0.22,0.646,0.406,0.93c0.186,0.285,0.41,0.533,0.676,0.742c0.262,0.213,0.559,0.377,0.885,0.496
			c0.33,0.121,0.676,0.18,1.036,0.18c0.291,0,0.573-0.038,0.843-0.121c0.27-0.077,0.521-0.188,0.754-0.33
			c0.236-0.145,0.447-0.312,0.639-0.508c0.19-0.198,0.354-0.411,0.481-0.646h1.63c-0.154,0.444-0.371,0.857-0.658,1.234
			c-0.283,0.378-0.613,0.704-0.996,0.981c-0.377,0.274-0.795,0.489-1.25,0.644c-0.461,0.153-0.94,0.229-1.441,0.229
			c-1.268,0-2.35-0.444-3.241-1.338c-0.894-0.894-1.339-1.976-1.339-3.243c0-1.265,0.445-2.341,1.339-3.235
			c0.899-0.899,1.981-1.351,3.241-1.351c0.628,0,1.218,0.124,1.773,0.363c0.554,0.243,1.041,0.572,1.459,0.992
			c0.416,0.418,0.748,0.902,0.992,1.46c0.245,0.554,0.367,1.144,0.367,1.771C88.838,50.757,88.833,50.88,88.82,51.006z
			 M91.555,54.952c-0.418-0.175-0.787-0.411-1.104-0.718c-0.314-0.305-0.567-0.658-0.76-1.066c-0.189-0.407-0.293-0.843-0.312-1.309
			v-9.176h1.496v9.176c0.018,0.261,0.079,0.506,0.191,0.732c0.108,0.229,0.258,0.428,0.435,0.598
			c0.179,0.172,0.39,0.305,0.628,0.401s0.494,0.146,0.76,0.146v1.482C92.416,55.215,91.973,55.125,91.555,54.952z"/>
		<path d="M46.811,41.419c0.009-0.087,0.017-0.172,0.021-0.254c-0.311,0-0.494,0-0.494,0c-3.234-0.092-3.436,1.744-3.436,1.744
			l-0.057,2.22C46.765,45.248,46.811,41.419,46.811,41.419z"/>
		<path d="M31.133,48.468c-0.282-0.28-0.611-0.501-0.986-0.666c-0.377-0.159-0.773-0.242-1.193-0.242
			c-0.428,0-0.828,0.083-1.201,0.242c-0.372,0.165-0.699,0.386-0.98,0.666c-0.284,0.282-0.504,0.611-0.666,0.987
			s-0.243,0.773-0.243,1.193c0,0.429,0.081,0.828,0.243,1.203s0.382,0.707,0.666,0.987c0.281,0.279,0.608,0.503,0.98,0.666
			c0.373,0.161,0.773,0.242,1.201,0.242c0.42,0,0.816-0.081,1.193-0.242c0.375-0.163,0.704-0.387,0.986-0.666
			c0.281-0.28,0.503-0.612,0.67-0.987c0.165-0.375,0.249-0.774,0.249-1.203c0-0.42-0.084-0.817-0.249-1.193
			C31.636,49.079,31.414,48.75,31.133,48.468z"/>
		<path d="M40.697,48.232c-0.266-0.209-0.559-0.375-0.883-0.496c-0.325-0.119-0.664-0.178-1.024-0.178
			c-0.358,0-0.702,0.059-1.029,0.178c-0.327,0.12-0.622,0.285-0.888,0.492c-0.265,0.209-0.491,0.455-0.68,0.744
			c-0.185,0.286-0.322,0.598-0.408,0.934h6.008c-0.084-0.329-0.223-0.637-0.413-0.926C41.188,48.691,40.962,48.445,40.697,48.232z"
			/>
	</g>
</g>
<g>
</g>
<g>
</g>
<g>
</g>
<g>
</g>
<g>
</g>
<g>
</g>
<g>
</g>
<g>
</g>
<g>
</g>
<g>
</g>
<g>
</g>
<g>
</g>
<g>
</g>
<g>
</g>
<g>
</g>
</svg>
