<?xml version="1.0" encoding="iso-8859-1"?>
<!-- Generator: Adobe Illustrator 16.0.0, SVG Export Plug-In . SVG Version: 6.00 Build 0)  -->
<!DOCTYPE svg PUBLIC "-//W3C//DTD SVG 1.1//EN" "http://www.w3.org/Graphics/SVG/1.1/DTD/svg11.dtd">
<svg version="1.1" id="Capa_1" xmlns="http://www.w3.org/2000/svg" xmlns:xlink="http://www.w3.org/1999/xlink" x="0px" y="0px"
	 width="97.75px" height="97.75px" viewBox="0 0 97.75 97.75" style="enable-background:new 0 0 97.75 97.75;" xml:space="preserve"
	>
<g>
	<g>
		<path d="M59.499,60.852c-1.017,0-1.828,0.943-1.828,2.086c0,1.146,0.812,2.095,1.828,2.095c1.008,0,1.819-0.947,1.819-2.095
			C61.318,61.795,60.507,60.852,59.499,60.852z"/>
		<path d="M48.875,0C21.882,0,0,21.883,0,48.875S21.882,97.75,48.875,97.75S97.75,75.867,97.75,48.875S75.868,0,48.875,0z
			 M59.661,31.564c1.459,0,2.646,1.185,2.646,2.648c0,1.46-1.187,2.644-2.646,2.644c-1.466,0-2.649-1.184-2.649-2.644
			C57.012,32.749,58.195,31.564,59.661,31.564z M62.236,40.499v14.968c0,1.441-1.168,2.61-2.612,2.61c-1.44,0-2.61-1.169-2.61-2.61
			V40.499c0-1.441,1.17-2.612,2.61-2.612C61.066,37.887,62.236,39.058,62.236,40.499z M33.689,55.645
			c0,2.215-1.255,10.541-13.338,10.541c-1.351,0-2.442-1.095-2.442-2.445c0-1.35,1.093-2.444,2.442-2.444
			c7.397,0,8.454-4.011,8.454-6.885c0-0.04-0.005-6.876-0.005-6.876c0-0.003,0.001-0.01,0.001-0.015
			c-0.004-0.058-0.01-0.115-0.01-0.173v-0.021c0-1.399-0.438-5.966-5.975-5.966c-3.294,0-5.977,2.679-5.977,5.973
			c0,3.298,2.683,5.978,5.977,5.978c3.151,0,4.869-2.226,5.161-2.451v3.66c0,1.771-2.396,3.492-5.831,3.492
			c-5.738,0-10.195-4.687-10.195-10.679c0-5.987,4.873-10.862,10.865-10.862c6.489,0,10.857,4.36,10.863,10.854v0.022v0.012
			c0.005,0.057,0.009,0.116,0.009,0.176L33.689,55.645L33.689,55.645z M51.227,54.218v-6.734c0-0.006,0-0.009,0-0.015
			c-0.002-0.059-0.006-0.115-0.006-0.173v-0.021c-0.005-1.393-0.437-5.941-5.95-5.941c-3.281,0-5.949,2.669-5.949,5.948
			c0,3.282,2.668,5.95,5.949,5.95c3.139,0,4.849-2.319,5.139-2.545v3.521c0,2.266-2.451,3.704-5.516,3.704
			c-5.966,0-10.443-4.666-10.443-10.632c0-5.963,4.854-10.814,10.818-10.814h0.002c6.461,0,10.809,4.342,10.815,10.805v0.023v0.011
			l-0.001,0.002c0.005,0.059,0.011,0.115,0.011,0.175v8.074c0,0.014-0.003,0.03-0.003,0.045v0.113c0,1.557,1.08,2.282,1.08,2.282
			S51.227,58.738,51.227,54.218z M59.5,66.136c-1.742,0-3.007-1.411-3.007-3.198c0-1.778,1.265-3.19,3.007-3.19
			c1.729,0,2.995,1.412,2.995,3.19C62.495,64.725,61.229,66.136,59.5,66.136z M67.779,66.029h-1.168v-4.092
			c0-0.654-0.395-1.052-1.059-1.052c-0.654,0-1.051,0.396-1.051,1.052v4.092h-1.167v-4.065c0-0.628,0.22-1.192,0.617-1.593
			c0.407-0.405,0.973-0.625,1.603-0.625c0.637,0,1.2,0.22,1.606,0.625c0.397,0.398,0.618,0.965,0.618,1.592V66.029z M72.607,66.029
			h-1.858c-1.253,0-1.924-0.762-1.924-1.938v-4.194h1.166v4.179c0,0.569,0.213,0.804,0.768,0.804h1.849V66.029L72.607,66.029z
			 M74.518,66.029H73.35v-6.135h1.168V66.029z M80.093,66.029h-1.168v-4.092c0-0.654-0.396-1.052-1.059-1.052
			c-0.654,0-1.054,0.396-1.054,1.052v4.092h-1.166v-4.065c0-0.628,0.221-1.192,0.619-1.593c0.406-0.405,0.971-0.625,1.601-0.625
			c0.637,0,1.2,0.22,1.606,0.625c0.398,0.398,0.619,0.965,0.619,1.592L80.093,66.029L80.093,66.029z M79.852,54.218v-6.734v-0.015
			c-0.004-0.059-0.009-0.115-0.009-0.173v-0.021c-0.002-1.393-0.435-5.941-5.948-5.941c-3.281,0-5.947,2.669-5.947,5.948
			c0,3.282,2.666,5.95,5.949,5.95c3.138,0,4.847-2.319,5.139-2.545v3.521c0,2.266-2.451,3.704-5.516,3.704
			c-5.967,0-10.441-4.666-10.441-10.632c0-5.963,4.852-10.814,10.816-10.814h0.002c6.461,0,10.809,4.342,10.815,10.805v0.023v0.011
			l-0.002,0.002c0.005,0.059,0.011,0.115,0.011,0.175v8.074c0,0.014-0.003,0.03-0.003,0.045v0.113c0,1.557,1.08,2.282,1.08,2.282
			S79.852,58.738,79.852,54.218z M85.283,61.043h-2.159c-0.556,0-0.774,0.215-0.774,0.777v0.593h2.481v1.086H82.35v0.593
			c0,0.566,0.221,0.787,0.774,0.787h2.159v1.148h-2.166c-1.264,0-1.938-0.776-1.938-1.952v-2.228c0-1.175,0.674-1.951,1.938-1.951
			h2.166V61.043z"/>
	</g>
</g>
<g>
</g>
<g>
</g>
<g>
</g>
<g>
</g>
<g>
</g>
<g>
</g>
<g>
</g>
<g>
</g>
<g>
</g>
<g>
</g>
<g>
</g>
<g>
</g>
<g>
</g>
<g>
</g>
<g>
</g>
</svg>
