<?xml version="1.0" encoding="iso-8859-1"?>
<!-- Generator: Adobe Illustrator 16.0.0, SVG Export Plug-In . SVG Version: 6.00 Build 0)  -->
<!DOCTYPE svg PUBLIC "-//W3C//DTD SVG 1.1//EN" "http://www.w3.org/Graphics/SVG/1.1/DTD/svg11.dtd">
<svg version="1.1" id="Capa_1" xmlns="http://www.w3.org/2000/svg" xmlns:xlink="http://www.w3.org/1999/xlink" x="0px" y="0px"
	 width="97.75px" height="97.75px" viewBox="0 0 97.75 97.75" style="enable-background:new 0 0 97.75 97.75;" xml:space="preserve"
	>
<g>
	<g>
		<path d="M49.005,47.688l-0.002-0.007c-0.118-0.852-0.85-1.463-1.684-1.463c-0.081,0-0.161,0.004-0.242,0.016
			c-0.851,0.119-1.465,0.853-1.465,1.687c0,0.078,0.004,0.158,0.016,0.24l0.003,0.009v0.01c0,0,0.001,0.037,0.007,0.114
			c0.006,0.081,0.018,0.198,0.035,0.354c0.036,0.309,0.101,0.765,0.214,1.347c0.041,0.217,0.177,0.519,0.366,0.841
			c0.187,0.32,0.428,0.666,0.675,0.994c0.433,0.575,0.89,1.1,1.136,1.377c0-0.003,0.002-0.004,0.004-0.007
			c0.075-0.163,0.182-0.394,0.299-0.662c0.235-0.536,0.519-1.229,0.703-1.845c0.125-0.407,0.205-0.783,0.203-1.037
			c0-0.049-0.002-0.094-0.008-0.133L49.005,47.688z"/>
		<path d="M36.754,33.35c-0.397,0-0.802,0.029-1.206,0.084c-4.253,0.603-7.324,4.251-7.324,8.427c0,0.396,0.026,0.799,0.084,1.204
			c0.603,4.254,4.252,7.326,8.426,7.326c0.397,0,0.801-0.029,1.205-0.086c4.252-0.603,7.323-4.25,7.323-8.424
			c0-0.398-0.027-0.801-0.085-1.207C44.575,36.422,40.928,33.35,36.754,33.35z M37.216,45.204c-0.161,0.022-0.321,0.033-0.479,0.033
			c-1.651,0-3.092-1.213-3.33-2.896c-0.022-0.16-0.033-0.319-0.033-0.478c0-1.65,1.215-3.09,2.895-3.329
			c0.16-0.023,0.319-0.035,0.477-0.035c1.652,0,3.094,1.216,3.332,2.897c0.023,0.16,0.034,0.319,0.034,0.477
			C40.111,43.524,38.897,44.966,37.216,45.204z"/>
		<polygon points="62.273,18.45 59.645,22.664 62.807,22.217 		"/>
		<polygon points="24.598,23.786 25.131,27.555 28.294,27.106 		"/>
		<path d="M55.775,30.654c-0.397,0-0.801,0.028-1.207,0.085c-4.252,0.602-7.323,4.25-7.323,8.425c0,0.396,0.029,0.8,0.086,1.205
			c0.602,4.255,4.247,7.324,8.421,7.324c0.398,0,0.803-0.027,1.207-0.085c4.255-0.602,7.325-4.25,7.325-8.421
			c0-0.398-0.028-0.802-0.085-1.207C63.598,33.727,59.951,30.654,55.775,30.654z M56.236,42.51
			c-0.159,0.023-0.319,0.034-0.478,0.034c-1.651,0-3.092-1.216-3.329-2.897c-0.023-0.159-0.035-0.318-0.035-0.476
			c0-1.649,1.215-3.093,2.897-3.33c0.16-0.023,0.319-0.035,0.476-0.035c1.652,0,3.092,1.216,3.332,2.896
			c0.021,0.161,0.033,0.319,0.033,0.477C59.134,40.831,57.921,42.271,56.236,42.51z"/>
		<path d="M48.875,0C21.883,0,0,21.883,0,48.875S21.883,97.75,48.875,97.75S97.75,75.867,97.75,48.875S75.867,0,48.875,0z
			 M25.769,53.852c-0.004,0.019-0.889,5.455-4.85,9.692l-0.267,0.284l-0.054-0.385c-0.002-0.008-0.168-1.18-0.168-2.969
			c0.002-3.435,0.606-9.154,4.205-13.264l0.274-0.312l0.864,6.924L25.769,53.852z M42.751,83.738l-1.118,1.435l-1.476-1.065
			l-1.248,1.522l-0.375-2.774v-0.004c0-0.004-0.007-0.062-0.007-0.16c0.001-0.28,0.038-0.885,0.354-1.479
			c0.312-0.595,0.925-1.168,1.999-1.322h0.002h0.001c0.161-0.022,0.316-0.033,0.463-0.033c0.537,0,0.979,0.141,1.33,0.352
			c0.351,0.212,0.61,0.491,0.799,0.768c0.379,0.553,0.484,1.092,0.486,1.107v0.004l0.412,2.771L42.751,83.738z M51.812,79.764
			c-1.285,0.174-2.502,0.258-3.657,0.258c-4.592,0-8.193-1.291-11-3.162l-0.223-0.148l0.218-0.159
			c0.828-0.599,1.548-1.368,2.133-2.276l0.118-0.181l0.162,0.142c1.452,1.269,3.195,2.027,5.031,2.027
			c0.309,0,0.623-0.021,0.933-0.063c2.163-0.306,3.958-1.644,5.176-3.533l0.118-0.181l0.162,0.142
			c1.453,1.263,3.193,2.019,5.025,2.021c0.309,0,0.618-0.021,0.93-0.066c2.166-0.307,3.965-1.646,5.184-3.54l0.115-0.185
			l0.164,0.144c0.801,0.698,1.687,1.231,2.631,1.578l0.25,0.092l-0.172,0.204c-2.721,3.24-6.904,5.948-13.297,6.893h-0.002V79.764z
			 M64.216,80.698l-1.12,1.434l-1.473-1.065l-1.25,1.525l-0.374-2.777v-0.006c0-0.004-0.006-0.062-0.006-0.16
			c0.001-0.278,0.038-0.885,0.354-1.479c0.312-0.593,0.926-1.163,2-1.316h0.002c0.164-0.023,0.319-0.033,0.469-0.033
			c0.535,0,0.977,0.138,1.326,0.35c0.351,0.211,0.607,0.492,0.799,0.768c0.375,0.554,0.479,1.093,0.484,1.105v0.004l0.411,2.771
			L64.216,80.698z M68.243,67.742c-0.565,1.373-1.302,2.666-2.247,3.986l-0.077,0.106l-0.127-0.038
			c-1.194-0.348-2.333-1.066-3.313-2.085L62,69.214l-0.322,0.611c-1.097,2.073-2.814,3.475-4.879,3.767
			c-0.265,0.036-0.527,0.055-0.791,0.055h-0.002h-0.001c-1.782,0-3.521-0.848-4.94-2.315l0.002,0.002l-0.004-0.003l0.002,0.001
			l-0.483-0.496l-0.325,0.608c-1.095,2.074-2.825,3.476-4.886,3.767c-0.27,0.038-0.551,0.056-0.813,0.056h-0.002h-0.002
			c-1.777-0.002-3.55-0.847-4.967-2.312l-0.561-0.521l-0.454,0.805l-0.002,0.004c-0.756,1.162-1.469,2.119-3.006,2.783l-0.261,0.113
			v-0.214c-0.747-0.827-2.037-2.106-2.954-3.26l-0.241-0.304h0.389c0.168,0,0.403-0.006,0.593-0.012
			c0.19-0.007,0.337-0.013,0.337-0.013h0.004h0.005c1.063,0,2.021-0.407,2.875-1.056c0.852-0.647,1.594-1.539,2.207-2.491
			l0.116-0.183l0.163,0.144c1.451,1.265,3.191,2.031,5.023,2.033c0.311,0,0.621-0.019,0.934-0.064
			c2.161-0.305,3.955-1.638,5.175-3.528l0.117-0.181l0.163,0.144c1.452,1.263,3.192,2.023,5.022,2.025
			c0.313,0,0.625-0.011,0.933-0.054c2.164-0.308,3.957-1.62,5.177-3.51l0.118-0.183l0.161,0.143
			c1.453,1.266,3.193,2.064,5.023,2.066c0.326,0,0.637,0.023,0.959,0.023c0.021,0.001,0.075-0.018,0.147-0.059
			c0.074-0.039,0.161-0.094,0.282-0.121l0.347-0.074L68.243,67.742z M69.927,61.05c-0.182,1.515-0.524,3.265-1.153,5.134
			l-0.035,0.102l-0.104,0.021c-0.009,0.002-0.616,0.123-1.556,0.123c-0.143,0-0.29,0-0.441-0.009
			c-1.763-0.069-3.508-0.704-4.934-2.187l-0.479-0.495l-0.32,0.608c-1.096,2.072-2.818,3.478-4.881,3.768
			c-0.266,0.037-0.528,0.057-0.791,0.057H55.23h-0.002c-1.781,0-3.519-0.85-4.938-2.318l-0.479-0.496l-0.32,0.609
			c-1.096,2.072-2.815,3.473-4.877,3.764c-0.266,0.037-0.532,0.056-0.794,0.056h-0.002h-0.004c-1.781,0-3.518-0.847-4.936-2.316
			L38.4,66.975l-0.324,0.609c-1.095,2.07-2.813,3.475-4.873,3.768h-0.002c-0.264,0.035-0.529,0.053-0.79,0.053
			c-0.194,0-0.389-0.01-0.583-0.029l-0.046-0.005l-0.038-0.024l-0.107-0.07l-0.021-0.029c-1.099-1.604-1.834-3.07-2.416-4.45
			l-0.16-0.382l0.392,0.133c0.714,0.239,1.451,0.383,2.204,0.383c0.308,0,0.619-0.021,0.928-0.065
			c2.162-0.308,3.957-1.646,5.176-3.532l0.117-0.182l0.163,0.141c1.45,1.264,3.188,2.02,5.021,2.02c0.311,0,0.623-0.021,0.938-0.066
			c2.16-0.305,3.955-1.639,5.175-3.53l0.115-0.182l0.164,0.141c1.453,1.267,3.193,2.022,5.025,2.022
			c0.309,0,0.617-0.021,0.928-0.064c2.164-0.307,3.961-1.645,5.178-3.531l0.117-0.182l0.164,0.143
			c1.45,1.262,3.19,2.019,5.021,2.021c0.312,0,0.621-0.022,0.934-0.067l0.026,0.187l-0.024-0.187
			c1.029-0.145,1.983-0.564,2.836-1.134l0.338-0.226L69.927,61.05z M70.082,59.292l-0.009,0.058l-0.04,0.039
			c-0.018,0.019-1.139,1.186-3.362,1.631c-0.278,0.057-0.549,0.058-0.805,0.058h-0.003c-1.781,0-3.52-0.847-4.938-2.318
			l-0.479-0.495l-0.323,0.61c-1.095,2.069-2.815,3.476-4.878,3.765c-0.264,0.038-0.528,0.057-0.789,0.057h-0.001h-0.001
			c-1.784,0-3.521-0.85-4.941-2.319l-0.479-0.501l-0.323,0.615l0.002-0.004c-1.096,2.076-2.816,3.477-4.876,3.766
			c-0.269,0.037-0.535,0.057-0.799,0.057h-0.002h-0.001c-1.78,0-3.518-0.85-4.933-2.314l-0.479-0.497l-0.322,0.608
			c-1.097,2.072-2.816,3.475-4.879,3.768l-0.025-0.184l0.025,0.185c-0.262,0.038-0.525,0.054-0.787,0.054
			c-1.049,0-2.076-0.293-3.037-0.828l-0.035-0.021l-0.024-0.033c-0.108-0.15-0.192-0.361-0.272-0.604
			c-0.079-0.24-0.15-0.512-0.209-0.768c-0.119-0.509-0.191-0.955-0.191-0.955l-0.002-0.006l-6.438-44.579l10.103,8.581l12.535-1.656
			l12.503-1.89l7.318-11.049l6.196,44.616v0.004c0,0.003,0.078,0.711,0.078,1.468C70.16,58.582,70.141,58.969,70.082,59.292z
			 M76.984,55.6c-4.98-2.969-7.342-7.943-7.352-7.959l-0.01-0.025l-1.029-6.483l-0.064-0.41l0.35,0.225
			c3.498,2.24,5.588,5.858,6.811,8.91c1.221,3.055,1.574,5.547,1.576,5.557l0.055,0.387L76.984,55.6z"/>
	</g>
</g>
<g>
</g>
<g>
</g>
<g>
</g>
<g>
</g>
<g>
</g>
<g>
</g>
<g>
</g>
<g>
</g>
<g>
</g>
<g>
</g>
<g>
</g>
<g>
</g>
<g>
</g>
<g>
</g>
<g>
</g>
</svg>
