<?xml version="1.0" encoding="iso-8859-1"?>
<!-- Generator: Adobe Illustrator 16.0.0, SVG Export Plug-In . SVG Version: 6.00 Build 0)  -->
<!DOCTYPE svg PUBLIC "-//W3C//DTD SVG 1.1//EN" "http://www.w3.org/Graphics/SVG/1.1/DTD/svg11.dtd">
<svg version="1.1" id="Capa_1" xmlns="http://www.w3.org/2000/svg" xmlns:xlink="http://www.w3.org/1999/xlink" x="0px" y="0px"
	 width="97.75px" height="97.75px" viewBox="0 0 97.75 97.75" style="enable-background:new 0 0 97.75 97.75;" xml:space="preserve"
	>
<g>
	<g>
		<polygon points="34.616,23.581 34.616,23.686 34.799,23.581 		"/>
		<polygon points="56.105,23.581 41.646,23.581 48.881,36.386 		"/>
		<polygon points="63.148,61.632 52.029,67.915 63.29,67.915 63.29,25.364 60.128,23.581 57.68,23.581 49.668,37.778 		"/>
		<polygon points="63.29,23.581 62.917,23.581 63.29,23.792 		"/>
		<polygon points="34.618,61.665 48.096,37.78 40.073,23.581 37.584,23.581 34.616,25.26 34.616,67.915 45.696,67.915 		"/>
		<path d="M48.875,0C21.882,0,0,21.883,0,48.875S21.882,97.75,48.875,97.75S97.75,75.867,97.75,48.875S75.868,0,48.875,0z
			 M61.979,77.102l-13.112-7.397l-13.067,7.384l-23.16-40.983L33.245,24.46v-2.248h3.979l2.765-1.563l0.883,1.563H56.88l0.871-1.545
			l2.737,1.545h4.173v2.354l20.45,11.537L61.979,77.102z"/>
		<polygon points="48.883,39.172 36.485,61.145 48.485,67.915 49.245,67.915 61.282,61.111 		"/>
	</g>
</g>
<g>
</g>
<g>
</g>
<g>
</g>
<g>
</g>
<g>
</g>
<g>
</g>
<g>
</g>
<g>
</g>
<g>
</g>
<g>
</g>
<g>
</g>
<g>
</g>
<g>
</g>
<g>
</g>
<g>
</g>
</svg>
