<?xml version="1.0" encoding="iso-8859-1"?>
<!-- Generator: Adobe Illustrator 16.0.0, SVG Export Plug-In . SVG Version: 6.00 Build 0)  -->
<!DOCTYPE svg PUBLIC "-//W3C//DTD SVG 1.1//EN" "http://www.w3.org/Graphics/SVG/1.1/DTD/svg11.dtd">
<svg version="1.1" id="Capa_1" xmlns="http://www.w3.org/2000/svg" xmlns:xlink="http://www.w3.org/1999/xlink" x="0px" y="0px"
	 width="97.75px" height="97.75px" viewBox="0 0 97.75 97.75" style="enable-background:new 0 0 97.75 97.75;" xml:space="preserve"
	>
<g>
	<path d="M48.875,0C21.882,0,0,21.882,0,48.875S21.882,97.75,48.875,97.75S97.75,75.868,97.75,48.875S75.868,0,48.875,0z
		 M37.202,76.086c-2.291,2.997-5.389,4.305-9.099,4.305c-7.786-0.017-13.559-6.328-12.7-13.89
		c0.578-5.099,5.098-9.675,10.416-10.558c4.16-0.689,7.795,0.283,10.76,3.383c1.047,1.095,1.031,1.48-0.059,2.5
		c-0.693,0.646-1.373,1.309-2.075,1.947c-0.964,0.877-1.235,0.867-2.226-0.023c-2.547-2.293-5.976-2.148-8.236,0.348
		c-2.074,2.289-2.023,5.883,0.119,8.133c2.109,2.219,5.609,2.4,8.014,0.416c1.883-1.555,1.883-1.555,3.73-0.012
		c0.363,0.305,0.727,0.611,1.089,0.916C38.075,74.506,38.123,74.88,37.202,76.086z M81.021,78.186
		c-0.002,1.349-0.25,1.586-1.61,1.59c-1.354,0.004-2.711,0.006-4.067,0c-1.189-0.006-1.556-0.313-1.558-1.498l0.021-11.183
		c-0.097-4.403-3.711-6.379-7.582-4.196c-1.217,0.687-2.014,1.487-1.938,3.181v11.994c0,1.478-0.174,1.702-1.654,1.704
		c-1.221,0-2.439,0.006-3.66-0.002c-1.137-0.008-1.443-0.312-1.445-1.444c-0.004-3.524,0-7.049-0.004-10.573
		c0-0.474,0.004-0.951-0.041-1.422c-0.266-2.681-1.637-4.062-4.172-4.234c-2.274-0.15-4.732,1.569-5.253,3.703
		c-0.078,0.321-0.054,0.672-0.054,1.01C47.999,70.543,48.001,74.27,48,77.997c-0.001,1.614-0.17,1.778-1.824,1.78
		c-1.287,0-2.575,0.006-3.863-0.002c-1.164-0.008-1.496-0.336-1.498-1.525c-0.01-3.389-0.004-6.777-0.004-10.166
		c0-3.32-0.002-6.643,0-9.963c0.002-1.557,0.259-1.803,1.851-1.809c0.135,0,0.271,0,0.407,0c1.958,0,1.994-0.012,2.613,1.776
		c0.27,0.78,0.389,1.058,1.182,0.356c4.156-3.682,11.08-3.75,14.684,0.424c0.47,0.542,0.718,0.183,1.056-0.1
		c3.16-2.646,6.767-3.636,10.805-2.729c4.236,0.951,6.421,3.866,7.306,7.936c0.237,1.097,0.315,2.209,0.313,3.33
		C81.021,70.934,81.027,74.561,81.021,78.186z M74.973,35.49c0,0-0.472,1.819-0.01,2.591c0.62,0.587,0.68,1.145,0.096,1.743
		c-0.259,0.265-0.244,0.563-0.184,0.849c0.779,3.622,0.734,7.327,1.146,10.985c0.069,0.631-0.22,0.961-0.765,1.134
		c-0.301,0.095-0.299,0.095-0.899,0.129c-0.289-0.003-0.576-0.047-0.86-0.137c-0.544-0.173-0.835-0.503-0.765-1.134
		c0.41-3.658,0.365-7.364,1.146-10.985c0.062-0.286,0.074-0.583-0.184-0.849c-0.584-0.598-0.525-1.156,0.096-1.743
		c0.312-0.522,0.197-1.524,0.09-2.118c-0.881,0.377-6.512,2.787-9.072,3.841c-0.59,0.243-0.816,0.454-0.676,1.169
		c0.469,2.357,0.826,4.734,1.223,7.104c0.25,1.481-0.309,2.218-1.799,2.267c-1.645,0.054-3.233-0.353-4.807-0.746
		c-6.717-1.685-13.404-1.629-20.094,0.147c-1.371,0.365-2.779,0.631-4.211,0.604c-1.723-0.033-2.29-0.757-2.001-2.466
		c0.384-2.27,0.708-4.551,1.169-6.805c0.163-0.794-0.088-1.039-0.748-1.315c-5.832-2.445-11.649-4.924-17.47-7.394
		c-0.304-0.128-0.599-0.274-1.058-0.487c3.613-1.528,7.059-2.983,10.5-4.443c7.723-3.273,15.444-6.546,23.162-9.83
		c0.511-0.217,0.945-0.363,1.528-0.114l33.886,14.427L74.973,35.49z"/>
</g>
<g>
</g>
<g>
</g>
<g>
</g>
<g>
</g>
<g>
</g>
<g>
</g>
<g>
</g>
<g>
</g>
<g>
</g>
<g>
</g>
<g>
</g>
<g>
</g>
<g>
</g>
<g>
</g>
<g>
</g>
</svg>
