<?xml version="1.0" encoding="iso-8859-1"?>
<!-- Generator: Adobe Illustrator 16.0.0, SVG Export Plug-In . SVG Version: 6.00 Build 0)  -->
<!DOCTYPE svg PUBLIC "-//W3C//DTD SVG 1.1//EN" "http://www.w3.org/Graphics/SVG/1.1/DTD/svg11.dtd">
<svg version="1.1" id="Capa_1" xmlns="http://www.w3.org/2000/svg" xmlns:xlink="http://www.w3.org/1999/xlink" x="0px" y="0px"
	 width="97.75px" height="97.75px" viewBox="0 0 97.75 97.75" style="enable-background:new 0 0 97.75 97.75;" xml:space="preserve"
	>
<g>
	<g>
		<path d="M34.641,61.607c-0.208-0.043-0.291,0.023-0.238,0.24c0.122,0.49,0.24,0.981,0.358,1.473
			c0.046,0.193,0.046,0.154,0.046,0.154s2.263,0.168,2.704,0.303c0,0,1.755-0.529,2.729-0.793c0.591-0.159,0.882-0.53,1.199-1.035
			c-0.95-0.057-1.834-0.102-2.72-0.102C37.355,61.852,35.988,61.891,34.641,61.607z"/>
		<path d="M30.113,49.027c-1.217-0.872-2.317-1.88-3.364-2.948c-1.06-1.078-1.992-2.256-2.911-3.449
			c-0.019,0.021-0.04,0.036-0.062,0.051c0.032,0.106,0.058,0.216,0.096,0.323c1.666,4.791,3.335,9.585,5.002,14.378
			c0.688,1.979,1.376,3.956,2.061,5.935c0.066,0.194,0.146,0.365,0.146,0.365s1.783-0.416,3.219-0.255c0,0-0.008-0.059-0.077-0.321
			c-0.12-0.463-0.234-0.926-0.339-1.393c-0.045-0.199-0.148-0.312-0.353-0.357c-0.537-0.117-1.051-0.307-1.556-0.522
			c-0.64-0.276-1.271-0.573-1.873-1.06c0.643-0.064,1.21-0.145,1.78-0.17c0.316-0.015,0.35-0.158,0.351-0.422
			c0.004-0.43-0.14-0.838-0.185-1.283c0.382,0.129,0.641,0.403,1.006,0.576c-0.017-0.106-0.022-0.178-0.038-0.24
			c-0.629-2.553-1.286-5.098-1.873-7.657C30.987,49.893,30.664,49.424,30.113,49.027z"/>
		<polygon points="32.377,38.839 32.381,38.83 32.37,38.831 		"/>
		<path d="M41.695,62.582c0.681-0.391,1.35-0.164,2.017-0.162c-0.37-0.215-0.778-0.281-1.184-0.361
			C42.016,61.96,41.952,61.998,41.695,62.582z"/>
		<path d="M36.401,70.148c1.35,0.306,2.681,0.675,3.847,1.451c0.293,0.197,0.592,0.411,0.746,0.735l3.287-4.604l-0.361-0.844
			c-2.496-2.88-7.805-3.181-9.282-2.152c1.193-0.065,2.341-0.021,3.533,0.555c-1.322,0.07-2.508,0.212-3.608,0.764
			c1.072,0.045,2.167-0.086,3.236,0.54c-1.222,0.155-2.39,0.147-3.55,0.729c0.655,0.103,1.173-0.092,1.688-0.024
			c1.125,0.147,1.124,0.161,1.456,0.429c-1.111,0.146-2.209,0.252-3.267,0.857c0.558,0.089,1.032-0.005,1.5,0.09
			c0.468,0.094,0.951,0.131,1.445,0.34c-1.117,0.2-2.221,0.194-3.201,0.731C34.729,69.845,35.57,69.964,36.401,70.148z"/>
		<path d="M46.263,66.172c0.009,0.023,0.016,0.047,0.025,0.07c0.917-0.262,1.837-0.512,2.751-0.782
			c0.148-0.047,0.335-0.138,0.34-0.333c0.004-0.186-0.627-0.538-0.821-0.544c-0.376-0.015-0.387,0.376-0.633,0.519
			C47.354,65.43,46.814,65.812,46.263,66.172z"/>
		<path d="M49.898,6.074c-1.816-0.027-3.584,0.174-5.266,0.91c1.821-0.104,3.557,0.164,5.176,1.028
			c-1.159-0.082-2.311-0.065-3.451,0.111c-1.138,0.174-2.255,0.425-3.317,1.067c1.339-0.081,2.6-0.148,3.856,0.1
			c1.233,0.244,2.405,0.637,3.512,1.241c-0.832-0.021-1.644,0.091-2.46,0.121c-1.504,0.059-3.003,0.194-4.46,0.601
			c-0.558,0.156-1.117,0.325-1.697,0.779c3.01-0.225,5.647,0.473,8.095,2.113c-3.127-0.082-6.178-0.236-9.071,1.022
			c3.093-0.158,6.046,0.229,8.675,2.045c-3.126-0.238-6.175,0.124-9.163,1.032c1.476-0.033,2.927,0.107,4.34,0.538
			c1.401,0.427,2.705,1.072,4.079,1.82c-3.213-0.175-6.268-0.018-9.187,1.143c2.87-0.066,5.442,0.882,7.916,2.225
			c-1.05,0.173-2.091,0.286-3.134,0.386c-1.302,0.123-2.606,0.233-3.862,0.623c-0.496,0.152-0.995,0.323-1.492,0.642
			c3.132,0.205,6.49,1.006,7.083,1.668c-2.544,0.385-5.12,0.688-7.31,2.482c1.257,0.005,2.408-0.037,3.553,0.095
			c0.882,0.102,2.878,0.486,3.273,0.937c-2.392,0.513-4.643,1.38-6.802,2.495c2.243,0.033,4.465,0.096,6.655,1.105
			c-2.362,0.146-4.501,0.651-6.532,1.798c2.004,0.175,3.845,0.674,5.581,1.554c-1.856-0.068-3.526,0.678-5.264,1.133
			c1.692,0.254,3.423,0.301,4.942,1.219c-1.841,0.107-3.564,0.595-5.315,1.39c1.526,0.239,2.98,0.329,4.209,1.192
			c-1.449-0.03-2.724,0.408-3.986,1.268c1.909,0.207,2.817,0.477,3.565,1.052c-1.64-0.081-3.082,0.43-4.453,1.229
			c0.468,0.019,0.916,0.12,1.379,0.192c-1.283,0.27-2.602,0.433-3.593,1.438c1.234-0.175,2.456-0.267,3.777,0.054
			c-1.183,0.354-2.258,0.689-3.18,1.396c1.027-0.146,2.025-0.074,3.009,0.191c-1.535,0.291-2.473,0.729-3.305,1.62
			c1.071-0.194,2.059-0.093,3.032,0.185c-1.036,0.17-1.961,0.543-2.81,1.346c1.134-0.104,2.104,0.081,3.091,0.578
			c-0.946,0.242-1.869,0.343-2.699,0.971c0.954,0.094,1.802,0.12,2.641,0.602c-0.953,0.301-1.86,0.461-2.626,1.205
			c0.365,0,0.616-0.02,0.861,0.006c1.208,0.105,2.355,0.412,3.379,1.086c0.322,0.211,0.585,0.468,0.631,0.844l0.318-0.348
			c0.683-0.754,1.39-1.533,2.149-2.242c0.965-0.902,1.968-1.59,3.066-2.096l1.856-0.707c0.401-0.144,0.802-0.274,1.202-0.41
			c1.646-0.551,3.351-1.119,4.912-1.955c0.447-0.24,0.896-0.5,1.328-0.758c0.201-0.119,0.402-0.235,0.605-0.354
			c0.655-0.434,15.984-10.841,9.712-29.568c-0.082-0.201-0.164-0.405-0.243-0.606c-0.002-0.003-0.002-0.004-0.002-0.007
			c-0.375-1.048-1.367-3.232-2.515-3.537c-0.167-0.034-0.326-0.071-0.601-0.004c1.567,0.836,2.312,2.214,2.877,3.734
			c-0.621-0.354-1.25-0.618-2.099-0.61c1.218,1.025,2.263,2.051,2.753,3.593c-0.861-0.395-1.629-0.899-2.635-0.736
			c1.203,0.746,2.027,1.716,2.387,3.151c-0.832-0.47-1.582-0.894-2.6-0.794c0.631,0.391,1.117,0.819,1.512,1.344
			c0.387,0.514,0.787,1.021,0.881,1.688c0.002,0.002,0.004,0.002,0.006,0.004c0.012,0.005,0.021,0.011,0.031,0.016
			c-0.013-0.003-0.025-0.008-0.035-0.012c-0.002-0.002-0.002-0.006-0.002-0.008c-0.853-0.45-1.752-0.685-2.74-0.603
			c1.014,0.79,1.574,1.861,2.109,3.104c-1.016-0.492-1.958-0.901-3.146-0.721c0.535,0.391,0.996,0.699,1.382,1.102
			c0.334,0.347,0.657,0.697,0.856,1.143c0.039,0.082,0.137,0.176,0.053,0.266c-0.079,0.083-0.186,0.02-0.277-0.01
			c-0.746-0.236-1.5-0.357-2.282-0.219c-0.136,0.026-0.276,0.012-0.407,0.151c1.144,0.52,1.683,1.526,2.222,2.7
			c-1.072-0.445-2.038-0.882-3.207-0.899c0.696,0.849,1.375,1.615,1.879,2.638c-0.978-0.298-1.872-0.498-2.863-0.531
			c0.604,0.941,1.104,1.877,1.66,2.938c-1.015-0.462-1.879-1.04-2.981-0.879c0.488,0.834,0.93,1.668,1.336,2.621
			c-0.953-0.447-1.885-0.488-2.891-0.531c0.535,0.85,1.077,1.632,1.409,2.663c-0.499-0.289-0.888-0.531-1.315-0.691
			c-0.439-0.166-0.896-0.241-1.433-0.163c0.567,0.64,1.073,1.285,1.356,2.146c-0.818-0.292-1.602-0.506-2.455-0.645
			c0.505,0.795,0.886,1.6,1.144,2.49c-0.688-0.725-1.552-0.878-2.556-0.887c0.572,0.748,0.902,1.515,0.982,2.488
			c-0.699-0.638-1.465-0.912-2.332-1.043c0.264,0.743,0.668,1.411,0.709,2.195c0.012,0.012,0.025,0.024,0.039,0.036
			c-0.009,0-0.021,0.001-0.025-0.004c-0.008-0.008-0.012-0.021-0.016-0.031c-0.676-0.356-1.363-0.656-2.158-0.604
			c-0.246,0.018-0.344,0.035-0.17,0.301c0.375,0.578,0.457,1.247,0.561,1.988c-0.612-0.601-1.311-0.804-2.138-0.916
			c0.317,0.711,0.457,1.409,0.488,2.135c-0.171,0.033-0.232-0.103-0.32-0.181c-0.569-0.502-1.23-0.77-1.994-0.777
			c-0.121-0.003-0.256,0.043-0.357-0.07c3.611-2.784,6.667-6.103,9.383-9.746c2.633-3.54,4.916-7.282,6.484-11.428
			c1.13-2.982,1.514-6.086,1.375-9.253c-0.111-2.555-0.861-4.908-2.184-7.065c-1.633-1.808-3.39-3.313-5.269-4.501
			c-0.132-0.055-1.276-0.79-3.368-0.336c-0.046,0.007-0.404,0.116-0.523,0.194c2.406-0.013,4.266,1.105,6.035,2.451
			c-1.441-0.571-2.924-0.512-4.42-0.306c1.211,0.086,2.362,0.356,3.399,1.018c0.642,0.409,1.235,0.872,1.767,1.432
			c-0.763-0.191-1.517-0.389-2.295-0.455c-0.776-0.066-1.529,0.039-2.254,0.339c0.941,0.163,1.869,0.333,2.766,0.653
			c0.875,0.313,1.664,0.757,2.27,1.481c0.021,0.034,0.102,0.059,0.053,0.108c-0.035,0.036-0.094,0.01-0.125-0.038
			c-1.59-0.589-3.211-0.579-4.949-0.265c1.891,0.651,3.931,0.752,5.231,2.533c-0.891-0.18-1.726-0.348-2.583-0.348
			c-0.849,0.004-1.681,0.121-2.615,0.3c2.053,0.269,3.801,0.93,5.17,2.604c-1.856-0.349-3.604-0.765-5.381-0.124
			c1.854,0.405,3.629,0.937,4.924,2.603c-1.773-0.583-3.465-0.633-5.17,0.094c1.686,0.396,3.217,1.002,4.345,2.37
			c-1.708-0.405-3.369-0.29-5.108,0.319c1.705,0.46,3.247,1.011,4.219,2.599c-1.695-0.479-3.33-0.447-5.088,0.043
			c1.676,0.553,3.053,1.348,4.023,2.827c-1.777-0.4-3.492-0.71-5.256-0.258c1.572,0.605,2.878,1.514,3.775,3.065
			c-1.609-0.303-3.176-0.385-4.76-0.395c1.299,0.784,2.643,1.501,3.562,2.781c-1.48-0.459-2.976-0.57-4.541-0.36
			c1.298,0.598,2.367,1.384,3.027,2.667c-1.39-0.47-2.773-0.49-4.242-0.116c1.177,0.648,2.201,1.392,2.93,2.472
			c0.028,0.035,0.043,0.07-0.003,0.101c-0.006,0.004-0.036-0.032-0.053-0.048c-0.762-0.277-1.531-0.511-2.34-0.584
			c-0.474-0.038-0.947-0.061-1.424,0.064c1.033,0.398,1.731,1.15,2.3,2.047c0.092,0.148,0.252,0.276,0.211,0.485
			c0.019,0.005,0.039,0.011,0.057,0.019c-0.004,0.011-0.008,0.024-0.012,0.035c-0.018-0.017-0.035-0.034-0.05-0.051
			c-1.122-0.414-2.295-0.554-3.496-0.646c1.014,0.574,1.697,1.437,2.299,2.566c-1.211-0.518-2.373-0.528-3.62-0.441
			c0.896,0.628,1.603,1.344,2.108,2.244h0.003c0,0.002,0,0.002,0.001,0.003c0.016,0.013,0.032,0.025,0.049,0.039
			c-0.011,0.004-0.022,0.008-0.033,0.015c-0.005-0.019-0.01-0.036-0.016-0.054c-0.001-0.001-0.001-0.001-0.004-0.001
			c0-0.002,0-0.002,0-0.002c-1.009-0.186-2.022-0.218-3.125-0.044c0.903,0.479,1.628,1.078,2.142,1.982
			c-1.261-0.313-2.5-0.102-3.705,0.029c0,0,0.297-0.738,0.461-1.089c1.89-3.979,3.73-7.981,5.481-12.024
			c1.452-3.341,2.885-6.689,4.022-10.157c0.578-1.77,0.879-3.598,1.086-5.442c0.137-1.222,0.202-2.443,0.15-3.666
			c-0.142-3.311-0.881-6.432-2.961-9.11c-0.261-0.339-0.547-0.655-0.824-0.979l-0.188-0.213c0,0-2.974,0.267-3.412,0.844
			C48.435,5.398,49.514,5.638,49.898,6.074z"/>
		<path d="M54.312,52.97c1.049-1.204,2.09-2.413,3.133-3.62c-0.021,0.012-0.035,0.021-0.045,0.03
			c-0.211,0.121-0.414,0.239-0.614,0.358c-0.435,0.256-0.886,0.521-1.341,0.764c-1.586,0.85-3.305,1.424-4.967,1.979
			c-0.396,0.135-0.795,0.268-1.191,0.404l-0.738,0.281c-1.867,2.535-3.733,5.073-5.602,7.611c0.349,0.172,0.672,0.312,0.975,0.486
			c0.316,0.182,0.625,0.385,0.918,0.602c0.375,0.273,0.367,0.283,0.523-0.178c0.305-0.894,0.814-1.181,1.631-0.857
			c0.281,0.109,0.416,0.039,0.594-0.166C49.825,58.096,52.073,55.538,54.312,52.97z"/>
		<path d="M47.737,53.477l-0.292,0.109c-1.051,0.488-2.024,1.154-2.962,2.029c-0.747,0.701-1.45,1.475-2.128,2.222l-0.43,0.472
			c-0.207,0.409-0.589,0.562-0.938,0.657c-0.415,0.11-0.845,0.167-1.316,0.167c-0.305,0-0.626-0.021-0.973-0.07
			c-1.349-0.18-2.322-0.517-3.155-1.086c-0.364-0.25-0.604-0.571-0.737-0.982c-0.401-1.256-0.812-2.477-1.417-3.615
			c-0.464-0.873-0.977-1.775-1.689-2.521c0.014,0.065,0.035,0.127,0.05,0.191c0.601,2.43,1.231,4.85,1.777,7.291
			c0.154,0.691,0.497,0.995,1.126,1.156c1.115,0.286,2.252,0.334,3.389,0.386c1.34,0.063,2.667,0.195,3.948,0.606
			c0.356,0.113,0.541,0.043,0.76-0.256c1.603-2.197,3.225-4.379,4.836-6.567C47.632,53.604,47.695,53.545,47.737,53.477z"/>
		<path d="M46.833,63.639c-0.395,0.467-0.544,0.518-1.029,0.23C45.57,63.73,45.481,63.825,45.382,64
			c-0.08,0.145,0.072,0.846,0.198,0.941c0.072,0.056,0.13,0.014,0.192-0.015c0.774-0.319,1.546-0.642,2.354-0.977
			c-0.161-0.148-0.281-0.265-0.407-0.377C47.242,63.152,47.241,63.152,46.833,63.639z"/>
		<path d="M38.738,11.885c-1.245,0.207-2.387,0.444-3.5,0.806c-1.386,0.448-2.715,1.013-3.817,2.003
			c0.021,0.024,0.04,0.045,0.062,0.07c0.831-0.26,1.647-0.565,2.515-0.688c1.274-0.181,2.424,0.208,3.546,0.75
			c-2.521,0.344-4.935,0.929-6.909,2.67c0.994-0.217,1.996-0.344,3.009-0.339c1.006,0.003,2.022-0.023,3.08,0.461
			c-0.193,0.045-0.259,0.059-0.326,0.073c-1.779,0.414-3.485,1.009-4.99,2.078c-0.455,0.321-0.926,0.633-1.244,1.111l0.016,0.021
			c0.056-0.007,0.116,0,0.166-0.021c1.952-0.761,3.969-0.655,6.12-0.479c-1.348,0.381-2.552,0.8-3.712,1.339
			c-0.981,0.457-1.961,0.922-2.772,1.667c0.017,0.017,0.034,0.035,0.052,0.054c0.069-0.011,0.14-0.019,0.207-0.038
			c1.35-0.413,2.719-0.604,4.127-0.41c0.466,0.063,0.937,0.117,1.434,0.365c-1.126,0.319-2.167,0.66-3.169,1.099
			c-0.997,0.434-1.968,0.912-2.739,1.726c2.02-0.659,4.055-0.687,6.22-0.258c-1.055,0.347-2,0.696-2.871,1.214
			c-0.879,0.518-1.697,1.11-2.368,1.888c0.025,0.025,0.052,0.051,0.078,0.075c0.95-0.389,1.919-0.714,2.947-0.82
			c0.729-0.07,1.455-0.088,2.296-0.012c-1.327,0.601-2.493,1.241-3.589,2.005c-0.586,0.41-1.176,0.824-1.627,1.392
			c0.019,0.019,0.039,0.036,0.057,0.056c0.404-0.162,0.806-0.331,1.212-0.487c1.107-0.419,2.244-0.561,3.498-0.354
			c-1.8,0.662-3.113,1.879-4.436,3.094c1.541-0.336,3.071-0.657,4.657-0.473c-1.462,0.853-2.972,1.615-4.12,2.91
			c1.406-0.573,2.855-0.644,4.444-0.467c-0.227,0.116-0.36,0.187-0.494,0.254c-1.016,0.493-1.996,1.047-2.81,1.848
			c-0.231,0.224-0.514,0.421-0.606,0.764c1.268-0.298,2.542-0.344,3.83-0.138c-0.259,0.158-0.525,0.274-0.79,0.397
			c-0.897,0.41-1.751,0.885-2.398,1.656c0.01,0.013,0.019,0.027,0.031,0.039c1.126-0.372,2.271-0.45,3.439-0.253
			c-1.142,0.542-2.137,1.245-2.905,2.258c1.029-0.433,2.104-0.538,3.319-0.568c-1.107,0.739-2.22,1.284-2.914,2.5
			c1.112-0.295,2.124-0.277,3.233-0.113c-0.988,0.468-1.805,0.984-2.477,1.886c1.069-0.199,2.034-0.256,3.005-0.239
			c0.294,0.005,0.209-0.211,0.189-0.362c-0.106-0.893-0.225-1.785-0.339-2.681c-0.393-3.06-0.617-6.136-0.716-9.218
			c-0.079-2.424-0.075-4.848,0.041-7.273c0.147-3.096,0.469-6.17,1.125-9.203c0.596-2.763,1.457-5.436,2.946-7.863
			c1.473-2.402,3.323-4.394,5.969-5.491c-1.2-0.118-5.085-0.167-8.193,0.914c-0.978,0.29-1.951,0.612-2.785,1.238
			c0.014,0.017,0.028,0.03,0.042,0.047c1.271-0.311,2.542-0.626,3.863-0.631c0.826-0.002,1.655-0.037,2.567,0.13
			c-3.911,0.595-6.945,2-8.224,3.119c1.813-0.654,3.569-0.977,5.285,0.115c-1.169,0.212-2.337,0.379-3.447,0.804
			c-1.094,0.425-2.107,0.991-3.075,1.676C34.936,10.929,36.82,10.877,38.738,11.885z"/>
		<path d="M25.486,79.35c-0.445,0.487-0.848,1.022-1.359,1.445c-0.225,0.182-0.174,0.284,0.01,0.446
			c1.345,1.184,2.729,2.31,4.215,3.312c3.104,2.1,6.451,3.682,10.038,4.764c2.715,0.819,5.495,1.322,8.324,1.459
			c2.787,0.134,5.565,0.015,8.33-0.467c4.909-0.852,9.45-2.617,13.638-5.303c1.975-1.266,3.803-2.722,5.495-4.34
			c1.19-1.141,2.224-2.249,3.214-3.568c-0.345-0.074-2.045-0.888-3.795-0.145c0.87,0.008,1.709,0.166,2.536,0.426
			c-1.215,0.223-2.458,0.247-3.651,0.61c0.849,0.015,1.68,0.12,2.5,0.366c-1.17,0.28-2.349,0.511-3.547,1.084
			c0.59,0.061,1.061-0.146,1.522-0.057c-2.521,1.85-9.308,1.24-11.769,0.426c-0.891-0.291-1.75-0.617-2.578-1.031
			c-0.557-0.275-1.131-0.564-1.709-0.807c-1.178-0.49-2.068-0.757-3.561-0.938c-1.49-0.182-3.343,0.176-4.89,0.982
			c-0.159,0.084-0.328,0.159-0.443,0.312c0.013,0.015,0.023,0.029,0.036,0.043c0.852-0.232,1.691-0.52,2.573-0.641
			c0.655-0.09,1.308-0.174,1.979-0.098c-1.568,0.197-2.937,0.881-4.235,1.729l0.015,0.02c0.804-0.135,1.579-0.393,2.394-0.468
			c0.353-0.033,0.701-0.045,1.174-0.048c-1.346,0.361-2.438,0.955-3.418,1.759c0.01,0.013,0.021,0.026,0.034,0.039
			c0.917-0.195,1.822-0.472,2.774-0.454c0.081,0.003,0.164,0,0.249,0.021c-1.102,0.418-2.042,1.112-3.042,1.693
			c-1.027,0.598-2.065,0.727-3.195,0.371c-0.476-0.15-4.268-1.084-5.801-1.902c-0.038-0.019-0.577-0.264-1.38-0.631
			c-1.863-0.85-5.157-2.355-6.97-3.176c-1.242-0.521-6.033-1.363-7.722,0.736c0.013,0.013,0.025,0.023,0.037,0.035
			c0.538-0.15,1.077-0.312,1.618-0.453c0.326-0.09,0.653-0.18,0.985-0.219c0.329-0.039,0.658-0.182,1.042-0.066
			c-1.077,0.414-2.202,0.619-3.094,1.35c0.79-0.177,1.563-0.392,2.453-0.371c-0.666,0.372-1.328,0.604-1.759,1.174l0.012,0.014
			c0.507-0.068,0.983-0.381,1.572-0.208C25.989,78.816,25.734,79.078,25.486,79.35z"/>
		<path d="M85.464,43.346c-2.12-7.051-5.972-12.996-11.491-17.856c-1.914-1.685-3.976-3.16-6.199-4.401
			c0.105,0.385,0.205,0.765,0.291,1.141c3.138,1.871,5.94,4.156,8.386,6.869c6.102,6.773,9.327,14.732,9.711,23.828
			c0.147,3.466-0.222,6.89-1.067,10.259c-1.912,7.625-5.82,14.049-11.748,19.196c-6.441,5.595-13.955,8.615-22.48,9.11
			c-3.68,0.212-7.313-0.122-10.891-1.012c-7.901-1.959-14.489-6.06-19.718-12.287c-5.389-6.416-8.252-13.857-8.685-22.219
			c-0.147-2.832,0.05-5.656,0.564-8.457c1.075-5.858,3.423-11.149,7.014-15.895c0.32-0.424,0.378-0.947,0.144-1.471
			c-0.066,0.076-0.133,0.147-0.193,0.227c-5.256,6.627-8.039,14.172-8.366,22.62c-0.127,3.28,0.183,6.534,0.932,9.728
			c2.005,8.556,6.406,15.646,13.229,21.181c6.558,5.319,14.104,8.11,22.538,8.471c3.309,0.142,6.584-0.158,9.814-0.899
			c8.721-2.008,15.921-6.49,21.481-13.486c6.045-7.604,8.75-16.318,8.242-26.023C86.818,49.031,86.311,46.159,85.464,43.346z"/>
		<path d="M48.875,0C21.882,0,0,21.883,0,48.875S21.882,97.75,48.875,97.75S97.75,75.867,97.75,48.875S75.868,0,48.875,0z
			 M88.499,57.993c-0.991,9.831-5.048,18.185-12.149,25.026c-5.592,5.383-12.254,8.779-19.869,10.289
			c-3.57,0.711-7.185,0.905-10.807,0.592c-9.421-0.814-17.582-4.479-24.409-11.03c-5.317-5.104-8.913-11.249-10.833-18.368
			c-0.673-2.493-1.085-5.027-1.249-7.604c-0.005-0.076,0.035-0.176-0.083-0.209c0-1.638,0-3.271,0-4.905
			c0.118-0.034,0.078-0.136,0.083-0.21c0.084-1.479,0.264-2.943,0.53-4.397c1.276-6.948,4.165-13.149,8.736-18.538
			c0.657-0.773,0.984-1.538,1.069-2.537c0.31-3.668,1.436-7.088,3.323-10.247c1.702-2.852,3.892-5.259,6.623-7.159
			c0.005-0.004,0.007-0.006,0.012-0.008c0.975-0.808,2.581-1.808,4.629-2.697c0.01-0.008,2.701-1.201,5.197-1.683
			c0.786-0.173,1.6-0.312,2.437-0.415c0.01-0.002,0.02-0.004,0.028-0.008c0.021,0,0.042,0,0.063,0
			c2.195-0.263,4.54-0.26,6.947,0.162c7.493,1.313,13.633,6.284,18.26,14.769l0.021-0.005c0.002,0.009,0.008,0.019,0.01,0.03
			c4.008,2.073,7.586,4.722,10.678,8.016c6.25,6.658,9.843,14.527,10.753,23.622c0.038,0.377-0.031,0.775,0.151,1.135
			c0,1.777,0,3.556,0,5.332C88.469,57.275,88.533,57.645,88.499,57.993z"/>
		<path d="M84.861,47.798c0.016,0.03,0.035,0.075,0.06,0.127c-0.006-0.038-0.012-0.075-0.019-0.115
			C84.887,47.808,84.873,47.804,84.861,47.798z"/>
		<path d="M12.254,53.248c-0.076,2.301,0.101,4.584,0.472,6.859c1.012,6.217,3.483,11.791,7.358,16.748
			c0.226,0.289,0.328,0.418,0.464,0.418c0.111,0,0.246-0.084,0.489-0.239c0.13-0.083,0.263-0.163,0.401-0.235
			c1.915-0.997,3.842-1.316,5.503-1.316c2.026,0,3.657,0.477,4.391,0.783c1.818,0.821,5.115,2.326,6.977,3.178
			c0.779,0.355,1.405,0.625,1.438,0.625c0.001,0,0.001-0.002,0.001-0.002c0.083,0.004,0.166,0.004,0.248,0.004
			c1.586,0,3.041-0.543,4.454-1.198c1.495-0.694,2.981-1.392,4.606-1.742c0.726-0.155,1.938-0.378,3.375-0.378
			c1.397,0,3.008,0.209,4.592,0.893c0.6,0.252,1.179,0.541,1.74,0.82c0.817,0.407,1.663,0.829,2.547,1.119
			c0.31,0.137,1.215,0.35,2.516,0.523c1.166-0.043,2.244-0.442,3.29-1.055c1.176-0.688,2.399-1.299,3.606-1.934
			c0.918-0.479,1.881-0.85,2.92-0.909c0.17-0.01,0.34-0.015,0.51-0.015c0.664,0,1.324,0.078,1.969,0.253c0,0,1.053,0.284,1.447,0.44
			c0.006-0.009,0.011-0.016,0.017-0.022c0.093-0.103,0.194-0.201,0.28-0.313c2.482-3.227,4.383-6.768,5.687-10.623
			c0.554-1.635,1.015-3.302,1.278-5.015c0,0-19.628,0.005-29.441,0.005c-0.098,0-0.193-0.013-0.352-0.023
			c0.758-1.961,1.641-3.766,3.792-4.491c0.38-0.13,0.757-0.185,1.13-0.185c0.689,0,1.367,0.19,2.031,0.469
			c0.115,0.049,0.236,0.095,0.344,0.158c0.084,0.053,0.148,0.075,0.201,0.075c0.111,0,0.164-0.108,0.218-0.289
			c0.755-2.538,2.408-4.194,4.979-4.851c0.432-0.111,0.854-0.163,1.268-0.163c1.246,0,2.409,0.469,3.501,1.179
			c0.14,0.092,0.239,0.145,0.317,0.145c0.106,0,0.176-0.098,0.259-0.33c0.933-2.615,2.599-4.533,5.333-5.345
			c0.75-0.222,1.496-0.318,2.238-0.318c1.201,0,2.392,0.252,3.572,0.629c0.178,0.057,0.346,0.15,0.537,0.15
			c0.02,0,0.041-0.001,0.061-0.003c0,0,0.002,0.007,0.009,0.018c0.001-0.008,0-0.015,0.001-0.021c-0.001-0.122,0.015-0.25-0.01-0.37
			c-0.325-1.656-0.743-3.288-1.289-4.885c-1.678-4.916-4.28-9.286-7.809-13.096c-2.207-2.388-4.68-4.459-7.449-6.161
			c2.511,12.742-4.896,21.109-8.742,24.489c0.005,0.003,0.008,0.005,0.012,0.009c-0.01,0.002-0.02,0.003-0.027,0.006
			c-0.023,0.02-0.046,0.039-0.066,0.059c-0.006,0.018-0.018,0.027-0.038,0.03c-0.013,0.011-0.025,0.024-0.04,0.036
			c0.007,0.133-0.111,0.197-0.182,0.276c-2.104,2.411-4.209,4.823-6.314,7.229c-1.66,1.899-3.32,3.801-4.979,5.702
			c-0.116,0.132-0.283,0.245-0.199,0.472c0.139,0.369,0.054,0.72-0.115,1.057c-0.06,0.117-0.135,0.232,0.027,0.322
			c0.459,0.254,0.802,0.707,1.384,0.756c0.225,0.018,0.434,0.182,0.541,0.379c0.249,0.455,0.641,0.67,1.12,0.789
			c0.189,0.049,0.416,0.111,0.467,0.318c0.051,0.215,0.193,0.293,0.343,0.396c1.19,0.83,2.376,1.671,3.579,2.48
			c0.324,0.219,0.331,0.453,0.186,0.752c-0.092,0.191-0.215,0.362-0.375,0.504c-0.205,0.177-0.343,0.264-0.477,0.264
			c-0.141,0-0.277-0.096-0.482-0.286c-1.103-1.028-2.218-2.042-3.318-3.075c-0.133-0.124-0.254-0.164-0.399-0.164
			c-0.063,0-0.131,0.008-0.206,0.021c-0.375,0.054-0.564,0.366-0.861,0.512c-1.088,0.53-2.188,1.038-3.276,1.565
			c-0.089,0.043-0.167,0.063-0.241,0.063c-0.11,0-0.211-0.046-0.328-0.135c-0.243-0.185-0.468-0.397-0.718-0.577l0.134,0.312
			l-3.78,5.298l-0.014-0.013c-0.276,0.315-0.704,0.397-1.113,0.461c-0.543,0.086-1.084,0.123-1.622,0.123
			c-1.228,0-2.444-0.197-3.65-0.494c-1.22-0.303-2.41-0.687-3.457-1.414c-0.33-0.228-0.629-0.493-0.702-0.914
			c-0.315-1.885-0.592-3.776-0.952-5.653c-0.107-0.56-0.138-0.699-0.138-0.699l1.348-0.639c0,0-0.041-0.129-0.152-0.444
			c-2.315-6.626-4.611-13.259-6.927-19.883c-0.416-1.192-0.726-2.433-1.324-3.556c-0.872-1.632-1.578-3.33-2.059-5.119
			c-0.219-0.817-0.382-1.653-0.58-2.524c-0.073,0.083-0.121,0.131-0.161,0.187C14.875,38.671,12.507,45.599,12.254,53.248z
			 M21.317,40.418c0.394,0.738,0.655,1.552,0.931,2.412c0.108,0.335,0.215,0.671,0.332,1.003c1.2,3.431,2.394,6.862,3.587,10.296
			c1.064,3.061,2.129,6.12,3.198,9.182l-0.538,0.256c-0.419,0.197-0.646,0.66-0.549,1.113c0.003,0.014,0.034,0.16,0.133,0.678
			c0.242,1.264,0.451,2.562,0.652,3.818c0.097,0.604,0.194,1.208,0.295,1.814c0.155,0.904,0.856,1.388,1.117,1.566
			c1.232,0.855,2.606,1.271,3.789,1.563c1.435,0.353,2.707,0.524,3.889,0.524c0.605,0,1.203-0.045,1.775-0.136
			c0.392-0.061,1.019-0.157,1.526-0.604c0.101-0.067,0.189-0.152,0.261-0.253l3.29-4.609c0.19,0.087,0.385,0.13,0.589,0.13
			c0.226,0,0.445-0.053,0.677-0.164c0.517-0.251,1.037-0.497,1.556-0.743c0.575-0.271,1.149-0.545,1.723-0.824
			c0.218-0.106,0.384-0.241,0.505-0.34c0.008-0.008,0.016-0.016,0.024-0.021c0.546,0.511,1.095,1.018,1.644,1.521
			c0.498,0.461,0.996,0.92,1.491,1.381c0.208,0.193,0.595,0.556,1.165,0.556c0.544,0,0.939-0.343,1.135-0.511
			c0.256-0.226,0.465-0.502,0.618-0.821c0.377-0.782,0.181-1.536-0.528-2.017c-0.883-0.597-1.756-1.207-2.631-1.818l-0.935-0.654
			l-0.003-0.002c-0.256-0.637-0.903-0.803-1.137-0.863c-0.342-0.084-0.424-0.188-0.482-0.297c-0.277-0.511-0.792-0.854-1.336-0.896
			c-0.085-0.009-0.203-0.088-0.379-0.22c0.072-0.287,0.088-0.567,0.048-0.842c1.573-1.805,3.147-3.606,4.724-5.408l0.159-0.185
			c2.106-2.407,4.214-4.819,6.3-7.211c0.112-0.104,0.205-0.216,0.274-0.333c0.043-0.037,0.083-0.079,0.12-0.124
			c3.453-3.074,10.645-11.033,9.285-23.042c1.918,1.368,3.722,2.961,5.381,4.757c3.412,3.685,5.968,7.97,7.596,12.739
			c0.389,1.137,0.721,2.317,1.004,3.564c-1.053-0.272-2.021-0.405-2.939-0.405c-0.868,0-1.717,0.121-2.522,0.359
			c-2.646,0.785-4.565,2.556-5.717,5.268c-1.158-0.644-2.279-0.956-3.409-0.956c-0.506,0-1.018,0.064-1.516,0.193
			c-2.609,0.666-4.477,2.315-5.445,4.819c-0.747-0.278-1.432-0.413-2.081-0.413c-0.497,0-0.985,0.079-1.45,0.236
			c-2.592,0.875-3.633,3.08-4.404,5.078c-0.114,0.295-0.082,0.627,0.086,0.895c0.17,0.269,0.457,0.439,0.771,0.463l0.126,0.012
			c0.117,0.01,0.208,0.017,0.3,0.017c8.359,0,23.84-0.004,28.243-0.005c-0.237,1.146-0.577,2.363-1.028,3.693
			c-1.229,3.639-3.035,7.041-5.367,10.117c-0.396-0.119-0.786-0.226-0.854-0.244c-0.704-0.19-1.456-0.287-2.231-0.287
			c-0.188,0-0.377,0.005-0.566,0.017c-1.05,0.06-2.105,0.386-3.328,1.022l-0.869,0.451c-0.916,0.477-1.863,0.969-2.777,1.504
			c-0.971,0.566-1.868,0.867-2.739,0.914c-1.278-0.176-2.004-0.369-2.158-0.437c-0.03-0.015-0.062-0.024-0.091-0.035
			c-0.811-0.266-1.619-0.668-2.422-1.067c-0.572-0.285-1.164-0.582-1.781-0.84c-1.5-0.646-3.178-0.975-4.988-0.975
			c-1.164,0-2.336,0.131-3.588,0.4c-1.711,0.369-3.258,1.089-4.754,1.783l-0.063,0.028c-1.237,0.575-2.582,1.106-4.033,1.106
			c-0.019,0-0.038,0-0.057,0c-0.201-0.084-0.63-0.271-1.215-0.537c-1.863-0.852-5.162-2.357-7.005-3.189
			c-0.994-0.417-2.77-0.861-4.778-0.861c-2.135,0-4.142,0.48-5.968,1.432c-0.083,0.044-0.166,0.091-0.248,0.139
			c-3.693-4.785-6.053-10.203-7.014-16.104c-0.38-2.335-0.53-4.515-0.459-6.665c0.224-6.771,2.182-13.009,5.824-18.571
			c0.031,0.126,0.063,0.253,0.097,0.378C19.655,36.875,20.356,38.618,21.317,40.418z"/>
		<path d="M22.411,27.509c0.593-0.23,1.144-0.536,1.753-0.704c0.596-0.161,1.194-0.295,1.816-0.26
			c-0.386,0.304-0.791,0.557-1.174,0.836c-0.906,0.663-1.689,1.438-2.182,2.469l0.029,0.028c0.722-0.314,1.434-0.651,2.209-0.82
			c0.469-0.105,0.937-0.182,1.477-0.097c-0.105,0.068-0.152,0.098-0.2,0.13c-1.282,0.85-2.364,1.898-3.177,3.213
			c0.012,0.012,0.023,0.022,0.033,0.033c0.112-0.055,0.231-0.103,0.338-0.165c0.605-0.369,1.234-0.673,1.932-0.826
			c0.466-0.101,0.935-0.162,1.541-0.161c-1.371,0.984-2.546,1.976-3.274,3.402c1.065-0.851,2.277-1.245,3.676-1.314
			c-1.007,1.147-2.13,2.144-2.673,3.583c1.048-0.647,2.144-1.122,3.412-1.183c-0.493,0.57-1.061,1.055-1.56,1.603
			c-0.456,0.496-0.983,0.959-1.202,1.637c1.04-0.593,2.123-0.989,3.45-0.78c-0.917,0.874-1.702,1.749-2.14,2.87
			c0.838-0.495,1.682-0.939,2.625-1.202c-0.762,0.956-1.333,1.985-1.497,3.282c0.792-0.646,1.577-1.159,2.654-1.294
			c-0.801,0.817-1.086,1.749-1.195,2.872c0.605-0.596,1.277-0.86,2.089-1.109c-0.544,0.952-0.848,1.862-1,2.929
			c0.558-0.611,1.251-0.77,1.977-1.05c-0.347,0.866-0.639,1.656-0.692,2.592c0.541-0.396,1.012-0.729,1.558-0.925
			c0.294-0.105,0.263-0.233,0.116-0.456c-1.183-1.813-2.153-3.734-2.997-5.718c-2.113-4.968-3.291-10.157-3.569-15.542
			c-0.104-1.977-0.097-3.967,0.125-5.95c0.265-2.392,0.78-4.71,1.775-6.915c1.005-2.226,2.427-4.09,4.347-5.531
			c-0.881,0.452-1.642,0.908-2.264,1.339c0.175-0.044,0.356-0.064,0.547-0.037c-0.688,0.429-1.376,0.856-2.109,1.313
			c0.199,0.058,0.689-0.024,0.807,0.092c-0.887,0.505-1.721,1.062-2.44,1.912c0.495-0.085,0.879-0.361,1.395-0.227
			c-0.914,0.755-1.939,1.316-2.63,2.326c0.495-0.062,0.934-0.307,1.431-0.045c-1.034,0.72-2.092,1.364-2.855,2.534
			c0.77-0.259,1.428-0.538,2.262-0.282c-1.309,0.516-2.351,1.219-3.241,2.307c0.966-0.308,1.789-0.835,2.769-0.616
			c-0.513,0.298-1.047,0.548-1.518,0.899c-0.677,0.503-1.334,1.026-1.733,1.798l0.006,0.004c0.398-0.13,0.798-0.258,1.196-0.391
			c0.558-0.187,1.134-0.225,1.721-0.225c-0.42,0.334-0.849,0.638-1.284,0.934c-0.432,0.29-0.821,0.636-1.22,0.971
			c-0.69,0.584-0.946,0.843-1.053,1.157c0.548-0.225,1.058-0.492,1.621-0.62c0.553-0.125,1.103-0.252,1.803-0.177
			c-0.71,0.49-1.322,0.905-1.866,1.409c-0.553,0.513-1.149,0.991-1.527,1.666c-0.001,0,0.023,0.022,0.023,0.022
			c1.095-0.404,2.173-0.875,3.393-0.816C24.563,25.034,23.349,26.117,22.411,27.509z"/>
		<polygon points="25.182,38.922 25.186,38.912 25.177,38.916 		"/>
	</g>
</g>
<g>
</g>
<g>
</g>
<g>
</g>
<g>
</g>
<g>
</g>
<g>
</g>
<g>
</g>
<g>
</g>
<g>
</g>
<g>
</g>
<g>
</g>
<g>
</g>
<g>
</g>
<g>
</g>
<g>
</g>
</svg>
