<?xml version="1.0" encoding="iso-8859-1"?>
<!-- Generator: Adobe Illustrator 16.0.0, SVG Export Plug-In . SVG Version: 6.00 Build 0)  -->
<!DOCTYPE svg PUBLIC "-//W3C//DTD SVG 1.1//EN" "http://www.w3.org/Graphics/SVG/1.1/DTD/svg11.dtd">
<svg version="1.1" id="Capa_1" xmlns="http://www.w3.org/2000/svg" xmlns:xlink="http://www.w3.org/1999/xlink" x="0px" y="0px"
	 width="97.75px" height="97.75px" viewBox="0 0 97.75 97.75" style="enable-background:new 0 0 97.75 97.75;" xml:space="preserve"
	>
<g>
	<path d="M48.875,0C21.882,0,0,21.883,0,48.875S21.882,97.75,48.875,97.75S97.75,75.867,97.75,48.875S75.868,0,48.875,0z
		 M44.808,21.814c2.797-1.034,5.602-2.049,8.398-3.083c0.471-0.176,0.728-0.193,0.942,0.401c2.381,6.579,4.799,13.146,7.203,19.715
		c0.062,0.166,0.086,0.345,0.127,0.52c0.106,0.383-0.155,0.483-0.438,0.587c-3.067,1.118-6.14,2.231-9.197,3.375
		c-0.715,0.267-0.767-0.256-0.918-0.664c-1.063-2.865-2.117-5.732-3.166-8.602c-1.254-3.432-2.541-6.854-3.734-10.308
		C43.466,22.144,43.188,22.413,44.808,21.814z M29.959,27.211c3.042-1.091,6.077-2.203,9.114-3.308
		c0.101-0.038,0.199-0.078,0.283-0.111c0.425-0.102,0.49,0.223,0.586,0.479c2.154,5.905,4.307,11.809,6.46,17.714
		c0.255,0.701,0.519,1.398,0.776,2.098c0.19,0.522,0.229,0.849-0.488,1.1c-2.948,1.026-5.872,2.132-8.785,3.256
		c-0.778,0.302-0.99-0.073-1.209-0.68c-1.594-4.403-3.202-8.802-4.809-13.201c-0.768-2.102-1.521-4.209-2.326-6.297
		C29.353,27.719,29.367,27.424,29.959,27.211z M59.186,77.761c-5.41,1.451-10.816,1.86-16.272,0.665
		c-9.555-2.095-16.816-7.402-21.722-15.898c-2.218-3.842-3.564-8.045-5.133-12.156c-0.569-1.495-1.107-3.001-1.676-4.496
		c-0.241-0.636-0.184-0.961,0.586-1.229c4.054-1.421,8.091-2.899,12.107-4.426c0.815-0.308,1.078-0.15,1.367,0.641
		c1.738,4.771,3.465,9.561,6.022,13.968c3.173,5.465,8.116,8.295,14.322,8.685c6.731,0.422,12.289-2.068,16.128-7.731
		c3.244-4.788,3.838-10.06,2.324-15.624c-1.108-4.085-2.51-8.066-4.043-12.004c-0.258-0.663-0.241-1.073,0.553-1.354
		c4.152-1.466,8.294-2.963,12.422-4.496c0.566-0.211,0.744-0.086,0.921,0.415c2.067,5.892,4.489,11.667,5.916,17.769
		c0.44,1.877,0.456,3.815,0.484,4.896C83.639,59.795,73.943,73.801,59.186,77.761z"/>
</g>
<g>
</g>
<g>
</g>
<g>
</g>
<g>
</g>
<g>
</g>
<g>
</g>
<g>
</g>
<g>
</g>
<g>
</g>
<g>
</g>
<g>
</g>
<g>
</g>
<g>
</g>
<g>
</g>
<g>
</g>
</svg>
