<?xml version="1.0" encoding="iso-8859-1"?>
<!-- Generator: Adobe Illustrator 16.0.0, SVG Export Plug-In . SVG Version: 6.00 Build 0)  -->
<!DOCTYPE svg PUBLIC "-//W3C//DTD SVG 1.1//EN" "http://www.w3.org/Graphics/SVG/1.1/DTD/svg11.dtd">
<svg version="1.1" id="Capa_1" xmlns="http://www.w3.org/2000/svg" xmlns:xlink="http://www.w3.org/1999/xlink" x="0px" y="0px"
	 width="97.75px" height="97.75px" viewBox="0 0 97.75 97.75" style="enable-background:new 0 0 97.75 97.75;" xml:space="preserve"
	>
<g>
	<g>
		<circle cx="40.56" cy="48.875" r="10.502"/>
		<path d="M48.875,0C21.883,0,0,21.882,0,48.875S21.883,97.75,48.875,97.75S97.75,75.868,97.75,48.875S75.867,0,48.875,0z
			 M71.201,25.301h11.291v10.706l-2.881,20.522h-5.188l-3.222-20.581V25.301z M40.56,73.364c-14.396,0-26.065-11.044-26.065-24.54
			c0-13.497,11.67-24.438,26.065-24.438s26.065,10.941,26.065,24.438C66.625,62.32,54.955,73.364,40.56,73.364z M76.949,72.906
			c-3.482,0-6.307-2.823-6.307-6.307c0-3.482,2.823-6.307,6.307-6.307c3.482,0,6.307,2.824,6.307,6.307
			C83.256,70.083,80.434,72.906,76.949,72.906z"/>
	</g>
</g>
<g>
</g>
<g>
</g>
<g>
</g>
<g>
</g>
<g>
</g>
<g>
</g>
<g>
</g>
<g>
</g>
<g>
</g>
<g>
</g>
<g>
</g>
<g>
</g>
<g>
</g>
<g>
</g>
<g>
</g>
</svg>
