<?xml version="1.0" encoding="iso-8859-1"?>
<!-- Generator: Adobe Illustrator 16.0.0, SVG Export Plug-In . SVG Version: 6.00 Build 0)  -->
<!DOCTYPE svg PUBLIC "-//W3C//DTD SVG 1.1//EN" "http://www.w3.org/Graphics/SVG/1.1/DTD/svg11.dtd">
<svg version="1.1" id="Capa_1" xmlns="http://www.w3.org/2000/svg" xmlns:xlink="http://www.w3.org/1999/xlink" x="0px" y="0px"
	 width="97.75px" height="97.75px" viewBox="0 0 97.75 97.75" style="enable-background:new 0 0 97.75 97.75;" xml:space="preserve"
	>
<g>
	<g>
		<path d="M35.541,56.271c1.061,0.002,2.122,0.002,3.182,0c1.139-0.004,1.629-0.489,1.628-1.635
			c-0.004-6.545-0.009-13.091-0.017-19.635c0-1.029-0.515-1.542-1.548-1.549c-1.047-0.006-2.093-0.003-3.141-0.001
			c-0.663,0.001-0.683,0.021-0.683,0.681c-0.002,3.572-0.002,7.146-0.002,10.719c-0.007,0-0.014,0-0.021,0
			c0,3.601,0,7.201,0.001,10.8C34.941,56.259,34.952,56.27,35.541,56.271z"/>
		<path d="M29.626,36.841c-0.001-0.963-0.014-1.926-0.015-2.889c0-0.284-0.057-0.5-0.406-0.497c-1.228,0.004-2.457-0.02-3.684,0.014
			c-0.753,0.019-1.259,0.581-1.28,1.337c-0.017,0.571-0.023,1.145-0.023,1.717c-0.002,6.071-0.003,12.143-0.002,18.213
			c0.001,0.998,0.527,1.529,1.521,1.533c1.074,0.006,2.148,0.002,3.223,0.002c0.671,0,0.673-0.002,0.673-0.672
			c0.001-3.572,0-7.146,0-10.719c-0.001,0-0.003,0-0.005,0C29.627,42.2,29.629,39.521,29.626,36.841z"/>
		<path d="M48.875,0C21.882,0,0,21.883,0,48.875S21.882,97.75,48.875,97.75S97.75,75.867,97.75,48.875S75.868,0,48.875,0z
			 M45.588,73.023c-0.212,2.396-2.31,4.385-4.718,4.592c-0.544,0.047-1.086,0.062-1.63,0.062c-6.242-0.001-12.483,0-18.725-0.001
			c-0.209,0-0.421,0.009-0.628-0.013c-0.58-0.055-0.947-0.389-0.961-0.969c-0.026-1.103-0.033-2.206,0-3.31
			c0.022-0.716,0.416-1.024,1.205-1.024c2.822-0.004,5.642-0.002,8.463-0.002c0.111,0,0.224,0,0.335,0
			c0.702-0.002,0.703-0.002,0.703-0.686c0.001-0.865,0-1.73-0.001-2.597c-0.004-2.724-0.007-5.446-0.013-8.169
			c-0.001-0.633-0.022-0.654-0.666-0.654c-1.606,0.001-3.212,0.018-4.817,0.003c-0.91-0.007-1.813-0.104-2.676-0.421
			c-1.717-0.632-2.545-1.802-2.549-3.629c-0.007-3.771-0.002-7.54-0.002-11.311c-0.001,0-0.002,0-0.002,0
			c-0.001-3.756-0.012-7.513,0.003-11.269c0.008-2.018,0.842-3.61,2.561-4.711c0.938-0.601,1.988-0.793,3.079-0.8
			c1.509-0.009,3.017-0.014,4.524,0.005c0.417,0.006,0.563-0.129,0.56-0.551c-0.016-2.039-0.007-4.078-0.007-6.116
			c0.002-1.061,0.32-1.382,1.37-1.384c0.908-0.002,1.815-0.005,2.723,0.002c0.86,0.006,1.221,0.366,1.223,1.233
			c0.005,2.066,0,4.133,0.001,6.199c0.001,0.598,0.012,0.608,0.611,0.609c1.522,0.002,3.043-0.018,4.565,0.006
			c2.315,0.034,4.04,1.048,5.063,3.159c0.347,0.716,0.479,1.49,0.48,2.278c0.004,7.54,0.006,15.08-0.002,22.621
			c-0.003,1.925-0.89,3.11-2.723,3.708c-0.777,0.254-1.576,0.372-2.392,0.374c-1.647,0.003-3.295-0.007-4.942-0.008
			c-0.622,0-0.649,0.026-0.65,0.627c-0.006,3.616-0.012,7.233-0.016,10.851c0,0.621,0.007,0.627,0.634,0.627
			c1.089,0,2.179,0.006,3.267-0.002c1.042-0.009,1.511-0.477,1.516-1.517c0.007-1.285-0.001-2.569,0.004-3.854
			c0.003-1,0.334-1.326,1.336-1.33c0.95-0.002,1.899-0.008,2.849,0.006c0.709,0.01,1.103,0.345,1.104,1.041
			C45.652,68.811,45.775,70.922,45.588,73.023z M74.768,57.268l-9.678-14.64l3.835-2.308l9.591,14.847L74.768,57.268z
			 M78.846,24.147c-0.004,0.944-0.312,1.261-1.257,1.262c-4.733,0.003-9.465,0.002-14.198,0.002c-0.945,0-0.945,0-0.945,0.924
			c-0.01,16.586-0.018,33.173-0.026,49.758c-0.002,1.341-0.245,1.584-1.588,1.585c-0.81,0-1.62,0.004-2.429-0.002
			c-0.94-0.006-1.285-0.352-1.285-1.298c-0.001-8.377-0.001-16.753-0.001-25.13c-0.003,0-0.003,0-0.005,0
			c0-7.889,0.002-15.776,0-23.665c0-0.516-0.016-1.032-0.021-1.549c-0.007-0.584-0.04-0.622-0.619-0.622
			c-2.736-0.002-5.473,0-8.208-0.001c-0.489,0-0.978,0.008-1.467-0.005c-0.731-0.022-1.069-0.363-1.076-1.101
			c-0.01-0.921-0.005-1.843-0.006-2.764c0-1.175,0.29-1.47,1.451-1.47h30.283c1.086,0,1.398,0.314,1.4,1.395
			C78.85,22.36,78.848,23.254,78.846,24.147z"/>
	</g>
</g>
<g>
</g>
<g>
</g>
<g>
</g>
<g>
</g>
<g>
</g>
<g>
</g>
<g>
</g>
<g>
</g>
<g>
</g>
<g>
</g>
<g>
</g>
<g>
</g>
<g>
</g>
<g>
</g>
<g>
</g>
</svg>
