<?xml version="1.0" encoding="iso-8859-1"?>
<!-- Generator: Adobe Illustrator 16.0.0, SVG Export Plug-In . SVG Version: 6.00 Build 0)  -->
<!DOCTYPE svg PUBLIC "-//W3C//DTD SVG 1.1//EN" "http://www.w3.org/Graphics/SVG/1.1/DTD/svg11.dtd">
<svg version="1.1" id="Capa_1" xmlns="http://www.w3.org/2000/svg" xmlns:xlink="http://www.w3.org/1999/xlink" x="0px" y="0px"
	 width="97.75px" height="97.75px" viewBox="0 0 97.75 97.75" style="enable-background:new 0 0 97.75 97.75;" xml:space="preserve"
	>
<g>
	<g>
		<path d="M48.942,35.85c-9.596,0-17.378,7.78-17.378,17.378c0,9.598,7.782,17.377,17.378,17.377c9.6,0,17.378-7.78,17.378-17.379
			C66.32,43.629,58.542,35.85,48.942,35.85z M48.942,63.131c-5.469,0-9.903-4.434-9.903-9.902c0-5.47,4.435-9.903,9.903-9.903
			c5.471,0,9.904,4.434,9.904,9.903C58.846,58.697,54.413,63.131,48.942,63.131z"/>
		<path d="M48.875,0C21.882,0,0,21.882,0,48.875S21.882,97.75,48.875,97.75S97.75,75.868,97.75,48.875S75.868,0,48.875,0z
			 M82.975,74.902H14.774c-0.824,0-1.494-0.656-1.494-1.469V35.076c0-0.811,0.67-1.469,1.494-1.469h20.153v-9.722
			c0-0.572,0.447-1.037,0.997-1.037H61.96c0.55,0,0.997,0.465,0.997,1.037v9.723h20.018c0.828,0,1.496,0.658,1.496,1.469v38.358
			C84.471,74.246,83.803,74.902,82.975,74.902z"/>
	</g>
</g>
<g>
</g>
<g>
</g>
<g>
</g>
<g>
</g>
<g>
</g>
<g>
</g>
<g>
</g>
<g>
</g>
<g>
</g>
<g>
</g>
<g>
</g>
<g>
</g>
<g>
</g>
<g>
</g>
<g>
</g>
</svg>
