<?xml version="1.0" encoding="iso-8859-1"?>
<!-- Generator: Adobe Illustrator 16.0.0, SVG Export Plug-In . SVG Version: 6.00 Build 0)  -->
<!DOCTYPE svg PUBLIC "-//W3C//DTD SVG 1.1//EN" "http://www.w3.org/Graphics/SVG/1.1/DTD/svg11.dtd">
<svg version="1.1" id="Capa_1" xmlns="http://www.w3.org/2000/svg" xmlns:xlink="http://www.w3.org/1999/xlink" x="0px" y="0px"
	 width="97.75px" height="97.75px" viewBox="0 0 97.75 97.75" style="enable-background:new 0 0 97.75 97.75;" xml:space="preserve"
	>
<g>
	<path d="M48.875,0C21.882,0,0,21.883,0,48.875S21.882,97.75,48.875,97.75S97.75,75.867,97.75,48.875S75.868,0,48.875,0z
		 M71.438,59.492c-1.308,4.213-3.562,7.914-6.23,11.379c-2.919,3.787-6.223,7.191-10.209,9.885
		c-1.512,1.018-3.121,1.816-4.898,2.254c-0.556,0-1.111,0-1.666,0c-4.271-1.143-7.525-3.883-10.642-6.818
		c-3.371-3.178-6.247-6.768-8.529-10.799c-1.708-3.018-3.012-6.213-3.187-9.744c-0.188-3.787,1.562-7.157,5.181-8.973
		c1.265-0.635,2.579-0.963,3.957-0.941c1.762,0.023,3.39,0.635,4.97,1.387c1.72,0.818,3.283,1.883,4.754,3.067
		c0.926,0.748,1.918,1.371,2.91,2.013c0.986,0.639,1.912,0.559,2.857-0.066c1.082-0.717,2.059-1.573,3.084-2.362
		c2.152-1.654,4.354-3.208,7.062-3.865c4.594-1.121,10.556,1.998,11.233,7.283C72.363,55.342,72.076,57.436,71.438,59.492z
		 M37.202,39.621c1.54-2.236,3.686-3.693,6.195-4.648c1.834-0.699,3.744-0.977,5.791-1.004c3.998,0.084,7.623,1.303,10.459,4.383
		c0.586,0.637,1.222,1.271,1.213,2.25c-0.008,0.934-0.487,1.668-1.334,1.982c-0.823,0.307-1.838,0.123-2.308-0.613
		c-2.968-4.664-11.491-5.111-15.676-1.037c-0.334,0.326-0.636,0.688-0.928,1.055c-0.707,0.891-1.924,1.098-2.858,0.465
		C36.853,41.842,36.563,40.553,37.202,39.621z M71.424,38.746c-0.854,0.191-1.601-0.078-2.095-0.779
		c-3.407-4.828-8.185-7.52-13.847-8.686c-6.234-1.283-12.352-0.807-18.205,1.834c-3.52,1.588-6.524,3.854-8.803,7.02
		c-0.702,0.977-2.001,1.166-2.953,0.482c-0.938-0.674-1.153-1.938-0.455-2.959c1.188-1.74,2.659-3.223,4.288-4.547
		c4.854-3.942,10.449-5.993,16.64-6.55c1.086-0.098,2.171-0.109,3.759-0.136c5.426-0.003,11,1.289,16.053,4.492
		c2.715,1.719,5.074,3.828,6.873,6.51C73.577,36.768,72.938,38.408,71.424,38.746z M82.822,34.805
		c-0.405-0.166-0.723-0.439-0.969-0.807c-3.018-4.479-7.092-7.75-11.812-10.262c-4.629-2.462-9.586-3.859-14.789-4.419
		c-7.816-0.842-15.458-0.133-22.828,2.711c-6.309,2.436-11.726,6.146-15.938,11.505c-0.211,0.268-0.393,0.559-0.594,0.832
		c-0.746,1.02-1.987,1.26-2.987,0.582c-0.947-0.641-1.208-1.926-0.537-2.949c1.258-1.92,2.812-3.598,4.482-5.16
		c6.479-6.061,14.178-9.65,22.858-11.237c2.204-0.402,4.429-0.615,6.665-0.767c2.162-0.147,3.494-0.131,8.019,0.113
		c8.811,0.774,16.854,3.559,23.854,9.072c2.746,2.164,5.188,4.633,7.109,7.578c0.56,0.852,0.521,1.863-0.054,2.564
		C84.686,34.918,83.714,35.17,82.822,34.805z"/>
</g>
<g>
</g>
<g>
</g>
<g>
</g>
<g>
</g>
<g>
</g>
<g>
</g>
<g>
</g>
<g>
</g>
<g>
</g>
<g>
</g>
<g>
</g>
<g>
</g>
<g>
</g>
<g>
</g>
<g>
</g>
</svg>
