<?xml version="1.0" encoding="iso-8859-1"?>
<!-- Generator: Adobe Illustrator 16.0.0, SVG Export Plug-In . SVG Version: 6.00 Build 0)  -->
<!DOCTYPE svg PUBLIC "-//W3C//DTD SVG 1.1//EN" "http://www.w3.org/Graphics/SVG/1.1/DTD/svg11.dtd">
<svg version="1.1" id="Capa_1" xmlns="http://www.w3.org/2000/svg" xmlns:xlink="http://www.w3.org/1999/xlink" x="0px" y="0px"
	 width="97.75px" height="97.75px" viewBox="0 0 97.75 97.75" style="enable-background:new 0 0 97.75 97.75;" xml:space="preserve"
	>
<g>
	<g>
		<path d="M49.018,21.154h-0.04c-15.303,0-27.774,12.423-27.803,27.694C21.15,64.1,33.583,76.53,48.892,76.561h0.055
			c15.209,0.004,27.624-12.35,27.675-27.533c0.024-7.424-2.86-14.425-8.123-19.713C63.271,24.063,56.354,21.165,49.018,21.154z
			 M44.741,46.241c-0.472-0.18-0.948-0.377-1.409-0.566c-1.014-0.42-2.061-0.854-3.129-1.104c-0.426-0.101-0.797-0.195-1.118-0.277
			c-0.581-0.103-1.251-0.194-1.979-0.262c-0.617,0.598-2.825,2.984-3.664,7.346c0.443-0.642,1.182-1.063,2.021-1.063
			c1.356,0,2.457,1.1,2.457,2.457c0,1.188-0.842,2.182-1.962,2.408c1.12,0.23,1.962,1.223,1.962,2.408
			c0,1.357-1.101,2.456-2.457,2.456c-1.161,0-2.131-0.804-2.389-1.882c-0.258,1.078-1.229,1.882-2.388,1.882
			c-1.358,0-2.458-1.099-2.458-2.456c0-1.188,0.841-2.178,1.96-2.408c-1.119-0.228-1.96-1.22-1.96-2.408
			c0-1.357,1.1-2.457,2.458-2.457c0.929,0,1.734,0.516,2.15,1.275c0.016-0.318,0.265-4.839,2.667-7.645
			c-2.497-0.054-5.358,0.292-7.648,1.558l-0.156,0.062l0.003-0.169c0.085-4.029,4.058-7.573,8.498-7.578
			c4.754,0,8.566,3.653,8.692,8.316l0.003,0.166L44.741,46.241z M70.197,45.61l-0.172-0.068c-2.594-1.076-5.187-1.619-7.701-1.619
			c-3.059,0-6.119,0.804-9.098,2.395l-0.14,0.072l-0.024-0.154c-0.242-1.545,0.283-3.256,1.475-4.82
			c1.503-1.971,3.746-3.303,6-3.559c0.338-0.039,0.682-0.06,1.021-0.06c4.447,0,8.234,3.352,8.621,7.63L70.197,45.61z"/>
		<path d="M32.078,55.218c0,0.525,0.425,0.951,0.949,0.951c0.525,0,0.949-0.426,0.949-0.951c0-0.522-0.424-0.946-0.949-0.946
			S32.078,54.695,32.078,55.218z"/>
		<path d="M48.875,0C21.882,0,0,21.883,0,48.875S21.882,97.75,48.875,97.75S97.75,75.867,97.75,48.875S75.868,0,48.875,0z
			 M72.956,73c-6.407,6.426-14.938,9.964-24.022,9.964h-0.065c-9.118-0.019-17.679-3.571-24.104-10.01
			c-6.423-6.437-9.951-14.992-9.934-24.093c0.018-9.181,3.574-17.759,10.014-24.155c6.439-6.397,15.06-9.92,24.275-9.92h0.108
			c8.98,0.027,17.44,3.6,23.822,10.058c6.381,6.458,9.887,14.998,9.87,24.045C82.902,58.014,79.363,66.578,72.956,73z"/>
	</g>
</g>
<g>
</g>
<g>
</g>
<g>
</g>
<g>
</g>
<g>
</g>
<g>
</g>
<g>
</g>
<g>
</g>
<g>
</g>
<g>
</g>
<g>
</g>
<g>
</g>
<g>
</g>
<g>
</g>
<g>
</g>
</svg>
