<?xml version="1.0" encoding="iso-8859-1"?>
<!-- Generator: Adobe Illustrator 16.0.0, SVG Export Plug-In . SVG Version: 6.00 Build 0)  -->
<!DOCTYPE svg PUBLIC "-//W3C//DTD SVG 1.1//EN" "http://www.w3.org/Graphics/SVG/1.1/DTD/svg11.dtd">
<svg version="1.1" id="Capa_1" xmlns="http://www.w3.org/2000/svg" xmlns:xlink="http://www.w3.org/1999/xlink" x="0px" y="0px"
	 width="97.75px" height="97.75px" viewBox="0 0 97.75 97.75" style="enable-background:new 0 0 97.75 97.75;" xml:space="preserve"
	>
<g>
	<path d="M48.875,0C21.882,0,0,21.882,0,48.875S21.882,97.75,48.875,97.75S97.75,75.868,97.75,48.875S75.868,0,48.875,0z
		 M33.177,25.922c5.41,0,9.794,4.385,9.794,9.794c0,5.409-4.384,9.792-9.794,9.792c-5.408,0-9.794-4.383-9.794-9.792
		C23.382,30.307,27.769,25.922,33.177,25.922z M88.643,56.818c-2.836-0.856-5.713-1.584-8.639-2.094
		c-7.143-1.246-14.322-1.977-21.582-1.507c-4.318,0.276-8.602,0.857-12.757,2.068c-6.827,1.989-13.033,5.118-18.209,10.118
		c-2.211,2.132-4.433,4.299-7.271,5.629c-2.001,0.937-4.076,1.094-6.13,0.206c-2.402-1.039-3.232-3.13-2.375-5.683
		c0.609-1.791,1.704-3.276,2.998-4.607c3.476-3.583,7.738-5.963,12.294-7.859c8.004-3.337,16.417-4.836,25.022-5.454
		c1.881-0.138,3.76-0.163,5.64-0.174c5.55-0.081,11.044,0.506,16.474,1.534c5.463,1.033,10.812,2.51,15.891,4.822
		c0.637,0.289,0.873,0.43,1.502,0.73C93.641,55.573,93.785,58.37,88.643,56.818z"/>
</g>
<g>
</g>
<g>
</g>
<g>
</g>
<g>
</g>
<g>
</g>
<g>
</g>
<g>
</g>
<g>
</g>
<g>
</g>
<g>
</g>
<g>
</g>
<g>
</g>
<g>
</g>
<g>
</g>
<g>
</g>
</svg>
