<?xml version="1.0" encoding="iso-8859-1"?>
<!-- Generator: Adobe Illustrator 16.0.0, SVG Export Plug-In . SVG Version: 6.00 Build 0)  -->
<!DOCTYPE svg PUBLIC "-//W3C//DTD SVG 1.1//EN" "http://www.w3.org/Graphics/SVG/1.1/DTD/svg11.dtd">
<svg version="1.1" id="Capa_1" xmlns="http://www.w3.org/2000/svg" xmlns:xlink="http://www.w3.org/1999/xlink" x="0px" y="0px"
	 width="97.75px" height="97.75px" viewBox="0 0 97.75 97.75" style="enable-background:new 0 0 97.75 97.75;" xml:space="preserve"
	>
<g>
	<g>
		<path d="M31.297,48.193c-0.004,2.533-0.008,5.064-0.012,7.597c-0.002,1.017-0.009,2.032,0.003,3.048
			c0.012,0.994,0.54,1.559,1.534,1.635c0.381,0.028,0.767,0.025,1.146,0.002c1.059-0.066,1.533-0.525,1.536-1.592
			c0.016-3.533,0.001-7.066-0.001-10.6c0.006-0.073,0.018-0.146,0.018-0.221c0-2.973,0.002-5.944-0.005-8.917
			c0-0.248-0.034-0.499-0.082-0.742c-0.095-0.487-0.364-0.814-0.871-0.942c-0.742-0.188-1.483-0.2-2.226-0.021
			c-0.571,0.14-0.911,0.501-1.012,1.09c-0.074,0.425-0.043,0.853-0.043,1.276C31.285,42.604,31.292,45.398,31.297,48.193z"/>
		<path d="M48.875,0C21.883,0,0,21.883,0,48.875S21.883,97.75,48.875,97.75S97.75,75.867,97.75,48.875S75.867,0,48.875,0z
			 M14.84,31.932c0.081-1.906,0.318-3.783,1.262-5.484c0.74-1.33,1.82-2.308,3.271-2.834c1.737-0.632,3.548-0.966,5.366-1.229
			c9.764-1.42,19.584-1.833,29.434-1.576c4.507,0.118,9.002,0.449,13.484,0.93c2.884,0.31,5.743,0.741,8.591,1.311
			c3.745,0.748,5.585,3.14,6.225,6.709c0.129,0.725,0.219,1.453,0.27,2.189c0.005,0.073,0.004,0.49-0.002,0.543h-6.369
			c-0.025-0.056-0.046-0.479-0.061-0.558c-0.063-0.347-0.158-0.688-0.26-1.026c-0.458-1.536-1.451-2.513-3.048-2.771
			c-2.614-0.425-5.25-0.711-7.887-0.981c-3.414-0.351-6.835-0.606-10.265-0.756c-4.049-0.178-8.1-0.174-12.146,0.001
			c-2.841,0.123-5.677,0.313-8.507,0.577c-3.268,0.305-6.535,0.639-9.775,1.169c-1.592,0.259-2.643,1.214-3.057,2.81
			c-0.076,0.299-0.18,0.593-0.238,0.896c-0.012,0.067-0.031,0.476-0.056,0.521h-6.227C14.842,32.346,14.839,31.965,14.84,31.932z
			 M67.37,54.734c-0.004,2.533-0.009,5.067-0.015,7.602c0,0.674-0.125,0.8-0.795,0.801c-1.562,0-3.123,0.002-4.687-0.001
			c-0.636-0.001-0.718-0.081-0.718-0.711c-0.008-3.006-0.012-6.01-0.016-9.017c0.059-0.401-0.004-0.78-0.152-1.162
			c-0.777-1.996-1.514-4.01-2.236-6.024c-0.986-2.751-2.009-5.488-2.98-8.244c-0.289-0.816-0.598-1.627-0.891-2.443
			c-0.211-0.591-0.013-0.87,0.616-0.872c1.649-0.003,3.299,0.01,4.948-0.009c0.461-0.005,0.685,0.18,0.818,0.612
			c1.006,3.242,2.051,6.47,2.951,9.821c0.271-0.958,0.508-1.856,0.78-2.744c0.717-2.346,1.46-4.686,2.169-7.033
			c0.143-0.472,0.367-0.667,0.873-0.658c1.574,0.026,3.152,0.009,4.727,0.009c0.865,0.001,1.032,0.238,0.74,1.043
			c-1.988,5.501-3.977,11.002-5.975,16.5C67.229,53.039,67.395,53.891,67.37,54.734z M52.342,53.497
			c-0.005,2.899-0.01,5.798-0.014,8.696c-0.001,0.873-0.072,0.942-0.965,0.942c-1.618,0-3.237,0.001-4.855,0
			c-0.66-0.001-0.725-0.065-0.725-0.729c-0.003-4.443-0.003-8.888-0.004-13.331c0-0.176-0.008-0.354-0.012-0.529
			c0.006-0.176,0.018-0.352,0.018-0.527c0-4.184-0.001-8.366,0-12.548c0-0.729,0.08-0.809,0.807-0.81c1.619-0.001,3.24-0.001,4.86,0
			c0.766,0,0.873,0.104,0.873,0.855c0,5.818-0.001,11.635-0.001,17.452C52.324,53.145,52.335,53.32,52.342,53.497z M24.912,38.875
			c-0.001-0.771,0.07-1.528,0.521-2.165c0.594-0.837,1.371-1.476,2.329-1.88c1.359-0.576,2.783-0.834,4.247-0.919
			c2.328-0.136,4.615,0.031,6.831,0.826c1.673,0.601,3.125,2.094,3.07,4.313c-0.074,2.974-0.019,5.95-0.019,8.925
			c0,0.161,0.012,0.322,0.018,0.484c-0.004,3.372-0.062,6.744,0.006,10.114c0.042,2.089-0.91,3.428-2.709,4.301
			c-0.17,0.083-0.491,0.11-0.455,0.324c0.039,0.22,0.353,0.252,0.565,0.259c0.779,0.025,1.561,0.02,2.34,0.025
			c0.628,0.004,0.771,0.147,0.771,0.785c0.001,0.604-0.001,1.207,0,1.811c0.001,0.326-0.147,0.586-0.473,0.58
			c-1.38-0.021-2.771,0.16-4.139-0.146c-1.331-0.299-2.019-1.055-2.207-2.412c-0.038-0.289-0.143-0.297-0.396-0.285
			c-2.63,0.125-5.238,0.076-7.709-1.031c-1.266-0.567-2.2-1.407-2.526-2.811c-0.097-0.416-0.036-0.842-0.08-1.26
			c0.007-0.177,0.017-0.354,0.017-0.527C24.918,51.748,24.918,45.312,24.912,38.875z M15.419,34.654
			c1.647,0.017,3.294,0.005,4.942,0.008c0.471,0.002,0.662,0.189,0.664,0.669c0.004,1.677,0.004,3.354-0.001,5.03
			c-0.001,0.481-0.186,0.661-0.672,0.662c-1.631,0.005-3.264,0.003-4.896,0.002c-0.535,0-0.623-0.086-0.628-0.646
			c-0.007-0.854-0.001-1.706-0.002-2.559c0-0.642,0.005-1.28,0.002-1.92c-0.001-0.214-0.002-0.427-0.005-0.641
			C14.82,34.847,14.968,34.65,15.419,34.654z M14.823,52.613c0.006-2.725,0.011-5.447,0.017-8.172c0.001-0.176,0.006-0.354,0-0.531
			c-0.016-0.38,0.17-0.581,0.543-0.582c1.709-0.004,3.417-0.003,5.126,0c0.32,0.001,0.479,0.194,0.512,0.496
			c0.016,0.131,0.005,0.265,0.005,0.397c0,4.565,0,9.132,0,13.696c0,0.178,0.011,0.354,0.017,0.528
			c-0.005,1.354-0.008,2.711-0.014,4.063c-0.001,0.624-0.163,0.791-0.772,0.792c-1.562,0.002-3.123,0.004-4.684,0
			c-0.625-0.002-0.733-0.113-0.734-0.75C14.832,59.24,14.828,55.927,14.823,52.613z M80.574,72.381
			c-1.07,1.317-2.53,1.862-4.096,2.249c-2.436,0.603-4.912,0.94-7.396,1.231c-4.436,0.518-8.889,0.816-13.346,1.029
			c-2.34,0.109-4.682,0.135-7.144,0.112c-5.295,0.072-10.691-0.255-16.078-0.722c-3.754-0.326-7.504-0.715-11.186-1.567
			c-0.429-0.101-0.851-0.231-1.275-0.346c-2.308-0.615-3.69-2.188-4.523-4.341c-0.325-0.842-0.423-1.73-0.592-2.606
			c-0.099-0.507-0.056-1.371-0.101-1.878c-0.004-0.042,0-0.073,0.003-0.105h6.231c0.017,0.039,0.03,0.438,0.044,0.485
			c0.183,0.611,0.264,1.259,0.59,1.824c0.66,1.14,1.684,1.735,2.957,1.915c3.748,0.525,7.506,0.947,11.278,1.268
			c4.172,0.352,8.351,0.547,12.535,0.555c3.904,0.007,7.803-0.154,11.698-0.451c3.568-0.274,7.127-0.645,10.676-1.104
			c0.787-0.103,1.584-0.183,2.356-0.356c1.489-0.337,2.456-1.243,2.831-2.757c0.078-0.313,0.195-0.619,0.264-0.941
			c0.008-0.036,0.036-0.051,0.051-0.08h6.381c0,0.018,0.006,0.029,0.004,0.051C82.58,68.21,82.131,70.469,80.574,72.381z
			 M82.914,62.416c-0.002,0.768-0.121,0.889-0.896,0.889c-1.574,0-3.149,0-4.725-0.002c-0.604-0.001-0.76-0.156-0.761-0.753
			c-0.007-2.575-0.013-5.151-0.019-7.728c0.008-0.176,0.021-0.353,0.021-0.527c0-6.258-0.001-12.515-0.002-18.773
			c0-0.772,0.089-0.86,0.865-0.86c1.562-0.001,3.121-0.001,4.683,0c0.702,0,0.83,0.124,0.828,0.815c0,5.388-0.001,10.777,0,16.166
			c0,0.178,0.012,0.354,0.017,0.529C82.923,55.586,82.918,59.002,82.914,62.416z"/>
	</g>
</g>
<g>
</g>
<g>
</g>
<g>
</g>
<g>
</g>
<g>
</g>
<g>
</g>
<g>
</g>
<g>
</g>
<g>
</g>
<g>
</g>
<g>
</g>
<g>
</g>
<g>
</g>
<g>
</g>
<g>
</g>
</svg>
