<?xml version="1.0" encoding="iso-8859-1"?>
<!-- Generator: Adobe Illustrator 16.0.0, SVG Export Plug-In . SVG Version: 6.00 Build 0)  -->
<!DOCTYPE svg PUBLIC "-//W3C//DTD SVG 1.1//EN" "http://www.w3.org/Graphics/SVG/1.1/DTD/svg11.dtd">
<svg version="1.1" id="Capa_1" xmlns="http://www.w3.org/2000/svg" xmlns:xlink="http://www.w3.org/1999/xlink" x="0px" y="0px"
	 width="97.75px" height="97.75px" viewBox="0 0 97.75 97.75" style="enable-background:new 0 0 97.75 97.75;" xml:space="preserve"
	>
<g>
	<g>
		<path d="M48.649,44.41c-1.657-1.975-6.829-1.967-7.596,2.004l-0.093,0.459c1.268-0.011,3.015-0.004,4.283-0.004
			c1.294,0,2.968,0.001,4.263-0.002l-0.021-0.244C49.395,45.814,49.186,45.049,48.649,44.41z"/>
		<path d="M48.875,0C21.883,0,0,21.882,0,48.875S21.883,97.75,48.875,97.75S97.75,75.868,97.75,48.875S75.867,0,48.875,0z
			 M75.383,60.087h-6.412c0.01-3.453,0.008-7.776,0.006-11.229c0-0.291-0.043-1.878-0.357-2.736c-0.428-1.28-1.337-1.971-2.674-2.04
			c-1.026-0.053-2.023,0.065-2.854,0.801c-0.562,0.498-0.822,1.144-1.027,1.83c-0.053,0.172-0.086,0.35-0.129,0.524
			c-0.115,0.746-0.146,1.495-0.146,2.249l0.013,10.591c-1.865-0.019-4.589-0.017-6.455-0.001l0.006-8.881
			c-4.475,0.017-9.875,0.011-14.35,0.012l0.139,0.492c1.137,3.826,5.687,4.436,8.197,2.178c0.321-0.29,0.633-0.591,0.885-0.943
			l0.205-0.281c1.32,0.978,3.188,2.357,4.524,3.312l-0.242,0.258c-0.683,0.791-1.515,1.394-2.366,1.983
			c-1.625,1.126-3.457,1.671-5.383,1.798c-2.826,0.186-5.491-0.418-7.878-2.035c-1.521-1.031-2.666-2.375-3.465-4.023
			c-0.063-0.131-0.132-0.262-0.244-0.486c-0.011,0.229-0.021,0.359-0.021,0.488l-0.006,4.022c0,0-0.165,0.104-0.295,0.164
			c-2.217,1.041-4.556,1.603-6.988,1.81c-2.138,0.181-4.256,0.115-6.331-0.502c-1.789-0.533-3.399-1.396-4.732-2.707
			c-1.616-1.588-2.576-3.533-2.942-5.769c-0.177-1.073-0.255-2.153-0.097-3.237c0.08-1.726,0.599-3.322,1.496-4.786
			c1.438-2.348,3.548-3.854,6.161-4.609c3.556-1.029,7.093-0.86,10.563,0.443c0.905,0.339,1.717,0.852,2.469,1.458
			c0.156,0.126,0.209,0.217,0.055,0.393c-1.057,1.215-2.109,2.435-3.156,3.659c-0.12,0.14-0.195,0.145-0.33,0.018
			c-1.605-1.531-3.563-2.027-5.688-1.917c-1.267,0.065-2.371,0.675-3.293,1.561c-0.984,0.943-1.515,2.101-1.745,3.42
			c-0.021,0.123-0.057,0.242-0.086,0.363c-0.056,0.917-0.081,1.837,0.094,2.748c0.498,2.598,2.281,4.56,4.994,4.771
			c1.374,0.107,2.688-0.115,3.884-0.852c0.208-0.127,0.339-0.252,0.325-0.543c-0.031-0.736-0.027-1.477-0.002-2.215l0.014-0.438
			l-3.491,0.011l0.001-4.333l8.586,0.007l0.105-0.438c1.148-4.271,4.029-6.85,8.225-7.865c1.946-0.472,3.922-0.373,5.869,0.159
			c2.998,0.819,4.979,2.762,6.092,5.633c0.068,0.175,0.133,0.352,0.258,0.515l0.007-5.926l6.176-0.01l-0.004,2.738
			c0.084,0.045,0.116-0.005,0.144-0.049c1.283-2.089,3.238-3.02,5.603-3.169c1.413-0.089,2.812,0.08,4.132,0.639
			c1.588,0.673,2.6,1.858,3.193,3.479c0.643,1.752,0.771,3.559,0.779,5.393L75.383,60.087z M83.367,52.947l-0.016,7.121h-6.428
			l-0.003-13.469l6.448-0.032l-0.008,6.378h0.006V52.947z M80.137,45.566c-2.273-0.021-3.757-1.913-3.711-3.676
			c-0.003-2.058,1.65-3.717,3.713-3.724c2.057-0.009,3.733,1.656,3.733,3.704C83.872,43.909,82.189,45.586,80.137,45.566z"/>
	</g>
</g>
<g>
</g>
<g>
</g>
<g>
</g>
<g>
</g>
<g>
</g>
<g>
</g>
<g>
</g>
<g>
</g>
<g>
</g>
<g>
</g>
<g>
</g>
<g>
</g>
<g>
</g>
<g>
</g>
<g>
</g>
</svg>
