<?xml version="1.0" encoding="iso-8859-1"?>
<!-- Generator: Adobe Illustrator 16.0.0, SVG Export Plug-In . SVG Version: 6.00 Build 0)  -->
<!DOCTYPE svg PUBLIC "-//W3C//DTD SVG 1.1//EN" "http://www.w3.org/Graphics/SVG/1.1/DTD/svg11.dtd">
<svg version="1.1" id="Capa_1" xmlns="http://www.w3.org/2000/svg" xmlns:xlink="http://www.w3.org/1999/xlink" x="0px" y="0px"
	 width="97.75px" height="97.75px" viewBox="0 0 97.75 97.75" style="enable-background:new 0 0 97.75 97.75;" xml:space="preserve"
	>
<g>
	<path d="M48.875,0C21.883,0,0,21.883,0,48.875S21.883,97.75,48.875,97.75S97.75,75.867,97.75,48.875S75.867,0,48.875,0z
		 M72.559,32.96c-1.754-1.142-3.287-2.124-4.806-3.129c-8.511-5.622-16.633-4.374-21.456,4.617
		c-2.665,4.976-3.868,11.151-4.196,16.87c-0.633,11.119-0.186,22.3-0.186,33.73c-5.048,0-9.39,0-13.931,0c0-23.595,0-46.8,0-70.376
		c4.599,0,8.946,0,14.129,0c0,4.522,0,8.758,0,13.991c13.38-17.398,21.632-21.504,37.653-7.689
		C77.486,24.765,75.141,28.665,72.559,32.96z"/>
</g>
<g>
</g>
<g>
</g>
<g>
</g>
<g>
</g>
<g>
</g>
<g>
</g>
<g>
</g>
<g>
</g>
<g>
</g>
<g>
</g>
<g>
</g>
<g>
</g>
<g>
</g>
<g>
</g>
<g>
</g>
</svg>
