<?xml version="1.0" encoding="iso-8859-1"?>
<!-- Generator: Adobe Illustrator 16.0.0, SVG Export Plug-In . SVG Version: 6.00 Build 0)  -->
<!DOCTYPE svg PUBLIC "-//W3C//DTD SVG 1.1//EN" "http://www.w3.org/Graphics/SVG/1.1/DTD/svg11.dtd">
<svg version="1.1" id="Capa_1" xmlns="http://www.w3.org/2000/svg" xmlns:xlink="http://www.w3.org/1999/xlink" x="0px" y="0px"
	 width="97.75px" height="97.75px" viewBox="0 0 97.75 97.75" style="enable-background:new 0 0 97.75 97.75;" xml:space="preserve"
	>
<g>
	<g>
		<path d="M30.101,49.686c-0.847,0.014-1.687,0.088-2.486,0.391c-0.617,0.234-1.07,0.643-1.246,1.307
			c-0.483,1.825,0.834,3.131,2.683,2.637c1.458-0.389,1.986-1.539,2.25-2.875C31.582,49.727,31.531,49.668,30.101,49.686z"/>
		<path d="M48.875,0C21.882,0,0,21.882,0,48.875S21.882,97.75,48.875,97.75S97.75,75.868,97.75,48.875S75.868,0,48.875,0z
			 M19.97,44.482c-0.562,0.042-0.605,0.368-0.605,0.799c0.004,3.396,0.004,6.794,0.001,10.189c0,1.062-0.053,2.125-0.432,3.129
			c-0.647,1.711-1.902,2.846-3.629,3.34c-2.327,0.666-4.689,0.631-7.01-0.095c-0.906-0.282-1.625-0.864-2.091-1.708
			c-0.443-0.804-0.375-1.636,0.138-2.13c0.526-0.506,1.693-0.601,2.367-0.149c0.355,0.237,0.672,0.539,0.983,0.838
			c0.987,0.947,2.15,1.111,3.375,0.656c1.179-0.438,1.847-1.341,1.979-2.617c0.099-0.949,0.039-2.19,0.071-3.209
			c-0.063,0.192-0.176,0.408-0.195,0.449c-1.356,3.215-7.357,3.547-9.262-0.459c-1.605-3.375-1.722-6.766,0.353-10.007
			c1.753-2.742,6.739-3.191,8.79-0.145c0.066,0.097,0.129,0.197,0.201,0.29c0.084,0.11,0.179,0.229,0.338,0.158
			c0.118-0.053,0.134-0.174,0.152-0.296c0.237-1.526,0.488-1.738,2.048-1.739c0.765,0,1.532-0.01,2.297,0.004
			c0.904,0.015,1.414,0.479,1.447,1.285C21.318,43.86,20.836,44.417,19.97,44.482z M36.316,56.447
			c-1.162,0.193-2.347,0.203-3.506-0.02c-0.622-0.119-0.843-0.542-0.897-1.347c-0.013-0.208,0.066-0.502-0.172-0.572
			c-0.195-0.058-0.301,0.218-0.407,0.371c-1.581,2.291-4.085,2.414-6.367,1.695c-1.509-0.476-2.345-1.628-2.67-3.166
			c-0.45-2.132,0.381-4.259,2.188-5.216c1.19-0.629,2.539-0.775,3.877-0.819c0.783-0.025,1.57,0.016,2.354,0.062
			c0.523,0.031,0.699-0.199,0.697-0.69c-0.011-2.259-1.973-3.442-4.006-2.412c-0.507,0.257-0.758,0.711-1.012,1.183
			c-0.391,0.726-0.979,0.94-2.031,0.785c-0.664-0.098-1.147-0.513-1.284-1.125c-0.146-0.65,0.122-1.198,0.489-1.694
			c0.832-1.123,1.964-1.804,3.322-2.058c1.638-0.308,3.287-0.297,4.901,0.155c2.271,0.637,3.432,2.255,3.523,4.893
			c0.037,1.079,0.006,2.16,0.006,3.24c0.003,0,0.008,0,0.012,0c0,1.08,0.01,2.161-0.004,3.24c-0.008,0.548,0.113,0.89,0.775,0.902
			c0.646,0.011,1.08,0.537,1.133,1.211C37.29,55.756,36.965,56.34,36.316,56.447z M44.394,56.9
			c-0.566,0.053-1.141,0.072-1.704-0.025c-2.051-0.355-3.161-1.607-3.299-3.883l-0.041-7.713c0.006-0.524-0.152-0.788-0.736-0.802
			c-0.899-0.021-1.341-0.508-1.342-1.362c-0.002-0.852,0.437-1.307,1.361-1.329c0.504-0.012,0.715-0.227,0.712-0.71
			c-0.003-0.432,0.001-0.864,0.01-1.295c0.012-0.609,0.295-1.049,0.856-1.289c0.846-0.361,1.723-0.637,2.614-0.86
			c0.422-0.106,0.659,0.065,0.724,0.522c0.124,0.881,0.056,1.764,0.07,2.646c0.016,0.938,0.045,0.976,0.957,0.978
			c0.452,0.001,0.905-0.017,1.355,0.011c0.772,0.047,1.234,0.536,1.249,1.282c0.017,0.807-0.405,1.345-1.198,1.413l-1.706,0.005
			c-0.439-0.009-0.639,0.162-0.637,0.619L43.644,53c0.004,0.65,0.375,1.053,0.918,1.096c0.561,0.041,0.9-0.275,1.047-0.957
			c0.094-0.44,0.079-0.904,0.266-1.324c0.19-0.424,0.473-0.726,0.979-0.698c0.52,0.028,0.808,0.341,0.952,0.815
			C48.509,54.242,46.844,56.677,44.394,56.9z M64.674,56.52l-5.476,0.006c-0.689-0.014-1.077-0.531-1.114-1.28
			c-0.037-0.741,0.363-1.31,1.053-1.397c0.411-0.053,0.547-0.271,0.543-0.621c-0.035-2.354,0.12-4.711-0.102-7.06
			c-0.118-1.249-0.678-1.951-1.562-2.069c-1.143-0.152-2.062,0.422-2.516,1.586c-0.258,0.662-0.411,1.358-0.421,2.064l-0.006,5.359
			c-0.001,0.418,0.116,0.688,0.618,0.748c0.649,0.078,1.033,0.662,1.004,1.377c-0.029,0.752-0.411,1.277-1.1,1.291l-5.533-0.01
			c-0.766-0.021-1.197-0.6-1.191-1.346c0.006-0.766,0.477-1.289,1.273-1.323c0.502-0.021,0.647-0.274,0.648-0.706l0.004-14.017
			c0-0.803,0.018-1.028-0.895-1.093c-0.618-0.044-1.027-0.626-1.031-1.302c-0.004-0.674,0.343-1.21,0.973-1.277
			c1.406-0.15,2.824-0.167,4.227,0.016c0.668,0.087,1.031,0.611,1.041,1.451l-0.01,6.183c0,0.188,0.008,0.719,0.008,0.719
			s0.445-0.631,0.634-0.875c1.165-1.509,3.249-2.104,5.265-1.486c1.779,0.545,2.863,1.957,2.908,3.979
			c0.055,2.452,0.021,4.907,0.027,7.36c0.002,0.881,0.004,0.881,0.845,1.051c0.683,0.139,1.063,0.661,1.035,1.424
			C65.797,55.982,65.389,56.502,64.674,56.52z M79.215,50.188c-1.335,0.021-2.67,0.006-4.005,0.006v0.002
			c-1.315,0-2.631,0.017-3.946-0.008c-0.43-0.01-0.562,0.144-0.502,0.545c0.359,2.365,1.934,3.834,4.645,3.242
			c0.646-0.141,1.016-0.629,1.375-1.125c0.257-0.355,0.546-0.619,1.016-0.726c0.651-0.149,1.36-0.054,1.75,0.56
			c0.403,0.637,0.189,1.293-0.171,1.883c-0.554,0.906-1.394,1.494-2.364,1.854c-1.984,0.736-4.003,0.731-5.975-0.022
			c-1.569-0.6-2.721-1.731-3.354-3.285c-1.131-2.779-1.057-5.588,0.224-8.326c1.172-2.507,3.04-3.339,5.345-3.525
			c1.083-0.087,2.152,0.031,3.193,0.372c1.605,0.524,2.729,1.567,3.392,3.118c0.545,1.28,0.825,2.614,0.804,4.005
			C80.625,49.677,80.143,50.174,79.215,50.188z M91.907,45.266c-1.714-0.079-3.054,0.911-3.509,2.569
			c-0.231,0.845-0.226,1.709-0.225,2.573c0.001,0.824-0.002,1.648,0.001,2.474c0.002,0.879,0.038,0.913,0.917,0.953
			c1.051,0.048,1.619,0.907,1.256,1.89c-0.186,0.5-0.564,0.791-1.064,0.797l-6.065,0.004c-0.788-0.016-1.204-0.577-1.188-1.392
			c0.016-0.771,0.443-1.257,1.229-1.286c0.467-0.018,0.643-0.227,0.643-0.644c0.006-2.688-0.004-5.38-0.006-8.069
			c0-0.413-0.162-0.627-0.629-0.659c-0.865-0.059-1.274-0.59-1.232-1.46c0.037-0.775,0.503-1.215,1.354-1.231
			c0.922-0.018,1.846-0.021,2.768,0.001c1.011,0.025,1.455,0.489,1.48,1.502c0.01,0.45,0.001,0.9,0.001,1.351
			c0.025,0.001,0.052,0.002,0.077,0.004c0.184-0.407,0.332-0.833,0.555-1.217c0.784-1.348,1.934-2.133,3.526-2.176
			c0.563-0.015,1.013,0.241,1.229,0.75c0.379,0.888,0.363,1.796-0.062,2.675C92.75,45.106,92.396,45.288,91.907,45.266z"/>
		<path d="M9.724,45.518c-0.58,0.999-0.725,2.096-0.723,3.225c0.001,1.305,0.167,2.298,0.542,3.099
			c0.453,0.965,1.148,1.637,2.262,1.727c1.162,0.094,2.053-0.394,2.687-1.354c1.192-1.806,1.136-5.073-0.109-6.876
			C13.163,43.568,10.806,43.658,9.724,45.518z"/>
		<path d="M72.846,44.242c-1.119,0.392-2.148,1.922-2.093,3.078c0.019,0.366,0.231,0.398,0.513,0.397
			c0.842-0.003,1.684-0.001,2.525,0c0.861,0,1.725-0.007,2.585,0.003c0.374,0.004,0.528-0.146,0.519-0.526
			c-0.019-0.665-0.203-1.274-0.574-1.82C75.551,44.242,74.141,43.79,72.846,44.242z"/>
	</g>
</g>
<g>
</g>
<g>
</g>
<g>
</g>
<g>
</g>
<g>
</g>
<g>
</g>
<g>
</g>
<g>
</g>
<g>
</g>
<g>
</g>
<g>
</g>
<g>
</g>
<g>
</g>
<g>
</g>
<g>
</g>
</svg>
