<?xml version="1.0" encoding="iso-8859-1"?>
<!-- Generator: Adobe Illustrator 16.0.0, SVG Export Plug-In . SVG Version: 6.00 Build 0)  -->
<!DOCTYPE svg PUBLIC "-//W3C//DTD SVG 1.1//EN" "http://www.w3.org/Graphics/SVG/1.1/DTD/svg11.dtd">
<svg version="1.1" id="Capa_1" xmlns="http://www.w3.org/2000/svg" xmlns:xlink="http://www.w3.org/1999/xlink" x="0px" y="0px"
	 width="97.75px" height="97.75px" viewBox="0 0 97.75 97.75" style="enable-background:new 0 0 97.75 97.75;" xml:space="preserve"
	>
<g>
	<g>
		<path d="M48.875,0C21.883,0,0,21.883,0,48.875S21.883,97.75,48.875,97.75S97.75,75.867,97.75,48.875S75.867,0,48.875,0z
			 M78.66,50.998l-24.639,6.766l-1.172-2.105l-2.685-4.85l-5.992-10.792c4.271-0.729,7.955-0.919,11.149-0.733l5.585,8.922
			l13.386-3.244c-5.266-5.151-14.871-9.994-32.438-6.859c-0.388,0.069-0.767,0.142-1.141,0.216l7.059,13.072l3.805,7.045
			l-10.984,3.016l-13.656,3.753l-12.276,3.369L12.46,69.18c-0.848-1.313-1.532-2.713-2.041-4.188
			c-2.525-7.318-0.448-14.836,4.808-20.816c3.186-3.572,7.602-6.541,12.982-8.626l-3.293-6.89c2.927-0.935,6.091-1.634,9.458-2.085
			l3.458,6.408c0.372-0.063,0.744-0.123,1.121-0.18c10.402-1.571,20.562-1.662,29.943,0.536v0.001
			c9.564,1.887,18.342,6.068,22.391,10.756c0.816,0.946,1.535,1.832,2.117,2.844l-2.219,0.619L78.66,50.998z"/>
		<path d="M23.646,57.236l13.382-3.244l-5.984-12.516C23.398,45.573,22.437,51.725,23.646,57.236z"/>
	</g>
</g>
<g>
</g>
<g>
</g>
<g>
</g>
<g>
</g>
<g>
</g>
<g>
</g>
<g>
</g>
<g>
</g>
<g>
</g>
<g>
</g>
<g>
</g>
<g>
</g>
<g>
</g>
<g>
</g>
<g>
</g>
</svg>
