<?xml version="1.0" encoding="iso-8859-1"?>
<!-- Generator: Adobe Illustrator 16.0.0, SVG Export Plug-In . SVG Version: 6.00 Build 0)  -->
<!DOCTYPE svg PUBLIC "-//W3C//DTD SVG 1.1//EN" "http://www.w3.org/Graphics/SVG/1.1/DTD/svg11.dtd">
<svg version="1.1" id="Capa_1" xmlns="http://www.w3.org/2000/svg" xmlns:xlink="http://www.w3.org/1999/xlink" x="0px" y="0px"
	 width="97.75px" height="97.75px" viewBox="0 0 97.75 97.75" style="enable-background:new 0 0 97.75 97.75;" xml:space="preserve"
	>
<g>
	<path d="M48.875,0C21.883,0,0,21.883,0,48.875S21.883,97.75,48.875,97.75S97.75,75.867,97.75,48.875S75.867,0,48.875,0z
		 M66.703,17.533c0.816,0.228,6.064,3.519,8.881,9.812c2.25,5.096,3.301,10.104,2.762,15.615c-0.375,3.854-1.566,7.556-3.809,10.81
		c-1.221,1.773-4.91,5.498-5.674,4.096c-0.367-0.389,0.775-2.367,1.145-3.15c2.361-4.996,3.717-10.047,3.721-15.615
		c0.002-3.619-0.574-7.121-2.057-10.479c-1.59-3.602-3.027-7.039-5.281-10.305C66.227,18.117,65.697,17.253,66.703,17.533z
		 M38.414,13.906c0.729-0.433,6.734-1.954,13.23,0.353c5.237,1.893,9.586,4.592,13.201,8.788c2.526,2.933,4.381,6.351,5.188,10.22
		c0.439,2.107,0.584,7.348-0.959,6.934c-0.533-0.005-1.176-2.197-1.486-3.008c-1.984-5.156-4.699-9.626-8.725-13.474
		c-2.615-2.5-5.547-4.502-8.998-5.749c-3.703-1.339-7.182-2.671-11.102-3.298C38.508,14.655,37.518,14.441,38.414,13.906z
		 M16.971,31.159c0.412-1.548,2.723-5.884,9.631-9.065c5.072-2.303,10.322-3.163,15.842-2.684c3.855,0.335,7.57,1.488,10.848,3.693
		c1.785,1.202,3.526,3.003,3.92,5.371c-0.813,0.104-2.228-0.411-3.017-0.773c-5.021-2.308-9.995-3.688-15.563-3.633
		c-3.619,0.037-7.117,0.65-10.457,2.166c-3.586,1.628-7.008,3.104-10.25,5.392C17.527,31.963,16.688,32.224,16.971,31.159z
		 M14.615,58.03c-0.027,0.253-0.275,1.235-0.777,0.321c-0.408-0.742-1.721-6.797,0.813-13.21c2.074-5.17,4.92-9.42,9.24-12.887
		c3.02-2.424,6.498-4.157,10.395-4.83c2.121-0.365,4.623-0.268,6.543,1.172c-0.516,0.638-1.893,1.244-2.713,1.528
		c-5.223,1.802-9.773,4.243-13.76,8.132c-2.59,2.527-4.693,5.387-6.061,8.791C16.83,50.704,15.377,54.134,14.615,58.03z
		 M30.621,80.07c-0.813-0.24-6.008-3.616-8.723-9.953c-2.166-5.131-3.137-10.155-2.51-15.659c0.439-3.847,1.689-7.525,3.982-10.744
		c1.25-1.756,3.096-3.445,5.475-3.775c0.082,0.814-0.471,2.215-0.854,2.994c-2.441,4.957-3.955,9.895-4.049,15.461
		c-0.059,3.617,0.461,7.133,1.887,10.511c1.531,3.63,2.914,7.089,5.115,10.392C31.105,79.495,31.621,80.366,30.621,80.07z
		 M60.447,83.583c-0.709,0.464-6.646,2.231-13.234,0.192c-5.311-1.676-9.766-4.191-13.551-8.235
		c-2.646-2.826-4.639-6.164-5.604-9.996c-0.525-2.09-0.885-7.319,0.672-6.968c0.533-0.02,1.266,2.146,1.609,2.941
		c2.195,5.071,5.094,9.424,9.271,13.104c2.717,2.393,5.729,4.271,9.227,5.376c3.756,1.185,7.287,2.372,11.229,2.836
		C60.322,82.839,61.32,83.014,60.447,83.583z M81.869,65.057c-0.164,0.832-3.053,6.313-9.115,9.598
		c-4.912,2.626-9.824,4.051-15.363,3.93c-3.869-0.085-7.649-0.993-11.062-2.982c-1.861-1.086-5.854-4.482-4.514-5.352
		c0.361-0.395,2.42,0.596,3.23,0.906c5.16,1.977,10.297,2.947,15.851,2.533c3.606-0.271,7.059-1.111,10.295-2.842
		c3.471-1.856,6.789-3.55,9.877-6.043C81.25,64.626,82.072,64.033,81.869,65.057z M83.309,52.126
		c-1.934,5.224-4.668,9.547-8.893,13.131c-2.955,2.502-6.387,4.328-10.262,5.104c-2.111,0.422-7.354,0.522-6.926-1.017
		c0.008-0.532,2.207-1.157,3.018-1.462c5.174-1.941,9.664-4.622,13.545-8.613c2.521-2.595,4.547-5.512,5.822-8.951
		c1.369-3.693,2.729-7.16,3.387-11.074c0.02-0.255,0.242-1.244,0.77-0.344C84.197,39.631,85.67,45.647,83.309,52.126z"/>
</g>
<g>
</g>
<g>
</g>
<g>
</g>
<g>
</g>
<g>
</g>
<g>
</g>
<g>
</g>
<g>
</g>
<g>
</g>
<g>
</g>
<g>
</g>
<g>
</g>
<g>
</g>
<g>
</g>
<g>
</g>
</svg>
