<?xml version="1.0" encoding="iso-8859-1"?>
<!-- Generator: Adobe Illustrator 16.0.0, SVG Export Plug-In . SVG Version: 6.00 Build 0)  -->
<!DOCTYPE svg PUBLIC "-//W3C//DTD SVG 1.1//EN" "http://www.w3.org/Graphics/SVG/1.1/DTD/svg11.dtd">
<svg version="1.1" id="Capa_1" xmlns="http://www.w3.org/2000/svg" xmlns:xlink="http://www.w3.org/1999/xlink" x="0px" y="0px"
	 width="97.75px" height="97.75px" viewBox="0 0 97.75 97.75" style="enable-background:new 0 0 97.75 97.75;" xml:space="preserve"
	>
<g>
	<g>
		<path d="M52.168,55.236h-6.38c-0.672,0-1.216,0.545-1.216,1.216v6.382c0,0.672,0.544,1.216,1.216,1.216h6.38
			c0.672,0,1.217-0.544,1.217-1.216v-6.382C53.385,55.781,52.84,55.236,52.168,55.236z"/>
		<path d="M52.168,44.547h-6.38c-0.672,0-1.216,0.545-1.216,1.216v6.381c0,0.672,0.544,1.217,1.216,1.217h6.38
			c0.672,0,1.217-0.545,1.217-1.217v-6.381C53.385,45.092,52.84,44.547,52.168,44.547z"/>
		<path d="M40.487,33.864h-6.381c-0.671,0-1.215,0.545-1.215,1.217v6.381c0,0.672,0.544,1.216,1.215,1.216h6.381
			c0.672,0,1.217-0.544,1.217-1.216v-6.381C41.704,34.409,41.159,33.864,40.487,33.864z"/>
		<path d="M40.487,55.236h-6.381c-0.671,0-1.215,0.545-1.215,1.216v6.382c0,0.672,0.544,1.216,1.215,1.216h6.381
			c0.672,0,1.217-0.544,1.217-1.216v-6.382C41.704,55.781,41.159,55.236,40.487,55.236z"/>
		<path d="M52.168,33.864h-6.38c-0.672,0-1.216,0.545-1.216,1.217v6.381c0,0.672,0.544,1.216,1.216,1.216h6.38
			c0.672,0,1.217-0.544,1.217-1.216v-6.381C53.385,34.409,52.84,33.864,52.168,33.864z"/>
		<path d="M40.487,44.547h-6.381c-0.671,0-1.215,0.545-1.215,1.216v6.381c0,0.672,0.544,1.217,1.215,1.217h6.381
			c0.672,0,1.217-0.545,1.217-1.217v-6.381C41.704,45.092,41.159,44.547,40.487,44.547z"/>
		<path d="M63.876,33.864h-6.381c-0.67,0-1.216,0.545-1.216,1.217v6.381c0,0.672,0.546,1.216,1.216,1.216h6.382
			c0.672,0,1.216-0.544,1.216-1.216v-6.381C65.092,34.409,64.548,33.864,63.876,33.864z"/>
		<path d="M48.875,17.174c-17.48,0-31.702,14.222-31.702,31.702c0,17.479,14.222,31.702,31.702,31.702
			c17.48,0,31.702-14.223,31.702-31.702C80.577,31.396,66.355,17.174,48.875,17.174z M48.857,78.26
			c-16.228,0-29.384-13.156-29.384-29.384c0-16.229,13.156-29.385,29.384-29.385c16.229,0,29.384,13.155,29.384,29.385
			C78.241,65.104,65.085,78.26,48.857,78.26z"/>
		<path d="M63.876,55.236h-6.381c-0.67,0-1.216,0.545-1.216,1.216v6.382c0,0.672,0.546,1.216,1.216,1.216h6.382
			c0.672,0,1.216-0.544,1.216-1.216v-6.382C65.092,55.781,64.548,55.236,63.876,55.236z"/>
		<path d="M48.875,0C21.882,0,0,21.883,0,48.875S21.882,97.75,48.875,97.75S97.75,75.867,97.75,48.875S75.868,0,48.875,0z
			 M48.875,83.665c-19.215,0-34.79-15.575-34.79-34.789c0-19.215,15.576-34.791,34.79-34.791s34.789,15.576,34.789,34.791
			C83.665,68.09,68.089,83.665,48.875,83.665z"/>
		<path d="M63.876,44.547h-6.381c-0.67,0-1.216,0.545-1.216,1.216v6.381c0,0.672,0.546,1.217,1.216,1.217h6.382
			c0.672,0,1.216-0.545,1.216-1.217v-6.381C65.092,45.092,64.548,44.547,63.876,44.547z"/>
	</g>
</g>
<g>
</g>
<g>
</g>
<g>
</g>
<g>
</g>
<g>
</g>
<g>
</g>
<g>
</g>
<g>
</g>
<g>
</g>
<g>
</g>
<g>
</g>
<g>
</g>
<g>
</g>
<g>
</g>
<g>
</g>
</svg>
