<?xml version="1.0" encoding="iso-8859-1"?>
<!-- Generator: Adobe Illustrator 16.0.0, SVG Export Plug-In . SVG Version: 6.00 Build 0)  -->
<!DOCTYPE svg PUBLIC "-//W3C//DTD SVG 1.1//EN" "http://www.w3.org/Graphics/SVG/1.1/DTD/svg11.dtd">
<svg version="1.1" id="Capa_1" xmlns="http://www.w3.org/2000/svg" xmlns:xlink="http://www.w3.org/1999/xlink" x="0px" y="0px"
	 width="97.75px" height="97.75px" viewBox="0 0 97.75 97.75" style="enable-background:new 0 0 97.75 97.75;" xml:space="preserve"
	>
<g>
	<path d="M48.875,0C21.883,0,0,21.882,0,48.875S21.883,97.75,48.875,97.75S97.75,75.868,97.75,48.875S75.867,0,48.875,0z
		 M29.057,57.632c0,0.187-0.041,0.245-0.236,0.242c-0.986-0.009-1.977-0.008-2.963-0.002c-0.152,0.002-0.252-0.041-0.348-0.159
		c-1.723-2.118-3.449-4.232-5.174-6.347c-1.238-1.521-2.479-3.037-3.73-4.568c-0.061,0.096-0.035,0.19-0.035,0.278
		c0,3.504-0.002,7.006,0.006,10.508c0,0.23-0.053,0.294-0.289,0.293c-1.223-0.014-2.441-0.008-3.664-0.008
		c0-5.993,0-11.985,0-17.979c1.037,0.002,2.074,0.007,3.107,0.003c0.176,0,0.291,0.044,0.408,0.186
		c2.932,3.601,5.867,7.193,8.805,10.789c0.037,0.046,0.076,0.09,0.156,0.182c0-0.151,0-0.235,0-0.321
		c0-3.52,0.006-7.038-0.002-10.558c0-0.217,0.049-0.281,0.275-0.278c1.148,0.012,2.297,0.01,3.445,0.001
		c0.193-0.003,0.238,0.055,0.238,0.241C29.053,45.966,29.055,51.799,29.057,57.632z M38.885,57.875
		c-1.146-0.012-2.295-0.009-3.441-0.001c-0.168,0-0.215-0.04-0.215-0.213c0.006-5.853,0.006-11.707,0-17.561
		c0-0.15,0.031-0.209,0.197-0.208c1.172,0.007,2.344,0.01,3.516-0.001c0.219-0.002,0.201,0.108,0.201,0.252c0,2.916,0,5.831,0,8.746
		c0,2.905-0.002,5.812,0.006,8.719C39.148,57.814,39.105,57.878,38.885,57.875z M62.162,57.65c0,0.188-0.059,0.224-0.232,0.224
		c-0.988-0.008-1.975-0.008-2.963,0c-0.164,0.001-0.264-0.054-0.363-0.176c-2.307-2.832-4.615-5.661-6.928-8.491
		c-0.602-0.74-1.205-1.481-1.811-2.221c-0.045-0.054-0.078-0.12-0.191-0.155c0,0.142,0,0.261,0,0.381
		c0,3.462-0.002,6.923,0.006,10.386c0,0.221-0.055,0.279-0.277,0.277c-1.147-0.012-2.296-0.009-3.444-0.001
		c-0.176,0.001-0.227-0.041-0.227-0.226c0.004-5.84,0.004-11.68,0-17.52c-0.004-0.19,0.051-0.24,0.242-0.237
		c0.969,0.009,1.941,0.009,2.914,0c0.152-0.001,0.244,0.053,0.339,0.169c2.922,3.584,5.847,7.165,8.771,10.748
		c0.049,0.056,0.101,0.105,0.155,0.172c0.07-0.096,0.041-0.193,0.041-0.281c0.005-3.494,0.005-6.988,0.005-10.482
		c0-0.372-0.021-0.32,0.323-0.32c1.136-0.001,2.267,0.005,3.396-0.004c0.188-0.001,0.244,0.048,0.244,0.24
		C62.16,45.973,62.16,51.812,62.162,57.65z M84.963,55.71c-1.939,1.36-4.088,2.188-6.426,2.554c-0.295,0.047-1.682,0.274-3.529,0
		c-3.938-0.617-7.227-3.431-8.025-7.465c-0.639-3.215,0.185-6.065,2.455-8.45c1.646-1.732,3.701-2.663,6.064-2.94
		c1.32-0.13,2.592-0.004,3.223,0.141c2.322,0.454,4.387,1.457,6.24,2.914c0.111,0.089,0.111,0.143,0.012,0.237
		c-0.793,0.741-1.582,1.483-2.365,2.231c-0.106,0.104-0.166,0.057-0.258-0.017c-1.521-1.27-3.285-1.964-5.246-2.12
		c-2.721-0.218-5.102,1.399-5.907,4.01c-0.646,2.071-0.423,4.054,0.836,5.854c0.938,1.343,2.278,2.069,3.894,2.271
		c1.661,0.205,3.266-0.046,4.795-0.727c0.731-0.327,0.729-0.331,0.729-1.129c0-0.676-0.01-1.35,0.008-2.023
		c0.004-0.232-0.074-0.271-0.285-0.271c-1.611,0.008-3.229,0-4.842,0.008c-0.205,0.003-0.273-0.034-0.271-0.258
		c0.017-0.931,0.013-1.863,0-2.794c0-0.185,0.058-0.226,0.234-0.226c2.865,0.005,5.734,0.005,8.602,0c0.179,0,0.23,0.038,0.23,0.223
		c-0.008,2.556-0.006,5.109,0,7.664C85.127,55.54,85.082,55.626,84.963,55.71z"/>
</g>
<g>
</g>
<g>
</g>
<g>
</g>
<g>
</g>
<g>
</g>
<g>
</g>
<g>
</g>
<g>
</g>
<g>
</g>
<g>
</g>
<g>
</g>
<g>
</g>
<g>
</g>
<g>
</g>
<g>
</g>
</svg>
