<?xml version="1.0" encoding="iso-8859-1"?>
<!-- Generator: Adobe Illustrator 16.0.0, SVG Export Plug-In . SVG Version: 6.00 Build 0)  -->
<!DOCTYPE svg PUBLIC "-//W3C//DTD SVG 1.1//EN" "http://www.w3.org/Graphics/SVG/1.1/DTD/svg11.dtd">
<svg version="1.1" id="Capa_1" xmlns="http://www.w3.org/2000/svg" xmlns:xlink="http://www.w3.org/1999/xlink" x="0px" y="0px"
	 width="97.75px" height="97.75px" viewBox="0 0 97.75 97.75" style="enable-background:new 0 0 97.75 97.75;" xml:space="preserve"
	>
<g>
	<g>
		<path d="M48.875,0C21.883,0,0,21.882,0,48.875S21.883,97.75,48.875,97.75S97.75,75.868,97.75,48.875S75.867,0,48.875,0z
			 M83.329,42.486L67.062,57.561l0.41,3.15c-6.096,0.706-23.376-0.975-23.376-0.975L66.51,44.021
			c-13.242-3.739-36.081,0.003-36.989,0.149c1.079,0.034,18.569,0.586,26.104,1.969L33.369,62.438
			c0.683,0.033,20.975,2.188,34.197-0.352v0.004c1.982-0.374,2.728-0.581,4.707-1.363c-1.213,1.396-3.522,2.416-4.309,2.779
			l2.975,16.844c0.115,0.553-0.112,1.119-0.582,1.443c-0.467,0.324-1.088,0.348-1.576,0.202l-19.686-11.63L29.112,81.848
			c-0.229,0.137-0.488,0.205-0.745,0.205c-0.298,0-0.595-0.09-0.847-0.27c-0.469-0.335-0.689-0.913-0.559-1.469l4.041-22.756
			L14.584,42.502c-0.439-0.37-0.612-0.964-0.437-1.506c0.174-0.544,0.662-0.932,1.238-0.984l22.219-2.542l10.01-20.917
			c0.222-0.533,0.749-0.882,1.334-0.882c0.585,0,1.11,0.349,1.334,0.882l9.713,21.387l22.366,2.073
			c0.572,0.053,1.058,0.435,1.234,0.972C83.773,41.521,83.609,42.111,83.329,42.486z"/>
		<path d="M29.521,44.171c-0.036-0.001-0.057-0.001-0.057-0.001C29.355,44.195,29.381,44.193,29.521,44.171z"/>
	</g>
</g>
<g>
</g>
<g>
</g>
<g>
</g>
<g>
</g>
<g>
</g>
<g>
</g>
<g>
</g>
<g>
</g>
<g>
</g>
<g>
</g>
<g>
</g>
<g>
</g>
<g>
</g>
<g>
</g>
<g>
</g>
</svg>
