<?xml version="1.0" encoding="iso-8859-1"?>
<!-- Generator: Adobe Illustrator 16.0.0, SVG Export Plug-In . SVG Version: 6.00 Build 0)  -->
<!DOCTYPE svg PUBLIC "-//W3C//DTD SVG 1.1//EN" "http://www.w3.org/Graphics/SVG/1.1/DTD/svg11.dtd">
<svg version="1.1" id="Capa_1" xmlns="http://www.w3.org/2000/svg" xmlns:xlink="http://www.w3.org/1999/xlink" x="0px" y="0px"
	 width="97.75px" height="97.75px" viewBox="0 0 97.75 97.75" style="enable-background:new 0 0 97.75 97.75;" xml:space="preserve"
	>
<g>
	<path d="M45.408,36.991c-0.176,0.425-0.582,0.661-0.907,0.526c-0.325-0.134-0.446-0.588-0.27-1.013
		c0.176-0.425,0.582-0.661,0.907-0.526C45.463,36.112,45.583,36.565,45.408,36.991z M56.086,55.786
		c-0.236-0.599,0.072-1.763,0.072-1.763c-0.033,0.103-0.514,1.343-0.666,1.731c-1.293,0.835-12.309,7.733-17.717,4.379
		c-5.295-3.286-5.964-10.774-6.037-11.937l1.001-1.559c0.119-0.186,0.086-0.215-0.076-0.064c0,0-0.856,0.796-1.283,1.021
		c-0.426,0.225-1.056,0.188-1.056,0.188c-0.22-0.013-0.239,0.058-0.042,0.159l0.782,0.399c0.154,1.926,1.093,10.328,5.82,13.479
		c5.264,3.51,15.697-2.562,18.777-5.405c0.002,0,0.003,0.001,0.005,0.001l1.057,0.479c0.2,0.09,0.23,0.045,0.063-0.103
		C56.787,56.791,56.322,56.385,56.086,55.786z M54.576,39.983c-0.332-0.113-0.723,0.148-0.871,0.583s0.002,0.88,0.334,0.993
		c0.332,0.113,0.723-0.148,0.871-0.583S54.908,40.096,54.576,39.983z M56.73,46.726c-1.42,5.59-5.032,9.497-8.066,8.727
		c-2.382-0.607-3.693-3.924-3.461-8.026c-1.839,3.144-4.376,4.962-6.551,4.345c-3.01-0.855-4.175-6.044-2.599-11.596
		c1.575-5.549,5.292-9.353,8.305-8.498c2.263,0.643,3.481,3.739,3.278,7.594c1.733-2.915,4.09-4.593,6.174-4.063
		C56.844,35.979,58.15,41.138,56.73,46.726z M45.444,35.059c-1.128-0.312-2.501,1.104-3.07,3.16
		c-0.569,2.058-0.116,3.976,1.012,4.288c1.126,0.31,2.501-1.104,3.069-3.16C47.025,37.289,46.574,35.37,45.444,35.059z
		 M54.82,39.049c-1.146-0.238-2.424,1.262-2.86,3.352c-0.435,2.089,0.142,3.977,1.286,4.213c1.145,0.238,2.425-1.263,2.859-3.352
		C56.542,41.173,55.966,39.286,54.82,39.049z M97.75,48.875c0,26.992-21.883,48.875-48.875,48.875S0,75.867,0,48.875
		S21.883,0,48.875,0S97.75,21.883,97.75,48.875z M82.497,45.495c0,0,0.007-2.468-4.572-3.832c-4.198-1.251-15.948-3.09-15.948-3.09
		s-0.065-0.321-0.181-0.873c-0.594-2.893-2.476-12.147-2.787-14.95c-0.37-3.338-3.462-10.141-10.135-5.812
		c-8.647,5.605-13.847,11.003-14.588,12.484c-6.428-2.217-8.268-3.019-11.081-4.178c-3.521-1.451-7.831-0.89-7.956,4.055
		c-0.124,4.944,1.978,15.329,6.182,20.026c0,0,1.358,1.235,0.618,3.215c-0.741,1.978-3.032,10.703-1.854,17.925
		c1.134,6.956,3.709,8.776,6.057,8.776s4.821-1.483,12.238-7.293c0,0,1.238-1.73,2.474-0.493c1.237,1.234,11,10.754,21.138,10.754
		c0,0,4.162,0,3.955-5.068c-0.168-4.199-1.357-13.968-1.357-13.968c-0.033-0.293-0.307-1.185,0.863-1.606
		C67.145,60.995,82.87,53.159,82.497,45.495z"/>
</g>
<g>
</g>
<g>
</g>
<g>
</g>
<g>
</g>
<g>
</g>
<g>
</g>
<g>
</g>
<g>
</g>
<g>
</g>
<g>
</g>
<g>
</g>
<g>
</g>
<g>
</g>
<g>
</g>
<g>
</g>
</svg>
