<?xml version="1.0" encoding="iso-8859-1"?>
<!-- Generator: Adobe Illustrator 16.0.0, SVG Export Plug-In . SVG Version: 6.00 Build 0)  -->
<!DOCTYPE svg PUBLIC "-//W3C//DTD SVG 1.1//EN" "http://www.w3.org/Graphics/SVG/1.1/DTD/svg11.dtd">
<svg version="1.1" id="Capa_1" xmlns="http://www.w3.org/2000/svg" xmlns:xlink="http://www.w3.org/1999/xlink" x="0px" y="0px"
	 width="97.75px" height="97.75px" viewBox="0 0 97.75 97.75" style="enable-background:new 0 0 97.75 97.75;" xml:space="preserve"
	>
<g>
	<g>
		<path d="M73.23,53.693c-3.189-1.939-6.394-3.857-9.64-5.699c-1.836-1.042-3.211-0.221-3.268,1.874
			c-0.05,1.782-0.013,3.567-0.007,5.351c0,1.785-0.028,3.568,0.009,5.352c0.043,2.063,1.188,2.791,2.938,1.772
			c3.371-1.959,6.703-3.989,10.012-6.055C74.549,55.494,74.523,54.479,73.23,53.693z"/>
		<path d="M48.875,0C21.883,0,0,21.883,0,48.875S21.883,97.75,48.875,97.75S97.75,75.867,97.75,48.875S75.867,0,48.875,0z
			 M46.502,64.917c-7.869,10.449-25.418,9.021-31.461-2.649c-0.307-0.59-0.602-1.379-0.74-2.021c-0.346-1.592,0.529-2.84,2.354-2.84
			c1.826,0,8.693-0.011,8.693-0.011l0.516,0.969c2.406,3.152,6.943,3.928,10.162,1.628c2.16-1.542,3.135-4.22,2.41-6.616
			c-0.848-2.8-3.521-4.529-6.783-4.554l-11.535-0.005c-0.701-0.006-1.59-0.012-2.219-0.299c-1.072-0.485-1.287-1.646-0.707-2.763
			c2.951-5.683,5.781-11.434,8.91-17.019c1.416-2.529,4.17-2.936,6.893-2.934l22.146,0.025c-1.576,2.475-2.779,4.99-4.516,6.953
			c-0.893,1.01-1.867,1.756-3.314,1.877l-12.366,0.029L33.052,38.4c0.707,0.137,1.279,0.14,1.852,0.24
			c4.883,0.851,8.865,3.008,11.908,6.942c0.346,0.446,0.998,1.222,0.998,1.222s-0.527,0.734-0.766,1.153
			c-2.73,4.801-2.656,9.9-0.342,14.916c0.113,0.242,0.516,1.012,0.516,1.012S46.674,64.689,46.502,64.917z M76.492,68.357
			c-6.801,4.879-16.697,4.572-23.221-0.681c-6.542-5.265-8.129-13.819-3.74-20.962c3.699-6.021,7.604-11.918,11.438-17.857
			c1.047-1.623,2.723-2.969,4.645-3.053l11.07-0.013c-2.774,4.241-5.615,8.497-8.428,12.793c0.754,0.189,1.318,0.3,1.885,0.438
			c8.658,2.125,14.146,9.409,13.297,17.856C82.953,61.718,80.381,65.568,76.492,68.357z"/>
	</g>
</g>
<g>
</g>
<g>
</g>
<g>
</g>
<g>
</g>
<g>
</g>
<g>
</g>
<g>
</g>
<g>
</g>
<g>
</g>
<g>
</g>
<g>
</g>
<g>
</g>
<g>
</g>
<g>
</g>
<g>
</g>
</svg>
