<?xml version="1.0" encoding="iso-8859-1"?>
<!-- Generator: Adobe Illustrator 16.0.0, SVG Export Plug-In . SVG Version: 6.00 Build 0)  -->
<!DOCTYPE svg PUBLIC "-//W3C//DTD SVG 1.1//EN" "http://www.w3.org/Graphics/SVG/1.1/DTD/svg11.dtd">
<svg version="1.1" id="Capa_1" xmlns="http://www.w3.org/2000/svg" xmlns:xlink="http://www.w3.org/1999/xlink" x="0px" y="0px"
	 width="97.75px" height="97.75px" viewBox="0 0 97.75 97.75" style="enable-background:new 0 0 97.75 97.75;" xml:space="preserve"
	>
<g>
	<g>
		<path d="M19.236,39.941v8.366c0,0,2.77,0.225,2.77-1.897l0.002-5.2C21.994,39.613,19.236,39.941,19.236,39.941z"/>
		<polygon points="87.377,43.432 87.191,43.432 87.104,44.016 86.146,54.258 88.423,54.258 87.469,44.016 		"/>
		<polygon points="41.212,43.847 41.032,43.847 40.94,44.417 40.012,54.13 42.23,54.13 41.302,44.417 		"/>
		<path d="M48.875,0C21.883,0,0,21.883,0,48.875S21.883,97.75,48.875,97.75S97.75,75.867,97.75,48.875S75.867,0,48.875,0z
			 M14.498,43.319h-2.941v-1.22c0,0,0.125-2.131-1.783-2.131c-1.907,0-1.742,2.131-1.742,2.131l0.043,14.229
			c0,0-0.015,1.527,1.753,1.527c1.767,0,1.782-1.527,1.782-1.527v-2.75h2.888v2.312c-0.033,0.851-0.229,1.614-0.592,2.268
			c-0.297,0.564-0.757,1.104-1.415,1.527c-0.657,0.453-1.548,0.599-2.73,0.599c-1.186,0-2.11-0.123-2.768-0.576
			c-0.715-0.461-1.156-0.877-1.507-1.55c-0.362-0.652-0.429-1.417-0.465-2.268V42.1c0.036-0.821,0.231-1.75,0.594-2.4
			c0.295-0.567,0.726-1.133,1.382-1.558c0.657-0.425,1.578-0.6,2.764-0.6c1.183,0,2.073,0.175,2.73,0.6
			c0.658,0.425,1.118,0.99,1.415,1.558c0.362,0.65,0.559,1.579,0.592,2.4V43.319z M25.378,51.217c0,0.596-0.008,9.1-0.008,9.1
			h-3.301l0.004-7.938c0.021-0.066,0.509-1.691-2.778-1.395v9.332h-3.292V37.47h4.014c3.526,0,5.53,0.954,5.53,3.735l0.002,5.214
			c0,1.241-0.556,2.298-1.462,2.917C24.087,49.336,25.378,49.959,25.378,51.217z M34.684,40.695h-4.548v6.751h4.223v2.377h-4.223
			v7.628h4.548v2.83h-7.271V37.518h7.271V40.695z M43.279,60.288L42.792,56.5h-3.407l-0.427,3.79H35.81l3.333-22.674H43.1
			l3.328,22.672H43.279z M54.926,40.38h-3.133v19.927h-3.32V40.38h-3.137v-2.838h9.59V40.38z M65.193,40.38h-3.137v19.91h-3.32
			V40.38h-3.139v-2.838h9.596V40.38z M69.674,60.29h-3.125V37.487h3.125V60.29z M80.968,43.211h-2.938V41.99
			c0,0,0.123-1.967-1.786-1.967c-1.906,0-1.687,1.967-1.687,1.967l-0.011,14.338c0,0-0.017,1.527,1.752,1.527
			s1.784-1.527,1.784-1.527v-2.75h2.886v2.312c-0.032,0.851-0.231,1.614-0.59,2.268c-0.297,0.564-0.758,1.104-1.415,1.527
			c-0.658,0.453-1.547,0.599-2.732,0.599c-1.185,0-2.108-0.112-2.767-0.565c-0.712-0.462-1.153-0.888-1.509-1.561
			c-0.359-0.652-0.43-1.417-0.462-2.268V41.991c0.032-0.821,0.231-1.586,0.594-2.238c0.295-0.564,0.724-1.131,1.382-1.557
			c0.657-0.425,1.577-0.599,2.762-0.599c1.187,0,2.074,0.174,2.732,0.599c0.657,0.426,1.118,0.992,1.415,1.557
			c0.358,0.652,0.558,1.417,0.59,2.238V43.211z M88.995,56.654h-3.492l-0.433,3.599h-3.23l3.413-22.819h4.062l3.414,22.819H89.5
			L88.995,56.654z"/>
	</g>
</g>
<g>
</g>
<g>
</g>
<g>
</g>
<g>
</g>
<g>
</g>
<g>
</g>
<g>
</g>
<g>
</g>
<g>
</g>
<g>
</g>
<g>
</g>
<g>
</g>
<g>
</g>
<g>
</g>
<g>
</g>
</svg>
