<?xml version="1.0" encoding="iso-8859-1"?>
<!-- Generator: Adobe Illustrator 16.0.0, SVG Export Plug-In . SVG Version: 6.00 Build 0)  -->
<!DOCTYPE svg PUBLIC "-//W3C//DTD SVG 1.1//EN" "http://www.w3.org/Graphics/SVG/1.1/DTD/svg11.dtd">
<svg version="1.1" id="Capa_1" xmlns="http://www.w3.org/2000/svg" xmlns:xlink="http://www.w3.org/1999/xlink" x="0px" y="0px"
	 width="97.75px" height="97.75px" viewBox="0 0 97.75 97.75" style="enable-background:new 0 0 97.75 97.75;" xml:space="preserve"
	>
<g>
	<g>
		<path d="M48.999,28.991c-10.822,0-19.596,8.773-19.596,19.596c0,4.179,1.31,8.054,3.539,11.233l-3.1,7.524l8.167-2.532
			c3.135,2.127,6.917,3.369,10.989,3.369c10.822,0,19.598-8.772,19.598-19.596C68.596,37.763,59.822,28.991,48.999,28.991z
			 M48.999,59.881c-6.146,0-11.128-4.982-11.128-11.129c0-6.146,4.981-11.129,11.128-11.129c6.147,0,11.13,4.983,11.13,11.129
			C60.129,54.898,55.145,59.881,48.999,59.881z"/>
		<path d="M48.875,0C21.882,0,0,21.882,0,48.875S21.882,97.75,48.875,97.75S97.75,75.868,97.75,48.875S75.868,0,48.875,0z
			 M48.875,85.35c-20.145,0-36.476-16.33-36.476-36.475C12.399,28.73,28.73,12.4,48.875,12.4c20.145,0,36.475,16.331,36.475,36.475
			C85.35,69.02,69.02,85.35,48.875,85.35z"/>
	</g>
</g>
<g>
</g>
<g>
</g>
<g>
</g>
<g>
</g>
<g>
</g>
<g>
</g>
<g>
</g>
<g>
</g>
<g>
</g>
<g>
</g>
<g>
</g>
<g>
</g>
<g>
</g>
<g>
</g>
<g>
</g>
</svg>
