<?xml version="1.0" encoding="iso-8859-1"?>
<!-- Generator: Adobe Illustrator 16.0.0, SVG Export Plug-In . SVG Version: 6.00 Build 0)  -->
<!DOCTYPE svg PUBLIC "-//W3C//DTD SVG 1.1//EN" "http://www.w3.org/Graphics/SVG/1.1/DTD/svg11.dtd">
<svg version="1.1" id="Capa_1" xmlns="http://www.w3.org/2000/svg" xmlns:xlink="http://www.w3.org/1999/xlink" x="0px" y="0px"
	 width="97.75px" height="97.75px" viewBox="0 0 97.75 97.75" style="enable-background:new 0 0 97.75 97.75;" xml:space="preserve"
	>
<g>
	<path d="M48.875,0C21.882,0,0,21.882,0,48.875S21.882,97.75,48.875,97.75S97.75,75.868,97.75,48.875S75.868,0,48.875,0z
		 M66.643,68.607c-5.125,0-9.766-2.193-13.131-5.743L35.575,43.616c-1.162-1.062-2.674-1.704-4.328-1.704
		c-3.666,0-6.639,3.15-6.639,7.036c0,3.886,2.973,7.034,6.639,7.034s6.638-3.148,6.638-7.034c0-0.236-0.012-0.47-0.033-0.699
		l9.654,9.987c-3.146,6.178-9.309,10.375-16.398,10.375c-10.286,0-18.623-8.834-18.623-19.734c0-10.899,8.337-19.735,18.623-19.735
		c5.214,0,9.927,2.271,13.308,5.93L62.38,54.294c1.147,1.004,2.618,1.606,4.224,1.606c3.666,0,6.638-3.149,6.638-7.035
		c0-3.887-2.972-7.036-6.638-7.036c-3.668,0-6.64,3.149-6.64,7.036c0,0.244,0.013,0.488,0.036,0.727l-9.75-10.085
		c3.146-6.174,9.309-10.368,16.395-10.368c10.287,0,18.623,8.836,18.623,19.735C85.268,59.773,76.93,68.607,66.643,68.607z"/>
</g>
<g>
</g>
<g>
</g>
<g>
</g>
<g>
</g>
<g>
</g>
<g>
</g>
<g>
</g>
<g>
</g>
<g>
</g>
<g>
</g>
<g>
</g>
<g>
</g>
<g>
</g>
<g>
</g>
<g>
</g>
</svg>
