<?xml version="1.0" encoding="iso-8859-1"?>
<!-- Generator: Adobe Illustrator 16.0.0, SVG Export Plug-In . SVG Version: 6.00 Build 0)  -->
<!DOCTYPE svg PUBLIC "-//W3C//DTD SVG 1.1//EN" "http://www.w3.org/Graphics/SVG/1.1/DTD/svg11.dtd">
<svg version="1.1" id="Capa_1" xmlns="http://www.w3.org/2000/svg" xmlns:xlink="http://www.w3.org/1999/xlink" x="0px" y="0px"
	 width="97.75px" height="97.75px" viewBox="0 0 97.75 97.75" style="enable-background:new 0 0 97.75 97.75;" xml:space="preserve"
	>
<g>
	<g>
		<path d="M48.875,0C21.883,0,0,21.883,0,48.875S21.883,97.75,48.875,97.75S97.75,75.867,97.75,48.875S75.867,0,48.875,0z
			 M28.367,35.879c0.68-1.742,1.469-3.469,2.229-5.174c0.261-0.588,0.54-1.215,0.861-1.625c0.225-0.287,0.488-0.563,0.856-0.33
			c0.232,0.146,0.181,0.465,0.202,0.705c0.053,0.529,0.008,1.074,0.102,1.596c0.04,0.213,0.316,0.5,0.521,0.535
			c0.218,0.039,0.568-0.121,0.705-0.307c0.271-0.371,0.439-0.82,0.646-1.238c0.497-1.029,0.948-2.084,1.509-3.08
			c0.228-0.404,0.381-0.74,0.786-0.992c0.534-0.336,1.178-0.117,1.206,0.518c0.03,0.654-0.033,1.311-0.031,1.967
			c0.008,0.816,0.605,1.201,1.248,0.711c0.579-0.443,1.021-1.074,1.486-1.652c1.01-1.25,1.93-2.588,3.031-3.748
			c0.471-0.498,0.916-0.84,1.617-1.031c0.695-0.189,1.4,0.254,1.328,0.971c-0.053,0.527-0.236,1.039-0.378,1.553
			c-0.216,0.787-0.498,1.561-0.642,2.359c-0.057,0.313,0.086,0.809,0.317,0.986c0.229,0.176,0.751,0.186,1.024,0.043
			c0.484-0.252,0.895-0.658,1.307-1.033c1.109-1.006,2.148-2.096,3.325-3.01c0.532-0.414,0.771-0.619,1.476-0.699
			c0.5-0.055,1.268,0.238,1.174,0.686c-0.104,0.49-0.312,0.967-0.512,1.432c-0.388,0.898-0.865,1.758-1.181,2.678
			c-0.245,0.715,0.212,1.176,0.94,0.988c0.479-0.125,0.944-0.396,1.354-0.689c1.183-0.854,2.372-1.674,3.81-2.047
			c-0.043,0.012,1.227-0.314,1.633,0.184c0.449,0.545,0.006,1.082-0.289,1.535c-0.42,0.645-0.887,1.271-1.398,1.848
			c-0.758,0.854-0.857,1.689-0.383,2.756c1.344,3.016,1.164,5.918-0.957,8.561c-1.148,1.43-2.619,2.475-4.242,3.299
			c-2.949,1.5-6.086,2.354-9.381,2.639c-0.861,0.076-1.725,0.131-2.586,0.197c-3.149-0.076-6.203-0.533-9.028-2.004
			c-2.171-1.131-3.804-2.742-4.243-5.264C27.525,39.049,27.764,37.426,28.367,35.879z M31.838,58.971
			c-0.713,2.144-2.36,3.357-4.321,4.209c-2.467,1.07-5.071,1.287-7.733,1.174c-1.736-0.073-3.425-0.338-5.071-0.881
			c-0.304-0.1-0.601-0.223-0.961-0.356c0.47-1.564,0.906-3.029,1.356-4.533c2.311,1.836,4.936,2.547,7.808,2.34
			c0.706-0.053,1.446-0.205,2.078-0.508c0.358-0.17,0.674-0.713,0.745-1.133c0.092-0.543-0.482-0.685-0.908-0.771
			c-1.566-0.329-3.146-0.598-4.707-0.946c-1.056-0.236-2.07-0.638-2.777-1.508c-0.994-1.226-0.846-3.244,0.328-4.796
			c1.426-1.887,3.449-2.831,5.662-3.346c3.376-0.785,6.748-0.643,10.075,0.379c0.525,0.162,0.709,0.345,0.507,0.931
			c-0.413,1.202-0.734,2.438-1.056,3.532c-1.229-0.53-2.393-1.157-3.631-1.539c-1.67-0.518-3.397-0.555-5.085,0.035
			c-0.281,0.099-0.567,0.233-0.795,0.42c-0.671,0.543-0.558,1.39,0.27,1.607c1.231,0.327,2.504,0.504,3.749,0.782
			c0.881,0.199,1.786,0.369,2.612,0.711C31.895,55.562,32.496,56.996,31.838,58.971z M32.54,70.082
			c0.702-6.885,2.271-13.613,3.756-20.355c0.01-0.041,0.044-0.078,0.013-0.022c2.196,0.114,4.344,0.226,6.551,0.34
			c-0.201,0.627-0.435,1.388-0.691,2.142c-2,5.899-3.991,11.803-6.598,17.471C35.086,70.709,30.971,81.006,32.54,70.082z
			 M60.169,63.725c-0.138,0.453-0.312,0.627-0.806,0.617c-1.682-0.033-3.362-0.012-5.18-0.012c0.582-1.887,1.146-3.654,1.674-5.432
			c0.49-1.648,0.979-3.297,1.396-4.963c0.377-1.506-0.271-2.226-1.846-2.273c-1.239-0.039-2.4,0.197-3.534,0.682
			c-0.396,0.168-0.616,0.371-0.747,0.805c-1.052,3.494-2.146,6.976-3.209,10.466c-0.153,0.504-0.346,0.756-0.953,0.735
			c-1.657-0.057-3.318-0.02-5.08-0.02c0.48-1.561,0.943-3.059,1.404-4.555c0.984-3.203,1.979-6.402,2.941-9.613
			c0.144-0.479,0.382-0.73,0.843-0.887c3.631-1.234,7.374-1.822,11.196-1.783c1.186,0.012,2.396,0.328,3.543,0.676
			c1.25,0.375,1.789,1.373,1.871,2.67c0.106,1.734-0.578,3.289-1.055,4.889C61.837,58.4,60.971,61.053,60.169,63.725z
			 M81.584,59.867c-0.062,0.203-0.252,0.387-0.422,0.531c-2.505,2.131-5.448,3.271-8.66,3.768c-2.016,0.312-4.027,0.438-6.037-0.121
			c-2.289-0.637-3.244-2.205-2.666-4.49c0.59-2.33,2.17-3.76,4.312-4.617c2.547-1.02,5.24-1.229,8.051-1.33
			c-0.282,0.947-0.525,1.828-0.814,2.695c-0.047,0.135-0.281,0.264-0.449,0.295c-1.024,0.201-2.071,0.313-3.082,0.572
			c-0.992,0.256-1.744,0.846-2.018,1.926c-0.224,0.891,0.034,1.469,0.934,1.689c1.795,0.441,3.467,0.023,5.033-0.883
			c0.151-0.09,0.25-0.324,0.309-0.51c0.613-2,1.222-4,1.811-6.009c0.326-1.108-0.004-1.856-1.133-2.043
			c-1.391-0.227-2.833-0.366-4.23-0.26c-1.631,0.127-3.239,0.562-4.908,0.869c0.34-1.078,0.674-2.211,1.062-3.324
			c0.07-0.199,0.352-0.418,0.567-0.459c3.223-0.625,6.471-0.932,9.748-0.551c0.894,0.104,1.797,0.303,2.644,0.604
			c1.92,0.687,2.747,2.207,2.203,4.238C83.166,54.951,82.354,57.404,81.584,59.867z"/>
		<path d="M39.192,42.889c0.81,0.018,1.578-0.635,1.812-1.441c0.025-0.115,0.042-0.232,0.045-0.352
			c0.014-0.813-0.604-1.48-1.371-1.48c-0.795-0.002-1.578,0.707-1.789,1.525c-0.021,0.105-0.036,0.213-0.035,0.32
			C37.854,42.264,38.424,42.871,39.192,42.889z"/>
		<path d="M33.119,43.855c0.852,0.703,1.869,1.268,2.898,1.674c2.268,0.889,4.653,1.031,7.06,0.721
			c2.885-0.373,5.587-1.244,7.817-3.197c1.573-1.381,2.614-3.041,2.17-5.248c-0.355-1.77-1.597-2.871-3.107-3.693
			c-1.546-0.842-5.887-2.164-11.155-0.803c-2.493,0.652-4.726,1.822-6.349,3.918C30.743,39.432,30.968,42.084,33.119,43.855z
			 M36.005,39.898c0.003-0.012,0.008-0.023,0.011-0.035c0.006-0.025,0.005-0.051,0.011-0.076c0.696-3.064,4.346-5.111,7.306-4.102
			c1.656,0.564,2.701,2.041,2.691,3.799c-0.004,0.688-0.158,1.348-0.428,1.957c-1.09,2.635-4.336,4.359-7.102,3.344
			C36.509,44.055,35.506,42.086,36.005,39.898z"/>
		<path d="M41.549,40.189c0.201,0,0.369-0.119,0.453-0.285c0.01-0.039,0.023-0.076,0.023-0.115c0-0.283-0.229-0.512-0.51-0.512
			c-0.203,0-0.374,0.121-0.457,0.291c-0.008,0.037-0.021,0.07-0.021,0.109C41.037,39.959,41.265,40.189,41.549,40.189z"/>
	</g>
</g>
<g>
</g>
<g>
</g>
<g>
</g>
<g>
</g>
<g>
</g>
<g>
</g>
<g>
</g>
<g>
</g>
<g>
</g>
<g>
</g>
<g>
</g>
<g>
</g>
<g>
</g>
<g>
</g>
<g>
</g>
</svg>
