<?xml version="1.0" encoding="iso-8859-1"?>
<!-- Generator: Adobe Illustrator 16.0.0, SVG Export Plug-In . SVG Version: 6.00 Build 0)  -->
<!DOCTYPE svg PUBLIC "-//W3C//DTD SVG 1.1//EN" "http://www.w3.org/Graphics/SVG/1.1/DTD/svg11.dtd">
<svg version="1.1" id="Capa_1" xmlns="http://www.w3.org/2000/svg" xmlns:xlink="http://www.w3.org/1999/xlink" x="0px" y="0px"
	 width="97.75px" height="97.75px" viewBox="0 0 97.75 97.75" style="enable-background:new 0 0 97.75 97.75;" xml:space="preserve"
	>
<g>
	<g>
		<path d="M55.396,56.752c0.369,0,0.623,0.236,0.754,0.7l0.006,0.016c0.004,0.015,0.008,0.03,0.013,0.043
			c0.364,1.019,0.911,1.019,1.091,1.019c0.24,0,0.52-0.074,0.83-0.221c0.652-0.306,1.21-0.769,1.67-1.181l0.032-0.028
			c1.209-1.082,1.978-1.877,1.653-3.019c-0.514-1.808,0.197-2.958,0.97-3.981c0.976-1.291,0.979-2.574,0.01-3.812
			c-0.206-0.263-0.262-0.533-0.288-0.762c-0.301-2.56-1.646-4.72-4.005-6.419c-0.933-0.672-1.463-1.327-1.89-2.335
			c-0.84-1.978-2.126-2.938-3.934-2.938h-0.08c-0.547,0-0.842-0.316-1.035-0.525l-0.037-0.04c-0.342-0.365-0.609-0.547-0.893-0.61
			c-0.369-0.082-0.742-0.122-1.142-0.122c-1.195,0-2.403,0.375-3.469,0.706c-0.086,0.027-0.17,0.055-0.254,0.082
			c-0.406,0.134-0.826,0.272-1.329,0.277c-0.726,0.006-1.063,0.152-1.286,0.556c-0.299,0.537-0.837,0.775-1.193,0.933
			c-0.92,0.406-1.379,0.87-1.537,1.553c-0.098,0.421-0.359,0.633-0.603,0.785c-1.03,0.645-1.761,1.59-2.233,2.896
			c-0.146,0.404-0.332,0.704-0.603,0.971c-0.98,0.97-1.667,2.229-2.038,3.742c-0.138,0.564-0.11,0.86,0.102,1.092
			c0.434,0.474,0.184,1.002,0.09,1.201l-0.016,0.034c-0.33,0.71-0.61,1.293-0.88,1.834c-0.2,0.4-0.144,0.748,0.181,1.123
			c0.254,0.297,0.471,0.492,0.682,0.619c0.248,0.148,0.584,0.396,0.628,0.818c0.049,0.475-0.319,0.812-0.476,0.958l-0.042,0.038
			c-0.46,0.421-0.737,0.7-0.687,1.115c0.141,1.125,0.617,1.804,1.5,2.138c0.416,0.157,0.889,0.369,1.213,0.898
			c0.665,1.081,1.607,1.653,2.723,1.653c0.475,0,0.971-0.104,1.477-0.312c0.313-0.128,0.573-0.188,0.822-0.188
			c0.369,0,0.714,0.135,1.023,0.402c0.097,0.083,0.195,0.129,0.276,0.129c0.068,0,0.135-0.031,0.204-0.098
			c0.712-0.676,1.557-1.004,2.582-1.004c0.114,0,0.229,0.004,0.342,0.011c-0.262-1.511-0.606-3.095-1.643-4.419l-0.581-0.74
			l0.045-0.008l0.879-0.166c0.168-0.031,0.333-0.061,0.495-0.089l0.084-0.015c0.407-0.071,0.827-0.146,1.224-0.244
			c0.147-0.037,0.269-0.055,0.382-0.055c0.347,0,0.788,0.157,0.918,0.907c0.138,0.794,0.402,1.443,0.809,1.983l0.282-0.438
			c0.665-1.033,1.354-2.101,2.188-3.062c0.031-0.035,0.062-0.08,0.093-0.127l0.021-0.026c0.164-0.242,0.439-0.646,0.937-0.646
			c0.071,0,0.146,0.01,0.219,0.027c0.653,0.17,0.767,0.776,0.826,1.104c0.019,0.094,0.036,0.188,0.058,0.24
			c0.154,0.402-0.037,0.717-0.131,0.867l-0.008,0.014c-0.01,0.015-0.02,0.028-0.025,0.043c-0.233,0.516-0.467,1.016-0.723,1.57
			l-0.021,0.047c-0.363,0.785-0.737,1.597-1.098,2.398c-0.16,0.364-0.336,0.798-0.404,1.27c0.229,0.021,0.446,0.031,0.662,0.031
			c1.182,0,2.168-0.322,3.014-0.988C55.014,56.826,55.201,56.752,55.396,56.752z"/>
		<path d="M48.875,0C21.883,0,0,21.882,0,48.875S21.883,97.75,48.875,97.75S97.75,75.868,97.75,48.875S75.867,0,48.875,0z
			 M24.036,68.941c-4.971-4.021-8.115-9.205-9.262-15.508c-1.348-7.421,0.346-14.181,4.904-20.155
			c4.379-5.735,10.297-8.952,17.379-10.088c2.607-0.418,5.229-0.544,7.861-0.232c0.084,0.01,0.164,0.033,0.328,0.067
			c-11.348,0.546-21.434,9.981-23.25,21.778c-1.128,7.328,0.591,14.014,5.063,19.914c4.475,5.903,10.442,9.293,17.846,10.099
			C37.198,75.499,30.13,73.874,24.036,68.941z M51.268,72.075c-0.746-1.601-0.931-3.341-1.072-5.075
			c-0.229-2.76-0.135-5.516,0.244-8.261c0.014-0.095,0.058-0.185,0.092-0.274l-0.016-0.002l-0.002-0.023
			c-0.021-0.764,0.234-1.448,0.488-2.017c0.366-0.821,0.751-1.651,1.122-2.454c0.235-0.513,0.481-1.043,0.72-1.566
			c0.02-0.041,0.045-0.082,0.069-0.121c0.065-0.11,0.129-0.213,0.082-0.338c-0.041-0.106-0.065-0.229-0.088-0.348
			c-0.054-0.287-0.103-0.559-0.388-0.632c-0.022-0.006-0.047-0.009-0.068-0.009c-0.182,0-0.312,0.195-0.442,0.385
			c-0.053,0.077-0.102,0.148-0.153,0.209c-0.808,0.93-1.482,1.979-2.137,2.994c-0.111,0.173-0.223,0.346-0.335,0.518
			c-0.151,0.236-0.29,0.346-0.432,0.346c-0.132,0-0.266-0.096-0.433-0.307c-0.501-0.634-0.824-1.395-0.985-2.324
			c-0.053-0.303-0.139-0.411-0.328-0.411c-0.063,0-0.141,0.012-0.235,0.036c-0.413,0.103-0.827,0.176-1.267,0.252
			c-0.174,0.031-0.35,0.062-0.527,0.096c1.232,1.596,1.547,3.509,1.852,5.359l0.016,0.092l-0.029-0.006
			c0.621,3.949,0.742,7.895-0.112,11.828c-0.167,0.769-0.431,1.506-0.826,2.188c-0.683,1.179-1.465,1.535-2.774,1.224
			c-7.396-1.752-12.999-5.935-16.611-12.611c-5.471-10.118-3.442-22.443,4.937-30.316c4.548-4.272,9.979-6.524,16.232-6.807
			c12.33-0.559,23.304,8.021,25.77,20.456c0.495,2.494,0.601,5.028,0.335,7.573c-1.132,10.891-9.689,19.399-19.184,21.697
			c-0.211,0.051-0.428,0.077-0.637,0.137C52.354,74.07,51.786,73.188,51.268,72.075z M63.542,73.99
			c-3.507,0.857-7.416,1.172-10.629,0.809c7.323-0.788,13.221-4.143,17.698-9.931c4.474-5.778,6.207-12.382,5.231-19.581
			c-1.56-11.508-10.819-21.123-22.729-22.266c0.123-0.162,0.302-0.153,0.471-0.161c7.408-0.347,14.27,1.233,20.169,5.936
			c5.394,4.301,8.588,9.921,9.46,16.77C84.893,58.751,76.506,70.818,63.542,73.99z"/>
	</g>
</g>
<g>
</g>
<g>
</g>
<g>
</g>
<g>
</g>
<g>
</g>
<g>
</g>
<g>
</g>
<g>
</g>
<g>
</g>
<g>
</g>
<g>
</g>
<g>
</g>
<g>
</g>
<g>
</g>
<g>
</g>
</svg>
