<?xml version="1.0" encoding="iso-8859-1"?>
<!-- Generator: Adobe Illustrator 16.0.0, SVG Export Plug-In . SVG Version: 6.00 Build 0)  -->
<!DOCTYPE svg PUBLIC "-//W3C//DTD SVG 1.1//EN" "http://www.w3.org/Graphics/SVG/1.1/DTD/svg11.dtd">
<svg version="1.1" id="Capa_1" xmlns="http://www.w3.org/2000/svg" xmlns:xlink="http://www.w3.org/1999/xlink" x="0px" y="0px"
	 width="97.75px" height="97.75px" viewBox="0 0 97.75 97.75" style="enable-background:new 0 0 97.75 97.75;" xml:space="preserve"
	>
<g>
	<g>
		<path d="M48.875,0C21.882,0,0,21.883,0,48.875S21.882,97.75,48.875,97.75S97.75,75.867,97.75,48.875S75.868,0,48.875,0z
			 M70.133,67.555C54.951,84.832,33.126,90.473,21.386,80.159c-11.74-10.318-8.951-32.688,6.23-49.965
			C42.8,12.917,64.624,7.276,76.363,17.591C88.104,27.907,85.314,50.277,70.133,67.555z"/>
		<path d="M63.68,26.931c-6.666-5.836-20.706-2.711-29.683,7.539c-8.977,10.249-10.85,23.291-4.184,29.128
			c6.664,5.838,19.344,2.256,28.319-7.992C67.109,45.354,70.344,32.769,63.68,26.931z M49.652,47.592
			c-2.724,3.779-7.062,5.307-9.688,3.412c-2.627-1.895-2.547-6.49,0.176-10.271c2.724-3.776,7.063-5.302,9.688-3.408
			C52.455,39.218,52.375,43.813,49.652,47.592z"/>
	</g>
</g>
<g>
</g>
<g>
</g>
<g>
</g>
<g>
</g>
<g>
</g>
<g>
</g>
<g>
</g>
<g>
</g>
<g>
</g>
<g>
</g>
<g>
</g>
<g>
</g>
<g>
</g>
<g>
</g>
<g>
</g>
</svg>
