<?xml version="1.0" encoding="iso-8859-1"?>
<!-- Generator: Adobe Illustrator 16.0.0, SVG Export Plug-In . SVG Version: 6.00 Build 0)  -->
<!DOCTYPE svg PUBLIC "-//W3C//DTD SVG 1.1//EN" "http://www.w3.org/Graphics/SVG/1.1/DTD/svg11.dtd">
<svg version="1.1" id="Capa_1" xmlns="http://www.w3.org/2000/svg" xmlns:xlink="http://www.w3.org/1999/xlink" x="0px" y="0px"
	 width="97.75px" height="97.75px" viewBox="0 0 97.75 97.75" style="enable-background:new 0 0 97.75 97.75;" xml:space="preserve"
	>
<g>
	<g>
		<path d="M65.005,38.221c-4.136-3.01-9.44-4.271-14.5-3.681c-3.03,0.352-5.999,1.333-8.586,2.961
			c-2.445,1.498-4.465,3.593-6.182,5.869c-5.332,7.407-4.988,18.348,0.764,25.43c1.629,1.986,3.558,3.744,5.75,5.089
			c4.156,2.506,9.22,3.471,14.005,2.678c4.148-0.646,8.082-2.613,11.049-5.588c3.389-3.221,5.65-7.601,6.311-12.229
			c0.65-3.88,0.061-7.918-1.422-11.545C70.672,43.631,68.102,40.543,65.005,38.221z M46.831,55.988
			c-0.282,2.039-1.472,4.052-3.454,4.826c-1.968,0.927-4.376,0.515-6.072-0.787c-1.255-0.963-1.906-2.496-2.18-4.018
			c-0.227-1.382,0.186-2.801,0.861-4.003c1.031-1.786,3.152-2.687,5.147-2.727c1.757,0.081,3.567,0.858,4.584,2.343
			C46.587,52.876,47.048,54.464,46.831,55.988z"/>
		<path d="M48.875,0C21.882,0,0,21.882,0,48.875S21.882,97.75,48.875,97.75S97.75,75.868,97.75,48.875S75.868,0,48.875,0z
			 M75.746,73.673c-4.296,5.599-10.684,9.543-17.645,10.761c-5.687,1.157-11.652,0.243-16.954-2.014
			c-6.299-2.82-11.514-7.969-14.44-14.215c-1.653-3.611-2.545-7.561-2.706-11.521c0.031-7.027-0.098-14.049-0.059-21.074
			c0.039-6.487-0.111-12.974-0.051-19.461c0.021-1.209,0.723-2.408,1.85-2.896c1.339-0.572,2.916-0.583,4.265-0.04
			c1.167,0.463,1.929,1.7,1.919,2.94c0.023,6.385-0.023,12.771,0.028,19.153c2.954-3.102,6.55-5.591,10.529-7.184
			c7.869-2.913,17.058-2.484,24.382,1.729c6.41,3.676,11.537,9.744,13.627,16.879c0.84,2.778,1.291,5.672,1.381,8.571
			C81.801,61.854,79.798,68.475,75.746,73.673z"/>
	</g>
</g>
<g>
</g>
<g>
</g>
<g>
</g>
<g>
</g>
<g>
</g>
<g>
</g>
<g>
</g>
<g>
</g>
<g>
</g>
<g>
</g>
<g>
</g>
<g>
</g>
<g>
</g>
<g>
</g>
<g>
</g>
</svg>
