<?xml version="1.0" encoding="iso-8859-1"?>
<!-- Generator: Adobe Illustrator 16.0.0, SVG Export Plug-In . SVG Version: 6.00 Build 0)  -->
<!DOCTYPE svg PUBLIC "-//W3C//DTD SVG 1.1//EN" "http://www.w3.org/Graphics/SVG/1.1/DTD/svg11.dtd">
<svg version="1.1" id="Capa_1" xmlns="http://www.w3.org/2000/svg" xmlns:xlink="http://www.w3.org/1999/xlink" x="0px" y="0px"
	 width="97.75px" height="97.75px" viewBox="0 0 97.75 97.75" style="enable-background:new 0 0 97.75 97.75;" xml:space="preserve"
	>
<g>
	<g>
		<path d="M75.461,39.54l1.441-2.592c-4.4,0-8.598,0-12.93,0l1.381,2.582C65.354,39.53,72.496,39.581,75.461,39.54z"/>
		<path d="M48.875,0C21.883,0,0,21.883,0,48.875S21.883,97.75,48.875,97.75S97.75,75.867,97.75,48.875S75.867,0,48.875,0z
			 M46.54,30.942c-1.5,2.807-2.929,5.476-4.479,8.375c-1.568-2.875-3.03-5.557-4.567-8.375
			C40.543,30.942,43.433,30.942,46.54,30.942z M16.165,46.91c0,0-0.021,13.679-0.021,19.984c0,0.459,0,0.918,0,1.545
			c-1.892,0-3.614,0-5.514,0c0-4.222,0-13.031,0-13.031s-1.281,1.373-1.884,2.025c-1.12-0.992-2.21-1.959-3.396-3.008
			c6.134-7.571,7.892-15.202,7.892-15.202l-0.523,0.585c-1.188,1.42-2.44,2.879-3.851,4.212c-1.188-1.565-2.018-2.545-2.972-3.807
			c3.274-3.067,5.304-6.885,6.952-11.102c1.726,0.653,3.397,1.289,5.333,2.025c-1.563,3.195-2.851,5.47-4.774,7.969
			c1.605,0.347,3.413,0.754,5.328,1.166c-0.725,1.881-2.06,5.396-2.06,5.396L16.165,46.91z M48.021,44.08l-2.771-0.004l0.011,17.007
			c0,5.781-3.525,7.784-8.633,7.319c-2.316-0.209-2.32-0.234-2.32-0.234c0-0.458,0-3.182,0-3.657
			c-3.44,0.685-6.749,1.357-10.064,1.994c-1.286,0.246-5.115,0.835-5.115,0.835s-1.445-3.495-1.687-5.447
			c2.322-0.228,4.543-0.439,6.849-0.664c0-1.896,0-3.688,0-5.647c-1.646,0-3.279,0-4.999,0c0-1.579,0-2.997,0-4.57
			c1.648,0,3.277,0,4.999,0c0-1.309,0-2.463,0-3.746c-1.89,0-3.737,0-5.682,0c0-1.575,0-3.029,0-4.656c1.872,0,3.754,0,5.702,0
			c0-1.291,0-2.413,0-3.693c-1.648,0-3.276,0-5.021,0c0-1.6,0-3.051,0-4.644c1.636,0,3.271,0,5.029,0c0-1.555,0-2.976,0-4.507
			c1.911,0,3.699,0,5.63,0c0,1.466,0,2.885,0,4.445c1.766,0,3.395,0,5.104,0c0,1.6,0,3.054,0,4.656c-1.699,0-3.329,0-5.033,0
			c0,1.269,0,2.392,0,3.667c1.645,0,3.272,0,5.006,0c0,1.604,0,3.059,0,4.658c-1.617,0-3.247,0-4.98,0c0,1.292,0,2.442,0,3.736
			c1.66,0,3.293,0,5.032,0c0,1.585,0,3.031,0,4.628c-1.672,0-3.307,0-5.038,0c0,1.639,0,3.131,0,4.848
			c1.771-0.377,3.479-0.743,5.369-1.146c0,1.37,0,2.65,0,4.109c0.704,0,1.24,0.022,1.776-0.005c1.948-0.1,2.466-0.633,2.47-2.572
			c0.011-5.168,0.011-10.336,0.011-15.504c0-0.335-0.028-0.671-0.052-1.2c-1.177,0-2.33,0-3.553,0c0-1.608,0-3.075,0-4.602
			c3.966,0,7.954,0,11.96,0C48.021,40.947,48.021,44.08,48.021,44.08z M52.096,39.615c2.562,0,5.528,0,8.111,0l-1.663-2.768h-5.116
			c0-1.563,0-2.979,0-4.568c4.881,0,9.727,0,14.696,0c-0.063-0.799-0.114-1.421-0.172-2.128h5.364l0.281,2.096l14.157-0.002v4.603
			c-1.196,0-5.504,0-5.504,0l-1.409,2.631h4.821v-1.941c2.265,1.495,4.399,2.904,6.737,4.447c-2.262,1.525-4.408,2.973-6.727,4.533
			l-0.015-2.221c-9.582,0-19.284,0-28.962,0l-0.002,2.284h-4.602v-6.966H52.096z M87.951,52.145L67.423,52.15l-0.134,2.08
			c0,0,12.148,0,18.117,0l0.002,8.754c-0.4,3.342-3.278,5.429-7.301,5.637c-2.162,0.111-5.222-0.357-7.183-0.919l-0.002-4.629
			c1.72,0.122,3.208,0.27,4.769,0.323c0.711,0.027,1.441-0.035,2.139-0.184c1.33-0.281,1.957-1.152,1.957-1.152
			s0.015-0.981,0.018-1.291c0.006-0.545,0-1.218,0-1.836l-13.951-0.01l-0.519,0.895c-2.677,4.68-6.874,7.183-12.136,8.388
			c-0.434-1.487-0.85-2.894-1.287-4.392c5.705-1.754,9.746-4.907,9.893-11.582c-3.24,0-6.39,0-9.632,0c0-1.604,0-3.057,0-4.666
			c5.3,0,10.567,0,15.945,0c-0.069-0.742-0.12-1.316-0.177-1.937c1.781,0,3.541,0,5.35,0l0.366,1.96l14.294-0.019V52.145z"/>
	</g>
</g>
<g>
</g>
<g>
</g>
<g>
</g>
<g>
</g>
<g>
</g>
<g>
</g>
<g>
</g>
<g>
</g>
<g>
</g>
<g>
</g>
<g>
</g>
<g>
</g>
<g>
</g>
<g>
</g>
<g>
</g>
</svg>
