<?xml version="1.0" encoding="iso-8859-1"?>
<!-- Generator: Adobe Illustrator 16.0.0, SVG Export Plug-In . SVG Version: 6.00 Build 0)  -->
<!DOCTYPE svg PUBLIC "-//W3C//DTD SVG 1.1//EN" "http://www.w3.org/Graphics/SVG/1.1/DTD/svg11.dtd">
<svg version="1.1" id="Capa_1" xmlns="http://www.w3.org/2000/svg" xmlns:xlink="http://www.w3.org/1999/xlink" x="0px" y="0px"
	 width="97.75px" height="97.75px" viewBox="0 0 97.75 97.75" style="enable-background:new 0 0 97.75 97.75;" xml:space="preserve"
	>
<g>
	<g>
		<path d="M46.321,44.788c0.637,0,1.116-0.314,1.116-0.944v-1.259c0-0.631-0.479-0.945-1.116-0.945c-0.479,0-0.479,0-0.479,0.631
			v1.89C45.843,44.788,45.843,44.788,46.321,44.788z"/>
		<path d="M33.956,47.305c0.96,0,0.797,0,0.797-0.63v-4.404c0-0.316-0.318-0.631-0.797-0.631s-0.797,0.314-0.797,0.631v4.404
			C33.159,47.305,32.999,47.305,33.956,47.305z"/>
		<path d="M46.321,51.712c0.637,0,1.116-0.313,1.116-0.944V49.51c0-0.63-0.479-0.945-1.116-0.945c-0.479,0-0.479,0-0.479,0.631
			v1.888C45.843,51.712,45.843,51.712,46.321,51.712z"/>
		<path d="M59.008,51.712c0.637,0,1.115-0.313,1.115-0.944V49.51c0-0.63-0.479-0.945-1.115-0.945c-0.479,0-0.479,0-0.479,0.631
			v1.888C58.527,51.712,58.527,51.712,59.008,51.712z"/>
		<path d="M48.875,0C21.883,0,0,21.882,0,48.875S21.883,97.75,48.875,97.75S97.75,75.868,97.75,48.875S75.867,0,48.875,0z
			 M53.662,38.491c0-0.629,0-0.629,0.637-0.629h7.578v-0.001c1.914,0,3.191,1.26,3.191,3.148v3.15c0,2.515-1.916,1.885-1.916,2.515
			c0,0.63,1.916,0,1.916,2.52v3.149c0,1.888-1.277,3.146-3.191,3.146h-7.578c-0.637,0-0.637,0-0.637-0.63V38.491z M40.978,38.491
			c0-0.629,0-0.629,0.639-0.629h7.576v-0.001c1.918,0,3.193,1.26,3.193,3.148v3.15c0,2.515-1.919,1.885-1.919,2.515
			c0,0.63,1.919,0,1.919,2.52v3.149c0,1.888-1.275,3.146-3.193,3.146h-7.576c-0.639,0-0.639,0-0.639-0.63V38.491z M28.214,41.01
			c0-1.888,1.275-3.148,3.19-3.148h5.106c1.914,0,3.189,1.26,3.189,3.148v13.85c0,0.631,0,0.631-0.639,0.631h-3.665
			c-0.642,0-0.642,0-0.642-0.631v-3.776c0-0.628-0.158-0.628-0.797-0.628c-0.637,0-0.797,0-0.797,0.628v3.776
			c0,0.631,0,0.631-0.639,0.631h-3.669c-0.638,0-0.638,0-0.638-0.631L28.214,41.01L28.214,41.01z M15.45,54.859V38.491
			c0-0.629,0-0.629,0.638-0.629h3.671c0.637,0,0.637,0,0.637,0.629v5.037c0,0.632,0.161,0.632,0.799,0.632
			c0.637,0,0.798,0,0.798-0.632v-5.037c0-0.629,0-0.629,0.637-0.629h3.669c0.64,0,0.64,0,0.64,0.629v16.368c0,0.63,0,0.63-0.64,0.63
			H22.63c-0.637,0-0.637,0-0.637-0.63v-5.035c0-0.631-0.161-0.631-0.798-0.631c-0.638,0-0.799,0-0.799,0.631v5.035
			c0,0.63,0,0.63-0.637,0.63h-3.671C15.45,55.489,15.45,55.489,15.45,54.859z M23.426,59.896h-3.827c-0.32,0-0.32,0-0.639-0.314
			l-2.554-2.52c-0.318-0.313-0.318-0.313,0-0.313h3.83c0.32,0,0.32,0,0.64,0.313l2.55,2.52
			C23.745,59.896,23.745,59.896,23.426,59.896z M29.81,59.896h-3.83c-0.318,0-0.318,0-0.639-0.314l-2.553-2.52
			c-0.316-0.313-0.316-0.313,0-0.313h3.83c0.319,0,0.319,0,0.638,0.313l2.554,2.52C30.13,59.896,30.13,59.896,29.81,59.896z
			 M36.191,59.896h-3.83c-0.319,0-0.319,0-0.64-0.314l-2.55-2.52c-0.32-0.313-0.32-0.313,0-0.313h3.827c0.32,0,0.32,0,0.639,0.313
			l2.554,2.52C36.511,59.896,36.511,59.896,36.191,59.896z M42.571,59.896h-3.827c-0.319,0-0.319,0-0.639-0.314l-2.552-2.52
			c-0.318-0.313-0.318-0.313,0-0.313h3.827c0.319,0,0.319,0,0.639,0.313l2.552,2.52C42.891,59.896,42.891,59.896,42.571,59.896z
			 M53.021,59.896h-7.896c-0.32,0-0.32,0-0.639-0.314l-2.555-2.52c-0.313-0.312-0.316-0.313-0.007-0.313h7.905
			c0.924,0,1.844-0.438,2.555-1.104v0.477c0,0.629,0,0.629,0.637,1.259l1.971,1.94C54.466,59.689,53.797,59.896,53.021,59.896z
			 M65.706,59.896h-7.897c-0.137,0-0.211,0-0.283-0.024c-0.094-0.032-0.172-0.108-0.355-0.29l-2.553-2.52
			c-0.317-0.314-0.317-0.314,0-0.314h7.898c1.233,0.001,2.471-0.784,3.19-1.85c0.198,0.293,0.437,0.564,0.702,0.805l2.307,2.207
			C68.297,59.136,67.193,59.896,65.706,59.896z M66.343,52.344V41.01c0-1.888,1.277-3.148,3.193-3.148h5.106
			c1.912,0,3.188,1.26,3.188,3.148v11.334c0,1.889-1.276,3.146-3.188,3.146h-5.106C67.618,55.489,66.343,54.23,66.343,52.344z
			 M82.297,56.749c0,1.89-1.273,3.147-3.189,3.147h-5.105c-0.639,0-1.277,0-1.914-0.629l-2.232-2.205
			c-0.316-0.312-0.317-0.313-0.006-0.313h5.433c1.913,0,3.827-1.89,3.827-3.774V41.325c0-0.315,0-0.315,0.326-0.006l2.289,2.168
			c0.573,0.673,0.573,1.302,0.573,1.93L82.297,56.749L82.297,56.749z"/>
		<path d="M59.008,44.788c0.637,0,1.115-0.314,1.115-0.944v-1.259c0-0.631-0.479-0.945-1.115-0.945c-0.479,0-0.479,0-0.479,0.631
			v1.89C58.527,44.788,58.527,44.788,59.008,44.788z"/>
		<path d="M72.087,41.64c-0.478,0-0.797,0.314-0.797,0.631v8.812c0,0.317,0.319,0.63,0.797,0.63s0.8-0.312,0.8-0.63v-8.812
			C72.887,41.954,72.564,41.64,72.087,41.64z"/>
	</g>
</g>
<g>
</g>
<g>
</g>
<g>
</g>
<g>
</g>
<g>
</g>
<g>
</g>
<g>
</g>
<g>
</g>
<g>
</g>
<g>
</g>
<g>
</g>
<g>
</g>
<g>
</g>
<g>
</g>
<g>
</g>
</svg>
