<?xml version="1.0" encoding="iso-8859-1"?>
<!-- Generator: Adobe Illustrator 16.0.0, SVG Export Plug-In . SVG Version: 6.00 Build 0)  -->
<!DOCTYPE svg PUBLIC "-//W3C//DTD SVG 1.1//EN" "http://www.w3.org/Graphics/SVG/1.1/DTD/svg11.dtd">
<svg version="1.1" id="Capa_1" xmlns="http://www.w3.org/2000/svg" xmlns:xlink="http://www.w3.org/1999/xlink" x="0px" y="0px"
	 width="97.75px" height="97.75px" viewBox="0 0 97.75 97.75" style="enable-background:new 0 0 97.75 97.75;" xml:space="preserve"
	>
<g>
	<g>
		<path d="M45.87,33.951v-0.027l-1.547-1.074c-0.04,0.204-0.104,0.411-0.217,0.608c0.116,0.343,0.174,0.686,0.176,1.029
			c0.022-0.004,0.047-0.01,0.068-0.015c0.306-0.057,0.596-0.11,0.838-0.244C45.399,34.119,45.627,34.031,45.87,33.951z"/>
		<path d="M46.621,27.248c-0.104-0.177-0.184-0.352-0.246-0.526c-0.187,0.109-0.401,0.188-0.627,0.255L46.621,27.248z"/>
		<path d="M46.619,33.116c0.058,0.093,0.124,0.173,0.177,0.275l0.028,0.07c0.019,0.065,0.021,0.128,0.032,0.191l1.252-0.776
			c-0.458-0.166-0.956-0.28-1.485-0.278L46.619,33.116z"/>
		<path d="M47,21.602l-0.124-0.112c-0.173-0.156-0.337-0.346-0.468-0.562c-0.045,0.064-0.092,0.129-0.141,0.192
			c0.207,0.252,0.284,0.547,0.305,0.821l0.785-0.371c0-0.004,0-0.009,0-0.013c-0.063,0.009-0.127,0.018-0.189,0.024L47,21.602z"/>
		<path d="M46.557,23.174c-0.006,0-0.013-0.001-0.019-0.001c0.073,0.14,0.118,0.287,0.133,0.439l0.026-0.002l-0.017,0.114
			l0.031-0.078l0.29,0.086l0.246,0.021l0.01,0.054l0.662,0.195c-0.166-0.354-0.307-0.721-0.411-1.105
			C47.221,23.079,46.906,23.174,46.557,23.174z"/>
		<path d="M54.491,24.709c0.047,0.098,0.097,0.193,0.143,0.29c0.035,0.076,0.07,0.15,0.106,0.225
			C54.693,24.994,54.622,24.824,54.491,24.709z"/>
		<path d="M44.581,31.507c0.008,0.048,0.006,0.095,0.008,0.143l0.053,0.005c0.382,0.092,0.717,0.256,1.025,0.462l0.078-0.113
			c0.033-0.032,0.068-0.056,0.103-0.087c-0.007-0.069-0.015-0.141-0.021-0.211l-0.328-0.334c-0.234,0.098-0.472,0.163-0.711,0.163
			C44.719,31.534,44.65,31.515,44.581,31.507z"/>
		<path d="M45.133,27.97c0.223,0.131,0.433,0.294,0.62,0.498l0.091-0.098c-0.243-0.104-0.479-0.233-0.705-0.411
			C45.138,27.964,45.136,27.967,45.133,27.97z"/>
		<path d="M44.307,28.775c0.165,0.243,0.281,0.563,0.307,0.986l0.004,0.07l-0.021,0.068c-0.027,0.082-0.078,0.151-0.117,0.228
			l0.131,0.257h-0.229v0.004l0.672-0.003l0.021-0.892l-0.746-0.73C44.321,28.769,44.315,28.771,44.307,28.775z"/>
		<path d="M44.201,35.269c0.179,0.094,0.354,0.172,0.495,0.172c0.055,0,0.189-0.015,0.374-0.244
			c-0.017-0.037-0.028-0.072-0.042-0.106c-0.18,0.049-0.361,0.084-0.54,0.118C44.388,35.225,44.295,35.247,44.201,35.269z"/>
		<path d="M46.179,30.61c0.101,0.059,0.192,0.131,0.28,0.213c0.037-0.016,0.075-0.029,0.113-0.041
			c-0.045-0.124-0.075-0.24-0.088-0.348c-0.082-0.015-0.152-0.038-0.223-0.061C46.242,30.456,46.209,30.532,46.179,30.61z"/>
		<path d="M51.333,28.228c0.022-0.014,0.044-0.025,0.067-0.037c-0.03-0.024-0.053-0.051-0.084-0.075
			c-0.101-0.083-0.205-0.171-0.309-0.266C51.098,27.968,51.209,28.093,51.333,28.228z"/>
		<path d="M52.225,29.107c0.09,0.068,0.178,0.141,0.272,0.2l-0.249-0.243C52.241,29.078,52.232,29.092,52.225,29.107z"/>
		<path d="M52.04,24.432c0.033-0.001,0.067,0,0.101-0.001c0.608-0.043,0.975-0.097,1.217-0.426l0.039-0.831
			c-0.082,0.082-0.164,0.16-0.246,0.245c-0.32,0.332-0.678,0.684-1.127,0.93C52.032,24.375,52.033,24.404,52.04,24.432z"/>
		<path d="M53.166,32.836c0.066-0.042,0.132-0.087,0.202-0.124c-0.054-0.007-0.106-0.007-0.16-0.019
			c-0.039,0.024-0.079,0.05-0.119,0.071C53.113,32.789,53.145,32.81,53.166,32.836z"/>
		<path d="M48.303,28.252c-0.029-0.012-0.059-0.024-0.086-0.041c-0.034,0.006-0.067,0.021-0.102,0.021
			c-0.03,0-0.066-0.006-0.102-0.01l-0.083,0.071c-0.142,0.083-0.296,0.142-0.452,0.19c-0.096,0.259-0.289,0.47-0.427,0.62
			l-0.092,0.089c-0.063,0.047-0.128,0.081-0.193,0.122c0.03,0.06,0.073,0.104,0.113,0.151c0.087-0.077,0.178-0.146,0.261-0.195
			c0.453-0.199,0.869-0.279,1.273-0.262C48.342,28.77,48.307,28.518,48.303,28.252z"/>
		<path d="M54.593,31.282c-0.024-0.202-0.013-0.409,0.034-0.618c-0.062,0.006-0.125,0.018-0.189,0.018
			c-0.151,0-0.299-0.019-0.446-0.045c0.03,0.29,0.013,0.581-0.06,0.874L54.593,31.282z"/>
		<path d="M47.358,25.206c0.006,0.679,0.076,1.143,0.568,1.494c0.158-0.021,0.316-0.029,0.475-0.02h0.001
			c0.194-0.013,0.39-0.021,0.585-0.026l0.301-0.268c-0.283-0.316-0.503-0.666-0.697-1.023c-0.058,0.006-0.109,0.024-0.17,0.024
			c-0.341,0-0.665-0.081-0.979-0.161L47.358,25.206z"/>
		<path d="M60.891,23.384c0.319-0.004,0.664-0.065,1.026-0.151c0.005-0.033,0.003-0.068,0.011-0.1L60.891,23.384z"/>
		<path d="M53.116,22.309c-0.354,0.155-0.587,0.468-0.812,0.903c0.104-0.099,0.204-0.204,0.307-0.311
			c0.162-0.168,0.33-0.337,0.509-0.497C53.118,22.372,53.115,22.341,53.116,22.309z"/>
		<path d="M49.508,27.6v0.141l0.701,1.896l0.398,0.01c0.072-0.095,0.119-0.274,0.164-0.453c0.028-0.106,0.061-0.23,0.105-0.357
			c-0.415-0.439-0.928-0.995-0.857-1.741C49.887,27.29,49.715,27.458,49.508,27.6z"/>
		<path d="M51.85,33.944l-0.021-0.589c-0.229-0.041-0.453-0.094-0.67-0.155c-0.371-0.104-0.717-0.178-1.032-0.154
			c0.243,0.465,0.492,1.002,0.437,1.604c0.195,0.029,0.379,0.078,0.549,0.153C51.279,34.448,51.568,34.171,51.85,33.944
			L51.85,33.944z"/>
		<path d="M55.863,32.61c-0.09,0.006-0.174,0.015-0.25,0.024c0.218,0.139,0.373,0.313,0.492,0.499
			c0.033-0.008,0.058-0.02,0.092-0.025l0.053-0.01l0.053,0.006c0.129,0.015,0.249,0.042,0.362,0.083
			C56.456,32.953,56.191,32.762,55.863,32.61z"/>
		<path d="M56.292,34.149l-0.097,0.003l-1.104,1.592c0.409-0.138,0.82-0.201,1.224-0.237L56.292,34.149z"/>
		<path d="M56.328,36.253c-0.215,0.021-0.43,0.057-0.641,0.104l0.644-0.003L56.328,36.253z"/>
		<path d="M55.561,25.769c0.002,0.012,0.004,0.021,0.004,0.033l1.322-0.459l0.199-0.526c-0.1-0.193-0.188-0.391-0.25-0.593
			c-0.009-0.067-0.005-0.129-0.006-0.191c-0.752-0.004-1.518-0.015-2.234-0.264c0,0.05-0.011,0.101-0.015,0.15
			C55.413,24.257,55.505,25.136,55.561,25.769z"/>
		<path d="M56.934,22.54c0.032,0.012,0.064,0.023,0.099,0.038c-0.011-0.023-0.021-0.047-0.03-0.07
			C56.979,22.519,56.956,22.531,56.934,22.54z"/>
		<path d="M55.477,27.844l-0.021,1.225C55.562,28.685,55.566,28.278,55.477,27.844z"/>
		<path d="M59.616,23.812c-0.063,0.04-0.125,0.08-0.191,0.111c0.437,0.349,0.578,0.837,0.622,1.295l2.219,0.549l0.027-1.203
			c-0.105-0.149-0.204-0.299-0.289-0.455l-0.031-0.077c-0.005-0.017-0.002-0.03-0.007-0.045c-0.37,0.087-0.747,0.169-1.134,0.169
			C60.377,24.155,59.977,24.038,59.616,23.812z"/>
		<path d="M58.727,31.673l0.072-0.032c0.137-0.043,0.268-0.057,0.398-0.055c0.234-0.623,0.689-1.011,1.199-1.283
			c-0.174-0.355-0.242-0.771-0.211-1.24c-0.285-0.062-0.549-0.187-0.789-0.303l-0.045-0.022c-1.123,1.242-2.588,1.822-3.855,2.177
			l0.005,0.246l0.313,0.035l0.057-0.011c0.208-0.035,0.42-0.053,0.629-0.053c0.818,0,1.545,0.266,2.177,0.573
			C58.695,31.695,58.71,31.682,58.727,31.673z"/>
		<path d="M58.425,28.624c-0.627,0.287-1.239,0.664-1.856,1.137C57.316,29.45,57.924,29.078,58.425,28.624z"/>
		<path d="M58.143,21.514l-0.142-0.078l-0.112,0.218c0.448,0.352,0.6,0.837,0.648,1.271l0.447,0.002l0.057-0.002
			c-0.047-0.313-0.068-0.637,0.029-0.917C58.753,21.854,58.443,21.686,58.143,21.514z"/>
		<path d="M47.17,36.294c0.006-0.207,0.076-0.411,0.208-0.604c0.004-0.07,0.007-0.142,0.012-0.212l-1.073-0.538l-0.525,0.529
			c-0.305,0.473-0.672,0.717-1.096,0.717c-0.174,0-0.338-0.042-0.496-0.102c0.446,0.479,0.791,1.036,1.04,1.664
			C45.707,37.115,46.254,36.475,47.17,36.294z"/>
		<path d="M46.083,39.551l1.449,0.349c0.004-0.027,0.008-0.057,0.01-0.085c-0.317-0.043-0.625-0.099-0.927-0.16
			C46.434,39.618,46.258,39.582,46.083,39.551z"/>
		<path d="M50.191,31.69c-0.02-0.041-0.045-0.077-0.061-0.121c-0.098-0.258-0.109-0.541-0.051-0.847
			c-0.166-0.038-0.329-0.092-0.488-0.165c-0.074-0.054-0.141-0.11-0.209-0.166l-1.439,0.045l0.018,0.018
			c0.794,0.357,1.312,0.923,1.522,1.666C49.709,31.912,49.943,31.762,50.191,31.69z"/>
		<path d="M47.488,37.479c-0.092,0.12-0.181,0.244-0.271,0.373c-0.242,0.346-0.5,0.715-0.841,0.999
			c0.129,0.024,0.262,0.045,0.389,0.071c0.281,0.057,0.562,0.109,0.844,0.148C47.633,38.49,47.595,37.965,47.488,37.479z"/>
		<path d="M55.029,33.696l-0.437-0.229c-0.198,0.232-0.43,0.386-0.671,0.48c0.235,0.128,0.454,0.286,0.641,0.495
			C54.675,34.174,54.818,33.915,55.029,33.696z"/>
		<path d="M51.398,38.433c0.002-0.008,0.006-0.017,0.01-0.025c-0.014,0.018-0.024,0.031-0.037,0.049
			c-0.43,0.591-0.907,1.25-1.809,1.402l-0.004,0.232C50.688,40.194,51.014,39.551,51.398,38.433z"/>
		<path d="M46.604,37.426c0.038-0.054,0.078-0.106,0.117-0.16c-0.394,0.258-0.693,0.668-1.019,1.115
			c-0.012,0.016-0.024,0.03-0.036,0.047C46.043,38.221,46.311,37.845,46.604,37.426z"/>
		<path d="M53.734,29.761c0.009,0.018,0.021,0.036,0.027,0.054c0.057,0.015,0.114,0.029,0.17,0.042
			C53.866,29.823,53.8,29.784,53.734,29.761z"/>
		<path d="M52.626,31.879l0.017-1.648c-0.252-0.115-0.488-0.251-0.715-0.408c-0.145,0.317-0.354,0.629-0.736,0.815
			c0.146,0.556,0.514,0.97,1.1,1.263L52.626,31.879z"/>
		<path d="M52.2,25.646c-0.107-0.025-0.209-0.056-0.308-0.094c-0.192,0.473-0.453,0.817-0.785,1.092
			c0.06,0.343,0.3,0.574,0.687,0.896c0.244,0.202,0.488,0.421,0.679,0.698l0.709,0.695c0.625-0.009,1.125,0.217,1.521,0.524
			l0.046-2.341c-0.229-0.118-0.476-0.223-0.735-0.326C53.377,26.538,52.68,26.26,52.2,25.646z"/>
		<path d="M51.641,37.032l-0.486-0.8l-1.081-0.557l-0.468,0.454c-0.002,0.139,0,0.275,0.004,0.414l0.004,0.005l-0.002,0.13
			l0.033,0.622l-0.041-0.021l-0.028,1.8c0.526-0.156,0.843-0.58,1.192-1.062c0.252-0.347,0.512-0.705,0.863-0.979
			C51.635,37.035,51.637,37.034,51.641,37.032z"/>
		<path d="M44.089,26.105c-0.011,0.039-0.011,0.137,0.075,0.313c0.213-0.156,0.436-0.296,0.663-0.423
			c0.026-0.017,0.05-0.029,0.076-0.044c0.063-0.101,0.128-0.198,0.194-0.295c0.05-0.072,0.089-0.135,0.131-0.199
			c-0.135,0.067-0.273,0.13-0.408,0.187C44.516,25.772,44.135,25.932,44.089,26.105z"/>
		<path d="M58.673,34.22l0.823-0.035c0.045-0.045,0.09-0.092,0.135-0.136c0.148-0.145,0.301-0.269,0.452-0.382
			c-0.358-0.242-0.628-0.582-0.813-1.003c-0.104,0.577-0.394,0.985-0.842,1.219l0.254,0.146l-0.175,0.012
			C58.555,34.099,58.609,34.159,58.673,34.22z"/>
		<path d="M59.348,39.026c-0.705,0.035-1.312,0.073-1.746,0.436c0.439-0.146,0.896-0.229,1.349-0.303
			c0.292-0.047,0.577-0.095,0.852-0.16C59.65,39.011,59.499,39.018,59.348,39.026z"/>
		<path d="M61.32,35.493c0.103-0.287,0.175-0.565,0.212-0.835C61.402,34.934,61.334,35.211,61.32,35.493z"/>
		<path d="M48.156,40.748l-0.137-0.006l-0.007,0.009C48.06,40.749,48.108,40.749,48.156,40.748z"/>
		<path d="M62.302,34.14c0.007,0.626-0.11,1.25-0.396,1.927c0.074,0.049,0.15,0.096,0.222,0.151
			c0.067-0.025,0.136-0.045,0.206-0.059c0.141-0.577,0.57-0.941,0.934-1.249c0.127-0.106,0.246-0.21,0.353-0.316
			c-0.104-0.166-0.183-0.346-0.235-0.538L62.302,34.14z"/>
		<path d="M49.469,34.815l-0.548-1.581c-0.198-0.1-0.407-0.194-0.624-0.281l-1.056,1.06c0.39,0.182,0.714,0.46,0.97,0.83l0.037,0.07
			c0.25,0.035,0.512,0.113,0.751,0.267C49.143,35.046,49.297,34.922,49.469,34.815z"/>
		<path d="M48.85,37.604l0.011-0.666c-0.032,0.14-0.06,0.28-0.075,0.416c-0.001,0.013-0.002,0.025-0.004,0.04
			C48.812,37.462,48.828,37.534,48.85,37.604z"/>
		<path d="M53.338,37.879l-0.854-0.116c-0.035,0.063-0.07,0.125-0.102,0.193l0.895,0.42l-0.494-0.495l0.561,0.047L53.338,37.879z"/>
		<path d="M62.086,31.106l-0.705,0.013l-1.105,1.087l0.906,0.942c0.166-0.006,0.326,0.006,0.476,0.054l0.098-0.073
			c0.618-0.306,1.183-0.394,1.696-0.273c0.058-0.232,0.136-0.451,0.226-0.662C62.975,32.105,62.465,31.598,62.086,31.106z"/>
		<path d="M53.915,35.905l-1.085-1.052c-0.122,0.013-0.243,0.026-0.364,0.038L52.1,35.519c0.295,0.341,0.521,0.707,0.594,1.128
			c0.176-0.021,0.354-0.027,0.539-0.007c0.076,0.018,0.139,0.052,0.207,0.075C53.523,36.432,53.667,36.147,53.915,35.905z"/>
		<path d="M61.252,39.194c-0.674,0.45-1.438,0.58-2.182,0.701c-0.34,0.055-0.668,0.116-0.981,0.199
			c1.209,0.004,2.294-0.199,3.308-0.619L61.252,39.194z"/>
		<path d="M69.575,36.573c-0.079-0.116-0.146-0.233-0.201-0.352c-0.022,0.175-0.051,0.351-0.076,0.521
			c-0.001,0.012-0.002,0.022-0.004,0.032L69.575,36.573z"/>
		<path d="M69.691,32.81l0.48,0.54l1.178-1.349l0.73-1.707l-1.965-1.278l-1.107,1.121l-0.627,1.205
			C68.991,31.676,69.436,32.164,69.691,32.81z"/>
		<path d="M69.727,28.103c0-0.188-0.033-0.351-0.1-0.492c-0.12,0.216-0.262,0.401-0.418,0.563c0.133-0.047,0.279-0.077,0.445-0.077
			C69.678,28.097,69.704,28.103,69.727,28.103z"/>
		<path d="M72.732,34.786c0.107-0.408-0.119-0.953-0.649-1.599c-0.021,0.064-0.039,0.127-0.065,0.185
			c-0.266,0.538-0.863,0.801-1.414,0.987l-0.062,0.021h-0.007l-0.05,1.787C71.844,35.783,72.586,35.33,72.732,34.786z"/>
		<path d="M69.624,37.458c0.429-0.199,0.825-0.403,1.188-0.61C70.637,36.9,70.457,36.952,70.262,37L69.624,37.458z"/>
		<path d="M68.484,28.728c-0.2,0.109-0.403,0.198-0.609,0.272l0.027,0.015l0.32,0.055c0.008-0.008,0.016-0.019,0.021-0.027
			C68.318,28.94,68.396,28.832,68.484,28.728z"/>
		<path d="M69.52,34.129c-0.08-0.041-0.152-0.086-0.226-0.131c0.036,0.115,0.067,0.233,0.091,0.353
			C69.424,34.276,69.471,34.202,69.52,34.129z"/>
		<path d="M66.018,38.198l2.221-0.806c-0.389-0.718-0.358-1.503-0.326-2.213c0.029-0.661,0.043-1.287-0.247-1.821
			c-0.11-0.006-0.216-0.011-0.313-0.011c-0.927,0-1.309,0.311-1.404,1.137l0.062,2.041l0.004,0.003l0.002,0.134l0.008,0.283
			l-0.008,0.003L66.018,38.198z"/>
		<path d="M65.305,25.834c0.125,0.964,0.785,1.574,1.652,2.205l2.033-1.235l-1.131-1.58L65.305,25.834z"/>
		<path d="M68.648,36.006c0.06-0.474,0.084-0.919,0.025-1.336c-0.001,0.182-0.009,0.364-0.018,0.545
			C68.645,35.492,68.639,35.754,68.648,36.006z"/>
		<path d="M40.656,32.823l-0.007-0.381l-0.766-0.405c-0.666,0.813-0.942,1.467-0.793,1.894c0.1,0.28,0.39,0.496,0.756,0.666
			c-0.049-0.217-0.063-0.44-0.014-0.669C39.92,33.514,40.198,33.152,40.656,32.823z"/>
		<path d="M49.376,20.04c-0.284,0.16-0.557,0.318-0.785,0.497c0.833-0.253,1.427-0.64,1.813-1.189
			C50.09,19.631,49.718,19.847,49.376,20.04z"/>
		<path d="M44.481,37.857c-0.18-0.412-0.416-0.777-0.699-1.109c0.146,0.369,0.386,0.703,0.662,1.06
			C44.456,37.824,44.469,37.842,44.481,37.857z"/>
		<path d="M43.185,24.78c0.001,0.006,0.005,0.013,0.006,0.019c0.041,0.009,0.08,0.014,0.12,0.021
			C43.269,24.81,43.227,24.793,43.185,24.78z"/>
		<path d="M41.865,25.145l-0.169-0.09c-0.405-0.215-0.963-0.517-1.077-1.13c-0.083,0.012-0.161,0.036-0.248,0.036l-0.017-0.003
			l-0.477,0.92c0.084,0.686,0.402,1.001,1.047,1.033C41.36,25.716,41.67,25.464,41.865,25.145z"/>
		<path d="M37.7,27.137c0.035-0.009,0.071-0.021,0.107-0.028c0.068-0.114,0.139-0.227,0.207-0.336
			c0.176-0.278,0.342-0.552,0.478-0.833c-0.021,0.024-0.04,0.049-0.06,0.074C38.12,26.393,37.842,26.735,37.7,27.137z"/>
		<path d="M50.081,22.224c-0.021-0.319,0.021-0.628,0.101-0.929c-0.104,0.295-0.156,0.589-0.113,0.884
			C50.068,22.193,50.079,22.208,50.081,22.224z"/>
		<path d="M53.999,20.107c-0.321-0.104-0.61-0.271-0.873-0.477C53.404,19.945,53.713,20.072,53.999,20.107z"/>
		<path d="M43.896,27.353l-0.027-0.036l-0.546-0.089l0.279-0.297c-0.231-0.38-0.314-0.716-0.233-1.018
			c0.032-0.118,0.089-0.218,0.156-0.308c-0.115-0.012-0.235-0.032-0.354-0.054c-0.007,0.028-0.007,0.06-0.016,0.089
			c-0.21,0.634-0.806,1.017-1.431,1.309c0.007,0.079,0.003,0.157-0.005,0.236c0.34,0.233,0.578,0.546,0.723,0.933l0.634-0.021
			l0.594-0.523L43.896,27.353z"/>
		<path d="M48.336,21.833c0.689,0.665,1.083,1.551,1.229,2.737c0.541,0.381,0.711,0.9,0.763,1.355l0.052,0.005
			c0.059-0.494,0.219-0.965,0.663-1.313l-0.073-0.056c-0.986-0.731-1.523-1.477-1.64-2.276c-0.063-0.446,0.008-0.872,0.159-1.28
			c-0.367,0.17-0.758,0.293-1.153,0.384C48.368,21.531,48.362,21.68,48.336,21.833z"/>
		<path d="M52.045,19.267c-0.104,0.182-0.211,0.362-0.316,0.539c-0.772,1.281-1.393,2.317-0.369,3.629
			c0.041-0.081,0.082-0.161,0.121-0.247c0.354-0.735,0.797-1.628,1.994-1.729c0.189-0.289,0.435-0.479,0.7-0.596
			C53.191,20.839,52.479,20.304,52.045,19.267z"/>
		<path d="M54.85,21.957c-0.144,0.148-0.309,0.277-0.473,0.408c0.166,0.048,0.355,0.073,0.594,0.073
			c0.135,0,0.271-0.009,0.408-0.017C55.195,22.309,55.02,22.146,54.85,21.957z"/>
		<path d="M40.912,28.18c-0.278,0.042-0.563,0.114-0.863,0.202c-0.456,0.131-0.928,0.267-1.413,0.267
			c-0.292,0-0.562-0.057-0.816-0.155c-0.008,0.008-0.015,0.019-0.022,0.027c0.942,0.207,1.692,0.835,2.272,1.914l0.603-0.088
			l0.7-1.74L40.912,28.18z"/>
		<path d="M41.225,31.504l0.039-0.038l-0.09-0.101c-0.023,0.009-0.048,0.017-0.071,0.025C41.145,31.427,41.186,31.465,41.225,31.504
			z"/>
		<polygon points="41.881,32.154 41.879,32.155 41.881,32.155 		"/>
		<path d="M42.773,29.347c-0.1,0-0.191-0.015-0.283-0.029c-0.069,0.393-0.202,0.751-0.396,1.08l0.253,0.003l0.537-0.541l0.002-0.217
			l0.215-0.001l0.17-0.171l0.096,0.106l-0.146-0.292c-0.031,0.009-0.059,0.025-0.09,0.032C42.977,29.34,42.874,29.347,42.773,29.347
			z"/>
		<path d="M56.012,23.145c-0.164,0-0.332,0.009-0.498,0.02c-0.08,0.004-0.16,0.009-0.24,0.015c0.475,0.095,0.98,0.104,1.502,0.106
			C56.57,23.191,56.33,23.145,56.012,23.145z"/>
		<path d="M38.285,32.198c-0.413,0.472-0.294,1.363-0.208,2.016c0.016,0.113,0.03,0.22,0.041,0.316
			c0.064,0.59,0.387,0.657,1.28,0.678c-0.475-0.247-0.849-0.57-1.011-1.028c-0.227-0.644,0.007-1.415,0.707-2.345
			C38.729,31.88,38.458,32.001,38.285,32.198z"/>
		<path d="M39.75,23.078c-0.345-0.633-0.552-0.716-0.633-0.716c-0.022,0-0.046,0.006-0.073,0.019
			c-0.173,0.079-0.321,0.654-0.42,1.035c-0.004,0.016-0.008,0.03-0.013,0.047c0.319-0.212,0.679-0.39,1.108-0.39
			C39.729,23.073,39.74,23.076,39.75,23.078z"/>
		<path d="M38.805,26.917c0.251-0.032,0.504-0.054,0.755-0.063c-0.103-0.064-0.198-0.136-0.281-0.221
			c-0.068-0.068-0.125-0.148-0.179-0.231C39.008,26.579,38.909,26.749,38.805,26.917z"/>
		<path d="M38.918,30.045c-0.237-0.278-0.5-0.479-0.789-0.622c0.213,0.149,0.411,0.309,0.598,0.465
			C38.792,29.943,38.855,29.992,38.918,30.045z"/>
		<path d="M38.253,27.832c0.474,0.108,1.007,0,1.589-0.167c0.093-0.028,0.188-0.053,0.281-0.077
			c-0.613-0.021-1.221,0.031-1.822,0.157C38.286,27.774,38.269,27.804,38.253,27.832z"/>
		<path d="M42.107,24.398c-0.026-0.005-0.052-0.007-0.076-0.012c0.006,0.003,0.009,0.005,0.015,0.009l0.057,0.03
			C42.103,24.416,42.105,24.407,42.107,24.398z"/>
		<path d="M28.917,28.233l0.577-0.592c0.006-0.125,0.012-0.252,0.015-0.379c0.007-0.618,0.026-1.373,0.682-1.927
			c0.003-0.055,0.005-0.109,0.008-0.165c-1.128,0.006-1.349,0.65-1.585,1.794c-0.036,0.174-0.076,0.347-0.119,0.52
			c0.018,0.246,0.05,0.491,0.084,0.734C28.692,28.228,28.804,28.233,28.917,28.233z"/>
		<path d="M27.474,31.59c0.052,0.051,0.103,0.106,0.151,0.168c0.959-0.435,1.804-0.598,2.671-0.505l0.004-0.048
			c-0.252-0.148-0.44-0.349-0.563-0.598c-0.203,0.076-0.402,0.122-0.593,0.122c-0.297,0-0.575-0.092-0.829-0.268
			c-0.063,0.015-0.127,0.039-0.191,0.039c-0.086,0-0.171-0.021-0.256-0.045l-0.59,0.909l0.172,0.159L27.474,31.59z"/>
		<path d="M31.155,26.407c-0.023-0.011-0.051-0.015-0.074-0.026c-0.011,0.039-0.021,0.075-0.032,0.113
			C31.084,26.467,31.118,26.433,31.155,26.407z"/>
		<path d="M30.77,30.265l0.934-0.472l-0.001-0.178l0.304,0.024l0.137-0.068l0.086,0.08c0.554,0.006,0.73-0.322,0.988-0.952
			c0.101-0.244,0.211-0.505,0.369-0.738c-0.062-0.124-0.115-0.253-0.162-0.384c-0.129-0.4-0.159-0.811-0.111-1.244
			c-0.048,0.022-0.101,0.04-0.15,0.061c-0.187,0.819-0.912,1.2-1.48,1.494c-0.234,0.121-0.455,0.234-0.641,0.369
			c0.027,0.675-0.416,1.11-0.75,1.353c0.017,0.081,0.019,0.158,0.014,0.231L30.77,30.265z"/>
		<path d="M31.309,27.24c0.01-0.004,0.02-0.012,0.029-0.016c0.424-0.219,0.738-0.397,0.927-0.636c-0.01,0-0.021,0-0.032,0.002
			c-0.09,0.06-0.181,0.118-0.27,0.175C31.719,26.921,31.493,27.067,31.309,27.24z"/>
		<path d="M26.586,34.622c-0.003,0.004-0.004,0.008-0.006,0.013c-0.119,0.512-0.091,0.906,0.084,1.176
			c0.144,0.224,0.407,0.384,0.779,0.481c0.28-0.332,0.602-0.51,0.962-0.51c0.372,0,0.713,0.181,1.013,0.339
			c0.049,0.026,0.097,0.05,0.145,0.075l0.33-2.017l0.99,1.304c0.158-0.327,0.219-0.704,0.276-1.103
			c0.062-0.421,0.129-0.851,0.314-1.258l-1.013-0.513c-0.615-0.154-1.232,0.078-1.87,0.353c-0.233,0.101-0.478,0.198-0.727,0.281
			l-0.018,0.067l-0.233,0.016l-0.143,0.039l-0.036-0.027l-0.196,0.014l0.003,0.603l-0.237-0.164L26.586,34.622z"/>
		<path d="M26.512,31.847l-0.266,0.039c0.086,0.021,0.176,0.042,0.263,0.082L26.512,31.847z"/>
		<path d="M26.069,33.17l0.007-0.023l-0.335-0.231c0.027,0.184,0.132,0.367,0.286,0.583C26.034,33.387,26.045,33.277,26.069,33.17z"
			/>
		<path d="M26.534,30.858l0.125,0.09l0.313-0.48c-0.416,0.236-0.781,0.477-1.109,0.722l0.666-0.1L26.534,30.858z"/>
		<path d="M27.457,37.061c-0.095-0.02-0.176-0.049-0.264-0.073c0.726,0.395,1.573,0.773,2.534,1.133
			c-0.096-0.05-0.191-0.1-0.288-0.147L27.457,37.061z"/>
		<path d="M35.204,29.572c-0.129-0.062-0.254-0.131-0.373-0.211c-0.102,0.2-0.185,0.424-0.268,0.656
			c-0.102,0.281-0.215,0.589-0.381,0.874c0.256-0.306,0.501-0.631,0.749-0.963C35.021,29.809,35.114,29.692,35.204,29.572z"/>
		<path d="M31.747,30.607c0.006,0,0.01-0.001,0.016-0.003c0,0,0-0.003-0.001-0.004L31.747,30.607z"/>
		<path d="M31.395,36.158c0.563-0.455,0.614-1.009,0.52-1.769c-0.006,0.034-0.012,0.065-0.017,0.1
			c-0.08,0.552-0.171,1.122-0.529,1.634L31.395,36.158z"/>
		<path d="M34.02,39.39c0.067,0.016,0.135,0.03,0.203,0.046c-0.022-0.021-0.045-0.034-0.066-0.057
			C34.112,39.385,34.065,39.385,34.02,39.39z"/>
		<path d="M31.323,31.558c0.127,0.064,0.244,0.138,0.355,0.219c0.059-0.153,0.129-0.302,0.214-0.44
			c-0.182,0.038-0.37,0.064-0.567,0.077C31.325,31.462,31.328,31.511,31.323,31.558z"/>
		<path d="M26.154,36.356c-0.038-0.047-0.084-0.089-0.116-0.141c-0.274-0.424-0.335-0.982-0.197-1.651
			c-0.077-0.154-0.184-0.308-0.304-0.469c-0.324-0.437-0.752-1.028-0.437-1.837c-0.029-0.116-0.049-0.233-0.06-0.352
			c-0.553,0.584-0.858,1.174-0.858,1.756C24.182,34.559,24.877,35.481,26.154,36.356z"/>
		<path d="M32.796,25.167l0.245-0.008l-0.403-1.039c-0.04,0.003-0.081,0.006-0.119,0.006c-0.36,0-0.677-0.091-0.952-0.254
			l-0.52,0.89c0.084,0.118,0.137,0.25,0.174,0.389L32.796,25.167z"/>
		<path d="M33.435,23.197c0.015-0.003,0.03-0.006,0.045-0.01c0.371-0.083,0.729-0.168,1.071-0.28
			c-0.44,0.015-0.816,0.083-1.145,0.272C33.417,23.186,33.425,23.191,33.435,23.197z"/>
		<path d="M34.62,22.156c-0.043-0.176-0.063-0.362-0.053-0.558c-0.189,0.026-0.38,0.054-0.567,0.071
			c-1.157,0.109-1.868,0.243-2.099,1.257l0.654-0.029C33.183,22.291,33.899,22.165,34.62,22.156z"/>
		<path d="M32.96,32.036c0.187-0.126,0.36-0.264,0.526-0.414c-0.121,0.074-0.258,0.136-0.409,0.187L32.96,32.036z"/>
		<path d="M34.917,31.712c-0.053-0.102-0.105-0.202-0.158-0.307l0.436-0.219c0.121-0.257,0.234-0.531,0.352-0.816
			c0.004-0.012,0.01-0.023,0.014-0.035c-0.01,0.013-0.02,0.026-0.029,0.039c-0.662,0.89-1.346,1.796-2.339,2.399
			C34.041,32.759,34.538,32.333,34.917,31.712z"/>
		<path d="M38.612,39.332c0.436-0.043,0.93-0.093,1.061-0.302c0.083-0.132,0.058-0.4-0.071-0.755
			c-0.118-0.325-0.253-0.325-0.318-0.325c-0.124,0-0.487,0.069-1.169,0.71c-0.072,0.067-0.146,0.127-0.221,0.183
			c0.113-0.008,0.229-0.021,0.342-0.024l0.622-0.018l-0.266,0.533C38.598,39.334,38.605,39.332,38.612,39.332z"/>
		<path d="M66.854,32.086c0.217,0,0.451,0.028,0.692,0.078c-0.054-0.096-0.099-0.199-0.146-0.302h-0.019l-0.003,0.009l-0.292-0.018
			l-0.188-0.004l-0.028-0.04c-0.326-0.066-0.565-0.238-0.699-0.508l-1.119,0.56l-0.54,1.812l0.018,0.411
			C65.016,32.434,66.059,32.086,66.854,32.086z"/>
		<path d="M64.086,36.815c-0.014,0-0.031,0.001-0.053,0.007c0.035,0.026,0.074,0.053,0.109,0.079l0.061,0.057
			c0.059,0.068,0.146,0.136,0.24,0.203c-0.016-0.096-0.029-0.189-0.041-0.283C64.286,36.843,64.174,36.815,64.086,36.815z"/>
		<polygon points="56.959,78.497 60.908,77.501 63.986,46.345 58.139,48.023 		"/>
		<polygon points="24.215,42.178 29.067,72.309 32.145,75.854 27.667,44.323 		"/>
		<path d="M63.718,38.311l-1.204-1.213c-0.011,0-0.021,0-0.031,0.002c0.027,0.507-0.182,0.938-0.408,1.27
			c0.109,0.112,0.205,0.234,0.265,0.389c0.05,0.124,0.065,0.257,0.065,0.396l1.729-0.453l-0.413-0.405L63.718,38.311z"/>
		<polygon points="65.105,76.102 68.184,72.559 73.034,42.427 69.583,44.572 		"/>
		<path d="M48.875,0C21.882,0,0,21.883,0,48.875S21.882,97.75,48.875,97.75S97.75,75.867,97.75,48.875S75.868,0,48.875,0z
			 M75.609,34.785l-5.924,41.16c0,0-3.138,9.328-18.543,9.328h-4.535c-15.406,0-18.545-9.328-18.545-9.328l-5.924-41.16
			c-0.105-0.363-0.161-0.737-0.161-1.122c0-2.437,2.198-4.421,5.657-5.933c0.105-0.272,0.179-0.585,0.247-0.917
			c0.229-1.101,0.501-2.479,2.497-2.389l0.719-1.229c0.214-2.018,1.661-2.159,2.83-2.27c0.299-0.028,0.578-0.062,0.842-0.114
			l0.035-0.09l0.22,0.038l0.188-0.05l0.047,0.074c1.368,0.159,1.9-0.705,2.504-1.745c0.209-0.361,0.431-0.727,0.69-1.058
			c0.084-0.784,0.354-2.761,2.078-2.761c0.798,0,1.708,0.435,2.588,0.855l0.228,0.108l0.063-0.008l0.081,0.076l0.448,0.213
			l-0.111,0.104l0.351,0.329l0.797-0.257l-0.217,0.307l0.623,0.046l1.012-0.459c-0.592-0.978-0.738-1.749-0.443-2.348
			c0.297-0.603,1-0.95,2.137-1.064c0.01-0.095,0.025-0.187,0.026-0.282l0.007-0.366h0.456h0.771h1.769h0.487h0.473h0.518h2.235
			l0.002,1.837c0.019,0.119,0.03,0.241,0.044,0.362l1.225,0.831l0.037,0.016c0.553,0.259,0.846,0.572,0.895,0.958
			c0.045,0.363-0.152,0.731-0.577,1.121c-0.001,0.012,0,0.023,0,0.036c0.112,0.012,0.222,0.047,0.329,0.085
			c0.232-0.049,0.463-0.025,0.679,0.071l4.024-0.126l-0.006-0.024l0.473,0.011l0.16-0.005l0.008,0.007l0.711,0.015
			c-0.078-0.367-0.045-0.676,0.117-0.928c0.332-0.517,1.039-0.585,1.542-0.591l0.214-0.006c0.104-0.003,0.206-0.006,0.309-0.006
			c0.403,0,1.348,0,1.649,1.061c0.368,1.287-0.481,1.977-1.207,2.526l0.49,0.841l1.585,0.1l0.084-0.138l0.24,0.158l0.184,0.011
			l0.029,0.133c1.051,0.712,1.574,1.42,1.59,2.162c0.014,0.651-0.358,1.271-1.127,1.888l1.297,1.812
			c0.477,0.405,0.678,0.95,0.621,1.651c0,0,2.396,1.089,2.385,0.848c1.85,1.263,2.938,2.757,2.938,4.473
			C75.771,34.048,75.716,34.422,75.609,34.785z"/>
		<path d="M72.875,30.337l-0.766,1.78c0.793,0.792,1.24,1.496,1.358,2.128c0.063-0.195,0.099-0.391,0.099-0.582
			c0-0.624-0.336-1.262-0.969-1.885C72.775,31.329,72.874,30.844,72.875,30.337z"/>
		<path d="M59.311,38.28c0.607-0.031,1.178-0.065,1.602-0.328l0.466-0.863l-0.205-0.007l-2.262-0.015l-2.031,0.03l-0.003,0.002
			L56.702,37.1l-0.359,0.005V37.1l-1.346,0.005l0.368,0.991l0.138,0.012l-0.024,0.291l0.096,0.26l-0.145,0.059
			c-0.013,0.075-0.023,0.151-0.039,0.226c0.026,0.06,0.057,0.112,0.082,0.173l0.024,0.091c0.01,0.064,0.017,0.128,0.024,0.194
			l0.013,0.034l0.916,0.434C57.001,38.402,58.271,38.334,59.311,38.28z"/>
		<path d="M65.125,35.182c-0.018,0.202-0.018,0.417-0.018,0.631c0.045,0.03,0.092,0.059,0.136,0.091l-0.022-0.754
			C65.188,35.159,65.157,35.174,65.125,35.182z"/>
		<path d="M65.268,37.1c-0.024-0.003-0.05-0.005-0.074-0.009c0.021,0.11,0.045,0.22,0.076,0.328L65.268,37.1z"/>
		<path d="M42.911,35.256l-0.01-1.332l-0.543-0.56l-0.568,0.008l-0.002,0.017l-0.246,0.073c-0.486,0.143-0.594,0.293-0.618,0.351
			c-0.064,0.153,0.102,0.462,0.249,0.734c0.082,0.155,0.173,0.328,0.242,0.511c0.031,0.006,0.066,0.013,0.098,0.019l0.127,0.05
			c0.122,0.076,0.225,0.172,0.331,0.266C42.254,35.257,42.569,35.212,42.911,35.256z"/>
		<path d="M41.009,36.485l-0.169-0.151l-0.051-0.001L40.72,36.23c-0.296-0.252-0.785-0.265-1.306-0.276
			c-0.801-0.018-1.896-0.041-2.039-1.344l-0.038-0.298c-0.1-0.749-0.251-1.879,0.386-2.606c0.314-0.359,0.786-0.561,1.389-0.616
			c-0.313-0.184-0.598-0.403-0.867-0.633c-0.504-0.425-0.945-0.785-1.561-0.817c-0.16,0.314-0.303,0.651-0.448,1.012
			c-0.145,0.355-0.296,0.722-0.474,1.069c0.613,1.174,1.185,2.388,0.078,3.657c-0.807,0.94-0.834,2.217-0.164,3.236
			c0.354,0.018,0.711,0.028,1.058-0.047l0.214-0.062c0.227-0.075,0.447-0.193,0.655-0.389c0.644-0.606,1.208-0.913,1.68-0.913
			c0.271,0,0.762,0.106,1.02,0.816c0.219,0.601,0.219,1.062,0.001,1.408c-0.221,0.35-0.61,0.488-1.025,0.564
			c0.081,0.006,0.162,0.011,0.25,0.011c0.258,0,0.52-0.022,0.781-0.045c0.143-0.013,0.286-0.021,0.429-0.032l0.583-3.582
			l-0.175-0.003L41.009,36.485z"/>
		<path d="M41.973,36.984L41.678,38.8C41.958,38.222,42.055,37.618,41.973,36.984z"/>
		<path d="M35.299,32.462c-0.472,0.616-1.121,1.063-2.152,1.063c-0.192,0-0.4-0.021-0.614-0.053c0.017,0.115,0.034,0.23,0.053,0.346
			c0.162,1.012,0.354,2.267-1.011,3.125l-0.756,0.629l-0.027,0.079l-0.108,0.035l-0.065,0.054c0.969,0.5,1.902,0.936,2.954,0.936
			c0.214,0,0.431-0.019,0.644-0.055l0.015-0.002l0.12-0.021l0.023,0.013c0.141-0.013,0.283-0.016,0.426-0.018
			c-0.582-1.21-0.447-2.625,0.476-3.702C35.94,34.128,35.782,33.448,35.299,32.462z"/>
		<polygon points="33.264,46.096 36.342,77.252 40.292,78.247 39.11,47.774 		"/>
		<path d="M54.125,39.354l-1.773-1.335c-0.088,0.205-0.168,0.424-0.248,0.655c-0.254,0.739-0.559,1.612-1.371,1.99
			c1.066-0.035,2.134-0.053,3.195,0.007l0.096,0.001c0.379,0,0.642-0.122,0.742-0.646C54.454,39.92,54.241,39.684,54.125,39.354z"/>
		<path d="M55.305,40.671c0.309-0.026,0.613-0.056,0.916-0.085l-0.755-0.355C55.426,40.402,55.369,40.542,55.305,40.671z"/>
		<rect x="45.951" y="48.023" width="5.597" height="30.971"/>
		<path d="M47.883,40.752l-0.086-0.021l-0.384-0.018l0.013-0.072l-2.664-0.642l-1.157,0.466c1.061,0.2,2.222,0.298,3.636,0.298
			C47.455,40.763,47.668,40.755,47.883,40.752z"/>
		<path d="M43.853,38.264c-0.408-0.53-0.862-1.122-0.946-1.912l-0.302,0.002c0.341,1.326,0.064,2.567-0.842,3.7l0.412,0.089
			c0.497-0.782,1.271-1.119,2.073-1.327C44.127,38.632,43.997,38.45,43.853,38.264z"/>
		<path d="M64.479,24.811c0.064-0.601,0.396-1.077,0.721-1.508c-0.124,0.024-0.254,0.037-0.389,0.037
			c-0.146,0-0.297-0.015-0.451-0.042l-0.076-0.023c-0.078-0.032-0.143-0.08-0.217-0.116c-0.32,0.27-0.668,0.436-0.992,0.55h0.001
			C63.795,23.708,64.262,24.082,64.479,24.811z"/>
		<path d="M60.829,22.521l-0.034-0.003c-0.188-0.014-0.361-0.053-0.538-0.091c-0.069,0.104-0.127,0.229-0.161,0.384l2.389-0.582
			l0.037-0.035l0.1,0.002l0.229-0.056c-0.066-0.092-0.146-0.175-0.205-0.275c-0.459,0.363-1.041,0.569-1.781,0.651L60.829,22.521z"
			/>
		<path d="M63.404,20.817c0.566,0.23,0.925,0.696,1.041,1.367l0.892-0.077l0.015-1.091l-0.645-1.126l-1.479-1.465l-0.438-0.009
			C63.29,19.051,63.666,19.821,63.404,20.817z"/>
		<path d="M66.529,24.173c0.145-0.025,0.289-0.047,0.438-0.047c0.352,0,0.684,0.08,1.01,0.234c0.623-0.478,0.944-0.935,0.938-1.354
			c-0.008-0.373-0.284-0.777-0.795-1.204c-0.037,0.173-0.1,0.332-0.199,0.466c-0.27,0.36-0.699,0.497-1.09,0.561
			C66.829,23.334,66.717,23.779,66.529,24.173z"/>
		<path d="M66.738,21.464c0.045-0.03,0.085-0.063,0.128-0.092l-0.531-0.033c0.035,0.118,0.063,0.236,0.074,0.36
			C66.518,21.616,66.629,21.537,66.738,21.464z"/>
		<path d="M65.393,24.558c0.275-0.322,0.496-0.68,0.61-1.094c-0.053,0.073-0.104,0.148-0.159,0.221
			c-0.26,0.345-0.453,0.631-0.554,0.924C65.324,24.591,65.357,24.575,65.393,24.558z"/>
		<path d="M63.833,17.615c0.951,0,1.228,0.711,1.378,1.356c0.604-0.478,0.936-0.871,0.734-1.566
			c-0.11-0.393-0.338-0.521-0.932-0.521c-0.096,0-0.19,0.003-0.287,0.006l-0.225,0.006c-0.671,0.009-0.867,0.159-0.925,0.248
			c-0.063,0.098-0.058,0.272,0.013,0.499C63.67,17.636,63.759,17.615,63.833,17.615z"/>
		<path d="M57.01,27.122c-0.051-0.099-0.086-0.193-0.107-0.287c-0.284,0.15-0.571,0.229-0.865,0.235
			c0.262,0.729,0.32,1.395,0.184,2.02c0.715-0.536,1.43-0.954,2.164-1.264c-0.007-0.013-0.017-0.024-0.023-0.037
			c-0.037,0.004-0.071,0.01-0.107,0.01c-0.408,0-0.795-0.19-1.178-0.587L57.01,27.122z"/>
		<path d="M58.238,26.375c-0.065,0.063-0.143,0.112-0.229,0.15c0.045,0.037,0.104,0.066,0.18,0.089
			C58.203,26.534,58.217,26.453,58.238,26.375z"/>
		<path d="M58.289,24.377c-0.023-0.144-0.029-0.28-0.021-0.411c-0.086-0.031-0.162-0.082-0.244-0.124
			c-0.058,0.027-0.113,0.053-0.172,0.074l0.004,0.067L58.289,24.377z"/>
		<path d="M58.243,19.208c-0.007,0.203-0.108,0.358-0.228,0.479l0.354,0.399l2.102,1.295l1.752-0.596l-0.561-2.377l-3.792,0.119
			C58.051,18.675,58.254,18.903,58.243,19.208z"/>
		<path d="M60.663,34.729c-0.101,0.306-0.241,0.567-0.413,0.791c0.107,0.014,0.215,0.025,0.324,0.043
			c0.005-0.305,0.059-0.606,0.16-0.902L60.663,34.729z"/>
		<path d="M59.377,36.201c-0.023,0.011-0.047,0.021-0.072,0.031c0,0.03,0,0.062,0,0.092l1.321,0.009
			C60.208,36.254,59.782,36.216,59.377,36.201z"/>
		<path d="M58.309,36.19l-0.139-0.002c-0.223,0-0.445,0.012-0.668,0.015c-0.021,0.048-0.045,0.095-0.07,0.14l0.892-0.013
			C58.314,36.284,58.311,36.236,58.309,36.19z"/>
		<path d="M59.833,27.488l0.782,0.369c0.167-0.218,0.392-0.414,0.707-0.493c0.015-0.104,0.039-0.198,0.074-0.287
			c-0.645-0.081-1.25-0.405-1.748-0.687c-0.035-0.024-0.063-0.057-0.097-0.084l-0.071,0.092l-0.123,0.628L59.833,27.488z"/>
		<path d="M55.618,21.049c0.301,0.298,0.688,0.361,1.215,0.373c0.047-0.29,0.146-0.549,0.312-0.768
			c-0.092-0.129-0.172-0.26-0.234-0.402l-0.84,0.333L55.618,21.049z"/>
		<path d="M57.846,35.449l-0.113-0.109c-0.004,0.038-0.004,0.076-0.01,0.112C57.764,35.452,57.805,35.449,57.846,35.449z"/>
		<path d="M63.48,24.789c0.095,0.087,0.188,0.177,0.295,0.264c-0.092-0.341-0.237-0.494-0.402-0.556
			C63.417,24.594,63.454,24.689,63.48,24.789z"/>
		<path d="M62.782,26.792l-0.226,0.495c0.022-0.047,0.045-0.089,0.067-0.136c0.06-0.123,0.121-0.249,0.183-0.373
			C62.799,26.784,62.791,26.787,62.782,26.792z"/>
		<path d="M65.885,30.119l0.178-0.01c0.127,0,0.254,0.013,0.383,0.034c0.029-0.122,0.08-0.24,0.142-0.355
			c-0.024-0.049-0.055-0.09-0.073-0.144c-0.043-0.112-0.022-0.206,0.018-0.287c-0.034-0.093-0.059-0.185-0.07-0.274
			c-0.953-0.239-1.618-0.772-1.994-1.557c-0.123,0.58-0.472,1.102-1.432,1.262l0.011,1.687l1.327,0.563
			C64.797,30.554,65.298,30.243,65.885,30.119z"/>
		<path d="M34.684,25.76l0.021,1.858l0.578,0.606l0.844,0.477c0.021-0.011,0.039-0.024,0.061-0.035
			c0.041-0.462,0.211-0.906,0.684-1.229c0.09-0.805,0.561-1.385,0.984-1.899c0.187-0.225,0.354-0.444,0.498-0.67l-0.188-0.188
			c-0.012,0.007-0.021,0.018-0.033,0.023l-0.101,0.041c-0.206,0.051-0.408,0.075-0.601,0.075c-0.873,0-1.474-0.53-1.908-1.054
			c-0.041,0.053-0.08,0.108-0.121,0.16c-0.408,0.532-0.759,0.991-0.721,1.634v0.015l0.011,0.179L34.684,25.76z"/>
		<path d="M61.568,29.932c0.017-0.002,0.033-0.003,0.048-0.003c0.028,0,0.056,0.006,0.085,0.007
			c-0.047-0.462,0.005-0.935,0.173-1.414c-0.035-0.026-0.067-0.054-0.101-0.083l-0.252,0.233L61.568,29.932z"/>
		<path d="M63.786,26.553c-0.181,0.285-0.333,0.598-0.488,0.921c-0.088,0.186-0.181,0.372-0.276,0.557
			C63.788,27.858,63.795,27.343,63.786,26.553z"/>
		<path d="M40.642,20.87c-0.151-0.33-0.317-0.67-0.515-1.031C40.244,20.206,40.415,20.551,40.642,20.87z"/>
		<path d="M43.347,17.14l-0.098-0.092c-0.14,0.086-0.283,0.162-0.427,0.23c-0.119,0.057-0.221,0.107-0.311,0.159l0.75-0.242
			L43.347,17.14z"/>
		<path d="M42.682,21.28c-0.016-0.03-0.025-0.061-0.041-0.09c-0.57-0.2-0.988-0.504-1.224-0.923
			c-0.203-0.361-0.263-0.796-0.212-1.309c-0.193,0.087-0.395,0.16-0.61,0.199c0.518,0.914,0.896,1.724,1.171,2.509l1.619,0.42
			l-0.033-0.302c-0.218-0.108-0.419-0.24-0.598-0.411L42.682,21.28z"/>
		<path d="M41.778,22.942c-0.047,0.166-0.112,0.326-0.199,0.479c0.132,0.108,0.297,0.185,0.523,0.226l-0.01-0.289l0.514,0.336
			l0.1,0.004l0.053,0.089c0.761,0.471,1.513,0.512,2.313,0.125l-0.082-0.184l0.276-0.013l-0.175-0.137
			c-0.014,0-0.031,0.001-0.045,0.001c-0.512,0-0.912-0.142-1.222-0.414c-0.269,0.124-0.537,0.192-0.812,0.192
			C42.556,23.357,42.153,23.186,41.778,22.942z"/>
		<path d="M44.692,22.005c-0.007,0.06-0.013,0.121-0.024,0.181c0.266,0.015,0.506,0.054,0.729,0.121
			c-0.066-0.134-0.111-0.279-0.145-0.432C45.071,21.938,44.885,21.981,44.692,22.005z"/>
		<path d="M36.329,22.161l-0.06,0.178c0.181,0.175,0.34,0.366,0.485,0.56c0.344,0.461,0.602,0.737,1.027,0.763
			c0.042-0.141,0.081-0.284,0.12-0.432c0.165-0.639,0.335-1.299,0.831-1.527c0.123-0.057,0.253-0.086,0.384-0.086
			c0.631,0,1.062,0.635,1.399,1.316l0.131,0.004l-0.008-0.926c-0.866-0.838-1.348-1.854-1.439-3.028l-0.33-0.308
			c-0.159,0.23-0.308,0.478-0.46,0.74c-0.565,0.974-1.231,2.06-2.678,2.131l0.384,0.619L36.329,22.161z"/>
		<path d="M45.28,20.688l0.564-2.478l-0.553-0.473l-1.02-0.077c-0.46,0.705-0.571,1.519-0.678,2.38
			c-0.025,0.209-0.059,0.416-0.09,0.621c0.057,0.012,0.111,0.027,0.167,0.033L45.28,20.688z"/>
		<path d="M42.241,20.099c-0.016-0.076-0.021-0.148-0.031-0.223c-0.016-0.058-0.033-0.112-0.049-0.17
			c-0.066-0.235-0.131-0.466-0.216-0.68c-0.036,0.358-0.001,0.654,0.123,0.875C42.11,19.977,42.18,20.034,42.241,20.099z"/>
		<path d="M35.958,23.11c0.08,0.104,0.161,0.202,0.242,0.294c-0.015-0.021-0.03-0.039-0.044-0.059
			c-0.065-0.087-0.129-0.163-0.193-0.243C35.961,23.105,35.96,23.107,35.958,23.11z"/>
		<path d="M41.235,17.704c-0.137-0.449-0.125-0.79,0.039-1.048c0.127-0.197,0.317-0.299,0.52-0.36
			c-0.458-0.188-0.895-0.328-1.261-0.328c-0.319,0-1.041,0.006-1.306,1.87c0.172,0.057,0.333,0.14,0.486,0.243
			C40.198,17.722,40.77,17.705,41.235,17.704z"/>
		<path d="M51.068,13.455l0.013-0.233h-0.788c0.159,0.165,0.299,0.35,0.406,0.564L51.068,13.455z"/>
		<path d="M51.438,15.935c-0.043,0-0.1,0.001-0.158,0.036c0.088-0.009,0.175-0.016,0.261-0.021
			C51.506,15.944,51.468,15.935,51.438,15.935z"/>
		<path d="M51.518,16.701c0.078,0.231,0.127,0.461,0.157,0.69l0.124,0.061c0.129-0.302,0.334-0.54,0.615-0.712
			c0.002-0.044-0.001-0.086,0.004-0.128c-0.223,0.038-0.443,0.054-0.663,0.066C51.674,16.685,51.598,16.695,51.518,16.701z"/>
		<path d="M46.979,18.233c0.003,0.014,0.003,0.028,0.006,0.043l0.147,0.149c0.731-0.081,0.93-0.44,0.966-1.118
			c-0.125,0.027-0.25,0.05-0.371,0.05c-0.293,0-0.57-0.087-0.832-0.248l-0.645,0.3C46.539,17.586,46.828,17.825,46.979,18.233z"/>
		<path d="M53.848,13.751l0.028,0.106l0.024,0.009c0.062,0.013,0.123,0.019,0.186,0.029l-0.002-0.674h-1.498
			c-0.002,0.041-0.002,0.08-0.003,0.121l1.188,0.473L53.848,13.751z"/>
		<path d="M54.127,16.284l-0.225-0.021l-0.115,0.221c0.411,0.124,0.715,0.438,0.988,0.728c0.309,0.327,0.557,0.574,0.897,0.537
			l-0.147-0.34c-0.117-0.038-0.203-0.109-0.242-0.252l-0.076-0.289l0.104-0.056c-0.033-0.231,0.133-0.362,0.28-0.444
			c0.005-0.104,0.007-0.208,0.009-0.312l-1.007-0.674l-0.438,0.512l0.123,0.24l-0.161,0.034L54.127,16.284z"/>
		<path d="M50.876,14.95c-0.021,0.176-0.058,0.337-0.108,0.488c0.185-0.155,0.4-0.25,0.67-0.25c0.215,0,0.424,0.054,0.631,0.11
			l0.261-0.226l-0.3-0.375l-0.668-0.03c-0.127,0.096-0.262,0.184-0.409,0.257L50.876,14.95z"/>
		<path d="M53.984,18.119c-0.303-0.234-0.582-0.443-0.867-0.438l-0.396,0.42c1.002,1.353,1.816,1.651,2.977,1.187
			c0.012-0.006,0.021-0.016,0.031-0.021l0.645-0.643c-0.01-0.079-0.025-0.157-0.021-0.236c-0.043-0.003-0.086-0.016-0.129-0.012
			c-0.307,0.23-0.611,0.349-0.926,0.349C54.768,18.726,54.352,18.403,53.984,18.119z"/>
		<path d="M47.588,19.571l-0.061-0.005c-0.054-0.004-0.102-0.016-0.15-0.024c0.012,0.392,0.061,0.696,0.248,0.938
			c0.351-0.494,0.889-0.811,1.383-1.09c0.945-0.535,1.516-0.917,1.355-1.979L50.361,17.4l-0.105-0.695l0.021,0.011l-0.002-0.025
			l-0.279-0.249l-0.066,0.031c-0.234,0.072-0.465,0.108-0.679,0.108c-0.093,0-0.183-0.014-0.271-0.027
			c-0.006,0.021-0.011,0.042-0.018,0.063c0.401,0.698,0.521,1.29,0.33,1.789c-0.209,0.543-0.764,0.931-1.646,1.151L47.588,19.571z"
			/>
		<path d="M48.109,16.178c0-0.01,0-0.021,0-0.032c-0.062-0.052-0.126-0.104-0.185-0.166l-0.057-0.078
			c-0.342-0.649-0.379-1.31-0.117-1.974c-0.595,0.11-0.99,0.306-1.13,0.59c-0.181,0.367,0.001,0.981,0.504,1.769L48.109,16.178z"/>
		<path d="M49.622,15.529l0.067-1.188l-0.666-1.119h-0.187c-0.01,0.091-0.024,0.178-0.04,0.266l0.056,2.003L49.622,15.529z"/>
	</g>
</g>
<g>
</g>
<g>
</g>
<g>
</g>
<g>
</g>
<g>
</g>
<g>
</g>
<g>
</g>
<g>
</g>
<g>
</g>
<g>
</g>
<g>
</g>
<g>
</g>
<g>
</g>
<g>
</g>
<g>
</g>
</svg>
