<?xml version="1.0" encoding="iso-8859-1"?>
<!-- Generator: Adobe Illustrator 16.0.0, SVG Export Plug-In . SVG Version: 6.00 Build 0)  -->
<!DOCTYPE svg PUBLIC "-//W3C//DTD SVG 1.1//EN" "http://www.w3.org/Graphics/SVG/1.1/DTD/svg11.dtd">
<svg version="1.1" id="Capa_1" xmlns="http://www.w3.org/2000/svg" xmlns:xlink="http://www.w3.org/1999/xlink" x="0px" y="0px"
	 width="97.75px" height="97.75px" viewBox="0 0 97.75 97.75" style="enable-background:new 0 0 97.75 97.75;" xml:space="preserve"
	>
<g>
	<path d="M48.875,0C21.883,0,0,21.882,0,48.875S21.883,97.75,48.875,97.75S97.75,75.868,97.75,48.875S75.867,0,48.875,0z
		 M20.639,66.156c-0.506,0.326-0.688,0.207-0.96-0.248c-11.27-18.924-1.943-43.312,19.106-49.926
		c0.707-0.222,1.438-0.369,2.144-0.596c0.502-0.161,0.603-0.002,0.6,0.483c-0.019,3.022-0.01,6.045-0.01,9.471
		c-0.041,3.001,0.135,6.41-0.292,9.804c-0.714,5.684-2.472,10.993-5.447,15.913C31.974,57.352,26.765,62.201,20.639,66.156z
		 M31.593,77.689c7.087-4.418,12.835-10.121,17.246-17.308c4.403,7.171,10.188,12.872,17.287,17.288
		C56.352,83.771,42.354,84.234,31.593,77.689z M82.116,55.52c-0.839,3.649-2.074,7.16-4.044,10.383
		c-0.321,0.524-0.532,0.539-1.021,0.227c-3.31-2.113-6.396-4.52-9.109-7.346c-5.89-6.141-9.678-13.368-11.045-21.828
		c-0.65-4.032-0.521-8.082-0.539-11.58c0-3.505,0.012-6.457-0.01-9.408c-0.005-0.535,0.059-0.689,0.656-0.538
		c6.898,1.744,12.709,5.278,17.41,10.609c4.422,5.015,7.107,10.862,8.1,17.469C83.113,47.528,83.025,51.552,82.116,55.52z"/>
</g>
<g>
</g>
<g>
</g>
<g>
</g>
<g>
</g>
<g>
</g>
<g>
</g>
<g>
</g>
<g>
</g>
<g>
</g>
<g>
</g>
<g>
</g>
<g>
</g>
<g>
</g>
<g>
</g>
<g>
</g>
</svg>
