<?xml version="1.0" encoding="iso-8859-1"?>
<!-- Generator: Adobe Illustrator 16.0.0, SVG Export Plug-In . SVG Version: 6.00 Build 0)  -->
<!DOCTYPE svg PUBLIC "-//W3C//DTD SVG 1.1//EN" "http://www.w3.org/Graphics/SVG/1.1/DTD/svg11.dtd">
<svg version="1.1" id="Capa_1" xmlns="http://www.w3.org/2000/svg" xmlns:xlink="http://www.w3.org/1999/xlink" x="0px" y="0px"
	 width="97.75px" height="97.75px" viewBox="0 0 97.75 97.75" style="enable-background:new 0 0 97.75 97.75;" xml:space="preserve"
	>
<g>
	<g>
		<path d="M48.875,0C21.883,0,0,21.882,0,48.875S21.883,97.75,48.875,97.75S97.75,75.868,97.75,48.875S75.867,0,48.875,0z
			 M65.055,50.169l2.215,0.008v-3.752c0.103-1.531,0.604-2.924,2.004-3.793c0.906-0.563,1.926-0.688,2.967-0.65
			c1.541,0.056,2.923,0.573,4.172,1.478c0.1,0.072,0.336,0.227,0.336,0.227l-1.756,2.362c0,0-0.245-0.197-0.346-0.272
			c-0.564-0.43-1.168-0.787-1.877-0.935c-1.334-0.279-2.189,0.236-2.396,1.588l0.002,3.741c1.102,0.001,3.424,0,4.527,0.001
			l0.007,2.812l-4.55-0.012l0.013,12.029c0,0.67-0.015,0.68-0.704,0.68c-0.589,0-1.178,0.002-1.766,0.002
			c-0.582,0-0.631-0.043-0.633-0.619c-0.004-1.955-0.002-3.91-0.002-5.862h-0.011l0.024-6.224l-2.229,0.006v-2.815H65.055z
			 M60.838,42.179c1.064,0.01,1.857,0.824,1.846,1.891c0.039,0.847-0.701,1.83-1.865,1.806c-1-0.022-1.84-0.844-1.84-1.814
			C58.977,43.02,59.816,42.171,60.838,42.179z M62.396,65.57h-3.125L59.27,50.085h3.107c0,0.002,0,0.731,0,0.733L62.396,65.57z
			 M55.346,42.682c0.002,7.182,0.002,15.46,0.002,22.645c0,0.092,0,0.172-0.002,0.245h-3.123c0-0.021,0-0.039,0-0.062
			c0-1.395,0.002-3.234,0.002-4.629v-6.917c-0.002,0-0.002,0-0.002,0V42.179h3.123C55.348,42.346,55.346,42.513,55.346,42.682z
			 M23.905,24.153c2.732,0,4.948,2.216,4.948,4.949s-2.216,4.948-4.948,4.948c-2.733,0-4.949-2.215-4.949-4.948
			S21.172,24.153,23.905,24.153z M13.042,44.181c0.308-0.906,0.86-1.656,1.514-2.329c1.758-1.811,3.911-3.013,6.213-3.971
			c4.045-1.686,8.295-2.443,12.645-2.756c0.949-0.07,1.898-0.082,2.849-0.088c2.805-0.041,5.581,0.256,8.324,0.775
			c2.761,0.522,5.463,1.268,8.028,2.437c0.322,0.146,0.441,0.218,0.76,0.37c1.083,0.518,1.154,1.93-1.443,1.147
			c-1.435-0.433-2.888-0.801-4.364-1.058c-3.609-0.63-7.238-0.999-10.905-0.761c-2.184,0.14-4.346,0.433-6.446,1.045
			c-3.45,1.005-6.585,2.585-9.201,5.112c-1.116,1.078-2.24,2.172-3.674,2.844c-1.012,0.474-2.061,0.553-3.098,0.104
			C13.027,46.527,12.608,45.47,13.042,44.181z M30.334,60.102c0,1.914-0.01,3.806,0.006,5.379c0,0.05-0.001,0.095-0.006,0.138H27.22
			c-0.001-0.045-0.003-0.093-0.003-0.149c-0.002-2.777,0-5.874-0.003-8.648c-0.002-0.573-0.043-1.146-0.179-1.706
			c-0.322-1.316-1.142-2.031-2.496-2.169c-1.501-0.152-2.91,0.572-3.521,1.83c-0.314,0.646-0.412,1.346-0.412,2.058
			c-0.003,2.731-0.003,5.784-0.003,8.517c0,0.107-0.003,0.192-0.008,0.271h-3.11c-0.003-0.036-0.012-0.063-0.012-0.104
			c0.009-2.63,0.01-5.578-0.001-8.209c-0.004-0.777-0.054-1.555-0.34-2.296c-0.732-1.909-3.498-2.747-5.104-1.54
			c-0.611,0.459-0.894,1.108-1.057,1.826c-0.089,0.389-0.118,0.783-0.118,1.182c0.001,2.864,0.001,6.047,0.001,8.914
			c-0.001,0.088-0.001,0.162-0.006,0.228h-3.12c0-0.021-0.007-0.034-0.007-0.058c0.007-3.114-0.037-6.549,0.02-9.662
			c0.036-2.012,0.738-3.771,2.453-4.98c1.368-0.965,2.922-1.158,4.545-0.982c1.53,0.168,2.902,0.721,4.066,1.74
			c0.203,0.178,0.323,0.102,0.482-0.035c1.508-1.279,3.271-1.778,5.221-1.757c3.059,0.035,5.404,2.149,5.738,5.188
			C30.442,56.859,30.271,58.654,30.334,60.102z M38.478,71.428c-1.445,1.514-3.312,2.008-5.304,2.168v-3.08
			c1.966-0.224,3.44-1.304,4.379-3.039c0.458-0.851,0.609-1.629,0.187-2.641l-6.101-14.619l3.654-0.008l0.204,0.458
			c1.271,3.413,2.555,6.819,3.836,10.228c0.103,0.271,0.213,0.539,0.318,0.807c0.039-0.002,0.076-0.003,0.112-0.006
			c0.57-1.85,1.137-3.701,1.71-5.549l1.919-6.078h3.455l-2.536,7.479c-1.097,3.146-2.183,6.298-3.294,9.438
			C40.44,68.616,39.688,70.159,38.478,71.428z M77.359,68.25c0,0-0.6,2.322-10.121,3.951c-7.922,1.354-18.317,1.163-23.89-2.305
			c-0.328-0.187-0.45-0.957,1.027-0.276c0,0,4.629,2.056,11.214,2.056c12.368-0.615,16.224-5.197,19.392-5.195
			C75.102,66.482,77.7,66.543,77.359,68.25z M90.025,59.048l-11.608-0.004l0.14,0.451c0.504,2.083,2.324,3.494,4.592,3.543
			c1.287,0.028,2.476-0.285,3.547-0.994c0.096-0.063,0.744-0.47,0.744-0.47s0.024,0.031,0.041,0.047l1.895,2.18
			c-0.055,0.064-0.46,0.41-0.562,0.486c-1.897,1.41-4.049,1.861-6.364,1.67c-2.421-0.2-4.386-1.246-5.818-3.212
			c-2.282-3.134-2.288-8.677,1.649-11.573c0.982-0.722,2.102-1.109,3.305-1.236c2.364-0.252,4.502,0.25,6.243,1.971
			c1.489,1.473,2.11,3.314,2.208,5.365c0.02,0.408-0.02,0.82-0.003,1.23L90.025,59.048z"/>
		<path d="M85.885,54.07c-1.088-1.264-2.472-1.778-4.104-1.396c-1.709,0.402-2.73,1.561-3.229,3.219l-0.112,0.354
			c1.25-0.011,2.916-0.005,4.164-0.005c0,0.001,0,0.004,0,0.004c1.265,0,2.896-0.007,4.158,0.006l-0.055-0.359
			C86.605,55.205,86.334,54.591,85.885,54.07z"/>
	</g>
</g>
<g>
</g>
<g>
</g>
<g>
</g>
<g>
</g>
<g>
</g>
<g>
</g>
<g>
</g>
<g>
</g>
<g>
</g>
<g>
</g>
<g>
</g>
<g>
</g>
<g>
</g>
<g>
</g>
<g>
</g>
</svg>
