<?xml version="1.0" encoding="iso-8859-1"?>
<!-- Generator: Adobe Illustrator 16.0.0, SVG Export Plug-In . SVG Version: 6.00 Build 0)  -->
<!DOCTYPE svg PUBLIC "-//W3C//DTD SVG 1.1//EN" "http://www.w3.org/Graphics/SVG/1.1/DTD/svg11.dtd">
<svg version="1.1" id="Capa_1" xmlns="http://www.w3.org/2000/svg" xmlns:xlink="http://www.w3.org/1999/xlink" x="0px" y="0px"
	 width="97.75px" height="97.75px" viewBox="0 0 97.75 97.75" style="enable-background:new 0 0 97.75 97.75;" xml:space="preserve"
	>
<g>
	<path d="M48.875,0C21.883,0,0,21.883,0,48.875S21.883,97.75,48.875,97.75S97.75,75.867,97.75,48.875S75.867,0,48.875,0z
		 M79.422,66.76c-3.26,0-5.904-2.643-5.904-5.902c0-0.635,0.103-1.243,0.287-1.815l-12.857-6.167
		c-0.652,0.811-1.643,1.34-2.762,1.34c-0.853,0-1.621-0.311-2.232-0.809l-5.586,4.904c0.436,0.748,0.689,1.616,0.689,2.547
		c0,2.805-2.276,5.078-5.081,5.078c-2.805,0-5.078-2.273-5.078-5.078c0-2.808,2.273-5.08,5.078-5.08
		c1.324,0,2.529,0.512,3.432,1.344l1.525-1.338l-6.396-4.086c-0.686,0.779-1.68,1.281-2.799,1.281c-2.068,0-3.744-1.679-3.744-3.746
		c0-2.068,1.676-3.745,3.744-3.745c1.023,0,1.949,0.412,2.625,1.076l5.939-4.121c-0.053-0.227-0.088-0.459-0.088-0.701
		c0-0.232,0.031-0.457,0.078-0.674l-3.988-0.898c-0.453,0.59-1.16,0.977-1.963,0.977c-0.68,0-1.297-0.275-1.746-0.719l-6.26,3.119
		c0.021,0.148,0.045,0.295,0.045,0.447c0,1.648-1.336,2.984-2.984,2.984c-0.838,0-1.592-0.348-2.135-0.904l-10.426,5.193
		c0.08,0.323,0.127,0.662,0.127,1.012c0,2.359-1.914,4.27-4.27,4.27c-2.359,0-4.27-1.91-4.27-4.27c0-2.355,1.91-4.271,4.27-4.271
		c1.465,0,2.756,0.74,3.525,1.863l10.301-5.131c-0.063-0.24-0.107-0.488-0.107-0.748c0-1.646,1.338-2.982,2.984-2.982
		c0.947,0,1.783,0.449,2.328,1.139l6.176-3.076c-0.016-0.086-0.021-0.174-0.027-0.262l-1.828-0.729
		c-0.434,0.527-1.084,0.873-1.822,0.873c-1.305,0-2.365-1.061-2.365-2.365c0-0.059,0.014-0.117,0.018-0.174l-0.896-0.361
		c-0.379,0.459-0.943,0.758-1.582,0.758c-1.135,0-2.055-0.92-2.055-2.057c0-1.133,0.92-2.055,2.055-2.055
		c1.082,0,1.959,0.838,2.041,1.898l1.035,0.414c0.434-0.482,1.055-0.787,1.75-0.787c1.307,0,2.367,1.059,2.367,2.363
		c0,0.021-0.006,0.043-0.008,0.064l1.674,0.67c0.441-0.688,1.209-1.146,2.086-1.146c0.711,0,1.348,0.301,1.801,0.781l3.848-1.918
		c-0.003-0.049-0.015-0.094-0.015-0.141c0-1.305,1.06-2.365,2.365-2.365c1.305,0,2.365,1.061,2.365,2.365
		c0,1.303-1.061,2.363-2.365,2.363c-0.709,0-1.338-0.316-1.77-0.809l-3.779,1.881c0.014,0.107,0.033,0.213,0.033,0.326
		c0,0.02-0.006,0.039-0.006,0.059l4.208,0.949c0.563-0.617,1.367-1.008,2.266-1.008c0.699,0,1.336,0.24,1.854,0.633l3.119-1.99
		c-0.047-0.193-0.08-0.389-0.08-0.596c0-1.371,1.113-2.482,2.484-2.482c0.588,0,1.123,0.213,1.549,0.555l2.178-1.389
		c-0.008-0.068-0.02-0.137-0.02-0.207c0-1.213,0.982-2.197,2.195-2.197c1.215,0,2.199,0.984,2.199,2.197
		c0,1.215-0.984,2.197-2.199,2.197c-0.586,0-1.115-0.232-1.51-0.609l-2.006,1.281c0.026,0.104,0.049,0.207,0.062,0.314l6.992,1.549
		l-0.328,1.486l-6.93-1.533c-0.42,0.783-1.234,1.32-2.185,1.32c-0.612,0-1.164-0.229-1.599-0.594l-2.969,1.893
		c0.17,0.383,0.271,0.803,0.271,1.25c0,1.701-1.379,3.078-3.08,3.078c-0.903,0-1.713-0.398-2.274-1.021l-5.81,4.033
		c0.176,0.435,0.275,0.903,0.275,1.399c0,0.398-0.078,0.777-0.193,1.14l6.836,4.364l2.875-2.521
		c-0.229-0.471-0.373-0.994-0.373-1.555c0-1.962,1.593-3.555,3.558-3.555c1.963,0,3.555,1.593,3.555,3.555
		c0,0.297-0.045,0.577-0.113,0.852l12.832,6.154c1.051-1.631,2.879-2.713,4.963-2.713c3.262,0,5.904,2.643,5.904,5.903
		C85.326,64.117,82.684,66.76,79.422,66.76z"/>
</g>
<g>
</g>
<g>
</g>
<g>
</g>
<g>
</g>
<g>
</g>
<g>
</g>
<g>
</g>
<g>
</g>
<g>
</g>
<g>
</g>
<g>
</g>
<g>
</g>
<g>
</g>
<g>
</g>
<g>
</g>
</svg>
