<?xml version="1.0" encoding="iso-8859-1"?>
<!-- Generator: Adobe Illustrator 16.0.0, SVG Export Plug-In . SVG Version: 6.00 Build 0)  -->
<!DOCTYPE svg PUBLIC "-//W3C//DTD SVG 1.1//EN" "http://www.w3.org/Graphics/SVG/1.1/DTD/svg11.dtd">
<svg version="1.1" id="Capa_1" xmlns="http://www.w3.org/2000/svg" xmlns:xlink="http://www.w3.org/1999/xlink" x="0px" y="0px"
	 width="97.75px" height="97.75px" viewBox="0 0 97.75 97.75" style="enable-background:new 0 0 97.75 97.75;" xml:space="preserve"
	>
<g>
	<g>
		<path d="M48.796,48.303c-7.1,0.047-12.805,5.815-12.794,12.941c0.009,7.15,5.696,12.85,12.833,12.861
			c7.197,0.014,12.853-5.584,12.899-12.767C61.782,54.083,55.998,48.256,48.796,48.303z"/>
		<path d="M48.875,0C21.883,0,0,21.882,0,48.875S21.883,97.75,48.875,97.75S97.75,75.868,97.75,48.875S75.867,0,48.875,0z
			 M48.845,85.587c-13.371-0.012-24.216-10.862-24.264-24.274c-0.045-13.52,10.882-24.503,24.34-24.466
			c13.38,0.037,24.238,10.91,24.261,24.294C73.202,74.707,62.357,85.602,48.845,85.587z M32.513,28.078
			c10.962-5.338,21.969-5.373,32.995-0.163c1.751,0.828,3.043,1.981,3.018,4.107c-0.094,2.925-2.903,4.472-5.854,3.302
			c-2.401-0.953-4.79-2.053-7.29-2.623c-6.724-1.533-13.224-0.67-19.407,2.445c-2.861,1.44-5.085,0.953-6.22-1.303
			C28.637,31.627,29.585,29.504,32.513,28.078z M76.812,24.446c-0.959,2.277-3.281,2.732-5.908,1.143
			c-7.549-4.567-15.709-6.608-24.521-6.061c-7.149,0.445-13.671,2.745-19.724,6.521c-2.353,1.467-4.435,1.049-5.578-0.975
			c-1.051-1.86-0.431-3.737,1.873-5.215c7.994-5.12,16.747-7.69,26.116-7.697c9.352,0.024,17.869,2.479,25.711,7.325
			C76.684,20.663,77.768,22.175,76.812,24.446z"/>
	</g>
</g>
<g>
</g>
<g>
</g>
<g>
</g>
<g>
</g>
<g>
</g>
<g>
</g>
<g>
</g>
<g>
</g>
<g>
</g>
<g>
</g>
<g>
</g>
<g>
</g>
<g>
</g>
<g>
</g>
<g>
</g>
</svg>
