<?xml version="1.0" encoding="iso-8859-1"?>
<!-- Generator: Adobe Illustrator 16.0.0, SVG Export Plug-In . SVG Version: 6.00 Build 0)  -->
<!DOCTYPE svg PUBLIC "-//W3C//DTD SVG 1.1//EN" "http://www.w3.org/Graphics/SVG/1.1/DTD/svg11.dtd">
<svg version="1.1" id="Capa_1" xmlns="http://www.w3.org/2000/svg" xmlns:xlink="http://www.w3.org/1999/xlink" x="0px" y="0px"
	 width="97.75px" height="97.75px" viewBox="0 0 97.75 97.75" style="enable-background:new 0 0 97.75 97.75;" xml:space="preserve"
	>
<g>
	<g>
		<path d="M48.875,0C21.882,0,0,21.883,0,48.875S21.882,97.75,48.875,97.75S97.75,75.867,97.75,48.875S75.868,0,48.875,0z
			 M58.957,58.637c0,0.176,0.093,0.361,0.279,0.547c1.625,1.553,2.957,3.404,2.957,6.439c0,6.955-5.327,10.955-13.318,10.955
			c-7.995,0-13.321-5.777-13.321-12.361v-5.164v-1.086v-5.164c0-6.589,5.326-12.359,13.321-12.359
			c7.991,0,13.318,3.996,13.318,10.955c0,3.033-1.332,4.882-2.957,6.438c-0.188,0.188-0.279,0.371-0.279,0.545
			c0,0.045-0.027,0.088-0.068,0.127C58.93,58.549,58.957,58.593,58.957,58.637z M48.875,29.768
			c-18.842,0-34.37,14.183-36.498,32.457c-0.167-1.414-0.252-2.848-0.252-4.301c0-20.298,16.453-36.752,36.75-36.752
			c20.296,0,36.75,16.454,36.75,36.752c0,1.453-0.086,2.887-0.252,4.301C83.244,43.95,67.717,29.768,48.875,29.768z"/>
		<path d="M46.432,56.902v-0.324c0-1.037,0.592-1.631,1.626-1.631c2.295,0,6.219-0.369,6.219-3.549c0-2.74-2.44-3.922-5.401-3.922
			c-3.477,0-5.403,2.736-5.403,5.326v5.226h0.045v0.164l-0.045-0.002v0.64h0.045v0.161h-0.045v5.227
			c0,2.592,1.927,5.328,5.403,5.328c2.961,0,5.401-1.186,5.401-3.922c0-3.184-3.924-3.553-6.219-3.553
			c-0.868,0-1.419-0.422-1.573-1.17H46.4v-3.998H46.432z"/>
	</g>
</g>
<g>
</g>
<g>
</g>
<g>
</g>
<g>
</g>
<g>
</g>
<g>
</g>
<g>
</g>
<g>
</g>
<g>
</g>
<g>
</g>
<g>
</g>
<g>
</g>
<g>
</g>
<g>
</g>
<g>
</g>
</svg>
