<?xml version="1.0" encoding="iso-8859-1"?>
<!-- Generator: Adobe Illustrator 16.0.0, SVG Export Plug-In . SVG Version: 6.00 Build 0)  -->
<!DOCTYPE svg PUBLIC "-//W3C//DTD SVG 1.1//EN" "http://www.w3.org/Graphics/SVG/1.1/DTD/svg11.dtd">
<svg version="1.1" id="Capa_1" xmlns="http://www.w3.org/2000/svg" xmlns:xlink="http://www.w3.org/1999/xlink" x="0px" y="0px"
	 width="97.75px" height="97.75px" viewBox="0 0 97.75 97.75" style="enable-background:new 0 0 97.75 97.75;" xml:space="preserve"
	>
<g>
	<g>
		<path d="M78.223,52.914c0.537-0.35,0.93-0.811,1.079-1.447c0.166-0.71-0.168-1.347-0.833-1.601
			c-0.271-0.104-0.558-0.128-0.902-0.128c-0.474-0.012-0.971,0.111-1.433,0.367c-1.409,0.783-2.002,2.067-2.202,3.595l-0.033,0.192
			c0.358-0.021,0.99-0.035,1.347-0.074C76.293,53.702,77.318,53.503,78.223,52.914z"/>
		<path d="M48.875,0C21.882,0,0,21.882,0,48.875S21.882,97.75,48.875,97.75S97.75,75.868,97.75,48.875S75.868,0,48.875,0z
			 M43.524,38.591c1.593-0.003,2.727,1.121,2.729,2.706c0.003,1.63-1.112,2.775-2.705,2.78c-1.627,0.004-2.702-1.089-2.711-2.757
			C40.829,39.692,41.91,38.594,43.524,38.591z M74.533,56.807c0.617,0.936,1.547,1.351,2.605,1.506
			c1.864,0.272,3.607-0.074,5.207-1.09l0.293-0.189l0.002,3.83l-0.279,0.146c-1.11,0.596-2.311,0.875-3.553,0.979
			c-2.355,0.198-4.56-0.22-6.479-1.695c-0.727-0.558-1.29-1.262-1.741-2.144c-0.396,0.976-0.899,1.785-1.616,2.444
			c-1.314,1.212-2.834,1.743-4.605,1.277c-1.79-0.47-2.682-1.771-3.085-3.483c-0.126-0.533-0.181-1.076-0.179-1.625
			c0.004-1.455,0-2.91-0.004-4.365c0-0.447-0.047-0.892-0.166-1.324c-0.261-0.946-0.918-1.354-1.894-1.191
			c-0.914,0.152-1.572,0.676-2.072,1.422c-0.747,1.117-1.053,2.385-1.219,3.693c-0.263,2.08-0.13,4.171-0.146,6.257l0.004,0.517
			H51.4l0.006-3.599c-0.196,0.15-0.235,0.337-0.32,0.488c-0.713,1.292-1.656,2.348-3.028,2.964
			c-2.545,1.143-5.276,0.023-6.268-2.574c-0.522-1.367-0.62-2.802-0.63-4.246c-0.009-1.295-0.002-2.592-0.002-3.888
			c0-0.14,0-0.276,0-0.483c-1.334,0.92-2.775,1.366-4.288,1.623c-0.653,0.109-1.313,0.186-1.975,0.188
			c-0.294,0.001-0.423,0.114-0.547,0.358c-1.596,3.139-3.704,5.888-6.313,8.25c-0.245,0.223-0.507,0.429-0.777,0.619
			c-0.947,0.661-1.913,0.703-2.898,0.068c-0.843-0.542-1.573-1.21-2.241-1.951c-2.052-2.275-3.47-4.928-4.593-7.753
			c-1.529-3.845-2.394-7.855-2.965-11.939l-0.038-0.258l4.523,0.003l0.038,0.454c0.162,1.314,0.374,2.615,0.633,3.913
			c0.946,4.743,2.615,9.172,5.646,13.01c0.603,0.763,0.597,0.77,1.238,0.062c1.487-1.641,2.716-3.459,3.746-5.418
			c0.122-0.234,0.119-0.35-0.134-0.496c-2.531-1.468-3.854-3.753-4.359-6.565c-0.302-1.682-0.271-3.352,0.322-4.98
			c1.034-2.837,3.499-4.207,6.471-3.905c3.321,0.337,4.701,2.604,4.969,5.208c0.188,1.825-0.072,3.583-0.698,5.299
			c-0.047,0.126-0.165,0.417-0.165,0.417s-0.254,0.024-0.437,0.039c-1.166,0.094-2.238-0.105-3.105-0.979
			c-0.125-0.125-0.297-0.321-0.297-0.321s0.067-0.271,0.104-0.399c0.358-1.255,0.563-2.531,0.264-3.833
			c-0.232-1.015-0.816-1.533-1.659-1.503c-0.589,0.021-0.992,0.337-1.286,0.819c-0.315,0.519-0.424,1.097-0.461,1.69
			c-0.089,1.483,0.13,2.914,0.929,4.187c1.334,2.129,3.358,2.827,5.758,2.602c2.035-0.189,3.796-1.002,5.211-2.502l0.128-0.162
			l3.53-0.003l0.002,8.633c0.001,0.692,0.028,1.417,0.241,2.084c0.476,1.487,1.838,1.813,2.996,0.755
			c0.61-0.557,0.983-1.271,1.289-2.021c0.781-1.922,1.127-3.946,1.384-5.99c0.131-1.043,0.244-2.088,0.27-3.139l0.011-0.322
			c0.979,0.012,2.62,0.012,3.601,0l0.002,2.882c0.047,0.009,0.092,0.018,0.137,0.026c0.09-0.117,0.18-0.233,0.268-0.353
			c1.204-1.639,2.766-2.691,4.842-2.775c2.586-0.104,4.278,1.328,4.7,3.894c0.125,0.756,0.146,1.517,0.146,2.28
			c0,1.426,0.01,2.852,0.018,4.277c0.002,0.319,0.062,0.629,0.169,0.93c0.31,0.873,1.108,1.168,1.907,0.694
			c0.474-0.28,0.785-0.71,1.048-1.182c0.584-1.054,0.91-2.201,1.205-3.358c0.468-1.83,1.151-3.552,2.392-5.016
			c1.908-2.252,5.143-3.158,7.922-2.169c1.817,0.646,2.972,1.901,3.209,3.854c0.229,1.868-0.437,3.396-1.957,4.516
			c-1.273,0.939-2.75,1.347-4.293,1.556c-0.744,0.101-1.49,0.128-2.238,0.14c-0.092,0-0.217-0.053-0.27,0.066
			C74.38,56.648,74.48,56.727,74.533,56.807z"/>
	</g>
</g>
<g>
</g>
<g>
</g>
<g>
</g>
<g>
</g>
<g>
</g>
<g>
</g>
<g>
</g>
<g>
</g>
<g>
</g>
<g>
</g>
<g>
</g>
<g>
</g>
<g>
</g>
<g>
</g>
<g>
</g>
</svg>
