<?xml version="1.0" encoding="iso-8859-1"?>
<!-- Generator: Adobe Illustrator 16.0.0, SVG Export Plug-In . SVG Version: 6.00 Build 0)  -->
<!DOCTYPE svg PUBLIC "-//W3C//DTD SVG 1.1//EN" "http://www.w3.org/Graphics/SVG/1.1/DTD/svg11.dtd">
<svg version="1.1" id="Capa_1" xmlns="http://www.w3.org/2000/svg" xmlns:xlink="http://www.w3.org/1999/xlink" x="0px" y="0px"
	 width="97.75px" height="97.75px" viewBox="0 0 97.75 97.75" style="enable-background:new 0 0 97.75 97.75;" xml:space="preserve"
	>
<g>
	<g>
		<path d="M53.688,81.593h0.939h7.889c0.014-0.104,0.021-0.206,0.021-0.305c0-1.937-2.021-3.509-4.508-3.509
			c-0.579,0-1.139,0.091-1.668,0.256C55.568,79.459,54.67,80.661,53.688,81.593z"/>
		<path d="M39.577,77.779c-2.485,0-4.506,1.572-4.506,3.509c0,0.099,0.007,0.198,0.021,0.305h8.101h0.666
			c-0.985-0.933-1.886-2.142-2.681-3.567C40.668,77.872,40.133,77.779,39.577,77.779z"/>
		<path d="M58.902,53.117l-1.104,0.347c-5.729,1.794-12.295,1.797-18.037,0.006l-1.104-0.346l-0.182,1.144
			c-0.362,2.289-0.546,4.59-0.546,6.838c0,9.949,3.269,18.732,7.948,21.359l0.228,0.128h5.336l0.229-0.128
			c4.68-2.626,7.948-11.408,7.948-21.359c0-2.301-0.181-4.603-0.534-6.844L58.902,53.117z M50.907,80.593h-4.269
			c-3.901-2.423-6.71-10.538-6.71-19.487c0-1.775,0.121-3.588,0.359-5.398c5.456,1.479,11.539,1.479,16.982-0.005
			c0.23,1.778,0.348,3.592,0.348,5.403C57.618,70.055,54.809,78.17,50.907,80.593z"/>
		<path d="M58.874,71.537c2.78-1.13,4.707-4.309,4.707-8.021c0-3.179-1.488-6.068-3.729-7.508c0.188,1.664,0.293,3.365,0.293,5.098
			C60.143,64.836,59.686,68.391,58.874,71.537z"/>
		<path d="M37.69,56.053c-2.223,1.448-3.652,4.272-3.652,7.463c0,3.688,1.907,6.819,4.623,7.976
			c-0.805-3.138-1.258-6.673-1.258-10.386C37.403,59.391,37.504,57.702,37.69,56.053z"/>
		<path d="M65.686,22.014c1.614,0,2.93-1.314,2.93-2.931s-1.314-2.931-2.93-2.931s-2.932,1.314-2.932,2.931
			S64.07,22.014,65.686,22.014z"/>
		<path d="M25.794,34.767c0,1.256,0.606,2.409,1.587,3.138c0.816-2.332,2.471-4.452,4.75-6.211
			c-0.688-0.539-1.534-0.851-2.417-0.851C27.553,30.843,25.794,32.604,25.794,34.767z"/>
		<path d="M48.875,0C21.882,0,0,21.883,0,48.875S21.882,97.75,48.875,97.75S97.75,75.867,97.75,48.875S75.868,0,48.875,0z
			 M70.602,39.559c0.092,0.544,0.15,1.092,0.15,1.651c0,5.448-4.52,10.201-11.189,12.711c0.015,0.082,0.025,0.161,0.037,0.242
			c3.305,1.442,5.506,5.122,5.506,9.353c0,4.785-2.816,8.827-6.729,9.769c-0.34,1.073-0.723,2.089-1.146,3.032
			c0.266-0.029,0.527-0.062,0.799-0.062c3.326,0,6.033,2.258,6.033,5.034c0,0.409-0.072,0.834-0.223,1.299
			c-0.102,0.317-0.395,0.53-0.727,0.53h-8.487h-1.681h-1.385l-0.011,0.006h-5.555l-0.01-0.006h-1.326h-1.466h-8.698
			c-0.33,0-0.623-0.213-0.725-0.526c-0.152-0.465-0.225-0.891-0.225-1.303c0-2.776,2.705-5.034,6.031-5.034
			c0.25,0,0.492,0.036,0.737,0.061c-0.423-0.939-0.805-1.955-1.144-3.025c-3.852-0.961-6.658-4.988-6.658-9.771
			c0-4.188,2.17-7.854,5.428-9.318c0.014-0.092,0.025-0.184,0.041-0.276c-6.67-2.511-11.188-7.265-11.188-12.711
			c0-0.595,0.069-1.177,0.174-1.751c-1.653-0.97-2.698-2.748-2.698-4.692c0-3.005,2.442-5.448,5.445-5.448
			c1.373,0,2.679,0.545,3.683,1.471c3.878-2.528,9.152-4.104,14.975-4.175l3.395-10.726c0.119-0.379,0.519-0.604,0.901-0.512
			l8.876,2.091c0.648-1.659,2.256-2.841,4.143-2.841c2.457,0,4.453,1.998,4.453,4.456c0,2.457-1.996,4.456-4.453,4.456
			s-4.455-1.999-4.455-4.456c0-0.041,0.011-0.079,0.012-0.119l-8.235-1.939l-3.041,9.617c5.568,0.199,10.599,1.767,14.312,4.225
			c1.01-0.974,2.332-1.548,3.757-1.548c3.004,0,5.448,2.443,5.448,5.448C73.48,36.806,72.367,38.619,70.602,39.559z"/>
		<path d="M41.006,47.043c-0.297,0.298-0.297,0.78,0,1.078c1.634,1.635,4.198,2.429,7.841,2.429c0.01,0,0.019-0.005,0.028-0.005
			s0.018,0.005,0.026,0.005c3.642,0,6.207-0.794,7.841-2.429c0.298-0.298,0.298-0.78,0.001-1.078c-0.298-0.298-0.781-0.298-1.079,0
			c-1.334,1.333-3.546,1.982-6.763,1.982c-0.009,0-0.018,0.005-0.026,0.005c-0.01,0-0.019-0.005-0.028-0.005
			c-3.217,0-5.429-0.649-6.762-1.982C41.788,46.745,41.305,46.745,41.006,47.043z"/>
		<path d="M56.355,35.265c-1.787,0-3.242,1.454-3.242,3.243c0,1.788,1.455,3.241,3.242,3.241s3.242-1.453,3.242-3.241
			C59.598,36.719,58.143,35.265,56.355,35.265z"/>
		<path d="M41.407,41.749c1.789,0,3.242-1.453,3.242-3.241c0-1.789-1.453-3.243-3.242-3.243c-1.787,0-3.242,1.454-3.242,3.243
			C38.165,40.296,39.62,41.749,41.407,41.749z"/>
		<path d="M68.033,30.843c-0.936,0-1.812,0.338-2.516,0.927c2.267,1.772,3.9,3.904,4.69,6.25c1.077-0.716,1.748-1.916,1.748-3.253
			C71.957,32.604,70.195,30.843,68.033,30.843z"/>
	</g>
</g>
<g>
</g>
<g>
</g>
<g>
</g>
<g>
</g>
<g>
</g>
<g>
</g>
<g>
</g>
<g>
</g>
<g>
</g>
<g>
</g>
<g>
</g>
<g>
</g>
<g>
</g>
<g>
</g>
<g>
</g>
</svg>
