<?xml version="1.0" encoding="iso-8859-1"?>
<!-- Generator: Adobe Illustrator 16.0.0, SVG Export Plug-In . SVG Version: 6.00 Build 0)  -->
<!DOCTYPE svg PUBLIC "-//W3C//DTD SVG 1.1//EN" "http://www.w3.org/Graphics/SVG/1.1/DTD/svg11.dtd">
<svg version="1.1" id="Capa_1" xmlns="http://www.w3.org/2000/svg" xmlns:xlink="http://www.w3.org/1999/xlink" x="0px" y="0px"
	 width="97.75px" height="97.75px" viewBox="0 0 97.75 97.75" style="enable-background:new 0 0 97.75 97.75;" xml:space="preserve"
	>
<g>
	<path d="M48.875,0C21.882,0,0,21.883,0,48.875S21.882,97.75,48.875,97.75S97.75,75.867,97.75,48.875S75.868,0,48.875,0z
		 M46.767,55.04c-0.28,3.964-0.689,7.918-1.044,11.876c-0.193,2.15-0.393,4.302-0.595,6.514c-2.95,0-5.862,0-8.901,0
		c0.043-0.627,0.077-1.244,0.132-1.861c0.577-6.426,1.154-12.853,1.738-19.277c0.101-1.109,0.277-2.211,0.342-3.322
		c0.104-1.766-0.521-2.404-2.306-2.342c-2.062,0.07-3.881,0.956-5.673,1.859c-1.19,0.6-2.335,1.291-3.532,1.879
		c-0.232,0.113-0.642,0.354-0.642,0.354s-0.055,0.504-0.082,0.823c-0.585,6.587-1.205,13.173-1.811,19.759
		c-0.064,0.69-0.101,1.385-0.156,2.162c-3.004,0-5.861,0-8.864,0c0.806-9.146,1.605-18.25,2.416-27.469c-0.795,0-1.543,0-2.452,0
		c0.193-2.318,0.375-4.515,0.57-6.872c0.751,0,1.436,0,2.12,0c1.369,0,2.738-0.002,4.106,0.001c2.133,0.005,3.352,0.938,3.94,3.012
		c0.035,0.119,0.078,0.235,0.154,0.463c1.316-0.601,2.59-1.211,3.886-1.767c3.116-1.341,6.354-2.347,9.752-2.39
		c3.906-0.049,6.992,1.618,7.317,6.337C47.419,48.173,47.008,51.622,46.767,55.04z M59.123,71.755
		c-0.049,0.563-0.129,1.122-0.2,1.722c-3.01,0-5.955,0-9.014,0c1.284-14.115,2.565-28.17,3.858-42.361c-0.863,0-1.638,0-2.529,0
		l0.66-6.896l2,0.003c1.752,0,3.502-0.013,5.252,0.002c2.316,0.02,3.942,1.646,3.777,3.946c-0.285,3.962-0.674,7.916-1.021,11.873
		c-0.287,3.261-0.578,6.521-0.868,9.78c-0.359,4.05-0.729,8.1-1.082,12.149C59.671,65.232,59.404,68.493,59.123,71.755z
		 M81.035,40.976c-3.378,4.812-6.75,9.629-10.155,14.422c-0.401,0.566-0.44,0.957-0.104,1.594l8.621,16.535l-8.769,0.008
		c-0.539,0.009-0.862-0.141-1.122-0.641c-2.811-5.405-5.648-10.797-8.439-16.211c-0.158-0.309-0.121-0.883,0.066-1.181
		c3.362-5.315,6.76-10.611,10.174-15.896c0.176-0.271,0.446-0.557,0.875-0.562l10.231-0.002
		C81.984,39.672,81.447,40.389,81.035,40.976z"/>
</g>
<g>
</g>
<g>
</g>
<g>
</g>
<g>
</g>
<g>
</g>
<g>
</g>
<g>
</g>
<g>
</g>
<g>
</g>
<g>
</g>
<g>
</g>
<g>
</g>
<g>
</g>
<g>
</g>
<g>
</g>
</svg>
