<?xml version="1.0" encoding="iso-8859-1"?>
<!-- Generator: Adobe Illustrator 16.0.0, SVG Export Plug-In . SVG Version: 6.00 Build 0)  -->
<!DOCTYPE svg PUBLIC "-//W3C//DTD SVG 1.1//EN" "http://www.w3.org/Graphics/SVG/1.1/DTD/svg11.dtd">
<svg version="1.1" id="Capa_1" xmlns="http://www.w3.org/2000/svg" xmlns:xlink="http://www.w3.org/1999/xlink" x="0px" y="0px"
	 width="97.75px" height="97.75px" viewBox="0 0 97.75 97.75" style="enable-background:new 0 0 97.75 97.75;" xml:space="preserve"
	>
<g>
	<path d="M48.875,0C21.882,0,0,21.883,0,48.875S21.882,97.75,48.875,97.75S97.75,75.867,97.75,48.875S75.868,0,48.875,0z
		 M72.055,43.457C68.322,51.66,60.753,55.68,51.928,54.146c-8.32-1.444-12.444-7.732-11.052-16.854
		c1.067-6.999,6.512-11.245,13.297-10.388c4.216,0.533,6.868,3.066,7.618,7.055c0.586,3.125-0.303,6.072-3.314,7.901
		c-4.194,1.682-5.403-1.494-5.403-1.494s1.575-0.138,2.258-1.105c1.453-2.084,1.265-4.204-0.845-5.584
		c-2.325-1.524-4.934,0.155-5.969,1.872c-2.428,4.02-2.082,8.134,1.366,11.24c3.629,3.27,7.706,2.227,11.251-0.525
		c5.349-4.152,5.896-14.017,1.229-19.391c-4.674-5.383-13.386-5.668-18.585-0.541c-4.911,4.843-5.43,11.122-5.338,17.479
		c0.067,4.751,0.711,35.589,0.711,35.589l-15.459,4.117c0,0,5.838-46.845,7.78-64.917l6.562-0.111
		c0.095,1.966,0.832,5.304,0.832,5.304c1.468-1.592,3.216-3.442,5.052-4.982c5.719-5.472,16.378-6.355,23.146-0.941
		C73.865,23.31,76.072,34.628,72.055,43.457z"/>
</g>
<g>
</g>
<g>
</g>
<g>
</g>
<g>
</g>
<g>
</g>
<g>
</g>
<g>
</g>
<g>
</g>
<g>
</g>
<g>
</g>
<g>
</g>
<g>
</g>
<g>
</g>
<g>
</g>
<g>
</g>
</svg>
