<?xml version="1.0" encoding="iso-8859-1"?>
<!-- Generator: Adobe Illustrator 16.0.0, SVG Export Plug-In . SVG Version: 6.00 Build 0)  -->
<!DOCTYPE svg PUBLIC "-//W3C//DTD SVG 1.1//EN" "http://www.w3.org/Graphics/SVG/1.1/DTD/svg11.dtd">
<svg version="1.1" id="Capa_1" xmlns="http://www.w3.org/2000/svg" xmlns:xlink="http://www.w3.org/1999/xlink" x="0px" y="0px"
	 width="97.75px" height="97.75px" viewBox="0 0 97.75 97.75" style="enable-background:new 0 0 97.75 97.75;" xml:space="preserve"
	>
<g>
	<path d="M48.875,0C21.882,0,0,21.883,0,48.875S21.882,97.75,48.875,97.75S97.75,75.867,97.75,48.875S75.868,0,48.875,0z
		 M11.25,48.875c0-20.779,16.845-37.625,37.625-37.625c0.925,0,1.829,0.073,2.736,0.139c1.142,4.356,6.308,25.296,5.988,46.05
		c-14.771,1.313-32.671,0.5-46.194-5.5C11.323,50.928,11.25,49.908,11.25,48.875z M52.484,86.318
		c-1.188,0.111-2.391,0.182-3.609,0.182c-17.879,0-32.813-12.484-36.644-29.2c9.868,3.892,21.237,5.248,32.174,5.248
		c4.465,0,8.849,0.216,13.029-0.139C56.98,70.925,55.498,78.914,52.484,86.318z M57.521,85.463
		c2.658-7.496,4.02-15.718,4.431-23.943c10.405-1.158,18.979-3.01,23.536-4.106C82.264,71.288,71.379,82.198,57.521,85.463z
		 M62.081,56.979c0.269-20.463-4.279-39.708-5.642-44.969C73.593,15.517,86.5,30.689,86.5,48.875c0,1.275-0.068,2.529-0.189,3.773
		C82.852,53.514,73.593,55.666,62.081,56.979z"/>
</g>
<g>
</g>
<g>
</g>
<g>
</g>
<g>
</g>
<g>
</g>
<g>
</g>
<g>
</g>
<g>
</g>
<g>
</g>
<g>
</g>
<g>
</g>
<g>
</g>
<g>
</g>
<g>
</g>
<g>
</g>
</svg>
