<?xml version="1.0" encoding="iso-8859-1"?>
<!-- Generator: Adobe Illustrator 16.0.0, SVG Export Plug-In . SVG Version: 6.00 Build 0)  -->
<!DOCTYPE svg PUBLIC "-//W3C//DTD SVG 1.1//EN" "http://www.w3.org/Graphics/SVG/1.1/DTD/svg11.dtd">
<svg version="1.1" id="Capa_1" xmlns="http://www.w3.org/2000/svg" xmlns:xlink="http://www.w3.org/1999/xlink" x="0px" y="0px"
	 width="97.75px" height="97.75px" viewBox="0 0 97.75 97.75" style="enable-background:new 0 0 97.75 97.75;" xml:space="preserve"
	>
<g>
	<g>
		<path d="M68.951,50.705c-7.309-4.373-16.602-6.766-26.209-6.766c-6.133,0-10.347,0.874-14.473,2.007
			c-1.525,0.43-2.283,1.504-2.283,3.065c0,1.591,1.289,2.878,2.867,2.878c0.67,0,1.07-0.212,1.786-0.408
			c3.32-0.885,7.333-1.535,11.979-1.535c9.062,0,17.338,2.354,23.308,5.896c0.542,0.314,1.042,0.637,1.84,0.637
			c1.596,0,2.86-1.283,2.86-2.873C70.626,52.3,70.175,51.407,68.951,50.705z"/>
		<path d="M64.594,61.46c-6.158-3.692-13.316-5.535-21.35-5.535c-4.689,0-9.205,0.591-13.737,1.624
			C28.4,57.76,27.51,58.527,27.51,60.07c0,1.199,0.93,2.306,2.323,2.306c0.451,0,1.208-0.231,1.81-0.362
			c3.696-0.77,7.649-1.272,11.577-1.272c7.039,0,13.672,1.69,18.992,4.909c0.556,0.339,0.96,0.545,1.556,0.545
			c1.205,0,2.28-0.973,2.28-2.295C66.048,62.542,65.512,61.996,64.594,61.46z"/>
		<path d="M48.875,0C21.882,0,0,21.882,0,48.875S21.882,97.75,48.875,97.75S97.75,75.868,97.75,48.875S75.868,0,48.875,0z
			 M48.875,85.579c-20.27,0-36.706-16.433-36.706-36.704c0-20.272,16.436-36.704,36.706-36.704c20.27,0,36.706,16.432,36.706,36.704
			C85.581,69.146,69.146,85.579,48.875,85.579z"/>
		<path d="M73.891,38.409c-8.283-4.865-19.623-7.082-30.4-7.082c-6.35,0-12.189,0.718-17.422,2.26
			c-1.333,0.394-2.57,1.514-2.57,3.509c0,1.958,1.502,3.507,3.461,3.507c0.676,0,1.349-0.267,1.883-0.401
			c4.63-1.257,9.685-1.763,14.662-1.763c9.971,0,20.28,2.194,26.926,6.177c0.699,0.384,1.144,0.566,1.891,0.566
			c1.854,0,3.462-1.438,3.462-3.439C75.781,39.995,75.007,39.042,73.891,38.409z"/>
	</g>
</g>
<g>
</g>
<g>
</g>
<g>
</g>
<g>
</g>
<g>
</g>
<g>
</g>
<g>
</g>
<g>
</g>
<g>
</g>
<g>
</g>
<g>
</g>
<g>
</g>
<g>
</g>
<g>
</g>
<g>
</g>
</svg>
