<?xml version="1.0" encoding="iso-8859-1"?>
<!-- Generator: Adobe Illustrator 16.0.0, SVG Export Plug-In . SVG Version: 6.00 Build 0)  -->
<!DOCTYPE svg PUBLIC "-//W3C//DTD SVG 1.1//EN" "http://www.w3.org/Graphics/SVG/1.1/DTD/svg11.dtd">
<svg version="1.1" id="Capa_1" xmlns="http://www.w3.org/2000/svg" xmlns:xlink="http://www.w3.org/1999/xlink" x="0px" y="0px"
	 width="97.75px" height="97.75px" viewBox="0 0 97.75 97.75" style="enable-background:new 0 0 97.75 97.75;" xml:space="preserve"
	>
<g>
	<g>
		<path d="M34.154,45.278c-0.042-0.652-0.512-1.021-1.179-1.056c-0.514-0.026-1.03-0.011-1.545-0.013c-0.558-0.002-1.115,0-1.686,0
			v4.258c1.08,0,2.108,0.039,3.131-0.014c0.625-0.034,1.065-0.479,1.172-1.065C34.171,46.7,34.198,45.979,34.154,45.278z"/>
		<path d="M79.26,43.929c-0.824-0.119-1.688-0.145-2.515-0.045c-0.642,0.077-1.31,0.675-1.347,1.537l0.015,6.927
			c0.039,0.698,0.624,1.303,1.174,1.379c0.812,0.115,1.656,0.14,2.464,0.034c0.83-0.108,1.377-0.688,1.396-1.649l0.005-6.722
			C80.398,44.641,79.885,44.021,79.26,43.929z"/>
		<path d="M45.603,43.937c-0.825-0.12-1.688-0.146-2.514-0.045c-0.644,0.078-1.31,0.676-1.348,1.538l0.014,6.925
			c0.04,0.701,0.625,1.302,1.175,1.381c0.81,0.115,1.656,0.137,2.465,0.033c0.829-0.107,1.375-0.688,1.394-1.649l0.005-6.723
			C46.741,44.648,46.228,44.028,45.603,43.937z"/>
		<path d="M20.708,43.937c-0.825-0.12-1.688-0.146-2.514-0.045c-0.644,0.078-1.31,0.676-1.348,1.538l0.015,6.925
			c0.04,0.701,0.624,1.302,1.174,1.381c0.81,0.115,1.656,0.137,2.464,0.033c0.828-0.107,1.376-0.688,1.394-1.649l0.005-6.723
			C21.847,44.648,21.333,44.028,20.708,43.937z"/>
		<path d="M48.875,0C21.882,0,0,21.883,0,48.875S21.882,97.75,48.875,97.75c26.992,0,48.875-21.883,48.875-48.875S75.867,0,48.875,0
			z M6.726,56.047c-0.728-0.109-1.387-0.646-1.855-1.21c-0.946-1.139-1.278-2.496-1.479-3.928c-0.285-2.007-0.296-4.014,0.359-5.957
			c0.235-0.694,0.569-1.364,0.992-1.968c0.589-0.841,1.516-1.288,2.534-1.372c1.406-0.116,2.835-0.01,4.427,0.114
			c-0.173,0.865-0.316,1.657-0.45,2.321c-1.001-0.114-1.873-0.18-2.812-0.186c-1.236-0.004-1.907,0.477-2.328,1.642
			c-0.477,1.322-0.543,2.659-0.427,4.037c0.074,0.885,0.168,1.783,0.409,2.636c0.346,1.23,0.993,1.647,2.262,1.667
			c0.53,0.007,1.063,0.024,1.59-0.008c0.51-0.03,1.018-0.121,1.583-0.19c0.147,0.727,0.293,1.486,0.447,2.246
			C10.195,56.143,8.461,56.311,6.726,56.047z M22.586,55.379c-2.088,1.126-4.238,1.131-6.344,0.048
			c-1.14-0.587-1.777-1.556-1.752-2.903l0.002-7.472c-0.014-1.177,0.531-2.038,1.475-2.666c1.31-0.871,2.781-1.031,4.301-0.872
			c1.039,0.108,2.011,0.429,2.832,1.111c0.727,0.604,1.149,1.362,1.149,2.328c0,2.524-0.007,5.048,0.009,7.572
			C24.266,53.82,23.686,54.786,22.586,55.379z M34.052,55.954l-2.716-5.425l-1.612-0.004l0.005,5.431h-2.448V41.824l6.186,0.019
			c1.474,0.058,2.349,1.016,2.787,2.354c0.432,1.313,0.403,2.653-0.049,3.963c-0.39,1.132-1.146,1.929-2.402,2.29
			c0.767,1.423,2.161,4.071,2.933,5.505L34.052,55.954L34.052,55.954z M47.482,55.461c-2.089,1.127-4.24,1.132-6.344,0.05
			c-1.142-0.588-1.778-1.64-1.752-2.987l0.002-7.472c-0.014-1.177,0.531-2.038,1.474-2.666c1.31-0.871,2.782-1.031,4.302-0.872
			c1.039,0.108,2.012,0.429,2.832,1.111c0.726,0.604,1.23,1.362,1.23,2.328c0.002,2.524-0.006,5.048,0.01,7.572
			C49.244,53.82,48.58,54.868,47.482,55.461z M60.465,44.293h-5.83l-0.002,3.751l5.034-0.002v2.38h-5.044l0.006,5.526h-2.408
			l0.002-14.181c0.008,0.001,0.016,0.001,0.023,0.001h8.225L60.465,44.293z M63.055,55.948c0.012-4.156,0.014-10.045-0.002-14.181
			h2.412l-0.025,11.688h5.812l0.005,2.493H63.055z M81.139,55.453c-2.088,1.126-4.238,1.133-6.344,0.049
			c-1.141-0.588-1.777-1.639-1.752-2.986l0.003-7.472c-0.015-1.176,0.531-2.039,1.474-2.666c1.311-0.871,2.782-1.031,4.303-0.872
			c1.037,0.107,2.012,0.43,2.83,1.11c0.728,0.604,1.232,1.363,1.232,2.329c0.002,2.524-0.008,5.047,0.01,7.571
			C82.902,53.812,82.238,54.859,81.139,55.453z M90.818,44.279l-0.016,11.655h-2.437l-0.001-11.642c-0.066,0-3.641,0-3.705,0v-2.51
			l9.926,0.002v2.495H90.818z"/>
	</g>
</g>
<g>
</g>
<g>
</g>
<g>
</g>
<g>
</g>
<g>
</g>
<g>
</g>
<g>
</g>
<g>
</g>
<g>
</g>
<g>
</g>
<g>
</g>
<g>
</g>
<g>
</g>
<g>
</g>
<g>
</g>
</svg>
