<?xml version="1.0" encoding="iso-8859-1"?>
<!-- Generator: Adobe Illustrator 16.0.0, SVG Export Plug-In . SVG Version: 6.00 Build 0)  -->
<!DOCTYPE svg PUBLIC "-//W3C//DTD SVG 1.1//EN" "http://www.w3.org/Graphics/SVG/1.1/DTD/svg11.dtd">
<svg version="1.1" id="Capa_1" xmlns="http://www.w3.org/2000/svg" xmlns:xlink="http://www.w3.org/1999/xlink" x="0px" y="0px"
	 width="97.75px" height="97.75px" viewBox="0 0 97.75 97.75" style="enable-background:new 0 0 97.75 97.75;" xml:space="preserve"
	>
<g>
	<path d="M48.875,0C21.883,0,0,21.883,0,48.875S21.883,97.75,48.875,97.75S97.75,75.867,97.75,48.875S75.867,0,48.875,0z
		 M48.372,15.637c5.657,0,10.248,4.589,10.248,10.245c0,5.659-4.591,10.247-10.248,10.247c-5.66,0-10.249-4.588-10.249-10.247
		C38.123,20.226,42.712,15.637,48.372,15.637z M79.393,46.324L62.909,57.312v24.791l-0.75,0.011l-14.389-8.98l-13.725,8.933
		l-0.624-0.014V56.367L18.359,46.324c-4.613-3.076-5.862-9.309-2.785-13.92c3.071-4.616,9.304-5.867,13.922-2.783l19.379,12.917
		l19.38-12.917c4.617-3.082,10.849-1.829,13.921,2.783C85.253,37.016,84.005,43.248,79.393,46.324z"/>
</g>
<g>
</g>
<g>
</g>
<g>
</g>
<g>
</g>
<g>
</g>
<g>
</g>
<g>
</g>
<g>
</g>
<g>
</g>
<g>
</g>
<g>
</g>
<g>
</g>
<g>
</g>
<g>
</g>
<g>
</g>
</svg>
