<?xml version="1.0" encoding="iso-8859-1"?>
<!-- Generator: Adobe Illustrator 16.0.0, SVG Export Plug-In . SVG Version: 6.00 Build 0)  -->
<!DOCTYPE svg PUBLIC "-//W3C//DTD SVG 1.1//EN" "http://www.w3.org/Graphics/SVG/1.1/DTD/svg11.dtd">
<svg version="1.1" id="Capa_1" xmlns="http://www.w3.org/2000/svg" xmlns:xlink="http://www.w3.org/1999/xlink" x="0px" y="0px"
	 width="97.75px" height="97.75px" viewBox="0 0 97.75 97.75" style="enable-background:new 0 0 97.75 97.75;" xml:space="preserve"
	>
<g>
	<g>
		<path d="M48.875,0C21.882,0,0,21.883,0,48.875S21.882,97.75,48.875,97.75S97.75,75.867,97.75,48.875S75.868,0,48.875,0z
			 M59.201,9.067l-6.641,39.232l-8.19,1.062L40.161,9.067H59.201z M70.159,83.906l-2.171,0.936
			c-5.906,2.549-12.241,3.842-18.83,3.842c-11.095,0-19.187-3.74-19.525-3.896l-2.042-0.973V60.326l2.208-0.934
			c6.044-2.539,12.443-3.824,19.014-3.824c10.912,0,18.516,3.518,19.346,3.923l2.001,0.974L70.159,83.906L70.159,83.906z"/>
		<path d="M35.393,64.705v14.85c2.669,0.92,7.668,2.289,13.766,2.289c4.569,0,9.009-0.768,13.198-2.279V64.674
			c-2.599-0.912-7.483-2.267-13.544-2.267C44.219,62.407,39.705,63.18,35.393,64.705z"/>
	</g>
</g>
<g>
</g>
<g>
</g>
<g>
</g>
<g>
</g>
<g>
</g>
<g>
</g>
<g>
</g>
<g>
</g>
<g>
</g>
<g>
</g>
<g>
</g>
<g>
</g>
<g>
</g>
<g>
</g>
<g>
</g>
</svg>
