<?xml version="1.0" encoding="iso-8859-1"?>
<!-- Generator: Adobe Illustrator 16.0.0, SVG Export Plug-In . SVG Version: 6.00 Build 0)  -->
<!DOCTYPE svg PUBLIC "-//W3C//DTD SVG 1.1//EN" "http://www.w3.org/Graphics/SVG/1.1/DTD/svg11.dtd">
<svg version="1.1" id="Capa_1" xmlns="http://www.w3.org/2000/svg" xmlns:xlink="http://www.w3.org/1999/xlink" x="0px" y="0px"
	 width="97.75px" height="97.75px" viewBox="0 0 97.75 97.75" style="enable-background:new 0 0 97.75 97.75;" xml:space="preserve"
	>
<g>
	<g>
		<path d="M48.875,0C21.883,0,0,21.883,0,48.875S21.883,97.75,48.875,97.75S97.75,75.867,97.75,48.875S75.867,0,48.875,0z
			 M62.02,83.367c-0.552-12.695-10.123,0-10.123,0H48.99h-0.22h-2.916c0,0-9.567-12.695-10.12,0c0,0-20.787-2.854-20.787-32.557
			c0-29.708,17.016-33.207,17.016-33.207s0.826,9.335,8.926,8.184c0,0-2.951-4.41,0-11.405c0,0,3.268,5.598,7.985,5.688
			c4.722-0.091,7.989-5.688,7.989-5.688c2.951,6.995,0,11.405,0,11.405c8.099,1.151,8.926-8.184,8.926-8.184
			s17.016,3.498,17.016,33.207C82.805,80.514,62.02,83.367,62.02,83.367z"/>
		<path d="M56.824,39.457l-0.053,5.145h6.478v25.916h7.244V35.658C70.493,37.732,56.824,39.457,56.824,39.457z"/>
		<path d="M46.698,50.01c-2.677-1.535-6.144-2.226-9.611-2.226c-1.154,0-1.943,0.052-2.854,0.156l-0.064-6.883h16.42v-5.399H27.127
			l-0.029,17.369c1.577-0.215,3.669-0.319,5.855-0.319c7.903,0,11.254,2.597,11.254,6.512c0,4.132-4.2,6.304-8.577,6.304
			c-3.592,0-6.993-1.008-8.696-1.801l-1.522,4.924c2.064,1.009,5.898,2.019,10.461,2.019c9.73,0,15.993-5.349,15.993-11.918
			C51.865,54.562,49.675,51.646,46.698,50.01z"/>
	</g>
</g>
<g>
</g>
<g>
</g>
<g>
</g>
<g>
</g>
<g>
</g>
<g>
</g>
<g>
</g>
<g>
</g>
<g>
</g>
<g>
</g>
<g>
</g>
<g>
</g>
<g>
</g>
<g>
</g>
<g>
</g>
</svg>
