<?xml version="1.0" encoding="iso-8859-1"?>
<!-- Generator: Adobe Illustrator 16.0.0, SVG Export Plug-In . SVG Version: 6.00 Build 0)  -->
<!DOCTYPE svg PUBLIC "-//W3C//DTD SVG 1.1//EN" "http://www.w3.org/Graphics/SVG/1.1/DTD/svg11.dtd">
<svg version="1.1" id="Capa_1" xmlns="http://www.w3.org/2000/svg" xmlns:xlink="http://www.w3.org/1999/xlink" x="0px" y="0px"
	 width="97.75px" height="97.75px" viewBox="0 0 97.75 97.75" style="enable-background:new 0 0 97.75 97.75;" xml:space="preserve"
	>
<g>
	<g>
		<path d="M62.775,53.432c1.401,0,2.567-1.147,2.582-2.543c0.016-1.43-1.154-2.586-2.607-2.578c-1.48,0.008-2.645,1.115-2.662,2.534
			C60.068,52.275,61.27,53.434,62.775,53.432z"/>
		<path d="M61.455,61.247c-0.352,0.037-0.711,0.164-1.025,0.328c-0.628,0.329-0.998,0.848-0.931,1.596
			c0.058,0.636,0.571,1.063,1.202,1.254c3.285,0.896,6.053-0.229,6.029-1.51C66.729,62.555,66.125,60.887,61.455,61.247z"/>
		<path d="M48.875,0C21.883,0,0,21.882,0,48.875S21.883,97.75,48.875,97.75S97.75,75.868,97.75,48.875S75.867,0,48.875,0z
			 M70.396,30.543h10.994v10.993H70.396V30.543z M56.716,30.543h10.993v10.993H56.716V30.543z M43.061,30.543h10.992v10.993H43.061
			V30.543z M15.68,30.543h10.994v10.993H15.68V30.543z M24.294,61.464l-2.656-4.782l-2.404,4.813l-4.147-0.006
			c1.188-2.097,4.579-8.099,4.579-8.099s-3.274-5.691-4.396-7.604l4.22-0.007l2.141,4.269l2.211-4.26l4.053-0.002l-4.387,7.551
			l4.751,8.127H24.294z M36.773,61.432c-0.084-0.396-0.17-0.785-0.26-1.205c-0.627,0.328-1.211,0.676-1.831,0.944
			c-1.365,0.591-2.796,0.82-4.262,0.478c-3.077-0.719-4.103-4.893-1.816-7.332c1.116-1.193,2.566-1.78,4.099-2.172
			c1.184-0.302,2.39-0.506,3.63-0.764c0.01-0.141,0.029-0.295,0.03-0.449c0.036-2.164-1.164-3.064-3.295-2.508
			c-1.048,0.274-1.768,0.975-2.418,1.799c-0.814-0.619-1.591-1.211-2.512-1.91c0.553-0.521,1.012-1.083,1.589-1.474
			c2.437-1.639,5.06-1.733,7.745-0.729c1.294,0.484,2.015,1.54,2.326,2.838c0.188,0.788,0.295,1.612,0.309,2.425
			c0.041,2.296-0.002,4.595,0.021,6.891c0.011,1.039,0.102,2.077,0.157,3.17C39.177,61.432,37.991,61.432,36.773,61.432z
			 M40.397,41.536H29.403V30.543h10.994V41.536z M55.258,61.443c-1.273,0-2.49,0-3.779,0c0-0.279,0-0.523,0-0.768
			c0-3.096,0.01-6.189-0.006-9.285c-0.006-0.563-0.06-1.142-0.197-1.686c-0.188-0.755-0.727-1.175-1.502-1.124
			c-2.616,0.133-3.706,1.56-3.706,1.56s0.04,7.463,0.04,10.514c0,0.248,0,0.494,0,0.787c-1.271,0-2.486,0-3.74,0
			c0-5.211,0-10.387,0-15.609c1.126,0,2.228,0,3.423,0c0,0.505,0,0.988,0,1.571c0.673-0.403,1.22-0.762,1.794-1.067
			c1.164-0.619,2.386-0.987,3.733-0.808c2.125,0.284,3.449,1.531,3.807,3.669c0.085,0.513,0.125,1.039,0.128,1.561
			c0.013,3.301,0.006,6.6,0.006,9.9C55.258,60.905,55.258,61.152,55.258,61.443z M68.745,65.552
			c-1.106,0.911-2.417,1.354-3.813,1.515c-2.115,0.244-4.229,0.224-6.27-0.485c-1.076-0.375-2.034-0.94-2.467-2.085
			c-0.698-1.841,0.293-3.479,2.576-4.02c-1.272-0.615-2.434-1.199-2.233-2.728c0.175-1.33,1.187-2.033,2.464-2.735
			c-0.215-0.115-0.37-0.166-0.484-0.265c-1.611-1.388-2.264-3.119-1.689-5.192c0.57-2.065,2.005-3.306,4.052-3.833
			c2.077-0.536,4.011-0.2,5.751,1.071c1.473-1.136,2.411-1.457,3.7-1.251c0,0.803,0,2.556,0,2.556s-1.83-0.116-2.386,0.193
			c0.736,1.161,0.949,2.302,0.841,3.51c-0.199,2.236-1.787,3.896-4.187,4.278c-0.869,0.139-1.768,0.108-2.646,0.18
			c-0.452,0.037-0.92,0.067-1.336,0.224c-0.249,0.093-0.573,0.42-0.57,0.641c0.001,0.266,0.26,0.677,0.499,0.764
			c0.589,0.211,1.228,0.314,1.853,0.385c1.422,0.16,2.851,0.264,4.271,0.414c0.312,0.032,0.618,0.144,0.919,0.24
			c1.403,0.448,2.382,1.295,2.634,2.821C70.479,63.309,69.943,64.564,68.745,65.552z M79.118,61.449
			c-0.089-0.428-0.17-0.816-0.261-1.249c-0.479,0.27-0.901,0.53-1.344,0.755c-1.242,0.63-2.562,0.96-3.951,0.809
			c-2.744-0.301-4.273-2.455-3.744-5.17c0.322-1.652,1.328-2.746,2.763-3.51c1.606-0.855,3.36-1.225,5.14-1.495
			c0.291-0.044,0.582-0.095,0.863-0.141c0.602-2.185-0.695-3.538-2.921-3.091c-1.142,0.229-1.937,0.943-2.661,1.869
			c-0.809-0.617-1.594-1.216-2.434-1.854c0.781-1.231,1.91-1.939,3.207-2.419c1.892-0.701,3.797-0.603,5.681,0.005
			c1.762,0.567,2.567,1.938,2.849,3.664c0.119,0.736,0.16,1.492,0.166,2.238c0.021,2.41-0.008,4.822,0.016,7.232
			c0.008,0.766,0.113,1.528,0.179,2.354C81.482,61.449,80.309,61.449,79.118,61.449z"/>
		<path d="M34.785,54.33c-0.951,0.347-1.937,0.662-2.798,1.174c-0.842,0.501-1.042,1.715-0.623,2.559
			c0.395,0.795,1.261,1.166,2.283,0.781c0.858-0.322,1.642-0.844,2.444-1.304c0.131-0.075,0.255-0.287,0.258-0.438
			c0.023-0.994,0.013-1.99,0.013-3.108C35.754,54.118,35.248,54.162,34.785,54.33z"/>
		<path d="M75.049,55.029c-0.421,0.156-0.804,0.517-1.107,0.867c-0.551,0.637-0.567,1.697-0.125,2.359
			c0.412,0.613,1.238,0.952,2.063,0.63c0.896-0.351,1.726-0.878,2.568-1.354c0.125-0.073,0.235-0.293,0.239-0.448
			c0.021-0.993,0.011-1.985,0.011-3.212C77.366,54.285,76.188,54.604,75.049,55.029z"/>
	</g>
</g>
<g>
</g>
<g>
</g>
<g>
</g>
<g>
</g>
<g>
</g>
<g>
</g>
<g>
</g>
<g>
</g>
<g>
</g>
<g>
</g>
<g>
</g>
<g>
</g>
<g>
</g>
<g>
</g>
<g>
</g>
</svg>
