<?xml version="1.0" encoding="iso-8859-1"?>
<!-- Generator: Adobe Illustrator 16.0.0, SVG Export Plug-In . SVG Version: 6.00 Build 0)  -->
<!DOCTYPE svg PUBLIC "-//W3C//DTD SVG 1.1//EN" "http://www.w3.org/Graphics/SVG/1.1/DTD/svg11.dtd">
<svg version="1.1" id="Capa_1" xmlns="http://www.w3.org/2000/svg" xmlns:xlink="http://www.w3.org/1999/xlink" x="0px" y="0px"
	 width="97.75px" height="97.75px" viewBox="0 0 97.75 97.75" style="enable-background:new 0 0 97.75 97.75;" xml:space="preserve"
	>
<g>
	<path d="M48.875,0C21.883,0,0,21.882,0,48.875S21.883,97.75,48.875,97.75S97.75,75.868,97.75,48.875S75.867,0,48.875,0z
		 M39.695,65.473H35.74V52.928c0-4.258-1.563-6.821-4.828-6.821c-2.299,0-4.092,1.693-4.781,3.663
		c-0.184,0.549-0.321,1.282-0.321,2.015v13.688h-3.955V52.195c0-3.526-1.563-6.089-4.644-6.089c-2.529,0-4.367,2.014-5.012,4.028
		c-0.23,0.595-0.322,1.283-0.322,1.97v13.369H7.923v-16.16c0-2.291-0.046-4.167-0.184-6h3.54l0.185,3.572h0.138
		c1.242-2.106,3.31-4.075,6.988-4.075c3.035,0,5.334,1.832,6.301,4.441h0.09c0.69-1.236,1.564-2.198,2.484-2.884
		c1.332-1.008,2.804-1.557,4.918-1.557c2.944,0,7.313,1.923,7.313,9.614L39.695,65.473L39.695,65.473z M52.701,65.473h-4.046v-22.16
		h4.046V65.473z M50.587,38.863c-1.425,0-2.437-1.45-2.437-3.262c0-1.874,1.058-3.323,2.53-3.323c1.518,0,2.481,1.45,2.481,3.323
		C53.207,37.413,52.197,38.863,50.587,38.863z M74.585,65.473l-3.263-4.99c-0.873-1.281-1.61-2.519-2.391-3.846h-0.094
		c-0.736,1.327-1.518,2.519-2.344,3.846l-3.221,4.99h-4.459l7.908-11.309l-7.541-10.852h4.506l3.172,4.763
		c0.828,1.235,1.519,2.38,2.254,3.616h0.139c0.734-1.327,1.473-2.473,2.206-3.662l3.126-4.717h4.369l-7.586,10.715l7.816,11.445
		H74.585L74.585,65.473z M87.527,32.277c1.517,0,2.48,1.45,2.48,3.323c0.045,1.813-0.965,3.262-2.574,3.262
		c-1.425,0-2.438-1.45-2.438-3.262C84.997,33.727,86.057,32.277,87.527,32.277z M89.525,65.473H85.48v-22.16h4.045V65.473z"/>
</g>
<g>
</g>
<g>
</g>
<g>
</g>
<g>
</g>
<g>
</g>
<g>
</g>
<g>
</g>
<g>
</g>
<g>
</g>
<g>
</g>
<g>
</g>
<g>
</g>
<g>
</g>
<g>
</g>
<g>
</g>
</svg>
