<?xml version="1.0" encoding="iso-8859-1"?>
<!-- Generator: Adobe Illustrator 16.0.0, SVG Export Plug-In . SVG Version: 6.00 Build 0)  -->
<!DOCTYPE svg PUBLIC "-//W3C//DTD SVG 1.1//EN" "http://www.w3.org/Graphics/SVG/1.1/DTD/svg11.dtd">
<svg version="1.1" id="Capa_1" xmlns="http://www.w3.org/2000/svg" xmlns:xlink="http://www.w3.org/1999/xlink" x="0px" y="0px"
	 width="97.75px" height="97.75px" viewBox="0 0 97.75 97.75" style="enable-background:new 0 0 97.75 97.75;" xml:space="preserve"
	>
<g>
	<g>
		<path d="M59.482,30.816c-1.318-1.902-3.918-2.065-5.524-0.421c-1.271,1.298-1.377,3.042-0.299,4.707
			c3.833,5.926,4.946,12.357,3.505,19.236c-0.635,3.023-1.875,5.805-3.591,8.377c-0.813,1.219-0.902,2.506-0.192,3.799
			c0.682,1.238,1.779,1.828,2.9,1.896c1.384-0.005,2.445-0.517,3.126-1.446c0.429-0.587,0.819-1.207,1.19-1.833
			c2.987-5.032,4.436-10.505,4.41-16.333c-0.01-2.101-0.275-4.221-0.641-6.294C63.618,38.257,61.943,34.358,59.482,30.816z"/>
		<path d="M42.267,50.988c-1.403-0.152-2.89,0.667-3.575,2.055c-1.63,3.311-3.239,6.633-4.83,9.963
			c-0.198,0.414-0.317,0.896-0.346,1.354c-0.104,1.678,1.063,3.261,2.68,3.716c1.688,0.475,3.465-0.286,4.271-1.915
			c1.628-3.287,3.225-6.588,4.807-9.896c0.228-0.476,0.297-1.024,0.402-1.406c-0.065-0.487-0.073-0.821-0.159-1.135
			C45.108,52.223,43.828,51.157,42.267,50.988z"/>
		<path d="M41.844,33.706c-2.631-0.017-4.716,2.047-4.73,4.683c-0.014,2.553,2.162,4.729,4.728,4.728
			c2.536-0.002,4.71-2.195,4.719-4.761C46.57,35.819,44.443,33.722,41.844,33.706z"/>
		<path d="M48.875,0C21.883,0,0,21.882,0,48.875S21.883,97.75,48.875,97.75S97.75,75.868,97.75,48.875S75.867,0,48.875,0z
			 M82.951,56.006c-0.008,0-0.014,0-0.02,0c0,5.416,0.03,10.831-0.021,16.245c-0.014,1.592-0.176,3.198-0.436,4.771
			c-0.57,3.445-2.377,5.151-5.89,5.535c-2.169,0.237-4.358,0.418-6.539,0.428c-9.746,0.045-19.494,0.102-29.24-0.01
			c-12.846-0.146-23.048-9.285-25.419-20.887c-0.38-1.854-0.54-3.773-0.569-5.668c-0.077-5.061-0.027-10.123-0.025-15.185
			C14.798,28.462,23.5,17.75,36,15.214c1.602-0.325,3.265-0.454,4.903-0.472c5.297-0.058,10.594-0.018,15.892-0.022
			c11.986-0.01,22.686,8.409,25.402,20.104c0.463,1.997,0.68,4.086,0.723,6.139C83.02,45.976,82.951,50.992,82.951,56.006z"/>
	</g>
</g>
<g>
</g>
<g>
</g>
<g>
</g>
<g>
</g>
<g>
</g>
<g>
</g>
<g>
</g>
<g>
</g>
<g>
</g>
<g>
</g>
<g>
</g>
<g>
</g>
<g>
</g>
<g>
</g>
<g>
</g>
</svg>
