<?xml version="1.0" encoding="iso-8859-1"?>
<!-- Generator: Adobe Illustrator 16.0.0, SVG Export Plug-In . SVG Version: 6.00 Build 0)  -->
<!DOCTYPE svg PUBLIC "-//W3C//DTD SVG 1.1//EN" "http://www.w3.org/Graphics/SVG/1.1/DTD/svg11.dtd">
<svg version="1.1" id="Capa_1" xmlns="http://www.w3.org/2000/svg" xmlns:xlink="http://www.w3.org/1999/xlink" x="0px" y="0px"
	 width="97.75px" height="97.75px" viewBox="0 0 97.75 97.75" style="enable-background:new 0 0 97.75 97.75;" xml:space="preserve"
	>
<g>
	<path d="M48.875,0C21.883,0,0,21.882,0,48.875S21.883,97.75,48.875,97.75S97.75,75.868,97.75,48.875S75.867,0,48.875,0z
		 M19.086,62.536c-0.573-4.572-0.228-11.017,0.343-13.539c0.63-2.793,2.18-3.49,4.83-2.428c5.235,2.097,10.455,4.228,15.673,6.365
		c1.648,0.676,2.373,1.846,2.301,3.545c-0.07,1.612-0.868,2.631-2.58,3.176c-5.497,1.752-10.992,3.509-16.504,5.213
		C20.957,65.545,19.576,64.799,19.086,62.536z M48.736,85.314c-0.024,2.209-1.158,3.387-3.349,3.17
		c-4.886-0.483-9.396-2.148-13.441-4.922c-1.833-1.258-1.98-2.873-0.563-4.582c3.749-4.514,7.537-8.996,11.336-13.469
		c1.063-1.252,2.487-1.531,4.018-0.924c1.432,0.569,2.093,1.561,2.101,3.25c0.015,2.913,0.004,5.825,0.004,8.738
		c-0.031,0-0.063,0-0.097,0C48.744,79.489,48.77,82.402,48.736,85.314z M48.729,44.752c-0.672,2.43-3.088,3.142-5.004,1.484
		c-0.773-0.669-1.434-1.52-1.985-2.388c-5.294-8.316-10.557-16.652-15.819-24.988c-1.52-2.407-1.217-3.859,1.333-5.153
		c5.047-2.562,10.414-4.109,16.075-4.45c2.699-0.162,3.648,0.744,3.835,3.416c0.663,9.53,1.291,19.062,1.957,28.939
		C49.025,42.444,49.035,43.643,48.729,44.752z M55.182,48.285c3.45-4.679,6.879-9.376,10.355-14.037
		c1.488-1.996,3.107-2.189,4.949-0.479c3.42,3.176,5.975,6.989,7.606,11.361c0.884,2.366,0.103,3.749-2.336,4.376
		c-5.544,1.426-11.104,2.792-16.659,4.176c-0.334,0.082-0.685,0.102-0.963,0.141c-1.51-0.042-2.541-0.76-3.203-1.992
		C54.281,50.618,54.344,49.419,55.182,48.285z M78.148,71.538c-1.887,3.721-4.442,6.931-7.575,9.677
		c-0.483,0.424-1.044,0.79-1.624,1.067c-1.365,0.651-2.633,0.381-3.43-0.88c-3.293-5.207-6.552-10.437-9.768-15.691
		c-0.824-1.354-0.406-2.697,0.557-3.852c0.922-1.104,2.119-1.52,3.504-1.061c5.683,1.879,11.354,3.786,17.03,5.686
		c1.296,0.433,2.033,1.279,2.115,2.746C78.693,70.001,78.514,70.816,78.148,71.538z"/>
</g>
<g>
</g>
<g>
</g>
<g>
</g>
<g>
</g>
<g>
</g>
<g>
</g>
<g>
</g>
<g>
</g>
<g>
</g>
<g>
</g>
<g>
</g>
<g>
</g>
<g>
</g>
<g>
</g>
<g>
</g>
</svg>
